<svg width="22" height="30" viewBox="0 0 22 30" fill="none" xmlns="http://www.w3.org/2000/svg">
<path fill-rule="evenodd" clip-rule="evenodd" d="M13.789 0C11.5507 0 9.73625 1.81449 9.73625 4.05277C9.73625 6.29105 11.5507 8.10554 13.789 8.10554C16.0273 8.10554 17.8418 6.29105 17.8418 4.05277C17.8418 1.81449 16.0273 0 13.789 0ZM12.4381 4.05277C12.4381 3.30668 13.0429 2.70185 13.789 2.70185C14.5351 2.70185 15.1399 3.30668 15.1399 4.05277C15.1399 4.79886 14.5351 5.40369 13.789 5.40369C13.0429 5.40369 12.4381 4.79886 12.4381 4.05277Z" fill="#57534E"/>
<path d="M9.28949 11.4976L4.72463 21.5403C3.71913 23.7524 2.32398 25.7656 0.6058 27.4838L0 28.0896L1.91049 30.0001L2.51629 29.3943C4.46357 27.447 6.04474 25.1654 7.1843 22.6584L9.03649 18.5835C11.2015 20.831 12.4381 23.8481 12.4381 27.0185V29.7203H15.1399V27.0185C15.1399 22.7866 13.3372 18.7781 10.2224 15.9744L12.0743 11.9003C12.4326 12.0325 12.7804 12.1954 13.1137 12.3878C13.3852 12.5445 13.6445 12.7194 13.89 12.9109C15.3979 14.0867 17.433 15.5356 19.8758 15.5356H21.8946V12.8338H19.8758C18.4576 12.8338 17.0883 11.9787 15.5514 10.7803C15.2077 10.5122 14.8447 10.2673 14.4646 10.0479C13.0271 9.21795 11.3964 8.781 9.73639 8.781C8.07644 8.781 6.44573 9.21795 5.00816 10.0479C3.5706 10.8779 2.37683 12.0717 1.54686 13.5092L1.53619 13.5277L0.440024 15.5729L2.82139 16.8493L3.89693 14.8425C4.48934 13.8236 5.33813 12.9772 6.35909 12.3878C7.25655 11.8696 8.25941 11.5659 9.28949 11.4976Z" fill="#57534E"/>
</svg>
