<svg width="48" height="48" viewBox="0 0 48 48" fill="none" xmlns="http://www.w3.org/2000/svg">
<path d="M0 24C0 10.7452 10.7452 0 24 0C37.2548 0 48 10.7452 48 24C48 37.2548 37.2548 48 24 48C10.7452 48 0 37.2548 0 24Z" fill="#FAFAF9"/>
<path fill-rule="evenodd" clip-rule="evenodd" d="M24 13C22.3431 13 21 14.3431 21 16C21 17.6569 22.3431 19 24 19C25.6569 19 27 17.6569 27 16C27 14.3431 25.6569 13 24 13ZM23 16C23 15.4477 23.4477 15 24 15C24.5523 15 25 15.4477 25 16C25 16.5523 24.5523 17 24 17C23.4477 17 23 16.5523 23 16Z" fill="#57534E"/>
<path d="M14 20V22H23V25.4558L14.3559 32.7351L15.6441 34.2649L24.1483 27.1035L26.9487 28.037C28.1737 28.4453 29 29.5917 29 30.883V34H31V30.883C31 28.7309 29.6228 26.8202 27.5811 26.1396L25 25.2792V22H34V20H14Z" fill="#57534E"/>
</svg>
