<svg width="18" height="18" viewBox="0 0 18 18" fill="none" xmlns="http://www.w3.org/2000/svg">
<path fill-rule="evenodd" clip-rule="evenodd" d="M8.90372 0C7.46346 0 6.29591 1.16756 6.29591 2.60781C6.29591 4.04806 7.46346 5.21562 8.90372 5.21562C10.344 5.21562 11.5115 4.04806 11.5115 2.60781C11.5115 1.16756 10.344 0 8.90372 0ZM8.03445 2.60781C8.03445 2.12773 8.42363 1.73854 8.90372 1.73854C9.3838 1.73854 9.77298 2.12773 9.77298 2.60781C9.77298 3.08789 9.3838 3.47708 8.90372 3.47708C8.42363 3.47708 8.03445 3.08789 8.03445 2.60781Z" fill="#57534E"/>
<path d="M8.03445 9.83706V11.6325L1.56081 14.8694C1.20022 15.0497 1.01092 15.4542 1.10354 15.8466C1.19616 16.2389 1.54641 16.5161 1.94956 16.5161H4.1973C5.21498 16.5161 6.19097 16.1119 6.91057 15.3923L6.07455 14.5562L8.90372 13.1417L12.1756 14.7776H10.344C9.19124 14.7776 8.08573 15.2355 7.27063 16.0506L6.55051 16.7707L7.77984 18.0001L8.49997 17.2799C8.98903 16.7909 9.65233 16.5161 10.344 16.5161H15.8579C16.261 16.5161 16.6113 16.2389 16.7039 15.8466C16.7965 15.4542 16.6072 15.0497 16.2466 14.8694L9.77298 11.6325V9.83735C9.77619 9.84217 9.77939 9.84699 9.78261 9.8518C10.3557 10.7095 11.1703 11.378 12.1233 11.7728C13.0763 12.1675 14.125 12.2708 15.1368 12.0696C16.1485 11.8683 17.0778 11.3716 17.8072 10.6422L16.5779 9.41283C16.0916 9.89911 15.4721 10.2303 14.7976 10.3644C14.1231 10.4986 13.424 10.4297 12.7886 10.1666C12.1533 9.90339 11.6102 9.45772 11.2282 8.88592C10.9756 8.50798 10.8009 8.08615 10.7115 7.64495C10.5554 6.87494 9.89637 6.08489 8.90362 6.08489C7.91087 6.08489 7.25187 6.87494 7.09577 7.64495C7.00633 8.08615 6.83162 8.50798 6.57909 8.88592C6.19702 9.45772 5.65397 9.90339 5.01862 10.1666C4.38327 10.4297 3.68414 10.4986 3.00966 10.3644C2.33517 10.2303 1.71561 9.89911 1.22933 9.41283L0 10.6422C0.729418 11.3716 1.65875 11.8683 2.67048 12.0696C3.68221 12.2708 4.7309 12.1675 5.68393 11.7728C6.63696 11.378 7.45153 10.7095 8.02463 9.8518C8.02791 9.84689 8.03118 9.84198 8.03445 9.83706Z" fill="#57534E"/>
</svg>
