<svg width="22" height="22" viewBox="0 0 22 22" fill="none" xmlns="http://www.w3.org/2000/svg">
<path fill-rule="evenodd" clip-rule="evenodd" d="M12.7569 3.01176C12.7569 1.34841 14.1054 0 15.7687 0C17.4321 0 18.7805 1.34841 18.7805 3.01176C18.7805 4.67512 17.4321 6.02353 15.7687 6.02353C14.1054 6.02353 12.7569 4.67512 12.7569 3.01176ZM15.7687 2.00784C15.2143 2.00784 14.7648 2.45731 14.7648 3.01176C14.7648 3.56622 15.2143 4.01569 15.7687 4.01569C16.3232 4.01569 16.7726 3.56622 16.7726 3.01176C16.7726 2.45731 16.3232 2.00784 15.7687 2.00784Z" fill="#F08C51"/>
<path d="M22.0002 7.23537L19.8201 9.41546C17.8598 11.3757 14.6815 11.3757 12.7213 9.41546L12.3768 9.07097C11.2006 7.8948 9.29366 7.8948 8.1175 9.07097L5.93741 11.2511L4.51765 9.8313L6.69774 7.65121C8.65802 5.69093 11.8363 5.69093 13.7965 7.65121L14.141 7.9957C15.3172 9.17187 17.2241 9.17187 18.4003 7.9957L20.5804 5.81561L22.0002 7.23537Z" fill="#F08C51"/>
<path d="M9.45113 13.7609C10.168 13.044 11.3302 13.044 12.0471 13.7609C12.7639 14.4777 12.7639 15.6399 12.0471 16.3568L9.53725 18.8666L10.957 20.2864L13.4668 17.7765C14.9678 16.2756 14.9678 13.8421 13.4668 12.3411C11.9659 10.8401 9.53233 10.8401 8.03137 12.3411L0 20.3725L1.41976 21.7922L9.45113 13.7609Z" fill="#F08C51"/>
</svg>
