<svg width="17" height="18" viewBox="0 0 17 18" fill="none" xmlns="http://www.w3.org/2000/svg">
<path fill-rule="evenodd" clip-rule="evenodd" d="M8.46468 0C7.0622 0 5.92527 1.13693 5.92527 2.5394C5.92527 3.94188 7.0622 5.0788 8.46468 5.0788C9.86715 5.0788 11.0041 3.94188 11.0041 2.5394C11.0041 1.13693 9.86715 0 8.46468 0ZM7.61821 2.5394C7.61821 2.07191 7.99719 1.69293 8.46468 1.69293C8.93217 1.69293 9.31114 2.07191 9.31114 2.5394C9.31114 3.00689 8.93217 3.38587 8.46468 3.38587C7.99719 3.38587 7.61821 3.00689 7.61821 2.5394Z" fill="#F59E0B"/>
<path d="M0 5.92527V7.61821H7.61821V10.5434L0.301228 16.7051L1.39171 18.0001L8.5902 11.9382L10.9606 12.7283C11.9976 13.074 12.697 14.0444 12.697 15.1374V17.7758H14.3899V15.1374C14.3899 13.3157 13.2242 11.6983 11.496 11.1223L9.31114 10.394V7.61821H16.9294V5.92527H0Z" fill="#F59E0B"/>
</svg>
