<svg width="48" height="48" viewBox="0 0 48 48" fill="none" xmlns="http://www.w3.org/2000/svg">
<path d="M0 24C0 10.7452 10.7452 0 24 0C37.2548 0 48 10.7452 48 24C48 37.2548 37.2548 48 24 48C10.7452 48 0 37.2548 0 24Z" fill="#FAFAF9"/>
<path fill-rule="evenodd" clip-rule="evenodd" d="M24.0006 14C22.3437 14 21.0006 15.3431 21.0006 17C21.0006 18.6569 22.3437 20 24.0006 20C25.6574 20 27.0006 18.6569 27.0006 17C27.0006 15.3431 25.6574 14 24.0006 14ZM23.0006 17C23.0006 16.4477 23.4483 16 24.0006 16C24.5528 16 25.0006 16.4477 25.0006 17C25.0006 17.5523 24.5528 18 24.0006 18C23.4483 18 23.0006 17.5523 23.0006 17Z" fill="#57534E"/>
<path d="M23.0006 25.3165V27.382L15.5533 31.1056C15.1385 31.313 14.9208 31.7784 15.0273 32.2298C15.1339 32.6811 15.5368 33 16.0006 33H18.5863C19.7571 33 20.8798 32.5349 21.7077 31.7071L20.7459 30.7454L24.0006 29.118L27.7645 31H25.6574C24.3313 31 23.0596 31.5268 22.1219 32.4645L21.2935 33.2929L22.7077 34.7071L23.5361 33.8787C24.0987 33.3161 24.8618 33 25.6574 33H32.0006C32.4643 33 32.8673 32.6811 32.9738 32.2298C33.0804 31.7784 32.8626 31.313 32.4478 31.1056L25.0006 27.382V25.3168C25.0042 25.3223 25.0079 25.3279 25.0116 25.3334C25.6709 26.3201 26.608 27.0892 27.7044 27.5433C28.8007 27.9974 30.0071 28.1162 31.171 27.8847C32.3349 27.6532 33.404 27.0818 34.2431 26.2426L32.8289 24.8284C32.2695 25.3878 31.5567 25.7688 30.7808 25.9231C30.0049 26.0775 29.2006 25.9983 28.4697 25.6955C27.7388 25.3928 27.1141 24.8801 26.6746 24.2223C26.3841 23.7875 26.1831 23.3022 26.0802 22.7947C25.9006 21.9089 25.1425 21 24.0005 21C22.8584 21 22.1003 21.9089 21.9207 22.7947C21.8178 23.3022 21.6168 23.7875 21.3263 24.2223C20.8868 24.8801 20.2621 25.3928 19.5312 25.6955C18.8003 25.9983 17.996 26.0775 17.2201 25.9231C16.4442 25.7688 15.7314 25.3878 15.172 24.8284L13.7578 26.2426C14.5969 27.0818 15.666 27.6532 16.8299 27.8847C17.9938 28.1162 19.2002 27.9974 20.2966 27.5433C21.3929 27.0892 22.33 26.3201 22.9893 25.3334C22.993 25.3278 22.9968 25.3221 23.0006 25.3165Z" fill="#57534E"/>
</svg>
