<svg width="14" height="15" viewBox="0 0 14 15" fill="none" xmlns="http://www.w3.org/2000/svg">
<path d="M13.1354 1.23677C12.6713 0.632019 12.0207 0.197289 11.2844 0L10.9259 1.3379C11.3677 1.45627 11.7581 1.71711 12.0365 2.07996C12.1703 2.25437 12.2747 2.44767 12.347 2.6522H3.46274C1.55032 2.6522 0 4.20252 0 6.11493V7.50003H1.38509V6.11493C1.38509 4.96748 2.31529 4.03729 3.46274 4.03729H12.347C12.2747 4.24182 12.1703 4.43512 12.0365 4.60953C11.7581 4.97238 11.3677 5.23322 10.9259 5.35159L11.2844 6.68949C12.0207 6.4922 12.6713 6.05747 13.1354 5.45272C13.5994 4.84798 13.8509 4.10701 13.8509 3.34475C13.8509 2.58248 13.5994 1.84151 13.1354 1.23677Z" fill="#A8A29E"/>
<path d="M0.715563 9.54733C1.1796 8.94258 1.83022 8.50785 2.56651 8.31056L2.925 9.64846C2.48323 9.76684 2.09285 10.0277 1.81443 10.3905C1.6806 10.5649 1.57623 10.7582 1.50392 10.9628H10.3882C11.5357 10.9628 12.4658 10.0326 12.4658 8.88512V7.50003H13.8509V8.88512C13.8509 10.7975 12.3006 12.3479 10.3882 12.3479H1.50392C1.57623 12.5524 1.6806 12.7457 1.81443 12.9201C2.09285 13.2829 2.48323 13.5438 2.925 13.6622L2.56651 15.0001C1.83022 14.8028 1.1796 14.368 0.715563 13.7633C0.251524 13.1585 0 12.4176 0 11.6553C0 10.893 0.251524 10.1521 0.715563 9.54733Z" fill="#A8A29E"/>
</svg>
