<svg width="18" height="11" viewBox="0 0 18 11" fill="none" xmlns="http://www.w3.org/2000/svg">
<path d="M14.7154 9.01464C14.4707 9.13149 14.2076 9.21009 13.9352 9.24595C13.3684 9.32057 12.7929 9.20609 12.2978 8.92026L11.4322 10.4195C12.2573 10.8959 13.2165 11.0867 14.1611 10.9624C15.1057 10.838 15.9829 10.4054 16.6566 9.73173C17.3303 9.05804 17.7629 8.18087 17.8872 7.23627C18.0116 6.29167 17.8208 5.33243 17.3444 4.50732L15.8451 5.37293C16.131 5.86799 16.2454 6.44354 16.1708 7.0103C16.135 7.28273 16.0564 7.54581 15.9395 7.79048L9.26817 1.11914L5.80573 4.58158L1.22416 0L0 1.22416L5.80573 7.02989L9.26817 3.56745L14.7154 9.01464Z" fill="#FB7185"/>
</svg>
