<svg width="21" height="13" viewBox="0 0 21 13" fill="none" xmlns="http://www.w3.org/2000/svg">
<path d="M14.4081 2.43591C14.9881 2.10104 15.6624 1.96691 16.3265 2.05433C16.6456 2.09635 16.9539 2.18844 17.2405 2.32534L10.8586 8.70727L6.802 4.65067L0 11.4527L1.43422 12.8869L6.802 7.51912L10.8586 11.5757L18.6747 3.75956C18.8116 4.04622 18.9037 4.35445 18.9458 4.67363C19.0332 5.33765 18.899 6.01195 18.5642 6.59197L20.3207 7.60612C20.8788 6.63942 21.1024 5.51558 20.9567 4.40888C20.811 3.30219 20.3042 2.2745 19.5149 1.48519C18.7256 0.69589 17.6979 0.189087 16.5912 0.0433881C15.4845 -0.102311 14.3607 0.121236 13.394 0.679357L14.4081 2.43591Z" fill="#F08C51"/>
</svg>
