<svg width="15" height="15" viewBox="0 0 15 15" fill="none" xmlns="http://www.w3.org/2000/svg">
<path d="M5.08519 3.51962C5.22762 2.98804 5.54149 2.51831 5.9781 2.18328C6.18797 2.02224 6.42056 1.89665 6.66667 1.80964L6.66667 9.16667H8.33333V1.80964C8.57944 1.89665 8.81203 2.02224 9.0219 2.18328C9.45851 2.51831 9.77238 2.98804 9.91481 3.51962L11.5247 3.08825C11.2873 2.20228 10.7642 1.4194 10.0365 0.861027C9.30882 0.302656 8.41723 0 7.5 0C6.58277 0 5.69118 0.302656 4.96349 0.861028C4.23581 1.4194 3.7127 2.20228 3.47531 3.08825L5.08519 3.51962Z" fill="white"/>
<path d="M7.5 12.5C10.7217 12.5 13.3333 9.88833 13.3333 6.66667H15C15 10.8088 11.6421 14.1667 7.5 14.1667C3.35786 14.1667 0 10.8088 0 6.66667L1.66667 6.66667C1.66667 9.88833 4.27834 12.5 7.5 12.5Z" fill="white"/>
</svg>
