<svg width="58" height="65" viewBox="0 0 58 65" fill="none" xmlns="http://www.w3.org/2000/svg">
<path d="M57.1977 64.6785C57.0369 64.558 56.8762 64.4374 56.8494 64.3437C56.327 61.9462 55.885 56.5887 55.2957 54.218C54.6662 51.6732 54.0099 47.789 52.8313 45.4049C51.6392 42.994 49.7909 41.2126 47.4872 39.8599C46.3889 39.217 45.3307 38.4937 44.1655 37.9981C42.6922 37.382 41.1385 36.9668 39.6116 36.4846C39.0089 36.2971 38.3794 36.1364 37.6293 35.9221C37.857 37.4892 37.9642 38.9759 38.3124 40.409C38.7812 42.3377 38.9553 44.3066 39.1562 46.2621C39.3705 48.2979 39.5044 50.3338 39.6786 52.3696C39.692 52.5571 39.692 52.7447 39.7054 52.9188C39.7857 55.6109 39.8661 58.3031 39.9464 60.9952C39.9732 61.8256 40.0268 63.1918 40.0536 64.0088C40.0536 64.1829 40.067 64.4106 39.9733 64.5446C39.9331 64.5847 39.8929 64.6383 39.8393 64.6785H39.25C39.183 64.5981 39.1161 64.491 39.1027 64.4106C39.0357 64.1829 39.0624 63.9151 39.0624 63.674C38.9285 60.071 38.808 55.919 38.6473 52.3161C38.5669 50.5481 38.4463 48.7801 38.2722 47.0255C38.0311 44.7218 37.8838 42.4047 37.2945 40.1545C37.1472 39.6054 37.0802 39.0295 36.9328 38.266C36.6382 39.0964 36.4239 39.7393 36.1962 40.3688C36.089 40.6501 35.9551 40.9448 35.7944 41.1992C35.1917 42.1636 34.2005 42.2975 33.129 41.6546C32.4326 41.2394 31.6691 40.9046 30.7717 40.4358C31.0262 42.2707 29.9279 43.369 29.1109 44.5209C28.4546 45.4317 28.3876 46.396 28.3876 47.4006C28.3876 48.8605 28.4546 50.307 28.5082 51.7669C28.5751 53.8429 28.6957 55.9056 28.7091 57.9816C28.7225 59.6291 28.602 61.7988 28.535 63.4463C28.535 63.5668 28.5216 64.3838 28.4546 64.4776C28.3475 64.6115 28.2403 64.6249 28.1198 64.6785H27.8786C27.7447 64.5847 27.5706 64.558 27.5438 64.4106C27.4768 64.0892 27.5171 63.0578 27.5305 62.723C27.7046 60.3791 27.8921 57.4994 27.7581 55.1421C27.6778 53.9233 27.7983 52.6777 27.7849 51.4455C27.7715 50.1597 27.6912 48.8605 27.6376 47.5747C27.6242 47.3872 27.584 47.213 27.5706 47.0255C27.5438 46.1014 27.584 45.1772 27.4768 44.2664C27.3429 43.1279 27.3295 42.0029 27.651 40.8912C27.6778 40.8108 27.6376 40.7171 27.6108 40.5831C26.4991 40.5162 25.5214 40.9314 24.6106 41.4135C23.3784 42.0832 22.481 42.177 21.6505 40.2617C21.155 39.1232 21.2488 37.958 21.4363 36.7927C21.5033 36.3373 21.597 35.8953 21.6908 35.4265C21.1148 35.2792 20.7666 35.3596 20.6862 36.0159C20.4853 37.4892 20.2844 38.9625 19.963 40.409C19.3067 43.3824 19.1191 46.4094 18.9852 49.4364C18.878 51.8741 18.6102 54.2983 18.4763 56.736C18.3691 58.7718 18.3423 61.3435 18.2754 63.3793C18.262 63.6204 18.3155 63.8883 18.2351 64.116C18.1816 64.3169 17.9941 64.4642 17.8601 64.6517C17.6592 64.491 17.3646 64.3838 17.2708 64.1695C17.1637 63.9017 17.1905 63.5668 17.2039 63.2588C17.2574 61.7185 17.2842 59.6424 17.3779 58.1156C17.5387 55.3564 17.7396 52.6107 17.9137 49.865C17.9807 48.8203 18.0476 47.7622 18.1012 46.7175C18.2351 44.2128 18.6236 41.7484 19.1594 39.3107C19.4138 38.1723 19.4808 36.9936 19.6281 35.815C15.9047 36.6588 12.4089 37.7972 9.34168 40.0072C8.85951 40.3554 8.35056 40.6501 7.88177 41.0117C5.59144 42.7529 4.25208 45.137 3.40827 47.8024C2.60464 50.374 2.39034 52.7179 1.73405 55.3297C1.38581 56.736 0.729503 62.4685 0.448233 63.9017C0.408052 64.1026 0.327703 64.3035 0.260734 64.491C0.193765 64.491 0.126796 64.491 0.0598273 64.491C0.0464335 64.116 -0.0205223 63.7409 0.00626526 63.3659C0.207172 60.647 0.622379 53.9367 1.34564 51.3115C1.90818 49.2355 2.44393 47.1193 3.42168 45.1906C4.26548 43.503 5.25658 41.9359 6.79687 40.7171C8.55145 39.3375 10.373 38.0517 12.3553 37.0338C13.4402 36.4846 14.6724 36.1766 15.8377 35.7882C16.5341 35.5605 17.244 35.373 18.0476 35.1453C17.2842 34.8908 16.6279 34.7301 16.0118 34.4622C15.3689 34.1809 14.7126 33.8729 14.1634 33.4443C13.2661 32.7478 12.958 31.7834 13.1188 30.6316C13.467 28.1805 13.775 25.7295 14.0563 23.265C14.0965 22.9302 13.9759 22.5551 13.842 22.2203C13.4 21.1756 12.9848 20.1309 13.4937 19.0192C13.7214 18.5236 14.0697 18.0548 14.4447 17.653C14.6992 17.3718 14.8197 17.2646 14.4849 16.9432C14.2438 16.7155 14.0965 16.3136 14.0697 15.9788C13.6277 11.5187 14.8733 7.6211 17.8735 4.27266C19.1727 2.81274 20.713 1.68767 22.4944 0.924226C23.2712 0.589382 24.1552 0.455444 25.0124 0.361687C26.4321 0.200962 27.8787 0.187569 29.2984 0.0268436C30.1556 -0.0803065 30.9458 0.160782 31.7628 0.267932C33.8389 0.562594 35.5533 1.55373 37.107 2.87971C38.808 4.33963 40.1072 6.09421 40.9912 8.13007C42.0225 10.5275 42.4645 13.0322 42.1564 15.644C42.1162 15.9788 42.1028 16.4074 41.9019 16.6083C41.6073 16.8896 41.6341 17.0905 41.8484 17.3182C43.536 19.1129 42.5716 21.5372 41.1787 22.9703C40.8572 23.3052 40.7233 23.4927 40.9778 23.9615C41.2457 24.4571 41.4331 25.0866 41.4064 25.6357C41.3662 26.6001 41.5939 27.4573 41.9154 28.3412C42.3841 29.6404 42.8931 30.9396 42.7725 32.3862C42.719 33.0558 42.5449 33.605 41.9823 33.9934C41.2992 34.4622 40.6162 34.9176 39.8527 35.4399C40.2813 35.5873 40.7367 35.815 41.2054 35.9087C43.9244 36.4177 46.2281 37.7704 48.4381 39.3241C49.3489 39.967 50.2998 40.5697 51.0901 41.3466C51.8937 42.1502 52.5634 43.1012 53.1795 44.0521C54.5189 46.1014 55.0948 48.4721 55.7645 50.7758C56.5145 53.3608 57.4521 60.3791 57.653 63.0578C57.7066 63.7007 57.7066 64.3035 57.5592 64.9999C57.5191 64.9062 57.3584 64.7856 57.1977 64.6785ZM41.7412 19.5415C41.7546 18.8852 41.4868 18.2825 40.9242 17.9745C40.5894 17.787 39.9867 17.72 39.7188 17.9075C39.1295 18.3227 38.6339 18.9254 38.6874 19.8228C39.0223 19.4746 39.2366 19.1397 39.5312 18.9522C39.7455 18.8183 40.0804 18.8986 40.3751 18.8853C40.3081 19.1263 40.3215 19.4612 40.1742 19.5951C39.7322 19.9701 39.6518 20.2916 40.0268 20.7604C40.1206 20.8809 40.0938 21.1756 40.0268 21.3497C40 21.4167 39.6786 21.4569 39.558 21.3899C39.2634 21.2426 39.1429 21.3363 39.1161 21.6042C39.0759 21.939 39.0759 22.2605 39.0491 22.5953C39.3706 22.5819 39.7054 22.5953 40.0134 22.5284C40.2009 22.4882 40.4018 22.3274 40.5358 22.1801C41.2054 21.4301 41.7144 20.5729 41.7412 19.5415ZM40.4956 25.4482C40.4956 24.2963 39.9598 23.5195 39.1964 23.5463C38.4597 23.5731 37.857 24.3231 37.8704 25.1669C37.8972 25.8902 38.3526 26.2786 39.1562 26.2786C40.0134 26.2652 40.4956 25.9572 40.4956 25.4482ZM37.7231 23.3588C37.9909 23.1043 38.0579 22.9034 37.924 22.5685C37.5356 21.564 37.482 20.5193 37.5088 19.4478C37.5356 18.2691 37.4552 17.0905 37.3481 15.9252C37.2677 14.9609 37.1338 14.8135 36.2364 14.8269C35.1247 14.8403 34.5354 14.2644 34.1604 13.3268C33.8925 12.6572 33.5978 11.9875 33.3165 11.3312C33.1156 11.6124 32.9817 11.9205 33.0219 12.1884C33.1023 12.7643 33.2496 13.3402 33.3969 13.9028C33.5041 14.318 33.3969 14.4787 32.9549 14.4385C32.4995 14.3983 32.0307 14.3983 31.5619 14.3983C30.169 14.4117 28.7761 14.4519 27.3965 14.4519C26.4724 14.4519 26.3651 14.3314 26.2044 13.4206C26.0973 12.8848 26.0303 12.3357 25.9365 11.7062C25.4008 12.4027 25.5482 13.1125 25.5884 13.7688C25.6151 14.318 25.3741 14.3849 24.9856 14.3582C23.874 14.2778 22.7756 14.1573 21.6639 14.0635C20.7398 13.9831 20.4317 13.6483 20.4184 12.6973C20.4184 12.2419 20.4184 11.7866 20.4184 11.3312C20.338 11.3312 20.2442 11.3178 20.1639 11.3178C19.3469 12.6304 18.7173 14.0233 18.4494 15.5636C18.3423 16.1261 18.3021 16.7422 18.3825 17.3048C18.6236 19.1665 18.9316 21.0283 18.195 22.8632C18.1146 23.0775 18.2218 23.5329 18.3959 23.6534C19.4406 24.3633 19.5344 25.408 19.3603 26.4795C19.2531 27.0822 19.454 27.4171 19.8692 27.7251C20.7934 28.3948 21.6639 29.1583 22.6551 29.7074C25.0124 31.0334 27.5706 31.529 30.2628 31.0602C30.9726 30.9396 31.6423 30.6048 32.3254 30.3235C34.1202 29.5869 35.6605 28.4618 37.0266 27.0822C37.3481 26.7474 37.4284 26.4795 37.2141 26.0375C36.6918 25.033 36.8927 24.149 37.7231 23.3588ZM36.3569 36.5382C36.1694 36.3641 36.0489 36.1498 35.8882 36.123C35.0711 35.9623 34.2407 35.8417 33.4237 35.7212C33.2764 35.6944 33.0486 35.7346 32.9817 35.8284C32.2986 36.7793 31.6155 37.7437 30.9726 38.708C30.7315 39.0696 30.7583 39.3375 31.2539 39.5518C32.1513 39.9268 33.0085 40.4224 33.8925 40.851C34.4684 41.1323 34.7765 41.0787 35.0042 40.4894C35.4863 39.2304 35.8882 37.9312 36.3569 36.5382ZM31.87 35.7346C32.3656 35.0381 32.6603 34.3015 32.4862 33.4175C32.3656 32.8148 32.3254 32.1986 32.245 31.6361C31.1735 31.837 30.169 32.0245 29.1779 32.212C28.3608 32.3728 27.5572 32.5469 26.7402 32.7076C26.258 32.8014 25.7624 32.8683 25.2669 32.9085C24.3695 32.9755 24.115 33.3505 24.5972 34.0872C25.5481 35.5203 26.5259 36.9534 27.5706 38.3062C28.3742 39.3509 28.8297 40.3956 28.468 41.735C28.3073 42.3109 28.3609 42.9538 28.3207 43.5565C29.285 42.5788 29.9145 41.5609 29.6735 40.2081C29.5261 39.4447 29.7806 38.7348 30.2226 38.1053C30.7851 37.3151 31.3075 36.5114 31.87 35.7346ZM26.1241 39.7393C27.4367 39.3777 27.517 39.2036 26.6866 38.0919C26.6464 38.0383 26.6063 37.9981 26.5661 37.9446C25.8294 37.074 25.0928 36.2034 24.3695 35.3194C24.1954 35.1051 24.0749 34.9711 23.7668 35.1453C23.5391 35.2792 23.231 35.239 22.9899 35.373C22.7756 35.4935 22.5078 35.6944 22.4676 35.8953C22.3068 36.6454 22.2265 37.4222 22.0926 38.3464C22.2131 38.8285 22.3337 39.4715 22.548 40.0608C22.856 40.8778 23.0837 40.9314 23.8873 40.5965C24.6374 40.3153 25.3607 39.9536 26.1241 39.7393ZM17.2173 27.0688C17.9673 27.0688 18.4763 26.5867 18.4763 25.8902C18.3959 24.7785 17.9003 24.082 16.9895 24.1356C16.3198 24.1758 15.5832 24.8187 15.5832 25.4348C15.61 26.3991 16.2663 27.0688 17.2173 27.0688ZM17.177 22.1265C17.177 21.7649 17.1637 21.4702 16.6145 21.564C16.0922 21.6444 16.0118 21.4301 16.3064 20.9881C16.4136 20.8407 16.5342 20.6934 16.6815 20.5059C16.4404 20.3586 16.2261 20.1577 15.9716 20.1175C15.6368 20.0639 15.3689 19.93 15.5028 19.6219C15.5966 19.4076 15.985 19.1531 16.1859 19.1933C16.6279 19.2737 17.0297 19.5415 17.4851 19.7558C17.3378 18.8853 16.4136 18.2424 15.5028 18.3495C14.8465 18.4299 14.1768 19.3272 14.217 20.0773C14.284 21.1488 14.7394 22.0596 15.4894 22.7828C15.7573 23.0373 16.1859 23.1579 16.5609 23.2382C16.7082 23.265 16.9762 23.0373 17.0699 22.8632C17.1771 22.6489 17.177 22.3676 17.177 22.1265Z" fill="#A8A29E"/>
<path d="M57.1967 64.6772H47.8076C47.8746 64.6236 47.9282 64.5566 47.955 64.4896C48.0621 64.2753 48.1023 64.0209 48.1291 63.7664C48.5041 60.2974 48.8791 56.8284 49.2407 53.4666C49.0532 51.8459 48.9729 50.3458 48.6916 48.8993C48.4104 47.5198 47.9415 46.167 47.5129 44.8142C47.3924 44.4526 47.446 43.7561 46.8165 43.9302C46.2807 44.091 46.5084 44.6267 46.6557 45.0553C47.8478 48.5109 48.3835 52.0602 47.9951 55.7167C47.7406 58.1142 47.513 60.5251 47.2853 62.9226C47.2317 63.4181 47.2317 63.9137 47.2585 64.4093C47.2585 64.4897 47.3254 64.5834 47.3924 64.6638H39.8383C39.8919 64.6236 39.9455 64.5834 39.9723 64.5298C40.066 64.4093 40.0526 64.1816 40.0526 63.9941C40.0259 63.1637 39.9722 61.7975 39.9455 60.9805C39.8651 58.2883 39.7848 55.5962 39.7044 52.9041C39.7044 52.7165 39.7044 52.529 39.6776 52.3549C39.5035 50.3191 39.3561 48.2832 39.1552 46.2474C38.9543 44.2919 38.7802 42.323 38.3115 40.3943C37.9632 38.9745 37.856 37.4878 37.6284 35.9074C38.3784 36.1217 39.0079 36.2824 39.6106 36.4699C41.1375 36.9521 42.6912 37.3673 44.1645 37.9834C45.3297 38.4656 46.3879 39.2022 47.4862 39.8451C49.7899 41.1979 51.6382 42.9793 52.8303 45.3902C54.0089 47.7608 54.6518 51.6584 55.2947 54.2032C55.8841 56.5739 56.3261 61.9314 56.8484 64.3289C56.8618 64.4361 57.0225 64.5566 57.1967 64.6772Z" fill="#D6D3D1"/>
<path d="M48.6925 48.9022C48.9872 50.3488 49.0541 51.8489 49.2416 53.4695C48.8799 56.8179 48.5049 60.3003 48.1299 63.7693C48.1031 64.0104 48.063 64.2649 47.9558 64.4926C47.929 64.5595 47.8755 64.6265 47.8085 64.6801H47.3933C47.3129 64.5997 47.2593 64.506 47.2593 64.4256C47.2325 63.93 47.246 63.4345 47.2861 62.9389C47.5138 60.528 47.7415 58.1305 47.996 55.733C48.3844 52.0765 47.8487 48.5272 46.6566 45.0716C46.5093 44.643 46.2816 44.1073 46.8174 43.9465C47.4335 43.759 47.3933 44.4689 47.5138 44.8305C47.929 46.1699 48.4112 47.5227 48.6925 48.9022Z" fill="#A8A29E"/>
<path d="M47.3931 64.6779H47.8083C47.7279 64.7449 47.6341 64.7985 47.5672 64.7851C47.5136 64.7851 47.4467 64.7315 47.3931 64.6779Z" fill="#A8A29E"/>
<path d="M40.9263 17.9751C41.4889 18.2832 41.7701 18.8859 41.7433 19.5422C41.7165 20.5735 41.2075 21.4307 40.5379 22.1808C40.4039 22.3415 40.203 22.4888 40.0155 22.529C39.7075 22.596 39.3727 22.5826 39.0512 22.596C39.0646 22.2611 39.078 21.9397 39.1182 21.6048C39.145 21.337 39.2789 21.2432 39.5601 21.3905C39.6807 21.4575 40.0021 21.4173 40.0289 21.3503C40.0959 21.1762 40.1361 20.895 40.0289 20.761C39.6539 20.2922 39.7343 19.9708 40.1763 19.5958C40.337 19.4618 40.3236 19.127 40.3772 18.8859C40.0959 18.8993 39.761 18.8189 39.5333 18.9529C39.2253 19.1404 39.011 19.4752 38.6895 19.8235C38.6226 18.9127 39.1182 18.3234 39.7209 17.9082C39.9754 17.7206 40.5915 17.7876 40.9263 17.9751Z" fill="white"/>
<path d="M39.1996 23.547C39.9764 23.5203 40.4988 24.2971 40.4988 25.449C40.4988 25.9579 40.0166 26.266 39.1594 26.2794C38.3558 26.2928 37.887 25.891 37.8736 25.1677C37.8602 24.3373 38.4629 23.5738 39.1996 23.547Z" fill="#D6D3D1"/>
<path d="M39.2367 64.6779H39.826C39.7055 64.7717 39.5582 64.8253 39.4376 64.8119C39.384 64.8119 39.3037 64.7449 39.2367 64.6779Z" fill="#A8A29E"/>
<path d="M39.0867 64.3973C39.1135 64.4777 39.1671 64.5848 39.2341 64.6652H28.077C28.1976 64.5982 28.3047 64.5848 28.4119 64.4643C28.4788 64.3839 28.4922 63.5535 28.4922 63.433C28.5592 61.7855 28.6664 59.6158 28.6664 57.9683C28.653 55.8923 28.5325 53.8163 28.4655 51.7536C28.4119 50.2937 28.3449 48.8472 28.3449 47.3873C28.3449 46.3827 28.4119 45.4318 29.0682 44.5076C29.8852 43.3557 30.9835 42.2575 30.729 40.4225C31.6264 40.8779 32.3765 41.2127 33.0864 41.6413C34.1579 42.2842 35.149 42.1503 35.7517 41.186C35.9124 40.9315 36.0464 40.6368 36.1535 40.3555C36.3946 39.726 36.6089 39.0831 36.8902 38.2527C37.0241 39.0162 37.1044 39.5921 37.2518 40.1412C37.8411 42.3914 38.0019 44.7085 38.2295 47.0122C38.4037 48.7668 38.5242 50.5348 38.6045 52.3028C38.7653 55.9057 38.8858 60.0578 39.0198 63.6607C39.0466 63.9152 39.0198 64.1696 39.0867 64.3973Z" fill="white"/>
<path d="M37.9127 22.5665C38.0466 22.9148 37.9796 23.1157 37.7118 23.3568C36.8814 24.1336 36.6804 25.031 37.1626 26.0355C37.3769 26.4909 37.2966 26.7588 36.9751 27.0802C35.609 28.4598 34.0687 29.5715 32.2739 30.3215C31.6042 30.6028 30.9211 30.9376 30.2113 31.0582C27.5191 31.5269 24.9743 31.0314 22.6036 29.7054C21.6124 29.1429 20.7419 28.3928 19.8177 27.7231C19.4025 27.4151 19.2015 27.0936 19.3087 26.4775C19.4828 25.4194 19.3891 24.3747 18.3444 23.6514C18.1703 23.5309 18.0497 23.0621 18.1435 22.8612C18.8935 21.0262 18.5854 19.1779 18.331 17.3028C18.2506 16.7268 18.3042 16.1241 18.3979 15.5616C18.6658 14.0213 19.2953 12.6284 20.1123 11.3158C20.1927 11.3158 20.2865 11.3158 20.3668 11.3292C20.3668 11.7846 20.3668 12.2399 20.3668 12.6953C20.3802 13.6463 20.6883 13.9811 21.6124 14.0615C22.7241 14.1552 23.8224 14.2624 24.9341 14.3562C25.3225 14.3829 25.577 14.3294 25.5368 13.7668C25.4966 13.1105 25.3493 12.3873 25.885 11.7042C25.9788 12.3337 26.0592 12.8694 26.1529 13.4186C26.327 14.3428 26.4208 14.4499 27.3449 14.4499C28.7379 14.4633 30.1309 14.4097 31.5104 14.3963C31.9792 14.3963 32.448 14.3963 32.9034 14.4365C33.3454 14.4767 33.4525 14.316 33.3454 13.9008C33.1981 13.3382 33.0507 12.7623 32.9703 12.1864C32.9301 11.9051 33.0641 11.6104 33.265 11.3292C33.5463 11.9989 33.8409 12.6551 34.1088 13.3248C34.4838 14.2624 35.0732 14.8383 36.1848 14.8249C37.0956 14.8115 37.2162 14.9589 37.2966 15.9232C37.4037 17.1019 37.484 18.2805 37.4572 19.4458C37.484 20.5173 37.5377 21.562 37.9127 22.5665ZM34.0552 17.6242C34.082 17.4367 33.9615 17.1019 33.8142 17.0215C33.3186 16.7938 32.7828 16.6465 32.1801 16.4456C31.9792 16.6197 31.6578 16.7536 31.6176 16.9411C31.5506 17.2894 31.872 17.343 32.1667 17.4099C32.6087 17.5037 33.0507 17.651 33.4793 17.8251C33.7606 17.9323 34.0017 17.9189 34.0552 17.6242ZM33.2115 19.8342C33.2918 19.3788 33.024 19.1109 32.5552 19.044C32.1534 18.9904 31.7783 19.4324 31.7783 19.9146C31.7783 20.303 32.2203 20.8387 32.5552 20.8387C32.9034 20.8521 33.2115 20.4101 33.2115 19.8342ZM29.2737 25.6471C29.113 25.5399 28.9656 25.3792 28.8049 25.3524C28.4969 25.2988 28.1888 25.339 27.8807 25.339C27.8807 25.339 27.8807 25.3256 27.8807 25.3122C27.5726 25.2855 27.2646 25.2453 26.9565 25.2587C26.7958 25.2721 26.6217 25.3792 26.461 25.4462C26.5548 25.5935 26.6217 25.8614 26.7422 25.8882C27.4655 26.0087 28.2022 26.0891 28.9389 26.1293C29.0326 26.1293 29.1532 25.8212 29.2737 25.6471ZM27.8807 20.5575C28.1352 20.1021 27.6262 18.977 27.0235 18.7627C26.9699 18.91 26.8494 19.0574 26.8762 19.1779C27.0503 19.9949 26.5949 20.6512 26.4074 21.3745C26.3002 21.7897 26.7021 22.3522 27.1039 22.4326C27.3852 22.4862 27.7066 22.3522 27.5861 22.071C27.2914 21.4548 27.6128 21.0396 27.8807 20.5575ZM23.6617 21.3209C24.2376 21.3209 24.251 20.9057 24.2376 20.4771C24.2376 20.0351 24.2778 19.5663 23.6617 19.5128C23.1929 19.4726 22.8983 19.8074 22.8983 20.3432C22.8849 20.8655 23.2331 21.3209 23.6617 21.3209ZM23.6081 17.4903C23.6751 17.4367 23.6751 17.1822 23.6081 17.0885C23.5411 16.9813 23.3001 16.8742 23.2331 16.9144C22.6572 17.2358 22.0946 17.5974 21.5723 17.9859C21.5053 18.0394 21.6258 18.3475 21.6928 18.7493C22.4563 18.2537 23.0456 17.8921 23.6081 17.4903Z" fill="white"/>
<path d="M35.8909 36.1223C36.0516 36.1491 36.1856 36.3634 36.3597 36.5375C35.8909 37.9305 35.4891 39.2163 35.0069 40.4753C34.7792 41.0646 34.4578 41.1182 33.8952 40.8369C33.0112 40.4083 32.154 39.9261 31.2566 39.5377C30.7611 39.3234 30.7343 39.0689 30.9754 38.6939C31.6317 37.7162 32.3013 36.7652 32.9844 35.8142C33.0514 35.7205 33.2791 35.6937 33.4265 35.7071C34.2435 35.841 35.0739 35.9616 35.8909 36.1223Z" fill="white"/>
<path d="M33.8114 17.025C33.9588 17.092 34.0793 17.4402 34.0525 17.6277C33.9989 17.9224 33.7579 17.9358 33.4766 17.8286C33.048 17.6545 32.606 17.5206 32.164 17.4134C31.8693 17.3464 31.5479 17.2929 31.6149 16.9446C31.6551 16.7571 31.9631 16.6232 32.1774 16.4491C32.7801 16.6634 33.3159 16.7973 33.8114 17.025Z" fill="#A8A29E"/>
<path d="M32.5555 19.0457C33.0109 19.1127 33.2787 19.3672 33.2118 19.8359C33.2118 20.4119 32.9171 20.8539 32.5688 20.8539C32.234 20.8405 31.792 20.3181 31.792 19.9297C31.7786 19.4475 32.1537 18.9921 32.5555 19.0457Z" fill="#A8A29E"/>
<path d="M32.4884 33.4169C32.6625 34.3009 32.3678 35.0376 31.8723 35.734C31.3231 36.5109 30.8007 37.3145 30.2516 38.1047C29.8096 38.7476 29.5551 39.4441 29.7024 40.2076C29.9569 41.5737 29.314 42.5917 28.3497 43.556C28.3898 42.9533 28.3363 42.3104 28.497 41.7344C28.8586 40.3951 28.4033 39.3504 27.5997 38.3056C26.5549 36.9395 25.5772 35.5197 24.6262 34.0866C24.144 33.35 24.3985 32.9749 25.2959 32.908C25.7915 32.8678 26.2736 32.8008 26.7692 32.7071C27.5862 32.5597 28.3899 32.3722 29.2069 32.2115C30.198 32.024 31.2026 31.8365 32.2741 31.6356C32.3276 32.1981 32.3678 32.8142 32.4884 33.4169Z" fill="white"/>
<path d="M28.8062 25.3692C28.9804 25.396 29.1143 25.5567 29.275 25.6638C29.1545 25.8379 29.0339 26.146 28.9268 26.146C28.1901 26.1058 27.4535 26.0255 26.7302 25.9049C26.6097 25.8915 26.5427 25.6236 26.4489 25.4629C26.6096 25.396 26.7703 25.2888 26.9444 25.2754C27.2525 25.262 27.5606 25.3156 27.8687 25.329C27.8687 25.3424 27.8687 25.3424 27.8687 25.3558C28.1767 25.3558 28.4982 25.3156 28.8062 25.3692Z" fill="#A8A29E"/>
<path d="M27.8557 64.6779H28.0968C28.0566 64.7047 28.0164 64.7315 27.9629 64.7717C27.9227 64.7315 27.8959 64.7047 27.8557 64.6779Z" fill="#A8A29E"/>
<path d="M27.0169 18.7509C27.6196 18.9786 28.142 20.0903 27.8741 20.5457C27.6062 21.0279 27.2982 21.4431 27.5661 22.0592C27.6866 22.3271 27.3785 22.4744 27.0839 22.4208C26.6821 22.3405 26.2803 21.7779 26.3874 21.3627C26.575 20.6395 27.0437 19.9832 26.8562 19.1662C26.8428 19.059 26.9633 18.8983 27.0169 18.7509Z" fill="#A8A29E"/>
<path d="M27.8488 64.6811H17.8302V64.6677C17.9641 64.4936 18.1383 64.3328 18.2053 64.1319C18.2722 63.9042 18.232 63.6364 18.2454 63.3953C18.3124 61.3594 18.3258 58.7878 18.4463 56.752C18.5803 54.3143 18.8482 51.89 18.9553 49.4524C19.0893 46.4254 19.2768 43.3984 19.933 40.425C20.2545 38.9785 20.4554 37.5051 20.6563 36.0318C20.7501 35.3755 21.0849 35.2952 21.6608 35.4425C21.5671 35.9113 21.4733 36.3533 21.4064 36.8087C21.2188 37.9873 21.1251 39.1392 21.6207 40.2777C22.4511 42.1796 23.3485 42.0858 24.5807 41.4295C25.4915 40.9339 26.4692 40.5187 27.5809 40.5991C27.5943 40.733 27.6344 40.8268 27.6211 40.9072C27.2996 42.0188 27.313 43.1305 27.447 44.2824C27.5541 45.1932 27.5139 46.1173 27.5407 47.0415C27.5407 47.229 27.5943 47.4031 27.6076 47.5906C27.6612 48.8764 27.7416 50.1756 27.755 51.4614C27.7684 52.6937 27.6613 53.9259 27.7282 55.1581C27.8756 57.5154 27.6746 60.3951 27.5005 62.739C27.4737 63.0738 27.447 64.1051 27.5139 64.4266C27.5407 64.5605 27.7014 64.5873 27.8488 64.6811Z" fill="white"/>
<path d="M26.6826 38.1035C27.5131 39.2152 27.4327 39.3893 26.1201 39.7509C25.3567 39.9652 24.6334 40.3134 23.8968 40.6215C23.1065 40.9563 22.8788 40.9028 22.5574 40.0857C22.3297 39.4964 22.2226 38.8535 22.102 38.3714C22.236 37.4338 22.3163 36.6703 22.477 35.9203C22.5172 35.7194 22.7851 35.5051 22.9994 35.3979C23.2271 35.2774 23.5485 35.3042 23.7762 35.1702C24.0843 34.9961 24.1914 35.1167 24.379 35.3444C25.1022 36.2283 25.8389 37.0989 26.5755 37.9695C26.6023 37.9963 26.6425 38.0499 26.6826 38.1035Z" fill="white"/>
<path d="M24.2372 20.4793C24.2506 20.9079 24.2372 21.3231 23.6613 21.3231C23.2327 21.3231 22.8845 20.8677 22.8845 20.3453C22.8979 19.8096 23.1925 19.4747 23.6479 19.5149C24.2774 19.5685 24.2372 20.0373 24.2372 20.4793Z" fill="#A8A29E"/>
<path d="M23.6042 17.0893C23.6712 17.183 23.6712 17.4509 23.6042 17.4911C23.0417 17.8795 22.4524 18.2411 21.6889 18.7367C21.622 18.3349 21.5014 18.0268 21.5684 17.9733C22.1041 17.5848 22.6533 17.2366 23.2292 16.9018C23.2962 16.875 23.5372 16.9821 23.6042 17.0893Z" fill="#A8A29E"/>
<path d="M19.6133 35.8007C19.4525 36.9927 19.3856 38.158 19.1445 39.2965C18.6087 41.7475 18.2203 44.1986 18.0864 46.7032C18.0328 47.7613 17.9658 48.806 17.8988 49.8507C17.7113 52.5964 17.5238 55.3556 17.3631 58.1013C17.2693 59.6416 17.2425 61.7176 17.189 63.2445C17.1756 63.5525 17.1488 63.8874 17.2559 64.1553C17.3363 64.3562 17.6443 64.4767 17.8453 64.6374V64.6508H0.272669V64.4499C0.339638 64.249 0.419988 64.0615 0.460169 63.8606C0.741438 62.4275 1.39775 56.6949 1.74598 55.2886C2.40228 52.6768 2.61658 50.3329 3.42021 47.7613C4.25062 45.0959 5.60338 42.7119 7.89371 40.9707C8.36249 40.609 8.87144 40.3144 9.35362 39.9661C12.394 37.7696 15.8898 36.6311 19.6133 35.8007ZM10.6394 44.8281C10.6662 44.7075 10.8002 44.5736 10.7734 44.4932C10.693 44.2254 10.5591 43.9709 10.4385 43.7164C10.251 43.8905 10.0099 44.0378 9.90278 44.2521C9.72866 44.6138 9.68845 45.029 9.54112 45.404C8.54998 47.8818 8.13476 50.4668 8.18833 53.7483C8.29548 55.3422 8.40266 57.5655 8.61696 59.7755C8.7509 61.222 9.03217 62.6552 9.28665 64.0883C9.32683 64.2892 9.54112 64.4499 9.67506 64.6374C9.80899 64.4231 10.0367 64.2222 10.0501 64.0079C10.0903 63.5525 10.0233 63.0838 9.96975 62.615C9.87599 61.6908 9.74201 60.7666 9.66165 59.8425C9.50092 57.8334 9.31346 55.8243 9.24649 53.8153C9.19292 52.4357 9.19289 51.0294 9.42059 49.6766C9.68846 48.0292 10.2108 46.4353 10.6394 44.8281Z" fill="#D6D3D1"/>
<path d="M18.4749 25.8907C18.4883 26.5871 17.966 27.0693 17.2159 27.0693C16.265 27.0693 15.6086 26.3996 15.5818 25.4353C15.5685 24.8326 16.3051 24.1763 16.9882 24.1361C17.8856 24.0825 18.3812 24.779 18.4749 25.8907Z" fill="#D6D3D1"/>
<path d="M16.6133 21.5503C17.1758 21.47 17.1892 21.7513 17.1758 22.1129C17.1758 22.3674 17.1758 22.6352 17.0821 22.8495C16.9883 23.0237 16.7204 23.2513 16.5731 23.2246C16.1981 23.1442 15.7561 23.0237 15.5016 22.7692C14.7515 22.0459 14.2962 21.1217 14.2292 20.0636C14.1756 19.3136 14.8587 18.4162 15.515 18.3358C16.4258 18.2287 17.3499 18.8716 17.4972 19.7422C17.0285 19.5279 16.6401 19.26 16.1981 19.1797C15.9972 19.1395 15.5954 19.3939 15.515 19.6082C15.3811 19.9163 15.6489 20.0502 15.9838 20.1038C16.2249 20.144 16.4525 20.3583 16.6936 20.4922C16.5463 20.6797 16.4258 20.8271 16.3186 20.9744C16.0106 21.4298 16.091 21.6307 16.6133 21.5503Z" fill="white"/>
<path d="M10.7617 44.483C10.7885 44.5767 10.668 44.6973 10.6278 44.8178C10.2126 46.425 9.67681 48.0189 9.40893 49.6663C9.18124 51.0191 9.19466 52.4254 9.23484 53.805C9.30181 55.8141 9.48934 57.8231 9.65006 59.8322C9.73042 60.7564 9.85094 61.6805 9.95809 62.6047C10.0117 63.0735 10.0653 63.5423 10.0385 63.9976C10.0251 64.2119 9.79734 64.4263 9.6634 64.6272C9.52947 64.4396 9.31518 64.2789 9.275 64.078C9.03391 62.6449 8.75264 61.2118 8.60531 59.7652C8.39101 57.5553 8.2839 55.3185 8.17675 53.738C8.12317 50.4432 8.53833 47.8716 9.52947 45.3937C9.6768 45.0187 9.717 44.6035 9.89112 44.2419C9.98488 44.0276 10.2394 43.8802 10.4269 43.7061C10.5474 43.974 10.6814 44.2151 10.7617 44.483Z" fill="#A8A29E"/>
</svg>
