<svg width="45" height="51" viewBox="0 0 45 51" fill="none" xmlns="http://www.w3.org/2000/svg">
<path d="M44.303 49.5668L44.0015 49.6292C43.9391 49.2342 43.8871 48.8392 43.8767 48.7872C43.7624 48.3194 43.6481 47.8516 43.5753 47.3735C43.0451 43.9847 42.411 40.6167 41.4339 37.311C40.9557 35.6998 40.0722 34.338 38.8663 33.205C37.6709 32.0823 36.4235 31.022 35.1137 30.0449C33.9598 29.1821 32.6605 28.5584 31.1636 28.2361C31.5066 28.6935 31.7873 29.2133 32.2031 29.5771C33.2426 30.5023 33.8975 31.6873 34.6043 32.8411C35.0825 33.6104 35.2176 34.4836 35.0513 35.3464C34.9682 35.7622 34.6459 36.1468 34.3964 36.521C34.095 36.9784 33.7415 37.415 33.4297 37.8724C33.2218 38.1738 33.1906 38.4129 33.596 38.6312C33.9079 38.7975 34.1677 39.0678 34.438 39.3069C34.9266 39.7331 35.0825 40.2944 35.0513 40.9285C34.8954 43.6832 34.2301 46.334 33.3153 48.9327C33.1386 49.4525 32.9203 49.9514 32.6916 50.4504H31.8704C31.9536 50.0762 32.1095 49.7227 32.2758 49.3693C33.0347 47.8308 33.4817 46.1884 33.7831 44.5148C34.0014 43.3402 34.0846 42.1343 34.2613 40.9493C34.3549 40.2944 34.0326 39.8994 33.5648 39.546C33.253 39.3173 32.9411 39.099 32.6293 38.8703C32.1823 38.5273 32.1407 38.3505 32.4526 37.9243C32.9307 37.2591 33.3985 36.5938 33.9079 35.9597C34.6355 35.0553 34.4068 34.1613 33.9287 33.2777C33.253 32.0407 32.5045 30.8557 31.465 29.8578C30.8101 29.2341 30.332 28.4232 29.7706 27.706C29.6667 27.5812 29.5731 27.4461 29.4796 27.311C29.4276 27.3422 29.3652 27.3629 29.3132 27.3941C29.3132 27.758 29.2613 28.1426 29.3236 28.496C29.781 31.1987 29.7498 33.9222 29.7706 36.6457C29.7914 38.4545 29.8018 40.2736 29.6979 42.072C29.5523 44.8371 29.3236 47.5918 29.1157 50.3464C29.1157 50.3776 29.1157 50.4088 29.1053 50.44H28.4608C28.4608 50.388 28.4712 50.3257 28.4712 50.2737C28.5752 48.6624 28.6999 47.0512 28.7831 45.4504C28.8559 43.9951 28.8974 42.5294 28.939 41.0636C28.9702 40.0034 29.0222 38.9534 29.0222 37.9035C29.0222 35.9701 29.0326 34.047 28.9598 32.1135C28.9078 30.6062 28.7103 29.0989 28.6272 27.5916C28.596 27.0823 28.2529 27.0615 27.9307 26.9367C27.6292 26.812 27.359 26.6977 27.1303 27.0927C26.9224 27.4357 26.5793 27.6332 26.1635 27.6228C26.0492 27.6228 25.914 27.5189 25.8413 27.4149C25.8101 27.3733 25.9037 27.207 25.9764 27.1343C26.0804 27.0303 26.2259 26.9887 26.3298 26.8848C26.808 26.4378 26.9847 25.6478 26.8184 24.9409L27.0471 24.8889L27.359 26.3546L28.6376 26.5833L29.9681 26.8224C29.9681 26.8224 30.5295 26.7496 31.1844 26.6145C31.2779 26.7912 31.174 26.9679 30.8621 27.1862C31.8912 27.6228 33.0139 27.997 34.0326 28.5376C36.8913 30.0657 39.2821 32.1551 41.1324 34.8266C41.9537 36.0012 42.3279 37.3942 42.6086 38.7767C43.1803 41.5106 43.6688 44.2549 44.1574 46.9992C44.2614 47.5606 44.5524 49.8787 44.5524 50.4504C44.5524 50.5024 44.4901 50.492 44.4069 50.4712H44.4693L44.303 49.5668Z" fill="#A8A29E"/>
<path d="M44.3035 49.5649L44.4803 50.4485H44.4179C44.3243 50.4277 44.21 50.3965 44.1788 50.4485H44.1684C44.1268 50.3758 44.0645 50.0015 44.0021 49.6273L44.3035 49.5649Z" fill="#A8A29E"/>
<path d="M44.4146 50.439H44.1756C44.2067 50.3871 44.3211 50.4183 44.4146 50.439Z" fill="white"/>
<path d="M44.1745 50.4382C44.1745 50.4474 44.1745 50.4474 44.1745 50.4382C44.1654 50.4474 44.1654 50.4474 44.1745 50.4382Z" fill="#A8A29E"/>
<path d="M44.1685 50.4385H37.3909C37.4013 50.4281 37.4221 50.4177 37.4325 50.3969C37.5157 50.3242 37.5469 50.189 37.578 50.0747C37.7132 49.5446 37.8483 49.0144 37.9523 48.4739C38.2329 47.0185 38.6695 45.584 38.576 44.0144C38.6903 42.7046 38.2953 41.4156 37.9003 40.137C37.8067 39.8356 37.7028 39.5445 37.5676 39.2742C37.5261 39.1807 37.339 39.1599 37.2246 39.1079C37.1934 39.2119 37.1311 39.3158 37.1414 39.4198C37.2038 39.9187 37.2246 40.4281 37.3701 40.9062C37.9938 42.8813 37.8899 44.8668 37.4845 46.8522C37.2662 47.9541 37.0063 49.056 36.788 50.1579C36.7672 50.241 36.7984 50.345 36.84 50.4385H32.7131C32.9522 49.9396 33.1601 49.4302 33.3368 48.9208C34.2412 46.3221 34.9065 43.6817 35.0728 40.9166C35.1144 40.2825 34.9481 39.7212 34.4595 39.295C34.1892 39.0559 33.9294 38.7857 33.6175 38.6193C33.2121 38.401 33.2433 38.1619 33.4512 37.8605C33.763 37.4031 34.1165 36.9769 34.4179 36.5091C34.6674 36.1349 34.9897 35.7503 35.0728 35.3345C35.2391 34.4717 35.0936 33.5985 34.6258 32.8293C33.919 31.6754 33.2641 30.4904 32.2246 29.5652C31.8088 29.2014 31.5281 28.6712 31.1851 28.2243C32.682 28.5569 33.9813 29.1702 35.1352 30.033C36.445 31.0101 37.6924 32.0808 38.8878 33.1931C40.0936 34.3262 40.9772 35.6879 41.4554 37.2992C42.4325 40.5944 43.0562 43.9624 43.5968 47.3616C43.6696 47.8398 43.7839 48.3075 43.8983 48.7753C43.9086 48.8169 43.9606 49.2223 44.023 49.6173C44.0646 50.0019 44.1269 50.3762 44.1685 50.4385Z" fill="#F5F5F4"/>
<path d="M37.9023 40.1484C38.2973 41.427 38.7027 42.716 38.578 44.0258C38.6715 45.5954 38.2349 47.03 37.9543 48.4853C37.8503 49.0258 37.7048 49.556 37.58 50.0861C37.5489 50.2005 37.5177 50.3356 37.4345 50.4084C37.4241 50.4188 37.4033 50.4292 37.3929 50.4499H36.842C36.8004 50.346 36.7692 50.2524 36.79 50.1693C36.9979 49.0674 37.2682 47.9655 37.4865 46.8636C37.8815 44.8678 37.9958 42.8927 37.3721 40.9177C37.2266 40.4499 37.2058 39.9301 37.1434 39.4312C37.133 39.3376 37.1954 39.2233 37.2266 39.1193C37.341 39.1713 37.5281 39.1921 37.5696 39.2856C37.7048 39.5559 37.8087 39.847 37.9023 40.1484Z" fill="#A8A29E"/>
<path d="M36.8425 50.4382H37.3935C37.2583 50.5421 37.1024 50.6253 36.9465 50.7085C36.9257 50.6253 36.8737 50.5318 36.8425 50.4382Z" fill="#A8A29E"/>
<path d="M0.12563 50.439C0.073655 50.2519 -0.00950616 49.8361 0.000888926 49.7737C0.12563 48.4119 0.229581 46.0315 0.479063 44.6905C0.686965 43.5159 0.926052 42.3516 1.17553 41.1978C1.42502 40.0335 1.68489 38.8693 1.95516 37.7154C2.44373 35.5636 3.64956 33.838 5.21922 32.3204C7.05915 30.5428 9.02382 28.942 11.4043 27.9336C12.1839 27.601 13.0467 27.4763 13.8679 27.2476C14.0446 27.1956 14.2733 27.1644 14.3565 27.0397C14.5956 26.707 14.8866 26.4783 15.2609 26.3744C16.7993 26.312 16.7162 26.4264 16.7162 26.4264L17.1216 26.0521L17.4854 25.7299L17.8181 24.8255L18.0468 24.2538L17.87 23.6405C17.87 23.6405 15.6455 22.2579 15.1049 21.4575C15.0426 21.364 15.001 21.2704 14.9906 21.1976C14.9178 20.5012 13.9095 18.7028 13.9095 18.7028L13.4209 18.6508C13.4209 18.6508 12.8804 21.0105 12.4438 22.2787C12.2879 22.7361 12.1423 23.048 12.0384 23.0583C12.0384 23.0583 11.9656 24.2954 12.423 25.2725C12.371 25.2309 12.3191 25.1893 12.2775 25.1478C11.529 24.2122 11.2796 23.1831 11.7681 22.05C12.0176 21.4575 12.3502 20.8962 12.6309 20.3141C12.7245 20.1269 12.7868 19.919 12.818 19.7111C12.8908 19.2018 12.7868 18.838 12.2151 18.6093C10.7806 18.0271 10.1777 16.0417 10.6455 14.9814C10.7702 14.7007 10.8949 14.3889 11.1132 14.181C11.3835 13.9315 11.3731 13.7028 11.2484 13.4117C10.7182 12.1539 10.4479 10.8234 10.5311 9.4616C10.739 6.35347 12.028 3.87945 14.8451 2.34097C15.0322 2.23702 15.2297 2.15386 15.4376 2.0811C16.9033 1.48858 18.3378 0.760924 19.8555 0.355516C22.2256 -0.278583 24.5957 -0.0291016 26.9242 0.823294C28.8576 1.53016 30.5209 2.56967 31.893 4.06656C33.3067 5.61542 34.1279 7.42416 34.1799 9.54476C34.2111 10.6258 33.8265 11.6238 33.4523 12.6113C33.3379 12.9024 33.2444 13.2038 33.1404 13.4949C32.9845 13.9419 32.9637 14.3369 33.182 14.8047C33.7121 15.9897 33.2132 17.5905 32.1425 18.3286C31.8306 18.5365 31.7579 18.7444 31.945 19.0147C32.1633 19.3473 32.4335 19.6488 32.7038 19.9398C33.2755 20.5531 33.8889 21.1249 34.4294 21.7694C34.8036 22.2163 34.9596 22.7985 34.9388 23.391C34.9388 23.4326 34.9284 23.4949 34.9076 23.5469C34.8972 23.391 34.8556 23.2247 34.7828 23.0376C34.1383 21.4991 32.3608 20.2725 32.1425 20.0334C31.9242 19.7839 31.2797 18.5573 31.2797 18.5573L30.3441 18.7652L29.9075 18.8587C29.9075 18.8587 29.1175 21.4991 27.6414 22.7881C27.3711 23.0272 27.0697 23.2143 26.7474 23.339L27.0801 24.9191L26.8514 24.971C26.7994 24.7527 26.7163 24.5345 26.6019 24.3473C26.3836 23.9939 26.2277 24.3058 26.1133 24.4201C25.8119 24.7112 25.5936 25.0958 25.2609 25.3349C23.7744 26.4056 20.8846 26.4264 19.2214 25.3349C19.1071 25.2621 19.0135 25.1374 18.9095 25.0438C18.7952 24.9399 18.6081 24.7424 18.5769 24.7631C18.3794 24.9087 18.1091 25.075 18.0468 25.2933C17.7245 26.3016 17.8908 26.7902 18.7744 27.3723C19.2838 27.7049 19.8659 27.944 20.4272 28.2351C20.3337 28.5781 20.0114 28.6405 19.6684 28.547C18.7016 28.2871 17.7765 27.9544 17.2983 26.9565C17.184 26.707 17.0488 26.6966 16.7889 26.8006C15.7286 27.2164 15.7598 27.1956 15.6871 28.3494C15.6143 29.6176 15.396 30.8754 15.3544 32.1436C15.2817 34.0252 15.2713 35.9067 15.2921 37.7882C15.3128 39.9919 15.344 42.2061 15.4272 44.4098C15.5 46.0938 15.6663 47.7674 15.791 49.4514C15.8118 49.7633 15.8222 50.0751 15.843 50.387C15.843 50.4182 15.843 50.4494 15.843 50.4909H15.1569C15.1569 50.4598 15.1465 50.4286 15.1465 50.3974C15.0945 49.8984 15.0322 49.3891 15.001 48.8901C14.8763 46.915 14.7099 44.9504 14.6684 42.9753C14.5852 39.389 14.5436 35.7923 14.5644 32.1956C14.5644 31.073 14.7931 29.9503 14.9074 28.8172C14.949 28.3702 14.9698 27.9128 15.0114 27.3203C14.7723 27.497 14.6268 27.5594 14.5332 27.6738C13.5665 28.8068 12.5478 29.9087 11.685 31.1145C11.0197 32.0397 10.5311 33.0896 10.0218 34.1083C9.72029 34.7216 9.86582 35.3141 10.2816 35.8651C10.791 36.5304 11.2692 37.2268 11.7577 37.9025C12.132 38.4119 12.1112 38.5366 11.5706 38.942C11.4147 39.0564 11.2796 39.2227 11.1132 39.2955C9.96978 39.8152 9.88661 40.7923 10.0218 41.8526C10.292 44.046 10.739 46.2082 11.4979 48.2872C11.7369 48.9421 12.028 49.5762 12.2879 50.2103C12.3191 50.3038 12.3814 50.3974 12.4022 50.4805H11.5914C11.082 49.0668 10.5103 47.6635 10.0945 46.2186C9.57476 44.4618 9.2837 42.6531 9.20054 40.8235C9.16935 40.0959 9.54358 39.5657 10.0633 39.0876C10.3648 38.8069 10.9989 38.7549 10.9469 38.2559C10.9053 37.8921 10.5519 37.5595 10.3232 37.2164C10.1881 37.0189 10.0633 36.8006 9.89701 36.6343C9.02382 35.7299 8.89908 34.6177 9.36686 33.5574C9.87622 32.4347 10.5935 31.416 11.3003 30.3973C11.7161 29.7944 12.2879 29.3058 12.7764 28.7445C12.9012 28.5989 12.9843 28.4326 13.1299 28.1935C12.0696 28.391 11.2172 28.8692 10.3648 29.337C8.35854 30.4285 6.67453 31.9461 5.09448 33.5574C3.81588 34.8672 2.97388 36.4368 2.58926 38.2559C2.25662 39.8256 1.79924 41.3745 1.47699 42.9441C1.09237 44.7841 0.801311 46.6344 0.458273 48.4743C0.427088 48.6198 0.531038 50.335 0.468668 50.4598C0.458273 50.4702 0.458273 50.4806 0.437483 50.4909L0.12563 50.439ZM33.1508 11.2184C33.6082 9.57594 33.4419 7.99589 32.7038 6.5094C31.3629 3.80668 29.0655 2.21623 26.2797 1.27028C24.4085 0.636182 22.4647 0.511442 20.5 0.823294C19.4397 0.989615 18.4418 1.27028 17.5894 1.96675C17.3399 2.16426 17.0176 2.33058 16.7058 2.39295C14.1486 2.9127 12.6621 4.5967 11.7785 6.90441C11.0717 8.73394 11.3419 10.5947 11.7473 12.445C11.8201 12.7672 11.8721 13.1415 12.0592 13.3805C12.1527 13.4949 12.5478 13.3598 12.8076 13.3701C13.0467 13.3805 13.4002 13.5261 13.4833 13.4221C13.6288 13.2558 13.6081 12.9336 13.6496 12.6841C13.66 12.6113 13.6496 12.5385 13.66 12.4658C13.8887 11.0105 14.2733 9.63831 15.5623 8.71315C15.7286 8.59881 15.8118 8.38051 15.9469 8.21419C16.0405 8.09984 16.1548 7.99589 16.2484 7.88155C16.3212 8.01668 16.4459 8.14143 16.4771 8.27656C16.8825 10.0541 17.8492 11.4159 19.4293 12.3514C19.9906 12.6841 20.6143 13.0375 20.7703 13.7652C20.8638 14.2433 21.1133 14.3993 21.5707 14.3369C21.737 14.3161 21.9137 14.3161 22.08 14.3265C22.3295 14.3473 22.4647 14.2849 22.5582 14.0146C22.8077 13.2662 23.2651 12.6841 24.0239 12.5177C23.2339 12.1435 22.4023 11.8317 21.6642 11.3743C20.9366 10.9169 20.3129 10.2932 20.2089 9.34725C20.4064 9.42002 20.5312 9.54476 20.6663 9.6695C21.0301 10.0125 21.394 10.366 21.7786 10.6986C22.4751 11.2911 23.3482 11.499 24.2006 11.7589C24.4501 11.8317 24.8036 11.8837 24.9179 12.0708C25.2505 12.6009 25.7183 12.5593 26.2381 12.5801C27.0905 12.6009 27.8701 12.84 28.3275 13.63C28.4834 13.9003 28.6809 13.9523 28.92 13.8899C29.367 13.7756 29.1591 13.2246 29.4606 12.9855C29.5021 12.9439 29.4086 12.6737 29.315 12.5593C29.2631 12.4866 29.0967 12.497 28.9824 12.4866C28.7641 12.4658 28.5458 12.4658 28.3379 12.4242C26.5915 12.0812 25.0011 11.3951 23.6289 10.262C23.3898 10.0645 23.1819 9.81503 22.9636 9.58634C23.0052 9.53436 23.0364 9.49278 23.078 9.4512C23.9616 9.90859 24.8347 10.4179 25.7495 10.813C26.6747 11.2184 27.6414 11.551 28.7953 11.7277C28.5562 11.3431 28.421 11.0728 28.2235 10.8337C27.683 10.1581 27.1113 9.50318 26.5707 8.8275C26.4148 8.62999 26.1029 8.47407 26.2901 8.04787C27.6934 9.06659 28.7953 10.3036 29.7516 11.6861C29.8452 11.4055 29.8556 11.1664 29.9075 10.9377C29.9699 10.657 30.0531 10.3764 30.1362 10.1061C30.261 10.3764 30.3857 10.6466 30.5001 10.9273C30.5209 10.9897 30.5105 11.0728 30.5105 11.1456C30.4897 11.9044 30.4689 12.6633 30.4481 13.4117C30.9263 13.4325 31.4564 13.4741 31.997 13.4741C32.1217 13.4741 32.288 13.3286 32.3712 13.2038C32.735 12.6009 32.9533 11.9252 33.1508 11.2184ZM32.6207 15.9585C32.683 14.7319 31.8202 13.9107 30.4169 14.129C30.3026 14.1498 30.1258 14.2745 30.1051 14.3785C30.0011 14.8358 29.9491 15.3036 29.8764 15.761C29.9387 15.7818 30.0011 15.7922 30.0635 15.813C30.2402 15.5635 30.3753 15.262 30.604 15.0957C30.7911 14.971 31.103 14.9814 31.3421 15.0126C31.4564 15.023 31.5292 15.2413 31.6331 15.366C31.4876 15.4596 31.3525 15.5739 31.1965 15.6467C30.8015 15.8546 30.7495 16.156 31.0822 16.4991C31.3005 16.7278 31.4564 16.9876 31.3109 17.2683C31.155 17.5698 30.9159 17.3722 30.6872 17.3099C30.5936 17.2787 30.4065 17.3619 30.3649 17.445C30.2714 17.6321 30.261 17.84 30.209 18.0479C30.3337 18.0791 30.4689 18.1207 30.5936 18.1207C31.5708 18.1103 32.5687 17.0292 32.6207 15.9585ZM24.2318 23.6301C27.2984 22.9544 29.8452 20.5323 29.3254 16.7381C29.2423 16.1456 29.0655 15.5635 28.9304 14.9918C28.9096 14.919 28.8161 14.867 28.7641 14.8047C28.7017 14.867 28.6082 14.919 28.5874 14.9918C28.5458 15.1269 28.5458 15.2724 28.525 15.418C28.4314 16.0209 28.1508 16.551 27.6518 16.8525C26.446 17.6113 25.1362 17.9128 23.7329 17.4034C23.2963 17.2475 23.0156 16.9357 22.8909 16.4783C22.8077 16.156 22.7349 15.8234 22.6414 15.5011C22.527 15.1269 22.2152 15.0749 21.8929 15.0853C21.5395 15.0957 21.6642 15.3764 21.6227 15.5739C21.6019 15.6882 21.5915 15.813 21.5499 15.9273C21.4252 16.2288 21.4563 16.4575 21.737 16.6654C21.8929 16.7797 22.1008 17.0084 21.841 17.1955C21.7162 17.2891 21.4667 17.2267 21.2796 17.1955C21.1965 17.1851 21.0925 17.1124 21.0405 17.0396C20.8118 16.6654 20.6143 16.8525 20.448 17.0812C20.157 17.4866 19.7308 17.5801 19.2838 17.7049C18.3274 17.9856 17.475 17.6945 16.6122 17.393C15.6975 17.0708 15.1569 16.4263 15.0114 15.4492C14.9698 15.1997 14.897 14.9502 14.8347 14.7007C14.7723 14.7007 14.7203 14.7111 14.658 14.7111C14.658 15.2101 14.6787 15.6986 14.6476 16.1976C14.6268 16.6238 14.5332 17.05 14.4916 17.4762C14.1486 20.5531 16.4979 22.9856 19.1382 23.6405C20.8326 24.0667 22.5478 24.0043 24.2318 23.6301ZM27.0905 16.3119C27.9325 15.8754 28.1716 14.8047 27.9013 14.0666C27.7766 13.7236 27.579 13.4949 27.184 13.4533C26.5187 13.3909 25.8535 13.2558 25.1882 13.2142C24.762 13.1934 24.3254 13.2766 23.8992 13.3494C23.6081 13.4013 23.4106 13.5573 23.3171 13.9003C23.0988 14.6903 23.2547 15.4284 23.4938 16.1664C23.6185 16.5614 23.9512 16.707 24.315 16.7901C24.5749 16.8525 24.8451 16.8525 25.105 16.8733C25.1154 16.9149 25.1362 16.9564 25.1466 16.9876C25.8015 16.7797 26.4876 16.6342 27.0905 16.3119ZM25.2298 24.3266C24.0239 24.5345 22.9636 24.7008 21.9137 24.8983C21.7682 24.9295 21.6435 25.0646 21.5083 25.1582C22.8285 25.2933 24.0655 25.3141 25.2298 24.3266ZM20.4376 14.919C20.4792 13.8899 20.3129 13.6508 19.315 13.4325C18.9407 13.3494 18.5561 13.3078 18.1715 13.339C17.5686 13.3805 16.9657 13.4741 16.3627 13.6092C16.1652 13.6508 15.9158 13.8171 15.843 13.9938C15.3128 15.1685 15.7079 16.2912 16.9657 16.6966C17.1736 16.7589 17.3711 16.8837 17.579 16.9149C19.4917 17.2371 20.3441 16.8525 20.4376 14.919ZM16.3212 12.9647C17.0176 12.7568 17.7557 12.6529 18.5665 12.4866C17.1632 11.6861 16.4043 10.4283 15.9366 8.91066C15.7183 9.23291 15.5623 9.47199 15.396 9.70069C14.6372 10.7714 14.5228 12.0188 14.4085 13.2662C14.3773 13.578 14.554 13.682 14.7931 13.7756C15.0322 13.8691 15.1465 13.7859 15.3336 13.6092C15.6143 13.3494 15.9573 13.0791 16.3212 12.9647ZM13.816 15.8858C13.8783 15.8754 13.9303 15.865 13.9927 15.8546C13.9303 15.3868 13.8783 14.9086 13.7848 14.4512C13.7536 14.3265 13.5769 14.1498 13.4521 14.1394C12.7972 14.0666 12.1735 14.1186 11.6642 14.6487C11.1236 15.2101 11.134 16.1976 11.4563 16.8005C11.8929 17.6425 12.7557 18.2246 13.4313 18.1311C13.5249 18.1207 13.6808 18.0063 13.6808 17.9752C13.6288 17.7777 13.5561 17.5801 13.4729 17.393C13.3586 17.1436 13.2026 17.3411 13.0571 17.3722C12.9116 17.393 12.6829 17.4138 12.6101 17.3307C12.527 17.2267 12.5374 17.0188 12.5582 16.8629C12.5789 16.7589 12.6725 16.6654 12.7557 16.5718C13.1611 16.0937 13.1091 15.9169 12.5374 15.6363C12.423 15.5843 12.2463 15.4388 12.2671 15.3764C12.3087 15.2413 12.423 15.0541 12.5374 15.0126C12.8596 14.9086 13.2026 14.867 13.4209 15.262C13.5145 15.4699 13.6704 15.6778 13.816 15.8858Z" fill="#A8A29E"/>
<path d="M34.8857 23.5157C34.9376 24.4513 33.8566 24.8359 33.5135 25.3245C33.4719 25.3037 33.4304 25.2829 33.3888 25.2725C32.5364 24.9814 32.0686 24.3577 31.8295 23.5261C31.7464 23.2454 31.6944 22.9544 31.5696 22.7049C31.4969 22.5594 31.2994 22.4866 31.1538 22.3826C31.0811 22.5386 30.9459 22.6945 30.9459 22.8504C30.9771 23.8276 31.3305 24.68 32.0374 25.3556C32.3908 25.6987 32.7963 25.8754 33.2328 25.8962C32.8586 26.1976 31.9543 26.4471 31.185 26.603C31.1226 26.4887 30.9667 26.3744 30.7276 26.2392C29.9688 25.8338 29.3243 25.3141 29.0852 24.4305C29.0436 24.2746 28.9605 24.1082 28.8461 23.9939C28.7318 23.8795 28.5447 23.7236 28.4303 23.7548C28.1912 23.8172 28.1912 24.0043 28.2536 24.2642C28.4511 25.0438 28.7318 25.761 29.2827 26.4055C29.0748 26.3848 28.8773 26.3536 28.6798 26.3224C28.3576 26.26 28.0457 26.1768 27.7338 26.0833C27.6611 26.0625 27.5987 25.9066 27.5779 25.8026C27.4532 25.1685 27.3908 24.5136 27.2141 23.9003C27.0894 23.4637 27.1725 23.235 27.5363 22.9648C27.5779 22.9336 27.6299 22.9024 27.6715 22.8608C28.4303 22.2891 29.0436 21.5718 29.4282 20.6883C29.6465 20.2101 29.8441 19.7215 30.0104 19.2225C30.0831 19.0146 30.1975 18.9211 30.343 18.8899C30.4366 18.8691 30.5405 18.8691 30.6341 18.8795C30.8212 18.9003 31.1538 18.9835 31.1642 19.077C31.3305 19.9918 32.0894 20.4076 32.6923 20.9377C33.4719 21.6238 34.0333 22.4242 34.2412 23.4533C34.2828 23.6716 34.3347 23.9419 34.605 23.8587C34.7297 23.8276 34.8337 23.6612 34.8857 23.5157Z" fill="#F5F5F4"/>
<path d="M34.888 23.5159C34.836 23.6718 34.732 23.8278 34.6385 23.859C34.3578 23.9421 34.3162 23.6822 34.2747 23.4535C34.0668 22.4244 33.5054 21.624 32.7258 20.9379C32.1229 20.4078 31.3744 19.992 31.1977 19.0772C31.1769 18.9733 30.8547 18.9005 30.6676 18.8797C30.5636 18.8693 30.4597 18.8693 30.3765 18.8901L30.3453 18.7238L31.2809 18.5159C31.2809 18.5159 31.9254 19.7425 32.1437 19.992C32.362 20.2415 34.1395 21.4681 34.784 22.9962C34.836 23.1833 34.8776 23.36 34.888 23.5159Z" fill="#A8A29E"/>
<path d="M33.5762 39.5441C34.044 39.8871 34.3662 40.2925 34.2727 40.9474C34.0959 42.1324 34.0128 43.3279 33.7945 44.5129C33.4826 46.1865 33.0356 47.8289 32.2872 49.3674C32.1209 49.7104 31.9649 50.0743 31.8818 50.4485H29.1271C29.1271 50.4173 29.1375 50.3861 29.1375 50.3549C29.335 47.6002 29.5741 44.8352 29.7196 42.0805C29.8132 40.2717 29.8028 38.463 29.7924 36.6542C29.7612 33.9307 29.8028 31.2072 29.3454 28.5045C29.283 28.1407 29.335 27.7664 29.335 27.4026C29.387 27.3714 29.4493 27.3506 29.5013 27.3195C29.5949 27.4546 29.6884 27.5793 29.7924 27.7145C30.3537 28.4421 30.8319 29.2425 31.4868 29.8662C32.5263 30.8642 33.2747 32.0388 33.9504 33.2862C34.4286 34.1698 34.6677 35.0638 33.9296 35.9682C33.4203 36.6023 32.9525 37.2675 32.4743 37.9328C32.1625 38.3694 32.1936 38.5461 32.651 38.8788C32.9525 39.0971 33.2643 39.3154 33.5762 39.5441Z" fill="#F5F5F4"/>
<path d="M33.994 25.6266C33.9732 25.6889 33.9524 25.7513 33.9316 25.8137C33.6925 25.876 33.4638 25.9072 33.2352 25.8864C33.3495 25.7929 33.4015 25.6993 33.4015 25.6058C33.4015 25.5018 33.4431 25.4083 33.5054 25.3147C33.6821 25.3979 33.8381 25.5226 33.994 25.6266Z" fill="#A8A29E"/>
<path d="M33.3894 25.2615C33.431 25.2719 33.4725 25.2927 33.5141 25.3134C33.4517 25.407 33.4102 25.5006 33.4102 25.6045C33.4102 25.7085 33.3478 25.802 33.2438 25.8852C32.8073 25.854 32.3915 25.6773 32.0484 25.3446C31.3519 24.6689 30.9985 23.8062 30.9569 22.8394C30.9465 22.6835 31.0921 22.5276 31.1648 22.3716C31.3104 22.4756 31.5079 22.5484 31.5806 22.6939C31.7054 22.9434 31.7677 23.2344 31.8405 23.5151C32.0692 24.3467 32.537 24.9704 33.3894 25.2615Z" fill="#A8A29E"/>
<path d="M32.7009 6.52022C33.439 8.00671 33.6053 9.57637 33.1479 11.2292C32.9504 11.936 32.7321 12.6117 32.3371 13.2146C32.2539 13.3394 32.0876 13.4849 31.9629 13.4849C31.4223 13.4953 30.8922 13.4433 30.414 13.4225C30.4348 12.6741 30.4556 11.9153 30.4764 11.1564C30.4764 11.0837 30.4868 11.0005 30.466 10.9381C30.3516 10.6575 30.2269 10.3872 30.1022 10.1169C30.0294 10.3976 29.9358 10.6679 29.8735 10.9485C29.8215 11.1772 29.8215 11.4163 29.7175 11.697C28.7508 10.3144 27.6593 9.0774 26.256 8.05869C26.0793 8.48489 26.3807 8.65121 26.5366 8.83832C27.0876 9.514 27.6489 10.1689 28.1895 10.8446C28.387 11.0837 28.5221 11.3643 28.7612 11.7385C27.6073 11.5722 26.6406 11.2292 25.7154 10.8238C24.8007 10.4288 23.9379 9.9194 23.0439 9.46202C23.0023 9.5036 22.9711 9.55558 22.9295 9.59716C23.1478 9.82585 23.3454 10.0753 23.5948 10.2728C24.9774 11.4059 26.5574 12.092 28.3038 12.435C28.5117 12.4766 28.73 12.4662 28.9483 12.4974C29.0627 12.5078 29.229 12.4974 29.2809 12.5701C29.3745 12.6949 29.4681 12.9652 29.4265 12.9963C29.125 13.2354 29.3329 13.7864 28.8859 13.9007C28.6468 13.9631 28.4389 13.9111 28.2934 13.6408C27.836 12.8508 27.0564 12.6117 26.204 12.5909C25.6946 12.5805 25.2269 12.6117 24.8838 12.0816C24.7695 11.8945 24.4264 11.8425 24.1666 11.7697C23.3142 11.5202 22.4514 11.3019 21.7445 10.7094C21.3599 10.3872 21.0065 10.0234 20.6322 9.68032C20.4971 9.55558 20.3724 9.43084 20.1749 9.35807C20.2788 10.304 20.9025 10.9277 21.6302 11.3851C22.3682 11.8425 23.1998 12.1543 23.9898 12.5286C23.231 12.6949 22.7736 13.277 22.5241 14.0255C22.4306 14.2957 22.2954 14.3581 22.046 14.3373C21.8796 14.3269 21.7029 14.3165 21.5366 14.3477C21.0792 14.4101 20.8401 14.2645 20.7362 13.776C20.5907 13.0483 19.9566 12.6949 19.3952 12.3622C17.8152 11.4163 16.8484 10.0649 16.443 8.28738C16.4118 8.14185 16.2975 8.01711 16.2143 7.89237C16.1104 7.99632 16.0064 8.11066 15.9129 8.22501C15.7777 8.39133 15.6842 8.60962 15.5283 8.72397C14.2393 9.64913 13.8546 11.0213 13.626 12.4766C13.6156 12.5494 13.626 12.6221 13.6156 12.6949C13.574 12.9548 13.5948 13.2666 13.4492 13.4329C13.3661 13.5369 13.0126 13.3914 12.7736 13.381C12.5137 13.3706 12.1187 13.5057 12.0251 13.3914C11.8276 13.1419 11.786 12.778 11.7133 12.4558C11.3078 10.6055 11.0376 8.73437 11.7444 6.91523C12.6384 4.60752 14.1249 2.92352 16.6717 2.40377C16.9836 2.3414 17.3058 2.17508 17.5553 1.97757C18.4077 1.2811 19.416 1.00043 20.4659 0.834111C22.4306 0.522259 24.3641 0.647 26.2456 1.2811C29.0627 2.21666 31.3704 3.8071 32.7009 6.52022Z" fill="#F5F5F4"/>
<path d="M31.8833 50.4382H32.7045C32.6629 50.5318 32.6213 50.6149 32.5797 50.7085C32.507 50.854 32.2471 50.906 32.0704 50.9995C31.9976 50.8124 31.8521 50.6045 31.8833 50.4382Z" fill="#A8A29E"/>
<path d="M30.4246 14.1292C31.8279 13.9109 32.6907 14.7425 32.6283 15.9587C32.5764 17.0294 31.568 18.1105 30.6013 18.1209C30.4766 18.1209 30.3414 18.0689 30.2167 18.0482C30.2687 17.8507 30.2895 17.6324 30.3726 17.4452C30.4142 17.3621 30.6013 17.2893 30.6949 17.3101C30.9236 17.3725 31.1626 17.57 31.3186 17.2685C31.4641 16.9775 31.3082 16.7176 31.0899 16.4993C30.7572 16.1563 30.8092 15.8548 31.2042 15.6469C31.3601 15.5637 31.4953 15.4598 31.6408 15.3662C31.5473 15.2415 31.4641 15.0232 31.3497 15.0128C31.1107 14.9816 30.7884 14.9712 30.6117 15.096C30.3726 15.2623 30.2479 15.5637 30.0712 15.8132C30.0088 15.7924 29.9464 15.782 29.884 15.7612C29.9568 15.3039 30.0088 14.8361 30.1127 14.3787C30.1231 14.2747 30.2998 14.15 30.4246 14.1292Z" fill="white"/>
<path d="M30.7373 26.2287C30.9764 26.3638 31.1323 26.4782 31.1947 26.5925C30.5294 26.7276 29.9784 26.8004 29.9784 26.8004L28.6479 26.5613L28.6894 26.3014C28.8869 26.343 29.0845 26.3638 29.2924 26.3846C28.7414 25.7297 28.4608 25.0125 28.2632 24.2432C28.2009 23.973 28.2009 23.7962 28.44 23.7339C28.5543 23.7027 28.7518 23.8586 28.8558 23.973C28.9701 24.0873 29.0533 24.2536 29.0949 24.4095C29.3339 25.3139 29.9784 25.8233 30.7373 26.2287Z" fill="#A8A29E"/>
<path d="M30.3184 18.7229L30.3496 18.8892C30.2041 18.9204 30.0897 19.0139 30.0169 19.2218C29.8506 19.7208 29.6531 20.2094 29.4348 20.6875C29.0398 21.5711 28.4369 22.2884 27.6781 22.8601L27.6053 22.7562C29.0814 21.4672 29.8714 18.8268 29.8714 18.8268L30.3184 18.7229Z" fill="#A8A29E"/>
<path d="M29.324 16.7469C29.8437 20.5411 27.2969 22.9631 24.2304 23.6388C22.5464 24.013 20.8312 24.065 19.1472 23.6492C16.5068 22.9839 14.1679 20.5618 14.5006 17.4849C14.5422 17.0587 14.6357 16.6325 14.6565 16.2063C14.6877 15.7073 14.6669 15.2188 14.6669 14.7198C14.7189 14.7198 14.7813 14.7094 14.8436 14.7094C14.906 14.9589 14.9788 15.198 15.0203 15.4579C15.1659 16.4246 15.7168 17.0691 16.6212 17.4017C17.484 17.7136 18.3364 17.9943 19.2927 17.7136C19.7397 17.5785 20.1659 17.4953 20.457 17.0899C20.6233 16.8612 20.8208 16.6741 21.0495 17.0483C21.0911 17.1211 21.195 17.1938 21.2886 17.2042C21.4757 17.2354 21.7252 17.2978 21.8499 17.2042C22.1098 17.0171 21.9019 16.7884 21.746 16.6741C21.4653 16.4662 21.4341 16.2375 21.5588 15.936C21.6004 15.8321 21.6108 15.7073 21.6316 15.5826C21.6628 15.3851 21.5485 15.1044 21.9019 15.094C22.2241 15.094 22.536 15.146 22.6503 15.5098C22.7439 15.8321 22.8167 16.1647 22.8998 16.487C23.0246 16.934 23.3052 17.2562 23.7418 17.4121C25.1452 17.9215 26.4445 17.62 27.6608 16.8612C28.1493 16.5493 28.4404 16.0296 28.5339 15.4267C28.5547 15.2811 28.5547 15.1356 28.5963 15.0005C28.6171 14.9277 28.7107 14.8757 28.773 14.8134C28.8354 14.8757 28.929 14.9277 28.9394 15.0005C29.0641 15.5722 29.2408 16.1543 29.324 16.7469ZM22.9622 20.8009C23.0869 20.7386 23.1389 20.5099 23.2221 20.3539C23.0765 20.2916 22.8998 20.1564 22.7855 20.198C22.2137 20.3851 21.7044 20.2396 21.1846 20.0421C21.0495 19.9901 20.852 20.1149 20.6857 20.1564C20.7584 20.3435 20.7896 20.6138 20.9247 20.6866C21.247 20.8737 21.6212 20.9569 21.9539 21.0816C22.3281 20.988 22.6607 20.9361 22.9622 20.8009Z" fill="white"/>
<path d="M28.4625 50.4382H29.1382C29.1174 50.6565 29.055 50.8644 28.7535 50.8332C28.4833 50.8124 28.4521 50.6253 28.4625 50.4382Z" fill="#A8A29E"/>
<path d="M29.0333 37.9028C29.0333 38.9527 28.9813 40.013 28.9502 41.0629C28.8982 42.5286 28.867 43.9839 28.7942 45.4496C28.7111 47.0609 28.5863 48.6721 28.4824 50.2729C28.4824 50.3249 28.472 50.3873 28.472 50.4393H15.8212C15.8212 50.4081 15.8212 50.3769 15.8212 50.3353C15.8004 50.0235 15.79 49.7116 15.7692 49.3998C15.6444 47.7157 15.4677 46.0421 15.4054 44.3581C15.3118 42.1544 15.2806 39.9506 15.2702 37.7365C15.2598 35.855 15.2598 33.9735 15.3326 32.092C15.3846 30.8238 15.5925 29.566 15.6652 28.2978C15.738 27.1543 15.7068 27.1647 16.7671 26.7489C17.027 26.6449 17.1621 26.6553 17.2765 26.9048C17.7443 27.9027 18.6798 28.2354 19.6466 28.4953C19.9896 28.5888 20.3118 28.5264 20.4054 28.1834C19.8441 27.8923 19.2619 27.6533 18.7526 27.3206C17.869 26.7385 17.7027 26.2395 18.0249 25.2416C18.0977 25.0233 18.3576 24.8674 18.5551 24.7115C18.5759 24.6907 18.7734 24.8882 18.8877 24.9921C18.9917 25.0857 19.0852 25.2104 19.1996 25.2832C20.8628 26.3643 23.763 26.3539 25.2391 25.2832C25.5718 25.0441 25.79 24.6595 26.0915 24.3684C26.2059 24.2541 26.3722 23.9422 26.5801 24.2957C26.6944 24.4828 26.7776 24.7011 26.8296 24.9194C26.9959 25.6262 26.8192 26.4162 26.341 26.8632C26.237 26.9568 26.0915 27.0088 25.9876 27.1127C25.9148 27.1855 25.8212 27.3518 25.8524 27.3934C25.9148 27.4973 26.0603 27.6013 26.1747 27.6013C26.5905 27.6117 26.9335 27.4142 27.1414 27.0711C27.3701 26.6761 27.6404 26.7905 27.9418 26.9152C28.2641 27.0503 28.6071 27.0711 28.6383 27.5701C28.7215 29.0774 28.919 30.5847 28.9709 32.092C29.0333 34.0358 29.0333 35.9693 29.0333 37.9028Z" fill="#E7E5E4"/>
<path d="M28.6829 26.3117L28.6413 26.5716L27.3627 26.3429L27.0509 24.8772L26.7182 23.2971C27.0405 23.1724 27.3419 22.9853 27.6122 22.7462L27.685 22.8501C27.6434 22.8813 27.5914 22.9125 27.5498 22.9541C27.186 23.214 27.1028 23.453 27.2276 23.8896C27.4043 24.5133 27.4667 25.1578 27.5914 25.7919C27.6122 25.8959 27.6746 26.0518 27.7473 26.0726C28.0488 26.1662 28.3607 26.2493 28.6829 26.3117Z" fill="#A8A29E"/>
<path d="M27.9131 14.0669C28.1834 14.8154 27.9339 15.8757 27.1023 16.3122C26.4993 16.6241 25.8029 16.7696 25.1584 16.9879C25.148 16.9463 25.1272 16.9048 25.1168 16.8736C24.8569 16.8528 24.5867 16.8528 24.3268 16.7904C23.9733 16.7073 23.6407 16.5617 23.5056 16.1667C23.2665 15.4287 23.1209 14.6906 23.3288 13.9006C23.4224 13.5576 23.6199 13.4016 23.911 13.3496C24.3372 13.2769 24.7738 13.1937 25.2 13.2145C25.8652 13.2457 26.5305 13.3808 27.1958 13.4536C27.5908 13.4952 27.7883 13.7239 27.9131 14.0669ZM25.7821 15.886C26.1459 15.886 26.4266 15.5326 26.4266 15.0856C26.4266 14.6178 26.2499 14.3996 25.8964 14.3892C25.5014 14.3788 25.2415 14.649 25.2415 15.0752C25.2415 15.491 25.5118 15.886 25.7821 15.886Z" fill="white"/>
<path d="M26.4248 15.0849C26.4248 15.5319 26.1442 15.8853 25.7803 15.8853C25.4997 15.8853 25.2398 15.4903 25.2398 15.0745C25.2398 14.6483 25.4997 14.378 25.8947 14.3884C26.2585 14.3988 26.4248 14.6275 26.4248 15.0849Z" fill="#A8A29E"/>
<path d="M21.9131 24.887C22.963 24.6895 24.0233 24.5232 25.2291 24.3153C24.0753 25.3028 22.8279 25.282 21.5181 25.1469C21.6428 25.0637 21.7676 24.9182 21.9131 24.887Z" fill="white"/>
<path d="M23.2133 20.3555C23.1301 20.5115 23.0782 20.7402 22.9534 20.8025C22.652 20.9377 22.3193 20.9896 21.9347 21.0936C21.6021 20.9793 21.2278 20.8857 20.9056 20.6986C20.7705 20.6258 20.7393 20.3452 20.6665 20.1684C20.8328 20.1269 21.0303 20.0021 21.1655 20.0541C21.6956 20.2516 22.205 20.3971 22.7663 20.21C22.8911 20.158 23.0678 20.2932 23.2133 20.3555Z" fill="#A8A29E"/>
<path d="M19.3057 13.4335C20.3036 13.6518 20.4699 13.9012 20.4283 14.92C20.3348 16.8534 19.4824 17.2381 17.5697 16.9158C17.3618 16.8846 17.1643 16.7599 16.9564 16.6975C15.6986 16.2817 15.3035 15.1694 15.8337 13.9948C15.9169 13.8181 16.1559 13.6518 16.3534 13.6102C16.946 13.4854 17.5489 13.3919 18.1622 13.3399C18.5468 13.3087 18.9418 13.3503 19.3057 13.4335ZM18.1518 15.8139C18.4948 15.8243 18.7235 15.5541 18.7235 15.1486C18.7235 14.764 18.4636 14.4626 18.1518 14.4626C17.8399 14.4522 17.6424 14.7017 17.6424 15.0967C17.6528 15.5541 17.8295 15.8035 18.1518 15.8139Z" fill="white"/>
<path d="M18.7201 15.1573C18.7201 15.5523 18.4915 15.833 18.1484 15.8226C17.8262 15.8122 17.6391 15.5523 17.6391 15.1053C17.6287 14.7103 17.8366 14.4608 18.1484 14.4712C18.4707 14.4712 18.7201 14.7727 18.7201 15.1573Z" fill="#A8A29E"/>
<path d="M17.8595 23.6301L18.0362 24.2434L17.8075 24.8151L17.4748 25.7195L17.111 26.0417L16.9863 25.9066C17.0798 25.8131 17.0902 25.6571 16.9967 25.4492C16.9031 25.2309 16.768 25.023 16.7264 24.7943C16.664 24.4097 16.8304 24.2746 17.163 24.4929C17.5164 24.7216 17.61 24.4513 17.6931 24.2746C17.7347 24.1914 17.5892 23.9419 17.4645 23.8692C16.4146 23.3078 15.531 22.5802 14.8553 21.5927L15.1048 21.4471C15.6349 22.2371 17.8595 23.6301 17.8595 23.6301Z" fill="#A8A29E"/>
<path d="M17.4619 23.8587C17.5867 23.9211 17.7322 24.1706 17.6906 24.2641C17.6075 24.4409 17.5139 24.7215 17.1605 24.4824C16.8278 24.2641 16.6615 24.3993 16.7239 24.7839C16.7655 25.0126 16.8902 25.2205 16.9942 25.4388C17.0877 25.6467 17.0773 25.8026 16.9838 25.8962C16.9214 25.9585 16.8071 25.9897 16.6615 25.9585C16.464 25.9274 16.2561 25.813 16.0898 25.6883C15.6636 25.3556 15.331 24.9502 15.1542 24.4305C15.1127 24.2953 14.9775 24.181 14.8944 24.0562C14.7904 24.2226 14.5825 24.4097 14.6033 24.5552C14.6761 25.0853 14.8424 25.5843 15.3102 25.9273C15.4557 26.0313 15.5804 26.156 15.7156 26.2808C15.5493 26.2912 15.3933 26.312 15.2582 26.3535C14.9983 26.3639 14.6865 26.3847 14.3226 26.4055C13.3039 26.4679 12.7322 25.917 12.4203 25.2413C12.5243 25.314 12.649 25.3764 12.753 25.4388C12.6698 24.8567 12.4827 24.3889 12.3788 23.9003C12.254 23.3182 12.3268 22.7776 12.5035 22.2683C12.6386 21.8941 12.8257 21.5302 13.044 21.1872C13.4079 20.6051 13.6989 20.0229 13.5534 19.3057C13.5326 19.1809 13.6054 19.0354 13.6366 18.9003C13.7821 19.077 13.8237 19.2329 13.8652 19.3992C14.0732 20.1893 14.4058 20.9273 14.8736 21.603C15.5285 22.5801 16.412 23.2974 17.4619 23.8587Z" fill="#F5F5F4"/>
<path d="M18.5635 12.4992C17.7527 12.6655 17.025 12.7591 16.3182 12.9774C15.9543 13.0917 15.6113 13.362 15.3306 13.6322C15.1435 13.8194 15.0292 13.9025 14.7901 13.7986C14.551 13.705 14.3743 13.6011 14.4055 13.2892C14.5302 12.0418 14.6342 10.7944 15.393 9.7237C15.5593 9.48461 15.7153 9.25592 15.9336 8.93367C16.3909 10.441 17.1498 11.6988 18.5635 12.4992Z" fill="white"/>
<path d="M16.9874 25.897L17.1121 26.0321L16.7067 26.4063C16.7067 26.4063 16.7795 26.292 15.2514 26.3544C15.3866 26.3128 15.5425 26.292 15.7088 26.2816C15.5737 26.1672 15.4489 26.0321 15.3034 25.9282C14.8356 25.5955 14.6589 25.0862 14.5965 24.556C14.5757 24.4001 14.7836 24.2234 14.8876 24.0571C14.9812 24.1818 15.1059 24.2857 15.1475 24.4313C15.3242 24.951 15.6568 25.3564 16.083 25.6891C16.2494 25.8138 16.4573 25.9282 16.6548 25.9594C16.8107 25.9905 16.9146 25.9593 16.9874 25.897Z" fill="#A8A29E"/>
<path d="M15.8202 50.4382C15.8306 50.6357 15.7994 50.8124 15.5395 50.8332C15.2381 50.8644 15.1861 50.6565 15.1549 50.4382H15.8202Z" fill="#A8A29E"/>
<path d="M15.1535 50.4383H12.4092C12.378 50.3447 12.326 50.2512 12.2949 50.168C12.035 49.5235 11.7439 48.8894 11.5048 48.2449C10.7356 46.1659 10.299 44.0037 10.0287 41.8104C9.8936 40.7501 9.97676 39.7833 11.1202 39.2532C11.2865 39.17 11.4217 39.0141 11.5776 38.8998C12.1181 38.4943 12.1389 38.3696 11.7647 37.8602C11.2761 37.1846 10.798 36.4881 10.2886 35.8228C9.87281 35.2719 9.71688 34.6794 10.0287 34.066C10.5381 33.0473 11.0371 31.9974 11.6919 31.0723C12.5547 29.8664 13.5735 28.775 14.5402 27.6315C14.6338 27.5171 14.7793 27.4548 15.0184 27.2781C14.9768 27.8706 14.956 28.328 14.9144 28.775C14.8001 29.8976 14.5714 31.0203 14.5714 32.1533C14.561 35.7396 14.6026 39.3363 14.6753 42.933C14.7169 44.9081 14.8936 46.8728 15.008 48.8478C15.0392 49.3572 15.1015 49.8562 15.1535 50.3551C15.1535 50.3759 15.1535 50.4071 15.1535 50.4383Z" fill="#F5F5F4"/>
<path d="M15.0968 21.4464L14.8473 21.5919C14.3796 20.9162 14.0469 20.1782 13.839 19.3882C13.7974 19.2322 13.7662 19.0659 13.6103 18.8892C13.5791 19.0243 13.5064 19.1699 13.5272 19.2946C13.6727 20.0119 13.3816 20.6044 13.0178 21.1761C12.7995 21.5296 12.6124 21.883 12.4773 22.2572L12.4149 22.2364C12.8515 20.9682 13.392 18.6085 13.392 18.6085L13.8806 18.6605C13.8806 18.6605 14.8889 20.4589 14.9617 21.1553C14.9929 21.2593 15.0344 21.3424 15.0968 21.4464Z" fill="#A8A29E"/>
<path d="M13.9898 15.8545C13.9274 15.8649 13.8754 15.8753 13.813 15.8857C13.6675 15.6674 13.5116 15.4699 13.3972 15.2412C13.1789 14.8462 12.8463 14.8982 12.5137 14.9918C12.3889 15.0333 12.2746 15.2204 12.2434 15.3556C12.2226 15.418 12.3993 15.5635 12.5137 15.6155C13.0958 15.8961 13.1374 16.0728 12.732 16.551C12.6592 16.6446 12.5552 16.7381 12.5344 16.8421C12.5137 16.998 12.4929 17.2163 12.5864 17.3099C12.6592 17.393 12.8879 17.3722 13.0334 17.3514C13.1789 17.3306 13.3245 17.1331 13.4492 17.3722C13.5428 17.5593 13.6155 17.7568 13.6571 17.9544C13.6675 17.9855 13.5012 18.0999 13.4076 18.1103C12.732 18.2038 11.8692 17.6217 11.4326 16.7797C11.1207 16.1768 11.1103 15.1893 11.6405 14.6279C12.1498 14.0978 12.7735 14.0458 13.4284 14.1186C13.5532 14.129 13.7403 14.3057 13.7611 14.4304C13.8754 14.9086 13.917 15.3868 13.9898 15.8545Z" fill="white"/>
<path d="M13.1472 28.1533C12.9913 28.3924 12.9081 28.5691 12.7938 28.7042C12.3052 29.2552 11.7335 29.7541 11.3177 30.357C10.6108 31.3758 9.89355 32.4049 9.38419 33.5172C8.90602 34.5671 9.03076 35.6793 9.91434 36.5941C10.0807 36.7604 10.2054 36.9787 10.3405 37.1762C10.5692 37.5193 10.9227 37.8519 10.9642 38.2157C11.0266 38.7251 10.3925 38.7771 10.0807 39.0473C9.56091 39.5255 9.17629 40.066 9.21787 40.7833C9.30103 42.6128 9.5921 44.432 10.1119 46.1784C10.538 47.6233 11.0994 49.0162 11.6087 50.4403H7.55466C7.55466 50.3364 7.53387 50.222 7.51308 50.1285C7.31557 49.2137 7.12846 48.2989 6.92056 47.3842C6.43199 45.2116 6.25527 43.0494 6.94135 40.8769C7.08688 40.4091 7.10767 39.8893 7.17004 39.3904C7.18044 39.2968 7.10767 39.1305 7.0453 39.1201C6.95175 39.0993 6.82701 39.1825 6.74384 39.2448C6.67108 39.2968 6.6295 39.4008 6.60871 39.4943C6.14093 40.9808 5.60038 42.4465 5.71473 44.0162C5.62117 45.5754 6.05777 47.0411 6.34883 48.5172C6.47357 49.1202 6.60871 49.7335 6.80621 50.3156C6.81661 50.3572 6.84779 50.3987 6.87898 50.4507H0.465213C0.475608 50.4403 0.486004 50.4299 0.496399 50.4195C0.548374 50.2844 0.454819 48.5692 0.486004 48.4341C0.818647 46.5942 1.1201 44.7438 1.50472 42.9039C1.82697 41.3342 2.28435 39.7854 2.617 38.2157C2.99122 36.3966 3.83322 34.8269 5.12221 33.5172C6.71266 31.9059 8.38627 30.3882 10.3925 29.2968C11.2345 28.829 12.0869 28.3404 13.1472 28.1533Z" fill="#F5F5F4"/>
<path d="M12.36 23.9101C12.464 24.3987 12.6615 24.8665 12.7343 25.4486C12.6303 25.3758 12.5056 25.3239 12.4016 25.2511C11.9442 24.2739 12.017 23.0369 12.017 23.0369C12.1209 23.0265 12.2665 22.7147 12.4224 22.2573L12.4848 22.2781C12.3081 22.7875 12.2353 23.328 12.36 23.9101Z" fill="#A8A29E"/>
<path d="M12.4096 50.4382C12.42 50.4798 12.4304 50.5318 12.4304 50.5733C12.4096 50.7189 12.3264 50.9372 12.2121 50.9787C12.1082 51.0203 11.9106 50.906 11.7755 50.8228C11.7027 50.7812 11.682 50.6669 11.6508 50.5733C11.63 50.5318 11.6196 50.4798 11.5988 50.4382H12.4096Z" fill="#A8A29E"/>
<path d="M7.50528 50.1279C7.52607 50.2319 7.55725 50.3462 7.54686 50.4398H6.87118C6.83999 50.3982 6.80881 50.3566 6.79841 50.3046C6.60091 49.7225 6.46577 49.1092 6.34103 48.5063C6.03957 47.0302 5.61337 45.5645 5.70693 44.0052C5.58219 42.4355 6.13313 40.9698 6.6009 39.4833C6.63209 39.3898 6.67367 39.2858 6.73604 39.2339C6.8192 39.1611 6.94394 39.0883 7.0375 39.1091C7.09987 39.1195 7.17263 39.2962 7.16224 39.3794C7.09987 39.8784 7.07908 40.3877 6.93355 40.8659C6.24747 43.0385 6.42419 45.2006 6.91276 47.3732C7.12066 48.2984 7.30777 49.2131 7.50528 50.1279Z" fill="#A8A29E"/>
<path d="M6.87964 50.4382H7.55532C7.55532 50.5733 7.49295 50.6773 7.30584 50.6981C7.1707 50.7085 6.98359 50.5837 6.87964 50.4382Z" fill="#A8A29E"/>
<path d="M0.122217 50.4382H0.465254C0.392489 50.4798 0.205377 50.4694 0.143007 50.5214C0.143007 50.511 0.132612 50.4798 0.122217 50.4382Z" fill="#A8A29E"/>
</svg>
