<svg width="64" height="67" viewBox="0 0 64 67" fill="none" xmlns="http://www.w3.org/2000/svg">
<path d="M62.9561 55.6693C63.4597 58.7706 63.8706 61.8984 63.685 65.0659C63.6585 65.5165 63.738 65.9804 63.6983 66.4178C63.6983 66.431 63.6983 66.4443 63.685 66.4575H62.7573C62.6645 66.2985 62.7043 66.0467 62.7043 65.8346C62.7971 62.2032 62.3597 58.5983 61.9223 54.9933C61.7633 53.668 61.2464 52.3957 60.8753 51.0968C60.1994 48.7377 59.2054 46.5112 58.0523 44.3509C56.6475 41.7399 54.4341 40.07 51.7835 38.9037C49.5039 37.8965 47.105 37.2603 44.6664 36.8097C43.6194 36.6109 42.5326 36.6109 41.4723 36.5049C41.0217 36.4651 40.8627 36.6506 40.8627 37.0748C40.8627 37.9892 40.2928 38.6387 39.6699 39.1555C38.371 40.2291 37.0059 41.2231 35.6541 42.2303C35.4553 42.3761 35.0974 42.5086 34.9119 42.4291C34.4878 42.2436 34.342 42.4689 34.1034 42.734C33.348 43.5689 33.1094 44.3906 33.3745 45.5834C33.9709 48.2606 34.2757 51.0041 34.4215 53.7475C34.5408 56.0404 34.7794 58.3332 34.9649 60.626C35.0709 62.0309 35.1902 63.4358 35.2697 64.8539C35.2962 65.225 35.2565 65.5961 35.2035 65.9539C35.1769 66.1262 35.0577 66.2852 34.9649 66.4443H34.9119C34.8059 66.3117 34.6866 66.1792 34.6203 66.0202C34.5408 65.8214 34.501 65.6093 34.4878 65.3973C34.3287 63.6611 34.1829 61.9116 34.0239 60.1754C33.8516 58.2007 33.6661 56.2259 33.4938 54.2512C33.3612 52.7535 33.2552 51.2691 33.1094 49.7715C32.9371 48.1281 32.7251 46.4979 32.5528 44.8677C32.4998 44.3906 32.2479 44.2581 31.8106 44.2581C31.0816 44.2448 30.3395 44.2051 29.6105 44.1653C29.2527 44.1388 29.2262 44.3376 29.1732 44.6159C28.8816 46.1798 28.537 47.7305 28.2719 49.2944C27.8478 51.786 27.437 54.2777 27.0791 56.7826C26.7875 58.8368 26.602 60.9176 26.3767 62.9851C26.2442 64.2045 26.1514 64.3635 26.0454 65.5828C26.0321 65.7286 26.0188 65.9009 25.9393 66.0334C25.8598 66.1792 25.7008 66.2852 25.5815 66.4045C25.502 66.2587 25.3429 66.1262 25.3429 65.9804C25.3032 65.1852 25.2899 64.4033 25.3032 63.6081C25.3694 59.5923 26.0719 56.703 26.7743 52.7668C27.1189 50.8185 27.3972 48.8438 27.7153 46.8955C27.8478 46.1136 27.9273 45.3051 28.1924 44.5629C28.5767 43.4894 27.808 42.7737 27.5297 41.9122C27.5032 41.846 27.2116 41.8062 27.0659 41.846C25.8996 42.2038 25.1176 41.6737 24.508 40.7459C23.6995 39.5266 22.8778 38.2941 22.0693 37.0748C21.844 36.7302 21.632 36.5049 21.1018 36.6374C20.3596 36.8097 19.5644 36.7434 18.8222 36.8892C16.3306 37.3928 13.8522 38.0157 11.5461 39.1025C8.88218 40.3616 6.74838 42.2303 5.39653 44.9473C3.87239 47.9955 2.66633 51.1499 1.95065 54.4897C1.65907 55.8283 1.5398 57.2199 1.44703 58.5983C1.27473 61.0767 1.18196 63.5683 1.06267 66.0599C1.06267 66.1262 1.06268 66.1792 1.04942 66.2455C1.03617 66.3382 1.02291 66.4045 1.00966 66.484H0.214454V61.673L0.121686 61.62C0.148193 61.567 0.16145 61.5008 0.174703 61.4477C0.426518 57.9223 0.83736 54.4234 1.88438 51.0173C2.78561 48.1016 3.8724 45.2654 5.62185 42.734C6.50983 41.4351 7.62311 40.3748 8.97495 39.5001C10.6449 38.4266 12.3678 37.5121 14.2631 36.9687C16.4101 36.3458 18.5572 35.6831 20.8235 35.6566C21.2079 35.6566 21.4862 35.5374 21.791 35.2458C22.5597 34.5036 23.3682 33.8144 24.2031 33.1517C24.8658 32.6349 24.9056 32.5686 24.2694 32.012C23.779 31.5878 23.3019 31.1505 22.785 30.7529C21.685 29.9047 21.0753 28.7649 20.744 27.4528C20.638 27.0419 20.4922 26.8961 20.0813 26.8564C18.3981 26.7106 16.98 25.3853 16.5957 23.6756C16.1981 21.8864 16.5957 20.3092 17.8945 19.0104C18.2656 18.626 18.3584 18.3477 18.1331 17.8176C16.8342 14.7428 16.7547 11.6547 18.0403 8.52694C18.5572 7.28112 19.2066 6.16784 20.1343 5.21359C20.8368 4.48466 21.6717 3.99428 22.6657 3.82199C23.5537 3.66294 24.2296 3.17257 24.9188 2.64243C27.702 0.508635 30.8431 -0.299821 34.3022 0.0977804C37.324 0.442369 39.9349 1.67493 42.1615 3.71596C44.4411 5.80999 45.899 8.3679 46.4026 11.4559C46.7074 13.2849 46.5749 15.0609 46.0447 16.8103C46.005 16.9561 45.9785 17.1151 45.9387 17.2477C45.7929 17.738 45.4616 18.2549 45.5279 18.7188C45.5809 19.1562 46.0713 19.5405 46.3231 19.9779C47.6882 22.337 46.6412 25.4383 44.2423 26.5516C43.9772 26.6708 43.6459 26.6841 43.341 26.6841C42.9037 26.6841 42.6651 26.8431 42.5458 27.2672C41.9494 29.3215 40.8494 31.0047 38.9939 32.1445C38.3975 32.5156 38.371 33.3505 38.8747 33.8012C38.9409 33.8674 39.0337 33.9072 39.0735 33.9867C39.9084 35.3253 41.2735 35.5904 42.6651 35.6036C44.3086 35.6301 45.8857 36.0145 47.4761 36.3723C50.6437 37.0748 53.5197 38.3868 56.0776 40.3748C57.3366 41.3556 58.1981 42.6809 58.9801 44.0328C61.0476 47.6775 62.2934 51.6005 62.9561 55.6693ZM45.7399 23.1984C45.9652 22.3237 45.9387 21.4357 45.5014 20.6008C45.0375 19.7393 44.2158 19.3417 43.2748 19.5273C43.1555 19.5538 42.97 19.6465 42.9434 19.7526C42.6916 20.561 42.4796 21.3827 42.2278 22.2707C42.4531 23.2647 42.6651 24.272 42.9169 25.266C42.9567 25.3985 43.1025 25.5841 43.235 25.6106C43.8844 25.7431 44.8652 25.2527 45.1833 24.6431C45.3953 24.1925 45.6206 23.7021 45.7399 23.1984ZM42.0952 17.9766C42.3338 16.5983 42.4266 15.2067 41.2735 14.1066C41.1807 14.0271 41.141 13.8946 41.088 13.7885C40.4651 12.4765 39.4445 11.5222 38.318 10.6607C37.9999 10.4089 37.8674 10.4884 37.6951 10.8198C36.7011 12.662 35.0577 13.5632 33.0432 13.8813C32.0624 14.0404 31.7576 13.6825 32.0757 12.7813C31.5455 12.8873 31.0021 13.0331 30.472 13.0729C29.425 13.1391 28.3779 13.1656 27.3309 13.1524C26.9466 13.1524 26.549 13.0463 26.1911 12.9006C25.6212 12.6753 25.5947 12.5162 25.9393 12.0258C26.1779 11.6812 26.443 11.3632 26.6948 11.0318C26.655 10.9788 26.6152 10.9258 26.5887 10.8728C26.2441 11.0186 25.8466 11.1114 25.5682 11.3367C24.6272 12.1186 23.6862 12.9138 22.8115 13.7753C21.7247 14.8621 21.3139 16.2537 21.4597 17.7513C21.579 18.9971 21.8573 20.2297 22.1356 21.4623C22.3344 22.3502 22.4934 23.2515 22.1356 24.0997C21.6452 25.2792 21.8043 26.4588 21.9633 27.6516C22.0296 28.142 22.2814 28.6456 22.5597 29.0697C23.3284 30.1962 24.3887 31.0445 25.5417 31.7601C27.9141 33.2578 30.4985 33.6554 33.2552 33.1252C33.6661 33.0457 34.0902 33.1252 34.5143 33.1385C34.5143 33.218 34.5143 33.2843 34.5143 33.3505C32.566 34.1325 30.4322 33.8939 28.2719 34.4903C29.3057 35.0205 30.2202 35.4578 31.0816 35.9615C31.4395 36.1735 31.7311 36.1868 32.1022 36.041C33.6528 35.4048 35.2035 34.7554 36.7806 34.159C37.2975 33.9602 37.5228 33.7747 37.3903 33.1783C37.2312 32.4361 37.4565 31.8264 38.1855 31.389C38.7951 31.0445 39.3253 30.5541 39.8554 30.077C41.7639 28.3673 42.1217 26.2335 41.4591 23.8611C41.2205 22.9996 41.2072 22.1647 41.3795 21.3032C41.6048 20.1899 41.9097 19.0899 42.0952 17.9766ZM39.1397 38.2543C40.041 37.4724 40.2 36.7832 39.7229 36.1073C39.3518 35.5771 38.7686 35.1795 38.2517 34.7554C38.1457 34.6759 37.8939 34.7156 37.7348 34.7687C35.9191 35.4711 34.1167 36.1868 32.2745 36.9025C33.0166 38.1748 33.7191 39.3543 34.4082 40.5339C34.5275 40.7459 34.6468 40.9845 34.8191 41.1303C35.0444 41.3291 35.2432 41.4484 35.5878 41.1435C36.7541 40.1628 37.9867 39.2616 39.1397 38.2543ZM32.2745 43.2508C32.6986 43.2376 33.8384 41.8195 33.7721 41.3954C33.7588 41.3423 33.7191 41.2893 33.6926 41.2231C33.3745 40.6002 33.0962 39.9507 32.7118 39.3676C32.0359 38.3736 30.578 38.3206 29.7961 39.2218C29.478 39.5929 29.1997 39.9905 28.8418 40.3086C28.3647 40.7327 28.4177 41.117 28.59 41.7134C28.9743 42.999 29.6635 43.5557 31.0021 43.2376C31.413 43.2508 31.8503 43.2641 32.2745 43.2508ZM29.6768 37.87C30.7238 36.7302 30.6973 36.7832 29.3057 36.0807C28.0069 35.4313 26.7743 34.6229 25.502 33.9072C25.3297 33.8144 24.9983 33.7349 24.879 33.8277C24.1766 34.3711 23.5272 34.9675 22.8513 35.5506C22.573 35.7892 22.5862 36.041 22.7055 36.3591C22.9573 37.0217 23.2356 37.6314 23.7393 38.1748C24.4152 38.917 24.9718 39.7652 25.608 40.5471C25.767 40.7327 26.0056 40.8652 26.2442 41.0508C26.6418 40.8255 27.0394 40.7062 27.2912 40.4544C28.1261 39.6061 28.8948 38.7314 29.6768 37.87ZM21.3934 22.5888C21.3006 21.6478 21.2079 21.6876 20.7838 20.6671C20.2801 19.4477 18.7692 19.408 18.0138 20.5875C17.1788 21.8996 17.4174 24.0069 18.6234 25.0672C19.021 25.4118 19.5512 25.6371 20.0416 25.8226C20.3729 25.9419 20.6777 25.8094 20.7572 25.3588C20.9428 24.4178 21.1814 23.5033 21.3934 22.5888Z" fill="#A8A29E"/>
<path d="M62.7547 66.4701H63.6825C63.6427 66.6556 63.4439 66.8279 63.3246 67.0002C63.1258 66.8412 62.8873 66.6954 62.7547 66.4701C62.7547 66.4833 62.7547 66.4833 62.7547 66.4701Z" fill="#A8A29E"/>
<path d="M62.7531 66.4713H34.974C35.0668 66.3123 35.186 66.1532 35.2126 65.981C35.2656 65.6231 35.2921 65.252 35.2788 64.8809C35.186 63.4761 35.08 62.0712 34.974 60.6531C34.7885 58.3603 34.5499 56.0807 34.4306 53.7746C34.2848 51.0179 33.98 48.2877 33.3836 45.6105C33.1185 44.4177 33.3571 43.5827 34.1125 42.761C34.3511 42.4959 34.4836 42.2706 34.921 42.4562C35.1065 42.5357 35.4644 42.4032 35.6632 42.2574C37.0283 41.2501 38.3934 40.2694 39.679 39.1826C40.3019 38.6657 40.8718 38.0163 40.8718 37.1018C40.8718 36.6777 41.0308 36.4789 41.4814 36.5319C42.5417 36.6379 43.6285 36.6512 44.6755 36.8367C47.1141 37.2874 49.513 37.9235 51.7926 38.9308C54.4433 40.0971 56.6566 41.767 58.0614 44.3779C59.2277 46.5382 60.2085 48.7648 60.8844 51.1239C61.2555 52.4095 61.7724 53.6951 61.9314 55.0204C62.3688 58.6121 62.8062 62.217 62.7134 65.8617C62.7001 66.0605 62.6604 66.3123 62.7531 66.4713ZM56.2457 49.4407C56.2325 49.4407 56.2192 49.4275 56.1927 49.4275C56.1927 49.3347 56.206 49.2419 56.1927 49.1491C56.1662 48.8178 56.259 48.3937 55.7819 48.3672C55.6758 48.3539 55.4903 48.7648 55.4505 49.0034C55.0794 50.9781 54.6951 52.9529 54.377 54.9409C54.0059 57.2337 53.7143 59.5266 53.3565 61.8194C53.1842 62.9327 52.9191 64.0327 52.7468 65.1592C52.7071 65.3978 52.8926 65.8352 53.0649 65.9014C53.4493 66.034 53.542 65.6629 53.6083 65.3448C53.7806 64.5098 54.0059 63.6881 54.1517 62.8399C54.5758 60.282 54.9734 57.7241 55.3843 55.1529C55.6758 53.2577 55.9541 51.3492 56.2457 49.4407Z" fill="white"/>
<path d="M56.1976 49.4269C56.2108 49.4269 56.2241 49.4269 56.2506 49.4402C55.959 51.3486 55.6807 53.2571 55.3891 55.1524C54.9915 57.7103 54.5939 60.2814 54.1566 62.8393C54.024 63.6876 53.7987 64.5093 53.6132 65.3442C53.5469 65.6623 53.4409 66.0334 53.0698 65.9009C52.8975 65.8346 52.7252 65.3972 52.7517 65.1587C52.9107 64.0454 53.1758 62.9454 53.3613 61.8188C53.7192 59.526 54.024 57.2331 54.3819 54.9403C54.7 52.9523 55.0843 50.9775 55.4554 49.0028C55.4952 48.7642 55.694 48.3534 55.7867 48.3666C56.2639 48.3931 56.1711 48.8305 56.1976 49.1486C56.1976 49.2546 56.1976 49.3474 56.1976 49.4269Z" fill="#A8A29E"/>
<path d="M45.5016 20.6171C45.939 21.4521 45.9655 22.3268 45.7402 23.2148C45.6209 23.7184 45.3956 24.1955 45.157 24.6594C44.8522 25.2691 43.8582 25.7594 43.2088 25.6269C43.0763 25.6004 42.9172 25.4149 42.8907 25.2823C42.6522 24.2751 42.4268 23.2678 42.2015 22.2871C42.4534 21.3991 42.6654 20.5774 42.9172 19.7689C42.9437 19.6629 43.1293 19.5701 43.2486 19.5436C44.2161 19.3448 45.0378 19.7424 45.5016 20.6171Z" fill="white"/>
<path d="M41.2728 14.1065C42.4259 15.2066 42.3331 16.5982 42.0945 17.9765C41.909 19.0898 41.6042 20.1898 41.3656 21.3031C41.1933 22.1513 41.1933 22.9995 41.4451 23.861C42.1078 26.2334 41.7499 28.3672 39.8414 30.0769C39.3113 30.554 38.7812 31.0311 38.1715 31.3889C37.4293 31.8131 37.204 32.436 37.3763 33.1782C37.5089 33.7878 37.2835 33.9734 36.7667 34.1589C35.2028 34.7553 33.6389 35.4047 32.0882 36.0409C31.7304 36.1867 31.4388 36.1734 31.0677 35.9614C30.2062 35.4445 29.2917 35.0204 28.258 34.4902C30.4183 33.8938 32.5521 34.1191 34.5003 33.3504C34.5003 33.2842 34.5003 33.2047 34.5003 33.1384C34.0762 33.1384 33.6389 33.0589 33.2413 33.1251C30.4846 33.6553 27.9134 33.2577 25.5278 31.76C24.3747 31.0444 23.3144 30.1961 22.5457 29.0696C22.2542 28.6587 22.0024 28.1419 21.9493 27.6515C21.8036 26.4719 21.6445 25.2924 22.1216 24.0996C22.4662 23.2514 22.3204 22.3501 22.1216 21.4622C21.8433 20.2296 21.565 18.997 21.4457 17.7512C21.2999 16.2536 21.6975 14.862 22.7976 13.7752C23.6723 12.9137 24.6133 12.1185 25.5543 11.3366C25.8326 11.1113 26.2302 11.0185 26.5748 10.8727C26.6145 10.9257 26.6543 10.9787 26.6808 11.0317C26.429 11.3631 26.1639 11.6944 25.9254 12.0257C25.5808 12.5161 25.6073 12.6619 26.1772 12.9005C26.535 13.0462 26.9459 13.139 27.317 13.1523C28.364 13.1655 29.411 13.139 30.458 13.0728C31.0014 13.033 31.5316 12.8872 32.0617 12.7812C31.7569 13.6824 32.0484 14.0403 33.0292 13.8812C35.0437 13.5631 36.6739 12.6752 37.6812 10.8197C37.8534 10.5016 37.986 10.4221 38.3041 10.6606C39.4438 11.5221 40.4511 12.4764 41.074 13.7884C41.1403 13.8945 41.1933 14.0137 41.2728 14.1065ZM37.3233 17.8705C37.9064 17.897 38.1053 17.6849 37.9595 17.3271C37.6811 16.6644 36.1437 16.3066 35.6004 16.7705C35.3088 17.0355 35.3353 17.3536 35.7064 17.4729C36.2763 17.6452 36.8462 17.7512 37.3233 17.8705ZM36.3823 21.8332C36.7534 21.7935 37.0185 21.3826 37.0052 20.826C36.9655 20.4681 36.8462 20.1368 36.3691 20.1236C35.9715 20.1103 35.6269 20.5212 35.6269 21.0115C35.6269 21.5152 35.9449 21.873 36.3823 21.8332ZM34.2087 27.5057C34.222 27.1081 33.9702 26.9888 33.6123 26.9888C32.6846 26.9888 31.7701 26.9756 30.8424 26.9888C30.6966 26.9888 30.5376 27.0418 30.4183 27.1346C30.2592 27.2539 30.1532 27.4129 30.0207 27.5587C30.1797 27.6647 30.3388 27.8635 30.4978 27.8768C31.134 27.9166 31.7701 27.8901 32.4063 27.8901V27.9033C32.8039 27.9033 33.2015 27.9166 33.5991 27.9033C33.8509 27.8635 34.1955 27.9166 34.2087 27.5057ZM31.8894 21.1838C31.8231 20.7995 31.8496 20.5477 31.7436 20.3754C31.5978 20.1368 31.3725 19.9645 31.1737 19.7525C31.0677 19.9778 30.8689 20.2163 30.8821 20.4416C30.9087 21.0115 30.6436 21.3959 30.352 21.8598C29.7424 22.8538 29.7556 23.5297 30.7496 24.1128C30.9352 24.2189 31.2532 24.1261 31.5051 24.1261C31.4653 23.9008 31.4785 23.6225 31.3593 23.4767C30.9484 22.9995 31.0412 22.6417 31.4123 22.1778C31.6774 21.873 31.7834 21.4356 31.8894 21.1838ZM28.2447 17.3934C28.2182 17.2741 28.2182 17.1946 28.1917 17.1681C27.6748 16.7572 27.0652 16.7439 26.4555 16.8367C25.9386 16.9162 25.4217 17.4331 25.3687 17.8307C25.329 18.1886 25.5543 18.2681 25.8193 18.2018C26.5218 18.0295 27.2242 17.844 27.9266 17.6452C28.0592 17.5922 28.1519 17.4596 28.2447 17.3934ZM27.0917 21.8332C27.529 21.873 27.8471 21.5284 27.8339 20.9983C27.8206 20.5079 27.4893 20.1103 27.0917 20.1103C26.6146 20.1236 26.4953 20.4549 26.4555 20.8127C26.4423 21.3826 26.7206 21.7935 27.0917 21.8332Z" fill="white"/>
<path d="M39.7212 36.1091C40.1984 36.785 40.0393 37.4742 39.1381 38.2561C37.9851 39.2501 36.7525 40.1514 35.5994 41.1586C35.2548 41.4635 35.0561 41.3442 34.8307 41.1454C34.6585 40.9863 34.5392 40.7478 34.4199 40.549C33.7174 39.3694 33.0283 38.1899 32.2861 36.9175C34.1151 36.2019 35.9308 35.4862 37.7465 34.7837C37.9055 34.7307 38.1573 34.6777 38.2634 34.7705C38.767 35.1813 39.3369 35.5789 39.7212 36.1091Z" fill="white"/>
<path d="M37.956 17.3276C38.115 17.6855 37.903 17.8975 37.3198 17.871C36.8427 17.7517 36.2596 17.6457 35.7162 17.4734C35.3451 17.3541 35.3053 17.0361 35.6101 16.771C36.1403 16.2939 37.6777 16.665 37.956 17.3276Z" fill="#A8A29E"/>
<path d="M37.0038 20.8135C37.0171 21.3834 36.752 21.7943 36.3809 21.8208C35.9436 21.8605 35.6255 21.516 35.6387 20.9858C35.652 20.4954 35.9833 20.0978 36.3809 20.0978C36.858 20.1376 36.9773 20.4689 37.0038 20.8135Z" fill="#A8A29E"/>
<path d="M34.9769 66.4701C34.9637 66.4833 34.9637 66.4966 34.9504 66.5098C34.9372 66.4966 34.9239 66.4833 34.9239 66.4701H34.9769Z" fill="#A8A29E"/>
<path d="M34.9223 66.4703H25.6051V66.404C25.7244 66.2848 25.8835 66.1787 25.963 66.033C26.0425 65.9004 26.0425 65.7414 26.069 65.5823C26.1883 64.363 26.281 64.204 26.4003 62.9847C26.6256 60.9171 26.8112 58.8364 27.1028 56.7821C27.4474 54.2772 27.8715 51.7856 28.2956 49.2939C28.5606 47.73 28.9052 46.1794 29.1968 44.6155C29.2498 44.3504 29.2763 44.1516 29.6342 44.1648C30.3631 44.2179 31.1053 44.2576 31.8342 44.2576C32.2716 44.2709 32.5234 44.4034 32.5764 44.8673C32.7487 46.5107 32.9608 48.1409 33.1331 49.771C33.2789 51.2687 33.3849 52.753 33.5174 54.2507C33.6897 56.2254 33.8753 58.2002 34.0476 60.1749C34.2066 61.9244 34.3524 63.6606 34.5114 65.3968C34.5247 65.6088 34.5644 65.8342 34.644 66.0197C34.697 66.2052 34.8162 66.3378 34.9223 66.4703Z" fill="#D6D3D1"/>
<path d="M33.6143 26.9878C33.9721 26.9878 34.224 27.1204 34.2107 27.5047C34.1974 27.9156 33.8529 27.8626 33.5878 27.8758C33.1902 27.9023 32.7926 27.8758 32.395 27.8758V27.8626C31.7588 27.8626 31.1227 27.8891 30.4865 27.8493C30.3275 27.8361 30.1684 27.6505 30.0094 27.5312C30.1419 27.3854 30.2612 27.2131 30.407 27.1071C30.5263 27.0276 30.6853 26.9613 30.8311 26.9613C31.7588 26.9746 32.6866 26.9878 33.6143 26.9878Z" fill="#A8A29E"/>
<path d="M33.7714 41.3942C33.8376 41.8183 32.7111 43.2364 32.2737 43.2497C31.8496 43.2629 31.4122 43.2497 30.9749 43.2497C29.6495 43.5678 28.9471 43.0111 28.5628 41.7256C28.3905 41.1291 28.3375 40.7448 28.8146 40.3207C29.1724 40.0026 29.4507 39.5918 29.7688 39.2339C30.5508 38.3327 32.0086 38.3857 32.6846 39.3797C33.0822 39.9496 33.3472 40.6123 33.6653 41.2352C33.7183 41.2749 33.7581 41.3279 33.7714 41.3942Z" fill="#D6D3D1"/>
<path d="M31.7429 20.3758C31.8489 20.5481 31.8224 20.7867 31.8886 21.1843C31.7826 21.4361 31.6766 21.8734 31.4115 22.1915C31.0404 22.6421 30.9477 23.0132 31.3585 23.4904C31.491 23.6361 31.4645 23.9277 31.5043 24.1398C31.2525 24.1398 30.9344 24.2325 30.7489 24.1265C29.7549 23.5434 29.7416 22.8542 30.3513 21.8734C30.6428 21.4096 30.8946 21.0252 30.8814 20.4553C30.8681 20.23 31.0669 20.0047 31.173 19.7661C31.3718 19.9649 31.6103 20.1372 31.7429 20.3758Z" fill="#A8A29E"/>
<path d="M29.305 36.0815C30.6833 36.7839 30.7231 36.7309 29.6761 37.8707C28.8941 38.7322 28.1254 39.6069 27.3037 40.4418C27.0519 40.7069 26.6543 40.8262 26.2567 41.0382C26.0181 40.8527 25.7796 40.7334 25.6205 40.5346C24.9843 39.7527 24.4409 38.9045 23.7518 38.1623C23.2614 37.6189 22.9698 37.0092 22.718 36.3465C22.5987 36.0285 22.5855 35.7767 22.8638 35.5381C23.5397 34.9682 24.1891 34.3585 24.8916 33.8151C25.0109 33.7224 25.3422 33.8019 25.5145 33.8947C26.7736 34.6236 28.0061 35.4188 29.305 36.0815Z" fill="white"/>
<path d="M27.5368 41.9109C27.8151 42.7724 28.5838 43.4881 28.1994 44.5616C27.9344 45.3038 27.8548 46.1123 27.7223 46.8942C27.4042 48.8557 27.1259 50.8172 26.7813 52.7655C26.0789 56.715 25.3897 59.591 25.3102 63.6068C25.2969 64.402 25.3234 65.1839 25.3499 65.9791C25.3499 66.1249 25.509 66.2707 25.5885 66.4032V66.4695H1.01667C1.02992 66.4032 1.04318 66.3237 1.05643 66.2309C1.06969 66.1647 1.05643 66.1116 1.06969 66.0454C1.18897 63.5537 1.28174 61.0754 1.45404 58.5837C1.54681 57.2054 1.6661 55.827 1.95767 54.4752C2.67336 51.1486 3.87942 47.9943 5.40356 44.9327C6.75541 42.2158 8.88919 40.347 11.5531 39.088C13.8592 38.0012 16.3376 37.3783 18.8293 36.8747C19.5714 36.7289 20.3667 36.8084 21.1089 36.6228C21.639 36.4903 21.851 36.7156 22.0763 37.0602C22.8848 38.2795 23.7065 39.5121 24.515 40.7314C25.1246 41.6591 25.9066 42.1893 27.0729 41.8314C27.2187 41.8049 27.5235 41.8447 27.5368 41.9109ZM11.0893 65.396C11.0362 65.0514 10.9965 64.8393 10.97 64.6273C10.7579 63.3284 10.5459 62.0429 10.3206 60.744C9.8302 57.762 9.33981 54.78 8.83618 51.8112C8.67714 50.857 8.4651 49.9027 8.25304 48.9618C8.21328 48.7895 7.98796 48.6702 7.84217 48.5376C7.76265 48.7099 7.61687 48.8955 7.63012 49.0545C7.78916 50.6714 7.93495 52.2884 8.17351 53.892C8.55786 56.3969 8.99522 58.9018 9.43258 61.3934C9.65789 62.7188 9.92296 64.0309 10.1615 65.343C10.2145 65.661 10.3073 66.0189 10.7049 65.9128C10.9037 65.8598 11.0097 65.5285 11.0893 65.396Z" fill="white"/>
<path d="M28.1932 17.1557C28.233 17.1822 28.2197 17.2617 28.2462 17.381C28.1535 17.4472 28.0607 17.5798 27.9281 17.6195C27.2257 17.8183 26.5233 18.0039 25.8209 18.1762C25.5558 18.2424 25.3305 18.1629 25.3702 17.8051C25.41 17.4075 25.9401 16.8906 26.457 16.8111C27.0667 16.7315 27.6763 16.7581 28.1932 17.1557Z" fill="#A8A29E"/>
<path d="M27.8304 20.9984C27.8304 21.5153 27.5255 21.8731 27.0882 21.8334C26.7171 21.7936 26.452 21.3827 26.4652 20.8261C26.505 20.4683 26.6243 20.1369 27.1014 20.1237C27.4858 20.1104 27.8304 20.508 27.8304 20.9984Z" fill="#A8A29E"/>
<path d="M20.779 20.6548C21.2032 21.6753 21.2827 21.6488 21.3887 22.5766C21.1766 23.4911 20.9381 24.4188 20.7658 25.3333C20.673 25.7972 20.3814 25.9164 20.0501 25.7972C19.5465 25.6116 19.0163 25.3863 18.632 25.0417C17.4259 23.9814 17.2006 21.8741 18.0223 20.5621C18.7645 19.3958 20.2887 19.4355 20.779 20.6548Z" fill="white"/>
<path d="M10.978 64.6287C11.0178 64.8407 11.0442 65.0528 11.0973 65.3974C11.0045 65.5299 10.8985 65.8612 10.7262 65.9142C10.3286 66.0203 10.2358 65.6492 10.1828 65.3443C9.93097 64.0323 9.67916 62.7069 9.45385 61.3948C9.01649 58.9032 8.57912 56.3983 8.19477 53.8934C7.95621 52.2897 7.81041 50.6728 7.65137 49.0559C7.63812 48.8836 7.78392 48.7113 7.86344 48.539C8.00923 48.6848 8.23453 48.8041 8.27429 48.9631C8.4996 49.9041 8.6984 50.8584 8.85744 51.8126C9.36107 54.7946 9.85144 57.7634 10.3418 60.7454C10.5539 62.031 10.7659 63.3298 10.978 64.6287Z" fill="#A8A29E"/>
<path d="M0.238568 66.4706H1.03377C0.901238 67.0139 0.58315 67.0802 0 66.7091C0 65.1055 0 63.5018 0 61.8981C0.0397602 61.8054 0.106024 61.7126 0.145784 61.6066L0.238568 61.6596V66.4706Z" fill="#A8A29E"/>
</svg>
