<svg width="48" height="48" viewBox="0 0 48 48" fill="none" xmlns="http://www.w3.org/2000/svg">
<g clip-path="url(#clip0_24415_31336)">
<rect width="48" height="48" rx="24" fill="white"/>
<path d="M45.8333 52.8612L45.5346 52.923C45.4728 52.5317 45.4213 52.1403 45.411 52.0888C45.2977 51.6253 45.1844 51.1618 45.1123 50.688C44.587 47.3304 43.9587 43.9933 42.9906 40.7181C42.5168 39.1217 41.6413 37.7724 40.4466 36.6498C39.2621 35.5374 38.0262 34.4869 36.7285 33.5187C35.5852 32.6639 34.2978 32.0459 32.8146 31.7266C33.1545 32.1798 33.4326 32.6948 33.8446 33.0552C34.8745 33.9719 35.5234 35.146 36.2238 36.2893C36.6976 37.0515 36.8315 37.9166 36.6667 38.7715C36.5843 39.1835 36.265 39.5645 36.0178 39.9353C35.7191 40.3885 35.3689 40.8211 35.0599 41.2743C34.8539 41.573 34.823 41.8098 35.2247 42.0261C35.5337 42.1909 35.7912 42.4587 36.059 42.6956C36.5431 43.1179 36.6976 43.6741 36.6667 44.3023C36.5122 47.0317 35.853 49.6581 34.9466 52.233C34.7715 52.7479 34.5553 53.2423 34.3287 53.7367H33.515C33.5974 53.3659 33.7519 53.0157 33.9167 52.6656C34.6686 51.1412 35.1114 49.5139 35.4101 47.8557C35.6264 46.6918 35.7088 45.4971 35.8839 44.3229C35.9766 43.6741 35.6573 43.2827 35.1938 42.9325C34.8848 42.7059 34.5759 42.4896 34.2669 42.263C33.824 41.9231 33.7828 41.748 34.0918 41.3258C34.5656 40.6666 35.029 40.0074 35.5337 39.3792C36.2547 38.4831 36.0281 37.5973 35.5543 36.7219C34.8848 35.4962 34.1433 34.3221 33.1133 33.3333C32.4644 32.7154 31.9907 31.912 31.4345 31.2013C31.3315 31.0777 31.2388 30.9438 31.1461 30.8099C31.0946 30.8408 31.0328 30.8614 30.9813 30.8923C30.9813 31.2528 30.9298 31.6339 30.9916 31.9841C31.4448 34.662 31.4139 37.3604 31.4345 40.0589C31.4551 41.851 31.4654 43.6535 31.3624 45.4353C31.2182 48.175 30.9916 50.9043 30.7856 53.6337C30.7856 53.6646 30.7856 53.6955 30.7753 53.7264H30.1368C30.1368 53.6749 30.1471 53.6131 30.1471 53.5616C30.25 51.9652 30.3736 50.3688 30.456 48.7826C30.5281 47.3407 30.5693 45.8885 30.6105 44.4362C30.6414 43.3857 30.6929 42.3454 30.6929 41.3052C30.6929 39.3895 30.7032 37.484 30.6311 35.5683C30.5796 34.0749 30.3839 32.5815 30.3015 31.088C30.2706 30.5834 29.9308 30.5628 29.6115 30.4392C29.3128 30.3156 29.045 30.2023 28.8184 30.5937C28.6124 30.9335 28.2725 31.1292 27.8606 31.1189C27.7473 31.1189 27.6134 31.0159 27.5413 30.9129C27.5104 30.8717 27.6031 30.707 27.6752 30.6349C27.7782 30.5319 27.9224 30.4907 28.0253 30.3877C28.4991 29.9448 28.6742 29.162 28.5094 28.4617L28.736 28.4102L29.045 29.8624L30.3118 30.089L31.6302 30.3259C31.6302 30.3259 32.1864 30.2538 32.8352 30.1199C32.9279 30.295 32.8249 30.4701 32.5159 30.6864C33.5356 31.1189 34.648 31.4897 35.6573 32.0253C38.4897 33.5393 40.8586 35.6095 42.6919 38.2565C43.5056 39.4204 43.8763 40.8005 44.1544 42.1703C44.7209 44.8791 45.205 47.5982 45.6891 50.3173C45.7921 50.8734 46.0804 53.1702 46.0804 53.7367C46.0804 53.7882 46.0186 53.7779 45.9363 53.7573H45.998L45.8333 52.8612Z" fill="#A8A29E"/>
<path d="M45.7001 53.7249H38.9848C38.9951 53.7146 39.0157 53.7043 39.026 53.6837C39.1084 53.6116 39.1393 53.4778 39.1702 53.3645C39.304 52.8392 39.4379 52.3139 39.5409 51.7783C39.819 50.3364 40.2516 48.9151 40.1589 47.3598C40.2722 46.0621 39.8808 44.7849 39.4894 43.5181C39.3967 43.2194 39.2937 42.931 39.1599 42.6632C39.1187 42.5705 38.9333 42.55 38.82 42.4985C38.7891 42.6014 38.7273 42.7044 38.7376 42.8074C38.7994 43.3018 38.82 43.8065 38.9642 44.2803C39.5821 46.2372 39.4791 48.2044 39.0775 50.1716C38.8612 51.2634 38.6037 52.3551 38.3874 53.4469C38.3668 53.5292 38.3977 53.6322 38.4389 53.7249H34.35C34.5869 53.2306 34.7928 52.7259 34.9679 52.2212C35.864 49.6463 36.5232 47.0302 36.688 44.2906C36.7292 43.6623 36.5644 43.1061 36.0803 42.6838C35.8125 42.447 35.555 42.1792 35.246 42.0144C34.8443 41.7981 34.8752 41.5612 35.0812 41.2625C35.3902 40.8093 35.7404 40.387 36.0391 39.9236C36.2863 39.5528 36.6056 39.1717 36.688 38.7597C36.8528 37.9049 36.7086 37.0397 36.2451 36.2775C35.5447 35.1343 34.8958 33.9601 33.8659 33.0435C33.4539 32.683 33.1758 32.1577 32.8359 31.7148C34.3191 32.0444 35.6065 32.6521 36.7498 33.507C38.0475 34.4751 39.2834 35.536 40.4679 36.638C41.6626 37.7607 42.5381 39.1099 43.0119 40.7063C43.98 43.9713 44.598 47.3083 45.1336 50.6763C45.2057 51.1501 45.319 51.6135 45.4323 52.077C45.4426 52.1182 45.4941 52.5199 45.5559 52.9113C45.5971 53.2924 45.6589 53.6631 45.7001 53.7249Z" fill="#F5F5F4"/>
<path d="M39.4914 43.5294C39.8828 44.7963 40.2845 46.0734 40.1609 47.3711C40.2536 48.9264 39.821 50.3477 39.5429 51.7896C39.4399 52.3252 39.2957 52.8505 39.1721 53.3758C39.1412 53.4891 39.1103 53.623 39.0279 53.6951C39.0176 53.7054 38.997 53.7157 38.9867 53.7363H38.4409C38.3997 53.6333 38.3688 53.5406 38.3894 53.4582C38.5954 52.3664 38.8631 51.2747 39.0794 50.1829C39.4708 48.2054 39.5841 46.2485 38.9661 44.2916C38.822 43.8281 38.8014 43.3131 38.7396 42.8188C38.7293 42.7261 38.791 42.6128 38.8219 42.5098C38.9352 42.5613 39.1206 42.5819 39.1618 42.6746C39.2957 42.9423 39.3987 43.2307 39.4914 43.5294Z" fill="#A8A29E"/>
<path d="M2.06198 53.7254C2.01048 53.54 1.92808 53.128 1.93838 53.0662C2.06198 51.717 2.16497 49.3584 2.41216 48.0297C2.61815 46.8659 2.85504 45.7123 3.10223 44.5691C3.34942 43.4155 3.60691 42.262 3.87469 41.1188C4.35877 38.9868 5.55352 37.277 7.10875 35.7733C8.93177 34.0121 10.8784 32.426 13.237 31.4269C14.0094 31.0973 14.8643 30.9737 15.678 30.7471C15.8531 30.6956 16.0796 30.6647 16.162 30.5411C16.3989 30.2116 16.6873 29.985 17.0581 29.882C18.5824 29.8202 18.5 29.9335 18.5 29.9335L18.9017 29.5627L19.2622 29.2434L19.5918 28.3473L19.8184 27.7809L19.6433 27.1732C19.6433 27.1732 17.4392 25.8034 16.9036 25.0103C16.8418 24.9176 16.8006 24.8249 16.7903 24.7528C16.7182 24.0627 15.7192 22.2809 15.7192 22.2809L15.2351 22.2294C15.2351 22.2294 14.6995 24.5674 14.2669 25.824C14.1124 26.2771 13.9682 26.5861 13.8652 26.5964C13.8652 26.5964 13.7932 27.8221 14.2463 28.7902C14.1948 28.749 14.1433 28.7078 14.1021 28.6666C13.3606 27.7397 13.1134 26.72 13.5975 25.5974C13.8446 25.0103 14.1742 24.4541 14.4523 23.8773C14.545 23.6919 14.6068 23.486 14.6377 23.28C14.7098 22.7753 14.6068 22.4148 14.0403 22.1882C12.619 21.6114 12.0216 19.6442 12.4851 18.5937C12.6087 18.3156 12.7323 18.0066 12.9486 17.8006C13.2164 17.5534 13.2061 17.3268 13.0825 17.0385C12.5572 15.7922 12.2894 14.4739 12.3718 13.1246C12.5778 10.0451 13.8549 7.59379 16.6461 6.06946C16.8315 5.96646 17.0272 5.88407 17.2332 5.81197C18.6854 5.2249 20.1068 4.50393 21.6105 4.10225C23.9588 3.47398 26.3071 3.72117 28.6142 4.56573C30.5299 5.2661 32.1778 6.29605 33.5374 7.77918C34.9381 9.31381 35.7518 11.1059 35.8033 13.207C35.8342 14.2782 35.4531 15.2669 35.0823 16.2454C34.969 16.5338 34.8763 16.8325 34.7733 17.1209C34.6188 17.5637 34.5982 17.9551 34.8145 18.4186C35.3398 19.5927 34.8454 21.1789 33.7846 21.9101C33.4756 22.1161 33.4035 22.3221 33.5889 22.5899C33.8052 22.9195 34.0729 23.2182 34.3407 23.5066C34.9072 24.1142 35.5149 24.6807 36.0505 25.3193C36.4212 25.7622 36.5757 26.3389 36.5551 26.926C36.5551 26.9672 36.5448 27.029 36.5242 27.0805C36.5139 26.926 36.4727 26.7612 36.4006 26.5758C35.7621 25.0515 34.0009 23.8361 33.7846 23.5993C33.5683 23.3521 32.9297 22.1367 32.9297 22.1367L32.0027 22.3427L31.5702 22.4354C31.5702 22.4354 30.7874 25.0515 29.3249 26.3286C29.0571 26.5655 28.7584 26.7509 28.4391 26.8745L28.7687 28.44L28.5421 28.4915C28.4906 28.2752 28.4082 28.059 28.2949 27.8736C28.0786 27.5234 27.9241 27.8324 27.8108 27.9457C27.5121 28.234 27.2959 28.6151 26.9663 28.852C25.4934 29.9129 22.6302 29.9335 20.9822 28.852C20.8689 28.7799 20.7762 28.6563 20.6732 28.5636C20.5599 28.4606 20.3746 28.2649 20.3437 28.2855C20.148 28.4297 19.8802 28.5945 19.8184 28.8108C19.4991 29.8099 19.6639 30.2939 20.5393 30.8707C21.044 31.2003 21.6208 31.4372 22.177 31.7256C22.0843 32.0655 21.765 32.1273 21.4251 32.0346C20.4673 31.7771 19.5506 31.4475 19.0768 30.4587C18.9635 30.2116 18.8296 30.2013 18.5721 30.3042C17.5216 30.7162 17.5525 30.6956 17.4804 31.8389C17.4083 33.0954 17.192 34.3417 17.1508 35.5982C17.0787 37.4624 17.0684 39.3266 17.089 41.1908C17.1096 43.3744 17.1405 45.5682 17.2229 47.7517C17.295 49.4202 17.4598 51.0784 17.5834 52.7469C17.604 53.0559 17.6143 53.3649 17.6349 53.6739C17.6349 53.7048 17.6349 53.7357 17.6349 53.7769H16.9551C16.9551 53.746 16.9448 53.7151 16.9448 53.6842C16.8933 53.1898 16.8315 52.6851 16.8006 52.1907C16.677 50.2338 16.5122 48.2872 16.471 46.3303C16.3886 42.777 16.3474 39.2133 16.368 35.6497C16.368 34.5374 16.5946 33.425 16.7079 32.3024C16.7491 31.8595 16.7697 31.4063 16.8109 30.8192C16.574 30.9943 16.4298 31.0561 16.3371 31.1694C15.3793 32.2921 14.3699 33.3838 13.5151 34.5786C12.8559 35.4952 12.3718 36.5355 11.8671 37.5448C11.5685 38.1525 11.7126 38.7396 12.1246 39.2854C12.6293 39.9446 13.1031 40.6347 13.5872 41.3041C13.9579 41.8088 13.9373 41.9324 13.4018 42.3341C13.2473 42.4474 13.1134 42.6122 12.9486 42.6843C11.8156 43.1993 11.7332 44.1674 11.8671 45.218C12.1349 47.3912 12.5778 49.5335 13.3297 51.5934C13.5666 52.2422 13.8549 52.8705 14.1124 53.4988C14.1433 53.5915 14.2051 53.6842 14.2257 53.7666H13.4224C12.9177 52.3658 12.3512 50.9754 11.9392 49.5438C11.4243 47.8031 11.1359 46.011 11.0535 44.1983C11.0226 43.4773 11.3934 42.9521 11.9083 42.4783C12.207 42.2002 12.8353 42.1487 12.7838 41.6543C12.7426 41.2938 12.3924 40.9643 12.1658 40.6244C12.0319 40.4287 11.9083 40.2124 11.7435 40.0476C10.8784 39.1515 10.7548 38.0495 11.2183 36.9989C11.7229 35.8866 12.4336 34.8772 13.134 33.8679C13.546 33.2705 14.1124 32.7864 14.5965 32.2303C14.7201 32.0861 14.8025 31.9213 14.9467 31.6844C13.8961 31.8801 13.0516 32.3539 12.207 32.8173C10.2192 33.8988 8.55069 35.4025 6.98516 36.9989C5.71831 38.2967 4.88405 39.8519 4.50297 41.6543C4.17338 43.2096 3.7202 44.7442 3.40092 46.2994C3.01983 48.1224 2.73145 49.9557 2.39156 51.7788C2.36066 51.923 2.46366 53.6224 2.40186 53.746C2.39156 53.7563 2.39156 53.7666 2.37096 53.7769L2.06198 53.7254ZM34.7836 14.8653C35.2368 13.2379 35.072 11.6724 34.3407 10.1996C33.0121 7.52169 30.7359 5.94586 27.9756 5.00861C26.1217 4.38034 24.1957 4.25674 22.2491 4.56573C21.1985 4.73052 20.2098 5.00861 19.3652 5.69867C19.118 5.89437 18.7987 6.05916 18.4897 6.12096C15.9561 6.63593 14.4832 8.30446 13.6078 10.591C12.9074 12.4037 13.1752 14.2473 13.5769 16.0806C13.649 16.3999 13.7005 16.7707 13.8858 17.0076C13.9785 17.1209 14.3699 16.987 14.6274 16.9973C14.8643 17.0076 15.2145 17.1518 15.2969 17.0488C15.4411 16.884 15.4205 16.5647 15.4617 16.3175C15.472 16.2454 15.4617 16.1733 15.472 16.1012C15.6986 14.6593 16.0796 13.2997 17.3568 12.3831C17.5216 12.2698 17.604 12.0535 17.7379 11.8887C17.8306 11.7754 17.9439 11.6724 18.0366 11.5591C18.1087 11.693 18.2323 11.8166 18.2632 11.9505C18.6648 13.7117 19.6227 15.0609 21.1882 15.9879C21.7444 16.3175 22.3624 16.6677 22.5169 17.3886C22.6096 17.8624 22.8567 18.0169 23.3099 17.9551C23.4747 17.9345 23.6498 17.9345 23.8146 17.9448C24.0618 17.9654 24.1957 17.9036 24.2884 17.6358C24.5356 16.8943 24.9888 16.3175 25.7406 16.1527C24.9579 15.7819 24.1339 15.4729 23.4026 15.0197C22.6817 14.5666 22.0637 13.9486 21.9607 13.0113C22.1564 13.0834 22.28 13.207 22.4139 13.3306C22.7744 13.6705 23.1348 14.0207 23.5159 14.3503C24.206 14.9374 25.0711 15.1433 25.9157 15.4008C26.1629 15.4729 26.5131 15.5244 26.6264 15.7098C26.956 16.2351 27.4194 16.1939 27.9344 16.2145C28.779 16.2351 29.5515 16.472 30.0046 17.2547C30.1591 17.5225 30.3548 17.574 30.5917 17.5122C31.0346 17.3989 30.8286 16.8531 31.1273 16.6162C31.1685 16.575 31.0758 16.3072 30.9831 16.1939C30.9316 16.1218 30.7668 16.1321 30.6535 16.1218C30.4372 16.1012 30.2209 16.1012 30.0149 16.06C28.2846 15.7201 26.7088 15.0403 25.3492 13.9177C25.1123 13.722 24.9064 13.4748 24.6901 13.2482C24.7313 13.1967 24.7622 13.1555 24.8034 13.1143C25.6788 13.5675 26.544 14.0722 27.4503 14.4636C28.367 14.8653 29.3249 15.1948 30.4681 15.3699C30.2312 14.9888 30.0973 14.7211 29.9016 14.4842C29.3661 13.8147 28.7996 13.1658 28.264 12.4964C28.1095 12.3007 27.8005 12.1462 27.9859 11.7239C29.3764 12.7333 30.4681 13.9589 31.4157 15.3287C31.5084 15.0506 31.5187 14.8138 31.5702 14.5872C31.632 14.3091 31.7144 14.031 31.7967 13.7632C31.9203 14.031 32.0439 14.2988 32.1572 14.5769C32.1778 14.6387 32.1675 14.7211 32.1675 14.7932C32.1469 15.545 32.1263 16.2969 32.1057 17.0385C32.5795 17.0591 33.1048 17.1003 33.6404 17.1003C33.764 17.1003 33.9288 16.9561 34.0112 16.8325C34.3716 16.2351 34.5879 15.5656 34.7836 14.8653ZM34.2583 19.5618C34.3201 18.3465 33.4653 17.5328 32.0748 17.7491C31.9615 17.7697 31.7864 17.8933 31.7659 17.9963C31.6629 18.4495 31.6114 18.913 31.5393 19.3661C31.6011 19.3867 31.6629 19.397 31.7247 19.4176C31.8997 19.1705 32.0336 18.8718 32.2602 18.707C32.4456 18.5834 32.7546 18.5937 32.9915 18.6246C33.1048 18.6349 33.1769 18.8512 33.2799 18.9748C33.1357 19.0675 33.0018 19.1808 32.8473 19.2529C32.4559 19.4588 32.4044 19.7575 32.734 20.0974C32.9503 20.324 33.1048 20.5815 32.9606 20.8596C32.8061 21.1583 32.5692 20.9626 32.3426 20.9008C32.2499 20.8699 32.0645 20.9523 32.0233 21.0347C31.9306 21.2201 31.9203 21.4261 31.8688 21.632C31.9924 21.6629 32.1263 21.7041 32.2499 21.7041C33.2181 21.6938 34.2068 20.6227 34.2583 19.5618ZM25.9466 27.1629C28.985 26.4934 31.5084 24.0936 30.9934 20.3343C30.911 19.7472 30.7359 19.1705 30.602 18.604C30.5814 18.5319 30.4887 18.4804 30.4372 18.4186C30.3754 18.4804 30.2827 18.5319 30.2621 18.604C30.2209 18.7379 30.2209 18.8821 30.2003 19.0263C30.1076 19.6236 29.8295 20.1489 29.3352 20.4476C28.1404 21.1995 26.8427 21.4981 25.4522 20.9935C25.0196 20.839 24.7416 20.53 24.618 20.0768C24.5356 19.7575 24.4635 19.4279 24.3708 19.1087C24.2575 18.7379 23.9485 18.6864 23.6292 18.6967C23.279 18.707 23.4026 18.9851 23.3614 19.1808C23.3408 19.2941 23.3305 19.4176 23.2893 19.5309C23.1657 19.8296 23.1966 20.0562 23.4747 20.2622C23.6292 20.3755 23.8352 20.6021 23.5777 20.7875C23.4541 20.8802 23.2069 20.8184 23.0215 20.7875C22.9391 20.7772 22.8361 20.7051 22.7847 20.633C22.5581 20.2622 22.3624 20.4476 22.1976 20.6742C21.9092 21.0759 21.4869 21.1686 21.044 21.2922C20.0965 21.5702 19.2519 21.2819 18.397 20.9832C17.4907 20.6639 16.9551 20.0253 16.8109 19.0572C16.7697 18.81 16.6976 18.5628 16.6358 18.3156C16.574 18.3156 16.5225 18.3259 16.4607 18.3259C16.4607 18.8203 16.4813 19.3043 16.4504 19.7987C16.4298 20.221 16.3371 20.6433 16.2959 21.0656C15.9561 24.1142 18.2838 26.5243 20.8998 27.1732C22.5787 27.5955 24.2781 27.5337 25.9466 27.1629ZM28.779 19.912C29.6132 19.4794 29.8501 18.4186 29.5823 17.6873C29.4588 17.3474 29.2631 17.1209 28.8717 17.0797C28.2125 17.0179 27.5533 16.884 26.8942 16.8428C26.4719 16.8222 26.0393 16.9046 25.617 16.9767C25.3286 17.0282 25.1329 17.1826 25.0402 17.5225C24.824 18.3053 24.9785 19.0366 25.2153 19.7678C25.3389 20.1592 25.6685 20.3034 26.029 20.3858C26.2865 20.4476 26.5543 20.4476 26.8118 20.4682C26.8221 20.5094 26.8427 20.5506 26.853 20.5815C27.5018 20.3755 28.1816 20.2313 28.779 19.912ZM26.9354 27.853C25.7406 28.059 24.6901 28.2237 23.6498 28.4194C23.5056 28.4503 23.382 28.5842 23.2481 28.6769C24.5562 28.8108 25.7818 28.8314 26.9354 27.853ZM22.1873 18.5319C22.2285 17.5122 22.0637 17.2753 21.0749 17.0591C20.7041 16.9767 20.3231 16.9355 19.942 16.9664C19.3446 17.0076 18.7472 17.1003 18.1499 17.2341C17.9542 17.2753 17.707 17.4401 17.6349 17.6152C17.1096 18.7791 17.501 19.8914 18.7472 20.2931C18.9532 20.3549 19.1489 20.4785 19.3549 20.5094C21.25 20.8287 22.0946 20.4476 22.1873 18.5319ZM18.1087 16.5956C18.7987 16.3896 19.53 16.2866 20.3334 16.1218C18.9429 15.3287 18.1911 14.0825 17.7276 12.5788C17.5113 12.898 17.3568 13.1349 17.192 13.3615C16.4401 14.4224 16.3268 15.6583 16.2135 16.8943C16.1826 17.2032 16.3577 17.3062 16.5946 17.3989C16.8315 17.4916 16.9448 17.4092 17.1302 17.2341C17.4083 16.9767 17.7482 16.7089 18.1087 16.5956ZM15.6265 19.4897C15.6883 19.4794 15.7398 19.4691 15.8016 19.4588C15.7398 18.9954 15.6883 18.5216 15.5956 18.0684C15.5647 17.9448 15.3896 17.7697 15.266 17.7594C14.6171 17.6873 13.9991 17.7388 13.4945 18.2641C12.9589 18.8203 12.9692 19.7987 13.2885 20.3961C13.7211 21.2304 14.5759 21.8071 15.2454 21.7144C15.3381 21.7041 15.4926 21.5908 15.4926 21.5599C15.4411 21.3643 15.369 21.1686 15.2866 20.9832C15.1733 20.736 15.0188 20.9317 14.8746 20.9626C14.7304 20.9832 14.5038 21.0038 14.4317 20.9214C14.3493 20.8184 14.3596 20.6124 14.3802 20.4579C14.4008 20.3549 14.4935 20.2622 14.5759 20.1695C14.9776 19.6957 14.9261 19.5206 14.3596 19.2426C14.2463 19.1911 14.0712 19.0469 14.0918 18.9851C14.133 18.8512 14.2463 18.6658 14.3596 18.6246C14.6789 18.5216 15.0188 18.4804 15.2351 18.8718C15.3278 19.0778 15.4823 19.2838 15.6265 19.4897Z" fill="#A8A29E"/>
<path d="M36.5025 27.0496C36.554 27.9765 35.4829 28.3576 35.143 28.8417C35.1018 28.8211 35.0606 28.8005 35.0194 28.7902C34.1748 28.5018 33.7114 27.8838 33.4745 27.0599C33.3921 26.7818 33.3406 26.4934 33.217 26.2462C33.1449 26.102 32.9492 26.0299 32.805 25.9269C32.7329 26.0814 32.599 26.2359 32.599 26.3904C32.6299 27.3586 32.9801 28.2031 33.6805 28.8726C34.0306 29.2125 34.4323 29.3876 34.8649 29.4082C34.4941 29.7069 33.5981 29.954 32.8359 30.1085C32.7741 29.9952 32.6196 29.8819 32.3827 29.748C31.6308 29.3464 30.9923 28.8314 30.7554 27.9559C30.7142 27.8014 30.6318 27.6366 30.5185 27.5234C30.4052 27.4101 30.2198 27.2556 30.1065 27.2865C29.8696 27.3483 29.8696 27.5337 29.9314 27.7911C30.1271 28.5636 30.4052 29.2743 30.9511 29.9128C30.7451 29.8922 30.5494 29.8613 30.3537 29.8304C30.0344 29.7687 29.7254 29.6863 29.4164 29.5936C29.3443 29.573 29.2825 29.4185 29.2619 29.3155C29.1384 28.6872 29.0766 28.0383 28.9015 27.4307C28.7779 26.9981 28.8603 26.7715 29.2208 26.5037C29.262 26.4728 29.3134 26.4419 29.3546 26.4007C30.1065 25.8342 30.7142 25.1236 31.0953 24.2481C31.3116 23.7743 31.5072 23.2902 31.672 22.7959C31.7441 22.5899 31.8574 22.4972 32.0016 22.4663C32.0943 22.4457 32.1973 22.4457 32.29 22.456C32.4754 22.4766 32.805 22.559 32.8153 22.6517C32.9801 23.558 33.732 23.97 34.3293 24.4953C35.1018 25.1751 35.658 25.9681 35.864 26.9878C35.9052 27.2041 35.9567 27.4719 36.2244 27.3895C36.348 27.3586 36.451 27.1938 36.5025 27.0496Z" fill="#F5F5F4"/>
<path d="M36.5048 27.0498C36.4533 27.2043 36.3503 27.3588 36.2576 27.3897C35.9795 27.4721 35.9383 27.2146 35.8971 26.988C35.6911 25.9683 35.135 25.1753 34.3625 24.4955C33.7651 23.9702 33.0236 23.5582 32.8485 22.6519C32.8279 22.5489 32.5086 22.4768 32.3232 22.4562C32.2202 22.4459 32.1172 22.4459 32.0348 22.4665L32.0039 22.3017L32.9309 22.0957C32.9309 22.0957 33.5694 23.311 33.7857 23.5582C34.002 23.8054 35.7632 25.0208 36.4018 26.5348C36.4533 26.7202 36.4945 26.8953 36.5048 27.0498Z" fill="#A8A29E"/>
<path d="M35.2051 42.9306C35.6686 43.2705 35.9878 43.6722 35.8951 44.321C35.7201 45.4952 35.6377 46.6796 35.4214 47.8538C35.1124 49.512 34.6695 51.1393 33.9279 52.6637C33.7631 53.0035 33.6086 53.364 33.5263 53.7348H30.7969C30.7969 53.7039 30.8072 53.673 30.8072 53.6421C31.0029 50.9127 31.2398 48.1731 31.384 45.4437C31.4766 43.6516 31.4663 41.8595 31.456 40.0673C31.4251 37.3689 31.4663 34.6704 31.0132 31.9925C30.9514 31.632 31.0029 31.2612 31.0029 30.9008C31.0544 30.8699 31.1162 30.8493 31.1677 30.8184C31.2604 30.9523 31.353 31.0758 31.456 31.2097C32.0122 31.9307 32.486 32.7238 33.1349 33.3417C34.1648 34.3305 34.9064 35.4943 35.5759 36.7303C36.0496 37.6058 36.2865 38.4915 35.5553 39.3876C35.0506 40.0158 34.5871 40.675 34.1133 41.3342C33.8043 41.7668 33.8352 41.9419 34.2884 42.2714C34.5871 42.4877 34.8961 42.704 35.2051 42.9306Z" fill="#F5F5F4"/>
<path d="M35.6191 29.141C35.5985 29.2028 35.5779 29.2646 35.5573 29.3264C35.3204 29.3882 35.0938 29.4191 34.8672 29.3985C34.9805 29.3058 35.032 29.2131 35.032 29.1204C35.032 29.0174 35.0732 28.9247 35.135 28.832C35.3101 28.9144 35.4646 29.038 35.6191 29.141Z" fill="#A8A29E"/>
<path d="M35.02 28.7793C35.0612 28.7896 35.1024 28.8102 35.1436 28.8308C35.0818 28.9235 35.0406 29.0162 35.0406 29.1192C35.0406 29.2222 34.9788 29.3149 34.8758 29.3973C34.4432 29.3664 34.0312 29.1913 33.6914 28.8617C33.0013 28.1922 32.6511 27.3374 32.6099 26.3795C32.5996 26.225 32.7438 26.0705 32.8159 25.916C32.9601 26.019 33.1558 26.0911 33.2279 26.2353C33.3515 26.4825 33.4133 26.7709 33.4854 27.049C33.7119 27.8729 34.1754 28.4909 35.02 28.7793Z" fill="#A8A29E"/>
<path d="M34.3379 10.2103C35.0691 11.6831 35.2339 13.2383 34.7808 14.876C34.5851 15.5763 34.3688 16.2458 33.9774 16.8432C33.895 16.9668 33.7302 17.111 33.6066 17.111C33.071 17.1213 32.5457 17.0698 32.072 17.0492C32.0926 16.3076 32.1132 15.5557 32.1338 14.8039C32.1338 14.7318 32.1441 14.6494 32.1235 14.5876C32.0102 14.3095 31.8866 14.0417 31.763 13.7739C31.6909 14.052 31.5982 14.3198 31.5364 14.5979C31.4849 14.8245 31.4849 15.0614 31.3819 15.3395C30.424 13.9696 29.3426 12.744 27.9522 11.7346C27.7771 12.1569 28.0757 12.3217 28.2302 12.5071C28.7761 13.1766 29.3323 13.8254 29.8679 14.4949C30.0636 14.7318 30.1975 15.0099 30.4343 15.3807C29.2911 15.2159 28.3332 14.876 27.4166 14.4743C26.5102 14.0829 25.6554 13.5782 24.7696 13.1251C24.7284 13.1663 24.6975 13.2178 24.6563 13.2589C24.8726 13.4855 25.0683 13.7327 25.3155 13.9284C26.6853 15.0511 28.2508 15.7308 29.9812 16.0707C30.1872 16.1119 30.4034 16.1016 30.6197 16.1325C30.733 16.1428 30.8978 16.1325 30.9493 16.2046C31.042 16.3282 31.1347 16.596 31.0935 16.6269C30.7948 16.8638 31.0008 17.4097 30.5579 17.523C30.321 17.5848 30.1151 17.5333 29.9709 17.2655C29.5177 16.4827 28.7452 16.2458 27.9007 16.2252C27.396 16.2149 26.9325 16.2458 26.5926 15.7205C26.4793 15.5351 26.1394 15.4836 25.8819 15.4115C25.0374 15.1644 24.1825 14.9481 23.4822 14.361C23.1011 14.0417 22.7509 13.6812 22.3801 13.3413C22.2462 13.2178 22.1226 13.0942 21.9269 13.0221C22.0299 13.9593 22.6479 14.5773 23.3689 15.0305C24.1001 15.4836 24.9241 15.7926 25.7069 16.1634C24.955 16.3282 24.5018 16.905 24.2546 17.6465C24.1619 17.9143 24.028 17.9761 23.7808 17.9555C23.616 17.9452 23.441 17.9349 23.2762 17.9658C22.823 18.0276 22.5861 17.8834 22.4831 17.3994C22.3389 16.6784 21.7106 16.3282 21.1545 15.9986C19.5889 15.0614 18.6311 13.7224 18.2294 11.9612C18.1985 11.817 18.0852 11.6934 18.0028 11.5698C17.8998 11.6728 17.7968 11.7861 17.7041 11.8994C17.5702 12.0642 17.4775 12.2805 17.323 12.3938C16.0459 13.3104 15.6648 14.67 15.4382 16.1119C15.4279 16.184 15.4382 16.2561 15.4279 16.3282C15.3867 16.5857 15.4073 16.8947 15.2631 17.0595C15.1807 17.1625 14.8305 17.0183 14.5937 17.008C14.3362 16.9977 13.9448 17.1316 13.8521 17.0183C13.6564 16.7711 13.6152 16.4106 13.5431 16.0913C13.1414 14.258 12.8736 12.4041 13.574 10.6017C14.4598 8.31517 15.9326 6.64665 18.456 6.13167C18.765 6.06988 19.0842 5.90508 19.3314 5.70939C20.176 5.01932 21.1751 4.74124 22.2153 4.57644C24.1619 4.26746 26.0776 4.39105 27.9419 5.01932C30.733 5.94628 33.0195 7.52211 34.3379 10.2103Z" fill="#F5F5F4"/>
<path d="M32.0824 17.7494C33.4729 17.5331 34.3277 18.357 34.266 19.5621C34.2145 20.6229 33.2154 21.6941 32.2575 21.7044C32.1339 21.7044 32.0001 21.6529 31.8765 21.6323C31.928 21.4366 31.9486 21.2203 32.031 21.0349C32.0721 20.9525 32.2575 20.8804 32.3502 20.901C32.5768 20.9628 32.8137 21.1585 32.9682 20.8598C33.1124 20.5714 32.9579 20.3139 32.7416 20.0976C32.412 19.7578 32.4635 19.4591 32.8549 19.2531C33.0094 19.1707 33.1433 19.0677 33.2875 18.975C33.1948 18.8514 33.1124 18.6351 32.9991 18.6248C32.7622 18.5939 32.4429 18.5836 32.2678 18.7072C32.031 18.872 31.9074 19.1707 31.7323 19.4179C31.6705 19.3973 31.6087 19.387 31.5469 19.3664C31.619 18.9132 31.6705 18.4497 31.7735 17.9965C31.7838 17.8935 31.9589 17.77 32.0824 17.7494Z" fill="white"/>
<path d="M32.3923 29.7376C32.6292 29.8715 32.7836 29.9848 32.8454 30.0981C32.1863 30.232 31.6404 30.3041 31.6404 30.3041L30.3221 30.0672L30.3633 29.8097C30.5589 29.8509 30.7546 29.8715 30.9606 29.8921C30.4148 29.2432 30.1367 28.5326 29.941 27.7704C29.8792 27.5026 29.8792 27.3275 30.1161 27.2657C30.2294 27.2348 30.425 27.3893 30.528 27.5026C30.6413 27.6159 30.7237 27.7807 30.7649 27.9352C31.0018 28.8313 31.6404 29.3359 32.3923 29.7376Z" fill="#A8A29E"/>
<path d="M31.9772 22.3008L32.0081 22.4656C31.864 22.4965 31.7507 22.5892 31.6786 22.7952C31.5138 23.2895 31.3181 23.7736 31.1018 24.2474C30.7104 25.1229 30.113 25.8335 29.3612 26.4L29.2891 26.297C30.7516 25.0199 31.5344 22.4038 31.5344 22.4038L31.9772 22.3008Z" fill="#A8A29E"/>
<path d="M30.992 20.3429C31.5069 24.1023 28.9835 26.502 25.9452 27.1715C24.2767 27.5423 22.5772 27.5938 20.9087 27.1818C18.2926 26.5226 15.9752 24.1229 16.3048 21.0742C16.346 20.6519 16.4387 20.2296 16.4593 19.8074C16.4902 19.313 16.4696 18.8289 16.4696 18.3345C16.5211 18.3345 16.5829 18.3242 16.6447 18.3242C16.7065 18.5714 16.7786 18.8083 16.8198 19.0658C16.964 20.0236 17.5099 20.6622 18.4059 20.9918C19.2608 21.3008 20.1053 21.5789 21.0529 21.3008C21.4958 21.1669 21.9181 21.0845 22.2064 20.6828C22.3712 20.4562 22.5669 20.2708 22.7935 20.6416C22.8347 20.7137 22.9377 20.7858 23.0304 20.7961C23.2158 20.827 23.463 20.8888 23.5866 20.7961C23.8441 20.6107 23.6381 20.3841 23.4836 20.2708C23.2055 20.0648 23.1746 19.8382 23.2982 19.5396C23.3394 19.4366 23.3497 19.313 23.3703 19.1894C23.4012 18.9937 23.2879 18.7156 23.6381 18.7053C23.9574 18.7053 24.2664 18.7568 24.3796 19.1173C24.4723 19.4366 24.5444 19.7662 24.6268 20.0854C24.7504 20.5283 25.0285 20.8476 25.4611 21.0021C26.8515 21.5068 28.139 21.2081 29.344 20.4562C29.8281 20.1472 30.1165 19.6323 30.2092 19.0349C30.2298 18.8907 30.2298 18.7465 30.271 18.6126C30.2916 18.5405 30.3843 18.489 30.4461 18.4272C30.5079 18.489 30.6006 18.5405 30.6109 18.6126C30.7345 19.1791 30.9096 19.7559 30.992 20.3429ZM24.6886 24.3597C24.8122 24.2979 24.8637 24.0714 24.9461 23.9169C24.8019 23.8551 24.6268 23.7212 24.5135 23.7624C23.9471 23.9478 23.4424 23.8036 22.9274 23.6079C22.7935 23.5564 22.5978 23.68 22.433 23.7212C22.5051 23.9066 22.536 24.1744 22.6699 24.2464C22.9892 24.4318 23.36 24.5142 23.6896 24.6378C24.0604 24.5451 24.3899 24.4936 24.6886 24.3597Z" fill="white"/>
<path d="M30.704 41.3044C30.704 42.3447 30.6525 43.3952 30.6216 44.4355C30.5701 45.8877 30.5392 47.3297 30.4671 48.7819C30.3847 50.3783 30.2611 51.9747 30.1581 53.5609C30.1581 53.6124 30.1478 53.6742 30.1478 53.7257H17.6132C17.6132 53.6948 17.6132 53.6639 17.6132 53.6227C17.5927 53.3137 17.5824 53.0047 17.5618 52.6957C17.4382 51.0272 17.2631 49.369 17.2013 47.7004C17.1086 45.5169 17.0777 43.3334 17.0674 41.1396C17.0571 39.2754 17.0571 37.4112 17.1292 35.547C17.1807 34.2905 17.3867 33.0442 17.4588 31.7877C17.5309 30.6547 17.5 30.665 18.5505 30.253C18.808 30.15 18.9419 30.1603 19.0552 30.4075C19.5187 31.3963 20.4456 31.7259 21.4035 31.9834C21.7434 32.0761 22.0627 32.0143 22.1553 31.6744C21.5992 31.386 21.0224 31.1491 20.5177 30.8195C19.6423 30.2427 19.4775 29.7484 19.7968 28.7596C19.8688 28.5433 20.1263 28.3888 20.322 28.2343C20.3426 28.2137 20.5383 28.4094 20.6516 28.5124C20.7546 28.6051 20.8473 28.7287 20.9606 28.8008C22.6085 29.872 25.4821 29.8617 26.9446 28.8008C27.2742 28.5639 27.4905 28.1828 27.7892 27.8944C27.9025 27.7811 28.0673 27.4722 28.2733 27.8223C28.3866 28.0077 28.469 28.224 28.5205 28.4403C28.6853 29.1407 28.5102 29.9234 28.0364 30.3663C27.9334 30.459 27.7892 30.5105 27.6862 30.6135C27.6141 30.6856 27.5214 30.8504 27.5523 30.8916C27.6141 30.9946 27.7583 31.0976 27.8716 31.0976C28.2836 31.1079 28.6235 30.9122 28.8294 30.5723C29.056 30.1809 29.3238 30.2942 29.6225 30.4178C29.9418 30.5517 30.2817 30.5723 30.3126 31.0667C30.395 32.5601 30.5907 34.0536 30.6422 35.547C30.704 37.473 30.704 39.3887 30.704 41.3044Z" fill="#E7E5E4"/>
<path d="M30.3568 29.8198L30.3156 30.0773L29.0487 29.8507L28.7397 28.3985L28.4102 26.833C28.7294 26.7094 29.0281 26.524 29.2959 26.2871L29.368 26.3901C29.3268 26.421 29.2753 26.4519 29.2341 26.4931C28.8736 26.7506 28.7912 26.9875 28.9148 27.4201C29.0899 28.038 29.1517 28.6766 29.2753 29.3049C29.2959 29.4079 29.3577 29.5624 29.4298 29.583C29.7285 29.6757 30.0375 29.7581 30.3568 29.8198Z" fill="#A8A29E"/>
<path d="M29.594 17.6876C29.8618 18.4292 29.6146 19.4797 28.7907 19.9123C28.1933 20.2213 27.5032 20.3655 26.8646 20.5818C26.8543 20.5406 26.8337 20.4994 26.8234 20.4685C26.566 20.4479 26.2982 20.4479 26.0407 20.3861C25.6905 20.3037 25.3609 20.1595 25.227 19.7681C24.9901 19.0369 24.8459 18.3056 25.0519 17.5228C25.1446 17.1829 25.3403 17.0284 25.6287 16.977C26.051 16.9049 26.4836 16.8225 26.9058 16.8431C27.565 16.874 28.2242 17.0078 28.8834 17.0799C29.2747 17.1211 29.4704 17.3477 29.594 17.6876ZM27.4826 19.49C27.8431 19.49 28.1212 19.1399 28.1212 18.697C28.1212 18.2335 27.9461 18.0172 27.5959 18.0069C27.2045 17.9966 26.947 18.2644 26.947 18.6867C26.947 19.0987 27.2148 19.49 27.4826 19.49Z" fill="white"/>
<path d="M28.1195 18.6962C28.1195 19.1391 27.8414 19.4893 27.4809 19.4893C27.2028 19.4893 26.9453 19.0979 26.9453 18.6859C26.9453 18.2636 27.2028 17.9958 27.5942 18.0061C27.9547 18.0164 28.1195 18.243 28.1195 18.6962Z" fill="#A8A29E"/>
<path d="M23.6492 28.4083C24.6894 28.2126 25.74 28.0478 26.9347 27.8418C25.7915 28.8203 24.5556 28.7997 23.2578 28.6658C23.3814 28.5834 23.505 28.4392 23.6492 28.4083Z" fill="white"/>
<path d="M24.9374 23.9185C24.8551 24.073 24.8036 24.2995 24.68 24.3613C24.3813 24.4952 24.0517 24.5467 23.6706 24.6497C23.341 24.5364 22.9702 24.4437 22.651 24.2583C22.5171 24.1862 22.4862 23.9082 22.4141 23.7331C22.5789 23.6919 22.7745 23.5683 22.9084 23.6198C23.4337 23.8155 23.9384 23.9597 24.4946 23.7743C24.6182 23.7228 24.7933 23.8567 24.9374 23.9185Z" fill="#A8A29E"/>
<path d="M21.0657 17.06C22.0545 17.2763 22.2193 17.5235 22.1781 18.5328C22.0854 20.4485 21.2408 20.8296 19.3457 20.5103C19.1397 20.4794 18.944 20.3558 18.738 20.294C17.4918 19.8821 17.1004 18.78 17.6257 17.6162C17.7081 17.4411 17.9449 17.2763 18.1406 17.2351C18.7277 17.1115 19.3251 17.0188 19.9328 16.9673C20.3138 16.9364 20.7052 16.9776 21.0657 17.06ZM19.9225 19.4186C20.2623 19.4289 20.4889 19.1611 20.4889 18.7594C20.4889 18.3783 20.2314 18.0796 19.9225 18.0796C19.6135 18.0693 19.4178 18.3165 19.4178 18.7079C19.4281 19.1611 19.6032 19.4083 19.9225 19.4186Z" fill="white"/>
<path d="M20.4856 18.768C20.4856 19.1594 20.259 19.4374 19.9191 19.4271C19.5998 19.4168 19.4144 19.1594 19.4144 18.7165C19.4041 18.3251 19.6101 18.0779 19.9191 18.0882C20.2384 18.0882 20.4856 18.3869 20.4856 18.768Z" fill="#A8A29E"/>
<path d="M19.6328 27.1629L19.8079 27.7706L19.5813 28.337L19.2517 29.2331L18.8912 29.5524L18.7677 29.4185C18.8604 29.3258 18.8707 29.1713 18.778 28.9653C18.6853 28.749 18.5514 28.543 18.5102 28.3164C18.4484 27.9354 18.6132 27.8015 18.9427 28.0178C19.2929 28.2444 19.3856 27.9766 19.468 27.8015C19.5092 27.7191 19.365 27.4719 19.2414 27.3998C18.2012 26.8436 17.3257 26.1227 16.6562 25.1442L16.9034 25C17.4287 25.7828 19.6328 27.1629 19.6328 27.1629Z" fill="#A8A29E"/>
<path d="M19.239 27.3894C19.3625 27.4512 19.5067 27.6984 19.4655 27.7911C19.3831 27.9662 19.2904 28.2443 18.9403 28.0074C18.6107 27.7911 18.4459 27.925 18.5077 28.3061C18.5489 28.5327 18.6725 28.7387 18.7755 28.955C18.8682 29.161 18.8579 29.3155 18.7652 29.4081C18.7034 29.4699 18.5901 29.5008 18.4459 29.4699C18.2502 29.439 18.0442 29.3258 17.8794 29.2022C17.4571 28.8726 17.1275 28.4709 16.9525 27.9559C16.9113 27.822 16.7774 27.7087 16.695 27.5851C16.592 27.7499 16.386 27.9353 16.4066 28.0795C16.4787 28.6048 16.6435 29.0992 17.1069 29.439C17.2511 29.542 17.3747 29.6656 17.5086 29.7892C17.3438 29.7995 17.1893 29.8201 17.0554 29.8613C16.798 29.8716 16.489 29.8922 16.1285 29.9128C15.1191 29.9746 14.5527 29.4287 14.2437 28.7593C14.3467 28.8314 14.4703 28.8932 14.5733 28.955C14.4909 28.3782 14.3055 27.9147 14.2025 27.4306C14.0789 26.8539 14.151 26.3183 14.3261 25.8136C14.46 25.4428 14.6454 25.0823 14.8616 24.7425C15.2221 24.1657 15.5105 23.5889 15.3663 22.8782C15.3457 22.7547 15.4178 22.6105 15.4487 22.4766C15.5929 22.6517 15.6341 22.8061 15.6753 22.9709C15.8813 23.7537 16.2109 24.485 16.6744 25.1544C17.3232 26.1226 18.1987 26.8333 19.239 27.3894Z" fill="#F5F5F4"/>
<path d="M20.3304 16.1343C19.527 16.2991 18.8061 16.3918 18.1057 16.6081C17.7452 16.7214 17.4053 16.9892 17.1272 17.257C16.9418 17.4423 16.8285 17.5247 16.5917 17.4217C16.3548 17.329 16.1797 17.2261 16.2106 16.9171C16.3342 15.6811 16.4372 14.4452 17.189 13.3843C17.3538 13.1474 17.5083 12.9208 17.7246 12.6016C18.1778 14.095 18.9296 15.3412 20.3304 16.1343Z" fill="white"/>
<path d="M18.7688 29.409L18.8924 29.5428L18.4907 29.9136C18.4907 29.9136 18.5628 29.8003 17.0487 29.8621C17.1826 29.8209 17.3371 29.8003 17.5019 29.79C17.368 29.6767 17.2444 29.5428 17.1002 29.4399C16.6368 29.1103 16.4617 28.6056 16.3999 28.0803C16.3793 27.9258 16.5853 27.7507 16.6883 27.5859C16.781 27.7095 16.9046 27.8125 16.9457 27.9567C17.1208 28.4717 17.4504 28.8734 17.8727 29.203C18.0375 29.3266 18.2435 29.4399 18.4392 29.4708C18.5937 29.5017 18.6967 29.4708 18.7688 29.409Z" fill="#A8A29E"/>
<path d="M16.9517 53.7247H14.2327C14.2018 53.632 14.1503 53.5393 14.1194 53.4569C13.8619 52.8183 13.5735 52.1901 13.3366 51.5515C12.5744 49.4916 12.1418 47.3493 11.8741 45.1761C11.7402 44.1255 11.8226 43.1677 12.9555 42.6424C13.1203 42.56 13.2542 42.4055 13.4087 42.2922C13.9443 41.8905 13.9649 41.7669 13.5941 41.2623C13.11 40.5928 12.6362 39.9027 12.1315 39.2436C11.7196 38.6977 11.5651 38.1106 11.8741 37.5029C12.3787 36.4936 12.8731 35.4533 13.522 34.5367C14.3768 33.3419 15.3862 32.2605 16.3441 31.1275C16.4368 31.0142 16.581 30.9524 16.8178 30.7773C16.7766 31.3644 16.756 31.8176 16.7148 32.2605C16.6015 33.3728 16.375 34.4852 16.375 35.6078C16.3647 39.1612 16.4059 42.7248 16.478 46.2884C16.5192 48.2453 16.6942 50.192 16.8075 52.1489C16.8384 52.6535 16.9002 53.1479 16.9517 53.6423C16.9517 53.6629 16.9517 53.6938 16.9517 53.7247Z" fill="#F5F5F4"/>
<path d="M16.8956 24.9993L16.6484 25.1435C16.1849 24.474 15.8553 23.7427 15.6493 22.96C15.6081 22.8055 15.5772 22.6407 15.4227 22.4656C15.3918 22.5995 15.3197 22.7437 15.3403 22.8673C15.4845 23.5779 15.1961 24.165 14.8357 24.7315C14.6194 25.0817 14.434 25.4319 14.3001 25.8026L14.2383 25.782C14.6709 24.5255 15.2064 22.1875 15.2064 22.1875L15.6905 22.239C15.6905 22.239 16.6896 24.0208 16.7617 24.7109C16.7926 24.8139 16.8338 24.8963 16.8956 24.9993Z" fill="#A8A29E"/>
<path d="M15.7987 19.4588C15.7369 19.4691 15.6854 19.4794 15.6236 19.4897C15.4794 19.2734 15.3249 19.0777 15.2116 18.8512C14.9953 18.4598 14.6657 18.5113 14.3361 18.604C14.2125 18.6452 14.0992 18.8306 14.0684 18.9644C14.0478 19.0262 14.2228 19.1704 14.3361 19.2219C14.9129 19.5 14.9541 19.6751 14.5524 20.1489C14.4803 20.2416 14.3773 20.3343 14.3567 20.4373C14.3361 20.5918 14.3155 20.8081 14.4082 20.9008C14.4803 20.9832 14.7069 20.9626 14.8511 20.942C14.9953 20.9214 15.1395 20.7257 15.2631 20.9626C15.3558 21.1479 15.4279 21.3436 15.4691 21.5393C15.4794 21.5702 15.3146 21.6835 15.2219 21.6938C14.5524 21.7865 13.6976 21.2097 13.265 20.3755C12.956 19.7781 12.9457 18.7997 13.471 18.2435C13.9757 17.7182 14.5936 17.6667 15.2425 17.7388C15.3661 17.7491 15.5515 17.9242 15.5721 18.0478C15.6854 18.5216 15.7266 18.9953 15.7987 19.4588Z" fill="white"/>
<path d="M14.9639 31.6445C14.8094 31.8814 14.727 32.0565 14.6137 32.1904C14.1296 32.7363 13.5631 33.2307 13.1512 33.828C12.4508 34.8374 11.7401 35.857 11.2354 36.9591C10.7617 37.9993 10.8853 39.1014 11.7607 40.0078C11.9255 40.1725 12.0491 40.3888 12.183 40.5845C12.4096 40.9244 12.7598 41.254 12.801 41.6145C12.8628 42.1192 12.2345 42.1707 11.9255 42.4384C11.4105 42.9122 11.0295 43.4478 11.0707 44.1585C11.153 45.9712 11.4414 47.7736 11.9564 49.5039C12.3787 50.9356 12.9349 52.3157 13.4395 53.7267H9.42272C9.42272 53.6237 9.40213 53.5104 9.38153 53.4177C9.18583 52.5114 9.00044 51.605 8.79445 50.6987C8.31037 48.5461 8.13528 46.4038 8.81505 44.2512C8.95925 43.7877 8.97984 43.2727 9.04164 42.7783C9.05194 42.6856 8.97984 42.5208 8.91805 42.5105C8.82535 42.4899 8.70176 42.5723 8.61936 42.6341C8.54726 42.6856 8.50607 42.7886 8.48547 42.8813C8.02199 44.3542 7.48641 45.8064 7.59971 47.3616C7.50701 48.9065 7.93959 50.3588 8.22798 51.8213C8.35157 52.4187 8.48547 53.0264 8.68116 53.6031C8.69146 53.6443 8.72235 53.6855 8.75325 53.737H2.39844C2.40874 53.7267 2.41904 53.7164 2.42934 53.7061C2.48083 53.5722 2.38814 51.8728 2.41904 51.7389C2.74862 49.9159 3.04731 48.0826 3.42839 46.2596C3.74768 44.7043 4.20086 43.1697 4.53044 41.6145C4.90123 39.8121 5.73549 38.2568 7.01263 36.9591C8.58846 35.3627 10.2467 33.8589 12.2345 32.7775C13.0688 32.314 13.9133 31.8299 14.9639 31.6445Z" fill="#F5F5F4"/>
<path d="M14.1839 27.4404C14.2869 27.9244 14.4826 28.3879 14.5547 28.9647C14.4517 28.8926 14.3281 28.8411 14.2251 28.769C13.7719 27.8008 13.844 26.5752 13.844 26.5752C13.947 26.5649 14.0912 26.2559 14.2457 25.8027L14.3075 25.8233C14.1324 26.328 14.0603 26.8636 14.1839 27.4404Z" fill="#A8A29E"/>
<path d="M9.37379 53.4172C9.39439 53.5202 9.42529 53.6335 9.41499 53.7262H8.74552C8.71462 53.685 8.68373 53.6438 8.67343 53.5923C8.47773 53.0155 8.34384 52.4078 8.22025 51.8104C7.92156 50.3479 7.49928 48.8957 7.59197 47.3507C7.46838 45.7955 8.01425 44.3433 8.47773 42.8704C8.50863 42.7778 8.54983 42.6748 8.61163 42.6233C8.69402 42.5512 8.81762 42.4791 8.91031 42.4997C8.97211 42.51 9.04421 42.6851 9.03391 42.7675C8.97211 43.2618 8.95151 43.7665 8.80732 44.2403C8.12755 46.3929 8.30264 48.5352 8.78672 50.6878C8.99271 51.6045 9.1781 52.5108 9.37379 53.4172Z" fill="#A8A29E"/>
</g>
<defs>
<clipPath id="clip0_24415_31336">
<rect width="48" height="48" rx="24" fill="white"/>
</clipPath>
</defs>
</svg>
