<svg width="136" height="136" viewBox="0 0 136 136" fill="none" xmlns="http://www.w3.org/2000/svg">
<g clip-path="url(#clip0_24415_31338)">
<rect x="4" y="4" width="128" height="128" rx="64" fill="white"/>
<path d="M12.6841 132.098C12.523 131.523 12.362 130.925 12.362 130.326C12.27 125.312 12.7991 120.343 13.4662 115.374C14.1333 110.383 15.4675 105.575 16.8937 100.79C17.3538 99.272 18.1128 97.8458 18.8259 96.4196C20.3212 93.4061 21.8854 90.4157 24.3237 88.0463C25.2209 87.1722 26.325 86.4821 27.3832 85.769C28.4183 85.0329 29.4535 84.2508 30.6036 83.6987C35.3193 81.3754 40.357 80.0642 45.4868 79.1211C48.2472 78.615 51.0996 78.569 53.906 78.362C54.7571 78.2929 55.1022 78.2699 55.1482 77.1658C55.2402 74.5664 54.5731 72.5881 52.2498 71.1159C50.0185 69.7127 49.1673 67.2514 48.3852 64.882C48.1552 64.1919 47.9482 63.8239 47.12 63.7779C44.1066 63.6398 41.5993 61.5695 40.8631 58.5331C40.173 55.7037 40.403 53.0123 42.6114 50.827C43.0714 50.3899 42.9795 50.0219 42.7034 49.5618C38.0107 41.7177 41.9443 28.6978 49.6964 23.6601C51.3296 22.6019 52.7328 21.1757 54.2971 20.0026C57.1035 17.9093 60.3009 16.7821 63.7284 16.3681C65.1546 16.184 66.6039 16.092 67.8921 16C76.1502 16.4601 83.2352 19.2895 88.9631 25.0863C91.8845 28.0537 93.9778 31.5732 94.8059 35.7368C95.5651 39.5324 94.8519 43.1439 93.4717 46.6634C93.1037 47.6065 92.6896 48.5267 92.2066 49.4238C91.7695 50.2519 91.7465 50.942 92.2526 51.7931C94.6219 55.6807 92.9657 60.9485 89.2851 62.8807C88.6411 63.2028 87.882 63.3868 87.1689 63.4558C86.3637 63.5248 85.9496 63.7779 85.6966 64.606C84.6845 68.0335 82.8442 70.9089 79.7388 72.8412C79.2097 73.1632 78.8647 73.4853 78.8877 74.1984C78.9107 75.2565 78.7036 76.2917 78.6576 77.3498C78.6116 77.9709 78.9106 78.2929 79.6007 78.339C82.3151 78.523 85.0295 78.684 87.7209 79.0291C89.9292 79.3051 92.1376 79.6962 94.2769 80.3172C97.3823 81.2144 100.534 82.1345 103.455 83.4917C108.171 85.677 111.851 89.0355 114.405 93.7512C117.671 99.732 119.535 106.127 120.662 112.752C121.329 116.685 121.766 120.665 122.157 124.622C122.364 126.623 122.203 128.67 122.18 130.694C122.18 131.178 122.042 131.661 121.881 132.098C121.789 132.351 121.49 132.535 121.283 132.765V132.006L121.26 132.765C121.076 132.535 120.823 132.351 120.731 132.075C120.593 131.615 120.547 131.132 120.501 130.648C120.064 126.301 119.719 121.953 119.212 117.606C118.844 114.385 118.384 111.165 117.809 107.967C116.751 102.101 114.428 96.7186 111.138 91.7499C109.344 89.0355 106.699 87.3333 103.961 85.746C100.58 83.7907 96.7612 82.9396 93.0577 81.7895C91.3094 81.2374 90.3433 81.6974 89.1701 82.9166C84.5465 87.6323 78.7266 90.2087 72.3317 91.3818C67.179 92.325 62.0032 92.256 56.8965 90.8067C53.423 89.8176 50.2485 88.2304 47.6031 85.769C46.545 84.7799 45.6939 83.4917 44.9577 82.2265C44.4747 81.3754 44.0146 81.0763 43.0714 81.3754C40.7481 82.0885 38.3788 82.7326 36.0324 83.4227C31.5698 84.7799 27.5902 87.0342 24.4158 90.4387C22.3915 92.624 21.1723 95.4074 19.8611 98.0758C17.4918 102.929 16.4566 108.151 15.7435 113.396C15.0074 118.94 14.5933 124.53 14.0412 130.096C13.9722 130.833 13.8342 131.569 13.6732 132.282C13.6272 132.466 13.3972 132.765 13.3282 132.742C13.0981 132.673 12.7761 132.512 12.7301 132.328C12.7531 132.282 12.7301 132.19 12.6841 132.098ZM90.1823 60.1433C91.1254 58.4411 91.7925 56.6238 91.4474 54.6225C91.1944 53.2193 90.6884 51.8622 89.2392 51.3101C88.48 51.011 87.5599 50.988 86.7548 51.149C86.4327 51.2181 86.2487 52.0692 86.0647 52.5983C85.8577 53.1273 85.7427 53.6794 85.5586 54.2545C86.4788 53.9325 87.2378 53.5414 88.0429 53.4264C88.365 53.3804 88.7791 53.8864 89.1471 54.1395C88.8711 54.3925 88.5951 54.6686 88.319 54.8986C88.204 54.9906 87.951 54.9216 87.859 55.0136C87.4679 55.4277 87.0998 55.8647 86.7318 56.2788C87.0308 56.5088 87.3529 56.7159 87.6289 56.9919C87.813 57.1759 87.9969 57.3829 88.112 57.636C88.411 58.2111 88.25 58.5331 87.5599 58.5791C85.9957 58.6481 85.7657 58.9932 86.2487 60.5804C86.3637 60.9945 86.1797 61.6846 86.9388 61.6156C88.204 61.4775 89.5152 61.3625 90.1823 60.1433ZM86.8698 82.9166C87.4909 82.3645 88.089 81.8125 88.9171 81.0993C85.1445 80.6853 81.7171 80.3172 78.3126 79.9722C77.0014 79.8342 76.7943 79.5581 76.7943 78.2469C76.8173 76.9818 76.7713 75.7396 76.7483 74.4744C76.7253 73.3012 76.9553 72.3351 78.1055 71.622C79.2787 70.9089 80.3369 69.9658 81.349 69.0226C84.3624 66.2852 84.9145 62.7657 84.0404 59.0622C83.5803 57.0609 83.5113 55.2206 83.9714 53.2423C84.5234 50.804 84.8225 48.3196 85.2136 45.8583C85.3516 44.9612 84.9145 44.5471 84.0404 44.2941C81.395 43.4889 78.7726 42.6148 76.1502 41.7407C75.4371 41.5107 74.7931 41.1656 73.9879 40.7976C73.8959 42.1087 73.1368 42.4308 72.0096 42.3618C70.9055 42.2928 69.8013 42.4078 68.6972 42.4078C65.6147 42.4078 62.8543 41.3036 60.255 39.7394C59.6339 39.3714 59.1278 38.8423 58.3686 38.2442C58.2766 39.6014 58.5987 40.5445 59.0818 41.5107C59.5648 42.4538 59.3578 42.8219 58.2997 43.0749C57.8856 43.1669 57.4486 43.2819 57.0345 43.2129C54.2051 42.6608 52.1808 40.0385 52.4568 37.5081C52.5258 36.841 52.3878 36.1509 52.3418 35.4838C50.1105 38.3592 49.0293 41.5107 48.9373 45.0302C48.8683 48.1586 49.3744 51.1951 50.2255 54.1855C50.6856 55.7727 50.9156 57.3829 50.2945 58.9012C49.5124 60.7874 49.6964 62.6967 49.9264 64.583C50.0645 65.6411 50.5475 66.7453 51.1456 67.6424C52.4798 69.5977 54.3661 71.0239 56.3674 72.2661C60.416 74.7734 64.8096 75.4405 69.4563 74.5664C70.2384 74.4054 71.0435 74.2904 72.0787 74.9345C71.1125 75.1875 70.4684 75.4175 69.8013 75.5326C67.754 75.8546 65.6837 76.1306 63.6364 76.3837C61.7962 76.6137 59.9559 76.8897 58.1156 76.9818C57.2185 77.0278 57.0805 77.3728 57.0575 78.1319C57.0345 79.6271 56.8044 79.7882 55.2862 79.9492C52.1808 80.2942 49.0523 80.6623 45.7168 81.0303C46.2459 81.7434 46.66 82.4105 47.166 83.0086C51.0996 87.5863 56.3674 89.5646 62.1412 90.1857C65.6607 90.5537 69.2492 90.4157 72.7688 89.6336C78.0595 88.4834 82.8442 86.5051 86.8698 82.9166ZM48.6843 55.4737C48.8223 55.3817 48.9603 55.3126 49.0983 55.2206C48.6153 54.3005 48.1782 53.3804 47.6721 52.4832C47.005 51.3561 45.7628 50.896 44.6817 51.6091C43.9226 52.0922 43.2095 52.8743 42.8184 53.6794C41.7373 55.9337 42.4963 58.9932 44.3366 60.7184C45.0957 61.4545 45.9239 62.0066 47.005 61.9376C47.3041 61.9146 47.7181 61.6846 47.8561 61.4315C48.6382 60.0053 48.3852 58.7631 47.166 57.521C46.706 57.705 46.89 58.9242 45.9699 58.3031C45.3948 57.912 45.3718 57.3369 45.6938 56.7389C45.7629 56.6008 45.9009 56.5088 45.9929 56.3708C46.43 55.7727 46.3149 55.4277 45.6248 55.3817C45.3718 55.3587 45.0958 55.5427 44.8427 55.4967C44.5437 55.4507 44.0836 55.3126 44.0606 55.1516C44.0146 54.8526 44.1296 54.4155 44.3366 54.1855C44.9577 53.4724 46.0849 53.4494 47.12 54.1395C47.6721 54.5305 48.1552 55.0366 48.6843 55.4737Z" fill="#292524"/>
<path d="M121.286 132.788L121.24 133.938H12.7565L12.6875 132.121C12.7105 132.213 12.7335 132.282 12.7565 132.374C12.8025 132.558 13.1245 132.719 13.3546 132.788C13.4236 132.811 13.6536 132.512 13.6996 132.328C13.8606 131.592 13.9987 130.879 14.0677 130.142C14.6428 124.576 15.0338 118.986 15.7699 113.442C16.483 108.174 17.5182 102.953 19.8876 98.1219C21.1987 95.4535 22.3949 92.6701 24.4422 90.4848C27.6166 87.0573 31.5962 84.803 36.0588 83.4688C38.4052 82.7557 40.7515 82.1346 43.0979 81.4215C44.041 81.1224 44.4781 81.4215 44.9841 82.2726C45.7203 83.5378 46.5714 84.826 47.6295 85.8151C50.2749 88.2995 53.4494 89.8637 56.9229 90.8528C62.0066 92.302 67.2054 92.371 72.3581 91.4279C78.753 90.2547 84.5729 87.6784 89.1965 82.9627C90.3927 81.7435 91.3589 81.2834 93.0841 81.8355C96.7877 82.9857 100.606 83.8368 103.988 85.7921C106.702 87.3793 109.37 89.0816 111.165 91.796C114.454 96.7647 116.778 102.147 117.836 108.013C118.411 111.211 118.871 114.431 119.239 117.652C119.745 121.999 120.113 126.347 120.527 130.695C120.573 131.178 120.619 131.661 120.757 132.121C120.849 132.351 121.102 132.558 121.286 132.788Z" fill="#F08C51"/>
<path d="M91.4674 54.6208C91.8125 56.6221 91.1454 58.4394 90.2022 60.1416C89.5351 61.3608 88.2239 61.4988 86.9818 61.6138C86.2227 61.6828 86.4067 60.9697 86.2917 60.5787C85.8086 58.9914 86.0386 58.6464 87.6028 58.5774C88.2699 58.5544 88.4539 58.2093 88.1549 57.6342C88.0399 57.4042 87.8559 57.1742 87.6719 56.9901C87.3958 56.7371 87.0737 56.5071 86.7747 56.277C87.1428 55.84 87.5108 55.4029 87.9019 55.0119C87.9939 54.9198 88.2469 54.9659 88.362 54.8968C88.661 54.6668 88.914 54.3908 89.19 54.1377C88.822 53.8847 88.408 53.3556 88.0859 53.4246C87.2808 53.5397 86.5217 53.9307 85.6016 54.2528C85.7626 53.7007 85.9006 53.1256 86.1076 52.5965C86.2917 52.0674 86.4757 51.1933 86.7977 51.1473C87.6028 50.9863 88.523 51.0323 89.2821 51.3083C90.7083 51.8604 91.2144 53.2176 91.4674 54.6208Z" fill="white"/>
<path d="M88.9125 81.0769C88.1074 81.79 87.4863 82.3421 86.8652 82.8942C82.8396 86.5057 78.0549 88.484 72.8332 89.6341C69.2907 90.4163 65.7252 90.5543 62.2057 90.1862C56.4318 89.5651 51.164 87.5869 47.2305 83.0092C46.7244 82.4341 46.3103 81.767 45.7812 81.0309C49.1397 80.6399 52.2452 80.2718 55.3507 79.9498C56.8689 79.7887 57.0989 79.6277 57.1219 78.1325C57.1219 77.3734 57.2829 77.0283 58.1801 76.9823C60.0203 76.8903 61.8606 76.6143 63.7009 76.3842C65.7482 76.1312 67.8184 75.8322 69.8657 75.5331C70.5328 75.4181 71.1999 75.1881 72.1431 74.935C71.1079 74.2909 70.3028 74.406 69.5207 74.567C64.874 75.4641 60.4804 74.774 56.4318 72.2667C54.4305 71.0245 52.5443 69.5983 51.2101 67.643C50.612 66.7459 50.1289 65.6417 49.9909 64.5836C49.7378 62.6973 49.5768 60.788 50.3589 58.9017C50.98 57.3835 50.75 55.7733 50.2899 54.1861C49.4158 51.1956 48.9327 48.1592 49.0017 45.0307C49.0707 41.5112 50.1749 38.3598 52.4062 35.4844C52.4522 36.1745 52.5902 36.8646 52.5212 37.5087C52.2222 40.039 54.2695 42.6384 57.0989 43.2135C57.4899 43.3055 57.95 43.1675 58.3641 43.0755C59.4222 42.8224 59.6293 42.4314 59.1462 41.5112C58.6401 40.5681 58.3181 39.602 58.4331 38.2448C59.1922 38.8429 59.6983 39.3719 60.3193 39.74C62.9187 41.3042 65.6562 42.4084 68.7616 42.4084C69.8658 42.4084 70.9699 42.3164 72.0741 42.3624C73.2012 42.4314 73.9604 42.1093 74.0524 40.7981C74.8575 41.1432 75.5246 41.5112 76.2147 41.7413C78.837 42.6154 81.4594 43.4895 84.1048 44.2946C84.9789 44.5477 85.416 44.9617 85.278 45.8589C84.8869 48.3202 84.6109 50.8276 84.0358 53.2429C83.5757 55.2212 83.6217 57.0615 84.1048 59.0628C84.9789 62.7663 84.4499 66.2858 81.4134 69.0232C80.3783 69.9433 79.3431 70.8865 78.1699 71.6226C77.0198 72.3357 76.7898 73.2788 76.8128 74.475C76.8358 75.7402 76.8818 76.9823 76.8588 78.2475C76.8358 79.5587 77.0658 79.8347 78.377 79.9728C81.7124 80.3178 85.1169 80.6859 88.9125 81.0769Z" fill="white"/>
<path d="M49.0987 55.2239C48.9606 55.2929 48.8226 55.3849 48.6846 55.4769C48.1555 55.0399 47.6724 54.5568 47.1203 54.1657C46.0852 53.4756 44.958 53.4986 44.3369 54.2117C44.1299 54.4418 44.0149 54.8788 44.0609 55.1779C44.0839 55.3389 44.567 55.4769 44.843 55.5229C45.0961 55.5459 45.3721 55.3849 45.6251 55.4079C46.2922 55.4539 46.4073 55.799 45.9932 56.3971C45.9012 56.5351 45.7632 56.6271 45.6942 56.7651C45.3721 57.3632 45.4181 57.9383 45.9702 58.3293C46.8903 58.9504 46.7063 57.7313 47.1663 57.5472C48.3855 58.7894 48.6386 60.0316 47.8564 61.4578C47.7184 61.7108 47.3044 61.9409 47.0053 61.9639C45.9242 62.0329 45.096 61.4808 44.3369 60.7447C42.5197 58.9964 41.7606 55.96 42.8187 53.7057C43.2098 52.9006 43.9229 52.1184 44.682 51.6354C45.7631 50.9453 47.0283 51.3823 47.6724 52.5095C48.1785 53.3836 48.6156 54.3038 49.0987 55.2239Z" fill="white"/>
<path d="M28.1454 132.301C28.2375 124.411 29.5256 116.659 30.9058 108.907C31.0669 108.01 31.3659 107.159 31.6879 106.308C31.78 106.101 32.148 105.986 32.4011 105.848C32.4931 106.078 32.7001 106.308 32.6771 106.515C32.4931 108.401 32.2861 110.31 32.079 112.197C31.803 114.52 31.4809 116.82 31.2049 119.144C30.8829 121.835 30.5838 124.526 30.2848 127.218C30.1467 128.529 30.0087 129.863 29.8937 131.197C29.8247 131.772 29.8247 132.37 29.6867 132.946C29.5716 133.475 29.6637 134.349 28.8355 134.211C28.5365 134.165 28.3525 133.291 28.1454 132.785C28.0994 132.646 28.1454 132.462 28.1454 132.301Z" fill="#292524"/>
<path d="M106.126 126.738C106.218 128.44 106.333 130.142 106.402 131.821C106.425 132.443 106.356 133.087 106.264 133.708C106.241 133.915 105.896 134.26 105.781 134.237C105.528 134.168 105.206 133.938 105.114 133.708C104.93 133.271 104.861 132.788 104.815 132.304C104.332 127.589 103.895 122.873 103.366 118.18C102.975 114.799 102.469 111.441 102.008 108.082C101.962 107.668 101.847 107.231 101.893 106.817C101.939 106.472 102.193 106.15 102.354 105.805C102.561 106.081 102.906 106.311 102.998 106.61C103.389 107.99 103.803 109.37 104.01 110.796C104.746 115.788 105.436 120.78 106.103 125.772C106.149 126.117 106.126 126.439 106.126 126.738Z" fill="#292524"/>
<path d="M67.3485 53.7452C67.1184 54.2743 66.9575 55.0334 66.5204 55.5855C65.9223 56.3676 65.6233 56.9657 66.3594 57.8398C66.5894 58.1158 66.5204 58.6679 66.5664 59.082C66.1293 59.036 65.6002 59.128 65.2322 58.921C63.806 58.1848 63.4609 56.5056 64.6111 55.1024C65.3242 54.2283 65.6003 53.4002 65.5543 52.342C65.5543 52.043 65.8533 51.7209 66.0143 51.4219C66.3134 51.6749 66.7044 51.8589 66.8884 52.158C67.1184 52.549 67.1645 53.0551 67.3485 53.7452Z" fill="#292524"/>
<path d="M66.0583 64.0053C67.1165 63.8672 68.3586 63.6832 69.6468 63.5912C70.0149 63.5682 70.3829 63.8442 70.751 63.9593C70.498 64.3043 70.3139 64.7644 69.9919 64.9714C68.0366 66.1446 65.8973 65.7995 63.781 65.5925C63.2289 65.5465 62.7458 65.2014 62.8608 64.5343C62.9529 63.9362 63.413 63.8212 63.942 63.8442C64.5631 63.9132 65.2072 63.9593 66.0583 64.0053Z" fill="#292524"/>
<path d="M76.8184 53.3116C76.7954 54.2777 76.1282 55.0828 75.3461 55.0368C74.771 55.0138 74.173 54.0247 74.196 53.1735C74.242 52.2304 74.8171 51.6553 75.7142 51.7243C76.4503 51.7473 76.8184 52.2994 76.8184 53.3116Z" fill="#292524"/>
<path d="M58.9492 45.1641C59.0872 45.2561 59.3862 45.4401 59.6623 45.6241C59.4552 45.9002 59.3172 46.2682 59.0412 46.4062C58.1901 46.8433 57.3159 47.1884 56.4188 47.5334C56.1197 47.6484 55.7517 47.5334 55.4297 47.5334C55.4757 47.1884 55.4067 46.7513 55.5907 46.5213C56.3958 45.5091 57.569 45.3251 58.9492 45.1641Z" fill="#292524"/>
<path d="M74.7457 45.1641C75.5738 45.5781 76.4479 45.9462 77.253 46.4062C77.414 46.4983 77.46 46.9583 77.414 47.2114C77.391 47.3034 76.954 47.4184 76.747 47.3724C75.8728 47.1884 74.9987 46.9813 74.1706 46.7053C73.8486 46.5903 73.5725 46.2682 73.2734 46.0612C73.5955 45.8312 73.8945 45.5781 74.2166 45.3711C74.3316 45.3021 74.5386 45.3481 74.6767 45.3481C74.6997 45.2791 74.7227 45.2101 74.7457 45.1641Z" fill="#292524"/>
<path d="M57.3594 53.2632C57.3594 52.4121 57.8194 51.837 58.5095 51.86C59.2226 51.883 59.7747 52.5501 59.7747 53.4013C59.7747 54.2984 59.2456 54.8735 58.4865 54.8505C57.7964 54.8275 57.3594 54.2294 57.3594 53.2632Z" fill="#292524"/>
</g>
<rect x="2" y="2" width="132" height="132" rx="66" stroke="#D97706" stroke-width="4"/>
<defs>
<clipPath id="clip0_24415_31338">
<rect x="4" y="4" width="128" height="128" rx="64" fill="white"/>
</clipPath>
</defs>
</svg>
