<svg width="72" height="72" viewBox="0 0 72 72" fill="none" xmlns="http://www.w3.org/2000/svg">
<g clip-path="url(#clip0_24415_31339)">
<rect width="72" height="72" rx="36" fill="white"/>
<path d="M64.1683 71.8092C64.0094 71.69 63.8505 71.5708 63.8241 71.4782C63.3077 69.1083 62.8708 63.8124 62.2883 61.469C61.666 58.9535 61.0173 55.114 59.8522 52.7573C58.6738 50.3742 56.8468 48.6133 54.5696 47.2761C53.4839 46.6406 52.438 45.9257 51.2861 45.4358C49.8298 44.8268 48.294 44.4164 46.7846 43.9398C46.1889 43.7544 45.5666 43.5955 44.8252 43.3837C45.0503 44.9327 45.1562 46.4023 45.5004 47.819C45.9638 49.7255 46.1359 51.6717 46.3345 53.6047C46.5463 55.6171 46.6787 57.6295 46.8508 59.6419C46.8641 59.8273 46.8641 60.0126 46.8773 60.1848C46.9568 62.8459 47.0362 65.5071 47.1156 68.1683C47.1421 68.9891 47.1951 70.3396 47.2216 71.1472C47.2216 71.3193 47.2348 71.5444 47.1421 71.6768C47.1024 71.7165 47.0627 71.7694 47.0097 71.8092H46.4272C46.361 71.7297 46.2948 71.6238 46.2816 71.5444C46.2154 71.3193 46.2418 71.0545 46.2418 70.8162C46.1094 67.2547 45.9903 63.1504 45.8314 59.589C45.752 57.8414 45.6328 56.0937 45.4607 54.3593C45.2224 52.0821 45.0768 49.7917 44.4942 47.5674C44.3486 47.0246 44.2823 46.4553 44.1367 45.7006C43.8454 46.5215 43.6336 47.157 43.4085 47.7793C43.3026 48.0573 43.1702 48.3486 43.0113 48.6001C42.4156 49.5534 41.4358 49.6858 40.3767 49.0503C39.6882 48.6398 38.9335 48.3088 38.0465 47.8454C38.298 49.6593 37.2124 50.7449 36.4048 51.8835C35.756 52.7838 35.6899 53.7371 35.6899 54.73C35.6899 56.1732 35.756 57.603 35.809 59.0462C35.8752 61.0983 35.9944 63.1372 36.0076 65.1893C36.0208 66.8178 35.9017 68.9626 35.8355 70.5911C35.8355 70.7103 35.8223 71.5179 35.7561 71.6106C35.6501 71.743 35.5442 71.7562 35.4251 71.8092H35.1867C35.0543 71.7165 34.8822 71.69 34.8557 71.5444C34.7895 71.2266 34.8293 70.2072 34.8425 69.8762C35.0146 67.5592 35.2 64.7127 35.0676 62.3825C34.9881 61.1777 35.1073 59.9465 35.0941 58.7284C35.0808 57.4574 35.0014 56.1732 34.9484 54.9022C34.9352 54.7168 34.8955 54.5447 34.8822 54.3593C34.8557 53.4458 34.8954 52.5323 34.7895 51.632C34.6571 50.5066 34.6439 49.3945 34.9617 48.2956C34.9882 48.2162 34.9484 48.1235 34.9219 47.9911C33.823 47.9249 32.8566 48.3353 31.9563 48.8119C30.7382 49.4739 29.8511 49.5666 29.0303 47.6733C28.5404 46.548 28.6331 45.3961 28.8185 44.2443C28.8847 43.7941 28.9774 43.3572 29.07 42.8938C28.5007 42.7482 28.1565 42.8276 28.0771 43.4764C27.8785 44.9327 27.6799 46.3891 27.3621 47.819C26.7134 50.7582 26.528 53.7503 26.3956 56.7425C26.2897 59.1521 26.0249 61.5484 25.8925 63.9581C25.7866 65.9705 25.7601 68.5125 25.6939 70.5249C25.6807 70.7632 25.7336 71.028 25.6542 71.2531C25.6012 71.4517 25.4159 71.5973 25.2835 71.7827C25.0849 71.6238 24.7936 71.5179 24.701 71.306C24.595 71.0412 24.6215 70.7103 24.6348 70.4057C24.6877 68.8832 24.7142 66.8311 24.8069 65.3217C24.9657 62.5944 25.1643 59.8803 25.3364 57.1661C25.4026 56.1334 25.4688 55.0875 25.5218 54.0548C25.6542 51.579 26.0382 49.1429 26.5678 46.7333C26.8193 45.608 26.8855 44.4429 27.0312 43.2778C23.3505 44.1119 19.895 45.2372 16.8631 47.4218C16.3865 47.766 15.8834 48.0573 15.42 48.4148C13.156 50.1359 11.832 52.4926 10.998 55.1272C10.2036 57.6692 9.99174 59.9862 9.343 62.5679C8.99877 63.9581 8.35001 69.6246 8.07198 71.0412C8.03226 71.2398 7.95284 71.4384 7.88664 71.6238C7.82044 71.6238 7.75424 71.6238 7.68804 71.6238C7.67481 71.2531 7.60862 70.8824 7.6351 70.5117C7.83369 67.824 8.24412 61.191 8.95906 58.596C9.51513 56.5439 10.0447 54.452 11.0112 52.5455C11.8453 50.8773 12.825 49.3283 14.3476 48.1235C16.0819 46.7598 17.8825 45.4888 19.842 44.4826C20.9144 43.9398 22.1325 43.6353 23.2843 43.2513C23.9728 43.0262 24.6745 42.8409 25.4688 42.6158C24.7142 42.3642 24.0655 42.2054 23.4565 41.9406C22.821 41.6625 22.1722 41.358 21.6293 40.9344C20.7423 40.2459 20.4378 39.2927 20.5967 38.1541C20.9409 35.7312 21.2454 33.3084 21.5235 30.8723C21.5632 30.5413 21.444 30.1706 21.3116 29.8396C20.8747 28.8069 20.4643 27.7742 20.9674 26.6753C21.1924 26.1854 21.5367 25.7221 21.9074 25.3249C22.1589 25.0468 22.2781 24.9409 21.9471 24.6232C21.7088 24.3981 21.5632 24.0009 21.5367 23.6699C21.0998 19.2611 22.3311 15.4084 25.2967 12.0985C26.581 10.6554 28.1035 9.54325 29.8644 8.78859C30.6323 8.4576 31.5061 8.3252 32.3534 8.23252C33.7568 8.07365 35.1867 8.06041 36.5901 7.90153C37.4375 7.79562 38.2186 8.03393 39.0262 8.13985C41.0783 8.43112 42.7731 9.41085 44.3089 10.7216C45.9903 12.1647 47.2745 13.8991 48.1484 15.9115C49.1678 18.2814 49.6047 20.7572 49.3002 23.3389C49.2604 23.6699 49.2472 24.0936 49.0486 24.2922C48.7574 24.5702 48.7838 24.7688 48.9957 24.9939C50.6639 26.768 49.7106 29.1644 48.3337 30.581C48.0159 30.912 47.8836 31.0973 48.1351 31.5607C48.3999 32.0506 48.5852 32.6729 48.5587 33.2157C48.519 34.1689 48.7441 35.0163 49.0619 35.8901C49.5253 37.1743 50.0284 38.4586 49.9092 39.8884C49.8562 40.5504 49.6841 41.0932 49.1281 41.4772C48.4529 41.9406 47.7776 42.3907 47.023 42.9071C47.4467 43.0527 47.8968 43.2778 48.3601 43.3705C51.0478 43.8736 53.325 45.2108 55.5095 46.7466C56.4098 47.3821 57.3499 47.9778 58.131 48.7457C58.9254 49.5401 59.5874 50.4801 60.1964 51.4201C61.5204 53.4458 62.0897 55.7892 62.7516 58.0664C63.4931 60.6217 64.4198 67.5592 64.6184 70.2072C64.6714 70.8427 64.6714 71.4384 64.5257 72.1269C64.486 72.0342 64.3272 71.9151 64.1683 71.8092ZM48.8897 27.1917C48.903 26.5429 48.6382 25.9471 48.0822 25.6426C47.7512 25.4573 47.1554 25.3911 46.8906 25.5764C46.308 25.9868 45.8182 26.5826 45.8711 27.4697C46.2021 27.1255 46.4139 26.7945 46.7052 26.6091C46.917 26.4767 47.2481 26.5562 47.5393 26.5429C47.4731 26.7812 47.4864 27.1122 47.3407 27.2446C46.9038 27.6153 46.8244 27.9331 47.1951 28.3965C47.2878 28.5156 47.2613 28.8069 47.1951 28.979C47.1686 29.0452 46.8508 29.0849 46.7317 29.0187C46.4404 28.8731 46.3213 28.9658 46.2948 29.2306C46.2551 29.5615 46.2551 29.8793 46.2286 30.2103C46.5464 30.197 46.8773 30.2103 47.1818 30.1441C47.3672 30.1044 47.5658 29.9455 47.6982 29.7999C48.3601 29.0584 48.8632 28.2111 48.8897 27.1917ZM47.6585 33.0303C47.6585 31.8917 47.1289 31.1238 46.3742 31.1503C45.646 31.1768 45.0502 31.9182 45.0635 32.7523C45.09 33.4672 45.5401 33.8512 46.3345 33.8512C47.1818 33.8379 47.6585 33.5334 47.6585 33.0303ZM44.9178 30.9649C45.1826 30.7134 45.2488 30.5148 45.1164 30.1838C44.7325 29.1908 44.6796 28.1581 44.7061 27.099C44.7325 25.9339 44.6531 24.7688 44.5472 23.617C44.4677 22.6637 44.3353 22.5181 43.4483 22.5313C42.3494 22.5445 41.7669 21.9752 41.3961 21.0485C41.1314 20.3865 40.84 19.7245 40.562 19.0758C40.3634 19.3538 40.2311 19.6583 40.2708 19.9231C40.3502 20.4924 40.4958 21.0617 40.6415 21.6178C40.7474 22.0282 40.6415 22.1871 40.2046 22.1474C39.7544 22.1076 39.291 22.1076 38.8276 22.1076C37.4507 22.1209 36.0738 22.1606 34.7101 22.1606C33.7966 22.1606 33.6906 22.0414 33.5318 21.1411C33.4258 20.6116 33.3596 20.0687 33.267 19.4465C32.7374 20.1349 32.8831 20.8366 32.9228 21.4854C32.9493 22.0282 32.711 22.0944 32.327 22.0679C31.2281 21.9885 30.1424 21.8693 29.0435 21.7766C28.13 21.6972 27.8255 21.3662 27.8123 20.4262C27.8123 19.9761 27.8123 19.5259 27.8123 19.0758C27.7328 19.0758 27.6402 19.0625 27.5607 19.0625C26.7531 20.36 26.1308 21.7369 25.866 23.2595C25.7601 23.8155 25.7204 24.4246 25.7998 24.9806C26.0381 26.8209 26.3427 28.6613 25.6145 30.4751C25.535 30.6869 25.641 31.1371 25.8131 31.2562C26.8458 31.9579 26.9385 32.9906 26.7664 34.0498C26.6604 34.6456 26.859 34.9765 27.2694 35.2811C28.183 35.943 29.0435 36.6977 30.0233 37.2405C32.3534 38.5512 34.8822 39.0411 37.5434 38.5777C38.2451 38.4586 38.9071 38.1276 39.5823 37.8495C41.3564 37.1214 42.879 36.0092 44.2294 34.6456C44.5472 34.3146 44.6266 34.0498 44.4148 33.6129C43.8984 32.6199 44.097 31.7461 44.9178 30.9649ZM43.5674 43.9927C43.3821 43.8206 43.2629 43.6088 43.104 43.5823C42.2964 43.4234 41.4756 43.3043 40.668 43.1851C40.5223 43.1586 40.2972 43.1983 40.231 43.291C39.5558 44.231 38.8806 45.1843 38.2451 46.1375C38.0068 46.495 38.0333 46.7598 38.5231 46.9716C39.4102 47.3423 40.2575 47.8322 41.1314 48.2559C41.7007 48.5339 42.0051 48.4809 42.2302 47.8984C42.7068 46.6539 43.104 45.3696 43.5674 43.9927ZM39.1322 43.1983C39.622 42.5099 39.9133 41.7817 39.7412 40.9079C39.622 40.3121 39.5823 39.7031 39.5028 39.147C38.4437 39.3456 37.4507 39.531 36.471 39.7163C35.6634 39.8752 34.869 40.0473 34.0613 40.2062C33.5847 40.2989 33.0949 40.3651 32.605 40.4048C31.7179 40.471 31.4664 40.8417 31.943 41.5699C32.883 42.9865 33.8495 44.4031 34.8822 45.7403C35.6766 46.773 36.1268 47.8057 35.7693 49.1297C35.6104 49.699 35.6634 50.3345 35.6237 50.9303C36.5769 49.9638 37.1992 48.9576 36.9609 47.6204C36.8152 46.8657 37.0667 46.164 37.5036 45.5418C38.0597 44.7606 38.5761 43.9662 39.1322 43.1983ZM33.4524 47.157C34.7499 46.7995 34.8293 46.6274 34.0084 45.5285C33.9687 45.4756 33.929 45.4358 33.8893 45.3829C33.1611 44.5223 32.4329 43.6617 31.718 42.7879C31.5459 42.5761 31.4267 42.4437 31.1222 42.6158C30.8971 42.7482 30.5926 42.7085 30.3542 42.8409C30.1424 42.96 29.8776 43.1586 29.8379 43.3572C29.679 44.0986 29.5996 44.8665 29.4672 45.7801C29.5864 46.2567 29.7055 46.8922 29.9174 47.4747C30.2219 48.2824 30.447 48.3353 31.2413 48.0043C31.9827 47.7263 32.6977 47.3688 33.4524 47.157ZM24.648 34.6323C25.3894 34.6323 25.8925 34.1557 25.8925 33.4672C25.8131 32.3683 25.3232 31.6799 24.4229 31.7328C23.7609 31.7726 23.0328 32.4081 23.0328 33.0171C23.0592 33.9703 23.708 34.6323 24.648 34.6323ZM24.6083 29.7469C24.6083 29.3894 24.5951 29.0982 24.0522 29.1908C23.5359 29.2703 23.4564 29.0584 23.7477 28.6215C23.8536 28.4759 23.9728 28.3303 24.1184 28.1449C23.8801 27.9993 23.6682 27.8007 23.4167 27.761C23.0857 27.708 22.8209 27.5756 22.9533 27.2711C23.046 27.0593 23.4299 26.8077 23.6285 26.8474C24.0655 26.9269 24.4627 27.1917 24.9128 27.4035C24.7672 26.5429 23.8536 25.9074 22.9533 26.0133C22.3046 26.0928 21.6426 26.9798 21.6823 27.7212C21.7485 28.7804 22.1986 29.6807 22.9401 30.3956C23.2048 30.6472 23.6285 30.7663 23.9992 30.8458C24.1449 30.8723 24.4097 30.6472 24.5024 30.4751C24.6083 30.2632 24.6083 29.9852 24.6083 29.7469Z" fill="#A8A29E"/>
<path d="M64.1673 71.8078H54.8863C54.9525 71.7549 55.0055 71.6887 55.032 71.6225C55.1379 71.4106 55.1776 71.1591 55.2041 70.9075C55.5748 67.4785 55.9455 64.0494 56.3029 60.7263C56.1176 59.1243 56.0382 57.6414 55.7602 56.2116C55.4821 54.8479 55.0187 53.5107 54.595 52.1735C54.4759 51.816 54.5289 51.1276 53.9066 51.2997C53.377 51.4585 53.6021 51.9881 53.7477 52.4118C54.926 55.8276 55.4556 59.3361 55.0717 62.9505C54.8201 65.3204 54.5951 67.7035 54.37 70.0734C54.317 70.5633 54.317 71.0532 54.3435 71.543C54.3435 71.6225 54.4097 71.7152 54.4759 71.7946H47.0088C47.0617 71.7549 47.1147 71.7152 47.1412 71.6622C47.2338 71.543 47.2206 71.318 47.2206 71.1326C47.1941 70.3118 47.1411 68.9613 47.1146 68.1537C47.0352 65.4925 46.9558 62.8314 46.8764 60.1702C46.8764 59.9849 46.8763 59.7995 46.8499 59.6274C46.6777 57.615 46.5321 55.6025 46.3335 53.5901C46.1349 51.6571 45.9628 49.7109 45.4995 47.8044C45.1552 46.401 45.0493 44.9314 44.8242 43.3691C45.5656 43.581 46.1879 43.7398 46.7837 43.9252C48.293 44.4018 49.8288 44.8123 51.2851 45.4213C52.437 45.8979 53.4829 46.6261 54.5686 47.2616C56.8458 48.5988 58.6729 50.3597 59.8512 52.7428C61.0163 55.0862 61.6518 58.9389 62.2873 61.4545C62.8698 63.7979 63.3067 69.0937 63.8231 71.4636C63.8363 71.5695 63.9952 71.6887 64.1673 71.8078Z" fill="#D6D3D1"/>
<path d="M55.761 56.2144C56.0523 57.6443 56.1184 59.1272 56.3038 60.7292C55.9463 64.0391 55.5756 67.4813 55.2049 70.9104C55.1785 71.1487 55.1388 71.4003 55.0328 71.6254C55.0064 71.6915 54.9534 71.7578 54.8872 71.8107H54.4768C54.3973 71.7313 54.3444 71.6386 54.3444 71.5592C54.3179 71.0693 54.3311 70.5794 54.3709 70.0896C54.5959 67.7064 54.821 65.3365 55.0725 62.9666C55.4565 59.3522 54.9269 55.8437 53.7486 52.4279C53.6029 52.0042 53.3779 51.4747 53.9075 51.3158C54.5165 51.1304 54.4767 51.8321 54.5959 52.1896C55.0063 53.5136 55.483 54.8508 55.761 56.2144Z" fill="#A8A29E"/>
<path d="M54.4766 71.8086H54.887C54.8076 71.8748 54.7148 71.9277 54.6487 71.9145C54.5957 71.9145 54.5295 71.8616 54.4766 71.8086Z" fill="#A8A29E"/>
<path d="M48.0842 25.6433C48.6403 25.9478 48.9183 26.5435 48.8918 27.1923C48.8653 28.2117 48.3622 29.0591 47.7002 29.8005C47.5678 29.9594 47.3693 30.105 47.1839 30.1447C46.8794 30.2109 46.5484 30.1977 46.2307 30.2109C46.2439 29.8799 46.2572 29.5622 46.2969 29.2312C46.3234 28.9664 46.4557 28.8737 46.7338 29.0194C46.8529 29.0856 47.1707 29.0458 47.1972 28.9796C47.2634 28.8075 47.3031 28.5295 47.1972 28.3971C46.8264 27.9337 46.9059 27.616 47.3428 27.2452C47.5017 27.1129 47.4884 26.7819 47.5414 26.5435C47.2634 26.5568 46.9323 26.4774 46.7073 26.6097C46.4028 26.7951 46.1909 27.1261 45.8732 27.4703C45.807 26.57 46.2969 25.9875 46.8927 25.5771C47.1442 25.3917 47.7532 25.4579 48.0842 25.6433Z" fill="white"/>
<path d="M46.3773 31.1511C47.1452 31.1246 47.6616 31.8925 47.6616 33.0311C47.6616 33.5342 47.185 33.8387 46.3376 33.8519C45.5433 33.8652 45.0799 33.468 45.0666 32.753C45.0534 31.9322 45.6492 31.1775 46.3773 31.1511Z" fill="#D6D3D1"/>
<path d="M46.4141 71.8086H46.9966C46.8774 71.9013 46.7318 71.9542 46.6127 71.941C46.5597 71.941 46.4803 71.8748 46.4141 71.8086Z" fill="#A8A29E"/>
<path d="M46.2658 71.5312C46.2923 71.6107 46.3453 71.7166 46.4115 71.796H35.3828C35.502 71.7298 35.6079 71.7166 35.7138 71.5974C35.78 71.518 35.7933 70.6971 35.7933 70.578C35.8595 68.9495 35.9654 66.8047 35.9654 65.1762C35.9522 63.1241 35.833 61.0719 35.7668 59.033C35.7139 57.5899 35.6476 56.16 35.6476 54.7169C35.6476 53.7239 35.7139 52.7839 36.3626 51.8704C37.1702 50.7318 38.2559 49.6461 38.0043 47.8323C38.8914 48.2825 39.6328 48.6135 40.3345 49.0371C41.3937 49.6726 42.3734 49.5402 42.9692 48.587C43.128 48.3354 43.2604 48.0441 43.3663 47.7661C43.6047 47.1439 43.8165 46.5084 44.0945 45.6875C44.2269 46.4422 44.3063 47.0115 44.452 47.5543C45.0345 49.7785 45.1934 52.069 45.4185 54.3462C45.5906 56.0806 45.7097 57.8282 45.7892 59.5759C45.948 63.1373 46.0672 67.2416 46.1996 70.803C46.2261 71.0546 46.1996 71.3061 46.2658 71.5312Z" fill="white"/>
<path d="M45.1053 30.1818C45.2377 30.5261 45.1715 30.7246 44.9067 30.963C44.0858 31.7309 43.8872 32.6179 44.3638 33.6109C44.5757 34.061 44.4963 34.3258 44.1785 34.6436C42.8281 36.0073 41.3055 37.1061 39.5314 37.8476C38.8694 38.1256 38.1942 38.4566 37.4925 38.5757C34.8313 39.0391 32.3158 38.5493 29.9723 37.2385C28.9926 36.6825 28.1321 35.9411 27.2185 35.2791C26.8081 34.9746 26.6095 34.6568 26.7154 34.0478C26.8875 33.0019 26.7949 31.9692 25.7622 31.2542C25.59 31.1351 25.4709 30.6717 25.5636 30.4731C26.305 28.6593 26.0005 26.8322 25.7489 24.9787C25.6695 24.4093 25.7224 23.8136 25.8151 23.2575C26.0799 21.7349 26.7021 20.358 27.5098 19.0605C27.5892 19.0605 27.6819 19.0605 27.7614 19.0738C27.7614 19.5239 27.7614 19.9741 27.7614 20.4242C27.7746 21.3642 28.0791 21.6952 28.9926 21.7747C30.0915 21.8673 31.1771 21.9733 32.276 22.0659C32.66 22.0924 32.9115 22.0395 32.8718 21.4834C32.8321 20.8347 32.6865 20.1197 33.216 19.4445C33.3087 20.0668 33.3882 20.5963 33.4808 21.1392C33.653 22.0527 33.7456 22.1586 34.6592 22.1586C36.0361 22.1719 37.413 22.1189 38.7767 22.1057C39.2401 22.1057 39.7035 22.1057 40.1536 22.1454C40.5905 22.1851 40.6965 22.0262 40.5905 21.6158C40.4449 21.0597 40.2992 20.4904 40.2198 19.9211C40.1801 19.6431 40.3125 19.3518 40.5111 19.0738C40.7891 19.7358 41.0804 20.3845 41.3452 21.0465C41.7159 21.9733 42.2984 22.5426 43.3973 22.5293C44.2976 22.5161 44.4168 22.6617 44.4962 23.615C44.6022 24.7801 44.6816 25.9451 44.6551 27.097C44.6816 28.1562 44.7346 29.1888 45.1053 30.1818ZM41.2922 25.2964C41.3187 25.1111 41.1996 24.7801 41.0539 24.7006C40.5641 24.4755 40.0345 24.3299 39.4387 24.1313C39.2401 24.3034 38.9224 24.4358 38.8826 24.6212C38.8165 24.9654 39.1341 25.0184 39.4254 25.0846C39.8623 25.1772 40.2993 25.3229 40.7229 25.495C41.001 25.6009 41.2393 25.5877 41.2922 25.2964ZM40.4582 27.4809C40.5376 27.0308 40.2728 26.766 39.8094 26.6998C39.4122 26.6468 39.0415 27.0838 39.0415 27.5604C39.0415 27.9443 39.4784 28.4739 39.8094 28.4739C40.1537 28.4872 40.4582 28.0502 40.4582 27.4809ZM36.5657 33.2269C36.4068 33.121 36.2612 32.9621 36.1023 32.9357C35.7978 32.8827 35.4933 32.9224 35.1887 32.9224C35.1887 32.9224 35.1887 32.9092 35.1887 32.8959C34.8842 32.8695 34.5797 32.8297 34.2752 32.843C34.1163 32.8562 33.9443 32.9621 33.7854 33.0283C33.8781 33.174 33.9442 33.4388 34.0634 33.4652C34.7783 33.5844 35.5065 33.6638 36.2347 33.7036C36.3274 33.7036 36.4466 33.399 36.5657 33.2269ZM35.1887 28.1959C35.4403 27.7457 34.9372 26.6336 34.3414 26.4218C34.2885 26.5674 34.1693 26.713 34.1958 26.8322C34.3679 27.6398 33.9177 28.2886 33.7324 29.0035C33.6265 29.4139 34.0237 29.97 34.4209 30.0494C34.6989 30.1024 35.0167 29.97 34.8975 29.692C34.6062 29.0829 34.9239 28.6725 35.1887 28.1959ZM31.0183 28.9505C31.5876 28.9505 31.6008 28.5401 31.5876 28.1164C31.5876 27.6795 31.6273 27.2161 31.0183 27.1632C30.5549 27.1235 30.2636 27.4545 30.2636 27.984C30.2504 28.5004 30.5946 28.9505 31.0183 28.9505ZM30.9653 25.164C31.0315 25.1111 31.0315 24.8595 30.9653 24.7668C30.8991 24.6609 30.6608 24.555 30.5946 24.5947C30.0253 24.9125 29.4693 25.2699 28.9529 25.6539C28.8867 25.7068 29.0059 26.0113 29.0721 26.4085C29.8267 25.9187 30.4092 25.5612 30.9653 25.164Z" fill="white"/>
<path d="M43.1068 43.5816C43.2656 43.6081 43.398 43.8199 43.5701 43.992C43.1068 45.3689 42.7096 46.6399 42.2329 47.8845C42.0079 48.467 41.6901 48.52 41.1341 48.2419C40.2602 47.8183 39.4129 47.3416 38.5258 46.9577C38.036 46.7459 38.0095 46.4943 38.2478 46.1236C38.8965 45.1571 39.5585 44.2171 40.2337 43.2771C40.2999 43.1844 40.525 43.1579 40.6707 43.1712C41.4783 43.3036 42.2991 43.4227 43.1068 43.5816Z" fill="white"/>
<path d="M41.0512 24.7041C41.1969 24.7703 41.316 25.1145 41.2895 25.2999C41.2366 25.5911 40.9983 25.6044 40.7202 25.4984C40.2966 25.3263 39.8596 25.1939 39.4227 25.088C39.1314 25.0218 38.8137 24.9689 38.8799 24.6246C38.9197 24.4393 39.2241 24.3069 39.436 24.1348C40.0317 24.3466 40.5614 24.479 41.0512 24.7041Z" fill="#A8A29E"/>
<path d="M39.8097 26.7015C40.2599 26.7677 40.5246 27.0193 40.4584 27.4827C40.4584 28.052 40.1671 28.4889 39.8229 28.4889C39.4919 28.4756 39.055 27.9593 39.055 27.5753C39.0418 27.0987 39.4125 26.6486 39.8097 26.7015Z" fill="#A8A29E"/>
<path d="M39.7434 40.9074C39.9155 41.7812 39.6242 42.5093 39.1344 43.1978C38.5915 43.9657 38.0752 44.7601 37.5324 45.5412C37.0954 46.1767 36.8439 46.8652 36.9895 47.6198C37.2411 48.9703 36.6056 49.9765 35.6523 50.9297C35.692 50.334 35.6391 49.6985 35.7979 49.1292C36.1554 47.8052 35.7053 46.7725 34.9109 45.7398C33.8782 44.3894 32.9117 42.986 31.9717 41.5693C31.4951 40.8412 31.7466 40.4704 32.6337 40.4042C33.1236 40.3645 33.6002 40.2983 34.0901 40.2057C34.8977 40.06 35.6921 39.8747 36.4997 39.7158C37.4794 39.5304 38.4724 39.3451 39.5315 39.1465C39.5845 39.7025 39.6242 40.3116 39.7434 40.9074Z" fill="white"/>
<path d="M36.1036 32.9522C36.2757 32.9787 36.4081 33.1376 36.567 33.2435C36.4479 33.4156 36.3287 33.7201 36.2228 33.7201C35.4946 33.6804 34.7664 33.6009 34.0515 33.4818C33.9323 33.4685 33.8661 33.2038 33.7734 33.0449C33.9323 32.9787 34.0911 32.8728 34.2633 32.8595C34.5678 32.8463 34.8723 32.8992 35.1769 32.9125C35.1769 32.9257 35.1769 32.9257 35.1769 32.939C35.4814 32.939 35.7991 32.8992 36.1036 32.9522Z" fill="#A8A29E"/>
<path d="M35.1641 71.8086H35.4023C35.3626 71.8351 35.3229 71.8615 35.27 71.9013C35.2302 71.8615 35.2038 71.8351 35.1641 71.8086Z" fill="#A8A29E"/>
<path d="M34.3349 26.4102C34.9307 26.6352 35.447 27.7341 35.1822 28.1843C34.9174 28.6609 34.6129 29.0713 34.8777 29.6803C34.9969 29.9451 34.6924 30.0908 34.4011 30.0378C34.0039 29.9584 33.6068 29.4023 33.7127 28.9919C33.898 28.2769 34.3614 27.6282 34.1761 26.8206C34.1628 26.7147 34.2819 26.5558 34.3349 26.4102Z" fill="#A8A29E"/>
<path d="M35.1572 71.8117H25.2539V71.7985C25.3863 71.6263 25.5585 71.4675 25.6247 71.2689C25.6909 71.0438 25.6511 70.779 25.6643 70.5407C25.7305 68.5283 25.7438 65.9863 25.8629 63.9739C25.9953 61.5642 26.2602 59.1679 26.3661 56.7583C26.4985 53.7661 26.6838 50.774 27.3326 47.8348C27.6503 46.4049 27.8489 44.9485 28.0475 43.4922C28.1402 42.8434 28.4711 42.764 29.0405 42.9096C28.9478 43.373 28.8551 43.8099 28.7889 44.2601C28.6036 45.4251 28.5109 46.5638 29.0008 47.6891C29.8216 49.5692 30.7087 49.4765 31.9267 48.8277C32.827 48.3379 33.7935 47.9274 34.8924 48.0069C34.9056 48.1393 34.9453 48.2319 34.9321 48.3114C34.6143 49.4103 34.6276 50.5092 34.76 51.6478C34.8659 52.5481 34.8262 53.4616 34.8526 54.3751C34.8526 54.5605 34.9056 54.7326 34.9188 54.918C34.9718 56.189 35.0512 57.4732 35.0645 58.7442C35.0777 59.9622 34.9718 61.1803 35.038 62.3983C35.1837 64.7285 34.9851 67.575 34.8129 69.892C34.7865 70.2229 34.76 71.2424 34.8262 71.5601C34.8527 71.6925 35.0116 71.719 35.1572 71.8117Z" fill="white"/>
<path d="M34.0045 45.54C34.8253 46.6389 34.7459 46.811 33.4485 47.1684C32.6938 47.3803 31.9788 47.7245 31.2507 48.029C30.4695 48.36 30.2444 48.307 29.9267 47.4994C29.7016 46.9169 29.5957 46.2814 29.4766 45.8048C29.609 44.878 29.6884 44.1233 29.8472 43.3819C29.887 43.1833 30.1517 42.9715 30.3636 42.8656C30.5887 42.7464 30.9064 42.7729 31.1315 42.6405C31.436 42.4684 31.5419 42.5875 31.7273 42.8126C32.4422 43.6864 33.1704 44.547 33.8986 45.4076C33.9251 45.434 33.9648 45.487 34.0045 45.54Z" fill="white"/>
<path d="M31.5872 28.1186C31.6005 28.5422 31.5872 28.9527 31.0179 28.9527C30.5942 28.9527 30.25 28.5025 30.25 27.9862C30.2632 27.4566 30.5545 27.1256 31.0047 27.1653C31.6269 27.2183 31.5872 27.6817 31.5872 28.1186Z" fill="#A8A29E"/>
<path d="M30.9615 24.7676C31.0277 24.8603 31.0277 25.1251 30.9615 25.1648C30.4054 25.5487 29.8229 25.9062 29.0682 26.3961C29.002 25.9989 28.8829 25.6944 28.9491 25.6414C29.4787 25.2575 30.0215 24.9132 30.5908 24.5822C30.657 24.5558 30.8953 24.6617 30.9615 24.7676Z" fill="#A8A29E"/>
<path d="M27.0164 43.2637C26.8576 44.442 26.7914 45.5938 26.5531 46.7192C26.0235 49.1421 25.6395 51.5649 25.5071 54.0407C25.4542 55.0866 25.3879 56.1193 25.3217 57.152C25.1364 59.8661 24.951 62.5935 24.7922 65.3076C24.6995 66.8302 24.673 68.8823 24.6201 70.3916C24.6068 70.6961 24.5803 71.0271 24.6863 71.2919C24.7657 71.4905 25.0702 71.6097 25.2688 71.7686V71.7818H7.89844V71.5832C7.96464 71.3846 8.04406 71.1993 8.08378 71.0007C8.36181 69.584 9.01057 63.9175 9.3548 62.5273C10.0035 59.9456 10.2154 57.6287 11.0098 55.0866C11.8306 52.452 13.1678 50.0953 15.4318 48.3742C15.8952 48.0167 16.3983 47.7254 16.8749 47.3812C19.8803 45.2099 23.3358 44.0845 27.0164 43.2637ZM18.1459 52.1872C18.1724 52.068 18.3048 51.9356 18.2783 51.8562C18.1989 51.5914 18.0665 51.3398 17.9473 51.0883C17.7619 51.2604 17.5236 51.406 17.4177 51.6179C17.2456 51.9753 17.2059 52.3858 17.0602 52.7565C16.0805 55.2058 15.67 57.761 15.723 61.0048C15.8289 62.5803 15.9349 64.778 16.1467 66.9626C16.2791 68.3925 16.5571 69.8091 16.8087 71.2257C16.8484 71.4243 17.0602 71.5832 17.1926 71.7686C17.325 71.5567 17.5501 71.3581 17.5634 71.1463C17.6031 70.6962 17.5369 70.2328 17.4839 69.7694C17.3912 68.8558 17.2588 67.9423 17.1794 67.0288C17.0205 65.0428 16.8352 63.0569 16.769 61.0709C16.716 59.7073 16.716 58.3171 16.9411 56.9799C17.2059 55.3514 17.7222 53.7759 18.1459 52.1872Z" fill="#D6D3D1"/>
<path d="M25.8912 33.4677C25.9044 34.1562 25.3881 34.6328 24.6467 34.6328C23.7067 34.6328 23.0579 33.9708 23.0314 33.0176C23.0182 32.4218 23.7464 31.773 24.4216 31.7333C25.3086 31.6804 25.7985 32.3688 25.8912 33.4677Z" fill="#D6D3D1"/>
<path d="M24.051 29.1773C24.6071 29.0979 24.6203 29.3759 24.6071 29.7334C24.6071 29.985 24.6071 30.2497 24.5144 30.4616C24.4217 30.6337 24.1569 30.8588 24.0113 30.8323C23.6406 30.7528 23.2036 30.6337 22.9521 30.3821C22.2107 29.6672 21.7605 28.7537 21.6943 27.7077C21.6414 26.9663 22.3166 26.0793 22.9653 25.9998C23.8656 25.8939 24.7792 26.5294 24.9248 27.39C24.4614 27.1782 24.0775 26.9134 23.6406 26.8339C23.442 26.7942 23.0448 27.0458 22.9653 27.2576C22.833 27.5621 23.0977 27.6945 23.4287 27.7475C23.667 27.7872 23.8921 27.999 24.1304 28.1314C23.9848 28.3168 23.8656 28.4624 23.7597 28.608C23.4552 29.0582 23.5347 29.2568 24.051 29.1773Z" fill="white"/>
<path d="M18.2668 51.846C18.2933 51.9387 18.1741 52.0579 18.1344 52.177C17.7239 53.7658 17.1944 55.3413 16.9296 56.9698C16.7045 58.307 16.7178 59.6971 16.7575 61.0608C16.8237 63.0467 17.009 65.0327 17.1679 67.0186C17.2473 67.9322 17.3665 68.8457 17.4724 69.7592C17.5254 70.2226 17.5783 70.686 17.5518 71.1361C17.5386 71.348 17.3135 71.5598 17.1811 71.7584C17.0487 71.573 16.8369 71.4142 16.7972 71.2156C16.5588 69.7989 16.2808 68.3823 16.1352 66.9524C15.9233 64.7679 15.8175 62.5569 15.7116 60.9946C15.6586 57.7377 16.069 55.1956 17.0487 52.7463C17.1943 52.3756 17.2341 51.9652 17.4062 51.6077C17.4989 51.3959 17.7504 51.2502 17.9358 51.0781C18.0549 51.3429 18.1873 51.5812 18.2668 51.846Z" fill="#A8A29E"/>
</g>
<defs>
<clipPath id="clip0_24415_31339">
<rect width="72" height="72" rx="36" fill="white"/>
</clipPath>
</defs>
</svg>
