<svg width="48" height="48" viewBox="0 0 48 48" fill="none" xmlns="http://www.w3.org/2000/svg">
<g clip-path="url(#clip0_24415_31340)">
<rect width="48" height="48" rx="24" fill="white"/>
<path d="M5.8921 48.3746C5.8473 48.4642 5.73083 48.4732 5.67707 48.4642C5.54268 48.4463 5.38141 48.518 5.30973 48.4015C5.23805 48.294 5.24701 47.855 5.25597 47.7116C5.31869 45.1582 5.64123 42.6226 6.134 40.1229C6.50134 38.2593 7.02995 36.4316 8.10509 34.8189C8.74122 33.8513 9.60133 33.1166 10.4525 32.373C11.5276 31.4412 12.7551 30.7155 14.0452 30.1331C15.2458 29.5866 16.4733 29.0938 17.7097 28.6189C18.3189 28.377 18.973 28.2426 19.5912 28.0187C19.9495 27.8932 20.3527 26.7912 20.1825 26.4597C20.1377 26.3791 20.0391 26.3253 19.9495 26.2716C18.8834 25.7161 17.9605 24.9814 17.1811 24.0317C17.4051 24.8649 17.638 25.6982 17.8351 26.5403C17.8799 26.7375 17.8889 27.0062 17.7903 27.1585C17.6201 27.4094 17.3692 27.2213 17.1811 27.1138C15.8103 26.3612 15.3712 25.0889 15.3175 23.6285C15.2996 23.1895 15.3175 22.7594 15.3264 22.3204C15.3264 22.1323 15.2637 22.0606 15.0666 21.98C13.5614 21.3259 12.9343 19.6774 13.5704 18.1543C13.6958 17.8496 13.9019 17.5988 14.1528 17.4196C14.1976 17.4913 14.2334 17.545 14.2513 17.5629C14.2871 17.4375 14.6366 17.5898 14.6545 17.4644C14.6545 17.4465 14.6097 17.3479 14.538 17.2135C14.7889 17.106 14.8247 16.9627 14.8426 16.7207C14.9143 15.8069 14.9322 14.884 15.3175 14.0329C15.425 13.8 15.6042 13.5849 15.7744 13.3789C15.8103 13.3341 15.9357 13.3161 15.9895 13.343C16.0432 13.3699 16.079 13.4774 16.0701 13.5401C16.0253 13.782 15.9715 14.0239 15.8909 14.2569C15.5325 15.4037 15.416 16.5684 15.6669 17.7511C15.6848 17.8496 15.7117 17.9572 15.7744 18.0378C16.4195 18.9965 16.3657 20.0178 16.1418 21.084C15.9088 22.204 15.8461 23.3328 16.0701 24.4707C16.1776 25.0262 16.5449 25.734 17.0377 26.1909C16.8854 25.5638 16.76 25.0172 16.6345 24.4707C16.4912 23.8077 16.3389 23.1447 16.2134 22.4727C16.1776 22.2577 16.1955 22.0068 16.2403 21.7918C16.2851 21.5678 16.3299 21.3528 16.3747 21.1288C16.4822 20.6181 16.5897 20.1164 16.7331 19.6236C16.9212 18.9517 16.76 18.3155 16.6614 17.6615C16.3657 15.5918 16.6256 13.6566 17.9785 11.9722C18.2652 11.6228 18.5698 11.2913 18.9013 10.9777C19.1611 10.7358 19.4478 10.8523 19.4747 11.1927C19.4837 11.3182 19.4389 11.4436 19.4389 11.569C19.4568 13.3878 20.738 14.8303 22.6105 14.8393C21.8848 14.1852 21.3831 13.4326 21.4368 12.4202C21.4458 12.2679 21.5533 12.026 21.6698 11.9901C21.9206 11.9185 22.0013 12.1245 22.055 12.3575C22.3417 13.8179 23.3094 14.5167 24.725 14.7228C25.0923 14.7765 25.4596 14.8303 25.8897 14.893C25.7105 14.5615 25.5492 14.2838 25.4148 13.9971C25.3432 13.8537 25.2715 13.6835 25.2804 13.5222C25.2894 13.3878 25.3969 13.2086 25.5134 13.1549C25.5851 13.119 25.7553 13.2445 25.8807 13.3072C25.9076 13.3251 25.9255 13.3789 25.9345 13.4147C26.3825 14.5705 27.3322 14.9647 28.5417 15.117C28.4432 14.893 28.3804 14.7049 28.2908 14.5346C27.9593 13.9254 27.8697 13.2803 27.9593 12.6083C27.9862 12.4023 28.0937 12.0708 28.2281 12.0439C28.4252 11.9991 28.7119 12.1156 28.8822 12.25C29.5004 12.7338 29.8319 13.4326 30.1275 14.1494C30.1723 14.2658 30.1903 14.4002 30.253 14.4988C31.0235 15.6635 30.7995 16.9089 30.6382 18.1722C30.5666 18.6918 30.5486 19.2563 30.692 19.7491C31.0056 20.8779 31.0324 21.962 30.6472 23.0909C30.3426 23.9869 30.1365 24.9187 29.9394 25.8505C29.8498 26.2895 29.9304 26.7464 30.2888 27.1496C30.468 26.5941 30.5934 26.0565 30.7995 25.5458C31.2206 24.4797 31.6417 23.4224 31.5879 22.2487C31.5611 21.7649 31.5611 21.2453 31.3819 20.8152C31.0683 20.0537 31.1668 19.31 31.2564 18.5485C31.3102 18.0647 31.5163 17.5898 31.5521 17.106C31.6059 16.3892 31.57 15.6725 31.57 14.9557C31.57 14.8124 31.5342 14.6601 31.5611 14.5257C31.5879 14.4002 31.6865 14.3017 31.7582 14.1852C31.8388 14.2838 31.9822 14.3734 32.0001 14.4809C32.1076 15.0901 32.1882 15.7083 32.2778 16.3265C32.3047 16.5057 32.2778 16.7924 32.3764 16.8372C32.6362 16.9806 32.9498 17.0433 33.2544 17.097C33.2992 17.106 33.4067 16.9268 33.4336 16.8283C33.7561 15.6187 33.8099 14.3913 33.6845 13.1549C33.5321 11.5959 33.0215 10.1714 32.1345 8.89015C30.8981 7.08929 29.2047 5.96936 27.0723 5.48554C25.6299 5.163 24.1874 5.18988 22.7539 5.52138C21.9923 5.70057 21.2039 5.78121 20.4513 5.94248C18.749 6.31878 17.4409 7.376 16.321 8.65721C15.2369 9.90257 14.4663 11.3361 14.099 12.9578C13.8481 14.0598 13.7944 15.1708 14.0273 16.2907C14.0363 16.3355 14.3319 16.8731 14.5111 17.1956C14.5022 17.1956 14.4932 17.2046 14.4843 17.2046C14.3499 17.2583 14.2244 17.321 14.1169 17.4017C13.9646 17.1508 13.7227 16.6491 13.6958 16.5684C13.5435 16.0757 13.3554 15.5829 13.3016 15.0812C13.1403 13.4237 13.5704 11.8826 14.3409 10.4312C15.416 8.3705 16.9392 6.74883 19.0446 5.71849C19.7793 5.36011 20.5498 5.15404 21.3651 5.10029C21.8938 5.06445 22.4045 4.86734 22.9241 4.76878C23.3273 4.69711 23.7484 4.67919 24.1516 4.62544C24.2411 4.61648 24.3218 4.5448 24.4024 4.5C24.7339 4.5 25.0654 4.5 25.4059 4.5C25.6209 4.5448 25.827 4.60752 26.042 4.62544C28.6134 4.84046 30.7099 5.9604 32.3226 7.95837C33.6038 9.5442 34.1683 11.4167 34.4102 13.4326C34.5804 14.8482 34.2847 16.1473 33.8547 17.4554C33.8009 17.6167 33.783 17.8317 33.8457 17.9751C34.1414 18.647 34.1862 19.3638 33.9801 20.0268C33.7561 20.7525 33.2813 21.3797 32.6362 21.8187C32.3585 22.0068 32.2151 22.186 32.2599 22.5175C32.2689 22.5802 32.2778 22.6519 32.2509 22.7057C31.9463 23.4852 32.4391 23.7271 33.0215 24.0317C34.4191 24.7574 35.3061 25.8953 35.5301 27.508C35.5839 27.8753 35.7183 28.2247 35.8347 28.5742C35.9781 28.9863 36.2738 29.2551 36.6769 29.4343C37.1697 29.6582 37.6356 29.927 38.1105 30.1689C38.3434 30.2854 38.5405 30.4288 38.5226 30.7334C38.5047 31.038 38.2986 31.1724 38.0477 31.2441C37.6714 31.3516 37.2862 31.4412 36.8203 31.5577C37.0263 31.7548 37.1876 31.9429 37.3847 32.0952C39.2304 33.5377 40.5206 35.3744 41.1567 37.6322C41.6853 39.5047 42.0437 41.4131 42.2497 43.3483C42.3662 44.5041 42.5902 46.2691 42.5185 47.4428C42.5096 47.5056 42.5902 47.5772 42.635 47.6399C42.635 47.9356 42.635 48.2223 42.635 48.518C42.4648 48.5896 42.2856 48.6703 42.1153 48.742C42.0705 48.6165 41.9989 48.4911 41.9541 48.3657C41.9362 48.3119 41.9182 48.2581 41.9182 48.2044C41.8555 47.416 41.8555 46.0004 41.7749 45.2209C41.6226 43.8501 41.4613 42.4703 41.2284 41.1085C41.0402 39.9885 40.8252 38.8596 40.4758 37.7845C39.9919 36.2793 39.2841 34.8906 38.1463 33.7438C36.8651 32.4536 35.3778 31.4591 33.792 30.59C33.2723 30.3033 32.7168 30.0614 32.1703 29.8374C32.0717 29.7926 31.8657 29.8733 31.7671 29.9629C30.5218 31.1724 29.2853 32.3998 28.04 33.6094C27.2157 34.4157 26.3645 35.1952 25.5313 35.9836C25.2804 36.2256 25.0117 36.4495 24.7698 36.7004C24.2501 37.238 23.9724 37.2738 23.399 36.7631C22.3865 35.8761 21.3831 34.9712 20.3975 34.0574C19.1701 32.9195 17.9516 31.7727 16.7241 30.6348C16.7062 30.6169 16.6883 30.6169 16.6704 30.608C16.4464 30.4019 16.2314 30.0614 15.9895 30.0345C15.6759 30.0077 15.3264 30.2137 15.0129 30.3571C13.3822 31.1007 11.8681 32.0236 10.5062 33.1883C8.84873 34.6039 7.70192 36.3689 7.2181 38.5192C6.8866 40.0065 6.52822 41.4937 6.30423 43.0079C6.08921 44.4952 6.02649 46.0093 5.90106 47.5145C5.88314 47.7027 5.90106 48.1596 5.85626 48.3388C5.90106 48.3477 5.90106 48.3657 5.8921 48.3746ZM37.7341 30.7155C37.2503 30.4646 36.8292 30.2496 36.4171 30.0166C35.8616 29.703 35.4047 29.2999 35.2524 28.6458C35.118 28.0814 35.0015 27.5169 34.8223 26.9704C34.4191 25.7071 33.4784 24.9276 32.3405 24.3453C32.0807 24.2109 32.0001 24.2826 31.9015 24.5513C31.7134 25.071 31.5073 25.5996 31.2296 26.0745C30.9787 26.4955 30.8981 26.9077 30.9339 27.3825C30.9518 27.5886 30.916 27.947 30.8174 27.9828C30.6203 28.0545 30.3605 27.9649 30.1365 27.8932C30.0111 27.8574 29.9125 27.723 29.805 27.6244C29.4556 27.284 29.3301 26.8539 29.2943 26.388C29.2853 26.2984 29.1689 26.2178 29.0972 26.1282C29.0434 26.2268 28.9449 26.3164 28.9359 26.4149C28.927 26.7195 28.918 27.0421 28.9628 27.3377C29.0703 28.0366 29.2137 28.153 29.9394 28.2964C30.1007 28.3233 30.253 28.395 30.4053 28.4577C30.7278 28.601 31.0414 28.7444 31.4446 28.9325C31.4446 28.6727 31.4087 28.5204 31.4535 28.386C31.5073 28.2247 31.6238 28.0903 31.7134 27.947C31.803 28.0814 31.9553 28.2068 31.9822 28.3591C32.0897 29.0669 32.4032 29.4074 33.4157 29.4701C33.0663 28.5114 32.7437 27.5976 32.4122 26.6927C32.466 26.6927 32.5287 26.6747 32.5824 26.6927C32.6631 26.7195 32.7437 26.7464 32.8064 26.8002C33.344 27.2929 33.7113 27.8574 33.7203 28.6279C33.7293 29.3088 33.8636 29.927 34.5714 30.2496C34.8761 30.3929 35.1717 30.5452 35.4405 30.7423C36.1842 31.271 36.9188 31.1007 37.7341 30.7155ZM33.1827 20.2418C33.6128 19.6147 33.5949 18.5485 33.0931 17.984C32.905 17.769 32.5824 17.6705 32.3226 17.5181C32.2151 17.7421 32.1165 17.9751 32.009 18.208C32.0001 18.2259 32.018 18.2439 32.009 18.2439C32.2778 18.217 32.4928 18.1811 32.7079 18.1901C32.7885 18.1901 32.8781 18.2887 32.9587 18.3424C32.905 18.423 32.8602 18.5126 32.7885 18.5664C32.6452 18.6829 32.466 18.7545 32.3405 18.88C32.2061 19.0144 31.8119 19.2025 32.3674 19.328C32.5108 19.3548 32.6452 19.5161 32.7258 19.6505C32.7795 19.7491 32.7258 19.9103 32.7168 20.0358C32.6093 20.0089 32.4928 19.991 32.3943 19.9462C32.3226 19.9103 32.2778 19.8297 32.2061 19.7938C32.1255 19.7491 32.0359 19.7401 31.9463 19.7132C31.9374 19.8028 31.9015 19.9014 31.9194 19.991C32.009 20.43 32.1165 20.86 32.2241 21.3349C32.7437 21.084 32.9229 20.6271 33.1827 20.2418ZM31.1848 29.7747C31.2833 29.6762 31.3998 29.5597 31.2116 29.4163C30.7547 29.0759 30.2888 29.1476 29.9663 29.6045C29.8946 29.703 29.8229 29.8106 29.7333 29.8912C28.0848 31.3695 26.4273 32.8478 24.7698 34.3172C24.5458 34.5233 24.2949 34.8458 24.062 34.8458C23.82 34.8458 23.5602 34.5322 23.3362 34.3261C21.5623 32.7134 19.7972 31.0918 18.0233 29.4791C17.9247 29.3895 17.7276 29.2909 17.6111 29.3267C17.2617 29.4253 16.9212 29.5776 16.5001 29.7478C16.8675 30.0614 17.1721 30.3123 17.4588 30.5721C19.5374 32.4805 21.616 34.3799 23.6946 36.2883C24.062 36.6198 24.0709 36.6287 24.4293 36.2703C24.9937 35.7238 25.5403 35.1504 26.1137 34.6039C27.4038 33.3764 28.694 32.1579 29.9842 30.9394C30.3963 30.5632 30.7905 30.1689 31.1848 29.7747ZM29.4197 23.8435C30.3157 22.7415 30.6203 21.4782 30.1186 20.1164C29.8408 19.3459 29.7871 18.5933 30.02 17.8228C30.4142 16.5326 30.1813 15.3231 29.5452 14.1852C29.2853 13.7283 28.9718 13.2982 28.6851 12.8592C28.6403 12.8861 28.5955 12.904 28.5507 12.9309C28.5686 13.6566 28.8015 14.3196 29.2137 14.9199C29.4914 15.332 29.4645 15.4754 28.9897 15.6277C28.6492 15.7352 28.2908 15.7621 27.9325 15.8248C27.9683 15.8696 27.9862 15.9054 28.0131 15.9323C28.1296 16.0488 28.4252 16.1115 28.2729 16.3355C28.1923 16.452 27.9683 16.5147 27.7981 16.5236C27.4486 16.5416 27.0903 16.5057 26.7408 16.5147C26.5169 16.5147 26.3825 16.443 26.3466 16.219C26.3197 16.004 26.4362 15.9323 26.6333 15.9054C26.9469 15.8606 27.2695 15.8069 27.6368 15.7442C27.3411 15.4664 27.0275 15.4664 26.705 15.4664C26.042 15.4575 25.388 15.4037 24.725 15.3768C24.4024 15.3679 24.0709 15.2514 23.7932 15.5381C23.7215 15.6098 23.5602 15.6098 23.4348 15.6008C23.0854 15.5829 22.736 15.556 22.3865 15.5112C21.168 15.3499 20.1377 14.9109 19.5553 13.7014C19.2597 13.0832 18.8744 12.5187 18.9192 11.793C18.9192 11.7661 18.8744 11.7303 18.7759 11.6228C18.4444 12.232 18.1129 12.7786 17.8261 13.352C17.1183 14.7855 16.9929 16.2907 17.3782 17.8317C17.5753 18.6112 17.5484 19.3638 17.2617 20.1343C17.0198 20.7794 16.9571 21.4603 17.1273 22.1502C17.5305 23.736 18.6056 24.7574 19.9585 25.51C21.3472 26.2716 22.8614 26.5493 24.4472 26.3343C24.5726 26.3164 24.6981 26.3074 24.8235 26.2984C26.7229 26.1282 28.246 25.286 29.4197 23.8435ZM29.4287 29.264C29.6079 29.0938 29.6348 28.9684 29.357 28.8698C28.7926 28.6727 28.2281 28.4756 27.6816 28.2426C27.2784 28.0724 27.0007 27.7857 26.9559 27.3109C26.938 27.1496 26.8663 26.9883 26.8484 26.8271C26.8304 26.621 26.7408 26.5941 26.5617 26.621C25.9255 26.7195 25.2715 26.7374 24.6622 26.9077C23.5154 27.2302 22.3507 27.4094 21.168 27.4004C20.953 27.4004 20.7828 27.4452 20.7469 27.6692C20.6663 28.2158 20.2721 28.4666 19.8152 28.6369C19.3582 28.8161 18.8923 28.9952 18.4085 29.1834C19.7704 30.375 21.0874 31.5129 22.3955 32.6597C22.8793 33.0808 23.3631 33.4839 23.829 33.914C24.053 34.129 24.1963 34.1201 24.4293 33.905C25.5851 32.812 26.7677 31.7368 27.9414 30.6617C28.4432 30.1958 28.9359 29.7299 29.4287 29.264ZM28.2012 27.7678C28.2281 27.7499 28.246 27.723 28.2729 27.7051C28.246 27.1317 28.2102 26.5583 28.1833 25.9401C27.3949 26.2716 27.3411 26.3074 27.5651 26.8808C27.6995 27.2123 27.9862 27.4721 28.2012 27.7678ZM15.4519 21.1557C15.5146 20.8242 15.5415 20.4837 15.5773 20.197C15.3712 20.2149 15.21 20.2508 15.0666 20.2149C15.0129 20.197 14.9591 19.973 14.9949 19.8834C15.1293 19.6057 15.2548 19.3548 14.8695 19.1846C14.9412 19.0592 15.0129 18.9337 15.0935 18.8173C15.1562 18.7366 15.3085 18.6381 15.2996 18.5933C15.1921 18.3066 15.0487 18.0378 14.9233 17.76C14.1169 18.2259 13.7317 19.4803 14.1886 20.2418C14.4126 20.6092 14.7172 20.9317 15.0218 21.2363C15.1204 21.3349 15.3892 21.4782 15.4519 21.1557Z" fill="#A8A29E"/>
<path d="M42.0064 48.373H37.222C37.3116 47.8265 37.3743 47.28 37.4281 46.7334C37.5535 45.4343 37.652 44.1352 37.7864 42.8361C37.9119 41.5907 38.0283 40.3543 37.7864 39.1089C37.7506 38.9387 37.6341 38.7774 37.5625 38.6161C37.5087 38.6341 37.446 38.643 37.3833 38.6609C37.3833 39.1627 37.4012 39.6644 37.3833 40.1572C37.3564 40.7574 37.2937 41.3577 37.2399 41.9491C37.1503 42.8181 37.0607 43.6782 36.9622 44.5473C36.8547 45.5149 36.7292 46.4736 36.6307 47.4412C36.5948 47.7548 36.5859 48.0684 36.5859 48.373H12.1712C12.1802 48.3551 12.1892 48.3461 12.1892 48.3282C12.2339 48.1938 12.225 48.0415 12.1981 47.8982C12.1175 47.4502 12.001 47.4591 11.9293 47.0112C11.7233 45.6941 11.5261 44.3681 11.329 43.0511C11.2753 42.7285 11.2036 42.397 11.1946 42.0745C11.1588 40.8739 11.2574 39.6823 11.4993 38.4997C11.562 38.1861 11.553 37.8546 11.5799 37.532C11.5351 37.5141 11.4814 37.4962 11.4366 37.4783C11.347 37.5589 11.2036 37.6306 11.1767 37.7291C10.9707 38.5893 10.7377 39.4494 10.6212 40.3184C10.46 41.5459 10.5944 42.7644 10.8542 43.9829C11.1588 45.4612 11.3559 46.5094 11.5978 47.9967C11.6157 48.1311 11.6426 48.2655 11.6964 48.382H5.89062C5.89958 48.373 5.89958 48.3641 5.89958 48.3461C5.94438 48.1669 5.92646 47.71 5.94438 47.5219C6.06981 46.0167 6.13253 44.5025 6.34756 43.0152C6.57155 41.51 6.92993 40.0228 7.26143 38.5265C7.73628 36.3763 8.8831 34.6112 10.5496 33.1956C11.9114 32.0309 13.4256 31.1081 15.0562 30.3644C15.3698 30.2211 15.7192 30.015 16.0328 30.0419C16.2747 30.0598 16.4897 30.4092 16.7137 30.6153C16.7316 30.6332 16.7495 30.6332 16.7675 30.6422C17.9949 31.789 19.2044 32.9358 20.4408 34.0647C21.4354 34.9786 22.4299 35.8835 23.4423 36.7705C24.0157 37.2812 24.2934 37.2453 24.8131 36.7078C25.055 36.4569 25.3238 36.2329 25.5746 35.991C26.4168 35.2026 27.259 34.4141 28.0833 33.6167C29.3287 32.4072 30.5651 31.1798 31.8105 29.9702C31.9 29.8806 32.1061 29.8 32.2136 29.8448C32.7602 30.0688 33.3156 30.3107 33.8353 30.5974C35.4122 31.4665 36.9084 32.461 38.1896 33.7511C39.3275 34.8979 40.0442 36.2867 40.5191 37.7919C40.8595 38.867 41.0746 39.9959 41.2717 41.1158C41.5046 42.4777 41.6659 43.8485 41.8182 45.2282C41.9078 46.0077 41.8988 47.4233 41.9616 48.2117C41.9795 48.2565 41.9884 48.3193 42.0064 48.373Z" fill="#E7E5E4"/>
<path d="M37.7877 39.11C38.0296 40.3464 37.9131 41.5917 37.7877 42.8371C37.6533 44.1362 37.5547 45.4354 37.4293 46.7345C37.3755 47.281 37.3038 47.8365 37.2232 48.3741H36.5781C36.5781 48.0605 36.5871 47.7469 36.6229 47.4423C36.7215 46.4747 36.8469 45.516 36.9544 44.5484C37.053 43.6793 37.1426 42.8192 37.2322 41.9501C37.2949 41.3498 37.3486 40.7585 37.3755 40.1582C37.4024 39.6565 37.3755 39.1637 37.3755 38.662C37.4382 38.6441 37.492 38.6351 37.5547 38.6172C37.6353 38.7785 37.7518 38.9308 37.7877 39.11Z" fill="#A8A29E"/>
<path d="M36.4182 30.0159C36.8303 30.2488 37.2514 30.4549 37.7352 30.7147C36.9199 31.1 36.1852 31.2702 35.4416 30.7327C35.1728 30.5355 34.8772 30.3832 34.5725 30.2399C33.8737 29.9084 33.7303 29.2902 33.7214 28.6182C33.7124 27.8567 33.3451 27.2833 32.8075 26.7905C32.7448 26.7367 32.6642 26.7009 32.5835 26.683C32.5298 26.665 32.467 26.683 32.4133 26.683C32.7448 27.5968 33.0763 28.5107 33.4168 29.4604C32.4133 29.3977 32.0907 29.0572 31.9832 28.3494C31.9653 28.2061 31.813 28.0717 31.7144 27.9373C31.6249 28.0806 31.5084 28.224 31.4546 28.3763C31.4098 28.5017 31.4457 28.663 31.4457 28.9228C31.0425 28.7436 30.7199 28.5913 30.4064 28.448C30.2541 28.3853 30.1017 28.3136 29.9405 28.2867C29.2147 28.1434 29.0714 28.0269 28.9639 27.3281C28.9191 27.0234 28.928 26.7098 28.937 26.4052C28.946 26.3067 29.0356 26.2171 29.0983 26.1185C29.17 26.2081 29.2864 26.2888 29.2954 26.3783C29.3312 26.8532 29.4567 27.2743 29.8061 27.6147C29.9046 27.7133 30.0121 27.8477 30.1376 27.8835C30.3616 27.9552 30.6214 28.0358 30.8185 27.9731C30.9171 27.9373 30.9529 27.5789 30.935 27.3728C30.8991 26.898 30.9798 26.4859 31.2306 26.0648C31.5084 25.5899 31.7144 25.0613 31.9026 24.5417C32.0012 24.2729 32.0818 24.2012 32.3416 24.3356C33.4795 24.9179 34.4202 25.6974 34.8234 26.9607C34.9936 27.5072 35.1101 28.0806 35.2534 28.6361C35.4058 29.3081 35.8627 29.7113 36.4182 30.0159Z" fill="#E7E5E4"/>
<path d="M33.7201 13.1652C33.8366 14.4016 33.7828 15.638 33.4692 16.8386C33.4424 16.9461 33.3349 17.1163 33.2901 17.1074C32.9854 17.0536 32.6719 16.9909 32.412 16.8475C32.3135 16.7938 32.3403 16.5071 32.3135 16.3369C32.2239 15.7187 32.1432 15.1004 32.0357 14.4912C32.0178 14.3837 31.8745 14.2941 31.7938 14.1955C31.7221 14.312 31.6236 14.4106 31.5967 14.536C31.5698 14.6704 31.6057 14.8227 31.6057 14.9661C31.6057 15.6828 31.6415 16.3996 31.5877 17.1163C31.5519 17.6001 31.3458 18.075 31.2921 18.5588C31.2025 19.3114 31.1039 20.064 31.4175 20.8256C31.5967 21.2556 31.5967 21.7753 31.6236 22.2591C31.6773 23.4328 31.2652 24.49 30.8352 25.5562C30.6291 26.0669 30.4947 26.6044 30.3245 27.1599C29.9661 26.7567 29.8944 26.2908 29.975 25.8608C30.1632 24.929 30.3782 23.9972 30.6828 23.1013C31.0681 21.9724 31.0412 20.8972 30.7276 19.7594C30.5932 19.2666 30.6112 18.6932 30.6739 18.1825C30.8352 16.9192 31.0681 15.6739 30.2886 14.5091C30.2259 14.4106 30.208 14.2762 30.1632 14.1597C29.8675 13.4429 29.536 12.7531 28.9178 12.2603C28.7386 12.1259 28.4519 12.0094 28.2638 12.0542C28.1294 12.0811 28.0219 12.4126 27.995 12.6187C27.9054 13.2906 27.995 13.9447 28.3265 14.545C28.4161 14.7152 28.4788 14.8944 28.5774 15.1273C27.3678 14.975 26.4181 14.5808 25.9701 13.425C25.9522 13.3892 25.9433 13.3354 25.9164 13.3175C25.791 13.2548 25.6297 13.1294 25.549 13.1652C25.4326 13.2279 25.3251 13.3981 25.3161 13.5325C25.3071 13.6848 25.3788 13.8551 25.4505 14.0074C25.5849 14.2941 25.7462 14.5718 25.9253 14.9033C25.4953 14.8406 25.128 14.7869 24.7606 14.7331C23.354 14.527 22.3774 13.8372 22.0907 12.3678C22.0459 12.1349 21.9653 11.9288 21.7054 12.0005C21.5979 12.0363 21.4814 12.2692 21.4725 12.4305C21.4187 13.4429 21.9205 14.1955 22.6462 14.8496C20.7647 14.8406 19.4835 13.3981 19.4745 11.5794C19.4745 11.4539 19.5193 11.3285 19.5103 11.2031C19.4835 10.8626 19.1968 10.7372 18.9369 10.988C18.6054 11.2927 18.2919 11.6242 18.0141 11.9825C16.6523 13.658 16.4014 15.6022 16.6971 17.6718C16.7867 18.3259 16.9569 18.962 16.7687 19.6339C16.6254 20.1267 16.5179 20.6374 16.4104 21.1391L16.1774 21.0943C16.4014 20.0282 16.4552 18.9978 15.8101 18.0481C15.7563 17.9675 15.7294 17.86 15.7026 17.7614C15.4517 16.5788 15.5682 15.414 15.9265 14.2672C15.9982 14.0343 16.0609 13.7924 16.1057 13.5505C16.1147 13.4877 16.0789 13.3713 16.0251 13.3533C15.9713 13.3265 15.8459 13.3444 15.8101 13.3892C15.6488 13.5953 15.4607 13.8013 15.3531 14.0432C14.9679 14.8944 14.95 15.8172 14.8783 16.7311C14.8604 16.973 14.8245 17.1163 14.5737 17.2238C14.4034 16.9013 14.0988 16.3637 14.0899 16.3189C13.8479 15.199 13.9107 14.097 14.1615 12.986C14.5289 11.3554 15.2994 9.93082 16.3835 8.68545C17.5034 7.39529 18.8115 6.34703 20.5138 5.97073C21.2754 5.8005 22.0548 5.71986 22.8164 5.54963C24.2499 5.22709 25.6924 5.19125 27.1349 5.5138C29.2672 5.98865 30.9516 7.11754 32.197 8.9184C33.0661 10.1817 33.5768 11.6152 33.7201 13.1652Z" fill="#E7E5E4"/>
<path d="M33.0927 17.9835C33.5944 18.5479 33.6124 19.6141 33.1823 20.2413C32.9225 20.6265 32.7433 21.0835 32.2236 21.3343C32.1161 20.8595 32.0086 20.4205 31.919 19.9904C31.9011 19.9008 31.9369 19.8022 31.9459 19.7127C32.0355 19.7395 32.1251 19.7574 32.2057 19.7933C32.2774 19.8291 32.3222 19.9187 32.3939 19.9456C32.4924 19.9904 32.6089 19.9994 32.7164 20.0352C32.7254 19.9008 32.7791 19.7485 32.7254 19.6499C32.6537 19.5155 32.5103 19.3543 32.367 19.3274C31.8025 19.202 32.1968 19.0138 32.3401 18.8794C32.4655 18.754 32.6447 18.6823 32.7881 18.5658C32.8598 18.5121 32.9046 18.4135 32.9583 18.3418C32.8777 18.2881 32.7881 18.1985 32.7074 18.1895C32.4924 18.1806 32.2684 18.2164 32.0086 18.2433C32.0086 18.2433 31.9996 18.2254 32.0086 18.2075C32.1072 17.9745 32.2147 17.7505 32.3222 17.5176C32.582 17.6699 32.9046 17.7684 33.0927 17.9835Z" fill="white"/>
<path d="M31.2232 29.4161C31.4114 29.5595 31.2949 29.6759 31.1963 29.7745C30.8021 30.1687 30.3989 30.5629 29.9958 30.9482C28.7056 32.1757 27.4154 33.3852 26.1253 34.6126C25.5519 35.1592 25.0053 35.7236 24.4409 36.2791C24.0825 36.6285 24.0735 36.6285 23.7062 36.297C21.6276 34.3886 19.549 32.4803 17.4704 30.5809C17.1837 30.321 16.8791 30.0702 16.5117 29.7566C16.9328 29.5953 17.2733 29.4341 17.6227 29.3355C17.7392 29.3086 17.9273 29.3982 18.0348 29.4878C19.8088 31.1005 21.5738 32.7222 23.3478 34.3349C23.5718 34.541 23.8316 34.8545 24.0735 34.8545C24.3154 34.8545 24.5573 34.532 24.7813 34.3259C26.4388 32.8566 28.0963 31.3783 29.7449 29.8999C29.8345 29.8193 29.9062 29.7118 29.9778 29.6132C30.3004 29.1384 30.7573 29.0757 31.2232 29.4161Z" fill="#F5F5F4"/>
<path d="M30.1203 20.1158C30.613 21.4777 30.3174 22.741 29.4214 23.843C28.2388 25.2855 26.7246 26.1277 24.8431 26.2889C24.7177 26.2979 24.5922 26.3068 24.4668 26.3248C22.881 26.5487 21.3668 26.271 19.9781 25.5005C18.6252 24.7569 17.5411 23.7265 17.1469 22.1407C16.9677 21.4418 17.0394 20.7699 17.2813 20.1248C17.568 19.3543 17.5859 18.6106 17.3978 17.8222C17.0125 16.2812 17.1379 14.776 17.8457 13.3425C18.1324 12.7691 18.455 12.2225 18.7954 11.6133C18.885 11.7208 18.9388 11.7477 18.9388 11.7835C18.903 12.5092 19.2793 13.0737 19.5749 13.6919C20.1573 14.9014 21.1876 15.3404 22.4061 15.5017C22.7555 15.5465 23.105 15.5734 23.4544 15.5913C23.5709 15.6003 23.7411 15.6003 23.8128 15.5286C24.0905 15.2419 24.422 15.3494 24.7446 15.3673C25.4076 15.3942 26.0616 15.439 26.7246 15.4569C27.0561 15.4569 27.3697 15.4569 27.6564 15.7346C27.2891 15.7974 26.9755 15.8511 26.6529 15.8959C26.4558 15.9228 26.3393 15.9855 26.3662 16.2095C26.3931 16.4424 26.5365 16.5141 26.7604 16.5052C27.1099 16.4962 27.4682 16.541 27.8177 16.5141C27.9879 16.5052 28.2119 16.4424 28.2925 16.326C28.4448 16.093 28.1581 16.0393 28.0327 15.9228C28.0058 15.8959 27.9879 15.8601 27.9521 15.8153C28.3104 15.7526 28.6688 15.7257 29.0093 15.6182C29.4841 15.4659 29.52 15.3225 29.2333 14.9104C28.8211 14.3011 28.5882 13.6471 28.5703 12.9214C28.6151 12.8945 28.6599 12.8766 28.7047 12.8497C28.9914 13.2887 29.3049 13.7188 29.5648 14.1757C30.2009 15.3225 30.4338 16.532 30.0396 17.8132C29.7977 18.5927 29.8425 19.3453 30.1203 20.1158ZM27.5668 18.5658C27.5668 18.1895 27.3786 17.9566 27.0919 17.9745C26.7963 17.9924 26.5813 18.2702 26.5813 18.6375C26.5902 18.978 26.7963 19.202 27.1099 19.184C27.4234 19.1661 27.5668 18.969 27.5668 18.5658ZM24.5564 22.8395C24.5654 22.7858 24.431 22.6693 24.3503 22.6603C23.8396 22.6155 23.329 22.5707 22.8272 22.5707C22.7197 22.5707 22.6122 22.732 22.5136 22.8216C22.6032 22.9291 22.6749 23.0814 22.7824 23.1173C23.0512 23.2069 23.3379 23.2427 23.6336 23.3054C23.8934 23.2517 24.1532 23.2248 24.4041 23.1352C24.4758 23.1083 24.5474 22.947 24.5564 22.8395ZM23.0243 20.5907C23.1408 20.6713 23.3469 20.6176 23.5171 20.6265C23.5081 20.4563 23.5619 20.2144 23.4633 20.1338C23.087 19.8112 23.1498 19.5335 23.4275 19.1751C23.5888 18.969 23.6425 18.6644 23.4006 18.4404C23.3379 18.3867 23.1318 18.3687 23.105 18.4135C22.8631 18.8078 22.648 19.2199 22.5047 19.4976C22.4957 20.071 22.7018 20.3846 23.0243 20.5907ZM21.1339 16.4424C21.1697 16.3976 21.107 16.2453 21.0532 16.1737C20.7845 15.8601 19.8706 15.7884 19.5749 16.0751C19.4853 16.1647 19.3689 16.3439 19.4047 16.4066C19.4585 16.5052 19.6287 16.5948 19.7541 16.6037C20.0946 16.6306 20.444 16.6127 20.9099 16.6127C20.9278 16.6037 21.0622 16.541 21.1339 16.4424ZM20.4261 19.1393C20.6949 19.184 20.9457 18.8884 20.9457 18.5748C20.9457 18.2523 20.7128 17.9387 20.4798 17.9476C20.22 17.9656 19.9602 18.2702 19.9781 18.5569C19.996 18.8615 20.1215 19.0945 20.4261 19.1393Z" fill="white"/>
<path d="M29.3548 28.8708C29.6325 28.9693 29.6056 29.0948 29.4264 29.265C28.9337 29.7309 28.4409 30.1968 27.9392 30.6627C26.7655 31.7468 25.5918 32.813 24.427 33.906C24.1941 34.13 24.0507 34.13 23.8267 33.915C23.3609 33.4849 22.8681 33.0728 22.3932 32.6607C21.0851 31.5138 19.7771 30.376 18.4062 29.1844C18.8901 28.9962 19.356 28.817 19.8129 28.6378C20.2788 28.4586 20.664 28.2167 20.7447 27.6702C20.7805 27.4462 20.9507 27.3925 21.1658 27.4014C22.3574 27.4193 23.5132 27.2312 24.66 26.9087C25.2692 26.7384 25.9233 26.7205 26.5594 26.622C26.7386 26.5951 26.8282 26.622 26.8461 26.828C26.8551 26.9893 26.9357 27.1506 26.9536 27.3118C26.9984 27.7867 27.2762 28.0734 27.6793 28.2436C28.2259 28.4766 28.7903 28.6737 29.3548 28.8708Z" fill="white"/>
<path d="M27.0969 17.9736C27.3836 17.9557 27.5718 18.1886 27.5718 18.5649C27.5718 18.9681 27.4284 19.1652 27.1148 19.1832C26.8102 19.2011 26.5952 18.9771 26.5862 18.6366C26.5772 18.2782 26.7923 18.0005 27.0969 17.9736Z" fill="#A8A29E"/>
<path d="M24.3457 22.6599C24.4263 22.6689 24.5607 22.7853 24.5517 22.8391C24.5428 22.9466 24.4711 23.1079 24.3905 23.1348C24.1396 23.2154 23.8798 23.2512 23.6199 23.305C23.3243 23.2423 23.0376 23.2064 22.7688 23.1168C22.6613 23.081 22.5896 22.9197 22.5 22.8212C22.6075 22.7316 22.715 22.5703 22.8136 22.5703C23.3243 22.5703 23.835 22.6151 24.3457 22.6599Z" fill="#A8A29E"/>
<path d="M23.5127 20.6263C23.3425 20.6173 23.1364 20.6711 23.0199 20.5904C22.6974 20.3754 22.4913 20.0708 22.5003 19.4884C22.6526 19.2107 22.8676 18.8075 23.1006 18.4043C23.1274 18.3685 23.3335 18.3774 23.3962 18.4312C23.6381 18.6552 23.5844 18.9508 23.4231 19.1659C23.1454 19.5243 23.0826 19.793 23.4589 20.1245C23.5485 20.2052 23.4948 20.456 23.5127 20.6263Z" fill="#A8A29E"/>
<path d="M21.0486 16.1736C21.1023 16.2452 21.1651 16.3886 21.1292 16.4423C21.0575 16.5409 20.9231 16.6036 20.9142 16.6126C20.4393 16.6126 20.0989 16.6305 19.7584 16.6036C19.633 16.5947 19.4628 16.514 19.409 16.4065C19.3732 16.3438 19.4896 16.1556 19.5792 16.075C19.8659 15.7973 20.7798 15.86 21.0486 16.1736Z" fill="#A8A29E"/>
<path d="M20.9423 18.5838C20.9423 18.8974 20.6914 19.1841 20.4227 19.1482C20.1091 19.0945 19.9836 18.8615 19.9657 18.5748C19.9478 18.2881 20.2076 17.9835 20.4675 17.9656C20.7094 17.9477 20.9423 18.2612 20.9423 18.5838Z" fill="#A8A29E"/>
<path d="M16.6528 24.4882C16.7783 25.0348 16.9037 25.5723 17.056 26.2085C16.5543 25.7426 16.1959 25.0437 16.0884 24.4882C15.8644 23.3504 15.9271 22.2215 16.1601 21.1016L16.393 21.1464C16.3482 21.3703 16.3034 21.5854 16.2586 21.8094C16.2138 22.0334 16.1959 22.2753 16.2317 22.4903C16.3572 23.1622 16.5095 23.8252 16.6528 24.4882Z" fill="#E7E5E4"/>
<path d="M15.5712 20.1967C15.5354 20.4835 15.5174 20.8239 15.4458 21.1554C15.383 21.478 15.1232 21.3346 15.0247 21.2361C14.72 20.9314 14.4065 20.6089 14.1914 20.2415C13.7345 19.48 14.1198 18.2257 14.9261 17.7598C15.0605 18.0375 15.1949 18.3063 15.3024 18.593C15.3203 18.6378 15.1591 18.7274 15.0963 18.817C15.0157 18.9335 14.944 19.0589 14.8723 19.1843C15.2576 19.3635 15.1322 19.6054 14.9978 19.8832C14.953 19.9728 15.0157 20.1967 15.0695 20.2147C15.2039 20.2595 15.3651 20.2147 15.5712 20.1967Z" fill="white"/>
<path d="M14.5571 17.2129C14.6288 17.3473 14.6736 17.4458 14.6736 17.4638C14.6557 17.5892 14.3063 17.4458 14.2704 17.5623C14.2525 17.5444 14.2167 17.4906 14.1719 17.419C14.2883 17.3383 14.4048 17.2756 14.5392 17.2218C14.5392 17.2218 14.5482 17.2129 14.5571 17.2129Z" fill="#A8A29E"/>
<path d="M12.201 47.8995C12.2278 48.0429 12.2368 48.2042 12.192 48.3296C12.183 48.3475 12.183 48.3565 12.1741 48.3744H11.6903C11.6365 48.2579 11.6096 48.1235 11.5917 47.9891C11.3498 46.5019 11.1617 45.4536 10.8481 43.9753C10.5972 42.7568 10.4539 41.5383 10.6151 40.3109C10.7316 39.4418 10.9735 38.5817 11.1706 37.7216C11.1975 37.623 11.3409 37.5603 11.4304 37.4707C11.4752 37.4886 11.529 37.5065 11.5738 37.5245C11.5469 37.847 11.5648 38.1785 11.4932 38.4921C11.2513 39.6747 11.1527 40.8664 11.1885 42.0669C11.1975 42.3984 11.2781 42.721 11.3229 43.0435C11.52 44.3606 11.7172 45.6866 11.9232 47.0036C12.0128 47.4605 12.1203 47.4516 12.201 47.8995Z" fill="#A8A29E"/>
</g>
<defs>
<clipPath id="clip0_24415_31340">
<rect width="48" height="48" rx="24" fill="white"/>
</clipPath>
</defs>
</svg>
