<svg width="38" height="45" viewBox="0 0 38 45" fill="none" xmlns="http://www.w3.org/2000/svg">
<path d="M0.649141 44.3559C0.603852 44.4465 0.486101 44.4555 0.431754 44.4465C0.295887 44.4284 0.132847 44.5008 0.0603851 44.3831C-0.0120771 44.2744 -0.00301922 43.8306 0.00603856 43.6856C0.069443 41.1042 0.395523 38.5408 0.893701 36.0137C1.26507 34.1297 1.79948 32.2819 2.88641 30.6515C3.52952 29.6733 4.39906 28.9305 5.25955 28.1787C6.34648 27.2367 7.5874 26.503 8.89172 25.9143C10.1055 25.3618 11.3464 24.8636 12.5964 24.3835C13.2123 24.139 13.8735 24.0031 14.4985 23.7767C14.8608 23.6498 15.2684 22.5357 15.0963 22.2006C15.051 22.1191 14.9514 22.0647 14.8608 22.0104C13.7829 21.4488 12.85 20.7061 12.0619 19.7459C12.2884 20.5883 12.5239 21.4307 12.7232 22.2821C12.7684 22.4814 12.7775 22.7531 12.6779 22.9071C12.5058 23.1607 12.2522 22.9705 12.0619 22.8618C10.6761 22.101 10.2323 20.8148 10.1779 19.3383C10.1598 18.8945 10.1779 18.4597 10.187 18.0159C10.187 17.8257 10.1236 17.7532 9.92431 17.6717C8.4026 17.0105 7.76856 15.3439 8.41166 13.804C8.53847 13.4961 8.7468 13.2425 9.00041 13.0613C9.0457 13.1338 9.08193 13.1881 9.10005 13.2062C9.13628 13.0794 9.48953 13.2334 9.50765 13.1066C9.50765 13.0885 9.46236 12.9888 9.3899 12.853C9.64352 12.7443 9.67975 12.5994 9.69786 12.3548C9.77033 11.4309 9.78844 10.498 10.1779 9.63747C10.2866 9.40197 10.4678 9.18458 10.6399 8.97626C10.6761 8.93097 10.8029 8.91285 10.8573 8.94002C10.9116 8.9672 10.9478 9.07589 10.9388 9.13929C10.8935 9.38385 10.8391 9.62841 10.7576 9.86392C10.3953 11.0233 10.2776 12.2008 10.5312 13.3964C10.5493 13.4961 10.5765 13.6048 10.6399 13.6863C11.292 14.6555 11.2377 15.6881 11.0112 16.7659C10.7757 17.8982 10.7123 19.0394 10.9388 20.1898C11.0475 20.7514 11.4188 21.4669 11.917 21.9289C11.763 21.2948 11.6362 20.7423 11.5094 20.1898C11.3645 19.5195 11.2105 18.8492 11.0837 18.1699C11.0475 17.9525 11.0656 17.6989 11.1109 17.4815C11.1562 17.2551 11.2015 17.0377 11.2467 16.8112C11.3554 16.2949 11.4641 15.7877 11.6091 15.2895C11.7993 14.6102 11.6362 13.9671 11.5366 13.3059C11.2377 11.2135 11.5004 9.25704 12.8681 7.55418C13.1579 7.20093 13.4659 6.8658 13.801 6.54877C14.0637 6.30421 14.3536 6.42196 14.3807 6.76616C14.3898 6.89297 14.3445 7.01978 14.3445 7.14658C14.3626 8.98531 15.6579 10.4436 17.551 10.4527C16.8173 9.79145 16.31 9.0306 16.3644 8.00707C16.3734 7.85309 16.4821 7.60853 16.5999 7.5723C16.8535 7.49984 16.935 7.70816 16.9894 7.94367C17.2792 9.42008 18.2575 10.1266 19.6886 10.3349C20.06 10.3893 20.4313 10.4436 20.8661 10.507C20.6849 10.1719 20.5219 9.89109 20.386 9.60124C20.3136 9.45631 20.2411 9.28422 20.2502 9.12118C20.2592 8.98531 20.3679 8.80416 20.4857 8.74981C20.5581 8.71358 20.7302 8.84039 20.857 8.90379C20.8842 8.92191 20.9023 8.97625 20.9114 9.01248C21.3643 10.1809 22.3244 10.5795 23.5472 10.7335C23.4476 10.507 23.3842 10.3168 23.2936 10.1447C22.9585 9.52878 22.8679 8.87662 22.9585 8.19728C22.9856 7.98895 23.0943 7.65382 23.2302 7.62664C23.4295 7.58136 23.7193 7.69911 23.8914 7.83497C24.5164 8.32409 24.8515 9.0306 25.1504 9.75522C25.1957 9.87297 25.2138 10.0088 25.2772 10.1085C26.0562 11.286 25.8298 12.545 25.6667 13.8222C25.5943 14.3475 25.5762 14.9182 25.7211 15.4163C26.0381 16.5576 26.0653 17.6536 25.6758 18.7949C25.3678 19.7007 25.1595 20.6427 24.9602 21.5847C24.8696 22.0285 24.9512 22.4905 25.3135 22.8981C25.4946 22.3365 25.6214 21.793 25.8298 21.2767C26.2555 20.1988 26.6812 19.13 26.6269 17.9434C26.5997 17.4543 26.5997 16.929 26.4185 16.4942C26.1015 15.7243 26.2011 14.9725 26.2917 14.2026C26.3461 13.7135 26.5544 13.2334 26.5906 12.7443C26.645 12.0197 26.6087 11.295 26.6087 10.5704C26.6087 10.4255 26.5725 10.2715 26.5997 10.1356C26.6269 10.0088 26.7265 9.90921 26.799 9.79145C26.8805 9.89109 27.0254 9.98167 27.0435 10.0904C27.1522 10.7063 27.2337 11.3313 27.3243 11.9563C27.3515 12.1374 27.3243 12.4273 27.4239 12.4726C27.6866 12.6175 28.0036 12.6809 28.3116 12.7352C28.3569 12.7443 28.4656 12.5631 28.4928 12.4635C28.8188 11.2407 28.8732 9.99978 28.7464 8.74981C28.5924 7.17376 28.0761 5.73357 27.1794 4.43831C25.9294 2.6177 24.2175 1.48547 22.0617 0.996355C20.6034 0.670275 19.1451 0.697451 17.6959 1.03259C16.926 1.21374 16.1289 1.29526 15.368 1.4583C13.6471 1.83873 12.3246 2.90755 11.1924 4.20281C10.0964 5.46184 9.31744 6.91108 8.94607 8.55054C8.69245 9.66464 8.6381 10.7878 8.8736 11.92C8.88266 11.9653 9.18157 12.5088 9.36273 12.8349C9.35367 12.8349 9.34461 12.8439 9.33555 12.8439C9.19969 12.8983 9.07288 12.9617 8.96418 13.0432C8.8102 12.7896 8.56564 12.2823 8.53847 12.2008C8.38449 11.7026 8.19427 11.2045 8.13993 10.6972C7.97689 9.02154 8.41166 7.46361 9.19063 5.99625C10.2776 3.91296 11.8174 2.2735 13.946 1.23186C14.6887 0.869549 15.4677 0.661218 16.2919 0.606872C16.8263 0.570641 17.3426 0.371369 17.868 0.271733C18.2756 0.199271 18.7013 0.181158 19.1089 0.126811C19.1995 0.117753 19.281 0.0452889 19.3625 0C19.6977 0 20.0328 0 20.377 0C20.5944 0.0452889 20.8027 0.108695 21.0201 0.126811C23.6197 0.344198 25.7392 1.47642 27.3696 3.4963C28.6649 5.09953 29.2355 6.9926 29.4801 9.0306C29.6522 10.4617 29.3532 11.7751 28.9185 13.0975C28.8641 13.2606 28.846 13.478 28.9094 13.6229C29.2083 14.3022 29.2536 15.0268 29.0453 15.6971C28.8188 16.4308 28.3388 17.0648 27.6866 17.5087C27.4058 17.6989 27.2609 17.88 27.3062 18.2152C27.3152 18.2786 27.3243 18.3511 27.2971 18.4054C26.9892 19.1934 27.4873 19.438 28.0761 19.7459C29.4891 20.4796 30.3858 21.63 30.6123 23.2604C30.6666 23.6317 30.8025 23.985 30.9202 24.3382C31.0652 24.7549 31.3641 25.0266 31.7717 25.2078C32.2699 25.4342 32.7409 25.706 33.2209 25.9505C33.4564 26.0683 33.6557 26.2132 33.6376 26.5212C33.6195 26.8291 33.4111 26.965 33.1575 27.0374C32.7771 27.1461 32.3876 27.2367 31.9166 27.3545C32.1249 27.5537 32.288 27.744 32.4872 27.8979C34.3531 29.3562 35.6575 31.2131 36.3006 33.4956C36.835 35.3887 37.1973 37.318 37.4056 39.2745C37.5234 40.443 37.7498 42.2273 37.6773 43.4139C37.6683 43.4773 37.7498 43.5498 37.7951 43.6132C37.7951 43.9121 37.7951 44.2019 37.7951 44.5008C37.623 44.5733 37.4418 44.6548 37.2697 44.7273C37.2245 44.6005 37.152 44.4737 37.1067 44.3468C37.0886 44.2925 37.0705 44.2382 37.0705 44.1838C37.0071 43.3867 37.0071 41.9556 36.9256 41.1676C36.7716 39.7817 36.6085 38.3868 36.373 37.0101C36.1828 35.8778 35.9654 34.7366 35.6122 33.6496C35.1231 32.1279 34.4075 30.724 33.2571 29.5646C31.9619 28.2602 30.4583 27.2548 28.8551 26.3762C28.3297 26.0864 27.7681 25.8418 27.2156 25.6154C27.116 25.5701 26.9076 25.6516 26.808 25.7422C25.549 26.965 24.299 28.2059 23.04 29.4287C22.2067 30.2439 21.3462 31.0319 20.5038 31.829C20.2502 32.0736 19.9784 32.3 19.7339 32.5536C19.2085 33.0971 18.9277 33.1333 18.348 32.617C17.3245 31.7203 16.31 30.8055 15.3137 29.8816C14.0728 28.7313 12.8409 27.5719 11.6 26.4215C11.5819 26.4034 11.5638 26.4034 11.5456 26.3943C11.3192 26.186 11.1018 25.8418 10.8573 25.8146C10.5402 25.7875 10.187 25.9958 9.86996 26.1407C8.22144 26.8925 6.69068 27.8255 5.3139 29.003C3.63821 30.4341 2.47881 32.2185 1.98969 34.3924C1.65455 35.896 1.29224 37.3995 1.0658 38.9303C0.848412 40.4339 0.785007 41.9647 0.658198 43.4864C0.640083 43.6766 0.658198 44.1385 0.61291 44.3197C0.658198 44.3287 0.658199 44.3469 0.649141 44.3559ZM32.8405 26.503C32.3514 26.2494 31.9257 26.032 31.509 25.7965C30.9474 25.4795 30.4855 25.0719 30.3315 24.4107C30.1956 23.8401 30.0779 23.2694 29.8967 22.7169C29.4891 21.4397 28.538 20.6517 27.3877 20.063C27.125 19.9271 27.0435 19.9996 26.9439 20.2713C26.7537 20.7966 26.5453 21.3311 26.2645 21.8111C26.0109 22.2368 25.9294 22.6535 25.9656 23.1336C25.9838 23.3419 25.9475 23.7042 25.8479 23.7404C25.6486 23.8129 25.3859 23.7223 25.1595 23.6498C25.0327 23.6136 24.9331 23.4777 24.8244 23.3781C24.4711 23.0339 24.3443 22.5991 24.3081 22.1281C24.299 22.0376 24.1813 21.956 24.1088 21.8655C24.0544 21.9651 23.9548 22.0557 23.9458 22.1553C23.9367 22.4633 23.9276 22.7894 23.9729 23.0883C24.0816 23.7948 24.2265 23.9125 24.9602 24.0574C25.1233 24.0846 25.2772 24.1571 25.4312 24.2205C25.7573 24.3654 26.0743 24.5103 26.4819 24.7005C26.4819 24.4379 26.4457 24.2839 26.491 24.148C26.5453 23.985 26.6631 23.8491 26.7537 23.7042C26.8442 23.8401 26.9982 23.9669 27.0254 24.1209C27.1341 24.8364 27.4511 25.1806 28.4746 25.244C28.1214 24.2748 27.7953 23.3509 27.4602 22.4361C27.5145 22.4361 27.5779 22.418 27.6323 22.4361C27.7138 22.4633 27.7953 22.4904 27.8587 22.5448C28.4022 23.043 28.7736 23.6136 28.7826 24.3926C28.7917 25.081 28.9275 25.706 29.6431 26.032C29.9511 26.177 30.25 26.3309 30.5217 26.5302C31.2735 27.0646 32.0162 26.8925 32.8405 26.503ZM28.2391 15.9145C28.6739 15.2805 28.6558 14.2026 28.1486 13.6319C27.9583 13.4146 27.6323 13.3149 27.3696 13.1609C27.2609 13.3874 27.1613 13.6229 27.0526 13.8584C27.0435 13.8765 27.0616 13.8946 27.0526 13.8946C27.3243 13.8675 27.5417 13.8312 27.7591 13.8403C27.8406 13.8403 27.9312 13.9399 28.0127 13.9943C27.9583 14.0758 27.9131 14.1664 27.8406 14.2207C27.6957 14.3385 27.5145 14.4109 27.3877 14.5377C27.2518 14.6736 26.8533 14.8638 27.4149 14.9906C27.5598 15.0178 27.6957 15.1808 27.7772 15.3167C27.8315 15.4163 27.7772 15.5794 27.7681 15.7062C27.6594 15.679 27.5417 15.6609 27.4421 15.6156C27.3696 15.5794 27.3243 15.4978 27.2518 15.4616C27.1703 15.4163 27.0797 15.4073 26.9892 15.3801C26.9801 15.4707 26.9439 15.5703 26.962 15.6609C27.0526 16.1047 27.1613 16.5395 27.27 17.0196C27.7953 16.7659 27.9765 16.304 28.2391 15.9145ZM26.2193 25.552C26.3189 25.4523 26.4366 25.3346 26.2464 25.1897C25.7845 24.8455 25.3135 24.9179 24.9874 25.3799C24.9149 25.4795 24.8425 25.5882 24.7519 25.6697C23.0853 27.1643 21.4096 28.6588 19.7339 30.1443C19.5074 30.3526 19.2538 30.6787 19.0183 30.6787C18.7738 30.6787 18.5111 30.3617 18.2846 30.1533C16.4912 28.5229 14.7068 26.8835 12.9134 25.2531C12.8137 25.1625 12.6145 25.0629 12.4967 25.0991C12.1435 25.1987 11.7993 25.3527 11.3736 25.5248C11.7449 25.8418 12.0529 26.0954 12.3427 26.3581C14.4441 28.2874 16.5455 30.2077 18.6469 32.137C19.0183 32.4721 19.0274 32.4812 19.3897 32.1189C19.9603 31.5663 20.5129 30.9866 21.0925 30.4341C22.3969 29.1932 23.7012 27.9613 25.0055 26.7295C25.4222 26.3491 25.8207 25.9505 26.2193 25.552ZM24.4349 19.5557C25.3407 18.4416 25.6486 17.1645 25.1414 15.7877C24.8606 15.0087 24.8062 14.2479 25.0417 13.4689C25.4403 12.1646 25.2048 10.9418 24.5617 9.79145C24.299 9.32951 23.982 8.89474 23.6921 8.45091C23.6468 8.47808 23.6016 8.49619 23.5563 8.52337C23.5744 9.25705 23.8099 9.92732 24.2265 10.5342C24.5073 10.9509 24.4802 11.0958 24.0001 11.2498C23.6559 11.3584 23.2936 11.3856 22.9313 11.449C22.9675 11.4943 22.9856 11.5305 23.0128 11.5577C23.1306 11.6755 23.4295 11.7389 23.2755 11.9653C23.194 12.0831 22.9675 12.1465 22.7954 12.1555C22.4422 12.1736 22.0798 12.1374 21.7266 12.1465C21.5001 12.1465 21.3643 12.074 21.3281 11.8476C21.3009 11.6302 21.4186 11.5577 21.6179 11.5305C21.9349 11.4853 22.261 11.4309 22.6324 11.3675C22.3335 11.0867 22.0164 11.0867 21.6904 11.0867C21.0201 11.0777 20.3589 11.0233 19.6886 10.9961C19.3625 10.9871 19.0274 10.8693 18.7466 11.1592C18.6741 11.2316 18.5111 11.2316 18.3843 11.2226C18.031 11.2045 17.6778 11.1773 17.3245 11.132C16.0927 10.969 15.051 10.5251 14.4623 9.30233C14.1633 8.67735 13.7739 8.10671 13.8192 7.37303C13.8192 7.34586 13.7739 7.30962 13.6742 7.20093C13.3391 7.81686 13.004 8.36939 12.7141 8.94908C11.9985 10.3983 11.8717 11.92 12.2612 13.478C12.4605 14.266 12.4333 15.0268 12.1435 15.8058C11.8989 16.458 11.8355 17.1464 12.0076 17.8438C12.4152 19.447 13.5021 20.4796 14.8699 21.2405C16.2738 22.0104 17.8046 22.2912 19.4078 22.0738C19.5346 22.0557 19.6614 22.0466 19.7882 22.0376C21.7085 21.8655 23.2483 21.014 24.4349 19.5557ZM24.4439 25.0357C24.6251 24.8636 24.6523 24.7368 24.3715 24.6371C23.8008 24.4379 23.2302 24.2386 22.6777 24.0031C22.2701 23.831 21.9893 23.5411 21.944 23.0611C21.9259 22.898 21.8534 22.735 21.8353 22.572C21.8172 22.3636 21.7266 22.3365 21.5454 22.3636C20.9023 22.4633 20.2411 22.4814 19.6252 22.6535C18.4658 22.9796 17.2883 23.1607 16.0927 23.1517C15.8753 23.1517 15.7032 23.197 15.6669 23.4234C15.5854 23.9759 15.1869 24.2295 14.7249 24.4016C14.263 24.5828 13.792 24.7639 13.3029 24.9542C14.6796 26.1588 16.0111 27.3092 17.3336 28.4686C17.8227 28.8943 18.3118 29.3019 18.7828 29.7367C19.0093 29.9541 19.1542 29.945 19.3897 29.7276C20.5581 28.6226 21.7538 27.5356 22.9403 26.4487C23.4476 25.9777 23.9458 25.5067 24.4439 25.0357ZM23.203 23.523C23.2302 23.5049 23.2483 23.4777 23.2755 23.4596C23.2483 22.8799 23.2121 22.3002 23.1849 21.6753C22.3878 22.0104 22.3335 22.0466 22.5599 22.6263C22.6958 22.9615 22.9856 23.2241 23.203 23.523ZM10.3138 16.8384C10.3772 16.5033 10.4044 16.1591 10.4406 15.8692C10.2323 15.8873 10.0692 15.9236 9.92431 15.8873C9.86996 15.8692 9.81561 15.6428 9.85184 15.5522C9.98771 15.2714 10.1145 15.0178 9.72504 14.8457C9.7975 14.7189 9.86996 14.5921 9.95148 14.4743C10.0149 14.3928 10.1689 14.2932 10.1598 14.2479C10.0511 13.958 9.90619 13.6863 9.77938 13.4055C8.96418 13.8765 8.5747 15.1446 9.03664 15.9145C9.26309 16.2859 9.57105 16.612 9.87902 16.9199C9.97865 17.0196 10.2504 17.1645 10.3138 16.8384Z" fill="#A8A29E"/>
<path d="M37.1596 44.3543H32.3227C32.4133 43.8018 32.4767 43.2492 32.531 42.6967C32.6579 41.3833 32.7575 40.07 32.8934 38.7566C33.0202 37.4976 33.1379 36.2476 32.8934 34.9886C32.8571 34.8165 32.7394 34.6534 32.6669 34.4904C32.6126 34.5085 32.5492 34.5176 32.4858 34.5357C32.4858 35.0429 32.5039 35.5501 32.4858 36.0483C32.4586 36.6552 32.3952 37.2621 32.3408 37.8599C32.2503 38.7385 32.1597 39.608 32.06 40.4866C31.9513 41.4649 31.8245 42.434 31.7249 43.4123C31.6887 43.7293 31.6796 44.0463 31.6796 44.3543H6.99716C7.00621 44.3362 7.01527 44.3271 7.01527 44.309C7.06056 44.1731 7.0515 44.0192 7.02433 43.8742C6.94281 43.4213 6.82506 43.4304 6.7526 42.9775C6.54427 41.646 6.345 40.3055 6.14573 38.974C6.09138 38.6479 6.01892 38.3128 6.00986 37.9867C5.97363 36.7729 6.07326 35.5682 6.31782 34.3726C6.38123 34.0556 6.37217 33.7205 6.39934 33.3944C6.35406 33.3763 6.29971 33.3582 6.25442 33.34C6.16384 33.4216 6.01892 33.494 5.99174 33.5937C5.78342 34.4632 5.54791 35.3328 5.43016 36.2114C5.26712 37.4523 5.40299 38.6841 5.66566 39.916C5.97363 41.4105 6.1729 42.4703 6.41746 43.9739C6.43558 44.1097 6.46275 44.2456 6.51709 44.3634H0.647652C0.65671 44.3543 0.65671 44.3452 0.65671 44.3271C0.701999 44.146 0.683883 43.684 0.701999 43.4938C0.828808 41.9721 0.892212 40.4413 1.1096 38.9377C1.33604 37.416 1.69836 35.9124 2.03349 34.3998C2.51356 32.2259 3.67295 30.4416 5.3577 29.0104C6.73448 27.8329 8.26525 26.9 9.91376 26.1482C10.2308 26.0032 10.584 25.7949 10.9011 25.8221C11.1456 25.8402 11.363 26.1935 11.5895 26.4018C11.6076 26.4199 11.6257 26.4199 11.6438 26.429C12.8847 27.5884 14.1075 28.7477 15.3575 29.889C16.3629 30.8129 17.3683 31.7278 18.3918 32.6245C18.9715 33.1408 19.2523 33.1045 19.7777 32.5611C20.0222 32.3075 20.294 32.081 20.5476 31.8364C21.399 31.0394 22.2505 30.2423 23.0838 29.4361C24.3428 28.2133 25.5928 26.9724 26.8518 25.7496C26.9424 25.6591 27.1507 25.5775 27.2594 25.6228C27.8119 25.8493 28.3735 26.0938 28.8989 26.3837C30.493 27.2623 32.0057 28.2677 33.301 29.572C34.4513 30.7314 35.1759 32.1354 35.656 33.6571C36.0002 34.744 36.2176 35.8853 36.4168 37.0175C36.6523 38.3943 36.8154 39.7801 36.9694 41.175C37.0599 41.963 37.0509 43.3942 37.1143 44.1913C37.1324 44.2365 37.1415 44.2999 37.1596 44.3543Z" fill="#E7E5E4"/>
<path d="M32.8946 34.9896C33.1391 36.2396 33.0214 37.4986 32.8946 38.7577C32.7587 40.071 32.6591 41.3844 32.5323 42.6978C32.4779 43.2503 32.4055 43.8119 32.3239 44.3554H31.6718C31.6718 44.0383 31.6808 43.7213 31.7171 43.4133C31.8167 42.4351 31.9435 41.4659 32.0522 40.4877C32.1518 39.6091 32.2424 38.7395 32.333 37.8609C32.3964 37.2541 32.4508 36.6562 32.4779 36.0494C32.5051 35.5421 32.4779 35.044 32.4779 34.5367C32.5413 34.5186 32.5957 34.5096 32.6591 34.4914C32.7406 34.6545 32.8584 34.8085 32.8946 34.9896Z" fill="#A8A29E"/>
<path d="M31.6797 44.3563H32.3318C32.3137 44.465 32.2956 44.5737 32.2775 44.6733C32.2594 44.8001 32.0782 44.8907 31.9786 44.9994C31.879 44.8816 31.6978 44.782 31.6978 44.6552C31.6797 44.5646 31.6797 44.4559 31.6797 44.3563Z" fill="#A8A29E"/>
<path d="M31.5101 25.7958C31.9267 26.0313 32.3525 26.2396 32.8416 26.5023C32.0173 26.8918 31.2746 27.0639 30.5228 26.5204C30.2511 26.3212 29.9522 26.1672 29.6442 26.0222C28.9377 25.6871 28.7928 25.0621 28.7837 24.3828C28.7746 23.6129 28.4033 23.0332 27.8598 22.535C27.7964 22.4807 27.7149 22.4444 27.6334 22.4263C27.579 22.4082 27.5156 22.4263 27.4613 22.4263C27.7964 23.3502 28.1315 24.2741 28.4757 25.2342C27.4613 25.1708 27.1352 24.8266 27.0265 24.1111C27.0084 23.9661 26.8544 23.8303 26.7548 23.6944C26.6642 23.8393 26.5464 23.9842 26.4921 24.1382C26.4468 24.265 26.483 24.4281 26.483 24.6907C26.0754 24.5096 25.7493 24.3556 25.4323 24.2107C25.2783 24.1473 25.1244 24.0748 24.9613 24.0476C24.2276 23.9027 24.0827 23.785 23.974 23.0785C23.9287 22.7705 23.9378 22.4535 23.9468 22.1455C23.9559 22.0459 24.0465 21.9553 24.1099 21.8557C24.1823 21.9462 24.3001 22.0278 24.3092 22.1183C24.3454 22.5984 24.4722 23.0241 24.8254 23.3683C24.9251 23.4679 25.0338 23.6038 25.1606 23.64C25.387 23.7125 25.6497 23.794 25.849 23.7306C25.9486 23.6944 25.9848 23.3321 25.9667 23.1238C25.9305 22.6437 26.012 22.227 26.2656 21.8013C26.5464 21.3213 26.7548 20.7869 26.945 20.2615C27.0446 19.9898 27.1261 19.9173 27.3888 20.0532C28.5391 20.6419 29.4902 21.43 29.8978 22.7071C30.0699 23.2596 30.1877 23.8393 30.3326 24.4009C30.4866 25.0802 30.9485 25.4878 31.5101 25.7958Z" fill="#E7E5E4"/>
<path d="M28.7824 8.76025C28.9002 10.0102 28.8458 11.2602 28.5288 12.4739C28.5016 12.5826 28.3929 12.7547 28.3476 12.7457C28.0397 12.6913 27.7227 12.6279 27.46 12.483C27.3603 12.4287 27.3875 12.1388 27.3603 11.9667C27.2698 11.3417 27.1882 10.7167 27.0796 10.1008C27.0614 9.99211 26.9165 9.90153 26.835 9.80189C26.7625 9.91965 26.6629 10.0193 26.6357 10.1461C26.6086 10.282 26.6448 10.4359 26.6448 10.5809C26.6448 11.3055 26.681 12.0301 26.6267 12.7547C26.5904 13.2439 26.3821 13.7239 26.3278 14.213C26.2372 14.9739 26.1375 15.7347 26.4546 16.5046C26.6357 16.9394 26.6357 17.4648 26.6629 17.9539C26.7172 19.1405 26.3006 20.2093 25.8658 21.2871C25.6575 21.8034 25.5216 22.3469 25.3495 22.9085C24.9872 22.5009 24.9147 22.0299 24.9963 21.5951C25.1865 20.6531 25.4039 19.7111 25.7118 18.8053C26.1013 17.664 26.0741 16.5771 25.7571 15.4268C25.6213 14.9286 25.6394 14.3489 25.7028 13.8326C25.8658 12.5555 26.1013 11.2964 25.3133 10.1189C25.2499 10.0193 25.2318 9.88342 25.1865 9.76567C24.8876 9.04105 24.5524 8.3436 23.9275 7.84542C23.7463 7.70955 23.4564 7.5918 23.2662 7.63709C23.1304 7.66426 23.0217 7.9994 22.9945 8.20773C22.9039 8.88706 22.9945 9.54828 23.3296 10.1551C23.4202 10.3272 23.4836 10.5084 23.5833 10.7439C22.3605 10.5899 21.4003 10.1914 20.9474 9.02293C20.9293 8.9867 20.9203 8.93235 20.8931 8.91423C20.7663 8.85083 20.6032 8.72402 20.5217 8.76025C20.404 8.82366 20.2953 8.99576 20.2862 9.13162C20.2772 9.28561 20.3496 9.4577 20.4221 9.61168C20.558 9.90153 20.721 10.1823 20.9022 10.5175C20.4674 10.4541 20.096 10.3997 19.7246 10.3454C18.3026 10.137 17.3153 9.43959 17.0254 7.95411C16.9801 7.71861 16.8986 7.51028 16.6359 7.58274C16.5272 7.61897 16.4095 7.85447 16.4004 8.01751C16.3461 9.04104 16.8533 9.80189 17.587 10.4631C15.6849 10.4541 14.3896 8.99575 14.3805 7.15702C14.3805 7.03022 14.4258 6.90341 14.4168 6.7766C14.3896 6.43241 14.0998 6.3056 13.8371 6.55921C13.5019 6.86718 13.1849 7.20231 12.9041 7.56462C11.5273 9.25843 11.2737 11.224 11.5726 13.3163C11.6632 13.9775 11.8353 14.6206 11.6451 15.3C11.5002 15.7981 11.3915 16.3144 11.2828 16.8217L11.0473 16.7764C11.2737 15.6985 11.3281 14.6569 10.6759 13.6967C10.6216 13.6152 10.5944 13.5065 10.5672 13.4069C10.3136 12.2113 10.4314 11.0338 10.7937 9.87436C10.8661 9.63885 10.9295 9.39429 10.9748 9.14973C10.9839 9.08633 10.9476 8.96858 10.8933 8.95047C10.839 8.92329 10.7121 8.94141 10.6759 8.98669C10.5129 9.19502 10.3227 9.40335 10.214 9.64791C9.82448 10.5084 9.80637 11.4414 9.73391 12.3652C9.71579 12.6098 9.67956 12.7547 9.42594 12.8634C9.25384 12.5373 8.94588 11.9939 8.93682 11.9486C8.69226 10.8164 8.75567 9.70226 9.00928 8.5791C9.38065 6.93058 10.1596 5.4904 11.2556 4.23136C12.3878 2.92705 13.7103 1.86729 15.4312 1.48686C16.2012 1.31476 16.9892 1.23324 17.7591 1.06115C19.2083 0.735065 20.6666 0.698838 22.125 1.02492C24.2807 1.50498 25.9836 2.64626 27.2426 4.46687C28.1212 5.74402 28.6375 7.19326 28.7824 8.76025Z" fill="#E7E5E4"/>
<path d="M28.1481 13.6314C28.6554 14.202 28.6735 15.2799 28.2387 15.9139C27.976 16.3034 27.7949 16.7654 27.2695 17.019C27.1608 16.5389 27.0521 16.0951 26.9616 15.6603C26.9434 15.5697 26.9797 15.4701 26.9887 15.3795C27.0793 15.4067 27.1699 15.4248 27.2514 15.461C27.3239 15.4973 27.3692 15.5879 27.4416 15.615C27.5413 15.6603 27.659 15.6694 27.7677 15.7056C27.7768 15.5697 27.8311 15.4158 27.7768 15.3161C27.7043 15.1803 27.5594 15.0172 27.4145 14.99C26.8438 14.8632 27.2424 14.673 27.3873 14.5372C27.5141 14.4103 27.6952 14.3379 27.8402 14.2201C27.9126 14.1658 27.9579 14.0662 28.0123 13.9937C27.9307 13.9393 27.8402 13.8488 27.7586 13.8397C27.5413 13.8307 27.3148 13.8669 27.0521 13.8941C27.0521 13.8941 27.0431 13.8759 27.0521 13.8578C27.1518 13.6223 27.2605 13.3959 27.3692 13.1604C27.6318 13.3144 27.9579 13.414 28.1481 13.6314Z" fill="white"/>
<path d="M26.2581 25.1894C26.4483 25.3344 26.3306 25.4521 26.231 25.5518C25.8324 25.9503 25.4248 26.3489 25.0172 26.7383C23.7129 27.9793 22.4086 29.202 21.1043 30.443C20.5246 30.9955 19.972 31.5661 19.4014 32.1277C19.0391 32.481 19.03 32.481 18.6587 32.1458C16.5572 30.2165 14.4558 28.2872 12.3544 26.367C12.0646 26.1043 11.7566 25.8507 11.3853 25.5336C11.811 25.3706 12.1552 25.2076 12.5084 25.1079C12.6262 25.0808 12.8164 25.1713 12.9251 25.2619C14.7185 26.8923 16.5029 28.5318 18.2963 30.1622C18.5228 30.3705 18.7855 30.6875 19.03 30.6875C19.2746 30.6875 19.5191 30.3614 19.7456 30.1531C21.4213 28.6676 23.097 27.1731 24.7636 25.6786C24.8542 25.597 24.9266 25.4884 24.9991 25.3887C25.3252 24.9087 25.7871 24.8453 26.2581 25.1894Z" fill="#F5F5F4"/>
<path d="M25.1431 15.7871C25.6413 17.1639 25.3423 18.4411 24.4366 19.5552C23.2409 21.0135 21.7102 21.8649 19.808 22.0279C19.6812 22.037 19.5544 22.0461 19.4276 22.0642C17.8244 22.2906 16.2936 22.0098 14.8897 21.2309C13.5219 20.4791 12.4259 19.4374 12.0274 17.8342C11.8463 17.1277 11.9187 16.4484 12.1633 15.7962C12.4531 15.0172 12.4712 14.2654 12.281 13.4683C11.8915 11.9104 12.0183 10.3887 12.7339 8.93946C13.0238 8.35976 13.3498 7.80724 13.694 7.19131C13.7846 7.30001 13.839 7.32718 13.839 7.36341C13.8027 8.09709 14.1832 8.66773 14.4821 9.29272C15.0708 10.5155 16.1125 10.9593 17.3443 11.1224C17.6976 11.1677 18.0508 11.1948 18.4041 11.213C18.5218 11.222 18.6939 11.222 18.7664 11.1496C19.0472 10.8597 19.3823 10.9684 19.7084 10.9865C20.3787 11.0137 21.0399 11.059 21.7102 11.0771C22.0453 11.0771 22.3623 11.0771 22.6522 11.3579C22.2808 11.4213 21.9638 11.4756 21.6377 11.5209C21.4384 11.5481 21.3207 11.6115 21.3479 11.8379C21.375 12.0734 21.52 12.1459 21.7464 12.1369C22.0997 12.1278 22.462 12.1731 22.8152 12.1459C22.9873 12.1369 23.2138 12.0734 23.2953 11.9557C23.4493 11.7202 23.1594 11.6658 23.0326 11.5481C23.0054 11.5209 22.9873 11.4847 22.9511 11.4394C23.3134 11.376 23.6757 11.3488 24.0199 11.2401C24.5 11.0862 24.5362 10.9412 24.2464 10.5246C23.8297 9.90864 23.5942 9.24742 23.5761 8.51374C23.6214 8.48657 23.6667 8.46846 23.7119 8.44128C24.0018 8.88511 24.3188 9.31989 24.5815 9.78183C25.2246 10.9412 25.4601 12.164 25.0616 13.4593C24.817 14.2473 24.8623 15.0082 25.1431 15.7871ZM22.5616 14.2201C22.5616 13.8397 22.3714 13.6042 22.0815 13.6223C21.7826 13.6404 21.5653 13.9212 21.5653 14.2926C21.5743 14.6368 21.7826 14.8632 22.0997 14.8451C22.4167 14.827 22.5616 14.6277 22.5616 14.2201ZM19.5182 18.5407C19.5272 18.4864 19.3914 18.3686 19.3099 18.3595C18.7936 18.3143 18.2773 18.269 17.77 18.269C17.6613 18.269 17.5527 18.432 17.453 18.5226C17.5436 18.6313 17.6161 18.7853 17.7248 18.8215C17.9965 18.9121 18.2863 18.9483 18.5852 19.0117C18.8479 18.9574 19.1106 18.9302 19.3642 18.8396C19.4367 18.8124 19.5091 18.6494 19.5182 18.5407ZM17.9693 16.2672C18.0871 16.3487 18.2954 16.2944 18.4675 16.3034C18.4584 16.1313 18.5128 15.8868 18.4131 15.8052C18.0327 15.4792 18.0961 15.1984 18.3769 14.8361C18.54 14.6277 18.5943 14.3198 18.3497 14.0933C18.2863 14.039 18.078 14.0209 18.0508 14.0662C17.8063 14.4647 17.5889 14.8814 17.444 15.1622C17.4349 15.7418 17.6432 16.0589 17.9693 16.2672ZM16.0581 12.0735C16.0944 12.0282 16.0309 11.8742 15.9766 11.8017C15.7049 11.4847 14.781 11.4122 14.4821 11.7021C14.3915 11.7927 14.2737 11.9738 14.31 12.0372C14.3643 12.1369 14.5364 12.2274 14.6632 12.2365C15.0074 12.2637 15.3607 12.2455 15.8317 12.2455C15.8498 12.2365 15.9857 12.1731 16.0581 12.0735ZM15.3426 14.7998C15.6143 14.8451 15.8679 14.5462 15.8679 14.2292C15.8679 13.9031 15.6324 13.5861 15.3969 13.5952C15.1342 13.6133 14.8715 13.9212 14.8897 14.2111C14.9078 14.519 15.0346 14.7546 15.3426 14.7998Z" fill="white"/>
<path d="M24.3692 24.6381C24.65 24.7378 24.6228 24.8646 24.4416 25.0367C23.9435 25.5077 23.4453 25.9787 22.9381 26.4497C21.7515 27.5457 20.5649 28.6236 19.3874 29.7286C19.1519 29.955 19.007 29.955 18.7805 29.7377C18.3095 29.3029 17.8113 28.8862 17.3313 28.4696C16.0088 27.3102 14.6864 26.1598 13.3006 24.9551C13.7897 24.7649 14.2607 24.5838 14.7226 24.4026C15.1936 24.2215 15.5831 23.9769 15.6647 23.4244C15.7009 23.1979 15.873 23.1436 16.0904 23.1526C17.2951 23.1708 18.4635 22.9806 19.6229 22.6545C20.2388 22.4824 20.9 22.4643 21.5431 22.3646C21.7243 22.3375 21.8149 22.3646 21.833 22.573C21.8421 22.736 21.9236 22.899 21.9417 23.0621C21.987 23.5421 22.2678 23.832 22.6754 24.0041C23.2279 24.2396 23.7985 24.4389 24.3692 24.6381Z" fill="white"/>
<path d="M22.0866 13.6214C22.3764 13.6033 22.5666 13.8388 22.5666 14.2192C22.5666 14.6268 22.4217 14.8261 22.1047 14.8442C21.7967 14.8623 21.5793 14.6359 21.5703 14.2917C21.5612 13.9294 21.7786 13.6486 22.0866 13.6214Z" fill="#A8A29E"/>
<path d="M19.3051 18.3591C19.3867 18.3682 19.5225 18.4859 19.5135 18.5403C19.5044 18.649 19.4319 18.812 19.3504 18.8392C19.0968 18.9207 18.8341 18.9569 18.5715 19.0113C18.2725 18.9479 17.9827 18.9116 17.711 18.8211C17.6023 18.7848 17.5298 18.6218 17.4392 18.5221C17.5479 18.4316 17.6566 18.2685 17.7563 18.2685C18.2725 18.2685 18.7888 18.3138 19.3051 18.3591Z" fill="#A8A29E"/>
<path d="M18.463 16.3032C18.2909 16.2941 18.0826 16.3485 17.9649 16.2669C17.6388 16.0496 17.4305 15.7416 17.4395 15.1528C17.5935 14.872 17.8109 14.4644 18.0464 14.0568C18.0736 14.0206 18.2819 14.0297 18.3453 14.084C18.5898 14.3105 18.5355 14.6094 18.3725 14.8268C18.0917 15.1891 18.0283 15.4608 18.4087 15.7959C18.4993 15.8775 18.4449 16.1311 18.463 16.3032Z" fill="#A8A29E"/>
<path d="M15.9719 11.8016C16.0262 11.8741 16.0896 12.019 16.0534 12.0733C15.9809 12.173 15.8451 12.2364 15.836 12.2454C15.356 12.2454 15.0118 12.2636 14.6676 12.2364C14.5408 12.2273 14.3687 12.1458 14.3143 12.0371C14.2781 11.9737 14.3958 11.7835 14.4864 11.702C14.7763 11.4212 15.7002 11.4846 15.9719 11.8016Z" fill="#A8A29E"/>
<path d="M15.8644 14.2383C15.8644 14.5553 15.6108 14.8451 15.3391 14.8089C15.0221 14.7546 14.8953 14.5191 14.8771 14.2292C14.859 13.9394 15.1217 13.6314 15.3844 13.6133C15.6289 13.5952 15.8644 13.9122 15.8644 14.2383Z" fill="#A8A29E"/>
<path d="M11.5279 20.2075C11.6547 20.76 11.7815 21.3035 11.9355 21.9466C11.4283 21.4756 11.066 20.7691 10.9573 20.2075C10.7308 19.0572 10.7942 17.9159 11.0297 16.7837L11.2653 16.829C11.22 17.0554 11.1747 17.2728 11.1294 17.4992C11.0841 17.7257 11.066 17.9702 11.1022 18.1876C11.229 18.867 11.383 19.5372 11.5279 20.2075Z" fill="#E7E5E4"/>
<path d="M10.4344 15.8689C10.3982 16.1588 10.3801 16.503 10.3076 16.8381C10.2442 17.1642 9.98152 17.0193 9.88189 16.9196C9.57392 16.6117 9.2569 16.2856 9.03951 15.9142C8.57757 15.1443 8.96705 13.8762 9.78225 13.4052C9.91812 13.686 10.054 13.9578 10.1627 14.2476C10.1808 14.2929 10.0178 14.3835 9.95435 14.474C9.87283 14.5918 9.80037 14.7186 9.7279 14.8454C10.1174 15.0266 9.99058 15.2711 9.85471 15.5519C9.80942 15.6425 9.87283 15.8689 9.92718 15.8871C10.063 15.9323 10.2261 15.8871 10.4344 15.8689Z" fill="white"/>
<path d="M9.40923 12.8523C9.48169 12.9882 9.52698 13.0878 9.52698 13.106C9.50887 13.2328 9.15561 13.0879 9.11938 13.2056C9.10127 13.1875 9.06503 13.1331 9.01975 13.0607C9.1375 12.9792 9.25525 12.9157 9.39112 12.8614C9.39112 12.8614 9.40017 12.8523 9.40923 12.8523Z" fill="#A8A29E"/>
<path d="M7.02722 43.8756C7.05439 44.0206 7.06345 44.1836 7.01816 44.3104C7.0091 44.3285 7.0091 44.3376 7.00004 44.3557H6.51092C6.45658 44.2379 6.4294 44.1021 6.41129 43.9662C6.16673 42.4626 5.97651 41.4029 5.65949 39.9083C5.40587 38.6765 5.26095 37.4446 5.42399 36.2037C5.54174 35.3251 5.7863 34.4556 5.98557 33.586C6.01275 33.4864 6.15767 33.423 6.24825 33.3324C6.29354 33.3505 6.34788 33.3686 6.39317 33.3867C6.366 33.7128 6.38412 34.0479 6.31165 34.365C6.06709 35.5606 5.96746 36.7653 6.00369 37.979C6.01275 38.3142 6.09427 38.6402 6.13955 38.9663C6.33883 40.2978 6.5381 41.6384 6.74643 42.9699C6.837 43.4318 6.9457 43.4227 7.02722 43.8756Z" fill="#A8A29E"/>
<path d="M6.50812 44.3563H6.99724C6.95195 44.4378 6.85231 44.5103 6.76174 44.5284C6.69833 44.5465 6.56246 44.4559 6.52623 44.3835C6.51718 44.3744 6.51718 44.3654 6.50812 44.3563Z" fill="#A8A29E"/>
</svg>
