<svg width="72" height="72" viewBox="0 0 72 72" fill="none" xmlns="http://www.w3.org/2000/svg">
<g clip-path="url(#clip0_24415_31337)">
<rect width="72" height="72" rx="36" fill="white"/>
<path d="M66.7316 62.1483C67.2328 65.2344 67.6417 68.347 67.457 71.4992C67.4307 71.9476 67.5098 72.4092 67.4702 72.8444C67.4702 72.8576 67.4702 72.8708 67.457 72.884H66.5338C66.4415 72.7257 66.481 72.4751 66.481 72.2641C66.5734 68.6504 66.1381 65.063 65.7029 61.4756C65.5446 60.1567 65.0303 58.8906 64.661 57.5981C63.9884 55.2505 62.9992 53.0347 61.8518 50.885C60.4537 48.2867 58.2512 46.6249 55.6134 45.4643C53.3449 44.462 50.9577 43.8289 48.531 43.3805C47.4891 43.1827 46.4076 43.1827 45.3525 43.0771C44.904 43.0376 44.7458 43.2222 44.7458 43.6443C44.7458 44.5543 44.1786 45.2006 43.5588 45.7149C42.2663 46.7832 40.9078 47.7724 39.5625 48.7747C39.3647 48.9198 39.0086 49.0517 38.824 48.9726C38.4019 48.7879 38.2568 49.0121 38.0194 49.2759C37.2677 50.1068 37.0303 50.9245 37.294 52.1115C37.8876 54.7757 38.1909 57.5058 38.336 60.2359C38.4547 62.5175 38.6921 64.7992 38.8767 67.0809C38.9822 68.4789 39.1009 69.8769 39.18 71.2881C39.2064 71.6574 39.1669 72.0267 39.1141 72.3828C39.0877 72.5543 38.969 72.7125 38.8767 72.8708H38.824C38.7184 72.7389 38.5997 72.607 38.5338 72.4488C38.4547 72.2509 38.4151 72.0399 38.4019 71.8289C38.2436 70.1011 38.0986 68.3602 37.9403 66.6325C37.7688 64.6673 37.5842 62.7022 37.4127 60.737C37.2808 59.2467 37.1754 57.7695 37.0303 56.2792C36.8588 54.6438 36.6478 53.0216 36.4763 51.3993C36.4236 50.9245 36.173 50.7926 35.7378 50.7926C35.0124 50.7794 34.2738 50.7399 33.5484 50.7003C33.1923 50.6739 33.1659 50.8718 33.1132 51.1487C32.823 52.705 32.4801 54.2481 32.2163 55.8044C31.7943 58.2839 31.3854 60.7634 31.0293 63.2561C30.7392 65.3004 30.5545 67.371 30.3303 69.4285C30.1984 70.6419 30.1061 70.8002 30.0006 72.0135C29.9874 72.1586 29.9742 72.3301 29.8951 72.462C29.8159 72.607 29.6577 72.7125 29.539 72.8312C29.4598 72.6862 29.3016 72.5543 29.3016 72.4092C29.262 71.6179 29.2488 70.8397 29.262 70.0484C29.328 66.0522 30.027 63.177 30.726 59.2599C31.0689 57.3211 31.3458 55.356 31.6624 53.4172C31.7943 52.6391 31.8734 51.8346 32.1372 51.096C32.5197 50.0277 31.7547 49.3155 31.4777 48.4582C31.4514 48.3923 31.1612 48.3527 31.0161 48.3923C29.8555 48.7484 29.0774 48.2208 28.4707 47.2976C27.6662 46.0842 26.8484 44.8576 26.0439 43.6443C25.8197 43.3014 25.6087 43.0771 25.0811 43.209C24.3425 43.3805 23.5512 43.3145 22.8126 43.4596C20.3331 43.9608 17.8668 44.5807 15.5719 45.6622C12.921 46.9151 10.7976 48.7747 9.45229 51.4785C7.93557 54.5119 6.73538 57.6509 6.02318 60.9744C5.73303 62.3065 5.61434 63.6914 5.52201 65.063C5.35056 67.5293 5.25823 70.0088 5.13953 72.4883C5.13953 72.5543 5.13954 72.607 5.12635 72.673C5.11316 72.7653 5.09996 72.8312 5.08677 72.9104H4.29544V68.1228L4.20312 68.0701C4.2295 68.0173 4.24269 67.9514 4.25588 67.8986C4.50647 64.3904 4.91532 60.9085 5.95724 57.519C6.85408 54.6174 7.93558 51.795 9.67651 49.2759C10.5602 47.9834 11.668 46.9283 13.0133 46.0578C14.6751 44.9895 16.3897 44.0795 18.2757 43.5388C20.4123 42.9189 22.5489 42.2594 24.8042 42.2331C25.1866 42.2331 25.4636 42.1144 25.767 41.8242C26.5319 41.0856 27.3364 40.3998 28.1673 39.7404C28.8268 39.226 28.8663 39.16 28.2333 38.6061C27.7453 38.1841 27.2705 37.7488 26.7561 37.3532C25.6614 36.5091 25.0548 35.3748 24.725 34.0691C24.6195 33.6603 24.4744 33.5152 24.0656 33.4756C22.3906 33.3306 20.9794 32.0117 20.5969 30.3103C20.2012 28.5298 20.5969 26.9603 21.8894 25.6678C22.2587 25.2854 22.351 25.0084 22.1268 24.4808C20.8343 21.421 20.7552 18.348 22.0345 15.2354C22.5489 13.9957 23.1951 12.8878 24.1183 11.9382C24.8174 11.2128 25.6483 10.7248 26.6374 10.5534C27.5211 10.3951 28.1937 9.90712 28.8795 9.37957C31.6492 7.25616 34.775 6.45164 38.2173 6.8473C41.2243 7.19022 43.8225 8.41678 46.0383 10.4479C48.3068 12.5317 49.7575 15.0772 50.2587 18.1502C50.5621 19.9702 50.4302 21.7375 49.9026 23.4785C49.8631 23.6236 49.8367 23.7818 49.7971 23.9137C49.652 24.4017 49.3223 24.9161 49.3883 25.3777C49.441 25.8129 49.929 26.1954 50.1796 26.6306C51.538 28.9782 50.4961 32.0644 48.1089 33.1723C47.8452 33.291 47.5154 33.3042 47.2121 33.3042C46.7769 33.3042 46.5395 33.4625 46.4208 33.8845C45.8273 35.9288 44.7326 37.6038 42.8861 38.738C42.2926 39.1073 42.2663 39.9382 42.7674 40.3866C42.8334 40.4526 42.9257 40.4921 42.9653 40.5713C43.7962 41.9033 45.1546 42.1671 46.5395 42.1803C48.1749 42.2067 49.7443 42.5892 51.327 42.9453C54.4792 43.6443 57.3411 44.95 59.8866 46.9283C61.1395 47.9043 61.9968 49.2232 62.775 50.5684C64.8324 54.1954 66.0722 58.0993 66.7316 62.1483ZM49.5993 29.8355C49.8235 28.965 49.7971 28.0814 49.3619 27.2505C48.9003 26.3932 48.0826 25.9976 47.1461 26.1822C47.0274 26.2086 46.8428 26.3009 46.8164 26.4064C46.5658 27.2109 46.3548 28.0286 46.1042 28.9123C46.3284 29.9015 46.5395 30.9038 46.79 31.893C46.8296 32.0249 46.9747 32.2095 47.1066 32.2359C47.7528 32.3678 48.7288 31.8798 49.0453 31.2731C49.2564 30.8247 49.4806 30.3367 49.5993 29.8355ZM45.9723 24.6391C46.2097 23.2675 46.3021 21.8826 45.1546 20.7879C45.0623 20.7088 45.0227 20.5769 44.97 20.4714C44.3501 19.1657 43.3345 18.2161 42.2135 17.3588C41.897 17.1082 41.7651 17.1874 41.5936 17.5171C40.6045 19.3504 38.969 20.2472 36.9643 20.5637C35.9883 20.722 35.685 20.3659 36.0015 19.4691C35.474 19.5746 34.9332 19.7196 34.4057 19.7592C33.3638 19.8252 32.3218 19.8515 31.2799 19.8383C30.8974 19.8383 30.5018 19.7328 30.1457 19.5878C29.5785 19.3635 29.5522 19.2053 29.8951 18.7173C30.1325 18.3744 30.3963 18.0578 30.6468 17.7281C30.6073 17.6754 30.5677 17.6226 30.5413 17.5699C30.1984 17.7149 29.8028 17.8073 29.5258 18.0315C28.5894 18.8096 27.653 19.6009 26.7825 20.4582C25.701 21.5397 25.2922 22.9245 25.4372 24.4149C25.5559 25.6546 25.8329 26.8812 26.1099 28.1078C26.3077 28.9914 26.466 29.8883 26.1099 30.7324C25.6219 31.9062 25.7801 33.08 25.9384 34.267C26.0043 34.755 26.2549 35.2561 26.5319 35.6782C27.2969 36.7992 28.352 37.6433 29.4994 38.3555C31.8602 39.8459 34.4321 40.2415 37.1753 39.714C37.5842 39.6348 38.0062 39.714 38.4283 39.7272C38.4283 39.8063 38.4283 39.8722 38.4283 39.9382C36.4895 40.7163 34.3661 40.4789 32.2163 41.0724C33.2451 41.6 34.1551 42.0352 35.0124 42.5364C35.3685 42.7474 35.6586 42.7606 36.0279 42.6155C37.571 41.9825 39.1141 41.3362 40.6836 40.7427C41.198 40.5449 41.4222 40.3602 41.2903 39.7667C41.132 39.0282 41.3562 38.4215 42.0816 37.9862C42.6883 37.6433 43.2158 37.1553 43.7434 36.6805C45.6426 34.9792 45.9987 32.8558 45.3393 30.495C45.1019 29.6377 45.0887 28.8068 45.2601 27.9495C45.4843 26.8416 45.7877 25.747 45.9723 24.6391ZM43.0312 44.8181C43.9281 44.0399 44.0863 43.3541 43.6115 42.6815C43.2422 42.1539 42.6619 41.7583 42.1475 41.3362C42.042 41.2571 41.7914 41.2966 41.6332 41.3494C39.8263 42.0484 38.0326 42.7606 36.1994 43.4728C36.9379 44.7389 37.637 45.9128 38.3228 47.0866C38.4415 47.2976 38.5602 47.535 38.7316 47.6801C38.9558 47.8779 39.1537 47.9966 39.4966 47.6932C40.6572 46.7173 41.8838 45.8204 43.0312 44.8181ZM36.1994 49.7903C36.6214 49.7771 37.7557 48.3659 37.6897 47.9438C37.6765 47.8911 37.6369 47.8383 37.6106 47.7724C37.294 47.1525 37.0171 46.5062 36.6346 45.9259C35.962 44.9368 34.5112 44.884 33.733 45.7809C33.4165 46.1502 33.1395 46.5458 32.7834 46.8623C32.3086 47.2844 32.3614 47.6669 32.5328 48.2604C32.9153 49.5397 33.6012 50.0936 34.9332 49.7771C35.3421 49.7903 35.7773 49.8035 36.1994 49.7903ZM33.6143 44.4356C34.6563 43.3014 34.6299 43.3541 33.2451 42.6551C31.9525 42.0088 30.726 41.2043 29.4598 40.4921C29.2884 40.3998 28.9587 40.3207 28.84 40.413C28.1409 40.9537 27.4947 41.5472 26.8221 42.1275C26.5451 42.3649 26.5583 42.6155 26.677 42.9321C26.9276 43.5915 27.2045 44.1982 27.7057 44.7389C28.3784 45.4775 28.9323 46.3216 29.5653 47.0998C29.7236 47.2844 29.961 47.4163 30.1984 47.6009C30.5941 47.3767 30.9898 47.258 31.2403 47.0074C32.0712 46.1633 32.8362 45.2929 33.6143 44.4356ZM25.3713 29.2288C25.279 28.2924 25.1866 28.332 24.7646 27.3164C24.2634 26.1031 22.7599 26.0635 22.0081 27.2373C21.1772 28.543 21.4146 30.64 22.6148 31.6951C23.0105 32.0381 23.538 32.2623 24.026 32.4469C24.3557 32.5656 24.6591 32.4337 24.7382 31.9853C24.9229 31.0489 25.1603 30.1389 25.3713 29.2288Z" fill="#A8A29E"/>
<path d="M66.5297 72.8977H38.8858C38.9781 72.7395 39.0968 72.5812 39.1232 72.4097C39.1759 72.0536 39.2023 71.6844 39.1891 71.3151C39.0968 69.917 38.9913 68.519 38.8858 67.1078C38.7011 64.8261 38.4637 62.5577 38.345 60.2628C38.2 57.5195 37.8966 54.8026 37.3031 52.1384C37.0393 50.9514 37.2767 50.1205 38.0285 49.3028C38.2659 49.0391 38.3978 48.8148 38.833 48.9995C39.0177 49.0786 39.3738 48.9467 39.5716 48.8017C40.93 47.7993 42.2885 46.8233 43.5678 45.7418C44.1877 45.2275 44.7548 44.5812 44.7548 43.6712C44.7548 43.2491 44.9131 43.0513 45.3615 43.1041C46.4166 43.2096 47.4981 43.2228 48.54 43.4074C50.9668 43.8558 53.354 44.4889 55.6225 45.4913C58.2603 46.6519 60.4628 48.3137 61.8608 50.9119C63.0214 53.0617 63.9974 55.2774 64.67 57.625C65.0393 58.9043 65.5537 60.1837 65.712 61.5026C66.1472 65.0767 66.5824 68.6641 66.4901 72.291C66.4769 72.4889 66.4374 72.7395 66.5297 72.8977ZM60.0539 55.95C60.0407 55.95 60.0276 55.9368 60.0012 55.9368C60.0012 55.8445 60.0144 55.7522 60.0012 55.6599C59.9748 55.3302 60.0671 54.9081 59.5923 54.8817C59.4868 54.8685 59.3022 55.2774 59.2626 55.5148C58.8933 57.4799 58.5108 59.4451 58.1943 61.4234C57.825 63.7051 57.5349 65.9868 57.1788 68.2684C57.0073 69.3763 56.7435 70.471 56.5721 71.592C56.5325 71.8294 56.7171 72.2647 56.8886 72.3306C57.2711 72.4625 57.3634 72.0932 57.4293 71.7767C57.6008 70.9458 57.825 70.1281 57.9701 69.284C58.3921 66.7385 58.7878 64.1931 59.1967 61.6344C59.4868 59.7484 59.7638 57.8492 60.0539 55.95Z" fill="white"/>
<path d="M60.006 55.9363C60.0192 55.9363 60.0324 55.9363 60.0588 55.9495C59.7686 57.8487 59.4917 59.7479 59.2015 61.6339C58.8058 64.1793 58.4102 66.738 57.9749 69.2834C57.843 70.1275 57.6188 70.9452 57.4342 71.7761C57.3683 72.0926 57.2627 72.4619 56.8935 72.3301C56.722 72.2641 56.5505 71.8289 56.5769 71.5915C56.7352 70.4836 56.999 69.3889 57.1836 68.2679C57.5397 65.9862 57.8431 63.7045 58.1992 61.4228C58.5157 59.4445 58.8982 57.4794 59.2675 55.5142C59.307 55.2768 59.5049 54.868 59.5972 54.8812C60.072 54.9075 59.9797 55.3428 60.006 55.6593C60.006 55.7648 60.006 55.8571 60.006 55.9363Z" fill="#A8A29E"/>
<path d="M49.3622 27.2668C49.7974 28.0977 49.8238 28.9681 49.5996 29.8518C49.4809 30.353 49.2566 30.8278 49.0192 31.2894C48.7159 31.8961 47.7267 32.384 47.0805 32.2522C46.9486 32.2258 46.7903 32.0411 46.7639 31.9092C46.5265 30.9069 46.3023 29.9045 46.0781 28.9286C46.3287 28.0449 46.5397 27.2272 46.7903 26.4227C46.8167 26.3172 47.0014 26.2248 47.1201 26.1985C48.0828 26.0006 48.9006 26.3963 49.3622 27.2668Z" fill="white"/>
<path d="M45.1539 20.7878C46.3014 21.8825 46.209 23.2674 45.9716 24.639C45.787 25.7469 45.4836 26.8415 45.2462 27.9494C45.0748 28.7935 45.0748 29.6376 45.3254 30.4949C45.9848 32.8557 45.6287 34.9791 43.7295 36.6804C43.202 37.1552 42.6744 37.63 42.0677 37.9861C41.3291 38.4082 41.1049 39.0281 41.2764 39.7666C41.4083 40.3733 41.1841 40.558 40.6697 40.7426C39.1134 41.3361 37.5571 41.9824 36.014 42.6154C35.6579 42.7605 35.3678 42.7473 34.9985 42.5363C34.1412 42.0219 33.2312 41.5999 32.2024 41.0723C34.3522 40.4788 36.4756 40.703 38.4144 39.9381C38.4144 39.8721 38.4144 39.793 38.4144 39.7271C37.9924 39.7271 37.5571 39.6479 37.1615 39.7139C34.4182 40.2414 31.8595 39.8458 29.4855 38.3554C28.3381 37.6432 27.283 36.7991 26.518 35.6781C26.2279 35.2692 25.9773 34.7549 25.9245 34.2669C25.7794 33.0931 25.6212 31.9193 26.096 30.7323C26.4389 29.8882 26.2938 28.9913 26.096 28.1077C25.819 26.8811 25.5421 25.6545 25.4234 24.4148C25.2783 22.9244 25.6739 21.5396 26.7686 20.4581C27.6391 19.6008 28.5755 18.8095 29.5119 18.0314C29.7889 17.8072 30.1845 17.7148 30.5274 17.5698C30.567 17.6225 30.6066 17.6753 30.633 17.728C30.3824 18.0577 30.1186 18.3875 29.8812 18.7172C29.5383 19.2052 29.5647 19.3503 30.1318 19.5877C30.4879 19.7327 30.8967 19.8251 31.266 19.8382C32.3079 19.8514 33.3499 19.8251 34.3918 19.7591C34.9325 19.7195 35.4601 19.5745 35.9876 19.469C35.6843 20.3658 35.9745 20.7219 36.9504 20.5636C38.9551 20.2471 40.5774 19.3634 41.5797 17.517C41.7512 17.2005 41.8831 17.1213 42.1996 17.3587C43.3339 18.216 44.3362 19.1656 44.9561 20.4713C45.022 20.5768 45.0748 20.6955 45.1539 20.7878ZM41.2236 24.5335C41.8039 24.5599 42.0018 24.3488 41.8567 23.9927C41.5797 23.3333 40.0498 22.9772 39.5091 23.4388C39.2189 23.7026 39.2453 24.0191 39.6146 24.1378C40.1817 24.3093 40.7488 24.4148 41.2236 24.5335ZM40.2872 28.477C40.6565 28.4374 40.9203 28.0285 40.9071 27.4746C40.8675 27.1185 40.7488 26.7888 40.274 26.7756C39.8784 26.7624 39.5355 27.1713 39.5355 27.6592C39.5355 28.1604 39.852 28.5165 40.2872 28.477ZM38.1242 34.1218C38.1374 33.7261 37.8868 33.6074 37.5307 33.6074C36.6075 33.6074 35.6975 33.5942 34.7743 33.6074C34.6292 33.6074 34.4709 33.6602 34.3522 33.7525C34.194 33.8712 34.0884 34.0295 33.9566 34.1746C34.1148 34.2801 34.2731 34.4779 34.4314 34.4911C35.0644 34.5307 35.6975 34.5043 36.3306 34.5043V34.5175C36.7262 34.5175 37.1219 34.5307 37.5176 34.5175C37.7681 34.4779 38.1111 34.5307 38.1242 34.1218ZM35.8162 27.8307C35.7502 27.4482 35.7766 27.1976 35.6711 27.0262C35.526 26.7888 35.3018 26.6173 35.104 26.4063C34.9985 26.6305 34.8006 26.8679 34.8138 27.0921C34.8402 27.6592 34.5764 28.0417 34.2863 28.5033C33.6796 29.4925 33.6928 30.1651 34.6819 30.7454C34.8666 30.851 35.1831 30.7586 35.4337 30.7586C35.3941 30.5344 35.4073 30.2575 35.2886 30.1124C34.8798 29.6376 34.9721 29.2815 35.3414 28.8199C35.6052 28.5165 35.7107 28.0813 35.8162 27.8307ZM32.1892 24.0587C32.1629 23.94 32.1629 23.8609 32.1365 23.8345C31.6221 23.4256 31.0154 23.4124 30.4087 23.5048C29.8944 23.5839 29.38 24.0983 29.3273 24.4939C29.2877 24.85 29.5119 24.9292 29.7757 24.8632C30.4747 24.6918 31.1737 24.5071 31.8727 24.3093C32.0046 24.2565 32.0969 24.1246 32.1892 24.0587ZM31.0418 28.477C31.477 28.5165 31.7936 28.1736 31.7804 27.6461C31.7672 27.1581 31.4375 26.7624 31.0418 26.7624C30.567 26.7756 30.4483 27.1053 30.4087 27.4614C30.3956 28.0285 30.6725 28.4374 31.0418 28.477Z" fill="white"/>
<path d="M43.6099 42.6833C44.0847 43.3559 43.9264 44.0417 43.0296 44.8199C41.8822 45.8091 40.6556 46.7059 39.5082 47.7083C39.1652 48.0116 38.9674 47.8929 38.7432 47.6951C38.5718 47.5368 38.453 47.2994 38.3343 47.1016C37.6353 45.9278 36.9495 44.7539 36.2109 43.4878C38.031 42.7756 39.8379 42.0634 41.6448 41.3644C41.803 41.3117 42.0536 41.2589 42.1591 41.3512C42.6603 41.7601 43.2274 42.1557 43.6099 42.6833Z" fill="white"/>
<path d="M41.8533 23.9933C42.0115 24.3494 41.8005 24.5604 41.2202 24.534C40.7454 24.4153 40.1651 24.3098 39.6243 24.1384C39.255 24.0197 39.2155 23.7031 39.5188 23.4393C40.0464 22.9645 41.5763 23.3338 41.8533 23.9933Z" fill="#A8A29E"/>
<path d="M40.9057 27.4622C40.9189 28.0293 40.6551 28.4382 40.2858 28.4646C39.8506 28.5041 39.5341 28.1612 39.5473 27.6337C39.5605 27.1457 39.8902 26.75 40.2858 26.75C40.7606 26.7896 40.8793 27.1193 40.9057 27.4622Z" fill="#A8A29E"/>
<path d="M38.8343 72.8967H29.5625V72.8308C29.6812 72.7121 29.8395 72.6066 29.9186 72.4615C29.9977 72.3296 29.9977 72.1713 30.0241 72.0131C30.1428 70.7997 30.2351 70.6414 30.3538 69.428C30.578 67.3706 30.7627 65.2999 31.0529 63.2557C31.3958 60.763 31.8178 58.2834 32.2399 55.8039C32.5036 54.2477 32.8465 52.7045 33.1367 51.1483C33.1895 50.8845 33.2158 50.6867 33.5719 50.6998C34.2973 50.7526 35.0359 50.7922 35.7613 50.7922C36.1965 50.8054 36.4471 50.9372 36.4999 51.3989C36.6713 53.0343 36.8823 54.6565 37.0538 56.2787C37.1989 57.7691 37.3044 59.2462 37.4363 60.7366C37.6077 62.7017 37.7924 64.6669 37.9638 66.632C38.1221 68.3729 38.2672 70.1007 38.4254 71.8284C38.4386 72.0394 38.4782 72.2637 38.5573 72.4483C38.6101 72.6329 38.7288 72.7648 38.8343 72.8967Z" fill="#D6D3D1"/>
<path d="M37.5327 33.6065C37.8888 33.6065 38.1394 33.7383 38.1262 34.1208C38.113 34.5297 37.7701 34.4769 37.5063 34.4901C37.1106 34.5165 36.715 34.4901 36.3193 34.4901V34.4769C35.6862 34.4769 35.0532 34.5033 34.4201 34.4637C34.2618 34.4505 34.1036 34.2659 33.9453 34.1472C34.0772 34.0021 34.1959 33.8307 34.341 33.7252C34.4597 33.646 34.6179 33.5801 34.763 33.5801C35.6862 33.5933 36.6095 33.6065 37.5327 33.6065Z" fill="#A8A29E"/>
<path d="M37.689 47.9427C37.7549 48.3647 36.6339 49.776 36.1986 49.7891C35.7766 49.8023 35.3413 49.7891 34.9061 49.7891C33.5872 50.1057 32.8882 49.5517 32.5057 48.2724C32.3343 47.6789 32.2815 47.2964 32.7563 46.8744C33.1124 46.5579 33.3894 46.149 33.7059 45.7929C34.4841 44.8961 35.9348 44.9488 36.6075 45.938C37.0031 46.5051 37.2669 47.1646 37.5835 47.7844C37.6362 47.824 37.6758 47.8768 37.689 47.9427Z" fill="#D6D3D1"/>
<path d="M35.6704 27.0266C35.7759 27.1981 35.7495 27.4355 35.8154 27.8311C35.7099 28.0817 35.6044 28.517 35.3406 28.8335C34.9714 29.2819 34.879 29.6512 35.2879 30.126C35.4198 30.2711 35.3934 30.5612 35.433 30.7723C35.1824 30.7723 34.8658 30.8646 34.6812 30.7591C33.692 30.1788 33.6788 29.4929 34.2855 28.517C34.5757 28.0553 34.8263 27.6729 34.8131 27.1057C34.7999 26.8815 34.9977 26.6573 35.1032 26.4199C35.3011 26.6178 35.5385 26.7892 35.6704 27.0266Z" fill="#A8A29E"/>
<path d="M33.2443 42.6558C34.616 43.3548 34.6555 43.3021 33.6136 44.4363C32.8355 45.2936 32.0705 46.1641 31.2528 46.995C31.0022 47.2587 30.6065 47.3774 30.2109 47.5885C29.9735 47.4038 29.7361 47.2851 29.5778 47.0873C28.9448 46.3091 28.404 45.4651 27.7182 44.7265C27.2302 44.1857 26.94 43.579 26.6894 42.9196C26.5707 42.6031 26.5576 42.3525 26.8345 42.1151C27.5072 41.548 28.1534 40.9413 28.8524 40.4005C28.9711 40.3082 29.3008 40.3873 29.4723 40.4797C30.7252 41.2051 31.9518 41.9964 33.2443 42.6558Z" fill="white"/>
<path d="M31.4847 48.4569C31.7617 49.3142 32.5267 50.0264 32.1442 51.0947C31.8804 51.8333 31.8013 52.6378 31.6694 53.4159C31.3528 55.3679 31.0759 57.3198 30.733 59.2586C30.0339 63.1889 29.3481 66.0509 29.269 70.0471C29.2558 70.8384 29.2822 71.6166 29.3086 72.4079C29.3086 72.553 29.4668 72.6981 29.546 72.83V72.8959H5.09375C5.10694 72.83 5.12013 72.7508 5.13332 72.6585C5.14651 72.5926 5.13332 72.5398 5.14651 72.4739C5.26521 69.9943 5.35753 67.528 5.52899 65.0485C5.62131 63.6769 5.74002 62.3052 6.03017 60.96C6.74237 57.6496 7.94256 54.5106 9.45929 51.464C10.8046 48.7603 12.928 46.9006 15.5789 45.6477C17.8738 44.5662 20.3401 43.9463 22.8196 43.4451C23.5582 43.3001 24.3495 43.3792 25.0881 43.1946C25.6157 43.0627 25.8267 43.2869 26.0509 43.6298C26.8554 44.8432 27.6731 46.0697 28.4777 47.2831C29.0843 48.2063 29.8625 48.7339 31.0231 48.3778C31.1682 48.3514 31.4715 48.391 31.4847 48.4569ZM15.1173 71.8276C15.0646 71.4847 15.025 71.2737 14.9986 71.0627C14.7876 69.7701 14.5766 68.4908 14.3524 67.1983C13.8644 64.2308 13.3764 61.2633 12.8752 58.309C12.7169 57.3594 12.5059 56.4098 12.2949 55.4734C12.2553 55.3019 12.0311 55.1832 11.886 55.0514C11.8069 55.2228 11.6618 55.4075 11.675 55.5657C11.8333 57.1748 11.9784 58.7838 12.2158 60.3797C12.5982 62.8724 13.0335 65.3651 13.4687 67.8446C13.6929 69.1635 13.9567 70.4691 14.1941 71.7748C14.2468 72.0914 14.3392 72.4475 14.7348 72.342C14.9327 72.2892 15.0382 71.9595 15.1173 71.8276Z" fill="white"/>
<path d="M32.138 23.8221C32.1776 23.8485 32.1644 23.9276 32.1908 24.0463C32.0984 24.1123 32.0061 24.2442 31.8742 24.2837C31.1752 24.4816 30.4762 24.6662 29.7772 24.8377C29.5134 24.9036 29.2892 24.8245 29.3288 24.4684C29.3683 24.0727 29.8959 23.5584 30.4103 23.4792C31.0169 23.4001 31.6236 23.4265 32.138 23.8221Z" fill="#A8A29E"/>
<path d="M31.7769 27.6462C31.7769 28.1605 31.4736 28.5166 31.0383 28.4771C30.669 28.4375 30.4053 28.0287 30.4184 27.4747C30.458 27.1186 30.5767 26.7889 31.0515 26.7757C31.434 26.7625 31.7769 27.1582 31.7769 27.6462Z" fill="#A8A29E"/>
<path d="M24.7599 27.3043C25.182 28.3198 25.2611 28.2935 25.3666 29.2167C25.1556 30.1267 24.9182 31.0499 24.7467 31.96C24.6544 32.4216 24.3643 32.5403 24.0345 32.4216C23.5334 32.2369 23.0058 32.0127 22.6233 31.6698C21.4231 30.6147 21.1989 28.5177 22.0166 27.212C22.7552 26.0513 24.2719 26.0909 24.7599 27.3043Z" fill="white"/>
<path d="M15.0066 71.064C15.0461 71.2751 15.0725 71.4861 15.1253 71.829C15.0329 71.9609 14.9274 72.2906 14.756 72.3433C14.3603 72.4489 14.268 72.0796 14.2152 71.7762C13.9647 70.4705 13.7141 69.1516 13.4899 67.8459C13.0546 65.3664 12.6194 62.8737 12.2369 60.381C11.9995 58.7852 11.8544 57.1761 11.6962 55.5671C11.683 55.3956 11.8281 55.2242 11.9072 55.0527C12.0523 55.1978 12.2765 55.3165 12.316 55.4748C12.5403 56.4112 12.7381 57.3608 12.8964 58.3104C13.3975 61.2779 13.8855 64.2322 14.3735 67.1997C14.5845 68.479 14.7956 69.7715 15.0066 71.064Z" fill="#A8A29E"/>
<path d="M4.31944 72.897H5.11077C4.97888 73.4377 4.66234 73.5036 4.08203 73.1344C4.08203 71.5385 4.08203 69.9427 4.08203 68.3468C4.1216 68.2545 4.18754 68.1622 4.22711 68.0566L4.31944 68.1094V72.897Z" fill="#A8A29E"/>
</g>
<defs>
<clipPath id="clip0_24415_31337">
<rect width="72" height="72" rx="36" fill="white"/>
</clipPath>
</defs>
</svg>
