<svg width="110" height="119" viewBox="0 0 110 119" fill="none" xmlns="http://www.w3.org/2000/svg">
<path d="M0.332781 116.193C0.171626 115.617 0.0104374 115.018 0.0104374 114.42C-0.0816511 109.401 0.447869 104.428 1.11551 99.4555C1.78315 94.4597 3.11847 89.6481 4.54584 84.8595C5.00628 83.34 5.76599 81.9127 6.47968 80.4853C7.97612 77.4694 9.5416 74.4765 11.9819 72.1052C12.8798 71.2304 13.9849 70.5397 15.0439 69.8261C16.0799 69.0894 17.1159 68.3066 18.267 67.7541C22.9865 65.4288 28.0284 64.1166 33.1623 63.1727C35.925 62.6662 38.7797 62.6201 41.5884 62.4129C42.4402 62.3439 42.7856 62.3208 42.8316 61.2158C42.9237 58.6143 42.2561 56.6344 39.9308 55.161C37.6977 53.7566 36.8459 51.2933 36.0631 48.922C35.8329 48.2313 35.6257 47.863 34.7969 47.8169C31.781 47.6788 29.2716 45.6068 28.5349 42.5679C27.8442 39.7362 28.0744 37.0426 30.2845 34.8555C30.745 34.418 30.6529 34.0497 30.3767 33.5893C25.6801 25.7387 29.6169 12.7082 37.3754 7.66636C39.0099 6.60734 40.4143 5.17997 41.9798 4.00585C44.7885 1.91084 47.9886 0.782751 51.4189 0.368353C52.8462 0.184177 54.2967 0.0920884 55.5859 0C63.8508 0.460442 70.9416 3.29216 76.6741 9.09373C79.5979 12.0636 81.693 15.586 82.5218 19.753C83.2815 23.5516 82.5678 27.1661 81.1865 30.6885C80.8181 31.6324 80.4037 32.5533 79.9203 33.4511C79.4829 34.2799 79.4598 34.9706 79.9663 35.8224C82.3376 39.7131 80.68 44.9852 76.9965 46.9191C76.3519 47.2414 75.5921 47.4255 74.8784 47.4946C74.0727 47.5637 73.6582 47.8169 73.405 48.6457C72.392 52.076 70.5503 54.9538 67.4423 56.8876C66.9128 57.2099 66.5675 57.5322 66.5905 58.2459C66.6135 59.3049 66.4063 60.3409 66.3603 61.4C66.3142 62.0216 66.6135 62.3439 67.3041 62.3899C70.0208 62.5741 72.7374 62.7352 75.431 63.0806C77.6411 63.3568 79.8512 63.7482 81.9923 64.3698C85.1003 65.2677 88.2543 66.1886 91.1781 67.5469C95.8976 69.734 99.5812 73.0952 102.137 77.8147C105.406 83.8005 107.271 90.2006 108.399 96.831C109.066 100.768 109.504 104.751 109.895 108.71C110.102 110.713 109.941 112.762 109.918 114.788C109.918 115.272 109.78 115.755 109.619 116.193C109.527 116.446 109.227 116.63 109.02 116.86V116.1L108.997 116.86C108.813 116.63 108.56 116.446 108.468 116.17C108.33 115.709 108.284 115.226 108.237 114.742C107.8 110.391 107.455 106.04 106.948 101.689C106.58 98.4655 106.119 95.2425 105.544 92.0424C104.485 86.1718 102.16 80.7846 98.8675 75.8118C97.0718 73.0952 94.4242 71.3916 91.6846 69.803C88.3004 67.8462 84.4786 66.9943 80.7721 65.8432C79.0224 65.2907 78.0555 65.7511 76.8814 66.9713C72.2539 71.6908 66.4293 74.2693 60.0292 75.4434C54.8722 76.3874 49.6922 76.3183 44.5813 74.8679C41.105 73.8779 37.9279 72.2894 35.2804 69.8261C34.2214 68.8361 33.3695 67.5469 32.6328 66.2806C32.1494 65.4288 31.6889 65.1295 30.745 65.4288C28.4197 66.1425 26.0485 66.7871 23.7002 67.4778C19.2339 68.8361 15.2511 71.0923 12.0741 74.4995C10.0481 76.6866 8.82794 79.4723 7.51567 82.1429C5.1444 87.0005 4.10842 92.2266 3.39474 97.4756C2.65803 103.024 2.2436 108.618 1.69106 114.19C1.622 114.926 1.4839 115.663 1.32274 116.377C1.2767 116.561 1.04648 116.86 0.977412 116.837C0.747191 116.768 0.424858 116.607 0.378814 116.423C0.401836 116.377 0.378825 116.285 0.332781 116.193ZM77.8943 44.1794C78.8382 42.4758 79.5059 40.657 79.1605 38.6541C78.9073 37.2498 78.4008 35.8915 76.9504 35.3389C76.1907 35.0396 75.2698 35.0166 74.464 35.1778C74.1417 35.2468 73.9576 36.0987 73.7734 36.6282C73.5662 37.1577 73.4511 37.7102 73.2669 38.2858C74.1878 37.9635 74.9475 37.5721 75.7532 37.457C76.0756 37.4109 76.49 37.9174 76.8583 38.1707C76.5821 38.4239 76.3058 38.7002 76.0296 38.9304C75.9145 39.0225 75.6612 38.9534 75.5691 39.0455C75.1777 39.4599 74.8094 39.8973 74.441 40.3117C74.7403 40.5419 75.0626 40.7491 75.3389 41.0254C75.5231 41.2096 75.7072 41.4168 75.8223 41.67C76.1216 42.2456 75.9605 42.5679 75.2698 42.6139C73.7043 42.683 73.4741 43.0283 73.9576 44.6168C74.0727 45.0312 73.8885 45.7219 74.6482 45.6528C75.9145 45.5147 77.2267 45.3996 77.8943 44.1794ZM74.5792 66.9713C75.2007 66.4188 75.7993 65.8663 76.6281 65.1526C72.8525 64.7382 69.4222 64.3698 66.0149 64.0245C64.7027 63.8864 64.4954 63.6101 64.4954 62.2978C64.5185 61.0316 64.4724 59.7884 64.4494 58.5222C64.4264 57.3481 64.6566 56.3811 65.8077 55.6675C66.9818 54.9538 68.0409 54.0099 69.0538 53.066C72.0697 50.3263 72.6223 46.8039 71.7474 43.0974C71.287 41.0945 71.2179 39.2527 71.6783 37.2728C72.2309 34.8324 72.5302 32.3461 72.9216 29.8827C73.0597 28.9848 72.6223 28.5704 71.7474 28.3172C69.0999 27.5114 66.4753 26.6366 63.8508 25.7617C63.1371 25.5315 62.4925 25.1862 61.6868 24.8178C61.5947 26.1301 60.8349 26.4524 59.7068 26.3833C58.6018 26.3143 57.4967 26.4294 56.3917 26.4294C53.3067 26.4294 50.5441 25.3243 47.9426 23.7588C47.321 23.3905 46.8144 22.861 46.0547 22.2624C45.9626 23.6207 46.2849 24.5646 46.7684 25.5315C47.2519 26.4754 47.0447 26.8438 45.9857 27.097C45.5713 27.1891 45.1339 27.3042 44.7195 27.2352C41.8877 26.6826 39.8618 24.0581 40.138 21.5257C40.2071 20.858 40.069 20.1674 40.0229 19.4997C37.7898 22.3775 36.7077 25.5315 36.6156 29.0539C36.5466 32.1849 37.0531 35.2238 37.9049 38.2167C38.3653 39.8052 38.5956 41.4168 37.974 42.9362C37.1912 44.824 37.3754 46.7349 37.6056 48.6227C37.7437 49.6817 38.2272 50.7868 38.8258 51.6846C40.1611 53.6415 42.0489 55.0689 44.0518 56.3121C48.1037 58.8215 52.5009 59.4891 57.1514 58.6143C57.9342 58.4531 58.7399 58.338 59.7759 58.9826C58.809 59.2359 58.1644 59.4661 57.4967 59.5812C55.4478 59.9035 53.3758 60.1798 51.3268 60.433C49.485 60.6633 47.6433 60.9395 45.8015 61.0316C44.9036 61.0777 44.7655 61.423 44.7424 62.1827C44.7194 63.6792 44.4892 63.8403 42.9698 64.0015C39.8618 64.3468 36.7307 64.7151 33.3925 65.0835C33.922 65.7972 34.3364 66.4648 34.8429 67.0634C38.7797 71.6448 44.0518 73.6247 49.8304 74.2463C53.3527 74.6147 56.9442 74.4765 60.4666 73.6938C65.7617 72.5427 70.5503 70.5628 74.5792 66.9713ZM36.3624 39.5059C36.5005 39.4138 36.6387 39.3448 36.7768 39.2527C36.2934 38.3318 35.8559 37.4109 35.3494 36.5131C34.6818 35.385 33.4386 34.9245 32.3565 35.6382C31.5968 36.1217 30.8831 36.9044 30.4918 37.7102C29.4097 39.9664 30.1694 43.0283 32.0112 44.755C32.7709 45.4917 33.5997 46.0442 34.6818 45.9751C34.9811 45.9521 35.3955 45.7219 35.5336 45.4687C36.3163 44.0413 36.0631 42.7981 34.8429 41.5549C34.3825 41.7391 34.5667 42.9593 33.6458 42.3377C33.0702 41.9463 33.0472 41.3707 33.3695 40.7722C33.4386 40.634 33.5767 40.5419 33.6688 40.4038C34.1063 39.8052 33.9911 39.4599 33.3005 39.4139C33.0472 39.3908 32.771 39.575 32.5177 39.529C32.2184 39.4829 31.758 39.3448 31.7349 39.1836C31.6889 38.8843 31.804 38.4469 32.0112 38.2167C32.6328 37.503 33.7609 37.48 34.7969 38.1707C35.3494 38.562 35.8329 39.0685 36.3624 39.5059Z" fill="#292524"/>
<path d="M109.019 116.886L109.042 116.126V116.886C109.042 116.886 109.042 116.886 109.019 116.886C109.042 116.886 109.042 116.886 109.019 116.886Z" fill="#292524"/>
<path d="M109.024 116.883L108.978 118.034H0.40529L0.336212 116.216C0.359234 116.308 0.382268 116.377 0.40529 116.469C0.451334 116.653 0.77361 116.814 1.00383 116.883C1.0729 116.906 1.30312 116.607 1.34916 116.423C1.51032 115.686 1.64847 114.972 1.71754 114.236C2.29309 108.664 2.68445 103.07 3.42115 97.5217C4.13484 92.2497 5.17087 87.0236 7.54215 82.189C8.85441 79.5184 10.0515 76.7328 12.1005 74.5457C15.2775 71.1154 19.2604 68.8592 23.7267 67.5239C26.0749 66.8102 28.4232 66.1886 30.7715 65.4749C31.7154 65.1757 32.1528 65.4749 32.6593 66.3268C33.396 67.593 34.2478 68.8822 35.3068 69.8722C37.9544 72.3586 41.1314 73.9241 44.6078 74.914C49.6957 76.3644 54.8986 76.4335 60.0556 75.4896C66.4557 74.3154 72.2803 71.737 76.9078 67.0174C78.1049 65.7973 79.0719 65.3368 80.7986 65.8893C84.5051 67.0404 88.3268 67.8923 91.711 69.8491C94.4276 71.4377 97.0982 73.1413 98.8939 75.8579C102.186 80.8307 104.511 86.2179 105.57 92.0885C106.146 95.2886 106.606 98.5117 106.975 101.735C107.481 106.086 107.85 110.437 108.264 114.788C108.31 115.272 108.356 115.755 108.494 116.216C108.586 116.446 108.839 116.653 109.024 116.883Z" fill="#F08C51"/>
<path d="M79.1805 38.6524C79.5259 40.6553 78.8582 42.474 77.9143 44.1777C77.2467 45.3979 75.9344 45.536 74.6912 45.6511C73.9315 45.7202 74.1157 45.0065 74.0005 44.6151C73.5171 43.0266 73.7473 42.6812 75.3128 42.6122C75.9804 42.5892 76.1646 42.2438 75.8653 41.6683C75.7502 41.438 75.566 41.2078 75.3819 41.0237C75.1056 40.7704 74.7833 40.5402 74.484 40.31C74.8523 39.8725 75.2207 39.4351 75.6121 39.0438C75.7042 38.9517 75.9574 38.9977 76.0725 38.9286C76.3718 38.6984 76.625 38.4222 76.9013 38.1689C76.5329 37.9157 76.1186 37.3862 75.7963 37.4552C74.9905 37.5703 74.2308 37.9617 73.3099 38.284C73.471 37.7315 73.6092 37.1559 73.8164 36.6264C74.0005 36.0969 74.1847 35.2221 74.507 35.176C75.3128 35.0149 76.2337 35.0609 76.9934 35.3372C78.4208 35.8897 78.9273 37.248 79.1805 38.6524Z" fill="white"/>
<path d="M76.6235 65.1301C75.8177 65.8438 75.1962 66.3963 74.5746 66.9489C70.5457 70.5633 65.7571 72.5432 60.5311 73.6943C56.9857 74.4771 53.4172 74.6152 49.8948 74.2469C44.1163 73.6253 38.8442 71.6454 34.9074 67.064C34.4009 66.4884 33.9865 65.8208 33.457 65.0841C36.8182 64.6927 39.9263 64.3243 43.0342 64.002C44.5537 63.8409 44.7839 63.6797 44.8069 62.1833C44.8069 61.4236 44.9681 61.0782 45.866 61.0322C47.7077 60.9401 49.5495 60.6638 51.3913 60.4336C53.4403 60.1804 55.5122 59.8811 57.5612 59.5818C58.2288 59.4667 58.8965 59.2365 59.8404 58.9832C58.8044 58.3386 57.9986 58.4537 57.2158 58.6149C52.5654 59.5127 48.1682 58.8221 44.1163 56.3126C42.1133 55.0695 40.2255 53.6421 38.8903 51.6852C38.2917 50.7873 37.8082 49.6823 37.6701 48.6233C37.4168 46.7355 37.2557 44.8246 38.0385 42.9368C38.66 41.4173 38.4298 39.8058 37.9694 38.2173C37.0945 35.2244 36.611 32.1855 36.6801 29.0545C36.7492 25.5321 37.8543 22.3781 40.0874 19.5003C40.1334 20.191 40.2716 20.8816 40.2025 21.5262C39.9032 24.0587 41.9522 26.6602 44.7839 27.2357C45.1753 27.3278 45.6357 27.1897 46.0501 27.0976C47.1091 26.8444 47.3164 26.453 46.8329 25.5321C46.3264 24.5882 46.0041 23.6213 46.1192 22.263C46.8789 22.8615 47.3854 23.391 48.007 23.7594C50.6085 25.3249 53.3482 26.43 56.4562 26.43C57.5612 26.43 58.6663 26.3379 59.7713 26.3839C60.8994 26.453 61.6592 26.1307 61.7512 24.8184C62.557 25.1637 63.2246 25.5321 63.9153 25.7623C66.5398 26.6372 69.1644 27.512 71.8119 28.3178C72.6867 28.571 73.1241 28.9854 72.986 29.8833C72.5946 32.3466 72.3184 34.856 71.7428 37.2734C71.2824 39.2533 71.3284 41.095 71.8119 43.098C72.6867 46.8045 72.1572 50.3269 69.1183 53.0665C68.0823 53.9874 67.0463 54.9313 65.8722 55.668C64.7211 56.3817 64.4909 57.3256 64.5139 58.5228C64.5369 59.789 64.583 61.0322 64.5599 62.2984C64.5369 63.6107 64.7671 63.8869 66.0794 64.0251C69.4176 64.3704 72.8249 64.7387 76.6235 65.1301Z" fill="white"/>
<path d="M36.7771 39.256C36.639 39.325 36.5009 39.4171 36.3627 39.5092C35.8332 39.0718 35.3497 38.5883 34.7972 38.1969C33.7612 37.5063 32.6331 37.5293 32.0115 38.243C31.8043 38.4732 31.6892 38.9106 31.7352 39.2099C31.7583 39.3711 32.2418 39.5092 32.518 39.5552C32.7713 39.5783 33.0475 39.4171 33.3008 39.4401C33.9684 39.4862 34.0835 39.8315 33.6691 40.4301C33.5771 40.5682 33.4389 40.6603 33.3698 40.7984C33.0475 41.397 33.0936 41.9726 33.6461 42.3639C34.567 42.9855 34.3828 41.7654 34.8432 41.5812C36.0634 42.8244 36.3167 44.0676 35.5339 45.4949C35.3958 45.7482 34.9814 45.9784 34.6821 46.0014C33.6001 46.0705 32.7712 45.518 32.0115 44.7813C30.1928 43.0316 29.4331 39.9927 30.4921 37.7365C30.8835 36.9307 31.5971 36.148 32.3568 35.6645C33.4389 34.9738 34.7051 35.4113 35.3497 36.5393C35.8562 37.4142 36.2937 38.3351 36.7771 39.256Z" fill="white"/>
<path d="M15.8068 116.397C15.8989 108.5 17.1881 100.741 18.5695 92.983C18.7306 92.0852 19.0299 91.2334 19.3522 90.3815C19.4443 90.1743 19.8126 90.0592 20.0659 89.9211C20.158 90.1513 20.3652 90.3815 20.3421 90.5887C20.158 92.4766 19.9508 94.3874 19.7436 96.2752C19.4673 98.6004 19.145 100.903 18.8687 103.228C18.5464 105.921 18.2472 108.615 17.9479 111.309C17.8097 112.621 17.6716 113.956 17.5565 115.291C17.4874 115.867 17.4874 116.466 17.3493 117.041C17.2342 117.571 17.3263 118.445 16.4975 118.307C16.1982 118.261 16.014 117.386 15.8068 116.88C15.7608 116.742 15.8068 116.558 15.8068 116.397Z" fill="#292524"/>
<path d="M93.8512 110.828C93.9432 112.532 94.0583 114.235 94.1274 115.916C94.1504 116.538 94.0814 117.182 93.9893 117.804C93.9663 118.011 93.6209 118.356 93.5058 118.333C93.2526 118.264 92.9303 118.034 92.8382 117.804C92.654 117.366 92.5849 116.883 92.5389 116.4C92.0554 111.68 91.618 106.96 91.0885 102.264C90.6971 98.8797 90.1907 95.5185 89.7302 92.1573C89.6842 91.7429 89.5691 91.3055 89.6151 90.8911C89.6611 90.5457 89.9144 90.2234 90.0755 89.8781C90.2827 90.1544 90.628 90.3846 90.7201 90.6839C91.1115 92.0652 91.5259 93.4465 91.7331 94.8739C92.4698 99.8697 93.1605 104.865 93.8281 109.861C93.8742 110.207 93.8512 110.529 93.8512 110.828Z" fill="#292524"/>
<path d="M55.0419 37.7761C54.8117 38.3056 54.6505 39.0653 54.2131 39.6178C53.6145 40.4006 53.3153 40.9992 54.052 41.874C54.2822 42.1503 54.2131 42.7028 54.2591 43.1172C53.8217 43.0712 53.2922 43.1632 52.9238 42.956C51.4965 42.2193 51.1512 40.5387 52.3023 39.1344C53.0159 38.2595 53.2922 37.4307 53.2462 36.3717C53.2462 36.0724 53.5455 35.7501 53.7066 35.4508C54.0059 35.7041 54.3973 35.8883 54.5814 36.1875C54.8117 36.5789 54.8577 37.0854 55.0419 37.7761Z" fill="#292524"/>
<path d="M53.7507 48.0445C54.8097 47.9064 56.0529 47.7222 57.3421 47.6301C57.7105 47.6071 58.0788 47.8833 58.4472 47.9985C58.1939 48.3438 58.0097 48.8042 57.6874 49.0114C55.7305 50.1856 53.5895 49.8402 51.4715 49.633C50.9189 49.587 50.4355 49.2416 50.5506 48.574C50.6427 47.9754 51.1031 47.8603 51.6327 47.8833C52.2542 47.9524 52.8989 47.9985 53.7507 48.0445Z" fill="#292524"/>
<path d="M64.5195 37.3421C64.4965 38.309 63.8288 39.1148 63.0461 39.0687C62.4705 39.0457 61.8719 38.0558 61.8949 37.2039C61.941 36.26 62.5166 35.6845 63.4144 35.7535C64.1511 35.7766 64.5195 36.3291 64.5195 37.3421Z" fill="#292524"/>
<path d="M46.6357 29.1879C46.7738 29.28 47.0731 29.4642 47.3494 29.6483C47.1422 29.9246 47.0041 30.293 46.7278 30.4311C45.876 30.8685 45.0011 31.2138 44.1032 31.5592C43.804 31.6743 43.4356 31.5592 43.1133 31.5592C43.1594 31.2138 43.0903 30.7764 43.2745 30.5462C44.0803 29.5332 45.2544 29.3491 46.6357 29.1879Z" fill="#292524"/>
<path d="M62.4451 29.1879C63.2739 29.6023 64.1487 29.9707 64.9545 30.4311C65.1157 30.5232 65.1617 30.9836 65.1157 31.2369C65.0926 31.329 64.6552 31.4441 64.448 31.398C63.5732 31.2138 62.6984 31.0066 61.8696 30.7304C61.5473 30.6153 61.271 30.293 60.9717 30.0858C61.294 29.8555 61.5933 29.6023 61.9156 29.3951C62.0307 29.326 62.2379 29.3721 62.376 29.3721C62.3991 29.303 62.4221 29.2339 62.4451 29.1879Z" fill="#292524"/>
<path d="M45.0446 37.2937C45.0446 36.4419 45.505 35.8663 46.1957 35.8894C46.9094 35.9124 47.4619 36.58 47.4619 37.4318C47.4619 38.3297 46.9324 38.9052 46.1727 38.8822C45.482 38.8592 45.0446 38.2606 45.0446 37.2937Z" fill="#292524"/>
</svg>
