<svg width="14" height="10" viewBox="0 0 14 10" fill="none" xmlns="http://www.w3.org/2000/svg">
<path fill-rule="evenodd" clip-rule="evenodd" d="M0.700017 3.50009C0.700017 1.56704 2.26706 0 4.2001 0C5.34505 0 6.3616 0.549755 7.00017 1.3997C7.63875 0.549755 8.65529 0 9.80024 0C11.7333 0 13.3003 1.56704 13.3003 3.50009V4.89978C13.7399 5.48481 14.0003 6.21208 14.0003 7.00017V9.80024H12.6003V8.40021H1.40003V9.80024H0V7.00017C0 6.21207 0.260469 5.48481 0.700017 4.89978V3.50009ZM6.30015 3.50009C6.30015 2.34026 5.35993 1.40003 4.2001 1.40003C3.04028 1.40003 2.10005 2.34026 2.10005 3.50009V3.79132C2.52879 3.604 3.0023 3.50009 3.50009 3.50009H6.30015ZM7.70019 3.50009H10.5003C10.998 3.50009 11.4716 3.604 11.9003 3.79132V3.50009C11.9003 2.34026 10.9601 1.40003 9.80024 1.40003C8.64041 1.40003 7.70019 2.34026 7.70019 3.50009Z" fill="#A8A29E"/>
</svg>
