<svg width="17" height="17" viewBox="0 0 17 17" fill="none" xmlns="http://www.w3.org/2000/svg">
<path fill-rule="evenodd" clip-rule="evenodd" d="M8.17565 0C4.88943 0 2.22542 2.66401 2.22542 5.95023V8.59507C2.22542 9.51882 2.01034 10.4299 1.59723 11.2561L0 14.4506H4.88347C5.03406 15.0337 5.33826 15.5717 5.77139 16.0048C6.40904 16.6424 7.27388 17.0007 8.17565 17.0007C9.07742 17.0007 9.94226 16.6424 10.5799 16.0048C11.013 15.5717 11.3172 15.0337 11.4678 14.4506H16.3513L14.7541 11.2561C14.341 10.4299 14.1259 9.51882 14.1259 8.59507V5.95023C14.1259 2.66401 11.4619 0 8.17565 0ZM9.64795 14.4506H6.70334C6.777 14.5782 6.86754 14.6967 6.97352 14.8027C7.29234 15.1215 7.72476 15.3006 8.17565 15.3006C8.62653 15.3006 9.05895 15.1215 9.37778 14.8027C9.48375 14.6967 9.5743 14.5782 9.64795 14.4506ZM13.6005 12.7505L13.2335 12.0164C12.7023 10.9541 12.4258 9.78275 12.4258 8.59507V5.95023C12.4258 3.60293 10.5229 1.70007 8.17565 1.70007C5.82835 1.70007 3.92548 3.60293 3.92548 5.95023V8.59507C3.92548 9.78275 3.64896 10.9541 3.11782 12.0164L2.75077 12.7505H13.6005Z" fill="#57534E"/>
</svg>
