<svg width="227" height="234" viewBox="0 0 227 234" fill="none" xmlns="http://www.w3.org/2000/svg">
<path d="M223.398 154.786C221.547 154.786 219.961 153.222 219.961 151.398V100.064C219.961 98.2397 221.547 96.6762 223.398 96.6762C225.249 96.6762 226.835 98.2397 226.835 100.064V151.659C226.57 153.222 224.984 154.786 223.398 154.786Z" fill="#57534E"/>
<path d="M3.43693 137.847C1.58628 137.847 0 136.284 0 134.46V111.529C0 50.0315 50.7609 0 113.419 0C147.259 0 179.249 14.8531 200.928 40.6506C206.745 47.4257 211.504 54.9826 215.469 63.0606C216.262 64.6241 215.469 66.7087 213.883 67.4905C212.297 68.2722 210.182 67.4905 209.389 65.927C205.687 58.3701 201.193 51.3344 195.641 44.8199C175.284 20.5859 145.409 6.51452 113.419 6.51452C54.4622 6.51452 6.60949 53.6797 6.60949 111.789V134.72C6.60949 136.284 5.02321 137.847 3.43693 137.847Z" fill="#57534E"/>
<path d="M3.43693 159.216C1.58628 159.216 0 157.652 0 155.828V133.158C0 131.334 1.58628 129.77 3.43693 129.77C5.28759 129.77 6.87387 131.334 6.87387 133.158V155.828C6.60949 157.913 5.02321 159.216 3.43693 159.216Z" fill="#57534E"/>
<path d="M200.137 196.739C199.873 196.739 199.608 196.739 199.344 196.739C197.493 196.478 196.436 194.654 196.7 192.83C197.758 187.618 198.022 184.491 198.022 178.498V148.01C198.022 146.186 199.608 144.622 201.459 144.622C203.31 144.622 204.896 146.186 204.896 148.01V178.498C204.896 184.752 204.632 188.4 203.574 194.133C203.045 195.696 201.723 196.739 200.137 196.739Z" fill="#57534E"/>
<path d="M201.458 125.339C199.607 125.339 198.021 123.776 198.021 121.952V111.529C198.021 71.6598 169.204 37.2631 129.547 29.4457C127.696 29.1851 126.638 27.361 126.903 25.537C127.167 23.7129 129.018 22.6706 130.868 22.9312C173.698 31.2698 204.63 68.5328 204.63 111.529V121.952C204.895 123.776 203.308 125.339 201.458 125.339Z" fill="#57534E"/>
<path d="M26.7016 198.041C25.1153 198.041 23.7934 196.999 23.529 195.435C22.4715 189.963 21.9428 184.23 21.9428 178.497V111.789C21.6784 66.9688 55.7833 28.4028 100.463 22.4094C102.314 22.1488 103.9 23.4517 104.165 25.2758C104.429 27.0999 103.107 28.6634 101.257 28.9239C59.4846 34.6567 28.2879 70.3563 28.2879 111.789V178.497C28.2879 183.709 28.8166 189.181 29.8741 194.132C30.1385 195.956 29.081 197.52 27.2304 198.041C26.966 198.041 26.966 198.041 26.7016 198.041Z" fill="#57534E"/>
<path d="M179.514 181.626C177.663 181.626 176.077 180.062 176.077 178.238V111.79C176.077 102.409 173.962 93.2886 169.732 84.6894C168.939 83.1259 169.732 81.0413 171.318 80.2595C172.904 79.4778 175.019 80.2595 175.812 81.823C180.571 91.2039 182.951 101.367 182.951 111.79V178.499C182.686 180.323 181.364 181.626 179.514 181.626Z" fill="#57534E"/>
<path d="M48.9115 100.323C48.6471 100.323 48.3827 100.323 48.1183 100.323C46.2677 99.8015 45.2102 98.238 45.7389 96.414C53.1416 65.1443 80.9014 43.2555 113.42 43.2555C133.777 43.2555 153.077 52.1152 166.296 67.2289C167.353 68.5318 167.353 70.6165 166.032 71.9194C164.71 72.9617 162.595 72.9617 161.273 71.6588C149.376 57.848 131.927 50.0306 113.42 50.0306C84.3383 50.0306 58.6935 70.3559 52.084 97.9775C51.5553 99.2804 50.2334 100.323 48.9115 100.323Z" fill="#57534E"/>
<path d="M47.0647 181.625C45.214 181.625 43.6277 180.061 43.6277 178.237V119.086C43.6277 117.261 45.214 115.698 47.0647 115.698C48.9153 115.698 50.5016 117.261 50.5016 119.086V178.498C50.5016 180.322 48.9153 181.625 47.0647 181.625Z" fill="#57534E"/>
<path d="M157.571 173.547C155.72 173.547 154.134 171.984 154.134 170.16V111.79C154.134 89.6403 135.892 71.3997 113.155 71.3997C90.6829 71.3997 72.1764 89.3798 72.1764 111.79V131.854C72.1764 133.679 70.5901 135.242 68.7394 135.242C66.8888 135.242 65.3025 133.679 65.3025 131.854V111.79C65.3025 85.9922 86.7172 64.8852 112.891 64.8852C139.064 64.8852 160.479 85.9922 160.479 111.79V170.42C160.744 171.984 159.422 173.547 157.571 173.547Z" fill="#57534E"/>
<path d="M69.0098 175.111C67.1592 175.111 65.5729 173.547 65.5729 171.723V151.919C65.5729 150.095 67.1592 148.531 69.0098 148.531C70.8605 148.531 72.4468 150.095 72.4468 151.919V171.723C72.4468 173.547 70.8605 175.111 69.0098 175.111Z" fill="#57534E"/>
<path d="M135.629 166.251C133.778 166.251 132.192 164.687 132.192 162.863V122.473C132.192 120.649 133.778 119.086 135.629 119.086C137.48 119.086 139.066 120.649 139.066 122.473V162.863C138.802 164.687 137.48 166.251 135.629 166.251Z" fill="#57534E"/>
<path d="M91.2136 167.554C89.363 167.554 87.7767 165.99 87.7767 164.166V111.789C87.7767 97.9785 99.145 86.5129 113.422 86.5129C127.434 86.5129 139.066 97.7179 139.066 111.789V125.339C139.066 127.164 137.48 128.727 135.629 128.727C133.779 128.727 132.192 127.164 132.192 125.339V111.789C132.192 101.627 123.732 93.0274 113.157 93.0274C102.846 93.0274 94.1218 101.366 94.1218 111.789V164.427C94.3862 166.251 92.7999 167.554 91.2136 167.554Z" fill="#57534E"/>
<path d="M113.421 164.687C111.571 164.687 109.984 163.124 109.984 161.3V145.925C109.984 144.101 111.571 142.538 113.421 142.538C115.272 142.538 116.858 144.101 116.858 145.925V161.3C116.594 163.124 115.008 164.687 113.421 164.687Z" fill="#57534E"/>
<path d="M113.421 133.678C111.571 133.678 109.984 132.114 109.984 130.29V111.789C109.984 109.965 111.571 108.401 113.421 108.401C115.272 108.401 116.858 109.965 116.858 111.789V130.29C116.594 132.114 115.008 133.678 113.421 133.678Z" fill="#57534E"/>
<path d="M46.5175 214.978C45.46 214.978 44.6669 214.718 43.8737 213.936C42.5518 212.633 42.8162 210.548 44.1381 209.245C44.4025 208.985 50.2189 204.034 56.564 200.125C73.7486 190.484 93.3127 185.272 113.141 185.272C137.993 185.272 161.523 193.089 181.087 207.682C182.673 208.724 182.937 210.809 181.615 212.372C180.558 213.936 178.443 214.196 176.857 212.894C158.35 199.083 136.142 191.786 112.877 191.786C94.1058 191.786 75.8637 196.738 59.7365 205.858C53.9202 209.506 48.1038 214.196 48.1038 214.196C47.8394 214.718 47.3107 214.978 46.5175 214.978Z" fill="#57534E"/>
<path d="M158.614 225.661C158.085 225.661 157.556 225.401 157.027 225.14C147.245 219.408 136.67 215.759 125.302 214.196C123.451 213.935 122.129 212.372 122.394 210.548C122.658 208.724 124.244 207.421 126.095 207.681C138.256 209.245 149.625 213.414 160.2 219.668C161.786 220.71 162.315 222.535 161.257 224.098C160.729 225.14 159.671 225.661 158.614 225.661Z" fill="#57534E"/>
<path d="M68.4591 225.401C67.4016 225.401 66.3441 224.88 65.5509 223.837C64.4934 222.274 65.0222 220.189 66.6085 219.408C77.1836 213.414 88.552 209.505 100.449 207.681C102.3 207.421 103.886 208.724 104.15 210.548C104.415 212.372 103.093 213.935 101.242 214.196C90.1382 215.759 79.5631 219.408 69.781 225.14C69.781 225.14 68.9879 225.401 68.4591 225.401Z" fill="#57534E"/>
<path d="M130.318 234.001C130.054 234.001 129.789 234.001 129.261 233.74C118.95 230.874 107.846 230.353 97.5352 232.698C95.6845 233.219 94.0983 231.916 93.5695 230.353C93.0407 228.529 94.3626 226.965 95.9489 226.444C107.582 223.838 119.743 224.099 131.111 227.486C132.962 228.007 133.755 229.831 133.226 231.656C132.962 233.219 131.64 234.001 130.318 234.001Z" fill="#57534E"/>
</svg>
