<svg width="19" height="15" viewBox="0 0 19 15" fill="none" xmlns="http://www.w3.org/2000/svg">
<path fill-rule="evenodd" clip-rule="evenodd" d="M2.5174 0.530768C3.36337 0.180355 4.27007 0 5.18575 0C6.10142 0 7.00812 0.180354 7.85409 0.530767C8.44546 0.775718 8.9991 1.10042 9.49997 1.49487C10.0008 1.10043 10.5544 0.775725 11.1458 0.530768C11.9918 0.180355 12.8985 0 13.8141 0C14.7298 0 15.6365 0.180354 16.4825 0.530767C17.3284 0.881179 18.0971 1.39479 18.7446 2.04226C18.908 2.20572 18.9999 2.42741 18.9999 2.65857V13.9455C18.9999 14.298 18.7875 14.6159 18.4618 14.7508C18.1361 14.8857 17.7613 14.8111 17.512 14.5618C17.0264 14.0762 16.4499 13.691 15.8154 13.4282C15.1809 13.1654 14.5009 13.0301 13.8141 13.0301C13.1274 13.0301 12.4473 13.1654 11.8129 13.4282C11.1784 13.691 10.6019 14.0762 10.1163 14.5618C9.95283 14.7253 9.73113 14.8171 9.49997 14.8171C9.26881 14.8171 9.04712 14.7253 8.88367 14.5618C8.39808 14.0762 7.82151 13.691 7.18701 13.4282C6.55253 13.1654 5.8725 13.0301 5.18575 13.0301C4.49899 13.0301 3.81896 13.1654 3.18449 13.4282C2.55001 13.691 1.97351 14.0762 1.4879 14.5618C1.23863 14.8111 0.863739 14.8857 0.538048 14.7508C0.212356 14.6159 0 14.2981 0 13.9455V2.65857C0 2.42741 0.091828 2.20572 0.255283 2.04227C0.90276 1.39479 1.67143 0.881181 2.5174 0.530768ZM8.62838 3.03612C8.20044 2.6619 7.71368 2.35941 7.18701 2.14126C6.55253 1.87845 5.8725 1.74318 5.18575 1.74318C4.49899 1.74318 3.81896 1.87845 3.18449 2.14126C2.65783 2.35941 2.17112 2.66189 1.74318 3.03612V12.196C1.99269 12.0544 2.25122 11.928 2.5174 11.8177C3.36337 11.4673 4.27007 11.287 5.18575 11.287C6.10142 11.287 7.00812 11.4673 7.85409 11.8177C8.12029 11.928 8.37884 12.0544 8.62838 12.1961V3.03612ZM10.3716 12.196C10.6211 12.0544 10.8796 11.928 11.1458 11.8177C11.9918 11.4673 12.8985 11.287 13.8141 11.287C14.7298 11.287 15.6365 11.4673 16.4825 11.8177C16.7487 11.928 17.0072 12.0544 17.2567 12.196V3.03612C16.8288 2.66188 16.342 2.3594 15.8154 2.14126C15.1809 1.87845 14.5009 1.74318 13.8141 1.74318C13.1274 1.74318 12.4473 1.87845 11.8129 2.14126C11.2862 2.35941 10.7995 2.66189 10.3716 3.03612V12.196Z" fill="#57534E"/>
</svg>
