<svg width="24" height="24" viewBox="0 0 24 24" fill="none" xmlns="http://www.w3.org/2000/svg">
<path d="M4.5 8.5C4.5 6.5 6 5 8 5C8.5 3.5 10 2.5 12 2.5C14 2.5 15.5 3.5 16 5C18 5 19.5 6.5 19.5 8.5C19.5 9.5 19 10.5 18.5 11C19 11.5 19.5 12.5 19.5 13.5C19.5 15.5 18 17 16 17C15.5 18.5 14 19.5 12 19.5C10 19.5 8.5 18.5 8 17C6 17 4.5 15.5 4.5 13.5C4.5 12.5 5 11.5 5.5 11C5 10.5 4.5 9.5 4.5 8.5Z" stroke="currentColor" stroke-width="2" stroke-linecap="round" stroke-linejoin="round"/>
<path d="M12 8V14" stroke="currentColor" stroke-width="2" stroke-linecap="round"/>
</svg> 