<svg width="17" height="15" viewBox="0 0 17 15" fill="none" xmlns="http://www.w3.org/2000/svg">
<path fill-rule="evenodd" clip-rule="evenodd" d="M16.6667 9.16667C16.6667 6.50826 14.8884 4.26519 12.4565 3.56213C12.1636 1.54744 10.4292 0 8.33333 0C6.23747 0 4.50303 1.54744 4.2102 3.56213C1.77829 4.26519 0 6.50826 0 9.16667C0 12.3883 2.61167 15 5.83333 15H10.8333C14.055 15 16.6667 12.3883 16.6667 9.16667ZM8.33333 1.66667C9.42185 1.66667 10.3479 2.36234 10.6911 3.33333H5.97559C6.31879 2.36234 7.24482 1.66667 8.33333 1.66667ZM1.75002 8.33333C1.69536 8.60259 1.66667 8.88128 1.66667 9.16667C1.66667 11.4679 3.53215 13.3333 5.83333 13.3333H10.8333C13.1345 13.3333 15 11.4679 15 9.16667C15 8.88128 14.9713 8.60259 14.9167 8.33333H11.309C11.2147 8.33333 11.073 8.37518 10.8444 8.55398C10.6621 8.69657 10.4999 8.86217 10.3048 9.06131C10.241 9.12642 10.1737 9.19512 10.1011 9.26777C9.63226 9.73661 8.99638 10 8.33333 10C7.67029 10 7.03441 9.73661 6.56557 9.26777C6.49295 9.19515 6.4257 9.12649 6.36195 9.0614C6.1669 8.86227 6.0046 8.69657 5.82228 8.55398C5.59367 8.37518 5.45198 8.33333 5.3577 8.33333H1.75002ZM2.4997 6.66667H5.3577C5.98634 6.66667 6.48762 6.95848 6.84904 7.24114C7.12779 7.45914 7.3953 7.73311 7.60192 7.94471C7.65331 7.99734 7.70098 8.04616 7.74408 8.08925C7.90036 8.24554 8.11232 8.33333 8.33333 8.33333C8.55435 8.33333 8.76631 8.24553 8.92259 8.08925C8.96568 8.04616 9.0133 7.99739 9.06469 7.94476C9.27131 7.73316 9.53888 7.45915 9.81763 7.24114C10.179 6.95848 10.6803 6.66667 11.309 6.66667H14.167C13.4068 5.65463 12.1965 5 10.8333 5H5.83333C4.47015 5 3.25987 5.65463 2.4997 6.66667Z" fill="#57534E"/>
</svg>
