<svg width="48" height="48" viewBox="0 0 48 48" fill="none" xmlns="http://www.w3.org/2000/svg">
<path d="M0 24C0 10.7452 10.7452 0 24 0C37.2548 0 48 10.7452 48 24C48 37.2548 37.2548 48 24 48C10.7452 48 0 37.2548 0 24Z" fill="#E9EED9"/>
<path fill-rule="evenodd" clip-rule="evenodd" d="M34 25C34 21.8099 31.8661 19.1182 28.9478 18.2746C28.5964 15.8569 26.515 14 24 14C21.485 14 19.4036 15.8569 19.0522 18.2746C16.1339 19.1182 14 21.8099 14 25C14 28.866 17.134 32 21 32H27C30.866 32 34 28.866 34 25ZM24 16C25.3062 16 26.4175 16.8348 26.8293 18H21.1707C21.5825 16.8348 22.6938 16 24 16ZM16.1 24C16.0344 24.3231 16 24.6575 16 25C16 27.7614 18.2386 30 21 30H27C29.7614 30 32 27.7614 32 25C32 24.6575 31.9656 24.3231 31.9 24H27.5708C27.4576 24 27.2876 24.0502 27.0133 24.2648C26.7945 24.4359 26.5998 24.6346 26.3658 24.8736C26.2892 24.9517 26.2085 25.0341 26.1213 25.1213C25.5587 25.6839 24.7956 26 24 26C23.2044 26 22.4413 25.6839 21.8787 25.1213C21.7915 25.0342 21.7108 24.9518 21.6343 24.8737C21.4003 24.6347 21.2055 24.4359 20.9867 24.2648C20.7124 24.0502 20.5424 24 20.4292 24H16.1ZM16.9996 22H20.4292C21.1836 22 21.7851 22.3502 22.2189 22.6894C22.5533 22.951 22.8744 23.2797 23.1223 23.5337C23.184 23.5968 23.2412 23.6554 23.2929 23.7071C23.4804 23.8946 23.7348 24 24 24C24.2652 24 24.5196 23.8946 24.7071 23.7071C24.7588 23.6554 24.816 23.5969 24.8776 23.5337C25.1256 23.2798 25.4467 22.951 25.7811 22.6894C26.2149 22.3502 26.8164 22 27.5708 22H31.0004C30.0882 20.7856 28.6358 20 27 20H21C19.3642 20 17.9118 20.7856 16.9996 22Z" fill="#9BB167"/>
</svg>
