<svg width="20" height="20" viewBox="0 0 20 20" fill="none" xmlns="http://www.w3.org/2000/svg">
<path d="M3 8H17V15C17 16.1046 16.1046 17 15 17H5C3.89543 17 3 16.1046 3 15V8Z" stroke="currentColor" stroke-width="1.5" stroke-linecap="round" stroke-linejoin="round"/>
<path d="M3 8C3 6.89543 3.89543 6 5 6H15C16.1046 6 17 6.89543 17 8" stroke="currentColor" stroke-width="1.5" stroke-linecap="round" stroke-linejoin="round"/>
<path d="M7 6V4C7 3.44772 7.44772 3 8 3C8.55228 3 9 3.44772 9 4V6" stroke="currentColor" stroke-width="1.5" stroke-linecap="round" stroke-linejoin="round"/>
<path d="M11 6V4C11 3.44772 11.4477 3 12 3C12.5523 3 13 3.44772 13 4V6" stroke="currentColor" stroke-width="1.5" stroke-linecap="round" stroke-linejoin="round"/>
<path d="M6 11H7" stroke="currentColor" stroke-width="1.5" stroke-linecap="round"/>
<path d="M9 11H10" stroke="currentColor" stroke-width="1.5" stroke-linecap="round"/>
<path d="M12 11H13" stroke="currentColor" stroke-width="1.5" stroke-linecap="round"/>
</svg> 