<svg width="17" height="15" viewBox="0 0 17 15" fill="none" xmlns="http://www.w3.org/2000/svg">
<path fill-rule="evenodd" clip-rule="evenodd" d="M5.83333 1.71824V0H4.16667V2.15126C1.72347 3.14024 0 5.53552 0 8.33333C0 12.0152 2.98477 15 6.66667 15H10C13.6819 15 16.6667 12.0152 16.6667 8.33333C16.6667 5.53552 14.9432 3.14024 12.5 2.15126V0H10.8333V1.71824C10.5603 1.6842 10.2822 1.66667 10 1.66667H6.66667C6.38445 1.66667 6.10633 1.6842 5.83333 1.71824ZM13.7268 5C12.8113 3.97708 11.4808 3.33333 10 3.33333H6.66667C5.18583 3.33333 3.85536 3.97708 2.93982 5H13.7268ZM1.95118 6.66667H14.7155C14.8997 7.18796 15 7.74894 15 8.33333C15 11.0948 12.7614 13.3333 10 13.3333H6.66667C3.90524 13.3333 1.66667 11.0948 1.66667 8.33333C1.66667 7.74894 1.76692 7.18796 1.95118 6.66667Z" fill="#926247"/>
</svg>
