<svg width="18" height="17" viewBox="0 0 18 17" fill="none" xmlns="http://www.w3.org/2000/svg">
<path fill-rule="evenodd" clip-rule="evenodd" d="M7.6503 5.1002C7.6503 2.28344 9.93374 0 12.7505 0C15.5673 0 17.8507 2.28344 17.8507 5.1002C17.8507 7.91696 15.5673 10.2004 12.7505 10.2004C9.93374 10.2004 7.6503 7.91696 7.6503 5.1002ZM12.7505 1.70007C10.8727 1.70007 9.35036 3.22236 9.35036 5.1002C9.35036 6.97804 10.8727 8.50033 12.7505 8.50033C14.6283 8.50033 16.1506 6.97804 16.1506 5.1002C16.1506 3.22236 14.6283 1.70007 12.7505 1.70007Z" fill="#57534E"/>
<path fill-rule="evenodd" clip-rule="evenodd" d="M0 10.2004C0 7.8531 1.90286 5.95023 4.25017 5.95023C6.59747 5.95023 8.50033 7.8531 8.50033 10.2004C8.50033 12.5477 6.59747 14.4506 4.25017 14.4506C1.90286 14.4506 0 12.5477 0 10.2004ZM4.25017 7.6503C2.84178 7.6503 1.70007 8.79202 1.70007 10.2004C1.70007 11.6088 2.84178 12.7505 4.25017 12.7505C5.65855 12.7505 6.80027 11.6088 6.80027 10.2004C6.80027 8.79202 5.65855 7.6503 4.25017 7.6503Z" fill="#57534E"/>
<path fill-rule="evenodd" clip-rule="evenodd" d="M11.4754 11.0504C9.83234 11.0504 8.50033 12.3824 8.50033 14.0255C8.50033 15.6687 9.83234 17.0007 11.4754 17.0007C13.1186 17.0007 14.4506 15.6687 14.4506 14.0255C14.4506 12.3824 13.1186 11.0504 11.4754 11.0504ZM10.2004 14.0255C10.2004 13.3214 10.7713 12.7505 11.4754 12.7505C12.1796 12.7505 12.7505 13.3214 12.7505 14.0255C12.7505 14.7297 12.1796 15.3006 11.4754 15.3006C10.7713 15.3006 10.2004 14.7297 10.2004 14.0255Z" fill="#57534E"/>
</svg>
