<svg width="18" height="12" viewBox="0 0 18 12" fill="none" xmlns="http://www.w3.org/2000/svg">
<path d="M18.0001 1.22933L8.90362 10.3258C8.1742 11.0552 7.24487 11.5519 6.23314 11.7532C5.2214 11.9544 4.17272 11.8511 3.21969 11.4564C2.26666 11.0616 1.45209 10.3931 0.87899 9.53542C0.305891 8.67772 -1.03625e-07 7.66933 0 6.63778H1.73854C1.73854 7.32548 1.94247 7.99774 2.32453 8.56954C2.7066 9.14134 3.24965 9.58701 3.885 9.85018C4.52035 10.1134 5.21948 10.1822 5.89396 10.048C6.56845 9.91388 7.18801 9.58272 7.67429 9.09645L16.7707 0L18.0001 1.22933Z" fill="white"/>
</svg>
