<svg width="17" height="17" viewBox="0 0 17 17" fill="none" xmlns="http://www.w3.org/2000/svg">
<path d="M7.06094 3.12016C6.5358 5.08001 6.81072 7.1682 7.82521 8.92535C8.8397 10.6825 10.5107 11.9647 12.4705 12.4898L12.9105 10.8477C11.3862 10.4392 10.0866 9.44199 9.29751 8.07532C8.50846 6.70864 8.29464 5.08449 8.70308 3.56017L7.06094 3.12016Z" fill="#A8A29E"/>
<path fill-rule="evenodd" clip-rule="evenodd" d="M8.50033 0C3.80573 0 0 3.80573 0 8.50033C0 13.1949 3.80573 17.0007 8.50033 17.0007C13.1949 17.0007 17.0007 13.1949 17.0007 8.50033C17.0007 3.80573 13.1949 0 8.50033 0ZM1.70007 8.50033C1.70007 4.74465 4.74465 1.70007 8.50033 1.70007C12.256 1.70007 15.3006 4.74465 15.3006 8.50033C15.3006 12.256 12.256 15.3006 8.50033 15.3006C4.74465 15.3006 1.70007 12.256 1.70007 8.50033Z" fill="#A8A29E"/>
</svg>
