<svg width="48" height="48" viewBox="0 0 48 48" fill="none" xmlns="http://www.w3.org/2000/svg">
<path d="M0 24C0 10.7452 10.7452 0 24 0C37.2548 0 48 10.7452 48 24C48 37.2548 37.2548 48 24 48C10.7452 48 0 37.2548 0 24Z" fill="#FAFAF9"/>
<path d="M22.3067 17.6706C21.6889 19.9762 22.0123 22.4328 23.2058 24.5C24.3992 26.5672 26.365 28.0755 28.6706 28.6933L29.1883 26.7615C27.395 26.281 25.8661 25.1078 24.9378 23.5C24.0096 21.8922 23.758 19.9815 24.2385 18.1883L22.3067 17.6706Z" fill="#57534E"/>
<path fill-rule="evenodd" clip-rule="evenodd" d="M24 14C18.4772 14 14 18.4772 14 24C14 29.5228 18.4772 34 24 34C29.5228 34 34 29.5228 34 24C34 18.4772 29.5228 14 24 14ZM16 24C16 19.5817 19.5817 16 24 16C28.4183 16 32 19.5817 32 24C32 28.4183 28.4183 32 24 32C19.5817 32 16 28.4183 16 24Z" fill="#57534E"/>
</svg>
