<svg width="17" height="16" viewBox="0 0 17 16" fill="none" xmlns="http://www.w3.org/2000/svg">
<path fill-rule="evenodd" clip-rule="evenodd" d="M0 7.64985C0 3.42495 3.42496 0 7.64985 0H10.1998C13.9553 0 16.9997 3.0444 16.9997 6.79987C16.9997 10.5553 13.9553 13.5997 10.1998 13.5997H5.65822C4.98193 13.5997 4.33334 13.8684 3.85513 14.3466L2.90202 15.2997C1.8311 16.3706 0 15.6121 0 14.0976V7.64985ZM5.0999 5.94988C4.63047 5.94988 4.24992 6.33043 4.24992 6.79987C4.24992 7.2693 4.63047 7.64985 5.0999 7.64985C5.56933 7.64985 5.94988 7.2693 5.94988 6.79987C5.94988 6.33043 5.56933 5.94988 5.0999 5.94988ZM7.64985 6.79987C7.64985 6.33043 8.0304 5.94988 8.49983 5.94988C8.96927 5.94988 9.34982 6.33043 9.34982 6.79987C9.34982 7.2693 8.96927 7.64985 8.49983 7.64985C8.0304 7.64985 7.64985 7.2693 7.64985 6.79987ZM11.8998 5.94988C11.4303 5.94988 11.0498 6.33043 11.0498 6.79987C11.0498 7.2693 11.4303 7.64985 11.8998 7.64985C12.3692 7.64985 12.7498 7.2693 12.7498 6.79987C12.7498 6.33043 12.3692 5.94988 11.8998 5.94988Z" fill="#9BB167"/>
</svg>
