<svg width="259" height="192" viewBox="0 0 259 192" fill="none" xmlns="http://www.w3.org/2000/svg">
<path d="M217.394 138.466C212.04 147.52 194.834 150.833 185.724 150.261C175.242 149.596 166.797 143.176 159.479 136.863C150.245 128.922 144.412 124.666 131.138 126.805C119.445 128.685 108.351 132.777 96.4833 133.504C72.2125 135.049 44.2057 131.344 37.4294 106.646C31.2149 83.9982 44.8704 61.2991 71.7745 61.3918C94.4942 61.4794 94.4479 89.7336 119.353 80.6745C142.541 72.2184 146.148 39.579 174.938 42.0731C203.558 44.562 184.977 78.2526 185.76 96.5459C186.275 108.285 199.874 102.992 208.871 107.816C219.744 113.675 224.171 127.011 217.394 138.466Z" fill="#F08C51"/>
<path opacity="0.9" d="M217.394 138.466C212.04 147.52 194.834 150.833 185.724 150.261C175.242 149.596 166.797 143.176 159.479 136.863C150.245 128.922 144.412 124.666 131.138 126.805C119.445 128.685 108.351 132.777 96.4833 133.504C72.2125 135.049 44.2057 131.344 37.4294 106.646C31.2149 83.9982 44.8704 61.2991 71.7745 61.3918C94.4942 61.4794 94.4479 89.7336 119.353 80.6745C142.541 72.2184 146.148 39.579 174.938 42.0731C203.558 44.562 184.977 78.2526 185.76 96.5459C186.275 108.285 199.874 102.992 208.871 107.816C219.744 113.675 224.171 127.011 217.394 138.466Z" fill="white"/>
<path d="M129.498 191.981C184.678 191.981 229.411 189.369 229.411 186.148C229.411 182.926 184.678 180.314 129.498 180.314C74.3182 180.314 29.5859 182.926 29.5859 186.148C29.5859 189.369 74.3182 191.981 129.498 191.981Z" fill="#F5F5F5"/>
<path d="M159.27 33.4422C158.851 32.0575 158.295 30.718 157.611 29.4435L158.642 26.0682L151.979 19.4002L148.604 20.4308C147.329 19.7464 145.989 19.1905 144.605 18.7715L142.945 15.6797H133.515L131.861 18.7715C130.476 19.1896 129.137 19.7454 127.863 20.4308L124.487 19.4002L117.819 26.0682L118.85 29.4435C118.169 30.7192 117.615 32.0585 117.196 33.4422L114.078 35.1015V44.5316L117.196 46.1857C117.614 47.5698 118.168 48.9092 118.85 50.1845L117.819 53.5597L124.487 60.2278L127.863 59.1971C129.138 59.8787 130.477 60.4327 131.861 60.8513L133.515 63.9431H142.945L144.605 60.8513C145.988 60.4317 147.328 59.8777 148.604 59.1971L151.979 60.2278L158.647 53.5597L157.616 50.1845C158.302 48.9104 158.857 47.5707 159.275 46.1857L162.393 44.5316V35.1015L159.27 33.4422ZM138.23 53.2093C135.581 53.2093 132.99 52.4235 130.787 50.9513C128.584 49.4792 126.866 47.3867 125.852 44.9385C124.838 42.4904 124.573 39.7965 125.09 37.1976C125.607 34.5986 126.883 32.2114 128.757 30.3376C130.63 28.4639 133.018 27.1879 135.617 26.6709C138.216 26.154 140.909 26.4193 143.358 27.4333C145.806 28.4474 147.898 30.1646 149.37 32.3679C150.843 34.5712 151.628 37.1615 151.628 39.8114C151.628 43.3647 150.217 46.7726 147.704 49.2851C145.192 51.7977 141.784 53.2093 138.23 53.2093Z" fill="#F08C51"/>
<path opacity="0.2" d="M159.27 33.4422C158.851 32.0575 158.295 30.718 157.611 29.4435L158.642 26.0682L151.979 19.4002L148.604 20.4308C147.329 19.7464 145.989 19.1905 144.605 18.7715L142.945 15.6797H133.515L131.861 18.7715C130.476 19.1896 129.137 19.7454 127.863 20.4308L124.487 19.4002L117.819 26.0682L118.85 29.4435C118.169 30.7192 117.615 32.0585 117.196 33.4422L114.078 35.1015V44.5316L117.196 46.1857C117.614 47.5698 118.168 48.9092 118.85 50.1845L117.819 53.5597L124.487 60.2278L127.863 59.1971C129.138 59.8787 130.477 60.4327 131.861 60.8513L133.515 63.9431H142.945L144.605 60.8513C145.988 60.4317 147.328 59.8777 148.604 59.1971L151.979 60.2278L158.647 53.5597L157.616 50.1845C158.302 48.9104 158.857 47.5707 159.275 46.1857L162.393 44.5316V35.1015L159.27 33.4422ZM138.23 53.2093C135.581 53.2093 132.99 52.4235 130.787 50.9513C128.584 49.4792 126.866 47.3867 125.852 44.9385C124.838 42.4904 124.573 39.7965 125.09 37.1976C125.607 34.5986 126.883 32.2114 128.757 30.3376C130.63 28.4639 133.018 27.1879 135.617 26.6709C138.216 26.154 140.909 26.4193 143.358 27.4333C145.806 28.4474 147.898 30.1646 149.37 32.3679C150.843 34.5712 151.628 37.1615 151.628 39.8114C151.628 43.3647 150.217 46.7726 147.704 49.2851C145.192 51.7977 141.784 53.2093 138.23 53.2093Z" fill="white"/>
<path d="M138.229 35.375C137.351 35.375 136.492 35.6355 135.761 36.1236C135.031 36.6117 134.461 37.3054 134.125 38.1171C133.789 38.9287 133.701 39.8218 133.872 40.6835C134.044 41.5451 134.467 42.3366 135.088 42.9578C135.709 43.5791 136.501 44.0021 137.362 44.1735C138.224 44.3449 139.117 44.2569 139.929 43.9207C140.741 43.5845 141.434 43.0152 141.922 42.2847C142.41 41.5543 142.671 40.6955 142.671 39.8169C142.671 38.6389 142.203 37.509 141.37 36.676C140.537 35.843 139.407 35.375 138.229 35.375Z" fill="#F08C51"/>
<path d="M226.379 48.4006C225.78 46.421 224.988 44.5051 224.013 42.6807L225.487 37.8575L215.97 28.3398L211.141 29.8187C209.323 28.8334 207.408 28.039 205.426 27.4483L203.061 22.9961H189.586L187.216 27.4483C185.235 28.0409 183.32 28.8352 181.501 29.8187L176.678 28.3398L167.15 37.8678L168.623 42.691C167.645 44.5134 166.852 46.4297 166.258 48.4109L161.801 50.7761V64.2514L166.253 66.6218C166.846 68.6016 167.639 70.5163 168.618 72.3365L167.144 77.1546L176.672 86.6826L181.496 85.2088C183.317 86.1892 185.233 86.9801 187.216 87.5689L189.586 92.0263H203.061L205.426 87.574C207.407 86.9789 209.321 86.1847 211.141 85.2036L215.97 86.6774L225.498 77.1494L224.024 72.3262C224.995 70.5036 225.784 68.5894 226.379 66.6115L230.831 64.2411V50.7658L226.379 48.4006ZM196.321 81.9314C191.489 81.9314 186.766 80.4986 182.748 77.8142C178.731 75.1297 175.599 71.3142 173.75 66.85C171.901 62.3859 171.417 57.4738 172.36 52.7347C173.303 47.9956 175.629 43.6425 179.046 40.2258C182.463 36.8092 186.816 34.4824 191.555 33.5397C196.294 32.5971 201.206 33.0809 205.67 34.93C210.134 36.7791 213.95 39.9104 216.634 43.928C219.319 47.9456 220.752 52.669 220.752 57.5009C220.752 60.7091 220.12 63.886 218.892 66.85C217.664 69.8141 215.865 72.5073 213.596 74.7759C211.327 77.0445 208.634 78.844 205.67 80.0718C202.706 81.2995 199.529 81.9314 196.321 81.9314Z" fill="#F08C51"/>
<path d="M196.322 36.5C192.167 36.501 188.106 37.734 184.652 40.0432C181.197 42.3523 178.505 45.6338 176.916 49.4728C175.327 53.3117 174.911 57.5358 175.723 61.6108C176.534 65.6858 178.535 69.4287 181.474 72.3664C184.412 75.304 188.155 77.3044 192.231 78.1146C196.306 78.9248 200.53 78.5085 204.368 76.9182C208.207 75.3279 211.488 72.6352 213.796 69.1804C216.104 65.7256 217.336 61.6639 217.336 57.509C217.329 51.9382 215.113 46.5977 211.174 42.6591C207.234 38.7205 201.893 36.5055 196.322 36.5ZM196.322 75.7198C192.72 75.7208 189.199 74.6537 186.203 72.6532C183.208 70.6528 180.873 67.809 179.494 64.4815C178.115 61.154 177.753 57.4923 178.455 53.9594C179.158 50.4265 180.892 47.1811 183.438 44.6338C185.985 42.0864 189.23 40.3515 192.762 39.6484C196.295 38.9453 199.957 39.3056 203.285 40.6838C206.613 42.062 209.457 44.3961 211.458 47.391C213.46 50.3859 214.528 53.907 214.528 57.509C214.522 62.3362 212.603 66.9643 209.19 70.3781C205.777 73.792 201.149 75.713 196.322 75.7198Z" fill="#F08C51"/>
<path opacity="0.2" d="M196.322 36.5C192.167 36.501 188.106 37.734 184.652 40.0432C181.197 42.3523 178.505 45.6338 176.916 49.4728C175.327 53.3117 174.911 57.5358 175.723 61.6108C176.534 65.6858 178.535 69.4287 181.474 72.3664C184.412 75.304 188.155 77.3044 192.231 78.1146C196.306 78.9248 200.53 78.5085 204.368 76.9182C208.207 75.3279 211.488 72.6352 213.796 69.1804C216.104 65.7256 217.336 61.6639 217.336 57.509C217.329 51.9382 215.113 46.5977 211.174 42.6591C207.234 38.7205 201.893 36.5055 196.322 36.5ZM196.322 75.7198C192.72 75.7208 189.199 74.6537 186.203 72.6532C183.208 70.6528 180.873 67.809 179.494 64.4815C178.115 61.154 177.753 57.4923 178.455 53.9594C179.158 50.4265 180.892 47.1811 183.438 44.6338C185.985 42.0864 189.23 40.3515 192.762 39.6484C196.295 38.9453 199.957 39.3056 203.285 40.6838C206.613 42.062 209.457 44.3961 211.458 47.391C213.46 50.3859 214.528 53.907 214.528 57.509C214.522 62.3362 212.603 66.9643 209.19 70.3781C205.777 73.792 201.149 75.713 196.322 75.7198Z" fill="black"/>
<path d="M148.05 93.3503C147.914 93.3503 147.783 93.296 147.686 93.1994C147.589 93.1027 147.535 92.9716 147.535 92.835V91.8044C147.535 91.6677 147.589 91.5366 147.686 91.44C147.783 91.3434 147.914 91.2891 148.05 91.2891C148.187 91.2891 148.318 91.3434 148.415 91.44C148.511 91.5366 148.566 91.6677 148.566 91.8044V92.835C148.566 92.9716 148.511 93.1027 148.415 93.1994C148.318 93.296 148.187 93.3503 148.05 93.3503Z" fill="#F08C51"/>
<path d="M140.028 80.0358C139.555 79.7317 139.185 79.2916 138.967 78.7733C138.913 78.6476 138.811 78.5484 138.684 78.4977C138.557 78.447 138.415 78.4488 138.289 78.5028C138.163 78.5568 138.064 78.6585 138.013 78.7856C137.963 78.9126 137.964 79.0547 138.018 79.1804C138.321 79.8842 138.825 80.4829 139.466 80.9015C139.549 80.9551 139.646 80.9837 139.745 80.984C139.856 80.9848 139.965 80.9494 140.055 80.8831C140.145 80.8168 140.21 80.7232 140.242 80.6163C140.274 80.5094 140.271 80.395 140.232 80.2903C140.193 80.1857 140.122 80.0963 140.028 80.0358Z" fill="#F08C51"/>
<path d="M138.232 73.5999C138.369 73.5999 138.5 73.5456 138.596 73.449C138.693 73.3524 138.747 73.2213 138.747 73.0846V71.111C138.747 70.9743 138.693 70.8433 138.596 70.7466C138.5 70.65 138.369 70.5957 138.232 70.5957C138.095 70.5957 137.964 70.65 137.868 70.7466C137.771 70.8433 137.717 70.9743 137.717 71.111V73.0846C137.717 73.2213 137.771 73.3524 137.868 73.449C137.964 73.5456 138.095 73.5999 138.232 73.5999Z" fill="#F08C51"/>
<path d="M143.596 80.4883H141.617C141.48 80.4883 141.349 80.5426 141.252 80.6392C141.156 80.7358 141.102 80.8669 141.102 81.0036C141.102 81.1403 141.156 81.2713 141.252 81.368C141.349 81.4646 141.48 81.5189 141.617 81.5189H143.596C143.732 81.5189 143.863 81.4646 143.96 81.368C144.057 81.2713 144.111 81.1403 144.111 81.0036C144.111 80.8669 144.057 80.7358 143.96 80.6392C143.863 80.5426 143.732 80.4883 143.596 80.4883Z" fill="#F08C51"/>
<path d="M138.747 77.0377V75.0641C138.747 74.9275 138.693 74.7964 138.596 74.6998C138.5 74.6031 138.369 74.5488 138.232 74.5488C138.095 74.5488 137.964 74.6031 137.868 74.6998C137.771 74.7964 137.717 74.9275 137.717 75.0641V77.0377C137.717 77.1744 137.771 77.3055 137.868 77.4021C137.964 77.4988 138.095 77.5531 138.232 77.5531C138.369 77.5531 138.5 77.4988 138.596 77.4021C138.693 77.3055 138.747 77.1744 138.747 77.0377Z" fill="#F08C51"/>
<path d="M148.537 83.84C148.519 83.7048 148.448 83.5822 148.34 83.4992C148.232 83.4161 148.095 83.3793 147.96 83.3969C147.893 83.4081 147.828 83.4325 147.771 83.4687C147.713 83.5049 147.663 83.5521 147.624 83.6077C147.585 83.6632 147.557 83.7261 147.542 83.7925C147.527 83.8589 147.525 83.9276 147.537 83.9946C147.554 84.1142 147.562 84.2347 147.563 84.3553V85.9012C147.563 86.0379 147.617 86.169 147.714 86.2656C147.81 86.3623 147.942 86.4166 148.078 86.4166C148.215 86.4166 148.346 86.3623 148.443 86.2656C148.539 86.169 148.593 86.0379 148.593 85.9012V84.3553C148.586 84.1825 148.567 84.0104 148.537 83.84Z" fill="#F08C51"/>
<path d="M148.05 87.3398C147.914 87.3398 147.783 87.3941 147.686 87.4908C147.589 87.5874 147.535 87.7185 147.535 87.8551V89.8339C147.535 89.9706 147.589 90.1017 147.686 90.1983C147.783 90.2949 147.914 90.3492 148.05 90.3492C148.187 90.3492 148.318 90.2949 148.415 90.1983C148.511 90.1017 148.566 89.9706 148.566 89.8339V87.8551C148.566 87.7185 148.511 87.5874 148.415 87.4908C148.318 87.3941 148.187 87.3398 148.05 87.3398Z" fill="#F08C51"/>
<path d="M147.606 81.794C147.101 81.2179 146.435 80.8067 145.694 80.614C145.628 80.5971 145.56 80.5932 145.493 80.6027C145.426 80.6122 145.361 80.6348 145.303 80.6693C145.244 80.7038 145.193 80.7494 145.153 80.8035C145.112 80.8577 145.082 80.9194 145.065 80.985C145.048 81.0507 145.044 81.119 145.054 81.1861C145.063 81.2532 145.086 81.3178 145.12 81.3762C145.155 81.4346 145.201 81.4856 145.255 81.5263C145.309 81.5671 145.371 81.5968 145.436 81.6137C145.978 81.7534 146.464 82.0533 146.833 82.4742C146.881 82.5292 146.94 82.5733 147.007 82.6035C147.074 82.6337 147.146 82.6493 147.219 82.6494C147.318 82.6493 147.415 82.6207 147.498 82.5669C147.581 82.5131 147.647 82.4365 147.688 82.3463C147.729 82.2561 147.743 82.156 147.728 82.058C147.714 81.9601 147.671 81.8684 147.606 81.794Z" fill="#F08C51"/>
<path d="M138.232 69.6276C138.095 69.6276 137.964 69.5733 137.868 69.4767C137.771 69.3801 137.717 69.249 137.717 69.1123V68.0817C137.717 67.945 137.771 67.814 137.868 67.7173C137.964 67.6207 138.095 67.5664 138.232 67.5664C138.369 67.5664 138.5 67.6207 138.596 67.7173C138.693 67.814 138.747 67.945 138.747 68.0817V69.1123C138.747 69.249 138.693 69.3801 138.596 69.4767C138.5 69.5733 138.369 69.6276 138.232 69.6276Z" fill="#F08C51"/>
<path d="M172.46 119.297H53.1465V121.209H172.46V119.297Z" fill="#455A64"/>
<path d="M172.461 121.211H198.35V119.299H172.461V121.211Z" fill="#455A64"/>
<path opacity="0.2" d="M172.461 121.211H198.35V119.299H172.461V121.211Z" fill="black"/>
<path d="M189.702 123.257H61.7927L57.5156 121.211H193.979L189.702 123.257Z" fill="#455A64"/>
<path opacity="0.6" d="M189.702 123.257H61.7927L57.5156 121.211H193.979L189.702 123.257Z" fill="white"/>
<path d="M65.6582 123.256V184.237H67.2969L69.3581 123.256H65.6582Z" fill="#455A64"/>
<path d="M85.002 123.256V184.237H86.6406L88.7018 123.256H85.002Z" fill="#455A64"/>
<path d="M189.702 123.256V184.237H188.068L186.002 123.256H189.702Z" fill="#455A64"/>
<path d="M170.362 123.256V184.237H168.723L166.662 123.256H170.362Z" fill="#455A64"/>
<path d="M131.427 96.1504L126.042 118.087L125.893 119.298H163.036L163.19 118.087L168.57 96.1504H131.427Z" fill="#455A64"/>
<path opacity="0.3" d="M131.427 96.1504L126.042 118.087L125.893 119.298H163.036L163.19 118.087L168.57 96.1504H131.427Z" fill="black"/>
<path d="M167.43 96.1504H130.282L124.902 118.087H162.045L167.43 96.1504Z" fill="#455A64"/>
<path d="M161.256 117.083L166.152 97.1562H131.07L126.18 117.083H161.256Z" fill="white"/>
<path d="M152.369 118.086L152.214 119.297H111.314L111.464 118.086H152.369Z" fill="#455A64"/>
<path opacity="0.6" d="M152.369 118.086L152.214 119.297H111.314L111.464 118.086H152.369Z" fill="white"/>
<path d="M75.1032 115.309C75.0773 114.524 74.77 113.775 74.2374 113.198C73.7048 112.621 72.9824 112.254 72.2021 112.166V111.573C72.2014 111.539 72.1939 111.505 72.18 111.474C72.1661 111.442 72.1461 111.414 72.1212 111.39C72.0962 111.367 72.0668 111.349 72.0347 111.337C72.0026 111.325 71.9684 111.319 71.9341 111.321H66.3688C66.3343 111.319 66.2998 111.325 66.2674 111.337C66.235 111.348 66.2053 111.367 66.1799 111.39C66.1545 111.414 66.134 111.442 66.1196 111.473C66.1051 111.505 66.097 111.538 66.0957 111.573V119.303H72.2021V118.457C72.9836 118.37 73.7073 118.003 74.2403 117.425C74.7732 116.846 75.0796 116.095 75.1032 115.309ZM72.2021 117.458V113.165C72.7171 113.241 73.1876 113.5 73.5278 113.894C73.868 114.288 74.0551 114.791 74.0551 115.312C74.0551 115.832 73.868 116.335 73.5278 116.729C73.1876 117.123 72.7171 117.382 72.2021 117.458Z" fill="#455A64"/>
<path d="M179.256 119.296H184.43L182.899 107.965H179.256V119.296Z" fill="#263238"/>
<path d="M171.672 119.299H181.473L183.292 106.035H173.496L171.672 119.299Z" fill="#455A64"/>
<path opacity="0.3" d="M171.672 119.299H181.473L183.292 106.035H173.496L171.672 119.299Z" fill="black"/>
<path d="M170.363 119.299H180.561L182.385 106.035H172.187L170.363 119.299Z" fill="#455A64"/>
<path opacity="0.4" d="M179.658 118.252L181.194 107.08H173.088L171.553 118.252H179.658Z" fill="white"/>
<path d="M102.468 99.7187L102.046 100.172L101.592 100.687C101.288 101.038 100.984 101.393 100.696 101.759C100.118 102.491 99.5619 103.238 99.0415 104.006C98.0059 105.491 97.1416 107.088 96.465 108.767C96.1498 109.566 95.9049 110.39 95.7332 111.231C95.6508 111.705 95.5992 111.911 95.5735 112.112C95.5449 112.272 95.5449 112.436 95.5735 112.596C95.6599 112.848 95.7955 113.08 95.9724 113.279C96.1493 113.478 96.364 113.64 96.6041 113.756C96.952 113.97 97.3174 114.154 97.6965 114.307C97.8958 114.389 98.1019 114.467 98.3149 114.539C98.5107 114.611 98.7581 114.683 98.9126 114.745V117.584C98.5519 117.636 98.2891 117.677 97.9851 117.698C97.6811 117.718 97.3873 117.723 97.0833 117.698C96.4583 117.685 95.8364 117.606 95.2282 117.461C94.543 117.3 93.8863 117.036 93.2804 116.677C92.568 116.261 91.9558 115.692 91.4871 115.013C91.0046 114.29 90.6846 113.47 90.5493 112.612C90.5148 112.41 90.4924 112.207 90.4823 112.004C90.4721 111.808 90.4721 111.612 90.4823 111.416V111.128C90.4765 111.05 90.4765 110.973 90.4823 110.896L90.5235 110.442C90.6553 109.264 90.9039 108.103 91.2655 106.974C91.9634 104.806 92.9459 102.741 94.1873 100.832C94.7838 99.8943 95.4323 98.9911 96.13 98.1264C96.4753 97.6935 96.8308 97.271 97.2018 96.8536C97.3822 96.6423 97.5729 96.4362 97.7687 96.2301C97.9645 96.0239 98.1448 95.8436 98.4128 95.5859L102.468 99.7187Z" fill="#B55B52"/>
<path d="M97.8887 114.682L100.29 112.92L101.656 117.857C101.656 117.857 99.5273 118.645 97.9041 117.583L97.8887 114.682Z" fill="#B55B52"/>
<path d="M103.623 111.734L104.561 115.867L101.655 117.856L100.289 112.92L103.623 111.734Z" fill="#B55B52"/>
<path d="M118.809 80.7753C118.701 81.0794 118.778 81.3834 118.979 81.4504C119.18 81.5174 119.427 81.3319 119.53 81.0278C119.633 80.7238 119.561 80.4146 119.365 80.3476C119.169 80.2806 118.917 80.4662 118.809 80.7753Z" fill="#263238"/>
<path d="M118.752 81.373C118.793 82.4343 118.978 83.485 119.304 84.4958C119.044 84.5702 118.772 84.5875 118.505 84.5466C118.238 84.5057 117.983 84.4075 117.758 84.2587L118.752 81.373Z" fill="#A02724"/>
<path d="M118.314 78.7033C118.352 78.7163 118.394 78.7163 118.432 78.7033C118.658 78.6279 118.899 78.6072 119.135 78.6431C119.37 78.6789 119.594 78.7702 119.788 78.9094C119.826 78.9376 119.874 78.9501 119.922 78.9445C119.969 78.9388 120.013 78.9155 120.044 78.8792C120.075 78.8428 120.092 78.7961 120.09 78.7482C120.088 78.7003 120.069 78.6549 120.035 78.6209C119.793 78.4406 119.512 78.3208 119.214 78.2715C118.916 78.2222 118.611 78.2448 118.324 78.3375C118.287 78.3503 118.254 78.3747 118.231 78.407C118.208 78.4393 118.195 78.4781 118.195 78.5178C118.195 78.5576 118.208 78.5963 118.231 78.6286C118.254 78.661 118.287 78.6853 118.324 78.6982L118.314 78.7033Z" fill="#263238"/>
<path d="M107.507 81.8984C108.084 84.8305 108.656 90.2052 106.605 92.1633C106.605 92.1633 107.409 95.1366 112.861 95.1366C118.854 95.1366 115.726 92.1633 115.726 92.1633C112.454 91.38 112.537 88.953 113.109 86.6753L107.507 81.8984Z" fill="#B55B52"/>
<path d="M105.824 93.1839C105.391 92.2409 104.922 91.1639 105.896 90.829C106.973 90.4579 112.868 90.0766 114.898 90.7723C115.167 90.8453 115.418 90.9712 115.637 91.1424C115.856 91.3137 116.039 91.527 116.175 91.7698C116.311 92.0126 116.397 92.28 116.428 92.5564C116.459 92.8329 116.435 93.1128 116.357 93.3797L105.824 93.1839Z" fill="#263238"/>
<path d="M126.41 98.2129C127.672 100.485 129.027 102.825 130.398 105.072C131.769 107.318 133.207 109.555 134.742 111.595C135.124 112.111 135.52 112.6 135.912 113.09C136.108 113.342 136.314 113.548 136.515 113.78L136.814 114.12L136.891 114.208L136.927 114.249L136.963 114.296C137.203 114.528 137.492 114.704 137.808 114.811C138.295 114.98 138.797 115.103 139.308 115.177C141.813 115.43 144.338 115.4 146.836 115.089L147.62 117.82C146.924 118.129 146.275 118.336 145.584 118.593C144.894 118.851 144.213 119.021 143.523 119.196C142.059 119.563 140.559 119.764 139.05 119.794C138.203 119.808 137.358 119.723 136.53 119.541C135.515 119.34 134.557 118.914 133.727 118.294L133.382 118.011L133.299 117.939L133.248 117.887L133.15 117.789L132.748 117.393C132.485 117.13 132.197 116.877 131.96 116.599C131.444 116.058 130.96 115.517 130.512 114.96C128.711 112.785 127.05 110.497 125.539 108.112C124.787 106.937 124.062 105.75 123.364 104.551C122.663 103.34 121.988 102.155 121.334 100.877L126.41 98.2129Z" fill="#B55B52"/>
<path d="M99.429 93.0699C95.6673 93.9305 91.3594 104.18 91.3594 104.18L98.9086 109.333C100.786 106.64 102.452 103.806 103.892 100.856C106.123 96.1875 103.273 92.1887 99.429 93.0699Z" fill="#7997F1"/>
<path opacity="0.2" d="M102.119 99.6035L98.5527 109.106L98.9031 109.353C98.9031 109.353 100.449 107.184 102.119 104.257V99.6035Z" fill="black"/>
<path d="M121.893 93.2719C121.893 93.2719 126.16 98.0951 122.13 127.931H100.678C100.534 124.638 102.6 108.582 99.4258 93.0658C101.796 92.6093 104.194 92.3063 106.604 92.1588C109.642 91.9809 112.687 91.9809 115.725 92.1588C117.807 92.3684 119.869 92.7406 121.893 93.2719Z" fill="#7997F1"/>
<path opacity="0.2" d="M119.512 101.902C120.071 105.289 121.535 108.461 123.748 111.085C123.835 109.163 123.871 107.437 123.866 105.896L119.512 101.902Z" fill="black"/>
<path d="M117.649 96.5278C117.133 100.326 124.605 110.024 124.605 110.024L132.123 104.871C132.123 104.871 130.036 99.5268 126.527 96.0228C122.528 92.0034 118.236 92.395 117.649 96.5278Z" fill="#7997F1"/>
<path d="M145.992 115.117L149.053 113.859L152.202 116.24C152.202 116.24 149.197 118.899 146.466 117.863L145.992 115.117Z" fill="#B55B52"/>
<path d="M151.073 113.732L153.381 115.381L152.186 116.237L149.037 113.856L151.073 113.732Z" fill="#B55B52"/>
<path d="M108.842 76.5811C107.77 80.415 106.946 82.605 108.172 85.1867C110.012 89.0773 115.242 88.969 117.447 85.5371C119.426 82.4453 120.848 76.6945 117.695 73.9273C117.002 73.3123 116.164 72.8845 115.26 72.6846C114.356 72.4848 113.415 72.5194 112.528 72.7854C111.641 73.0513 110.837 73.5396 110.192 74.204C109.546 74.8683 109.082 75.6866 108.842 76.5811Z" fill="#B55B52"/>
<path d="M117.006 76.6208C115.46 81.0215 113.641 85.855 109.199 84.9378C106.334 84.3452 106.107 79.7332 105.076 77.6359C104.164 75.7963 104.221 72.0964 106.107 72.05C105.262 70.8236 109.534 66.3353 112.45 68.7057C113.198 67.6751 118.582 64.6399 122.571 69.458C126.328 74.0133 124.488 77.8111 117.006 76.6208Z" fill="#263238"/>
<path d="M113.525 79.4344C113.422 80.4173 113.642 81.4071 114.153 82.2531C114.839 83.3558 115.844 82.9333 116.215 81.8048C116.544 80.7742 116.581 78.9964 115.627 78.2801C114.674 77.5638 113.669 78.2492 113.525 79.4344Z" fill="#B55B52"/>
<path d="M146.444 181.327C146.959 181.327 147.475 181.255 147.624 181.023C147.667 180.962 147.689 180.889 147.689 180.814C147.689 180.74 147.667 180.667 147.624 180.605C147.556 180.497 147.449 180.418 147.325 180.384C146.655 180.204 145.264 181.002 145.197 181.038C145.179 181.047 145.165 181.062 145.157 181.079C145.148 181.097 145.146 181.117 145.151 181.136C145.154 181.155 145.163 181.172 145.175 181.185C145.188 181.199 145.205 181.209 145.223 181.214C145.626 181.287 146.034 181.325 146.444 181.327ZM147.083 180.549C147.143 180.54 147.204 180.54 147.263 180.549C147.302 180.556 147.339 180.572 147.371 180.595C147.403 180.618 147.43 180.648 147.449 180.683C147.516 180.801 147.495 180.858 147.449 180.889C147.263 181.152 146.248 181.157 145.501 181.049C145.991 180.781 146.528 180.611 147.083 180.549Z" fill="#9E9E9E"/>
<path d="M145.233 181.213H145.275C145.759 180.997 146.718 180.131 146.64 179.667C146.64 179.559 146.548 179.43 146.29 179.399C146.197 179.391 146.104 179.402 146.016 179.43C145.927 179.458 145.845 179.504 145.775 179.564C145.259 179.981 145.156 181.064 145.151 181.11C145.149 181.126 145.151 181.143 145.158 181.158C145.164 181.174 145.174 181.187 145.187 181.198C145.201 181.206 145.217 181.211 145.233 181.213ZM146.213 179.59H146.269C146.439 179.59 146.45 179.677 146.455 179.698C146.501 179.971 145.847 180.651 145.352 180.945C145.393 180.491 145.573 180.061 145.867 179.713C145.963 179.631 146.086 179.587 146.213 179.59Z" fill="#9E9E9E"/>
<path d="M140.57 181.119H144.579L145.491 171.828H141.482L140.57 181.119Z" fill="#B55B52"/>
<path d="M144.805 180.656H140.43C140.349 180.657 140.271 180.684 140.209 180.735C140.146 180.786 140.102 180.856 140.085 180.935L139.291 184.48C139.271 184.566 139.27 184.656 139.29 184.743C139.309 184.829 139.349 184.91 139.404 184.979C139.46 185.048 139.531 185.104 139.611 185.141C139.692 185.179 139.779 185.198 139.868 185.196C141.445 185.17 143.728 185.078 145.712 185.078C148.036 185.078 150.04 185.201 152.761 185.201C154.41 185.201 154.869 183.537 154.178 183.387C151.04 182.702 148.479 182.63 145.768 180.955C145.481 180.769 145.147 180.665 144.805 180.656Z" fill="#263238"/>
<path opacity="0.2" d="M145.486 171.834L145.022 176.621H141.008L141.477 171.834H145.486Z" fill="black"/>
<path d="M130.373 181.319C130.543 181.341 130.716 181.329 130.881 181.284C131.046 181.239 131.201 181.162 131.336 181.056C131.384 180.991 131.409 180.912 131.409 180.832C131.409 180.751 131.384 180.673 131.336 180.608C131.306 180.551 131.263 180.502 131.212 180.464C131.16 180.425 131.101 180.399 131.038 180.386C130.45 180.247 129.342 181.005 129.296 181.035C129.281 181.047 129.27 181.062 129.262 181.079C129.255 181.096 129.252 181.115 129.255 181.133C129.258 181.151 129.267 181.167 129.28 181.18C129.293 181.193 129.309 181.202 129.327 181.206C129.67 181.28 130.021 181.318 130.373 181.319ZM130.888 180.556C130.926 180.551 130.964 180.551 131.001 180.556C131.038 180.562 131.073 180.576 131.104 180.597C131.134 180.619 131.159 180.647 131.177 180.68C131.264 180.84 131.213 180.901 131.177 180.927C131.007 181.149 130.187 181.154 129.584 181.056C129.972 180.794 130.414 180.623 130.878 180.556H130.888Z" fill="#9E9E9E"/>
<path d="M129.352 181.214H129.393C129.81 180.988 130.614 180.112 130.527 179.668C130.513 179.597 130.476 179.533 130.42 179.487C130.365 179.441 130.295 179.416 130.223 179.416C130.151 179.407 130.078 179.414 130.009 179.435C129.939 179.456 129.875 179.492 129.821 179.54C129.357 179.921 129.259 181.086 129.254 181.127C129.254 181.144 129.258 181.161 129.266 181.176C129.274 181.192 129.286 181.205 129.3 181.214C129.317 181.22 129.335 181.22 129.352 181.214ZM130.161 179.591H130.202C130.326 179.591 130.336 179.663 130.341 179.689C130.393 179.952 129.877 180.617 129.465 180.931C129.493 180.474 129.658 180.035 129.939 179.674C130.001 179.62 130.08 179.591 130.161 179.591Z" fill="#9E9E9E"/>
<path d="M124.756 181.119H128.765L130.78 171.828H126.771L124.756 181.119Z" fill="#B55B52"/>
<path d="M129.047 180.656H124.543C124.463 180.657 124.386 180.685 124.324 180.736C124.262 180.786 124.22 180.857 124.203 180.935L123.41 184.48C123.391 184.567 123.392 184.657 123.413 184.744C123.434 184.83 123.474 184.911 123.531 184.98C123.587 185.048 123.659 185.104 123.739 185.141C123.82 185.179 123.908 185.198 123.997 185.196C125.569 185.171 126.336 185.078 128.315 185.078C129.537 185.078 131.098 185.201 132.783 185.201C134.468 185.201 134.684 183.537 133.994 183.388C130.902 182.713 130.691 181.78 129.701 180.888C129.519 180.734 129.286 180.651 129.047 180.656Z" fill="#263238"/>
<g opacity="0.2">
<path d="M126.769 171.834H130.779L129.738 176.621H125.729L126.769 171.834Z" fill="black"/>
</g>
<path d="M122.131 127.936C122.131 127.936 152.174 131.115 151.844 146.44C151.631 156.065 149.78 165.583 146.371 174.586H140.414C140.414 174.586 140.718 164.862 140.517 149.171C140.456 144.467 130.959 142.915 121.678 142.369C117.748 142.122 113.965 140.782 110.756 138.499C107.548 136.216 105.041 133.082 103.519 129.451L102.885 127.936H122.131Z" fill="#263238"/>
<path d="M147.831 172.988C147.862 172.988 147.444 175.807 147.444 175.807H139.199L138.973 173.292L147.831 172.988Z" fill="#9E9E9E"/>
<path d="M115.701 127.936C115.701 127.936 137.478 135.15 138.029 144.096C139.06 160.554 130.965 174.586 130.965 174.586H124.951C124.951 174.586 127.234 167.629 128.043 152.717C129.073 133.985 94.1203 152.686 100.67 127.936H115.701Z" fill="#263238"/>
<path d="M132.782 172.988C132.813 172.988 132.024 175.807 132.024 175.807H123.779L123.929 173.292L132.782 172.988Z" fill="#9E9E9E"/>
<path d="M131.407 143.714H97.9121C97.9121 142.7 98.3149 141.728 99.032 141.011C99.7491 140.293 100.722 139.891 101.736 139.891H127.583C128.597 139.891 129.57 140.293 130.287 141.011C131.004 141.728 131.407 142.7 131.407 143.714Z" fill="#455A64"/>
<path d="M99.4621 143.709L94.4121 186.046H95.4942L101.899 143.709H99.4621Z" fill="#455A64"/>
<path d="M106.221 143.709L106.123 186.046H107.2L108.658 143.709H106.221Z" fill="#455A64"/>
<path d="M129.858 143.709L134.908 186.046H133.826L127.426 143.709H129.858Z" fill="#455A64"/>
<path d="M123.099 143.709L123.197 186.046H122.12L120.662 143.709H123.099Z" fill="#455A64"/>
</svg>
