<svg width="231" height="210" viewBox="0 0 231 210" fill="none" xmlns="http://www.w3.org/2000/svg">
<path d="M115.501 209.657C179.29 209.657 231.001 179.806 231.001 142.982C231.001 106.159 179.29 76.308 115.501 76.308C51.7114 76.308 0 106.159 0 142.982C0 179.806 51.7114 209.657 115.501 209.657Z" fill="#F5F5F5"/>
<path d="M191.844 173.173C207.792 173.173 220.72 165.708 220.72 156.5C220.72 147.291 207.792 139.826 191.844 139.826C175.897 139.826 162.969 147.291 162.969 156.5C162.969 165.708 175.897 173.173 191.844 173.173Z" fill="#E0E0E0"/>
<path d="M88.4662 192.522L16.828 151.164C15.6535 150.486 15.6535 149.387 16.828 148.705L120.393 88.9165C121.052 88.5799 121.781 88.4044 122.521 88.4044C123.261 88.4044 123.99 88.5799 124.649 88.9165L196.267 130.264C197.442 130.942 197.442 132.041 196.267 132.719L92.7225 192.522C92.0629 192.856 91.3338 193.03 90.5944 193.03C89.8549 193.03 89.1258 192.856 88.4662 192.522Z" fill="#E0E0E0"/>
<path d="M206.421 146.938C205.803 142.702 207.384 126.566 210.973 120.422C214.562 114.279 220.509 107.834 225.689 108.798C230.487 109.691 230.869 115.764 225.9 120.548C220.931 125.331 213.322 131.54 211.886 138.767L207.971 151.069L206.421 146.938Z" fill="#9BB167"/>
<path opacity="0.1" d="M206.421 146.938C205.803 142.702 207.384 126.566 210.973 120.422C214.562 114.279 220.509 107.834 225.689 108.798C230.487 109.691 230.869 115.764 225.9 120.548C220.931 125.331 213.322 131.54 211.886 138.767L207.971 151.069L206.421 146.938Z" fill="black"/>
<path d="M207.571 145.609C207.637 145.591 207.695 145.553 207.736 145.499C207.778 145.446 207.801 145.38 207.802 145.313C208.023 130.426 217.544 116.633 224.039 112.794C224.11 112.752 224.162 112.683 224.183 112.603C224.203 112.523 224.191 112.438 224.149 112.367C224.108 112.296 224.039 112.244 223.959 112.223C223.879 112.203 223.794 112.215 223.723 112.257C217.103 116.171 207.401 130.19 207.16 145.303C207.159 145.343 207.166 145.384 207.181 145.422C207.196 145.46 207.219 145.495 207.247 145.524C207.276 145.553 207.31 145.577 207.347 145.593C207.385 145.609 207.425 145.618 207.466 145.619C207.501 145.623 207.537 145.62 207.571 145.609Z" fill="white"/>
<path d="M209.898 153.378C210.229 150.898 211.966 146.622 215.891 142.386C220.699 137.196 228.68 134.355 229.794 131.344C231.124 127.72 228.082 125.246 222.893 126.897C215.921 129.115 208.141 137.819 208.242 149.016L209.898 153.378Z" fill="#9BB167"/>
<path d="M208.5 151.034C208.559 151.019 208.612 150.988 208.653 150.945C208.695 150.901 208.724 150.847 208.736 150.788C211.366 137.738 221.886 130.737 226.183 129.532C226.262 129.514 226.332 129.466 226.377 129.397C226.422 129.329 226.439 129.246 226.424 129.166C226.413 129.125 226.395 129.088 226.37 129.055C226.344 129.022 226.313 128.995 226.276 128.975C226.24 128.955 226.201 128.942 226.159 128.938C226.118 128.934 226.077 128.938 226.037 128.95C221.289 130.28 210.829 137.382 208.149 150.688C208.141 150.728 208.141 150.769 208.149 150.809C208.157 150.85 208.173 150.888 208.196 150.922C208.219 150.956 208.248 150.985 208.282 151.008C208.316 151.031 208.355 151.046 208.395 151.054C208.431 151.054 208.467 151.047 208.5 151.034Z" fill="white"/>
<path d="M21.2511 145.472C21.3083 146.251 21.5481 147.006 21.9509 147.676C22.3537 148.345 22.9083 148.911 23.5699 149.327L88.5628 186.85C89.2825 187.214 90.0777 187.403 90.8842 187.403C91.6907 187.403 92.4858 187.214 93.2055 186.85L189.528 131.243C190.227 130.871 190.812 130.317 191.22 129.638C191.628 128.959 191.844 128.182 191.844 127.391C191.844 126.599 191.628 125.822 191.22 125.143C190.812 124.464 190.227 123.91 189.528 123.538L124.535 86.0001C123.816 85.6339 123.021 85.443 122.214 85.443C121.407 85.443 120.611 85.6339 119.892 86.0001L23.5699 141.622C22.9084 142.037 22.3538 142.602 21.9509 143.27C21.5481 143.939 21.3083 144.693 21.2511 145.472Z" fill="#37474F"/>
<path d="M90.9055 182.368V187.387C90.098 187.405 89.2994 187.215 88.5867 186.835L23.5687 149.327C22.8895 148.968 22.3175 148.436 21.9108 147.785C21.504 147.134 21.2771 146.386 21.2532 145.619C21.2292 144.851 21.409 144.091 21.7743 143.415C22.1396 142.74 22.6773 142.173 23.3328 141.773C22.2938 142.516 22.3741 143.61 23.5687 144.283L88.5666 181.811C89.2848 182.196 90.0908 182.388 90.9055 182.368Z" fill="#263238"/>
<path d="M19.0723 141.713C18.4266 141.273 17.8933 140.688 17.5158 140.005C17.1382 139.321 16.9269 138.558 16.899 137.778V60.2066C16.9431 59.4023 17.176 58.6196 17.5788 57.922C17.9817 57.2244 18.5432 56.6315 19.2178 56.1913L115.54 0.584198C116.233 0.215568 117.004 0.0157162 117.789 0.000889912C118.574 -0.0139364 119.351 0.156682 120.058 0.498874C120.702 0.938978 121.235 1.52429 121.612 2.20774C121.99 2.89118 122.202 3.65367 122.231 4.43388V81.9847C122.187 82.7892 121.954 83.572 121.552 84.2696C121.149 84.9673 120.587 85.5601 119.912 86L23.5694 141.622C22.8794 141.989 22.1128 142.188 21.3316 142.204C20.5504 142.219 19.7765 142.051 19.0723 141.713Z" fill="#455A64"/>
<path d="M23.2984 141.762C22.632 142.06 21.9086 142.209 21.1787 142.199C20.4488 142.188 19.73 142.019 19.0723 141.702C18.4266 141.263 17.8933 140.678 17.5158 139.994C17.1382 139.31 16.9269 138.547 16.899 137.767V60.2061C16.9246 59.3985 17.1598 58.6115 17.5816 57.9224L21.9282 60.4319C21.513 61.1218 21.2798 61.9059 21.2506 62.7106V140.282C21.2506 141.652 22.144 142.269 23.2984 141.762Z" fill="#263238"/>
<path d="M21.2511 62.7221V140.283C21.2511 141.789 22.29 142.361 23.5699 141.623L119.892 86.0009C120.567 85.561 121.129 84.9681 121.532 84.2705C121.935 83.5728 122.168 82.79 122.211 81.9856V4.43473C122.211 2.95911 121.177 2.35681 119.892 3.09964L23.5699 58.7017C22.8951 59.143 22.3337 59.7369 21.9308 60.4353C21.528 61.1337 21.2952 61.917 21.2511 62.7221Z" fill="#37474F"/>
<path d="M23.5703 144.297L88.5632 181.826C89.2829 182.19 90.0781 182.379 90.8845 182.379C91.691 182.379 92.4862 182.19 93.2059 181.826L189.528 126.219C190.808 125.476 190.808 124.276 189.528 123.538L124.535 86.0001C123.816 85.6339 123.021 85.443 122.214 85.443C121.407 85.443 120.612 85.6339 119.893 86.0001L23.5703 141.622C22.2904 142.36 22.2904 143.56 23.5703 144.297Z" fill="#455A64"/>
<path d="M24.8205 61.682L117.951 7.92691C118.719 7.48522 119.346 7.8466 119.346 8.73499V80.293C119.319 80.7759 119.179 81.2458 118.936 81.6644C118.694 82.083 118.356 82.4385 117.951 82.7021L24.8205 136.457C24.0525 136.899 23.4251 136.538 23.4251 135.649V64.0912C23.4519 63.6082 23.5923 63.1383 23.8347 62.7197C24.0771 62.3011 24.4149 61.9456 24.8205 61.682Z" fill="#F08C51"/>
<path opacity="0.4" d="M24.8205 61.682L117.951 7.92691C118.719 7.48522 119.346 7.8466 119.346 8.73499V80.293C119.319 80.7759 119.179 81.2458 118.936 81.6644C118.694 82.083 118.356 82.4385 117.951 82.7021L24.8205 136.457C24.0525 136.899 23.4251 136.538 23.4251 135.649V64.0912C23.4519 63.6082 23.5923 63.1383 23.8347 62.7197C24.0771 62.3011 24.4149 61.9456 24.8205 61.682Z" fill="black"/>
<path d="M31.1149 142.29L121.058 90.3716C121.417 90.1883 121.814 90.0927 122.217 90.0927C122.62 90.0927 123.018 90.1883 123.377 90.3716L127.598 92.8059C128.235 93.1773 128.235 93.7746 127.598 94.146L37.6448 146.059C37.2858 146.242 36.8884 146.338 36.4853 146.338C36.0823 146.338 35.6849 146.242 35.3259 146.059L31.1149 143.63C30.4774 143.258 30.4774 142.661 31.1149 142.29Z" fill="#37474F"/>
<path d="M41.9943 148.574L131.932 96.6509C132.291 96.4677 132.689 96.3721 133.092 96.3721C133.495 96.3721 133.892 96.4677 134.251 96.6509L160.22 111.643C160.863 112.015 160.863 112.617 160.22 112.983L70.3776 164.841C70.0172 165.023 69.6193 165.118 69.2157 165.118C68.812 165.118 68.4141 165.023 68.0537 164.841L41.9993 149.909C41.3569 149.543 41.3519 148.94 41.9943 148.574Z" fill="#263238"/>
<path d="M121.022 118.729L123.853 117.093C123.974 117.023 123.979 116.913 123.853 116.842L120.882 115.111C120.814 115.079 120.741 115.062 120.666 115.062C120.591 115.062 120.518 115.079 120.45 115.111L117.614 116.747C117.499 116.817 117.494 116.928 117.614 116.993L120.626 118.719C120.688 118.748 120.755 118.764 120.823 118.765C120.891 118.767 120.959 118.755 121.022 118.729ZM116.169 112.656L113.338 114.293C113.313 114.302 113.291 114.318 113.275 114.34C113.26 114.362 113.251 114.389 113.251 114.415C113.251 114.442 113.26 114.469 113.275 114.491C113.291 114.513 113.313 114.529 113.338 114.538L116.349 116.265C116.417 116.297 116.491 116.314 116.565 116.314C116.64 116.314 116.714 116.297 116.781 116.265L119.617 114.629C119.644 114.621 119.668 114.605 119.685 114.582C119.702 114.559 119.712 114.532 119.712 114.503C119.712 114.475 119.702 114.447 119.685 114.425C119.668 114.402 119.644 114.386 119.617 114.378L116.605 112.651C116.538 112.621 116.465 112.605 116.392 112.606C116.318 112.607 116.245 112.624 116.179 112.656H116.169ZM107.019 117.936L102.231 120.702C102.11 120.772 102.105 120.888 102.231 120.953L105.242 122.68C105.31 122.712 105.383 122.728 105.458 122.728C105.533 122.728 105.606 122.712 105.674 122.68L110.467 119.914C110.587 119.844 110.587 119.733 110.467 119.663L107.456 117.941C107.39 117.907 107.317 117.888 107.243 117.887C107.169 117.886 107.095 117.903 107.029 117.936H107.019ZM112.038 115.045L109.202 116.682C109.082 116.752 109.082 116.862 109.202 116.928L112.214 118.654C112.281 118.686 112.355 118.703 112.43 118.703C112.504 118.703 112.578 118.686 112.645 118.654L115.476 117.018C115.597 116.948 115.597 116.837 115.476 116.767L112.465 115.04C112.399 115.008 112.326 114.992 112.253 114.993C112.18 114.994 112.108 115.012 112.043 115.045H112.038ZM100.946 121.46L98.1149 123.091C97.9945 123.161 97.9945 123.277 98.1149 123.342L101.126 125.069C101.194 125.101 101.268 125.117 101.342 125.117C101.417 125.117 101.491 125.101 101.558 125.069L104.389 123.437C104.509 123.367 104.509 123.257 104.389 123.186L101.377 121.46C101.31 121.428 101.236 121.411 101.162 121.411C101.087 121.411 101.013 121.428 100.946 121.46ZM96.8099 123.849L93.9741 125.485C93.9487 125.494 93.9267 125.511 93.9112 125.533C93.8956 125.555 93.8873 125.581 93.8873 125.608C93.8873 125.635 93.8956 125.661 93.9112 125.683C93.9267 125.705 93.9487 125.722 93.9741 125.731L96.9304 127.458C96.997 127.492 97.0711 127.511 97.1462 127.511C97.2214 127.511 97.2954 127.492 97.362 127.458L100.193 125.827C100.313 125.756 100.313 125.646 100.193 125.576L97.2064 123.849C97.1417 123.82 97.0716 123.805 97.0007 123.805C96.9297 123.805 96.8596 123.82 96.7949 123.849H96.8099ZM108.545 130.876L111.375 129.24C111.496 129.169 111.496 129.059 111.375 128.994L108.389 127.267C108.322 127.235 108.248 127.218 108.173 127.218C108.099 127.218 108.025 127.235 107.957 127.267L105.122 128.903C105.094 128.911 105.07 128.928 105.053 128.95C105.036 128.973 105.027 129 105.027 129.029C105.027 129.057 105.036 129.085 105.053 129.107C105.07 129.13 105.094 129.146 105.122 129.154L108.108 130.881C108.174 130.911 108.247 130.926 108.319 130.925C108.392 130.924 108.464 130.907 108.53 130.876H108.545ZM104.404 133.265L107.24 131.629C107.36 131.558 107.36 131.448 107.24 131.383L104.238 129.666C104.171 129.634 104.097 129.617 104.022 129.617C103.948 129.617 103.874 129.634 103.807 129.666L100.976 131.302C100.855 131.373 100.855 131.483 100.976 131.553L103.962 133.28C104.03 133.309 104.103 133.323 104.177 133.32C104.251 133.317 104.323 133.299 104.389 133.265H104.404ZM100.268 135.654L103.099 134.018C103.124 134.009 103.146 133.992 103.162 133.97C103.177 133.948 103.186 133.922 103.186 133.895C103.186 133.868 103.177 133.842 103.162 133.82C103.146 133.798 103.124 133.781 103.099 133.772L100.087 132.045C100.021 132.01 99.9468 131.992 99.8716 131.992C99.7965 131.992 99.7224 132.01 99.6558 132.045L96.835 133.681C96.7146 133.752 96.7146 133.862 96.835 133.932L99.8465 135.659C99.9109 135.687 99.9803 135.7 100.05 135.7C100.12 135.699 100.189 135.683 100.253 135.654H100.268ZM96.1273 138.043L98.9581 136.407C99.0786 136.342 99.0836 136.226 98.9581 136.161L95.9466 134.434C95.8792 134.402 95.8055 134.386 95.7308 134.386C95.6561 134.386 95.5824 134.402 95.515 134.434L92.6842 136.066C92.5637 136.136 92.5587 136.246 92.6842 136.317L95.6706 138.043C95.7393 138.077 95.8149 138.094 95.8914 138.094C95.968 138.094 96.0435 138.077 96.1123 138.043H96.1273ZM116.892 121.134L119.727 119.497C119.755 119.49 119.779 119.473 119.796 119.45C119.813 119.428 119.822 119.4 119.822 119.372C119.822 119.344 119.813 119.316 119.796 119.293C119.779 119.271 119.755 119.254 119.727 119.246L116.716 117.525C116.649 117.49 116.575 117.472 116.5 117.472C116.425 117.472 116.351 117.49 116.284 117.525L113.494 119.126C113.373 119.196 113.373 119.307 113.494 119.372L116.48 121.098C116.542 121.133 116.611 121.154 116.682 121.16C116.753 121.166 116.824 121.157 116.892 121.134ZM112.67 128.502L118.985 124.853C119.105 124.783 119.105 124.672 118.985 124.607L111.727 120.416C111.659 120.384 111.586 120.367 111.511 120.367C111.436 120.367 111.363 120.384 111.295 120.416L108.028 122.303C107.907 122.373 107.907 122.484 108.028 122.554L111.872 124.772C111.898 124.782 111.92 124.798 111.935 124.82C111.951 124.842 111.959 124.869 111.959 124.895C111.959 124.922 111.951 124.949 111.935 124.971C111.92 124.993 111.898 125.009 111.872 125.018L109.257 126.524C109.137 126.594 109.137 126.705 109.257 126.775L112.269 128.497C112.332 128.525 112.401 128.539 112.471 128.537C112.54 128.535 112.608 128.518 112.67 128.487V128.502ZM92.6541 126.253L89.8233 127.889C89.7979 127.898 89.7759 127.915 89.7604 127.937C89.7448 127.959 89.7365 127.985 89.7365 128.012C89.7365 128.039 89.7448 128.066 89.7604 128.088C89.7759 128.11 89.7979 128.126 89.8233 128.135L92.8097 129.862C92.8771 129.894 92.9508 129.911 93.0255 129.911C93.1002 129.911 93.1739 129.894 93.2413 129.862L96.0771 128.226C96.1044 128.218 96.1284 128.201 96.1455 128.179C96.1626 128.156 96.1718 128.129 96.1718 128.1C96.1718 128.072 96.1626 128.044 96.1455 128.022C96.1284 127.999 96.1044 127.982 96.0771 127.975L93.0907 126.248C93.0234 126.214 92.9492 126.195 92.8736 126.193C92.7979 126.191 92.7229 126.207 92.6541 126.238V126.253ZM88.5183 128.642L85.6825 130.278C85.562 130.349 85.562 130.459 85.6825 130.524L88.694 132.251C88.7614 132.283 88.8351 132.3 88.9098 132.3C88.9845 132.3 89.0582 132.283 89.1256 132.251L91.9564 130.615C92.0769 130.545 92.0769 130.434 91.9564 130.364L88.9449 128.637C88.8796 128.602 88.8069 128.583 88.7328 128.581C88.6587 128.579 88.5852 128.595 88.5183 128.627V128.642ZM66.7101 154.762C66.7775 154.794 66.8513 154.811 66.9259 154.811C67.0006 154.811 67.0743 154.794 67.1418 154.762L69.9726 153.126C70.093 153.055 70.098 152.945 69.9726 152.875L66.9611 151.153C66.8944 151.118 66.8204 151.1 66.7452 151.1C66.6701 151.1 66.5961 151.118 66.5294 151.153L63.6986 152.789C63.5782 152.86 63.5731 152.97 63.6986 153.035L66.7101 154.762ZM55.407 147.735L52.5762 149.366C52.4557 149.437 52.4507 149.547 52.5762 149.617L55.5626 151.344C55.63 151.376 55.7037 151.393 55.7784 151.393C55.8531 151.393 55.9268 151.376 55.9942 151.344L58.825 149.708C58.9455 149.642 58.9505 149.527 58.825 149.462L55.8135 147.735C55.7502 147.704 55.6807 147.689 55.6103 147.689C55.5399 147.689 55.4704 147.704 55.407 147.735ZM61.3547 152.925C61.4213 152.96 61.4954 152.978 61.5705 152.978C61.6457 152.978 61.7197 152.96 61.7863 152.925L64.6171 151.289C64.7376 151.218 64.7376 151.108 64.6171 151.043L61.6056 149.316C61.539 149.281 61.465 149.263 61.3898 149.263C61.3147 149.263 61.2406 149.281 61.174 149.316L58.3432 150.952C58.2227 151.023 58.2227 151.133 58.3432 151.203L61.3547 152.925ZM73.5914 155.966L76.4222 154.33C76.4476 154.321 76.4695 154.305 76.4851 154.283C76.5006 154.261 76.509 154.234 76.509 154.207C76.509 154.18 76.5006 154.154 76.4851 154.132C76.4695 154.11 76.4476 154.093 76.4222 154.084L73.4107 152.358C73.3433 152.326 73.2695 152.309 73.1949 152.309C73.1202 152.309 73.0464 152.326 72.979 152.358L70.1482 153.989C70.0278 154.059 70.0278 154.17 70.1482 154.24L73.1597 155.966C73.2264 156 73.2997 156.019 73.3744 156.02C73.4491 156.022 73.5232 156.007 73.5914 155.977V155.966ZM69.0189 158.361C69.0863 158.393 69.1601 158.409 69.2347 158.409C69.3094 158.409 69.3831 158.393 69.4506 158.361L72.2814 156.724C72.4018 156.659 72.4068 156.544 72.2814 156.478L69.3251 154.762C69.2577 154.73 69.1839 154.713 69.1093 154.713C69.0346 154.713 68.9609 154.73 68.8934 154.762L66.0626 156.393C65.9422 156.463 65.9372 156.574 66.0626 156.644L69.0189 158.361ZM59.5478 145.341L56.712 146.977C56.6847 146.985 56.6607 147.001 56.6436 147.024C56.6266 147.047 56.6173 147.074 56.6173 147.103C56.6173 147.131 56.6266 147.159 56.6436 147.181C56.6607 147.204 56.6847 147.22 56.712 147.228L59.6984 148.955C59.7658 148.987 59.8395 149.004 59.9142 149.004C59.9889 149.004 60.0626 148.987 60.13 148.955L62.9608 147.319C63.0813 147.248 63.0813 147.138 62.9608 147.073L59.9493 145.346C59.8861 145.317 59.8174 145.303 59.748 145.304C59.6786 145.304 59.6102 145.321 59.5478 145.351V145.341ZM80.2367 133.395L77.4059 135.032C77.2855 135.102 77.2855 135.212 77.4059 135.278L80.4174 137.004C80.484 137.039 80.5581 137.057 80.6332 137.057C80.7084 137.057 80.7824 137.039 80.8491 137.004L83.6798 135.368C83.8003 135.298 83.8003 135.187 83.6798 135.117L80.6684 133.395C80.6009 133.362 80.5265 133.346 80.4513 133.348C80.3761 133.349 80.3025 133.369 80.2367 133.405V133.395ZM63.6735 142.932L60.8427 144.568C60.7223 144.638 60.7223 144.749 60.8427 144.819L63.8291 146.541C63.8958 146.575 63.9698 146.593 64.0449 146.593C64.1201 146.593 64.1941 146.575 64.2608 146.541L67.0966 144.904C67.217 144.834 67.217 144.724 67.0966 144.658L64.1102 142.932C64.0413 142.905 63.9673 142.894 63.8935 142.899C63.8198 142.904 63.7481 142.926 63.6836 142.962L63.6735 142.932ZM84.3825 131.016L81.5467 132.678C81.4263 132.748 81.4212 132.858 81.5467 132.924L84.5331 134.65C84.5997 134.685 84.6738 134.703 84.7489 134.703C84.8241 134.703 84.8981 134.685 84.9647 134.65L87.7955 133.014C87.916 132.944 87.921 132.833 87.7955 132.763L84.7841 131.041C84.7232 131.008 84.6556 130.988 84.5861 130.983C84.5167 130.979 84.4471 130.99 84.3825 131.016ZM76.106 135.795L73.2752 137.431C73.1547 137.501 73.1497 137.611 73.2752 137.682L76.2866 139.403C76.3533 139.438 76.4273 139.456 76.5025 139.456C76.5776 139.456 76.6517 139.438 76.7183 139.403L79.5491 137.767C79.6695 137.697 79.6746 137.586 79.5491 137.516L76.5627 135.795C76.4923 135.754 76.4128 135.733 76.3318 135.733C76.2509 135.733 76.1713 135.754 76.1009 135.795H76.106ZM71.9601 138.199L69.1293 139.835C69.0089 139.905 69.0089 140.016 69.1293 140.086L72.1408 141.807C72.2075 141.842 72.2815 141.86 72.3566 141.86C72.4318 141.86 72.5058 141.842 72.5725 141.807L75.4033 140.171C75.5237 140.101 75.5237 139.991 75.4033 139.925L72.3918 138.199C72.3252 138.164 72.2511 138.146 72.176 138.146C72.1008 138.146 72.0268 138.164 71.9601 138.199ZM67.8193 140.573L64.9936 142.214C64.8731 142.284 64.8681 142.395 64.9936 142.465L67.98 144.187C68.0466 144.221 68.1206 144.239 68.1958 144.239C68.2709 144.239 68.345 144.221 68.4116 144.187L71.2424 142.55C71.3629 142.48 71.3679 142.37 71.2424 142.304L68.256 140.578C68.1883 140.544 68.1139 140.526 68.0382 140.525C67.9626 140.524 67.8878 140.541 67.8193 140.573ZM87.8307 142.821L90.6615 141.19C90.7819 141.12 90.787 141.009 90.6615 140.939L87.6851 139.203C87.6177 139.17 87.544 139.154 87.4693 139.154C87.3946 139.154 87.3209 139.17 87.2535 139.203L84.4227 140.834C84.3022 140.904 84.2972 141.014 84.4227 141.085L87.4342 142.811C87.4968 142.841 87.5648 142.857 87.6339 142.858C87.703 142.86 87.7717 142.847 87.8357 142.821H87.8307ZM125.324 107.376L122.493 109.007C122.372 109.078 122.367 109.188 122.493 109.258L125.479 110.985C125.547 111.017 125.62 111.034 125.695 111.034C125.77 111.034 125.844 111.017 125.911 110.985L128.742 109.349C128.862 109.283 128.867 109.168 128.742 109.103L125.755 107.376C125.689 107.342 125.616 107.325 125.542 107.325C125.468 107.325 125.395 107.342 125.329 107.376H125.324ZM120.305 110.267L117.509 111.903C117.483 111.912 117.462 111.929 117.446 111.951C117.43 111.973 117.422 111.999 117.422 112.026C117.422 112.053 117.43 112.08 117.446 112.102C117.462 112.124 117.483 112.14 117.509 112.149L120.495 113.876C120.563 113.908 120.636 113.925 120.711 113.925C120.786 113.925 120.86 113.908 120.927 113.876L123.758 112.245C123.878 112.174 123.878 112.064 123.758 111.994L120.746 110.267C120.68 110.236 120.607 110.22 120.533 110.22C120.459 110.22 120.386 110.236 120.32 110.267H120.305ZM129.449 104.982L126.619 106.618C126.498 106.689 126.498 106.799 126.619 106.869L129.63 108.596C129.698 108.628 129.771 108.645 129.846 108.645C129.921 108.645 129.994 108.628 130.062 108.596L132.893 106.96C133.013 106.889 133.013 106.779 132.893 106.714L129.881 104.987C129.816 104.956 129.745 104.94 129.673 104.939C129.601 104.938 129.53 104.953 129.465 104.982H129.449ZM107.31 126.655L110.141 125.018C110.166 125.009 110.188 124.993 110.204 124.971C110.219 124.949 110.228 124.922 110.228 124.895C110.228 124.869 110.219 124.842 110.204 124.82C110.188 124.798 110.166 124.782 110.141 124.772L107.129 123.046C107.062 123.014 106.988 122.997 106.913 122.997C106.839 122.997 106.765 123.014 106.698 123.046L103.862 124.682C103.835 124.69 103.811 124.706 103.793 124.729C103.776 124.752 103.767 124.779 103.767 124.808C103.767 124.836 103.776 124.864 103.793 124.886C103.811 124.909 103.835 124.925 103.862 124.933L106.848 126.66C106.92 126.696 106.999 126.714 107.08 126.713C107.16 126.713 107.239 126.692 107.31 126.655ZM134.037 102.598C133.97 102.566 133.896 102.549 133.821 102.549C133.746 102.549 133.673 102.566 133.605 102.598L130.774 104.234C130.654 104.304 130.649 104.415 130.774 104.485L133.761 106.212C133.828 106.244 133.902 106.26 133.977 106.26C134.051 106.26 134.125 106.244 134.193 106.212L137.023 104.575C137.144 104.505 137.149 104.395 137.023 104.33L134.037 102.598ZM91.9765 140.437L94.8073 138.806C94.9278 138.736 94.9278 138.62 94.8073 138.555L91.7958 136.828C91.7284 136.796 91.6547 136.78 91.58 136.78C91.5053 136.78 91.4316 136.796 91.3642 136.828L88.5334 138.46C88.4129 138.53 88.4129 138.64 88.5334 138.711L91.5449 140.437C91.6126 140.469 91.6866 140.484 91.7612 140.484C91.8359 140.483 91.9095 140.465 91.9765 140.432V140.437ZM142.725 111.135L145.561 109.499C145.586 109.49 145.608 109.474 145.624 109.452C145.639 109.43 145.648 109.403 145.648 109.376C145.648 109.349 145.639 109.323 145.624 109.301C145.608 109.279 145.586 109.262 145.561 109.253L142.549 107.527C142.482 107.495 142.408 107.478 142.334 107.478C142.259 107.478 142.185 107.495 142.118 107.527L139.287 109.158C139.167 109.228 139.167 109.339 139.287 109.409L142.298 111.135C142.365 111.168 142.438 111.185 142.512 111.184C142.586 111.183 142.659 111.165 142.725 111.13V111.135ZM134.318 111.06L137.154 109.424C137.179 109.415 137.201 109.398 137.217 109.376C137.232 109.354 137.241 109.328 137.241 109.301C137.241 109.274 137.232 109.248 137.217 109.226C137.201 109.204 137.179 109.187 137.154 109.178L134.167 107.451C134.1 107.419 134.026 107.403 133.952 107.403C133.877 107.403 133.803 107.419 133.736 107.451L130.905 109.088C130.785 109.158 130.78 109.268 130.905 109.339L133.891 111.065C133.959 111.095 134.032 111.11 134.106 111.108C134.18 111.106 134.252 111.088 134.318 111.055V111.06ZM138.303 105.072C138.237 105.039 138.164 105.021 138.09 105.021C138.016 105.021 137.943 105.039 137.877 105.072L135.041 106.709C135.014 106.716 134.99 106.733 134.972 106.755C134.955 106.778 134.946 106.806 134.946 106.834C134.946 106.862 134.955 106.89 134.972 106.913C134.99 106.935 135.014 106.952 135.041 106.96L138.027 108.686C138.095 108.718 138.168 108.735 138.243 108.735C138.318 108.735 138.391 108.718 138.459 108.686L141.29 107.05C141.315 107.041 141.337 107.024 141.353 107.002C141.368 106.98 141.376 106.954 141.376 106.927C141.376 106.9 141.368 106.874 141.353 106.852C141.337 106.83 141.315 106.813 141.29 106.804L138.303 105.072ZM139.177 104.57L146.434 108.761C146.502 108.794 146.575 108.81 146.65 108.81C146.725 108.81 146.798 108.794 146.866 108.761L149.697 107.125C149.817 107.06 149.822 106.944 149.697 106.879L142.439 102.688C142.372 102.656 142.298 102.639 142.223 102.639C142.148 102.639 142.075 102.656 142.007 102.688L139.177 104.324C139.061 104.375 139.061 104.485 139.177 104.57ZM129.595 109.841L126.764 111.472C126.644 111.542 126.644 111.652 126.764 111.723L129.776 113.449C129.843 113.481 129.917 113.498 129.992 113.498C130.066 113.498 130.14 113.481 130.207 113.449L133.038 111.818C133.159 111.748 133.159 111.632 133.038 111.567L130.027 109.841C129.959 109.808 129.885 109.792 129.811 109.792C129.736 109.792 129.662 109.808 129.595 109.841ZM98.4361 127.824L95.6053 129.455C95.4849 129.526 95.4849 129.636 95.6053 129.706L98.6168 131.433C98.6842 131.465 98.758 131.482 98.8326 131.482C98.9073 131.482 98.9811 131.465 99.0485 131.433L101.879 129.802C102 129.731 102 129.616 101.879 129.551L98.8678 127.824C98.8004 127.792 98.7266 127.775 98.652 127.775C98.5773 127.775 98.5036 127.792 98.4361 127.824ZM138.148 113.525C138.215 113.557 138.289 113.573 138.363 113.573C138.438 113.573 138.512 113.557 138.579 113.525L141.41 111.893C141.531 111.823 141.531 111.708 141.41 111.642L138.424 109.916C138.356 109.884 138.283 109.867 138.208 109.867C138.133 109.867 138.059 109.884 137.992 109.916L135.156 111.547C135.129 111.555 135.105 111.571 135.088 111.594C135.071 111.617 135.062 111.644 135.062 111.673C135.062 111.701 135.071 111.728 135.088 111.751C135.105 111.774 135.129 111.79 135.156 111.798L138.148 113.525ZM102.577 125.435L99.7461 127.066C99.6257 127.137 99.6257 127.247 99.7461 127.317L102.733 129.044C102.8 129.076 102.874 129.093 102.948 129.093C103.023 129.093 103.097 129.076 103.164 129.044L106 127.408C106.025 127.399 106.047 127.382 106.063 127.36C106.078 127.338 106.087 127.312 106.087 127.285C106.087 127.258 106.078 127.231 106.063 127.209C106.047 127.187 106.025 127.171 106 127.162L102.989 125.435C102.926 125.405 102.857 125.39 102.788 125.39C102.718 125.39 102.65 125.405 102.587 125.435H102.577ZM70.8308 152.383C70.8982 152.415 70.972 152.432 71.0466 152.432C71.1213 152.432 71.1951 152.415 71.2625 152.383L74.0933 150.747C74.2137 150.676 74.2137 150.566 74.0933 150.496L71.0818 148.769C71.0157 148.736 70.9426 148.718 70.8685 148.718C70.7944 148.718 70.7213 148.736 70.6552 148.769L67.8193 150.405C67.6989 150.476 67.6989 150.586 67.8193 150.651L70.8308 152.383ZM65.3098 146.937L62.479 148.573C62.3585 148.644 62.3535 148.754 62.479 148.819L65.4905 150.546C65.5571 150.581 65.6311 150.599 65.7063 150.599C65.7814 150.599 65.8555 150.581 65.9221 150.546L68.7529 148.91C68.8734 148.839 68.8784 148.729 68.7529 148.659L65.7414 146.937C65.6787 146.907 65.6101 146.892 65.5407 146.892C65.4712 146.892 65.4026 146.907 65.3399 146.937H65.3098ZM75.3882 149.989L78.224 148.357C78.2513 148.35 78.2753 148.333 78.2924 148.311C78.3094 148.288 78.3187 148.26 78.3187 148.232C78.3187 148.204 78.3094 148.176 78.2924 148.153C78.2753 148.131 78.2513 148.114 78.224 148.106L75.2376 146.38C75.1702 146.348 75.0965 146.331 75.0218 146.331C74.9471 146.331 74.8734 146.348 74.806 146.38L71.9752 148.016C71.9498 148.025 71.9278 148.042 71.9123 148.064C71.8967 148.086 71.8884 148.112 71.8884 148.139C71.8884 148.166 71.8967 148.192 71.9123 148.214C71.9278 148.236 71.9498 148.253 71.9752 148.262L74.9616 149.989C75.0313 150.028 75.11 150.048 75.19 150.048C75.2699 150.048 75.3486 150.028 75.4183 149.989H75.3882ZM79.529 147.6L82.3598 145.968C82.4803 145.898 82.4853 145.788 82.3598 145.717L79.3734 143.991C79.306 143.959 79.2323 143.942 79.1576 143.942C79.0829 143.942 79.0092 143.959 78.9418 143.991L76.106 145.627C76.0806 145.636 76.0586 145.653 76.043 145.675C76.0275 145.697 76.0191 145.723 76.0191 145.75C76.0191 145.777 76.0275 145.803 76.043 145.825C76.0586 145.847 76.0806 145.864 76.106 145.873L79.0924 147.6C79.1633 147.641 79.2438 147.662 79.3257 147.662C79.4077 147.662 79.4882 147.641 79.5591 147.6H79.529ZM83.6698 145.21L86.5006 143.579C86.6211 143.509 86.6211 143.399 86.5006 143.328L83.4891 141.602C83.4217 141.57 83.348 141.553 83.2733 141.553C83.1986 141.553 83.1249 141.57 83.0575 141.602L80.2819 143.218C80.1614 143.288 80.1614 143.404 80.2819 143.469L83.2934 145.195C83.3553 145.229 83.4234 145.248 83.4935 145.254C83.5635 145.259 83.6338 145.249 83.6999 145.226L83.6698 145.21ZM69.4455 144.548L66.6148 146.184C66.4943 146.254 66.4943 146.365 66.6148 146.43L69.6262 148.157C69.6929 148.191 69.7669 148.21 69.8421 148.21C69.9172 148.21 69.9913 148.191 70.0579 148.157L72.8887 146.52C73.0091 146.45 73.0091 146.34 72.8887 146.269L69.8772 144.548C69.8145 144.518 69.7459 144.503 69.6764 144.503C69.607 144.503 69.5384 144.518 69.4757 144.548H69.4455ZM73.5863 142.159L70.7555 143.795C70.6351 143.865 70.6301 143.976 70.7555 144.041L73.7419 145.768C73.8094 145.8 73.8831 145.816 73.9578 145.816C74.0324 145.816 74.1062 145.8 74.1736 145.768L77.0094 144.131C77.1248 144.061 77.1299 143.951 77.0094 143.88L73.9979 142.159C73.9379 142.132 73.8729 142.118 73.8072 142.118C73.7414 142.118 73.6765 142.132 73.6165 142.159H73.5863ZM90.1495 132.622L87.3187 134.254C87.1983 134.324 87.1983 134.439 87.3187 134.505L90.3302 136.231C90.3976 136.263 90.4714 136.28 90.546 136.28C90.6207 136.28 90.6944 136.263 90.7619 136.231L93.5927 134.6C93.7131 134.53 93.7131 134.419 93.5927 134.349L90.5812 132.622C90.5179 132.59 90.4485 132.572 90.3775 132.568C90.3066 132.565 90.2357 132.576 90.1696 132.602L90.1495 132.622ZM86.0137 135.012L83.1829 136.648C83.0625 136.713 83.0575 136.828 83.1829 136.894L86.1944 138.62C86.2611 138.655 86.3351 138.673 86.4103 138.673C86.4854 138.673 86.5595 138.655 86.6261 138.62L89.4569 136.989C89.5773 136.919 89.5824 136.808 89.4569 136.738L86.4705 135.012C86.4039 134.975 86.3301 134.955 86.2545 134.951C86.1788 134.948 86.1034 134.962 86.0338 134.991L86.0137 135.012ZM94.2903 130.233L91.4595 131.865C91.3391 131.935 91.334 132.045 91.4595 132.116L94.471 133.842C94.5384 133.874 94.6122 133.891 94.6868 133.891C94.7615 133.891 94.8352 133.874 94.9027 133.842L97.7335 132.211C97.8539 132.141 97.8589 132.03 97.7335 131.96L94.722 130.233C94.6587 130.201 94.5893 130.183 94.5183 130.179C94.4474 130.176 94.3765 130.187 94.3104 130.213L94.2903 130.233ZM77.7271 139.77L74.8913 141.406C74.7709 141.476 74.7709 141.587 74.8913 141.652L77.8777 143.378C77.9451 143.411 78.0189 143.427 78.0935 143.427C78.1682 143.427 78.2419 143.411 78.3094 143.378L81.1402 141.742C81.2606 141.672 81.2606 141.562 81.1402 141.491L78.1287 139.765C78.0088 139.719 77.8759 139.721 77.7573 139.77H77.7271ZM81.8629 137.381L79.0321 139.017C79.0067 139.026 78.9847 139.043 78.9692 139.065C78.9536 139.087 78.9453 139.113 78.9453 139.14C78.9453 139.167 78.9536 139.193 78.9692 139.215C78.9847 139.237 79.0067 139.254 79.0321 139.263L82.0436 140.989C82.1097 141.023 82.1828 141.04 82.2569 141.04C82.331 141.04 82.4041 141.023 82.4702 140.989L85.306 139.353C85.4265 139.283 85.4265 139.172 85.306 139.102L82.2946 137.376C82.2281 137.346 82.156 137.331 82.0832 137.332C82.0104 137.333 81.9387 137.349 81.873 137.381H81.8629ZM77.697 153.587L80.5328 151.951C80.5582 151.942 80.5802 151.925 80.5958 151.903C80.6113 151.881 80.6197 151.855 80.6197 151.828C80.6197 151.801 80.6113 151.775 80.5958 151.753C80.5802 151.731 80.5582 151.714 80.5328 151.705L77.5464 149.979C77.4798 149.944 77.4058 149.926 77.3306 149.926C77.2555 149.926 77.1814 149.944 77.1148 149.979L74.284 151.61C74.1635 151.68 74.1635 151.791 74.284 151.861L77.2704 153.587C77.3411 153.624 77.4194 153.642 77.4988 153.642C77.5782 153.642 77.6564 153.624 77.7271 153.587H77.697ZM54.6591 151.856L51.6477 150.129C51.5802 150.097 51.5065 150.08 51.4318 150.08C51.3572 150.08 51.2834 150.097 51.216 150.129L48.4354 151.75C48.3149 151.821 48.3149 151.931 48.4354 152.001L51.4469 153.728C51.5143 153.76 51.588 153.777 51.6627 153.777C51.7374 153.777 51.8111 153.76 51.8785 153.728L54.7093 152.092C54.7309 152.079 54.7486 152.061 54.7601 152.039C54.7717 152.017 54.7767 151.992 54.7746 151.967C54.7725 151.943 54.7633 151.919 54.7482 151.899C54.7331 151.879 54.7126 151.864 54.6893 151.856H54.6591ZM60.4512 153.442L57.4648 151.715C57.3982 151.681 57.3242 151.662 57.249 151.662C57.1739 151.662 57.0998 151.681 57.0332 151.715L52.6766 154.225C52.5561 154.295 52.5511 154.406 52.6766 154.476L55.6881 156.202C55.7555 156.234 55.8292 156.251 55.9039 156.251C55.9786 156.251 56.0523 156.234 56.1197 156.202L60.4763 153.693C60.5968 153.618 60.6018 153.507 60.4814 153.442H60.4512ZM50.1319 148.488L47.1204 146.761C47.053 146.729 46.9792 146.713 46.9046 146.713C46.8299 146.713 46.7562 146.729 46.6887 146.761L43.2054 148.769C43.085 148.839 43.08 148.95 43.2054 149.02L46.2169 150.747C46.2844 150.779 46.3581 150.795 46.4328 150.795C46.5074 150.795 46.5812 150.779 46.6486 150.747L50.162 148.739C50.2774 148.664 50.2774 148.553 50.162 148.488H50.1319ZM52.8021 146.942C52.8687 146.977 52.9427 146.995 53.0179 146.995C53.093 146.995 53.1671 146.977 53.2337 146.942L56.0645 145.306C56.185 145.236 56.185 145.125 56.0645 145.055L53.053 143.333C52.9873 143.299 52.914 143.28 52.8397 143.28C52.7654 143.28 52.6921 143.299 52.6264 143.333L49.7906 144.97C49.6701 145.04 49.6701 145.15 49.7906 145.215L52.8021 146.942ZM65.8418 155.264L62.8303 153.542C62.7637 153.507 62.6896 153.489 62.6145 153.489C62.5393 153.489 62.4653 153.507 62.3987 153.542L56.9529 156.684C56.8324 156.754 56.8324 156.87 56.9529 156.935L59.9644 158.662C60.0318 158.694 60.1055 158.711 60.1802 158.711C60.2549 158.711 60.3286 158.694 60.396 158.662L65.8418 155.52C65.9572 155.455 65.9572 155.344 65.8418 155.264ZM68.1506 158.863L65.1391 157.136C65.0717 157.104 64.998 157.087 64.9233 157.087C64.8486 157.087 64.7749 157.104 64.7075 157.136L61.2242 159.144C61.1988 159.153 61.1768 159.169 61.1613 159.191C61.1457 159.213 61.1374 159.24 61.1374 159.267C61.1374 159.294 61.1457 159.32 61.1613 159.342C61.1768 159.364 61.1988 159.381 61.2242 159.39L64.2357 161.116C64.3023 161.151 64.3763 161.169 64.4515 161.169C64.5266 161.169 64.6007 161.151 64.6673 161.116L68.1506 159.108C68.266 159.053 68.266 158.943 68.1506 158.873V158.863ZM83.6046 129.164C83.672 129.196 83.7457 129.213 83.8204 129.213C83.8951 129.213 83.9688 129.196 84.0362 129.164L86.867 127.528C86.8924 127.519 86.9144 127.502 86.9299 127.48C86.9455 127.458 86.9538 127.432 86.9538 127.405C86.9538 127.378 86.9455 127.352 86.9299 127.33C86.9144 127.308 86.8924 127.291 86.867 127.282L83.8555 125.555C83.7881 125.523 83.7144 125.507 83.6397 125.507C83.565 125.507 83.4913 125.523 83.4239 125.555L80.5931 127.187C80.4726 127.257 80.4726 127.367 80.5931 127.438L83.6046 129.164ZM75.3481 133.958C75.4142 133.991 75.4873 134.008 75.5614 134.008C75.6355 134.008 75.7086 133.991 75.7747 133.958L78.6105 132.326C78.6378 132.319 78.6618 132.302 78.6788 132.279C78.6959 132.257 78.7052 132.229 78.7052 132.201C78.7052 132.172 78.6959 132.145 78.6788 132.122C78.6618 132.1 78.6378 132.083 78.6105 132.075L75.599 130.349C75.5316 130.317 75.4579 130.3 75.3832 130.3C75.3085 130.3 75.2348 130.317 75.1674 130.349L72.3366 131.98C72.2161 132.05 72.2161 132.161 72.3366 132.231L75.3481 133.958ZM56.988 144.553C57.0547 144.588 57.1287 144.606 57.2039 144.606C57.279 144.606 57.353 144.588 57.4197 144.553L60.2555 142.917C60.2828 142.909 60.3067 142.892 60.3238 142.87C60.3409 142.847 60.3501 142.82 60.3501 142.791C60.3501 142.763 60.3409 142.735 60.3238 142.713C60.3067 142.69 60.2828 142.674 60.2555 142.666L57.2691 140.944C57.2025 140.909 57.1284 140.891 57.0533 140.891C56.9781 140.891 56.9041 140.909 56.8374 140.944L54.0067 142.58C53.8862 142.651 53.8862 142.761 54.0067 142.826L56.988 144.553ZM79.4838 131.568C79.5513 131.601 79.625 131.617 79.6997 131.617C79.7743 131.617 79.8481 131.601 79.9155 131.568L82.7463 129.937C82.8667 129.867 82.8718 129.751 82.7463 129.686L79.7348 127.96C79.6674 127.928 79.5936 127.911 79.519 127.911C79.4443 127.911 79.3706 127.928 79.3032 127.96L76.4724 129.591C76.3519 129.661 76.3469 129.772 76.4724 129.842L79.4838 131.568ZM71.2073 136.347C71.2747 136.379 71.3484 136.395 71.4231 136.395C71.4978 136.395 71.5715 136.379 71.6389 136.347L74.4697 134.715C74.5902 134.645 74.5902 134.535 74.4697 134.464L71.4833 132.738C71.4159 132.706 71.3422 132.689 71.2675 132.689C71.1928 132.689 71.1191 132.706 71.0517 132.738L68.2159 134.374C68.1905 134.383 68.1685 134.4 68.1529 134.422C68.1374 134.444 68.129 134.47 68.129 134.497C68.129 134.524 68.1374 134.55 68.1529 134.572C68.1685 134.594 68.1905 134.611 68.2159 134.62L71.2073 136.347ZM70.3289 159.108C70.2615 159.076 70.1878 159.06 70.1131 159.06C70.0384 159.06 69.9647 159.076 69.8973 159.108L65.5407 161.618C65.4202 161.688 65.4152 161.799 65.5407 161.864L68.527 163.591C68.5945 163.623 68.6682 163.639 68.7429 163.639C68.8175 163.639 68.8913 163.623 68.9587 163.591L73.3153 161.081C73.3407 161.072 73.3627 161.055 73.3782 161.033C73.3938 161.011 73.4021 160.985 73.4021 160.958C73.4021 160.931 73.3938 160.905 73.3782 160.883C73.3627 160.861 73.3407 160.844 73.3153 160.835L70.3289 159.108ZM65.2746 139.775C65.342 139.807 65.4158 139.823 65.4905 139.823C65.5651 139.823 65.6389 139.807 65.7063 139.775L68.5371 138.138C68.6575 138.068 68.6575 137.958 68.5371 137.888L65.5256 136.161C65.4582 136.129 65.3844 136.112 65.3098 136.112C65.2351 136.112 65.1614 136.129 65.0939 136.161L62.2631 137.797C62.1427 137.867 62.1427 137.978 62.2631 138.043L65.2746 139.775ZM61.1338 142.164C61.2005 142.199 61.2745 142.217 61.3497 142.217C61.4248 142.217 61.4988 142.199 61.5655 142.164L64.3963 140.528C64.5167 140.457 64.5218 140.347 64.3963 140.277L61.4099 138.555C61.3433 138.52 61.2692 138.502 61.1941 138.502C61.1189 138.502 61.0449 138.52 60.9782 138.555L58.1223 140.206C58.0069 140.277 58.0019 140.387 58.1223 140.452L61.1338 142.164ZM147.001 114.84C146.934 114.807 146.86 114.791 146.786 114.791C146.711 114.791 146.637 114.807 146.57 114.84L139.598 118.855C139.573 118.864 139.551 118.881 139.535 118.903C139.52 118.925 139.511 118.951 139.511 118.978C139.511 119.005 139.52 119.031 139.535 119.053C139.551 119.075 139.573 119.092 139.598 119.101L142.61 120.827C142.676 120.862 142.75 120.88 142.825 120.88C142.901 120.88 142.975 120.862 143.041 120.827L150.008 116.812C150.128 116.742 150.133 116.631 150.008 116.561L147.001 114.84ZM137.826 120.13C137.76 120.095 137.686 120.077 137.611 120.077C137.535 120.077 137.461 120.095 137.395 120.13L134.574 121.761C134.454 121.831 134.454 121.942 134.574 122.012L137.56 123.734C137.627 123.768 137.701 123.786 137.776 123.786C137.851 123.786 137.925 123.768 137.992 123.734L140.828 122.097C140.855 122.09 140.879 122.073 140.896 122.05C140.913 122.028 140.923 122 140.923 121.972C140.923 121.943 140.913 121.916 140.896 121.893C140.879 121.871 140.855 121.854 140.828 121.846L137.826 120.13ZM81.873 151.198L84.7038 149.562C84.8242 149.492 84.8292 149.381 84.7038 149.316L81.7174 147.59C81.6499 147.557 81.5762 147.541 81.5015 147.541C81.4269 147.541 81.3531 147.557 81.2857 147.59L78.4499 149.241C78.3345 149.311 78.3294 149.422 78.4499 149.492L81.4363 151.218C81.5059 151.248 81.5813 151.262 81.6569 151.258C81.7325 151.255 81.8064 151.234 81.873 151.198ZM129.555 124.903C129.487 124.871 129.414 124.854 129.339 124.854C129.264 124.854 129.191 124.871 129.123 124.903L126.292 126.539C126.172 126.609 126.167 126.72 126.292 126.79L129.279 128.512C129.345 128.547 129.419 128.565 129.495 128.565C129.57 128.565 129.644 128.547 129.71 128.512L132.541 126.876C132.662 126.805 132.667 126.695 132.541 126.63L129.555 124.903ZM151.137 112.45C151.07 112.418 150.996 112.402 150.921 112.402C150.847 112.402 150.773 112.418 150.706 112.45L147.85 114.107C147.824 114.116 147.802 114.133 147.787 114.155C147.771 114.177 147.763 114.203 147.763 114.23C147.763 114.257 147.771 114.283 147.787 114.305C147.802 114.327 147.824 114.344 147.85 114.353L150.861 116.079C150.929 116.111 151.002 116.128 151.077 116.128C151.152 116.128 151.225 116.111 151.293 116.079L154.124 114.448C154.244 114.378 154.244 114.267 154.124 114.197L151.137 112.45ZM158.264 111.788L150.982 107.582C150.914 107.55 150.84 107.533 150.766 107.533C150.691 107.533 150.617 107.55 150.55 107.582L147.719 109.213C147.599 109.283 147.599 109.394 147.719 109.464L154.977 113.655C155.044 113.687 155.118 113.704 155.193 113.704C155.267 113.704 155.341 113.687 155.408 113.655L158.239 112.024C158.355 111.969 158.36 111.858 158.239 111.788H158.264ZM114.096 133.832C114.029 133.797 113.955 133.779 113.88 133.779C113.805 133.779 113.731 133.797 113.664 133.832L110.176 135.84C110.055 135.91 110.055 136.02 110.176 136.091L113.187 137.817C113.255 137.849 113.329 137.866 113.403 137.866C113.478 137.866 113.552 137.849 113.619 137.817L117.102 135.81C117.223 135.739 117.228 135.629 117.102 135.564L114.096 133.832ZM124.551 127.809C124.483 127.777 124.41 127.76 124.335 127.76C124.26 127.76 124.187 127.777 124.119 127.809L119.762 130.319C119.642 130.389 119.637 130.499 119.762 130.565L122.774 132.291C122.841 132.323 122.915 132.34 122.99 132.34C123.064 132.34 123.138 132.323 123.206 132.291L127.562 129.782C127.683 129.716 127.688 129.601 127.562 129.536L124.551 127.809ZM104.509 139.378C104.442 139.346 104.368 139.329 104.293 139.329C104.219 139.329 104.145 139.346 104.078 139.378L80.7738 152.835C80.6533 152.905 80.6483 153.015 80.7738 153.08L83.7602 154.807C83.8268 154.842 83.9008 154.86 83.976 154.86C84.0511 154.86 84.1252 154.842 84.1918 154.807L107.471 141.341C107.498 141.333 107.522 141.316 107.539 141.294C107.556 141.271 107.565 141.244 107.565 141.215C107.565 141.187 107.556 141.159 107.539 141.137C107.522 141.114 107.498 141.098 107.471 141.09L104.509 139.378ZM79.9155 153.592C79.8489 153.558 79.7748 153.54 79.6997 153.54C79.6245 153.54 79.5505 153.558 79.4838 153.592L76.0006 155.6C75.8801 155.67 75.8751 155.781 76.0006 155.851L79.012 157.573C79.0787 157.607 79.1527 157.626 79.2279 157.626C79.303 157.626 79.3771 157.607 79.4437 157.573L82.9571 155.565C82.9844 155.557 83.0083 155.541 83.0254 155.518C83.0425 155.495 83.0517 155.468 83.0517 155.439C83.0517 155.411 83.0425 155.384 83.0254 155.361C83.0083 155.338 82.9844 155.322 82.9571 155.314L79.9155 153.592ZM109.323 136.613C109.256 136.578 109.182 136.56 109.107 136.56C109.032 136.56 108.958 136.578 108.891 136.613L105.408 138.62C105.287 138.691 105.282 138.801 105.408 138.871L108.419 140.598C108.487 140.63 108.56 140.647 108.635 140.647C108.71 140.647 108.783 140.63 108.851 140.598L112.334 138.59C112.455 138.525 112.46 138.41 112.334 138.344L109.323 136.613ZM75.1222 156.358C75.0548 156.326 74.981 156.309 74.9064 156.309C74.8317 156.309 74.758 156.326 74.6906 156.358L71.2073 158.366C71.0868 158.436 71.0868 158.546 71.2073 158.617L74.2188 160.343C74.2849 160.377 74.3579 160.394 74.4321 160.394C74.5062 160.394 74.5793 160.377 74.6454 160.343L78.1337 158.336C78.2542 158.265 78.2542 158.155 78.1337 158.09L75.1222 156.358ZM118.904 131.082C118.838 131.047 118.764 131.029 118.688 131.029C118.613 131.029 118.539 131.047 118.473 131.082L114.989 133.089C114.869 133.159 114.869 133.27 114.989 133.34L118.001 135.062C118.067 135.096 118.141 135.115 118.217 135.115C118.292 135.115 118.366 135.096 118.432 135.062L121.916 133.054C122.036 132.984 122.036 132.873 121.916 132.803L118.904 131.082ZM133.716 122.549C133.649 122.514 133.575 122.496 133.5 122.496C133.425 122.496 133.351 122.514 133.284 122.549L130.423 124.145C130.303 124.215 130.303 124.326 130.423 124.396L133.435 126.118C133.501 126.152 133.575 126.171 133.65 126.171C133.726 126.171 133.8 126.152 133.866 126.118L136.697 124.481C136.818 124.411 136.818 124.301 136.697 124.235L133.716 122.549ZM142.886 116.024L145.722 114.393C145.842 114.323 145.842 114.212 145.722 114.142L142.71 112.415C142.643 112.383 142.569 112.367 142.494 112.367C142.42 112.367 142.346 112.383 142.278 112.415L139.448 114.047C139.327 114.117 139.327 114.232 139.448 114.298L142.459 116.024C142.524 116.047 142.593 116.055 142.662 116.048C142.73 116.041 142.796 116.019 142.856 115.984L142.886 116.024ZM125.203 116.375L128.034 114.744C128.155 114.674 128.155 114.564 128.034 114.493L125.023 112.767C124.955 112.735 124.881 112.718 124.807 112.718C124.732 112.718 124.658 112.735 124.591 112.767L121.76 114.403C121.64 114.473 121.64 114.584 121.76 114.649L124.772 116.375C124.837 116.399 124.907 116.408 124.977 116.401C125.046 116.394 125.113 116.372 125.173 116.335L125.203 116.375ZM114.999 132.085L123.276 127.302C123.301 127.293 123.323 127.276 123.339 127.254C123.354 127.232 123.363 127.206 123.363 127.179C123.363 127.152 123.354 127.126 123.339 127.104C123.323 127.082 123.301 127.065 123.276 127.056L120.264 125.33C120.198 125.295 120.124 125.277 120.049 125.277C119.973 125.277 119.899 125.295 119.833 125.33L111.556 130.108C111.531 130.117 111.509 130.134 111.493 130.156C111.478 130.178 111.469 130.204 111.469 130.231C111.469 130.258 111.478 130.284 111.493 130.306C111.509 130.328 111.531 130.345 111.556 130.354L114.568 132.08C114.635 132.113 114.708 132.131 114.783 132.132C114.858 132.133 114.932 132.117 114.999 132.085ZM138.308 118.378C138.376 118.41 138.449 118.427 138.524 118.427C138.599 118.427 138.672 118.41 138.74 118.378L141.571 116.747C141.691 116.677 141.691 116.566 141.571 116.496L138.559 114.769C138.492 114.737 138.418 114.721 138.343 114.721C138.269 114.721 138.195 114.737 138.128 114.769L135.292 116.406C135.266 116.415 135.244 116.431 135.229 116.453C135.213 116.475 135.205 116.502 135.205 116.529C135.205 116.556 135.213 116.582 135.229 116.604C135.244 116.626 135.266 116.642 135.292 116.652L138.308 118.378ZM134.469 115.909L137.304 114.277C137.42 114.207 137.425 114.097 137.304 114.026L134.318 112.3C134.251 112.268 134.177 112.251 134.102 112.251C134.028 112.251 133.954 112.268 133.886 112.3L131.061 113.936C130.94 114.006 130.935 114.117 131.061 114.187L134.047 115.914C134.111 115.941 134.179 115.954 134.248 115.953C134.317 115.952 134.386 115.937 134.449 115.909H134.469ZM110.879 134.48L113.709 132.843C113.83 132.773 113.83 132.663 113.709 132.592L110.698 130.866C110.63 130.834 110.557 130.817 110.482 130.817C110.407 130.817 110.334 130.834 110.266 130.866L107.43 132.502C107.31 132.572 107.31 132.683 107.43 132.748L110.417 134.474C110.483 134.505 110.555 134.521 110.628 134.521C110.7 134.521 110.772 134.505 110.838 134.474L110.879 134.48ZM129.138 123.643C129.205 123.678 129.279 123.696 129.354 123.696C129.429 123.696 129.503 123.678 129.57 123.643L132.401 122.007C132.521 121.937 132.526 121.826 132.401 121.756L129.414 120.034C129.348 120 129.274 119.982 129.198 119.982C129.123 119.982 129.049 120 128.983 120.034L126.152 121.671C126.031 121.741 126.026 121.851 126.152 121.922L129.138 123.643ZM90.1445 146.405L92.9753 144.769C93.0958 144.699 93.1008 144.588 92.9753 144.523L89.9889 142.796C89.9223 142.762 89.8482 142.743 89.7731 142.743C89.6979 142.743 89.6239 142.762 89.5573 142.796L86.7265 144.432C86.606 144.503 86.601 144.613 86.7265 144.683L89.738 146.405C89.8002 146.438 89.8691 146.457 89.9395 146.459C90.0099 146.462 90.08 146.448 90.1445 146.42V146.405ZM94.2853 144.016L97.1161 142.38C97.2366 142.309 97.2366 142.199 97.1161 142.134L94.1046 140.407C94.038 140.372 93.9639 140.354 93.8888 140.354C93.8136 140.354 93.7396 140.372 93.673 140.407L90.8422 142.043C90.7217 142.114 90.7217 142.224 90.8422 142.294L93.8537 144.016C93.9191 144.053 93.9925 144.074 94.0676 144.076C94.1428 144.079 94.2175 144.063 94.2853 144.031V144.016ZM86.0087 148.794L88.8395 147.158C88.96 147.088 88.96 146.977 88.8395 146.912L85.828 145.185C85.7606 145.153 85.6869 145.137 85.6122 145.137C85.5375 145.137 85.4638 145.153 85.3964 145.185L82.5656 146.822C82.4451 146.892 82.4451 147.002 82.5656 147.073L85.5771 148.799C85.6438 148.833 85.7171 148.851 85.7918 148.853C85.8664 148.855 85.9406 148.84 86.0087 148.809V148.794ZM102.572 139.258L105.403 137.622C105.523 137.551 105.523 137.441 105.403 137.371L102.391 135.649C102.325 135.614 102.252 135.596 102.178 135.596C102.104 135.596 102.03 135.614 101.965 135.649L99.1288 137.285C99.0083 137.355 99.0083 137.466 99.1288 137.531L102.14 139.258C102.206 139.29 102.278 139.306 102.352 139.306C102.425 139.305 102.497 139.287 102.562 139.253L102.572 139.258ZM98.4361 141.642L101.267 140.006C101.387 139.935 101.392 139.825 101.267 139.755L98.2554 138.033C98.1888 137.998 98.1148 137.98 98.0396 137.98C97.9645 137.98 97.8904 137.998 97.8238 138.033L94.993 139.669C94.8725 139.74 94.8675 139.85 94.993 139.92L98.0045 141.642C98.0711 141.677 98.1452 141.695 98.2203 141.695C98.2955 141.695 98.3695 141.677 98.4361 141.642ZM106.713 136.864L109.549 135.227C109.576 135.22 109.6 135.203 109.617 135.18C109.634 135.158 109.643 135.13 109.643 135.102C109.643 135.074 109.634 135.046 109.617 135.023C109.6 135.001 109.576 134.984 109.549 134.976L106.537 133.255C106.47 133.22 106.396 133.202 106.321 133.202C106.246 133.202 106.172 133.22 106.105 133.255L103.275 134.891C103.154 134.961 103.154 135.072 103.275 135.137L106.261 136.864C106.328 136.899 106.403 136.918 106.479 136.918C106.555 136.918 106.63 136.899 106.698 136.864H106.713ZM127.477 102.563C127.544 102.598 127.618 102.616 127.693 102.616C127.768 102.616 127.842 102.598 127.909 102.563L130.744 100.927C130.865 100.856 130.865 100.746 130.744 100.681L129.951 100.219C129.884 100.187 129.81 100.17 129.736 100.17C129.661 100.17 129.587 100.187 129.52 100.219L126.689 101.855C126.568 101.925 126.568 102.036 126.689 102.106L127.477 102.563ZM107.014 115.663C107.08 115.696 107.153 115.714 107.227 115.714C107.301 115.714 107.374 115.696 107.44 115.663L110.276 114.026C110.397 113.956 110.397 113.846 110.276 113.776L107.265 112.049C107.197 112.017 107.124 112 107.049 112C106.974 112 106.901 112.017 106.833 112.049L104.002 113.685C103.977 113.694 103.955 113.711 103.939 113.733C103.924 113.755 103.916 113.781 103.916 113.808C103.916 113.835 103.924 113.861 103.939 113.883C103.955 113.905 103.977 113.922 104.002 113.931L107.014 115.663ZM115.29 110.885C115.358 110.917 115.432 110.933 115.506 110.933C115.581 110.933 115.655 110.917 115.722 110.885L118.553 109.253C118.673 109.183 118.673 109.073 118.553 109.002L115.541 107.276C115.474 107.244 115.4 107.227 115.326 107.227C115.251 107.227 115.177 107.244 115.11 107.276L112.279 108.912C112.254 108.921 112.232 108.938 112.216 108.96C112.2 108.982 112.192 109.008 112.192 109.035C112.192 109.062 112.2 109.088 112.216 109.11C112.232 109.132 112.254 109.149 112.279 109.158L115.29 110.885ZM101.95 118.579C102.016 118.614 102.09 118.632 102.165 118.632C102.241 118.632 102.315 118.614 102.381 118.579L105.212 116.943C105.332 116.872 105.332 116.762 105.212 116.692L102.2 114.97C102.134 114.935 102.06 114.917 101.985 114.917C101.91 114.917 101.835 114.935 101.769 114.97L98.9732 116.616C98.8527 116.687 98.8527 116.797 98.9732 116.867L101.95 118.579ZM111.14 113.274C111.206 113.308 111.28 113.327 111.355 113.327C111.431 113.327 111.505 113.308 111.571 113.274L114.402 111.642C114.523 111.572 114.528 111.462 114.402 111.391L111.391 109.665C111.323 109.633 111.249 109.616 111.175 109.616C111.1 109.616 111.026 109.633 110.959 109.665L108.128 111.301C108.008 111.366 108.003 111.482 108.128 111.547L111.14 113.274ZM93.673 123.357C93.7387 123.392 93.8119 123.41 93.8863 123.41C93.9606 123.41 94.0339 123.392 94.0996 123.357L96.9354 121.721C97.0559 121.651 97.0559 121.54 96.9354 121.475L93.9239 119.748C93.8573 119.714 93.7833 119.695 93.7081 119.695C93.633 119.695 93.5589 119.714 93.4923 119.748L90.6615 121.385C90.541 121.455 90.541 121.565 90.6615 121.636L93.673 123.357ZM97.8087 120.968C97.8754 121.003 97.9494 121.021 98.0246 121.021C98.0997 121.021 98.1738 121.003 98.2404 120.968L101.071 119.332C101.192 119.261 101.197 119.151 101.071 119.086L98.0848 117.359C98.0182 117.324 97.9441 117.306 97.869 117.306C97.7938 117.306 97.7198 117.324 97.6531 117.359L94.8224 118.995C94.7019 119.066 94.6969 119.176 94.8224 119.246L97.8087 120.968ZM119.19 107.356C119.257 107.391 119.331 107.409 119.406 107.409C119.481 107.409 119.555 107.391 119.622 107.356L122.458 105.72C122.573 105.65 122.578 105.539 122.458 105.474L121.665 105.012C121.597 104.98 121.524 104.963 121.449 104.963C121.374 104.963 121.301 104.98 121.233 105.012L118.402 106.643C118.282 106.714 118.277 106.824 118.402 106.894L119.19 107.356ZM131.608 100.189C131.674 100.223 131.748 100.242 131.823 100.242C131.899 100.242 131.973 100.223 132.039 100.189L134.87 98.5525C134.991 98.4822 134.996 98.3718 134.87 98.3015L134.072 97.8448C134.005 97.8127 133.931 97.796 133.856 97.796C133.782 97.796 133.708 97.8127 133.64 97.8448L130.805 99.481C130.777 99.4888 130.753 99.5053 130.736 99.5279C130.719 99.5505 130.71 99.5781 130.71 99.6065C130.71 99.6348 130.719 99.6624 130.736 99.6851C130.753 99.7077 130.777 99.7242 130.805 99.732L131.608 100.189ZM137.887 103.813C137.953 103.847 138.027 103.865 138.102 103.865C138.178 103.865 138.252 103.847 138.318 103.813L141.149 102.176C141.27 102.106 141.27 101.996 141.149 101.93L138.138 100.204C138.072 100.169 137.999 100.151 137.924 100.151C137.85 100.151 137.777 100.169 137.711 100.204L134.875 101.84C134.755 101.91 134.755 102.021 134.875 102.091L137.887 103.813ZM146.996 113.605L149.827 111.974C149.948 111.903 149.953 111.793 149.827 111.723L146.841 109.996C146.773 109.964 146.7 109.947 146.625 109.947C146.55 109.947 146.477 109.964 146.409 109.996L143.608 111.622C143.488 111.693 143.483 111.803 143.608 111.873L146.595 113.6C146.658 113.628 146.726 113.643 146.795 113.644C146.864 113.645 146.933 113.632 146.996 113.605ZM123.341 104.977C123.408 105.012 123.482 105.03 123.557 105.03C123.632 105.03 123.706 105.012 123.773 104.977L126.604 103.341C126.724 103.27 126.724 103.16 126.604 103.095L125.806 102.633C125.739 102.598 125.665 102.58 125.59 102.58C125.515 102.58 125.441 102.598 125.374 102.633L122.528 104.259C122.408 104.33 122.408 104.44 122.528 104.51L123.341 104.977ZM89.5422 125.756C89.6088 125.791 89.6829 125.809 89.758 125.809C89.8332 125.809 89.9072 125.791 89.9739 125.756L92.8047 124.12C92.9251 124.05 92.9251 123.939 92.8047 123.874L89.8233 122.137C89.7559 122.105 89.6821 122.089 89.6075 122.089C89.5328 122.089 89.4591 122.105 89.3916 122.137L86.5558 123.774C86.4404 123.844 86.4354 123.954 86.5558 124.025L89.5422 125.756Z" fill="#455A64"/>
<path d="M104.7 150.079L130.207 135.353C130.638 135.135 131.114 135.022 131.597 135.022C132.08 135.022 132.557 135.135 132.988 135.353L147.624 143.795C148.391 144.242 148.391 144.96 147.624 145.406L122.121 160.128C121.69 160.348 121.213 160.463 120.728 160.463C120.244 160.463 119.767 160.348 119.336 160.128L104.71 151.685C103.957 151.249 103.957 150.521 104.7 150.079Z" fill="#263238"/>
<path d="M100.386 38.4394C92.4157 45.6017 85.5294 45.2252 81.223 41.9076C76.9216 50.1992 70.0353 58.521 62.0649 60.5637L57.5125 72.8607C57.5125 72.8607 59.9519 75.6714 59.9519 82.397C59.9278 85.2157 59.5484 88.0201 58.8225 90.7439C57.9944 94.0615 56.9253 97.4946 56.9253 103.231C56.9253 107.116 57.4272 110.896 59.4048 114.334C60.5982 116.414 62.3168 118.145 64.3888 119.353L57.4674 115.338C55.2847 114.13 53.4716 112.352 52.2224 110.193C50.2549 106.75 49.7529 102.976 49.7529 99.0857C49.7529 93.3538 50.822 89.9157 51.6502 86.593C52.372 83.8706 52.7464 81.0677 52.7644 78.2512C52.7644 71.5256 50.3251 68.7148 50.3251 68.7148L54.8725 56.4179C62.8429 54.3751 69.7291 46.0534 74.0306 37.7618C78.337 41.0794 85.2233 41.4559 93.1937 34.2935L100.386 38.4394Z" fill="#F08C51"/>
<path opacity="0.8" d="M76.5651 39.2228L74.0555 37.7623C74.8241 38.3575 75.6679 38.8486 76.5651 39.2228Z" fill="white"/>
<path opacity="0.85" d="M93.2011 34.3033C86.641 40.1958 80.8188 40.9838 76.5626 39.2321L81.2203 41.9174C85.5268 45.235 92.413 45.6115 100.383 38.4491L93.2011 34.3033Z" fill="white"/>
<path opacity="0.65" d="M74.0387 37.7623C69.7373 46.0539 62.851 54.3756 54.8806 56.4184L62.063 60.5642C70.0334 58.5214 76.9197 50.1997 81.2211 41.9081L74.0387 37.7623Z" fill="white"/>
<path opacity="0.55" d="M54.88 56.4181L50.3327 68.715L57.5101 72.8609L62.0624 60.564L54.88 56.4181Z" fill="white"/>
<path opacity="0.4" d="M59.403 114.333C57.4355 110.895 56.9236 107.116 56.9236 103.231C56.9236 97.4941 57.9927 94.0611 58.8208 90.7434C59.5466 88.0197 59.9261 85.2153 59.9501 82.3966C59.9501 75.6709 57.5108 72.8602 57.5108 72.8602L50.3334 68.7144C50.3334 68.7144 52.7728 71.5251 52.7728 78.2507C52.7481 81.0681 52.367 83.871 51.6384 86.5926C50.8103 89.9152 49.7412 93.3534 49.7412 99.0852C49.7412 102.975 50.2431 106.749 52.2206 110.188C53.4699 112.347 55.283 114.125 57.4657 115.332L64.3871 119.348C62.3157 118.141 60.5972 116.412 59.403 114.333Z" fill="white"/>
<path opacity="0.05" d="M59.403 114.333C57.4355 110.895 56.9236 107.116 56.9236 103.231C56.9236 97.4941 57.9927 94.0611 58.8208 90.7434C59.5466 88.0197 59.9261 85.2153 59.9501 82.3966C59.9501 75.6709 57.5108 72.8602 57.5108 72.8602L50.3334 68.7144C50.3334 68.7144 52.7728 71.5251 52.7728 78.2507C52.7481 81.0681 52.367 83.871 51.6384 86.5926C50.8103 89.9152 49.7412 93.3534 49.7412 99.0852C49.7412 102.975 50.2431 106.749 52.2206 110.188C53.4699 112.347 55.283 114.125 57.4657 115.332L64.3871 119.348C62.3157 118.141 60.5972 116.412 59.403 114.333Z" fill="black"/>
<path d="M81.2231 122.757C69.3177 122.892 62.4967 119.745 59.3999 114.334C57.4374 110.896 56.9254 107.117 56.9254 103.227C56.9254 97.4952 57.9895 94.0671 58.8227 90.7445C59.5485 88.0224 59.9279 85.2197 59.952 82.4026C59.952 75.677 57.5127 72.8663 57.5127 72.8663L62.065 60.5643C70.0354 58.5215 76.9217 50.1948 81.2231 41.9082C85.5295 45.2258 92.4158 45.6023 100.386 38.4399L104.939 45.4667C103.374 49.3997 102.546 53.5865 102.494 57.8189C102.452 60.2099 102.836 62.5893 103.629 64.8457C104.457 67.2047 105.526 69.4081 105.526 75.1399C105.513 79.9043 104.674 84.6304 103.046 89.1082C99.9445 98.1226 93.1335 109.14 81.2231 122.757Z" fill="#F08C51"/>
<path opacity="0.75" d="M81.2231 122.757C69.3177 122.892 62.4967 119.745 59.3999 114.334C57.4374 110.896 56.9254 107.117 56.9254 103.227C56.9254 97.4952 57.9895 94.0671 58.8227 90.7445C59.5485 88.0224 59.9279 85.2197 59.952 82.4026C59.952 75.677 57.5127 72.8663 57.5127 72.8663L62.065 60.5643C70.0354 58.5215 76.9217 50.1948 81.2231 41.9082C85.5295 45.2258 92.4158 45.6023 100.386 38.4399L104.939 45.4667C103.374 49.3997 102.546 53.5865 102.494 57.8189C102.452 60.2099 102.836 62.5893 103.629 64.8457C104.457 67.2047 105.526 69.4081 105.526 75.1399C105.513 79.9043 104.674 84.6304 103.046 89.1082C99.9445 98.1226 93.1335 109.14 81.2231 122.757Z" fill="white"/>
<path d="M79.8116 119.664C70.5915 119.553 64.6287 117.245 62.089 112.803C60.6536 110.293 60.0161 107.342 60.0161 103.226C60.0158 99.6376 60.5227 96.0671 61.5219 92.6206C61.6172 92.2391 61.7176 91.8677 61.808 91.4913C62.6014 88.5259 63.0129 85.4713 63.0326 82.4016C63.0326 77.4979 61.8582 74.2907 60.9246 72.5139L64.438 63.0779C72.9705 60.1116 79.1391 51.6844 82.4065 46.1584C84.1665 46.9066 86.0603 47.2892 87.9728 47.2827C91.8275 47.2827 95.7474 45.8472 99.6624 43.0114L101.494 45.8522C100.16 49.7096 99.4552 53.7566 99.4064 57.8379C99.3618 60.5825 99.8036 63.3132 100.711 65.9037C100.807 66.1747 100.907 66.4458 101.007 66.7168C101.74 68.7244 102.433 70.6167 102.433 75.169C102.416 79.5896 101.635 83.974 100.124 88.1285C97.0775 96.9722 90.2464 107.583 79.8116 119.664Z" fill="#F08C51"/>
<path opacity="0.4" d="M79.8116 119.664C70.5915 119.553 64.6287 117.245 62.089 112.803C60.6536 110.293 60.0161 107.342 60.0161 103.226C60.0158 99.6376 60.5227 96.0671 61.5219 92.6206C61.6172 92.2391 61.7176 91.8677 61.808 91.4913C62.6014 88.5259 63.0129 85.4713 63.0326 82.4016C63.0326 77.4979 61.8582 74.2907 60.9246 72.5139L64.438 63.0779C72.9705 60.1116 79.1391 51.6844 82.4065 46.1584C84.1665 46.9066 86.0603 47.2892 87.9728 47.2827C91.8275 47.2827 95.7474 45.8472 99.6624 43.0114L101.494 45.8522C100.16 49.7096 99.4552 53.7566 99.4064 57.8379C99.3618 60.5825 99.8036 63.3132 100.711 65.9037C100.807 66.1747 100.907 66.4458 101.007 66.7168C101.74 68.7244 102.433 70.6167 102.433 75.169C102.416 79.5896 101.635 83.974 100.124 88.1285C97.0775 96.9722 90.2464 107.583 79.8116 119.664Z" fill="white"/>
<path opacity="0.15" d="M79.8116 119.664C70.5915 119.553 64.6287 117.245 62.089 112.803C60.6536 110.293 60.0161 107.342 60.0161 103.226C60.0158 99.6376 60.5227 96.0671 61.5219 92.6206C61.6172 92.2391 61.7176 91.8677 61.808 91.4913C62.6014 88.5259 63.0129 85.4713 63.0326 82.4016C63.0326 77.4979 61.8582 74.2907 60.9246 72.5139L64.438 63.0779C72.9705 60.1116 79.1391 51.6844 82.4065 46.1584C84.1665 46.9066 86.0603 47.2892 87.9728 47.2827C91.8275 47.2827 95.7474 45.8472 99.6624 43.0114L101.494 45.8522C100.16 49.7096 99.4552 53.7566 99.4064 57.8379C99.3618 60.5825 99.8036 63.3132 100.711 65.9037C100.807 66.1747 100.907 66.4458 101.007 66.7168C101.74 68.7244 102.433 70.6167 102.433 75.169C102.416 79.5896 101.635 83.974 100.124 88.1285C97.0775 96.9722 90.2464 107.583 79.8116 119.664Z" fill="black"/>
<path opacity="0.8" d="M64.1997 115.357C67.3417 118.128 72.5616 119.578 79.8093 119.663L75.1867 117.028C71.4574 117.079 67.7453 116.514 64.1997 115.357Z" fill="white"/>
<path opacity="0.15" d="M99.0806 44.4619L101.49 45.8522L99.6578 43.0114L98.6088 43.7341L99.0806 44.4619Z" fill="black"/>
<path d="M98.2983 64.5134C97.3905 61.9229 96.9487 59.1921 96.9933 56.4476C97.0421 52.3662 97.7471 48.3193 99.0812 44.4619L98.6094 43.7341C95.0459 46.0881 91.4823 47.2826 87.9689 47.2826C86.0564 47.2891 84.1626 46.9066 82.4026 46.1583C79.1352 51.6794 72.9666 60.1116 64.4341 63.0779L60.9207 72.5139C61.8542 74.2907 63.0287 77.4979 63.0287 82.4016C63.009 85.4713 62.5975 88.5259 61.804 91.4913C61.7137 91.8677 61.6133 92.2391 61.518 92.6206C60.5188 96.0671 60.0119 99.6376 60.0122 103.226C60.0122 107.342 60.6496 110.293 62.0851 112.803C62.841 114.095 63.8685 115.208 65.0966 116.065C68.1784 117.47 72.284 118.207 77.4136 118.273C87.8434 106.187 94.6744 95.5819 97.7211 86.7381C99.2324 82.5838 100.014 78.1993 100.03 73.7787C100.03 69.2263 99.3322 67.3341 98.5994 65.3265C98.494 65.0554 98.3936 64.7844 98.2983 64.5134Z" fill="#455A64"/>
<path d="M64.4341 63.0784L60.9207 72.5144C61.8542 74.2912 63.0287 77.4984 63.0287 82.4021C63.009 85.4718 62.5975 88.5264 61.804 91.4918C61.7137 91.8682 61.6133 92.2397 61.518 92.6211C60.5188 96.0676 60.0119 99.6381 60.0122 103.227C60.0122 107.342 60.6496 110.294 62.0851 112.803C62.841 114.096 63.8685 115.209 65.0966 116.066C68.1784 117.471 72.284 118.207 77.4136 118.274V83.4913L82.4327 81.9855V46.1589C80.951 48.6701 79.2727 51.06 77.4136 53.3061C74.0658 57.3365 69.6992 61.2464 64.4341 63.0784Z" fill="#37474F"/>
<path d="M89.4633 70.6529C89.4096 70.5545 89.3457 70.462 89.2726 70.3769L89.2475 70.3468C89.101 70.1874 88.9319 70.0504 88.7456 69.9402L87.0742 68.9766C86.7724 68.8074 86.4478 68.6824 86.1105 68.6051C85.9086 68.5608 85.7041 68.5289 85.4982 68.5098V63.5609C85.4982 61.0764 84.5596 59.1139 82.9234 58.1703C81.2871 57.2267 79.41 57.3873 77.4877 58.5116C73.914 60.5745 71.1184 65.6087 71.1184 69.9703V75.8126L67.7856 77.735C67.6865 77.7921 67.5925 77.8576 67.5046 77.9307L67.4142 78.001C67.2779 78.1101 67.1665 78.2472 67.0877 78.4031C67.0089 78.5589 66.9645 78.7299 66.9575 78.9044V98.9459C66.9593 99.0323 66.9711 99.1182 66.9926 99.2019C67.0976 99.5393 67.3203 99.8278 67.62 100.015L67.8057 100.135L68.6238 100.607L69.4821 101.109C69.8172 101.294 70.1799 101.425 70.5562 101.496C71.5831 101.723 72.657 101.584 73.5928 101.104L88.7657 92.3457C89.0002 92.2417 89.2029 92.0772 89.3528 91.8691C89.5028 91.6609 89.5946 91.4166 89.6189 91.1612V71.1298C89.607 70.9605 89.5535 70.7967 89.4633 70.6529ZM74.3808 69.9703C74.3808 66.7782 76.5491 62.8331 79.1139 61.3525C79.9872 60.8506 80.7702 60.7201 81.2671 61.0112C81.8543 61.3475 82.2006 62.3011 82.2006 63.5609V69.4032L77.8892 71.9128L74.3758 73.9204L74.3808 69.9703Z" fill="#263238"/>
<path d="M91.3504 72.0125C91.3266 71.757 91.2349 71.5124 91.0849 71.3042C90.9349 71.0959 90.7319 70.9315 90.4971 70.828L88.8257 69.8593C88.1894 69.5342 87.485 69.3646 86.7704 69.3646C86.0558 69.3646 85.3514 69.5342 84.715 69.8593L69.5422 78.6177C69.3072 78.7225 69.1044 78.8879 68.9545 79.097C68.8045 79.306 68.7129 79.5511 68.6889 79.8073V99.8487C68.7113 100.105 68.8024 100.351 68.9525 100.56C69.1026 100.77 69.3063 100.935 69.5422 101.038L71.2135 102.007C71.8509 102.329 72.5549 102.496 73.2689 102.496C73.9828 102.496 74.6868 102.329 75.3242 102.007L90.4971 93.2435C90.7316 93.1396 90.9343 92.975 91.0842 92.7669C91.2342 92.5587 91.326 92.3144 91.3504 92.059V72.0125Z" fill="#F08C51"/>
<path opacity="0.4" d="M71.2148 81.9858L69.5434 80.982C68.4041 80.3295 68.4041 79.2654 69.5434 78.6079L84.7163 69.8495C85.3526 69.5244 86.057 69.3548 86.7716 69.3548C87.4862 69.3548 88.1906 69.5244 88.827 69.8495L90.4984 70.8182C91.6327 71.4707 91.6327 72.5348 90.4984 73.1872L75.3506 81.9858C74.7099 82.3116 74.0014 82.4814 73.2827 82.4814C72.564 82.4814 71.8554 82.3116 71.2148 81.9858Z" fill="white"/>
<path opacity="0.1" d="M73.2714 82.4531V102.495C72.5539 102.505 71.8455 102.333 71.2135 101.993L69.5371 101.059C69.3012 100.955 69.0978 100.789 68.9485 100.579C68.7992 100.368 68.7095 100.122 68.6889 99.8645V79.808C68.7117 80.0632 68.8024 80.3076 68.9516 80.5159C69.1007 80.7242 69.3029 80.8887 69.5371 80.9925L71.2135 81.9612C71.8456 82.2998 72.5545 82.4692 73.2714 82.4531Z" fill="black"/>
<path d="M84.3158 92.3664L80.692 94.4594L81.2541 87.9044C80.8225 87.6735 80.5464 87.1114 80.5464 86.3033C80.5464 84.8578 81.4197 83.1814 82.5039 82.559C83.588 81.9367 84.4613 82.5942 84.4613 84.0648C84.4391 84.9189 84.1952 85.7526 83.7536 86.484L84.3158 92.3664Z" fill="#455A64"/>
<path d="M84.3152 92.3649L81.0327 90.4727L80.6914 94.4579L84.3152 92.3649Z" fill="#37474F"/>
<path d="M82.5037 82.5576C81.7148 83.0899 81.1264 83.8708 80.8324 84.776L83.7535 86.4625C84.1951 85.731 84.439 84.8974 84.4612 84.0432C84.4612 82.5927 83.5879 81.9302 82.5037 82.5576Z" fill="#37474F"/>
<path d="M87.2524 72.4497V64.4191C87.2524 61.9095 86.3138 59.9721 84.6776 59.0285C83.0413 58.0849 81.1642 58.2506 79.2418 59.3698C75.6682 61.4327 72.8725 66.4669 72.8725 70.8286V78.8843C72.8871 79.0314 72.9416 79.1718 73.03 79.2903C73.1185 79.4088 73.2375 79.501 73.3744 79.5569C73.7334 79.7374 74.1296 79.8314 74.5314 79.8314C74.9331 79.8314 75.3293 79.7374 75.6883 79.5569C75.8252 79.501 75.9443 79.4088 76.0327 79.2903C76.1211 79.1718 76.1756 79.0314 76.1902 78.8843V70.8537C76.1902 67.6615 78.3585 63.7164 80.9232 62.2358C81.7966 61.7339 82.5846 61.6084 83.0815 61.8945C83.6637 62.2308 84.015 63.1844 84.015 64.4442V72.4748C84.0308 72.6204 84.0859 72.7589 84.1743 72.8756C84.2627 72.9923 84.3811 73.0827 84.5169 73.1374C84.8759 73.3179 85.2721 73.4119 85.6739 73.4119C86.0756 73.4119 86.4718 73.3179 86.8308 73.1374C86.9654 73.081 87.0827 72.99 87.1709 72.8736C87.259 72.7573 87.3148 72.6197 87.3327 72.4748L87.2524 72.4497Z" fill="#E0E0E0"/>
<path d="M106.753 107.687L108.961 106.413L109.835 105.348L107.626 106.623L106.753 107.687Z" fill="#F08C51"/>
<path opacity="0.4" d="M106.753 107.687L108.961 106.413L109.835 105.348L107.626 106.623L106.753 107.687Z" fill="black"/>
<path d="M112.758 111.156L114.966 109.881L116.813 108.245L114.605 109.52L112.758 111.156Z" fill="#F08C51"/>
<path opacity="0.4" d="M112.758 111.156L114.966 109.881L116.813 108.245L114.605 109.52L112.758 111.156Z" fill="black"/>
<path d="M131.561 115.563C132.084 116.264 132.4 117.096 132.474 117.967C131.956 117.264 131.64 116.433 131.561 115.563ZM136.695 115.628C135.953 110.569 133.237 105.59 129.995 103.693C128.439 102.794 126.983 102.764 125.849 103.437L123.771 104.636L123.651 104.707C123.558 104.757 123.469 104.814 123.385 104.877C123.207 104.994 123.039 105.125 122.883 105.269L122.813 105.334C122.747 105.399 122.682 105.475 122.622 105.545C122.562 105.615 122.466 105.726 122.401 105.816C122.251 106.014 122.115 106.222 121.994 106.438C121.934 106.549 121.869 106.664 121.814 106.785L103.649 96.2996L101.441 97.5695V98.9798L101.632 99.0852L101.807 99.1906V99.4868L101.441 99.6976V100.516L104.111 106.162L106.751 107.668L107.625 106.604L109.953 107.999L111.289 110.288L112.764 111.136L114.606 109.5L116.87 110.81L117.633 113.947L121.427 116.14C121.62 116.94 121.86 117.728 122.145 118.499L122.23 118.745C123.495 122.058 125.503 124.899 127.751 126.209C128.025 126.366 128.31 126.502 128.605 126.615C128.761 126.677 128.92 126.731 129.081 126.776C129.22 126.815 129.361 126.847 129.503 126.871C129.948 126.954 130.404 126.954 130.848 126.871L131.034 126.826C131.122 126.811 131.208 126.786 131.29 126.751L131.486 126.675C131.557 126.649 131.625 126.617 131.691 126.58L131.877 126.485L131.972 126.43L132.018 126.404L134.101 125.205C135.777 124.231 136.866 121.772 136.866 118.294C136.868 117.396 136.803 116.501 136.67 115.613L136.695 115.628Z" fill="#F08C51"/>
<path d="M130.887 119.829C130.019 119.327 129.311 117.821 129.311 116.491C129.311 115.161 130.019 114.483 130.887 114.985C131.756 115.487 132.468 116.993 132.468 118.328C132.468 119.663 131.761 120.331 130.887 119.829ZM134.466 116.903C133.723 111.843 131.003 106.839 127.76 104.967C126.255 104.104 124.874 104.038 123.745 104.636L123.625 104.706C123.532 104.756 123.443 104.813 123.359 104.877C123.181 104.993 123.013 105.124 122.857 105.268L122.786 105.333C122.721 105.399 122.656 105.474 122.596 105.544C122.535 105.615 122.44 105.725 122.375 105.815C122.225 106.013 122.089 106.221 121.968 106.438C121.908 106.548 121.843 106.664 121.788 106.784C121.462 107.467 121.225 108.189 121.085 108.932L101.445 97.5688V98.9792L101.636 99.0846L101.811 99.19V99.4861L101.445 99.6969V100.515L104.115 106.162L106.755 107.667L107.629 106.603L109.957 107.999L111.292 110.287L112.768 111.136L114.61 109.499L116.874 110.809L117.637 113.946L121.431 116.14C121.624 116.939 121.864 117.727 122.149 118.499L122.234 118.745C123.499 122.057 125.507 124.898 127.755 126.208C128.029 126.365 128.314 126.501 128.609 126.615C128.765 126.676 128.924 126.73 129.085 126.775C129.224 126.814 129.365 126.846 129.507 126.871C129.952 126.953 130.408 126.953 130.852 126.871L131.038 126.825C131.126 126.81 131.212 126.785 131.294 126.75L131.49 126.675C131.56 126.648 131.629 126.616 131.695 126.579L131.881 126.484L131.976 126.429L132.022 126.404C133.628 125.4 134.662 122.966 134.662 119.568C134.66 118.676 134.595 117.785 134.466 116.903Z" fill="#F08C51"/>
<path opacity="0.4" d="M132.469 118.308C132.469 119.653 131.762 120.316 130.893 119.814C130.025 119.312 129.312 117.806 129.312 116.476C129.312 115.146 130.02 114.468 130.893 114.97C131.152 115.122 131.379 115.323 131.561 115.563C131.638 116.433 131.954 117.265 132.474 117.967C132.48 118.081 132.478 118.195 132.469 118.308Z" fill="black"/>
<path opacity="0.4" d="M136.876 118.308C136.876 121.787 135.787 124.246 134.11 125.22L132.027 126.419C133.634 125.416 134.667 122.981 134.667 119.583C134.665 118.686 134.598 117.791 134.467 116.903C133.724 111.844 131.003 106.84 127.761 104.968C126.255 104.104 124.875 104.039 123.746 104.636L125.824 103.437C126.978 102.764 128.414 102.794 129.97 103.693C133.212 105.575 135.927 110.594 136.67 115.613C136.806 116.505 136.875 117.406 136.876 118.308Z" fill="white"/>
<path d="M134.667 119.584C134.667 122.982 133.633 125.406 132.027 126.42L134.11 125.221C135.786 124.247 136.875 121.788 136.875 118.309C136.875 118.179 136.875 118.048 136.875 117.923L134.672 119.198C134.662 119.323 134.667 119.454 134.667 119.584Z" fill="#F08C51"/>
<path opacity="0.1" d="M134.667 119.584C134.667 122.982 133.633 125.406 132.027 126.42L134.11 125.221C135.786 124.247 136.875 121.788 136.875 118.309C136.875 118.179 136.875 118.048 136.875 117.923L134.672 119.198C134.662 119.323 134.667 119.454 134.667 119.584Z" fill="black"/>
<path opacity="0.15" d="M121.191 110.377V111.095L101.441 99.6966L101.807 99.4858V99.1847L121.191 110.377Z" fill="black"/>
<path opacity="0.15" d="M121.191 110.68V111.097L101.441 99.6982L101.807 99.4874V99.4824L121.191 110.68Z" fill="black"/>
<path opacity="0.15" d="M129.786 125.24C129.038 125.22 128.309 125.001 127.673 124.608C124.45 122.746 121.83 117.214 121.83 112.276C121.83 109.395 122.704 107.256 124.224 106.363C125.288 105.751 126.543 105.826 127.858 106.584C131.076 108.446 133.696 113.977 133.696 118.916C133.696 121.797 132.822 123.935 131.301 124.829C130.842 125.099 130.319 125.242 129.786 125.24ZM125.77 106.323C125.302 106.322 124.841 106.445 124.435 106.679C123.05 107.477 122.227 109.57 122.227 112.276C122.227 117.099 124.736 122.485 127.883 124.286C129.078 124.979 130.202 125.054 131.146 124.512C132.531 123.714 133.354 121.621 133.354 118.916C133.354 114.093 130.845 108.702 127.698 106.905C127.11 106.541 126.436 106.34 125.745 106.323H125.77Z" fill="black"/>
<path opacity="0.5" d="M121.813 106.785C121.487 107.467 121.251 108.189 121.11 108.933L101.445 97.5695L103.653 96.2996L121.813 106.785Z" fill="white"/>
<path d="M196.81 162.291C196.886 162.978 196.981 164.906 200.474 165.387C203.968 165.869 206.166 164.71 207.1 163.028C208.033 161.347 207.817 159.977 207.963 158.421C208.108 156.865 209.398 156.037 209.77 155.234C210.312 154.054 209.519 152.222 209.519 152.222L196.81 162.291Z" fill="#263238"/>
<path d="M171.295 156.84C171.213 157.122 171.191 157.417 171.23 157.707C171.269 157.998 171.368 158.277 171.521 158.527C172.303 159.145 173.203 159.598 174.166 159.857C175.129 160.116 176.135 160.176 177.122 160.032C179.254 159.742 181.284 158.945 183.045 157.709C184.395 156.804 185.993 156.343 187.617 156.389C189.299 156.333 190.528 155.962 190.659 155.52C190.88 154.742 190.88 154.255 190.513 154.275L171.295 156.84Z" fill="#263238"/>
<path d="M208.684 149.532C208.248 152.719 202.069 152.463 202.571 149.919L201.472 142.184L208.463 142.4L208.684 149.532Z" fill="#FFA8A7"/>
<path d="M197.042 160.724C197.353 160.147 198.251 159.324 198.648 158.807C200.743 156.14 202.006 152.916 202.282 149.536C202.282 149.351 202.317 148.989 202.508 148.874C202.698 148.758 202.884 148.919 203.085 149.009C203.431 149.156 203.796 149.25 204.169 149.29C205.404 149.431 206.774 149.135 207.08 149.175C207.386 149.215 207.396 149.953 207.376 150.756C207.818 150.48 207.964 149.928 208.355 149.607C208.571 149.431 208.666 149.426 208.661 149.14C208.661 148.954 208.661 148.783 208.661 148.598C208.982 148.507 209.248 149.722 209.509 150.65C209.811 151.73 210.187 152.944 209.765 154.038C209.492 154.635 209.155 155.2 208.762 155.725C208.094 156.637 207.66 157.698 207.497 158.817C207.447 159.319 207.497 159.82 207.416 160.292C207.301 161.113 206.952 161.884 206.413 162.512C205.873 163.141 205.164 163.602 204.37 163.841C202.237 164.503 199.04 164.398 197.162 162.912C196.51 162.395 196.731 161.286 197.042 160.724Z" fill="#37474F"/>
<path d="M189.09 149C187.393 150.315 185.356 151.088 183.273 150.14L182.771 137.125L189.798 138.385L189.09 149Z" fill="#FFA8A7"/>
<path d="M172.717 154.591C173.184 154.441 173.641 154.275 174.092 154.089C175.354 153.576 176.573 152.961 177.736 152.252C178.238 151.941 178.74 151.615 179.242 151.249C179.744 150.882 180.246 150.486 180.748 150.084C181.009 149.855 181.246 149.599 181.456 149.321C181.878 148.803 182.232 148.233 182.51 147.625C182.551 147.481 182.644 147.358 182.771 147.278C182.856 147.249 182.947 147.242 183.035 147.26C183.124 147.278 183.206 147.319 183.272 147.379C183.393 147.477 183.523 147.565 183.659 147.64L184.071 147.811C184.51 147.99 184.973 148.103 185.446 148.147C187.223 148.302 187.278 147.946 187.353 148.518C187.37 148.732 187.37 148.947 187.353 149.161C188.292 149.005 189.029 148.704 189.07 148.348L189.18 147.213C190.114 147.128 190.184 148.799 190.485 150.676C190.731 152.182 191.097 153.291 190.676 154.411C189.265 155.64 186.776 155.344 185.36 155.575C183.353 155.906 182.414 157.392 179.629 158.356C175.111 159.912 172.296 158.12 171.452 157.352C170.905 156.383 170.795 155.204 172.717 154.591Z" fill="#37474F"/>
<path d="M206.71 72.0366C207.067 77.5577 207.714 85.6436 207.94 92.0229C208.361 104.009 208.196 117.676 208.196 117.676C208.866 120.189 209.298 122.76 209.486 125.355C209.772 133.014 209.722 150.21 209.722 150.21C209.722 150.21 206.545 153.407 201.796 150.897C201.796 150.897 197.585 126.806 196.411 119.237C195.287 112.034 193.093 97.6544 193.093 97.6544L192.089 118.092C192.851 121.304 193.104 124.615 192.837 127.905C192.581 131.418 190.579 148.739 190.579 148.739C188.752 150.451 183.431 149.517 182.267 148.157C182.267 148.157 180.405 122.559 180.194 118.855C179.747 110.86 178.558 81.041 179.155 76.4133C179.752 71.7857 206.71 72.0366 206.71 72.0366Z" fill="#263238"/>
<path d="M193.096 97.6334L191.701 88.4082C191.701 88.4082 187.871 87.6854 185.07 85.6075C185.07 85.6075 186.159 88.0719 190.396 89.8286L191.791 98.4214L192.122 118.071L193.096 97.6334Z" fill="black"/>
<path d="M200.921 35.0207C201.177 36.0597 202.928 35.899 203.711 35.7033C204.176 35.6057 204.588 35.3415 204.871 34.9606C205.154 34.5796 205.288 34.1082 205.247 33.6354C205.643 33.5295 206 33.3117 206.276 33.008C206.461 32.7632 206.567 32.4676 206.58 32.1607C206.592 31.8539 206.511 31.5506 206.346 31.2915C206.664 31.0653 206.914 30.756 207.068 30.3975C207.222 30.039 207.274 29.645 207.22 29.2587C207.112 28.6995 206.805 28.1983 206.356 27.8483C205.922 27.4963 205.38 27.3033 204.82 27.3012C204.64 27.3012 204.459 27.6626 204.72 27.6927C205.127 27.7716 205.51 27.9434 205.839 28.1947C206.182 28.4345 206.447 28.7695 206.602 29.1583C206.699 29.4671 206.698 29.7979 206.602 30.1065C206.505 30.4151 206.316 30.6867 206.06 30.8849C205.968 30.7699 205.866 30.664 205.754 30.5687C205.405 30.2564 204.947 30.0942 204.479 30.117C204.306 30.1127 204.136 30.1576 203.987 30.2465C203.839 30.3353 203.719 30.4645 203.641 30.6189C203.52 31.0104 203.927 31.3417 204.228 31.5123C204.447 31.6359 204.689 31.7115 204.939 31.734C205.189 31.7565 205.442 31.7254 205.679 31.6428C205.718 31.6299 205.757 31.6149 205.794 31.5976C205.821 31.6498 205.844 31.7034 205.864 31.7582C206.135 32.476 205.699 32.9227 205.112 33.1235C204.755 32.3856 203.791 31.8486 203.019 32.2351C202.92 32.2779 202.835 32.3443 202.768 32.4284C202.702 32.5126 202.658 32.6118 202.64 32.7172C202.621 32.8226 202.629 32.9309 202.663 33.0325C202.697 33.134 202.755 33.2256 202.833 33.2991C203.154 33.603 203.58 33.7718 204.022 33.7709C204.225 33.7858 204.428 33.7858 204.63 33.7709C204.674 34.0926 204.599 34.4194 204.419 34.6894C204.237 34.8952 204.012 35.0579 203.759 35.1656C203.506 35.2732 203.233 35.3232 202.958 35.3118C202.335 35.3618 201.717 35.1654 201.237 34.7647C201.091 34.6392 200.88 34.8651 200.921 35.0207ZM205.503 31.166C205.34 31.2124 205.168 31.2221 205.001 31.1943C204.833 31.1666 204.674 31.102 204.534 31.0054C204.324 30.8648 204.088 30.6591 204.464 30.634C204.667 30.6363 204.866 30.6855 205.046 30.7779C205.226 30.8702 205.383 31.003 205.503 31.166ZM204.454 33.2489C204.241 33.2578 204.029 33.2375 203.822 33.1887C203.671 33.1536 203.014 32.8173 203.35 32.6868C203.606 32.5713 204.058 32.8273 204.238 32.9879C204.321 33.065 204.394 33.1528 204.454 33.2489Z" fill="#263238"/>
<path d="M202.138 15.6056C202.248 15.6211 202.357 15.6429 202.464 15.6708C202.388 15.3396 202.425 14.9922 202.571 14.6851C202.717 14.378 202.962 14.1292 203.267 13.9794C203.657 13.8229 204.093 13.8245 204.482 13.9837C204.871 14.143 205.182 14.4475 205.35 14.8326L203.077 15.8716C203.815 16.1345 204.432 16.6597 204.808 17.3472C205.431 18.6321 204.608 21.3625 203.779 24.7253C203.313 26.8462 202.7 28.9324 201.947 30.9692C201.566 31.973 200.878 31.973 200.878 31.973V28.6152L201.024 25.8296C201.024 25.8296 199.237 23.3852 199.041 21.3826C198.785 18.8078 199.327 17.7538 199.327 17.7538L202.138 15.6056Z" fill="#263238"/>
<path d="M189.781 12.7193C190.903 12.7213 191.999 13.0561 192.931 13.6815C193.863 14.3068 194.588 15.1944 195.015 16.2321C195.442 17.2698 195.552 18.4109 195.33 19.511C195.109 20.611 194.566 21.6207 193.77 22.412C192.975 23.2034 191.962 23.741 190.861 23.9568C189.76 24.1725 188.619 24.0567 187.584 23.6241C186.548 23.1915 185.665 22.4614 185.044 21.5263C184.424 20.5912 184.095 19.493 184.099 18.3709C184.101 17.6267 184.249 16.8902 184.536 16.2035C184.823 15.5167 185.242 14.8932 185.769 14.3684C186.297 13.8436 186.923 13.4278 187.611 13.1449C188.299 12.8619 189.036 12.7173 189.781 12.7193Z" fill="#263238"/>
<path d="M200.921 25.3878C201.594 25.9701 202.141 24.4643 202.708 23.8821C203.275 23.2999 205.112 22.4918 206.026 24.4292C206.939 26.3666 205.183 29.0819 203.802 29.7194C201.795 30.6579 200.881 28.6252 200.881 28.6252V37.0323C198.758 40.8568 194.166 39.9634 191.992 40.5005C191.668 39.5228 191.668 38.4666 191.992 37.489V34.7536C191.078 34.9291 190.144 34.9781 189.217 34.8991C187.38 34.608 186.396 33.0972 185.849 31.1097C184.966 27.9175 184.78 22.552 186.01 16.3534C188.067 14.7673 195.019 15.0283 199.32 17.7387C199.019 23.2597 200.249 24.8056 200.921 25.3878Z" fill="#FFA8A7"/>
<path d="M191.996 34.7545C191.996 34.7545 196.092 33.9465 197.517 33.1886C198.37 32.758 199.071 32.0767 199.525 31.2361C199.306 32.0743 198.92 32.8596 198.39 33.5449C197.341 34.88 192.001 35.8487 192.001 35.8487L191.996 34.7545Z" fill="#F28F8F"/>
<path d="M183.203 22.0707C183.238 22.3946 183.369 22.7006 183.579 22.9491C183.649 23.044 183.7 23.1513 183.73 23.2653C183.836 24.0668 184.003 24.8588 184.232 25.6343C184.417 26.1491 184.758 26.5931 185.208 26.9037C185.658 27.2143 186.195 27.376 186.741 27.3659C187.03 27.3799 187.32 27.3614 187.605 27.3107C187.626 27.3141 187.648 27.3141 187.67 27.3107C187.92 27.2613 188.16 27.1733 188.383 27.0497H188.423L188.488 27.0096L188.558 26.9543C188.585 26.9423 188.609 26.9253 188.629 26.9042C188.659 26.8886 188.686 26.8683 188.709 26.8439L188.779 26.7737L188.92 26.6381C189.158 26.3742 189.352 26.0744 189.497 25.7498C189.883 24.9316 189.808 23.7722 190.41 23.6568C190.435 23.6591 190.461 23.6591 190.486 23.6568H190.566C191.389 23.6869 191.269 24.9417 191.71 25.8501C191.955 26.4253 192.37 26.9117 192.899 27.2437C193.429 27.5758 194.047 27.7375 194.672 27.7072H194.898H195.083C195.226 27.6994 195.369 27.6826 195.51 27.657L195.645 27.6269L195.776 27.5918H195.856C196.03 27.5355 196.198 27.4633 196.358 27.376C196.413 27.3358 196.469 27.3057 196.524 27.2706C196.622 27.1957 196.716 27.1152 196.805 27.0296C197.04 26.7915 197.228 26.5103 197.357 26.2015C197.601 25.4418 197.781 24.6627 197.894 23.8726C197.92 23.7529 197.968 23.6389 198.035 23.5363C198.254 23.3065 198.399 23.0163 198.451 22.7031C198.465 22.5394 198.422 22.3759 198.331 22.2392C198.24 22.1025 198.106 22.0007 197.949 21.9503L197.518 21.88C196.117 21.6842 194.29 21.5738 193.191 21.8499C191.806 22.1962 191.319 22.6278 190.556 22.6027C189.793 22.5777 189.392 22.1008 188.092 21.6541C187.088 21.2928 185.351 21.2777 184.046 21.368C183.901 21.368 183.775 21.368 183.64 21.3982C183.424 21.358 183.183 21.6943 183.203 22.0707ZM192.212 23.1047C192.32 22.9748 192.456 22.8703 192.609 22.7985C192.633 22.7832 192.658 22.7697 192.684 22.7583H192.719C192.786 22.7332 192.851 22.7047 192.915 22.673C192.97 22.673 193.035 22.6329 193.096 22.6078C193.289 22.5366 193.487 22.4779 193.688 22.4321L193.924 22.3819C194.12 22.3468 194.325 22.3167 194.526 22.2966H194.672C195.992 22.2163 196.81 22.5425 197.101 22.7985C197.392 23.0545 197.241 24.3042 197.101 24.9166C197.101 24.9166 197.101 24.9517 197.101 24.9617C197.105 24.9782 197.105 24.9955 197.101 25.0119C197.087 25.0953 197.067 25.1775 197.041 25.2579C197.03 25.311 197.015 25.3631 196.996 25.4135C196.965 25.4988 196.935 25.5841 196.9 25.6745C196.892 25.7051 196.878 25.734 196.86 25.7598C196.856 25.7799 196.847 25.7987 196.835 25.815C196.835 25.815 196.835 25.8501 196.835 25.8702L196.795 25.9455C196.795 25.9756 196.765 26.0007 196.745 26.0258C196.731 26.0571 196.712 26.0859 196.689 26.1111C196.674 26.1414 196.655 26.17 196.634 26.1965C196.423 26.4854 196.14 26.7145 195.814 26.8614C195.487 27.0084 195.128 27.068 194.772 27.0347C194.407 27.0574 194.041 27.001 193.7 26.8694C193.359 26.7377 193.05 26.5338 192.795 26.2717C192.481 25.9116 192.268 25.4754 192.177 25.0069C192.027 24.2892 191.946 23.4761 192.212 23.1047ZM184.458 22.3116C184.551 22.2218 184.662 22.1533 184.784 22.1109L184.925 22.0557H185.01H185.085H185.135H185.211C185.312 22.035 185.414 22.0199 185.517 22.0105H185.682H185.778C185.804 22.0154 185.832 22.0154 185.858 22.0105C185.928 22.0056 185.999 22.0056 186.069 22.0105H186.219C186.423 22.0211 186.626 22.0429 186.827 22.0757C187.765 22.2313 188.744 22.6881 188.99 23.0796C189.236 23.4711 189.166 24.2691 189.03 24.9617C188.999 25.1166 188.957 25.2692 188.905 25.4185C188.901 25.4299 188.901 25.4422 188.905 25.4536C188.907 25.4703 188.907 25.4871 188.905 25.5038C188.905 25.5038 188.905 25.5038 188.905 25.5339C188.897 25.5528 188.889 25.5712 188.88 25.5891C188.88 25.6293 188.844 25.6644 188.824 25.6996C188.81 25.734 188.793 25.7675 188.774 25.7999V25.8301L188.734 25.9003L188.694 25.9555C188.475 26.2666 188.175 26.5113 187.826 26.6628C187.477 26.8142 187.093 26.8664 186.716 26.8138C186.366 26.8053 186.023 26.716 185.713 26.5528C184.789 26.0509 184.573 25.0069 184.468 24.5452C184.327 23.8023 184.172 22.5676 184.458 22.3116Z" fill="#263238"/>
<path d="M197.861 21.9052L203.884 23.2554C203.341 23.3954 202.856 23.7069 202.504 24.1438L197.856 23.2604L197.861 21.9052Z" fill="#263238"/>
<path d="M184.458 24.4358C184.563 24.9377 184.779 25.9766 185.703 26.4434C186.013 26.6066 186.356 26.6959 186.707 26.7044C187.083 26.7571 187.467 26.7048 187.816 26.5534C188.165 26.4019 188.465 26.1572 188.684 25.8461L188.724 25.7909L188.764 25.7207V25.6906C188.783 25.6581 188.8 25.6246 188.815 25.5902C188.815 25.555 188.85 25.5199 188.87 25.4797C188.879 25.4618 188.888 25.4434 188.895 25.4245C188.895 25.4245 188.895 25.4245 188.895 25.3944C188.897 25.3778 188.897 25.3609 188.895 25.3442C188.891 25.3328 188.891 25.3205 188.895 25.3091C188.947 25.1598 188.989 25.0072 189.02 24.8524C189.156 24.1597 189.231 23.3466 188.98 22.9702C188.729 22.5937 187.756 22.1169 186.817 21.9663C186.616 21.9335 186.413 21.9117 186.21 21.9011H186.059C185.989 21.8962 185.919 21.8962 185.848 21.9011C185.822 21.906 185.795 21.906 185.768 21.9011H185.673H185.507C185.404 21.9105 185.302 21.9256 185.201 21.9463H185.126H185.075H185H184.915L184.774 22.0015C184.652 22.0439 184.541 22.1124 184.448 22.2022C184.172 22.5686 184.328 23.8034 184.458 24.4358Z" fill="#37474F"/>
<path d="M192.177 24.9874C192.265 25.463 192.478 25.9065 192.794 26.2723C193.043 26.5328 193.344 26.7373 193.678 26.8723C194.012 27.0073 194.371 27.0697 194.731 27.0553C195.088 27.0887 195.447 27.029 195.773 26.8821C196.1 26.7352 196.382 26.506 196.594 26.2171C196.615 26.1906 196.633 26.162 196.649 26.1318C196.672 26.1066 196.69 26.0777 196.704 26.0465C196.704 26.0214 196.734 25.9963 196.754 25.9662L196.794 25.8909C196.794 25.8909 196.794 25.8557 196.794 25.8357C196.807 25.8194 196.815 25.8005 196.819 25.7804C196.838 25.7546 196.851 25.7257 196.86 25.6951C196.895 25.6048 196.925 25.5195 196.955 25.4341C196.975 25.3837 196.99 25.3316 197 25.2785C197.026 25.1981 197.046 25.1159 197.06 25.0326C197.065 25.0162 197.065 24.9988 197.06 24.9824C197.06 24.9824 197.06 24.9523 197.06 24.9372C197.196 24.3249 197.361 23.1002 197.06 22.8192C196.759 22.5381 195.951 22.2118 194.631 22.3172H194.485C194.285 22.3172 194.079 22.3674 193.883 22.4026L193.647 22.4528C193.446 22.4986 193.248 22.5573 193.055 22.6284C192.995 22.6284 192.93 22.6686 192.874 22.6937C192.811 22.7254 192.745 22.7539 192.679 22.779H192.643C192.617 22.7904 192.592 22.8038 192.568 22.8192C192.415 22.891 192.28 22.9955 192.172 23.1253C191.946 23.4767 192.026 24.2898 192.177 24.9874Z" fill="#37474F"/>
<path d="M184.618 11.9723C184.618 11.907 184.618 11.8368 184.643 11.7665C184.652 11.6368 184.699 11.5126 184.779 11.4101C185.055 11.124 185.607 11.8468 185.783 12.0124C185.971 12.1761 186.167 12.3302 186.37 12.4742C186.562 12.5696 186.746 12.6786 186.922 12.8004C186.799 12.1183 186.799 11.4197 186.922 10.7376C187.007 10.2858 187.133 9.23181 187.695 9.12641C188.026 9.05614 188.317 9.33722 188.563 9.5681C190.807 11.6661 193.738 10.6974 196.438 10.7827C198.702 10.853 201.427 11.7866 202.461 13.9749C202.928 14.9787 203.008 16.0378 202.085 16.7304C201.493 17.1821 200.91 17.1621 200.579 17.8798C200.499 18.0555 199.982 20.1936 200.288 20.1736C199.734 20.2301 199.177 20.0881 198.718 19.7729C198.258 19.4576 197.925 18.9896 197.778 18.452C197.723 18.2161 197.598 17.7895 197.548 17.5485C197.535 17.4779 197.508 17.4108 197.467 17.3516C197.427 17.2924 197.374 17.2426 197.313 17.2055C197.252 17.1685 197.183 17.1449 197.112 17.1366C197.041 17.1282 196.968 17.1352 196.9 17.157C196.212 17.3076 195.766 17.5887 195.118 17.7644C193.269 18.2961 191.325 18.411 189.427 18.1006C188.067 17.8426 186.82 17.1733 185.853 16.1833C185.362 15.6079 184.999 14.9353 184.786 14.2097C184.573 13.484 184.516 12.7216 184.618 11.9723Z" fill="#263238"/>
<path d="M193.438 20.7956L195.445 21.1017C195.48 20.833 195.41 20.5612 195.249 20.3432C195.088 20.1252 194.849 19.978 194.582 19.9323C194.45 19.9125 194.315 19.9192 194.186 19.952C194.057 19.9849 193.935 20.0432 193.828 20.1236C193.722 20.204 193.632 20.3048 193.565 20.4202C193.498 20.5356 193.455 20.6632 193.438 20.7956Z" fill="#263238"/>
<path d="M192.974 30.0218L191.303 30.4584C191.326 30.5698 191.372 30.6753 191.437 30.7686C191.502 30.8619 191.586 30.9411 191.682 31.0015C191.779 31.0619 191.886 31.1023 191.999 31.1202C192.111 31.1382 192.226 31.1333 192.337 31.1059C192.562 31.0423 192.754 30.894 192.873 30.692C192.992 30.4899 193.028 30.2498 192.974 30.0218Z" fill="#F28F8F"/>
<path d="M185.919 20.9114L187.927 20.6906C187.919 20.5589 187.884 20.4303 187.825 20.3124C187.765 20.1946 187.683 20.09 187.582 20.005C187.481 19.9201 187.364 19.8565 187.238 19.8182C187.111 19.7799 186.979 19.7676 186.848 19.7821C186.578 19.8161 186.331 19.9521 186.159 20.1621C185.986 20.3721 185.9 20.6402 185.919 20.9114Z" fill="#263238"/>
<path d="M190.787 23.6726L190.516 28.3555L187.906 27.6729L190.511 23.6174C190.606 23.6143 190.701 23.6332 190.787 23.6726Z" fill="#F28F8F"/>
<path d="M202.001 26.9246C202 27.1671 202.071 27.4043 202.205 27.6064C202.339 27.8084 202.529 27.9662 202.753 28.0597C202.977 28.1531 203.223 28.1781 203.461 28.1314C203.699 28.0847 203.918 27.9685 204.089 27.7974C204.261 27.6263 204.378 27.4081 204.426 27.1704C204.474 26.9327 204.45 26.6862 204.357 26.4622C204.265 26.2381 204.108 26.0465 203.906 25.9117C203.705 25.7769 203.468 25.705 203.225 25.705C203.065 25.7043 202.906 25.7354 202.757 25.7964C202.608 25.8574 202.473 25.9471 202.36 26.0604C202.246 26.1737 202.156 26.3084 202.094 26.4567C202.032 26.605 202.001 26.764 202.001 26.9246Z" fill="#263238"/>
<path d="M201.867 24.6904C201.972 24.3201 202.157 23.9775 202.409 23.6865C202.537 23.5644 202.689 23.4716 202.857 23.4144C203.024 23.3572 203.202 23.337 203.378 23.3553C203.378 23.3553 203.413 23.3954 203.378 23.4055C203.242 23.4858 203.147 23.531 203.011 23.6263C202.876 23.7177 202.751 23.8238 202.64 23.9425C202.541 24.0564 202.462 24.1852 202.404 24.324C202.332 24.4832 202.284 24.6524 202.263 24.8259C202.23 25.0991 202.27 25.3761 202.379 25.629C202.435 25.7691 202.513 25.8996 202.61 26.0154C202.714 26.1004 202.805 26.2002 202.881 26.3116C202.956 26.4672 202.74 26.7332 202.574 26.6428C202.261 26.4456 202.025 26.1459 201.907 25.7946C201.76 25.4436 201.746 25.0511 201.867 24.6904Z" fill="#263238"/>
<path d="M184.472 41.3642C182.775 42.4784 180.432 43.9239 179.859 45.4949C179.287 47.0659 177.636 56.1757 177.455 59.1119C178.959 59.8204 180.571 60.275 182.223 60.457L184.472 41.3642Z" fill="#455A64"/>
<path d="M204.512 37.0219C208.808 39.3809 213.045 42.9043 213.958 44.2595C213.958 44.2595 211.449 52.6264 209.235 56.5966C207.022 60.5667 205.837 72.3065 205.837 72.3065C205.837 72.3065 190.699 77.3256 185.956 77.7221C181.213 78.1187 180.611 76.101 180.611 76.101C180.611 76.101 180.511 62.9759 181.615 54.2175C182.719 45.4591 182.478 42.8541 184.486 41.3635C185.786 40.4048 191.387 37.9755 191.387 37.9755V40.4851C194.449 40.5453 204.512 37.0219 204.512 37.0219Z" fill="#37474F"/>
<path d="M190.21 41.8318C189.932 41.2654 189.82 40.6319 189.888 40.0048L191.153 39.0863V40.6773L190.21 41.8318Z" fill="#C8C8C8"/>
<path d="M192.67 40.8633L195.942 38.9962L198.402 40.9436L193.433 43.0065L192.67 40.8633Z" fill="#C8C8C8"/>
<path d="M200.881 33.469V34.1315C200.755 34.7589 199.521 36.2144 196.404 37.6097C193.287 39.0051 191.992 40.4958 191.992 40.4958C192.834 40.5183 193.667 40.6724 194.461 40.9525C195.882 41.4544 198.241 43.2613 198.913 43.2412C199.586 43.2212 200.515 41.3641 202.276 39.512C203.782 37.9561 204.515 37.0024 204.515 37.0024C204.515 37.0024 202.096 33.484 200.881 33.469Z" fill="#455A64"/>
<path d="M191.992 40.496C190.863 40.6215 189.804 41.4045 189.528 40.998C189.252 40.5914 190.211 36.812 191.982 35.6626L191.992 40.496Z" fill="#455A64"/>
<path d="M181.049 60.3019C181.049 60.3019 180.913 62.6458 180.878 63.4489C180.843 64.252 182.183 78.0044 182.183 78.0044L177.455 80.0121C177.455 80.0121 176.883 74.7118 176.697 71.7606C176.544 68.7213 176.68 65.6744 177.104 62.6609C177.475 60.1513 177.606 59.1876 177.606 59.1876C178.712 59.6763 179.866 60.0496 181.049 60.3019Z" fill="#F28F8F"/>
<path d="M177.835 86.7325C177.835 86.7325 177.835 86.9433 177.835 87.7364C177.953 89.0634 178.219 90.3731 178.628 91.6412C178.924 92.3841 179.632 94.0153 180.003 94.206C180.354 94.4018 180.761 94.4742 181.158 94.4118C181.906 94.3415 182.689 94.728 183.396 94.3867C183.67 94.2373 183.96 94.1178 184.26 94.0304C184.696 93.925 185.198 94.0555 185.59 93.8246C185.841 93.679 185.996 93.408 186.242 93.2574C186.604 93.0366 187.08 93.1169 187.467 92.9412C187.619 92.8635 187.754 92.7558 187.863 92.6247C187.973 92.4936 188.055 92.3418 188.104 92.1783C188.325 91.5158 188.104 90.7679 187.974 90.1054C188.206 89.7793 188.324 89.386 188.31 88.9861C188.325 88.1285 188.225 87.2727 188.014 86.4414C187.848 85.9395 184.415 83.9871 184.415 83.9871L183.738 83.5403C182.297 83.2195 180.789 83.4619 179.522 84.2179C177.509 85.4978 177.835 86.7325 177.835 86.7325Z" fill="#FFA8A7"/>
<path d="M178.764 86.6378C177.856 88.1435 178.388 90.8589 178.393 90.889C178.108 89.8616 177.922 88.8096 177.835 87.747C177.835 86.9439 177.835 86.7432 177.835 86.7432C177.835 86.7432 177.509 85.4884 179.497 84.2336C180.764 83.4776 182.273 83.2351 183.713 83.556C183.713 83.556 179.672 85.117 178.764 86.6378Z" fill="#F28F8F"/>
<path d="M187.952 90.0896C187.632 89.1103 187.137 88.1972 186.491 87.3943C186.11 87.043 185.789 86.5963 186.17 86.7468C186.552 86.8974 187.084 86.9827 187.294 86.7167C187.505 86.4507 187.55 86.9125 187.294 87.2738C187.038 87.6352 187.254 87.9113 187.53 88.5035C187.742 89.0106 187.884 89.5442 187.952 90.0896Z" fill="#F28F8F"/>
<path d="M212.65 44.4255C214.08 44.9274 214.271 48.8423 213.96 52.3557C213.649 55.8691 210.908 64.1758 209.659 67.0669C208.258 70.3142 207.41 72.1864 206.476 73.2053C205.543 74.2242 203.59 75.0624 201.091 76.3573C198.832 77.5268 197.286 78.119 193.432 79.3136C189.085 80.6637 187.409 80.744 186.485 81.3915C185.562 82.039 185.301 83.4443 184.392 83.9713L183.715 83.5246C182.187 83.8916 180.728 84.5017 179.393 85.3315C178.795 85.7021 178.269 86.1763 177.837 86.7319V87.7357C177.837 87.7357 176.738 88.1975 175.804 86.23C174.871 84.2625 174.444 81.3112 175.518 80.0213C176.592 78.7314 179.995 76.9646 182.756 76.1013C185.516 75.238 186.887 74.3346 190.109 72.3872C193.542 70.3142 195.926 68.934 197.638 68.0004C198.285 67.624 198.722 67.1672 199.013 65.9928C199.244 65.0492 199.931 62.2585 200.353 60.1605C201.026 56.6521 202.536 46.0417 212.65 44.4255Z" fill="#FFA8A7"/>
<path d="M213.959 44.26C213.959 44.26 214.626 44.3755 214.717 47.1561C214.836 49.7871 214.71 52.4234 214.34 55.0311C213.974 57.1642 211.831 63.4633 211.831 63.4633C211.831 63.4633 205.672 65.4709 199.368 63.0768C199.368 63.0768 200.849 53.9921 201.406 51.5829C201.963 49.1738 209.768 41.7404 213.959 44.26Z" fill="#455A64"/>
<path d="M192.168 44.4402C191.816 46.6988 191.335 52.0643 191.335 59.6382C191.335 61.4952 188.624 65.2646 187.987 65.1843C187.349 65.104 186.18 61.5605 186.014 59.5026C186.27 54.5237 189.282 46.7992 190.597 44.1591L192.168 44.4402Z" fill="#EBEBEB"/>
<path opacity="0.15" d="M190.496 44.3749C190.525 44.3012 190.559 44.2291 190.596 44.1591L192.167 44.4402L192.072 45.1027C191.481 45.0398 190.927 44.7841 190.496 44.3749Z" fill="black"/>
<path d="M192.668 40.8632C192.174 40.7472 191.669 40.6865 191.162 40.6826C190.762 40.9941 190.434 41.3877 190.199 41.837C190.154 42.6306 190.286 43.4243 190.585 44.1608C190.811 44.3193 191.068 44.4265 191.339 44.4751C191.611 44.5236 191.889 44.5123 192.156 44.4419C192.709 44.0978 193.149 43.5986 193.421 43.0064C193.459 42.2211 193.189 41.452 192.668 40.8632Z" fill="#EBEBEB"/>
</svg>
