<svg width="14" height="17" viewBox="0 0 14 17" fill="none" xmlns="http://www.w3.org/2000/svg">
<path fill-rule="evenodd" clip-rule="evenodd" d="M0 2.5501C0 1.14172 1.14172 0 2.5501 0H11.0504C12.4588 0 13.6005 1.14172 13.6005 2.5501C13.6005 3.66043 12.8909 4.60502 11.9005 4.95509V17.0007H1.70007V4.95509C0.709614 4.60502 0 3.66043 0 2.5501ZM3.40013 5.1002H10.2004V15.3006H3.40013V13.6005H4.25017C6.12801 13.6005 7.6503 12.0782 7.6503 10.2004C7.6503 8.32256 6.12801 6.80027 4.25017 6.80027H3.40013V5.1002ZM3.40013 8.50033V11.9005H4.25017C5.18909 11.9005 5.95023 11.1393 5.95023 10.2004C5.95023 9.26148 5.18909 8.50033 4.25017 8.50033H3.40013ZM11.0504 3.40013H2.5501C2.08064 3.40013 1.70007 3.01956 1.70007 2.5501C1.70007 2.08064 2.08064 1.70007 2.5501 1.70007H11.0504C11.5199 1.70007 11.9005 2.08064 11.9005 2.5501C11.9005 3.01956 11.5199 3.40013 11.0504 3.40013Z" fill="#57534E"/>
</svg>
