<svg width="15" height="15" viewBox="0 0 15 15" fill="none" xmlns="http://www.w3.org/2000/svg">
<path fill-rule="evenodd" clip-rule="evenodd" d="M13.8633 1.13632C12.3482 -0.378775 9.89179 -0.378771 8.3767 1.13632L2.25483 7.25819C0.811087 8.70194 0 10.6601 0 12.7018V14.9997H2.29782C4.33958 14.9997 6.29772 14.1886 7.74146 12.7448L13.8633 6.62295C15.3784 5.10786 15.3784 2.65141 13.8633 1.13632ZM9.77368 2.17898C10.6251 1.50326 11.8666 1.55894 12.6536 2.34602C13.4407 3.13309 13.4964 4.3746 12.8207 5.22597L9.77368 2.17898ZM8.55386 3.37856L3.46453 8.46789C2.34162 9.5908 1.71077 11.1138 1.71077 12.7018V13.2889H2.29782C3.88585 13.2889 5.40885 12.658 6.53176 11.5351L11.6211 6.44579L8.55386 3.37856Z" fill="#A8A29E"/>
</svg>
