<svg width="17" height="14" viewBox="0 0 17 14" fill="none" xmlns="http://www.w3.org/2000/svg">
<path fill-rule="evenodd" clip-rule="evenodd" d="M6.80027 0C3.04458 0 0 3.04458 0 6.80027C0 10.5559 3.04458 13.6005 6.80027 13.6005H10.2004C13.9561 13.6005 17.0007 10.5559 17.0007 6.80027C17.0007 3.04458 13.9561 0 10.2004 0H6.80027ZM3.73997 2.71987C4.5924 2.07952 5.65202 1.70007 6.80027 1.70007H10.2004C11.3486 1.70007 12.4083 2.07952 13.2607 2.71987C12.7801 3.36075 12.1734 3.90004 11.4754 4.30302C10.5709 4.82526 9.54482 5.1002 8.50033 5.1002C7.45585 5.1002 6.42977 4.82526 5.52522 4.30302C4.82723 3.90004 4.22058 3.36076 3.73997 2.71987ZM2.55798 3.96822C2.01607 4.77836 1.70007 5.75241 1.70007 6.80027C1.70007 9.61703 3.9835 11.9005 6.80027 11.9005H10.2004C13.0172 11.9005 15.3006 9.61703 15.3006 6.80027C15.3006 5.75241 14.9846 4.77836 14.4427 3.96822C13.8555 4.69236 13.1387 5.3058 12.3255 5.77532C11.1625 6.44677 9.84324 6.80027 8.50033 6.80027C7.15742 6.80027 5.83818 6.44677 4.67518 5.77532C3.86194 5.3058 3.14514 4.69236 2.55798 3.96822Z" fill="#F08C51"/>
</svg>
