<svg width="41" height="38" viewBox="0 0 41 38" fill="none" xmlns="http://www.w3.org/2000/svg">
<path d="M18.4072 22V10H22.4072V22H18.4072Z" fill="#F43F5E"/>
<path d="M17.4072 27C17.4072 25.3431 18.7504 24 20.4072 24C22.0641 24 23.4072 25.3431 23.4072 27C23.4072 28.6569 22.0641 30 20.4072 30C18.7504 30 17.4072 28.6569 17.4072 27Z" fill="#F43F5E"/>
<path fill-rule="evenodd" clip-rule="evenodd" d="M29.0675 5C25.2185 -1.66666 15.596 -1.66667 11.747 5L1.35467 23C-2.49434 29.6667 2.31691 38 10.0149 38H30.7995C38.4975 38 43.3088 29.6667 39.4598 23L29.0675 5ZM15.2111 7C17.5205 3 23.294 3 25.6034 7L35.9957 25C38.3051 29 35.4183 34 30.7995 34H10.0149C5.39611 34 2.50937 29 4.81877 25L15.2111 7Z" fill="#F43F5E"/>
</svg>
