<svg width="12" height="11" viewBox="0 0 12 11" fill="none" xmlns="http://www.w3.org/2000/svg">
<path d="M5.32874 6.36883V2.89492H6.48671V6.36883H5.32874Z" fill="#F43F5E"/>
<path d="M5.03925 7.81629C5.03925 7.33664 5.42808 6.94781 5.90773 6.94781C6.38737 6.94781 6.7762 7.33664 6.7762 7.81629C6.7762 8.29593 6.38737 8.68476 5.90773 8.68476C5.42808 8.68476 5.03925 8.29593 5.03925 7.81629Z" fill="#F43F5E"/>
<path fill-rule="evenodd" clip-rule="evenodd" d="M8.4148 1.44746C7.30055 -0.482486 4.51491 -0.482487 3.40065 1.44746L0.392165 6.65832C-0.72209 8.58826 0.670727 11.0007 2.89924 11.0007H8.91622C11.1447 11.0007 12.5375 8.58827 11.4233 6.65832L8.4148 1.44746ZM4.40348 2.02644C5.07204 0.868476 6.74342 0.868476 7.41197 2.02644L10.4205 7.2373C11.089 8.39527 10.2533 9.84273 8.91622 9.84273H2.89924C1.56213 9.84273 0.726441 8.39527 1.39499 7.2373L4.40348 2.02644Z" fill="#F43F5E"/>
</svg>
