<svg width="18" height="16" viewBox="0 0 18 16" fill="none" xmlns="http://www.w3.org/2000/svg">
<path d="M7.75009 9.26278V4.21035H9.43423V9.26278H7.75009Z" fill="#57534E"/>
<path d="M7.32906 11.368C7.32906 10.6704 7.89457 10.1048 8.59216 10.1048C9.28976 10.1048 9.85527 10.6704 9.85527 11.368C9.85527 12.0655 9.28976 12.6311 8.59216 12.6311C7.89457 12.6311 7.32906 12.0655 7.32906 11.368Z" fill="#57534E"/>
<path fill-rule="evenodd" clip-rule="evenodd" d="M12.2384 2.10518C10.6179 -0.701724 6.56646 -0.701727 4.94589 2.10518L0.570362 9.68381C-1.0502 12.4907 0.975501 15.9993 4.21663 15.9993H12.9677C16.2088 15.9993 18.2345 12.4907 16.614 9.68381L12.2384 2.10518ZM6.4044 2.94725C7.37674 1.26311 9.80759 1.26311 10.7799 2.94725L15.1555 10.5259C16.1278 12.21 14.9124 14.3152 12.9677 14.3152H4.21663C2.27196 14.3152 1.05653 12.21 2.02887 10.5259L6.4044 2.94725Z" fill="#57534E"/>
</svg>
