<svg width="17" height="12" viewBox="0 0 17 12" fill="none" xmlns="http://www.w3.org/2000/svg">
<path d="M6.80006 5.95023C6.80006 5.01131 7.5612 4.25017 8.50012 4.25017C9.43905 4.25017 10.2002 5.01131 10.2002 5.95023C10.2002 6.88915 9.43905 7.6503 8.50012 7.6503C7.5612 7.6503 6.80006 6.88915 6.80006 5.95023Z" fill="#D6D3D1"/>
<path fill-rule="evenodd" clip-rule="evenodd" d="M0 5.95023C0 2.66401 2.66401 0 5.95023 0H11.0504C14.3367 0 17.0007 2.66401 17.0007 5.95023C17.0007 9.23646 14.3367 11.9005 11.0504 11.9005H5.95023C2.66401 11.9005 0 9.23646 0 5.95023ZM8.50012 2.5501C6.62228 2.5501 5.09999 4.07239 5.09999 5.95023C5.09999 7.82807 6.62228 9.35036 8.50012 9.35036C10.378 9.35036 11.9003 7.82807 11.9003 5.95023C11.9003 4.07239 10.378 2.5501 8.50012 2.5501Z" fill="#D6D3D1"/>
</svg>
