<svg width="39" height="26" viewBox="0 0 39 26" fill="none" xmlns="http://www.w3.org/2000/svg">
<path d="M1.51876 0.407321C2.97109 -0.431185 4.82818 0.0664214 5.66669 1.51876C5.9332 1.98036 6.31652 2.36368 6.77812 2.63019C7.23973 2.8967 7.76335 3.037 8.29637 3.037C8.82939 3.037 9.35301 2.8967 9.81462 2.63019C10.2762 2.36368 10.6595 1.98036 10.9261 1.51876C11.7646 0.0664214 13.6217 -0.431185 15.074 0.40732C16.5263 1.24583 17.0239 3.10292 16.1854 4.55525C15.3859 5.94007 14.2359 7.09003 12.8511 7.88956C11.4663 8.68908 9.89542 9.11 8.29637 9.11C6.69732 9.11 5.12644 8.68908 3.74163 7.88956C2.35681 7.09003 1.20685 5.94007 0.407321 4.55525C-0.431185 3.10292 0.0664213 1.24583 1.51876 0.407321Z" fill="#DF4024"/>
<path d="M23.7864 0.407321C25.2387 -0.431185 27.0958 0.0664214 27.9343 1.51876C28.2008 1.98036 28.5842 2.36368 29.0458 2.63019C29.5074 2.8967 30.031 3.037 30.564 3.037C31.097 3.037 31.6207 2.8967 32.0823 2.63019C32.5439 2.36368 32.9272 1.98036 33.1937 1.51876C34.0322 0.0664214 35.8893 -0.431185 37.3416 0.40732C38.794 1.24583 39.2916 3.10292 38.4531 4.55525C37.6535 5.94007 36.5036 7.09003 35.1188 7.88956C33.7339 8.68908 32.1631 9.11 30.564 9.11C28.965 9.11 27.3941 8.68908 26.0093 7.88956C24.6245 7.09003 23.4745 5.94007 22.675 4.55525C21.8365 3.10292 22.3341 1.24583 23.7864 0.407321Z" fill="#DF4024"/>
<path d="M19.4304 13.1587C16.772 13.1587 14.1397 13.6823 11.6836 14.6996C9.22761 15.7169 6.99601 17.208 5.11624 19.0878C3.95833 20.2457 3.61195 21.9871 4.2386 23.5C4.86526 25.0129 6.34155 25.9993 7.97908 25.9993L30.8818 25.9993C32.5193 25.9993 33.9956 25.0129 34.6223 23.5C35.2489 21.9871 34.9025 20.2457 33.7446 19.0878C31.8649 17.208 29.6332 15.7169 27.1772 14.6996C24.7212 13.6823 22.0888 13.1587 19.4304 13.1587Z" fill="#DF4024"/>
</svg>
