<svg width="32" height="27" viewBox="0 0 32 27" fill="none" xmlns="http://www.w3.org/2000/svg">
<path d="M10 5C10 2.23858 7.76143 0 5 0C2.23858 0 0 2.23858 0 5C0 7.76142 2.23858 10 5 10C7.76143 10 10 7.76142 10 5Z" fill="#D6D3D1"/>
<path d="M8.34633 15.5224C10.7728 14.5173 13.3736 14 16 14C18.6264 14 21.2272 14.5173 23.6537 15.5224C26.0802 16.5275 28.285 18.0007 30.1421 19.8579C31.7042 21.42 31.7042 23.9526 30.1421 25.5147C28.58 27.0768 26.0474 27.0768 24.4853 25.5147C23.371 24.4004 22.0481 23.5165 20.5922 22.9134C19.1363 22.3104 17.5759 22 16 22C14.4241 22 12.8637 22.3104 11.4078 22.9135C9.95189 23.5165 8.62902 24.4004 7.51472 25.5147C5.95262 27.0768 3.41996 27.0768 1.85786 25.5147C0.295764 23.9526 0.295763 21.42 1.85786 19.8579C3.71503 18.0007 5.91982 16.5275 8.34633 15.5224Z" fill="#D6D3D1"/>
<path d="M27 0C29.7614 0 32 2.23858 32 5C32 7.76142 29.7614 10 27 10C24.2386 10 22 7.76142 22 5C22 2.23858 24.2386 0 27 0Z" fill="#D6D3D1"/>
</svg>
