<svg width="22" height="18" viewBox="0 0 22 18" fill="none" xmlns="http://www.w3.org/2000/svg">
<path d="M6.74498 3.37249C6.74498 1.50991 5.23506 0 3.37249 0C1.50991 0 0 1.50991 0 3.37249C0 5.23506 1.50991 6.74498 3.37249 6.74498C5.23506 6.74498 6.74498 5.23506 6.74498 3.37249Z" fill="#D6D3D1"/>
<path d="M5.62958 10.4698C7.26626 9.7919 9.02044 9.44297 10.792 9.44297C12.5635 9.44297 14.3177 9.7919 15.9543 10.4698C17.591 11.1478 19.0781 12.1414 20.3308 13.3941C21.3844 14.4477 21.3844 16.156 20.3308 17.2096C19.2772 18.2632 17.5689 18.2632 16.5153 17.2096C15.7637 16.458 14.8714 15.8618 13.8894 15.4551C12.9074 15.0483 11.8549 14.839 10.792 14.839C9.72905 14.839 8.67654 15.0483 7.69453 15.4551C6.71253 15.8618 5.82025 16.458 5.06866 17.2096C4.01503 18.2633 2.30675 18.2633 1.25312 17.2096C0.199492 16.156 0.199491 14.4477 1.25312 13.3941C2.50578 12.1414 3.9929 11.1478 5.62958 10.4698Z" fill="#D6D3D1"/>
<path d="M18.2114 0C20.074 0 21.5839 1.50991 21.5839 3.37249C21.5839 5.23506 20.074 6.74498 18.2114 6.74498C16.3489 6.74498 14.839 5.23506 14.839 3.37249C14.839 1.50991 16.3489 0 18.2114 0Z" fill="#D6D3D1"/>
</svg>
