<svg width="22" height="19" viewBox="0 0 22 19" fill="none" xmlns="http://www.w3.org/2000/svg">
<path d="M6.78595 3.39298C6.78595 1.51909 5.26686 0 3.39298 0C1.51909 0 0 1.51909 0 3.39298C0 5.26686 1.51909 6.78595 3.39298 6.78595C5.26686 6.78595 6.78595 5.26686 6.78595 3.39298Z" fill="#D6D3D1"/>
<path d="M21.715 3.39298C21.715 1.51909 20.196 0 18.3221 0C16.4482 0 14.9291 1.51909 14.9291 3.39298C14.9291 5.26686 16.4482 6.78595 18.3221 6.78595C20.196 6.78595 21.715 5.26686 21.715 3.39298Z" fill="#D6D3D1"/>
<path d="M10.8575 19.0007C9.07523 19.0007 7.3104 18.6496 5.66378 17.9676C4.01716 17.2855 2.521 16.2858 1.26073 15.0255C0.200704 13.9655 0.200704 12.2469 1.26074 11.1868C2.32077 10.1268 4.03942 10.1268 5.09945 11.1868C5.85561 11.943 6.7533 12.5428 7.74127 12.952C8.72925 13.3613 9.78815 13.5719 10.8575 13.5719C11.9269 13.5719 12.9858 13.3613 13.9738 12.952C14.9617 12.5428 15.8594 11.943 16.6156 11.1868C17.6756 10.1268 19.3943 10.1268 20.4543 11.1868C21.5143 12.2469 21.5143 13.9655 20.4543 15.0255C19.194 16.2858 17.6979 17.2855 16.0513 17.9676C14.4046 18.6496 12.6398 19.0007 10.8575 19.0007Z" fill="#D6D3D1"/>
</svg>
