<svg width="32" height="26" viewBox="0 0 32 26" fill="none" xmlns="http://www.w3.org/2000/svg">
<path d="M10 5C10 2.23858 7.76143 0 5 0C2.23858 0 0 2.23858 0 5C0 7.76143 2.23858 10 5 10C7.76143 10 10 7.76143 10 5Z" fill="#D6D3D1"/>
<path d="M32 5C32 2.23858 29.7614 0 27 0C24.2386 0 22 2.23858 22 5C22 7.76143 24.2386 10 27 10C29.7614 10 32 7.76143 32 5Z" fill="#D6D3D1"/>
<path d="M6 18C3.79086 18 2 19.7909 2 22C2 24.2091 3.79086 26 6 26H26C28.2091 26 30 24.2091 30 22C30 19.7909 28.2091 18 26 18H6Z" fill="#D6D3D1"/>
</svg>
