<svg width="39" height="27" viewBox="0 0 39 27" fill="none" xmlns="http://www.w3.org/2000/svg">
<path d="M1.5005 8.59808C2.93538 9.4265 4.77015 8.93488 5.59858 7.5C5.86188 7.04394 6.2406 6.66523 6.69665 6.40193C7.15271 6.13862 7.67004 6 8.19665 6C8.72326 6 9.2406 6.13862 9.69665 6.40193C10.1527 6.66523 10.5314 7.04394 10.7947 7.5C11.6232 8.93488 13.4579 9.4265 14.8928 8.59808C16.3277 7.76965 16.8193 5.93488 15.9909 4.5C15.201 3.13183 14.0648 1.99569 12.6967 1.20577C11.3285 0.415856 9.77648 0 8.19665 0C6.61682 0 5.06483 0.415856 3.69665 1.20577C2.32848 1.99569 1.19234 3.13183 0.402425 4.5C-0.426002 5.93488 0.0656229 7.76965 1.5005 8.59808Z" fill="#D6D3D1"/>
<path d="M23.5005 8.59808C24.9354 9.4265 26.7702 8.93488 27.5986 7.5C27.8619 7.04394 28.2406 6.66523 28.6967 6.40193C29.1527 6.13862 29.67 6 30.1967 6C30.7233 6 31.2406 6.13862 31.6967 6.40193C32.1527 6.66523 32.5314 7.04394 32.7947 7.5C33.6232 8.93488 35.4579 9.4265 36.8928 8.59808C38.3277 7.76965 38.8193 5.93488 37.9909 4.5C37.201 3.13183 36.0648 1.99569 34.6967 1.20577C33.3285 0.415856 31.7765 0 30.1967 0C28.6168 0 27.0648 0.415856 25.6967 1.20577C24.3285 1.99569 23.1923 3.13183 22.4024 4.5C21.574 5.93488 22.0656 7.76965 23.5005 8.59808Z" fill="#D6D3D1"/>
<path d="M19.1969 27C16.5704 27 13.9697 26.4827 11.5432 25.4776C9.1167 24.4725 6.91192 22.9993 5.05475 21.1421C3.91076 19.9981 3.56854 18.2777 4.18766 16.783C4.80678 15.2883 6.26533 14.3137 7.88318 14.3137L30.5106 14.3137C32.1284 14.3137 33.587 15.2883 34.2061 16.783C34.8252 18.2777 34.483 19.9981 33.339 21.1421C31.4819 22.9993 29.2771 24.4725 26.8506 25.4776C24.424 26.4827 21.8233 27 19.1969 27Z" fill="#D6D3D1"/>
</svg>
