<svg width="26" height="18" viewBox="0 0 26 18" fill="none" xmlns="http://www.w3.org/2000/svg">
<path d="M1.01613 0.272521C1.98783 -0.288487 3.23033 0.0444397 3.79134 1.01613C3.96965 1.32498 4.22611 1.58144 4.53495 1.75975C4.84379 1.93806 5.19413 2.03193 5.55075 2.03193C5.90737 2.03193 6.2577 1.93806 6.56654 1.75975C6.87539 1.58144 7.13185 1.32498 7.31016 1.01613C7.87117 0.0444397 9.11367 -0.288487 10.0854 0.272521C11.0571 0.833529 11.39 2.07603 10.829 3.04773C10.294 3.97425 9.52466 4.74364 8.59814 5.27857C7.67161 5.8135 6.62061 6.09511 5.55075 6.09511C4.48089 6.09511 3.42989 5.8135 2.50336 5.27857C1.57684 4.74364 0.807449 3.97425 0.272521 3.04773C-0.288488 2.07603 0.0444396 0.83353 1.01613 0.272521Z" fill="#D6D3D1"/>
<path d="M15.9145 0.272521C16.8862 -0.288487 18.1287 0.0444397 18.6897 1.01613C18.868 1.32498 19.1244 1.58144 19.4333 1.75975C19.7421 1.93806 20.0925 2.03193 20.4491 2.03193C20.8057 2.03193 21.156 1.93806 21.4649 1.75975C21.7737 1.58144 22.0302 1.32498 22.2085 1.01613C22.7695 0.0444397 24.012 -0.288487 24.9837 0.272521C25.9554 0.833529 26.2883 2.07603 25.7273 3.04773C25.1924 3.97425 24.423 4.74364 23.4965 5.27857C22.5699 5.8135 21.5189 6.09511 20.4491 6.09511C19.3792 6.09511 18.3282 5.8135 17.4017 5.27857C16.4752 4.74364 15.7058 3.97425 15.1709 3.04773C14.6098 2.07603 14.9428 0.83353 15.9145 0.272521Z" fill="#D6D3D1"/>
<path d="M13.0001 8.8039C11.2215 8.8039 9.46026 9.15423 7.81703 9.83487C6.1738 10.5155 4.68073 11.5132 3.42306 12.7708C2.64835 13.5455 2.4166 14.7106 2.83587 15.7228C3.25514 16.735 4.24286 17.395 5.33846 17.395L20.6617 17.395C21.7573 17.395 22.745 16.735 23.1643 15.7228C23.5835 14.7106 23.3518 13.5455 22.5771 12.7708C21.3194 11.5132 19.8263 10.5155 18.1831 9.83487C16.5399 9.15422 14.7787 8.8039 13.0001 8.8039Z" fill="#D6D3D1"/>
</svg>
