<svg width="22" height="18" viewBox="0 0 22 18" fill="none" xmlns="http://www.w3.org/2000/svg">
<path d="M6.87479 3.4374C6.87479 1.53897 5.33582 0 3.4374 0C1.53897 0 0 1.53897 0 3.4374C0 5.33582 1.53897 6.87479 3.4374 6.87479C5.33582 6.87479 6.87479 5.33582 6.87479 3.4374Z" fill="#D6D3D1"/>
<path d="M21.9993 3.4374C21.9993 1.53897 20.4604 0 18.5619 0C16.6635 0 15.1245 1.53897 15.1245 3.4374C15.1245 5.33582 16.6635 6.87479 18.5619 6.87479C20.4604 6.87479 21.9993 5.33582 21.9993 3.4374Z" fill="#D6D3D1"/>
<path d="M4.12487 12.3746C2.60614 12.3746 1.37496 13.6058 1.37496 15.1245C1.37496 16.6433 2.60614 17.8745 4.12487 17.8745H17.8745C19.3932 17.8745 20.6244 16.6433 20.6244 15.1245C20.6244 13.6058 19.3932 12.3746 17.8745 12.3746H4.12487Z" fill="#D6D3D1"/>
</svg>
