<svg width="160" height="160" viewBox="0 0 160 160" fill="none" xmlns="http://www.w3.org/2000/svg">
<path d="M8.22857 43.8857V26.0571C8.22857 15.9865 15.9865 8.22857 26.0571 8.22857H43.8857C46.158 8.22857 48 6.38654 48 4.11429C48 1.84203 46.158 0 43.8857 0H26.0571C11.442 0 0 11.442 0 26.0571V43.8857C0 46.158 1.84203 48 4.11429 48C6.38654 48 8.22857 46.158 8.22857 43.8857Z" fill="#D6D3D1"/>
<path d="M151.771 43.8857V26.0571C151.771 15.9865 144.013 8.22857 133.943 8.22857H116.114C113.842 8.22857 112 6.38654 112 4.11429C112 1.84203 113.842 0 116.114 0H133.943C148.558 0 160 11.442 160 26.0571V43.8857C160 46.158 158.158 48 155.886 48C153.613 48 151.771 46.158 151.771 43.8857Z" fill="#D6D3D1"/>
<path d="M8.22857 116.114V133.943C8.22857 144.013 15.9865 151.771 26.0571 151.771H43.8857C46.158 151.771 48 153.613 48 155.886C48 158.158 46.158 160 43.8857 160H26.0571C11.442 160 0 148.558 0 133.943V116.114C0 113.842 1.84203 112 4.11429 112C6.38654 112 8.22857 113.842 8.22857 116.114Z" fill="#D6D3D1"/>
<path d="M151.771 116.114V133.943C151.771 144.013 144.013 151.771 133.943 151.771H116.114C113.842 151.771 112 153.613 112 155.886C112 158.158 113.842 160 116.114 160H133.943C148.558 160 160 148.558 160 133.943V116.114C160 113.842 158.158 112 155.886 112C153.613 112 151.771 113.842 151.771 116.114Z" fill="#D6D3D1"/>
<path d="M43.5078 60.4263V71.8614C43.5078 74.2283 45.2987 76.1471 47.5078 76.1471C49.717 76.1471 51.5078 74.2283 51.5078 71.8614V60.4263C51.5078 58.0594 49.717 56.1406 47.5078 56.1406C45.2987 56.1406 43.5078 58.0594 43.5078 60.4263Z" fill="#57534E"/>
<path d="M109.477 60.4263V71.8614C109.477 74.2283 111.267 76.1471 113.477 76.1471C115.686 76.1471 117.477 74.2283 117.477 71.8614V60.4263C117.477 58.0594 115.686 56.1406 113.477 56.1406C111.267 56.1406 109.477 58.0594 109.477 60.4263Z" fill="#57534E"/>
<path d="M51.8611 118.166C59.6634 125.448 69.1129 129.123 79.9971 129.123C90.8814 129.123 100.331 125.448 108.133 118.166C109.833 116.579 109.925 113.915 108.338 112.215C106.752 110.515 104.087 110.423 102.387 112.009C96.1546 117.827 88.762 120.702 79.9971 120.702C71.2323 120.702 63.8397 117.827 57.6069 112.009C55.9069 110.423 53.2425 110.515 51.6559 112.215C50.0692 113.915 50.1611 116.579 51.8611 118.166Z" fill="#57534E"/>
<path d="M79.9964 60.3512V89.8248C79.9964 91.711 79.0745 92.6319 77.179 92.6319H74.3824C72.057 92.6319 70.1719 94.517 70.1719 96.8424C70.1719 99.1678 72.057 101.053 74.3824 101.053H77.179C83.7231 101.053 88.4175 96.364 88.4175 89.8248V60.3512C88.4175 58.0257 86.5324 56.1406 84.207 56.1406C81.8816 56.1406 79.9964 58.0257 79.9964 60.3512Z" fill="#57534E"/>
</svg>
