<svg width="32" height="28" viewBox="0 0 32 28" fill="none" xmlns="http://www.w3.org/2000/svg">
<path d="M10 5C10 2.23858 7.76143 0 5 0C2.23858 0 0 2.23858 0 5C0 7.76143 2.23858 10 5 10C7.76143 10 10 7.76143 10 5Z" fill="#D6D3D1"/>
<path d="M32 5C32 2.23858 29.7614 0 27 0C24.2386 0 22 2.23858 22 5C22 7.76143 24.2386 10 27 10C29.7614 10 32 7.76143 32 5Z" fill="#D6D3D1"/>
<path d="M16 28C13.3736 28 10.7728 27.4827 8.34633 26.4776C5.91982 25.4725 3.71503 23.9993 1.85786 22.1421C0.295763 20.58 0.295764 18.0474 1.85786 16.4853C3.41996 14.9232 5.95262 14.9232 7.51472 16.4853C8.62902 17.5996 9.95189 18.4835 11.4078 19.0866C12.8637 19.6896 14.4241 20 16 20C17.5759 20 19.1363 19.6896 20.5922 19.0866C22.0481 18.4835 23.371 17.5996 24.4853 16.4853C26.0474 14.9232 28.58 14.9232 30.1421 16.4853C31.7042 18.0474 31.7042 20.58 30.1421 22.1421C28.285 23.9993 26.0802 25.4725 23.6537 26.4776C21.2272 27.4827 18.6264 28 16 28Z" fill="#D6D3D1"/>
</svg>
