<svg width="343" height="222" viewBox="0 0 343 222" fill="none" xmlns="http://www.w3.org/2000/svg">
<path d="M100.229 74.8857V57.0571C100.229 46.9865 107.987 39.2286 118.057 39.2286H135.886C138.158 39.2286 140 37.3865 140 35.1143C140 32.842 138.158 31 135.886 31H118.057C103.442 31 92 42.442 92 57.0571V74.8857C92 77.158 93.842 79 96.1143 79C98.3865 79 100.229 77.158 100.229 74.8857Z" fill="#D6D3D1"/>
<path d="M243.771 74.8857V57.0571C243.771 46.9865 236.013 39.2286 225.943 39.2286H208.114C205.842 39.2286 204 37.3865 204 35.1143C204 32.842 205.842 31 208.114 31H225.943C240.558 31 252 42.442 252 57.0571V74.8857C252 77.158 250.158 79 247.886 79C245.613 79 243.771 77.158 243.771 74.8857Z" fill="#D6D3D1"/>
<path d="M100.229 147.114V164.943C100.229 175.013 107.987 182.771 118.057 182.771H135.886C138.158 182.771 140 184.613 140 186.886C140 189.158 138.158 191 135.886 191H118.057C103.442 191 92 179.558 92 164.943V147.114C92 144.842 93.842 143 96.1143 143C98.3865 143 100.229 144.842 100.229 147.114Z" fill="#D6D3D1"/>
<path d="M243.771 147.114V164.943C243.771 175.013 236.013 182.771 225.943 182.771H208.114C205.842 182.771 204 184.613 204 186.886C204 189.158 205.842 191 208.114 191H225.943C240.558 191 252 179.558 252 164.943V147.114C252 144.842 250.158 143 247.886 143C245.613 143 243.771 144.842 243.771 147.114Z" fill="#D6D3D1"/>
<path d="M135.508 91.4263V102.861C135.508 105.228 137.299 107.147 139.508 107.147C141.717 107.147 143.508 105.228 143.508 102.861V91.4263C143.508 89.0594 141.717 87.1406 139.508 87.1406C137.299 87.1406 135.508 89.0594 135.508 91.4263Z" fill="#57534E"/>
<path d="M201.477 91.4263V102.861C201.477 105.228 203.267 107.147 205.477 107.147C207.686 107.147 209.477 105.228 209.477 102.861V91.4263C209.477 89.0594 207.686 87.1406 205.477 87.1406C203.267 87.1406 201.477 89.0594 201.477 91.4263Z" fill="#57534E"/>
<path d="M143.861 149.166C151.663 156.448 161.113 160.123 171.997 160.123C182.881 160.123 192.331 156.448 200.133 149.166C201.833 147.579 201.925 144.915 200.338 143.215C198.752 141.515 196.087 141.423 194.387 143.009C188.155 148.827 180.762 151.702 171.997 151.702C163.232 151.702 155.84 148.827 149.607 143.009C147.907 141.423 145.243 141.515 143.656 143.215C142.069 144.915 142.161 147.579 143.861 149.166Z" fill="#57534E"/>
<path d="M171.996 91.3512V120.825C171.996 122.711 171.075 123.632 169.179 123.632H166.382C164.057 123.632 162.172 125.517 162.172 127.842C162.172 130.168 164.057 132.053 166.382 132.053H169.179C175.723 132.053 180.417 127.364 180.417 120.825V91.3512C180.417 89.0257 178.532 87.1406 176.207 87.1406C173.882 87.1406 171.996 89.0257 171.996 91.3512Z" fill="#57534E"/>
</svg>
