<svg width="26" height="18" viewBox="0 0 26 18" fill="none" xmlns="http://www.w3.org/2000/svg">
<path d="M1.00033 5.73205C1.95692 6.28434 3.1801 5.95658 3.73239 5C3.90792 4.69596 4.1604 4.44349 4.46444 4.26795C4.76847 4.09241 5.11336 4 5.46444 4C5.81551 4 6.1604 4.09241 6.46444 4.26795C6.76847 4.44349 7.02095 4.69596 7.19649 5C7.74877 5.95658 8.97195 6.28434 9.92854 5.73205C10.8851 5.17977 11.2129 3.95658 10.6606 3C10.134 2.08788 9.37655 1.33046 8.46444 0.803848C7.55232 0.277238 6.51766 0 5.46444 0C4.41122 0 3.37655 0.277238 2.46444 0.803848C1.55232 1.33046 0.794893 2.08788 0.268283 3C-0.284002 3.95658 0.0437486 5.17977 1.00033 5.73205Z" fill="#D6D3D1"/>
<path d="M15.667 5.73205C16.6236 6.28434 17.8468 5.95658 18.3991 5C18.5746 4.69596 18.8271 4.44349 19.1311 4.26795C19.4351 4.09241 19.78 4 20.1311 4C20.4822 4 20.8271 4.09241 21.1311 4.26795C21.4351 4.44349 21.6876 4.69596 21.8632 5C22.4154 5.95658 23.6386 6.28434 24.5952 5.73205C25.5518 5.17977 25.8795 3.95658 25.3273 3C24.8006 2.08788 24.0432 1.33046 23.1311 0.803848C22.219 0.277238 21.1843 0 20.1311 0C19.0779 0 18.0432 0.277238 17.1311 0.803848C16.219 1.33046 15.4616 2.08788 14.935 3C14.3827 3.95658 14.7104 5.17977 15.667 5.73205Z" fill="#D6D3D1"/>
<path d="M12.7979 18C11.047 18 9.31315 17.6551 7.69548 16.9851C6.0778 16.315 4.60795 15.3329 3.36983 14.0948C2.60717 13.3321 2.37902 12.1851 2.79177 11.1886C3.20452 10.1922 4.17689 9.54247 5.25545 9.54247L20.3404 9.54247C21.419 9.54247 22.3913 10.1922 22.8041 11.1887C23.2168 12.1851 22.9887 13.3321 22.226 14.0948C20.9879 15.3329 19.518 16.315 17.9004 16.9851C16.2827 17.6551 14.5489 18 12.7979 18Z" fill="#D6D3D1"/>
</svg>
