<svg width="22" height="23" viewBox="0 0 22 23" fill="none" xmlns="http://www.w3.org/2000/svg">
<path fill-rule="evenodd" clip-rule="evenodd" d="M9.44534 3.09214C10.1634 1.94325 11.8366 1.94324 12.5547 3.09214L15.4841 7.77924C16.2473 9.00033 15.3694 10.5842 13.9294 10.5842H8.07056C6.6306 10.5842 5.75272 9.00033 6.5159 7.77924L9.44534 3.09214ZM13.9294 8.75091L11 4.0638L8.07056 8.75091L13.9294 8.75091Z" fill="#A8A29E"/>
<path fill-rule="evenodd" clip-rule="evenodd" d="M2.75 12.4176H10.0833V19.7509H2.75V12.4176ZM4.58333 14.2509V17.9176H8.25V14.2509H4.58333Z" fill="#A8A29E"/>
<path fill-rule="evenodd" clip-rule="evenodd" d="M15.5833 11.9646C13.3081 11.9646 11.4637 13.809 11.4637 16.0842C11.4637 18.3594 13.3081 20.2039 15.5833 20.2039C17.8585 20.2039 19.703 18.3594 19.703 16.0842C19.703 13.809 17.8585 11.9646 15.5833 11.9646ZM13.297 16.0842C13.297 14.8216 14.3206 13.7979 15.5833 13.7979C16.846 13.7979 17.8696 14.8216 17.8696 16.0842C17.8696 17.3469 16.846 18.3705 15.5833 18.3705C14.3206 18.3705 13.297 17.3469 13.297 16.0842Z" fill="#A8A29E"/>
</svg>
