<svg width="251" height="234" viewBox="0 0 251 234" fill="none" xmlns="http://www.w3.org/2000/svg">
<path d="M125.501 234C194.709 234 250.814 201.608 250.814 161.649C250.814 121.691 194.709 89.2988 125.501 89.2988C56.292 89.2988 0.1875 121.691 0.1875 161.649C0.1875 201.608 56.292 234 125.501 234Z" fill="#F0F0F0"/>
<path d="M99.5719 216.473C123.437 216.473 142.784 205.304 142.784 191.527C142.784 177.749 123.437 166.58 99.5719 166.58C75.7063 166.58 56.3594 177.749 56.3594 191.527C56.3594 205.304 75.7063 216.473 99.5719 216.473Z" fill="#E0E0E0"/>
<path d="M222.458 160.314L217.389 157.388C217.389 157.388 216.15 146.537 216.974 138.133C218.134 126.325 225.762 112.112 234.857 115.453C243.953 118.793 230.687 130.814 227.735 140.83C224.783 150.846 222.458 160.314 222.458 160.314Z" fill="#F08C51"/>
<path opacity="0.15" d="M222.458 160.314L217.389 157.388C217.389 157.388 216.15 146.537 216.974 138.133C218.134 126.325 225.762 112.112 234.857 115.453C243.953 118.793 230.687 130.814 227.735 140.83C224.783 150.846 222.458 160.314 222.458 160.314Z" fill="black"/>
<path d="M219.794 159.086C219.875 159.082 219.951 159.046 220.006 158.986C220.06 158.927 220.089 158.848 220.087 158.767C219.198 132.528 232.262 119.326 232.39 119.198C232.447 119.14 232.48 119.062 232.48 118.98C232.48 118.898 232.447 118.82 232.39 118.762C232.361 118.733 232.328 118.711 232.291 118.695C232.254 118.68 232.214 118.672 232.174 118.672C232.134 118.672 232.095 118.68 232.058 118.695C232.021 118.711 231.987 118.733 231.959 118.762C231.821 118.889 218.571 132.283 219.47 158.788C219.471 158.829 219.48 158.869 219.498 158.907C219.515 158.944 219.539 158.977 219.569 159.005C219.599 159.033 219.635 159.054 219.673 159.068C219.712 159.082 219.753 159.088 219.794 159.086Z" fill="white"/>
<path d="M225.644 162.141L222.037 160.061C222.037 160.061 221.42 152.614 225.075 143.572C228.266 135.7 236.138 129.162 240.106 130.535C244.074 131.907 243.973 134.721 242.037 137.673C240.101 140.625 228.341 147.652 225.644 162.141Z" fill="#F08C51"/>
<path d="M223.738 161.353C223.82 161.352 223.898 161.319 223.955 161.261C224.013 161.204 224.046 161.126 224.047 161.045C223.972 144.449 239.552 133.236 239.712 133.125C239.745 133.102 239.773 133.073 239.795 133.039C239.816 133.004 239.831 132.966 239.837 132.927C239.844 132.887 239.842 132.846 239.832 132.807C239.823 132.768 239.805 132.731 239.781 132.699C239.734 132.633 239.663 132.589 239.583 132.575C239.504 132.561 239.422 132.579 239.355 132.625C239.196 132.736 223.361 144.14 223.43 161.045C223.43 161.126 223.462 161.205 223.52 161.263C223.578 161.321 223.657 161.353 223.738 161.353Z" fill="white"/>
<path d="M34.894 153.799L39.5748 150.639C39.5748 150.639 41.6333 138.405 39.7184 127.613C37.027 112.474 26.5643 107.442 22.8409 109.038C19.1175 110.634 18.3196 115.139 25.2717 123.777C29.394 128.857 34.7504 139.703 34.894 153.799Z" fill="#F08C51"/>
<g opacity="0.15">
<path d="M34.894 153.799L39.5748 150.639C39.5748 150.639 41.6333 138.405 39.7184 127.613C37.027 112.474 26.5643 107.442 22.8409 109.038C19.1175 110.634 18.3196 115.139 25.2717 123.777C29.394 128.857 34.7504 139.703 34.894 153.799Z" fill="black"/>
</g>
<path d="M36.5023 147.735H36.4544C36.4066 147.732 36.3599 147.719 36.3175 147.697C36.2751 147.674 36.2379 147.643 36.2082 147.606C36.1786 147.568 36.1573 147.525 36.1456 147.478C36.1339 147.432 36.1322 147.383 36.1406 147.336C37.832 133.086 31.8161 117.618 25.2683 111.464C25.2053 111.4 25.1699 111.314 25.1699 111.225C25.1699 111.135 25.2053 111.049 25.2683 110.985C25.2995 110.954 25.3367 110.928 25.3778 110.911C25.4189 110.894 25.4631 110.885 25.5076 110.885C25.5522 110.885 25.5964 110.894 25.6375 110.911C25.6786 110.928 25.7158 110.954 25.747 110.985C32.4172 117.251 38.5448 132.975 36.832 147.432C36.822 147.513 36.7833 147.589 36.7229 147.644C36.6625 147.7 36.5843 147.732 36.5023 147.735Z" fill="white"/>
<path d="M22.6403 162.062C21.8956 162.509 19.7254 160.898 19.1244 160.509C18.0943 159.837 17.2552 158.91 16.6882 157.818C16.0522 156.58 15.8162 155.175 16.0127 153.797C16.1216 153.077 16.2798 152.366 16.4861 151.669C16.6723 150.972 16.8584 150.275 17.018 149.573C17.2539 148.89 17.3445 148.166 17.284 147.446C17.0765 146.025 15.7946 145.052 14.6244 144.217C13.3372 143.286 11.9648 142.057 11.9648 140.345C12.0305 138.999 12.5455 137.714 13.4276 136.696C14.2255 135.632 15.1829 134.706 15.901 133.595C16.4625 132.824 16.7491 131.888 16.7148 130.935C16.6223 130.348 16.4125 129.785 16.0978 129.281C15.4701 128.174 14.6563 127.153 14.2148 125.978C13.7733 124.802 13.8053 123.291 14.7467 122.414C15.4967 121.696 16.6403 121.579 17.6776 121.627C18.655 121.724 19.5991 122.034 20.4435 122.536C23.1935 123.999 24.8105 127.19 27.7201 128.302C28.8424 128.728 30.0658 128.802 31.2307 129.089C32.3956 129.377 33.5977 129.946 34.1562 131.004C35.2572 133.105 33.337 135.754 34.1243 137.983C34.8264 139.962 36.7838 140.685 37.8902 142.456C38.3392 143.243 38.5256 144.152 38.4221 145.052C38.3597 146.571 38.019 148.066 37.4168 149.461C36.7243 150.909 35.9426 152.313 35.0764 153.664C35.0764 153.664 22.752 161.993 22.6403 162.062Z" fill="#F08C51"/>
<path d="M29.83 157.655C29.7853 157.654 29.7412 157.645 29.7002 157.627C29.6591 157.609 29.622 157.583 29.5909 157.551C29.5597 157.519 29.5353 157.481 29.5188 157.44C29.5023 157.398 29.4942 157.354 29.4949 157.309C29.7928 143.841 23.1652 129.118 18.4737 124.862C18.407 124.802 18.3668 124.718 18.3619 124.629C18.3569 124.539 18.3875 124.451 18.4471 124.384C18.4783 124.352 18.5156 124.327 18.5567 124.309C18.5978 124.292 18.6419 124.283 18.6865 124.283C18.7311 124.283 18.7752 124.292 18.8163 124.309C18.8574 124.327 18.8946 124.352 18.9258 124.384C23.7131 128.692 30.4736 143.671 30.1705 157.325C30.1698 157.369 30.1604 157.413 30.1429 157.453C30.1254 157.493 30.1002 157.53 30.0686 157.56C30.0369 157.591 29.9996 157.615 29.9587 157.631C29.9178 157.648 29.874 157.656 29.83 157.655Z" fill="white"/>
<path d="M27.3466 141.246C27.3151 141.254 27.2822 141.254 27.2508 141.246C22.8998 139.991 17.5062 139.863 17.453 139.858C17.4085 139.857 17.3647 139.848 17.3239 139.83C17.2832 139.812 17.2464 139.786 17.2157 139.754C17.185 139.722 17.161 139.684 17.1451 139.642C17.1292 139.601 17.1218 139.557 17.1232 139.512C17.1224 139.467 17.1309 139.423 17.1482 139.381C17.1655 139.34 17.1912 139.302 17.2237 139.271C17.2562 139.24 17.2948 139.216 17.337 139.201C17.3792 139.186 17.4241 139.179 17.469 139.182C17.5222 139.182 23.0008 139.315 27.437 140.592C27.5227 140.618 27.5948 140.676 27.6376 140.755C27.6804 140.834 27.6905 140.926 27.6657 141.012C27.645 141.08 27.6027 141.14 27.5451 141.182C27.4876 141.225 27.4179 141.247 27.3466 141.246Z" fill="white"/>
<path d="M152.713 144.54L150.697 143.375C150.361 143.157 150.082 142.862 149.881 142.516C149.681 142.169 149.565 141.78 149.543 141.38V57.5933C149.565 57.1941 149.68 56.8056 149.88 56.4591C150.079 56.1127 150.358 55.8179 150.692 55.5986L206.729 23.2478C207.086 23.0669 207.48 22.9727 207.88 22.9727C208.28 22.9727 208.675 23.0669 209.032 23.2478L211.048 24.4126C211.384 24.6307 211.663 24.9251 211.864 25.2717C212.065 25.6183 212.18 26.0074 212.202 26.4073V110.194C212.18 110.593 212.065 110.982 211.865 111.328C211.666 111.675 211.388 111.969 211.053 112.189L155.016 144.545C154.659 144.726 154.264 144.82 153.864 144.819C153.464 144.818 153.069 144.722 152.713 144.54Z" fill="#455A64"/>
<path d="M212.203 26.2211C212.123 25.6254 211.639 25.4073 211.059 25.7424L155.017 58.0986C154.678 58.3112 154.398 58.6057 154.203 58.955L149.879 56.4603C150.072 56.1084 150.352 55.8118 150.693 55.5986L206.73 23.2478C207.087 23.0669 207.481 22.9727 207.881 22.9727C208.281 22.9727 208.676 23.0669 209.033 23.2478L211.049 24.4126C211.36 24.6131 211.624 24.8785 211.824 25.1906C212.023 25.5028 212.152 25.8543 212.203 26.2211Z" fill="#455A64"/>
<path d="M154.819 144.632C154.479 144.77 154.113 144.833 153.746 144.818C153.379 144.802 153.019 144.708 152.692 144.542L150.67 143.371C150.336 143.152 150.058 142.857 149.858 142.511C149.659 142.164 149.543 141.776 149.521 141.377V57.59C149.535 57.19 149.65 56.8001 149.857 56.457L154.181 58.9517C153.971 59.2952 153.854 59.6875 153.841 60.09V143.877C153.862 144.536 154.277 144.839 154.819 144.632Z" fill="#263238"/>
<path d="M153.863 60.1006V143.877C153.863 144.611 154.395 144.909 155.018 144.542L211.054 112.185C211.389 111.966 211.667 111.671 211.866 111.325C212.066 110.978 212.181 110.59 212.203 110.191V26.4041C212.203 25.67 211.671 25.3721 211.054 25.7392L155.018 58.0953C154.68 58.3145 154.4 58.6105 154.199 58.9591C153.998 59.3077 153.883 59.6989 153.863 60.1006Z" fill="#37474F"/>
<path d="M140.776 92.0165C140.053 91.5857 136.696 89.6761 136.521 89.575C136.384 89.4934 136.267 89.3821 136.179 89.2494C136.091 89.1167 136.034 88.9658 136.012 88.8081C135.99 88.6503 136.004 88.4897 136.052 88.3379C136.101 88.1862 136.183 88.0473 136.292 87.9314L149.542 73.7188L153.861 76.1975L140.616 90.4208C140.512 90.5315 140.433 90.6633 140.384 90.8072C140.336 90.9511 140.318 91.1037 140.333 91.2549C140.348 91.4061 140.396 91.5523 140.472 91.6837C140.548 91.815 140.652 91.9285 140.776 92.0165Z" fill="#455A64"/>
<path d="M153.864 76.2129L140.619 90.4202C140.472 90.5773 140.376 90.7752 140.344 90.988C140.312 91.2007 140.345 91.4182 140.439 91.6118C140.533 91.8054 140.683 91.966 140.87 92.0723C141.057 92.1787 141.272 92.2258 141.486 92.2075L153.864 91.1862V76.2129Z" fill="#37474F"/>
<path d="M183.031 50.6346C189.563 46.8633 194.856 49.9218 194.856 57.4643C194.856 65.0068 189.563 74.1717 183.031 77.9429C176.5 81.7142 171.207 78.6557 171.207 71.1185C171.207 63.5813 176.5 54.4058 183.031 50.6346Z" fill="#F08C51"/>
<path d="M182.946 56.5694C185.074 55.346 186.781 56.3354 186.781 58.7822C186.708 60.1122 186.323 61.4065 185.657 62.5598C184.991 63.7132 184.062 64.6933 182.946 65.4204C180.818 66.6438 179.105 65.6545 179.105 63.2077C179.179 61.8772 179.564 60.5826 180.232 59.4292C180.899 58.2758 181.829 57.296 182.946 56.5694Z" fill="white"/>
<path d="M190.512 69.6142C190.512 65.5983 187.688 63.9653 184.209 65.9759L182.034 67.2313C178.555 69.2419 175.73 74.1461 175.73 78.1514V79.2525C176.387 79.4624 177.073 79.5683 177.762 79.5663C179.628 79.5028 181.446 78.9528 183.034 77.9706C186.057 76.1081 188.615 73.5792 190.512 70.577V69.6142Z" fill="white"/>
<path d="M175.545 115.279L190.523 106.63C191.162 106.263 191.678 106.561 191.678 107.295V112.119C191.656 112.519 191.54 112.908 191.34 113.255C191.139 113.601 190.859 113.896 190.523 114.114L175.545 122.763C174.907 123.13 174.391 122.832 174.391 122.098V117.273C174.412 116.873 174.528 116.484 174.729 116.138C174.929 115.791 175.209 115.497 175.545 115.279Z" fill="#F08C51"/>
<path d="M168.208 104.502L197.841 87.3847C198.601 86.9432 199.224 87.2996 199.224 88.1826V89.9751C199.198 90.4548 199.059 90.9215 198.819 91.3374C198.578 91.7533 198.243 92.1067 197.841 92.3687L168.192 109.486C167.431 109.927 166.814 109.571 166.814 108.688V106.911C166.839 106.428 166.978 105.957 167.22 105.538C167.462 105.119 167.801 104.764 168.208 104.502Z" fill="#FAFAFA"/>
<path d="M171.677 92.1139C172.082 91.8798 172.396 91.8426 172.619 92.0075C172.842 92.1724 172.954 92.5394 172.954 93.1032C172.965 93.6179 172.85 94.1274 172.619 94.5873C172.41 95.003 172.082 95.3473 171.677 95.5766L170.88 96.0394V97.7575C170.878 97.8166 170.864 97.8747 170.837 97.9277C170.818 97.9758 170.785 98.0168 170.741 98.0447L170.337 98.2787C170.323 98.2891 170.306 98.2947 170.289 98.2947C170.272 98.2947 170.255 98.2891 170.241 98.2787C170.213 98.2427 170.199 98.1969 170.204 98.1511V93.1777C170.204 93.1189 170.216 93.0607 170.241 93.0075C170.261 92.9602 170.295 92.9196 170.337 92.8905L171.677 92.1139ZM170.88 95.0766L171.651 94.6298C171.837 94.5247 171.994 94.3748 172.108 94.1937C172.229 93.98 172.288 93.7369 172.279 93.4915C172.279 93.2043 172.22 93.0394 172.108 92.9915C172.029 92.9724 171.947 92.9715 171.868 92.989C171.789 93.0065 171.714 93.042 171.651 93.0926L170.88 93.5394V95.0766Z" fill="#FAFAFA"/>
<path d="M175.183 90.0864C175.236 90.0545 175.279 90.0545 175.305 90.0864C175.339 90.1341 175.363 90.1885 175.374 90.246L176.603 94.4056C176.603 94.4056 176.603 94.4375 176.603 94.4534C176.602 94.5127 176.588 94.571 176.561 94.6236C176.542 94.6718 176.508 94.7127 176.465 94.7407L176.103 94.9481C176.039 94.9853 175.991 94.9907 175.965 94.9481C175.939 94.9214 175.921 94.8884 175.912 94.8524L175.694 94.1236L174.098 95.0385L173.885 96.0173C173.87 96.0702 173.85 96.1218 173.827 96.1715C173.8 96.2363 173.751 96.2893 173.688 96.3204L173.327 96.5279C173.313 96.5391 173.296 96.5453 173.279 96.5453C173.261 96.5453 173.244 96.5391 173.231 96.5279C173.203 96.4935 173.19 96.4496 173.194 96.4055C173.191 96.3862 173.191 96.3664 173.194 96.347L174.417 90.7726C174.432 90.6906 174.455 90.6104 174.486 90.5332C174.512 90.4773 174.555 90.4309 174.608 90.4003L175.183 90.0864ZM175.46 93.3098L174.928 91.4322L174.396 93.9428L175.46 93.3098Z" fill="#FAFAFA"/>
<path d="M178.463 88.1118C178.641 87.9995 178.844 87.9319 179.054 87.915C179.202 87.9016 179.351 87.9351 179.479 88.0107C179.596 88.0865 179.687 88.1959 179.74 88.3245C179.798 88.4555 179.831 88.5963 179.836 88.7394C179.839 88.7985 179.826 88.8575 179.798 88.9097C179.78 88.9578 179.746 88.9988 179.703 89.0267L179.352 89.2288C179.293 89.2607 179.251 89.266 179.224 89.2288C179.191 89.2071 179.164 89.178 179.144 89.1437C179.123 89.0958 179.092 89.0528 179.054 89.0171C179.015 88.9815 178.97 88.954 178.921 88.9362C178.759 88.9131 178.594 88.9551 178.463 89.0533C178.377 89.1089 178.295 89.1711 178.219 89.2394C178.14 89.3121 178.07 89.3943 178.011 89.4841C177.955 89.5707 177.908 89.6635 177.873 89.7607C177.842 89.8532 177.825 89.9502 177.825 90.0479C177.819 90.1375 177.835 90.2271 177.873 90.3086C177.889 90.3371 177.912 90.3613 177.94 90.3789C177.968 90.3965 178 90.4071 178.033 90.4096C178.131 90.4267 178.232 90.4267 178.33 90.4096L178.793 90.3086C178.966 90.2575 179.145 90.2359 179.325 90.2447C179.453 90.2444 179.578 90.2854 179.681 90.3618C179.779 90.4437 179.849 90.553 179.884 90.6756C179.936 90.8479 179.959 91.0276 179.953 91.2075C179.952 91.4451 179.918 91.6815 179.852 91.9096C179.787 92.1442 179.692 92.3694 179.57 92.5798C179.441 92.7955 179.287 92.9954 179.112 93.1756C178.933 93.3611 178.729 93.5205 178.506 93.649C178.342 93.7487 178.162 93.8189 177.974 93.8564C177.821 93.8859 177.663 93.873 177.517 93.8192C177.384 93.7574 177.274 93.655 177.203 93.5266C177.116 93.3625 177.068 93.1804 177.064 92.9947C177.064 92.9342 177.077 92.8743 177.102 92.8192C177.125 92.7739 177.16 92.7355 177.203 92.7075L177.554 92.5054C177.607 92.4735 177.65 92.4628 177.681 92.4788C177.713 92.4947 177.735 92.5213 177.756 92.5692C177.778 92.6239 177.806 92.6757 177.841 92.7235C177.874 92.7698 177.921 92.805 177.974 92.8245C178.044 92.8407 178.117 92.8407 178.187 92.8245C178.3 92.7979 178.408 92.753 178.506 92.6915C178.609 92.6327 178.707 92.5651 178.799 92.4894C178.977 92.3479 179.12 92.1654 179.213 91.9575C179.256 91.8509 179.278 91.7372 179.277 91.6224C179.282 91.5807 179.279 91.5385 179.267 91.4982C179.255 91.458 179.235 91.4206 179.208 91.3884C179.179 91.363 179.145 91.3442 179.109 91.3332C179.072 91.3221 179.033 91.3192 178.995 91.3245C178.875 91.3295 178.755 91.3491 178.639 91.383C178.501 91.415 178.341 91.4522 178.155 91.4841C178.012 91.5197 177.865 91.5305 177.719 91.516C177.604 91.5086 177.495 91.4616 177.41 91.383C177.318 91.2929 177.254 91.1786 177.224 91.0533C177.181 90.8685 177.162 90.6791 177.166 90.4894C177.165 90.2552 177.199 90.0223 177.267 89.7979C177.33 89.5671 177.423 89.3454 177.543 89.1384C177.658 88.9327 177.798 88.7417 177.958 88.5692C178.104 88.3936 178.274 88.2396 178.463 88.1118Z" fill="#FAFAFA"/>
<path d="M181.958 86.1032C182.134 85.9874 182.337 85.9179 182.548 85.901C182.696 85.8884 182.845 85.9219 182.974 85.9968C183.087 86.0745 183.176 86.1835 183.229 86.3106C183.287 86.4415 183.319 86.5824 183.325 86.7255C183.331 86.7848 183.318 86.8445 183.287 86.8957C183.269 86.9439 183.235 86.9848 183.192 87.0127L182.841 87.2149C182.787 87.2468 182.745 87.2574 182.713 87.2149C182.679 87.1935 182.653 87.1618 182.638 87.1244C182.59 87.0311 182.508 86.9591 182.41 86.9223C182.33 86.9107 182.25 86.915 182.172 86.9351C182.094 86.9552 182.021 86.9906 181.958 87.0393C181.869 87.0936 181.785 87.1559 181.708 87.2255C181.63 87.2983 181.562 87.3805 181.506 87.4702C181.447 87.5556 181.4 87.6486 181.367 87.7468C181.334 87.839 181.316 87.936 181.314 88.034C181.308 88.1235 181.324 88.2132 181.362 88.2946C181.378 88.3232 181.401 88.3474 181.429 88.365C181.457 88.3826 181.489 88.3931 181.521 88.3957C181.62 88.4129 181.721 88.4129 181.819 88.3957L182.282 88.2946C182.455 88.2464 182.634 88.2249 182.814 88.2308C182.942 88.2297 183.068 88.2708 183.17 88.3478C183.268 88.4309 183.34 88.5397 183.378 88.6617C183.425 88.8349 183.446 89.0141 183.442 89.1936C183.441 89.4312 183.407 89.6676 183.341 89.8957C183.276 90.1302 183.181 90.3555 183.059 90.5659C182.931 90.7837 182.777 90.9854 182.601 91.167C182.422 91.3479 182.22 91.5052 182 91.635C181.836 91.7344 181.656 91.8046 181.468 91.8425C181.317 91.8715 181.161 91.8586 181.016 91.8053C180.881 91.7454 180.768 91.6426 180.697 91.5127C180.61 91.349 180.564 91.1663 180.564 90.9808C180.558 90.9215 180.571 90.8618 180.601 90.8106C180.62 90.7624 180.654 90.7215 180.697 90.6936L181.048 90.4914C181.101 90.4595 181.149 90.4489 181.176 90.4648C181.194 90.4732 181.211 90.4857 181.223 90.5014C181.236 90.5171 181.246 90.5355 181.25 90.5553C181.274 90.609 181.303 90.6605 181.335 90.7095C181.37 90.7563 181.418 90.7914 181.474 90.8106C181.544 90.8267 181.616 90.8267 181.686 90.8106C181.799 90.784 181.907 90.739 182.006 90.6776C182.106 90.6174 182.202 90.5499 182.293 90.4755C182.386 90.4026 182.469 90.3166 182.537 90.2202C182.606 90.1283 182.663 90.0282 182.708 89.9223C182.75 89.8157 182.772 89.702 182.771 89.5872C182.776 89.5455 182.773 89.5033 182.761 89.463C182.749 89.4228 182.729 89.3854 182.702 89.3532C182.674 89.3278 182.64 89.309 182.603 89.298C182.566 89.2869 182.528 89.284 182.49 89.2893C182.371 89.2966 182.253 89.3162 182.138 89.3478C182 89.3797 181.835 89.417 181.654 89.4489C181.51 89.4845 181.361 89.4953 181.213 89.4808C181.098 89.4747 180.988 89.4276 180.904 89.3478C180.814 89.2572 180.751 89.1429 180.724 89.018C180.676 88.8358 180.655 88.6478 180.66 88.4595C180.662 88.2238 180.696 87.9893 180.761 87.7627C180.827 87.5327 180.919 87.3113 181.037 87.1032C181.153 86.8962 181.294 86.7049 181.458 86.534C181.601 86.3653 181.77 86.2199 181.958 86.1032Z" fill="#FAFAFA"/>
<path d="M185.836 86.7678L185.405 89.3157C185.393 89.3923 185.371 89.4672 185.341 89.5391C185.321 89.5964 185.282 89.6451 185.23 89.6774L184.826 89.9114C184.772 89.9433 184.735 89.9433 184.709 89.9114C184.673 89.8677 184.652 89.8135 184.65 89.7571L184.012 85.2625C184.012 85.2625 184.012 85.2199 184.012 85.204C184.013 85.1448 184.028 85.0867 184.054 85.0338C184.074 84.9865 184.108 84.9459 184.15 84.9167L184.517 84.704C184.548 84.6916 184.582 84.6916 184.613 84.704C184.645 84.704 184.666 84.7465 184.677 84.8316L185.097 87.8582L185.464 85.587C185.473 85.5303 185.489 85.475 185.512 85.4221C185.533 85.3548 185.578 85.2978 185.639 85.2625L186.049 85.0231C186.107 84.9912 186.15 84.9965 186.177 85.0231C186.2 85.057 186.216 85.0949 186.224 85.1348L186.597 86.9806L187.017 83.4699C187.022 83.4009 187.042 83.3337 187.076 83.2731C187.1 83.2334 187.133 83.199 187.171 83.1721L187.538 82.9593C187.552 82.949 187.569 82.9434 187.586 82.9434C187.603 82.9434 187.62 82.949 187.634 82.9593C187.649 82.9767 187.661 82.997 187.668 83.0189C187.675 83.0408 187.678 83.0639 187.677 83.087C187.679 83.1082 187.679 83.1296 187.677 83.1508L187.038 88.3795C187.028 88.456 187.008 88.531 186.98 88.6029C186.955 88.6597 186.915 88.7078 186.863 88.7412L186.453 88.9752C186.405 89.0018 186.368 89.0018 186.341 88.9752C186.315 88.9264 186.293 88.8746 186.278 88.821L185.836 86.7678Z" fill="#FAFAFA"/>
<path d="M188.325 84.5127C188.336 84.2178 188.372 83.9243 188.431 83.6351C188.492 83.3524 188.585 83.0776 188.708 82.8159C188.825 82.5615 188.975 82.3237 189.154 82.1085C189.336 81.895 189.554 81.715 189.798 81.5766C189.985 81.4495 190.205 81.3776 190.431 81.3691C190.6 81.371 190.762 81.4376 190.883 81.5553C191.012 81.7001 191.105 81.8732 191.154 82.0606C191.223 82.3049 191.261 82.5569 191.266 82.8106C191.266 82.9064 191.266 83.0127 191.266 83.1298C191.266 83.2468 191.266 83.3691 191.266 83.4968C191.266 83.6244 191.266 83.7468 191.266 83.8638C191.266 83.9808 191.266 84.0925 191.266 84.1936C191.255 84.4868 191.219 84.7785 191.16 85.0659C191.098 85.3477 191.007 85.6223 190.888 85.8851C190.768 86.1387 190.616 86.3763 190.436 86.5925C190.255 86.804 190.039 86.9837 189.798 87.1244C189.606 87.2507 189.384 87.3224 189.154 87.3319C189.072 87.3336 188.989 87.3184 188.912 87.2873C188.836 87.2562 188.766 87.2099 188.708 87.151C188.569 87.0021 188.473 86.8182 188.431 86.6191C188.368 86.3739 188.332 86.1223 188.325 85.8691C188.325 85.7734 188.325 85.667 188.325 85.55C188.325 85.4329 188.325 85.3106 188.325 85.1829C188.325 85.0553 188.325 84.9383 188.325 84.8159C188.325 84.6936 188.319 84.6085 188.325 84.5127ZM190.591 83.2415C190.602 83.1113 190.588 82.9802 190.548 82.8558C190.507 82.7315 190.442 82.6166 190.357 82.5181C190.218 82.3957 190.027 82.4011 189.798 82.5181C189.55 82.664 189.353 82.8833 189.234 83.1457C189.083 83.4558 189.003 83.7956 189 84.1404C189 84.3372 189 84.5553 189 84.7947C189 85.034 189 85.2468 189 85.4383C188.988 85.5684 189.003 85.6996 189.043 85.8239C189.083 85.9482 189.148 86.0631 189.234 86.1617C189.373 86.2787 189.564 86.268 189.798 86.1351C190.042 85.9881 190.237 85.7713 190.357 85.5127C190.507 85.2046 190.587 84.8665 190.591 84.5234C190.591 84.3213 190.591 84.1032 190.591 83.8638C190.591 83.6244 190.596 83.433 190.591 83.2415Z" fill="#FAFAFA"/>
<path d="M193.585 79.4546C194.005 79.2152 194.319 79.178 194.537 79.3535C194.667 79.4959 194.763 79.6651 194.819 79.8491C194.875 80.033 194.889 80.2271 194.862 80.4173C194.866 80.7786 194.81 81.1381 194.697 81.4812C194.589 81.8007 194.421 82.0967 194.202 82.3535L194.894 83.8588C194.896 83.8836 194.896 83.9085 194.894 83.9333C194.894 83.9812 194.883 84.0286 194.862 84.0716C194.847 84.1102 194.821 84.1435 194.787 84.1673L194.362 84.412C194.293 84.4492 194.245 84.4545 194.213 84.412C194.185 84.3841 194.161 84.3517 194.144 84.3162L193.489 82.896L192.825 83.279V85.0769C192.825 85.1357 192.812 85.1938 192.787 85.2471C192.765 85.2933 192.733 85.3335 192.692 85.3641L192.287 85.5981C192.274 85.6094 192.257 85.6156 192.239 85.6156C192.222 85.6156 192.205 85.6094 192.192 85.5981C192.176 85.5819 192.165 85.5626 192.157 85.5415C192.15 85.5204 192.147 85.498 192.149 85.4758V80.5024C192.151 80.4433 192.165 80.3852 192.192 80.3322C192.21 80.2841 192.244 80.2431 192.287 80.2152L193.585 79.4546ZM192.835 82.3163L193.585 81.912C193.768 81.8097 193.925 81.6657 194.043 81.4918C194.166 81.2868 194.225 81.0498 194.213 80.8109C194.213 80.5237 194.154 80.3641 194.043 80.3322C193.881 80.3102 193.717 80.3522 193.585 80.4492L192.862 80.8641L192.835 82.3163Z" fill="#FAFAFA"/>
<path d="M197.148 77.4055C197.342 77.2795 197.563 77.2028 197.792 77.1821C197.959 77.1759 198.121 77.2351 198.244 77.347C198.385 77.4951 198.483 77.6791 198.526 77.8789C198.598 78.1427 198.637 78.4141 198.643 78.6874C198.643 79.0597 198.643 79.4427 198.643 79.831C198.632 80.1477 198.593 80.4628 198.526 80.7725C198.465 81.0603 198.373 81.3404 198.25 81.6076C198.131 81.853 197.981 82.0818 197.803 82.2884C197.625 82.4999 197.413 82.6797 197.175 82.8203L195.914 83.5065C195.901 83.5178 195.884 83.5239 195.867 83.5239C195.849 83.5239 195.832 83.5178 195.819 83.5065C195.803 83.4904 195.791 83.4711 195.784 83.45C195.777 83.4289 195.774 83.4064 195.776 83.3842V78.4108C195.778 78.3516 195.792 78.2935 195.819 78.2406C195.837 78.1924 195.871 78.1515 195.914 78.1236L197.148 77.4055ZM197.968 79.0597C197.965 78.9157 197.944 78.7726 197.904 78.6342C197.879 78.5295 197.826 78.4337 197.75 78.3576C197.716 78.3242 197.676 78.298 197.632 78.2806C197.588 78.2633 197.541 78.2551 197.494 78.2565C197.361 78.2654 197.233 78.3095 197.122 78.3842L196.452 78.7672V82.2352L197.148 81.8363C197.283 81.7578 197.404 81.6571 197.505 81.5384C197.604 81.4218 197.688 81.2931 197.755 81.1555C197.821 81.0089 197.871 80.8555 197.904 80.698C197.941 80.5337 197.962 80.3663 197.968 80.198C197.984 79.8097 197.984 79.4321 197.968 79.0597Z" fill="#FAFAFA"/>
<path d="M124.107 0.203873C125.025 0.408169 125.91 0.741251 126.734 1.19323C127.524 1.61784 128.232 2.17982 128.825 2.85279C129.392 3.50016 129.813 4.26213 130.059 5.08682C130.31 5.96959 130.328 6.9023 130.112 7.79425C129.969 8.50143 129.689 9.17372 129.288 9.77296C128.921 10.2854 128.484 10.7438 127.99 11.1347C127.504 11.5115 126.986 11.8444 126.442 12.1293L124.91 12.9432C124.448 13.1838 124.01 13.467 123.601 13.7889C123.231 14.0727 122.948 14.454 122.782 14.8899C122.701 15.0891 122.567 15.2621 122.394 15.3899C122.312 15.4535 122.217 15.4976 122.116 15.5188C122.014 15.54 121.909 15.5377 121.809 15.5123L119.554 15.0123C119.445 14.9895 119.342 14.9453 119.251 14.8823C119.159 14.8193 119.082 14.7387 119.022 14.6453C118.958 14.5584 118.916 14.4578 118.898 14.3515C118.881 14.2452 118.888 14.1363 118.921 14.0336C119.102 13.3351 119.422 12.6803 119.862 12.1081C120.263 11.6019 120.728 11.1496 121.245 10.7623C121.749 10.3936 122.283 10.068 122.841 9.78892C123.373 9.51764 123.905 9.257 124.367 8.99637C124.798 8.76499 125.203 8.48862 125.575 8.1719C125.901 7.89849 126.128 7.52426 126.218 7.10808C126.303 6.7467 126.299 6.37019 126.206 6.01078C126.114 5.65136 125.935 5.31974 125.687 5.04427C125.065 4.36518 124.233 3.91389 123.325 3.76236C121.644 3.39002 120.226 3.95562 119.07 5.45916C118.958 5.62328 118.817 5.76568 118.655 5.87937C118.471 5.97038 118.259 5.98566 118.064 5.92192L115.665 5.39001C115.494 5.35695 115.343 5.25751 115.245 5.11341C115.193 5.03643 115.158 4.94908 115.142 4.8573C115.126 4.76552 115.131 4.67146 115.155 4.5815C115.359 3.84238 115.738 3.16353 116.261 2.60279C116.851 1.95251 117.551 1.4122 118.33 1.00706C119.182 0.56153 120.1 0.256196 121.048 0.102811C122.065 -0.062513 123.104 -0.0281862 124.107 0.203873ZM121.559 17.3208C121.77 17.3703 121.953 17.5005 122.069 17.6834C122.186 17.8663 122.226 18.0874 122.181 18.2995L121.607 20.9059C121.587 21.015 121.545 21.1188 121.483 21.2104C121.42 21.3021 121.339 21.3796 121.245 21.4378C121.156 21.4992 121.055 21.5413 120.949 21.5614C120.843 21.5816 120.733 21.5793 120.628 21.5548L118.054 20.9644C117.944 20.9459 117.84 20.904 117.748 20.8416C117.656 20.7792 117.579 20.6977 117.522 20.6027C117.462 20.5128 117.421 20.4118 117.402 20.3057C117.383 20.1996 117.386 20.0907 117.41 19.9857L117.99 17.3793C118.039 17.168 118.169 16.9843 118.352 16.8672C118.535 16.75 118.756 16.7086 118.968 16.7516L121.559 17.3208Z" fill="#F08C51"/>
<path d="M126.947 25.1541C127.587 25.0514 128.239 25.0388 128.883 25.1169C129.498 25.19 130.096 25.37 130.649 25.6488C131.176 25.9221 131.639 26.3026 132.01 26.7658C132.344 27.2191 132.579 27.7374 132.7 28.2871C132.821 28.8368 132.825 29.4058 132.713 29.9573C132.611 30.3813 132.448 30.7881 132.229 31.1647C132.017 31.531 131.771 31.8765 131.495 32.1966C131.223 32.5158 130.963 32.8189 130.723 33.1115C130.489 33.3841 130.281 33.6779 130.101 33.9892C129.932 34.262 129.847 34.5782 129.856 34.8987C129.852 35.0485 129.81 35.1948 129.734 35.3242C129.695 35.3839 129.645 35.4347 129.585 35.4732C129.525 35.5117 129.458 35.5371 129.388 35.5476L127.792 35.803C127.718 35.8165 127.641 35.815 127.567 35.7986C127.493 35.7821 127.423 35.7511 127.362 35.7072C127.299 35.6677 127.246 35.6138 127.208 35.55C127.17 35.4862 127.148 35.4143 127.143 35.3402C127.077 34.8452 127.113 34.3418 127.25 33.8615C127.375 33.4363 127.554 33.0288 127.782 32.6487C128.005 32.284 128.262 31.9404 128.548 31.6221C128.83 31.303 129.08 31.0051 129.324 30.7179C129.543 30.4614 129.732 30.1813 129.888 29.8828C130.027 29.6259 130.077 29.3307 130.032 29.0424C129.992 28.7886 129.891 28.5483 129.738 28.3418C129.585 28.1352 129.385 27.9687 129.154 27.8562C128.582 27.58 127.935 27.5014 127.314 27.6328C126.751 27.7151 126.228 27.9693 125.815 28.3607C125.403 28.7521 125.122 29.2615 125.011 29.819C124.979 29.9531 124.925 30.0808 124.851 30.1966C124.756 30.2976 124.627 30.3601 124.489 30.3722L122.808 30.6434C122.69 30.666 122.568 30.6412 122.468 30.5743C122.417 30.5391 122.374 30.4934 122.342 30.4401C122.309 30.3869 122.289 30.3275 122.282 30.2658C122.232 29.7379 122.314 29.206 122.521 28.7179C122.732 28.15 123.041 27.624 123.436 27.1647C123.869 26.6618 124.379 26.2309 124.947 25.8881C125.56 25.5164 126.239 25.2672 126.947 25.1541ZM129.691 36.7764C129.765 36.7647 129.839 36.7677 129.912 36.785C129.984 36.8024 130.052 36.8338 130.112 36.8774C130.174 36.9186 130.227 36.9726 130.268 37.0359C130.308 37.0992 130.335 37.1702 130.346 37.2444L130.643 39.0689C130.667 39.2169 130.63 39.368 130.543 39.4895C130.455 39.611 130.323 39.693 130.175 39.7178L128.393 40.0104C128.246 40.0333 128.095 39.997 127.973 39.9093C127.912 39.8676 127.859 39.8133 127.82 39.7501C127.781 39.6869 127.755 39.6161 127.745 39.5423L127.447 37.7178C127.433 37.6446 127.435 37.5694 127.453 37.497C127.47 37.4246 127.502 37.3567 127.548 37.2976C127.589 37.2359 127.644 37.1837 127.707 37.1443C127.77 37.1049 127.841 37.0792 127.915 37.0689L129.691 36.7764Z" fill="#F08C51"/>
<g opacity="0.2">
<path d="M126.947 25.1541C127.587 25.0514 128.239 25.0388 128.883 25.1169C129.498 25.19 130.096 25.37 130.649 25.6488C131.176 25.9221 131.639 26.3026 132.01 26.7658C132.344 27.2191 132.579 27.7374 132.7 28.2871C132.821 28.8368 132.825 29.4058 132.713 29.9573C132.611 30.3813 132.448 30.7881 132.229 31.1647C132.017 31.531 131.771 31.8765 131.495 32.1966C131.223 32.5158 130.963 32.8189 130.723 33.1115C130.489 33.3841 130.281 33.6779 130.101 33.9892C129.932 34.262 129.847 34.5782 129.856 34.8987C129.852 35.0485 129.81 35.1948 129.734 35.3242C129.695 35.3839 129.645 35.4347 129.585 35.4732C129.525 35.5117 129.458 35.5371 129.388 35.5476L127.792 35.803C127.718 35.8165 127.641 35.815 127.567 35.7986C127.493 35.7821 127.423 35.7511 127.362 35.7072C127.299 35.6677 127.246 35.6138 127.208 35.55C127.17 35.4862 127.148 35.4143 127.143 35.3402C127.077 34.8452 127.113 34.3418 127.25 33.8615C127.375 33.4363 127.554 33.0288 127.782 32.6487C128.005 32.284 128.262 31.9404 128.548 31.6221C128.83 31.303 129.08 31.0051 129.324 30.7179C129.543 30.4614 129.732 30.1813 129.888 29.8828C130.027 29.6259 130.077 29.3307 130.032 29.0424C129.992 28.7886 129.891 28.5483 129.738 28.3418C129.585 28.1352 129.385 27.9687 129.154 27.8562C128.582 27.58 127.935 27.5014 127.314 27.6328C126.751 27.7151 126.228 27.9693 125.815 28.3607C125.403 28.7521 125.122 29.2615 125.011 29.819C124.979 29.9531 124.925 30.0808 124.851 30.1966C124.756 30.2976 124.627 30.3601 124.489 30.3722L122.808 30.6434C122.69 30.666 122.568 30.6412 122.468 30.5743C122.417 30.5391 122.374 30.4934 122.342 30.4401C122.309 30.3869 122.289 30.3275 122.282 30.2658C122.232 29.7379 122.314 29.206 122.521 28.7179C122.732 28.15 123.041 27.624 123.436 27.1647C123.869 26.6618 124.379 26.2309 124.947 25.8881C125.56 25.5164 126.239 25.2672 126.947 25.1541ZM129.691 36.7764C129.765 36.7647 129.839 36.7677 129.912 36.785C129.984 36.8024 130.052 36.8338 130.112 36.8774C130.174 36.9186 130.227 36.9726 130.268 37.0359C130.308 37.0992 130.335 37.1702 130.346 37.2444L130.643 39.0689C130.667 39.2169 130.63 39.368 130.543 39.4895C130.455 39.611 130.323 39.693 130.175 39.7178L128.393 40.0104C128.246 40.0333 128.095 39.997 127.973 39.9093C127.912 39.8676 127.859 39.8133 127.82 39.7501C127.781 39.6869 127.755 39.6161 127.745 39.5423L127.447 37.7178C127.433 37.6446 127.435 37.5694 127.453 37.497C127.47 37.4246 127.502 37.3567 127.548 37.2976C127.589 37.2359 127.644 37.1837 127.707 37.1443C127.77 37.1049 127.841 37.0792 127.915 37.0689L129.691 36.7764Z" fill="black"/>
</g>
<path d="M141.991 28.0239C142.063 28.0743 142.125 28.139 142.171 28.214C142.218 28.289 142.249 28.3727 142.262 28.4601C142.279 28.5466 142.278 28.6357 142.259 28.7218C142.239 28.8078 142.203 28.889 142.15 28.9601L140.884 30.742C140.834 30.8145 140.769 30.876 140.694 30.9226C140.619 30.9693 140.536 31.0001 140.448 31.0133C140.362 31.0302 140.273 31.029 140.187 31.0098C140.101 30.9905 140.019 30.9537 139.948 30.9016L138.204 29.6622C138.131 29.6125 138.07 29.5479 138.024 29.4727C137.978 29.3975 137.949 29.3134 137.938 29.226C137.921 29.1395 137.922 29.0504 137.941 28.9643C137.96 28.8783 137.997 28.7971 138.049 28.726L139.331 26.9441C139.435 26.7997 139.591 26.702 139.767 26.6721C139.942 26.6422 140.122 26.6826 140.267 26.7846L141.991 28.0239ZM149.352 15.9548C149.989 16.4007 150.555 16.9384 151.033 17.5506C151.5 18.12 151.86 18.7686 152.097 19.4655C152.318 20.1333 152.392 20.8408 152.315 21.5399C152.225 22.2854 151.943 22.9948 151.496 23.5984C151.164 24.0865 150.737 24.5026 150.241 24.8218C149.804 25.0957 149.329 25.3036 148.831 25.4388C148.346 25.5655 147.852 25.6509 147.352 25.6941L145.938 25.8218C145.513 25.8557 145.093 25.9287 144.682 26.0399C144.303 26.1259 143.957 26.3178 143.682 26.5931C143.558 26.7189 143.402 26.8073 143.23 26.8484C143.149 26.8718 143.062 26.8753 142.979 26.8587C142.896 26.842 142.818 26.8057 142.751 26.7526L141.209 25.6569C141.061 25.5516 140.96 25.3934 140.927 25.2154C140.907 25.1292 140.908 25.0394 140.929 24.9535C140.95 24.8675 140.992 24.7878 141.049 24.7207C141.41 24.2532 141.86 23.8625 142.374 23.5718C142.836 23.3192 143.33 23.1279 143.842 23.0027C144.336 22.8828 144.84 22.8063 145.347 22.7739C145.847 22.742 146.315 22.7048 146.751 22.6622C147.151 22.627 147.545 22.5485 147.927 22.4282C148.261 22.3169 148.549 22.0981 148.746 21.8059C148.924 21.5591 149.039 21.2731 149.083 20.9722C149.127 20.6712 149.097 20.3641 148.996 20.0772C148.744 19.3682 148.263 18.7636 147.629 18.3591C146.48 17.5399 145.227 17.5133 143.868 18.2793C143.732 18.3663 143.58 18.4276 143.422 18.4601C143.339 18.4659 143.256 18.4552 143.178 18.4288C143.099 18.4023 143.026 18.3605 142.964 18.3059L141.326 17.141C141.267 17.1016 141.216 17.0507 141.177 16.9913C141.137 16.9319 141.11 16.8653 141.097 16.7953C141.084 16.7229 141.087 16.6486 141.104 16.5772C141.122 16.5058 141.154 16.4388 141.198 16.3804C141.585 15.8851 142.087 15.4924 142.661 15.2368C143.313 14.9414 144.011 14.7614 144.725 14.7049C145.51 14.6392 146.3 14.7021 147.065 14.891C147.891 15.0899 148.668 15.4516 149.352 15.9548Z" fill="#F08C51"/>
<g opacity="0.6">
<path d="M141.991 28.0239C142.063 28.0743 142.125 28.139 142.171 28.214C142.218 28.289 142.249 28.3727 142.262 28.4601C142.279 28.5466 142.278 28.6357 142.259 28.7218C142.239 28.8078 142.203 28.889 142.15 28.9601L140.884 30.742C140.834 30.8145 140.769 30.876 140.694 30.9226C140.619 30.9693 140.536 31.0001 140.448 31.0133C140.362 31.0302 140.273 31.029 140.187 31.0098C140.101 30.9905 140.019 30.9537 139.948 30.9016L138.204 29.6622C138.131 29.6125 138.07 29.5479 138.024 29.4727C137.978 29.3975 137.949 29.3134 137.938 29.226C137.921 29.1395 137.922 29.0504 137.941 28.9643C137.96 28.8783 137.997 28.7971 138.049 28.726L139.331 26.9441C139.435 26.7997 139.591 26.702 139.767 26.6721C139.942 26.6422 140.122 26.6826 140.267 26.7846L141.991 28.0239ZM149.352 15.9548C149.989 16.4007 150.555 16.9384 151.033 17.5506C151.5 18.12 151.86 18.7686 152.097 19.4655C152.318 20.1333 152.392 20.8408 152.315 21.5399C152.225 22.2854 151.943 22.9948 151.496 23.5984C151.164 24.0865 150.737 24.5026 150.241 24.8218C149.804 25.0957 149.329 25.3036 148.831 25.4388C148.346 25.5655 147.852 25.6509 147.352 25.6941L145.938 25.8218C145.513 25.8557 145.093 25.9287 144.682 26.0399C144.303 26.1259 143.957 26.3178 143.682 26.5931C143.558 26.7189 143.402 26.8073 143.23 26.8484C143.149 26.8718 143.062 26.8753 142.979 26.8587C142.896 26.842 142.818 26.8057 142.751 26.7526L141.209 25.6569C141.061 25.5516 140.96 25.3934 140.927 25.2154C140.907 25.1292 140.908 25.0394 140.929 24.9535C140.95 24.8675 140.992 24.7878 141.049 24.7207C141.41 24.2532 141.86 23.8625 142.374 23.5718C142.836 23.3192 143.33 23.1279 143.842 23.0027C144.336 22.8828 144.84 22.8063 145.347 22.7739C145.847 22.742 146.315 22.7048 146.751 22.6622C147.151 22.627 147.545 22.5485 147.927 22.4282C148.261 22.3169 148.549 22.0981 148.746 21.8059C148.924 21.5591 149.039 21.2731 149.083 20.9722C149.127 20.6712 149.097 20.3641 148.996 20.0772C148.744 19.3682 148.263 18.7636 147.629 18.3591C146.48 17.5399 145.227 17.5133 143.868 18.2793C143.732 18.3663 143.58 18.4276 143.422 18.4601C143.339 18.4659 143.256 18.4552 143.178 18.4288C143.099 18.4023 143.026 18.3605 142.964 18.3059L141.326 17.141C141.267 17.1016 141.216 17.0507 141.177 16.9913C141.137 16.9319 141.11 16.8653 141.097 16.7953C141.084 16.7229 141.087 16.6486 141.104 16.5772C141.122 16.5058 141.154 16.4388 141.198 16.3804C141.585 15.8851 142.087 15.4924 142.661 15.2368C143.313 14.9414 144.011 14.7614 144.725 14.7049C145.51 14.6392 146.3 14.7021 147.065 14.891C147.891 15.0899 148.668 15.4516 149.352 15.9548Z" fill="white"/>
</g>
<path d="M102.379 75.1057H83.4805V29.3188C83.4805 25.342 85.0602 21.5281 87.8723 18.716C90.6843 15.904 94.4982 14.3242 98.4751 14.3242H100.22C104.197 14.3242 108.01 15.904 110.822 18.716C113.635 21.5281 115.214 25.342 115.214 29.3188V62.2973C115.207 65.6968 113.852 68.9546 111.446 71.3558C109.039 73.7571 105.779 75.1057 102.379 75.1057Z" fill="#263238"/>
<path d="M81.6405 185.334C81.3063 187.231 81.1284 189.152 81.1086 191.079C81.0395 194.568 80.4012 195.807 80.3161 198.669C80.215 201.94 80.7842 203.164 82.1086 205.004C83.4331 206.844 86.8958 208.509 88.3958 205.403C89.8958 202.297 89.6777 200.259 89.2043 197.052C88.7203 193.733 88.6724 191.898 88.3745 189.371C88.1299 187.142 87.8426 185.446 87.8426 185.446L81.6405 185.334Z" fill="#263238"/>
<path d="M91.544 162.161L80.0547 161.953C80.2249 169.623 81.443 178.139 81.6504 185.357C81.693 186.714 81.6185 195.884 82.1291 198.655C82.9004 202.846 87.8685 202.277 88.1344 199.772C88.4004 197.267 87.8153 186.559 87.8312 185.453C87.7834 180.836 89.9589 173.043 91.0812 164.756C91.1291 164.357 91.4908 162.559 91.544 162.161Z" fill="#FFA8A7"/>
<path d="M106.303 179.368C106.303 179.368 105.851 179.124 105.771 179.608C105.659 180.182 105.489 181.368 105.239 182.315C104.909 183.629 104.633 185.794 104.829 186.868C105.026 187.943 107.526 189.315 109.149 189.815C111.148 190.432 112.971 191.517 114.468 192.98C116.063 194.491 119.537 195.916 121.914 195.9C124.707 195.9 126.654 194.969 127.574 193.475C128.494 191.98 126.734 191.799 123.542 189.751L121.069 188.156C116.01 184.852 114.154 183.087 112.734 179.783L106.303 179.368Z" fill="#263238"/>
<path d="M112.778 177.32C112.693 174.948 114.331 154.783 114.331 154.783L103.422 159.757C105.757 173.703 106.257 176.996 106.294 179.278C106.246 179.469 106.227 179.666 106.236 179.863C106.236 182.57 109.305 184.033 111.688 185.842C113.714 187.428 115.872 188.838 118.14 190.054C119.874 190.921 123.395 191.001 123.831 189.889C120.927 187.671 116.704 184.352 114.395 181.82C113.268 180.629 112.863 179.698 112.778 177.32Z" fill="#FFA8A7"/>
<path d="M84.7619 87.3145C80.5704 96.5112 80.5704 103.628 81.2672 115.367C81.8843 126.139 82.9108 135.633 82.9108 135.633C82.7513 137.543 80.097 141.272 79.7513 149.718C79.4321 157.612 80.2832 167.649 80.2832 167.649C80.2832 167.649 86.2459 170.952 90.6555 167.617C90.6555 167.617 94.9108 147.303 96.1554 137.42C97.2193 128.798 99.1341 117.782 99.1341 117.782L103.161 137.362C102.292 140.14 101.662 142.987 101.278 145.873C100.714 151.686 103.969 163.101 103.969 163.101C103.969 163.101 110.129 164.936 113.889 161.601C113.889 161.601 115.294 143.043 115.82 136.043C116.522 126.665 115.044 101.282 113.889 87.841L84.7619 87.3145Z" fill="#455A64"/>
<path d="M99.1445 117.765L100.799 103.01C100.799 103.01 108.214 102.021 111.575 98.8613C110.613 100.367 109.331 101.642 107.821 102.596C106.311 103.55 104.609 104.16 102.836 104.383L100.442 118.111L103.16 137.361L99.1445 117.765Z" fill="#263238"/>
<path d="M129.171 83.6854C129.477 80.9928 129.612 78.2835 129.575 75.5737C129.41 73.2333 128.99 72.8504 125.719 68.7068C121.304 63.1057 117.532 58.0685 113.543 53.0633C110.692 49.4888 107.692 48.9409 104.777 49.1005C102.735 49.2122 106.724 59.0366 108.729 64.8504L120.181 77.1801C120.536 77.6667 120.699 78.2671 120.639 78.8663L119.947 89.3556L123.378 93.9513C123.378 93.9513 128.575 89.4726 129.171 83.6854Z" fill="#FFA8A7"/>
<path d="M93.7348 49.4222C91.5168 49.5764 87.4849 49.9541 87.4849 49.9541C85.1604 51.2519 84.57 52.3211 84.1392 55.4062C83.953 56.7253 85.0275 60.2306 85.9477 65.2146L87.6923 74.4539L87.5008 79.039C86.5966 81.8368 84.5487 85.3102 82.7402 90.4325C91.6232 95.3899 99.0699 95.5761 105.825 94.6878C110.974 94.0229 113.703 92.7783 114.612 91.5442C114.421 86.4857 114.08 83.3581 113.974 78.0709C113.937 75.8528 114.07 73.6082 114.16 71.055C117.612 68.2146 117.655 63.4912 115.756 60.4168C111.378 53.3264 107.118 48.8637 104.299 49.0924L93.7348 49.4222Z" fill="#F08C51"/>
<path opacity="0.6" d="M93.7348 49.4222C91.5168 49.5764 87.4849 49.9541 87.4849 49.9541C85.1604 51.2519 84.57 52.3211 84.1392 55.4062C83.953 56.7253 85.0275 60.2306 85.9477 65.2146L87.6923 74.4539L87.5008 79.039C86.5966 81.8368 84.5487 85.3102 82.7402 90.4325C91.6232 95.3899 99.0699 95.5761 105.825 94.6878C110.974 94.0229 113.703 92.7783 114.612 91.5442C114.421 86.4857 114.08 83.3581 113.974 78.0709C113.937 75.8528 114.07 73.6082 114.16 71.055C117.612 68.2146 117.655 63.4912 115.756 60.4168C111.378 53.3264 107.118 48.8637 104.299 49.0924L93.7348 49.4222Z" fill="white"/>
<path opacity="0.1" d="M107.285 71.1242C107.285 71.1242 103.232 74.2731 98.5987 72.6295C97.2978 72.2196 96.1246 71.4808 95.1928 70.4846C94.261 69.4885 93.602 68.2688 93.2796 66.9434C93.2796 66.9434 92.7903 72.2359 98.6253 74.0391C104.28 75.7784 107.285 71.1242 107.285 71.1242Z" fill="black"/>
<path d="M112.783 34.8947C112.608 42.5755 110.124 44.4691 108.869 45.001C107.613 45.5329 105.209 45.2137 102.869 44.8254V49.4637C102.869 49.4637 105.571 52.2935 105.369 54.4052C105.166 56.5168 101.113 56.7562 98.092 54.6871C96.425 53.542 94.9172 52.1808 93.608 50.6392C93.3567 50.3418 93.2191 49.9648 93.2197 49.5754V38.7244C93.2197 38.7244 91.9378 40.0808 89.6719 38.5276C89.183 38.2156 88.7643 37.8052 88.4426 37.3227C88.1208 36.8401 87.903 36.2959 87.8029 35.7246C87.7029 35.1532 87.7228 34.5674 87.8614 34.0042C88 33.441 88.2543 32.9128 88.6081 32.4532C89.5974 31.2883 92.108 31.2085 93.3102 32.9851C93.991 34.3095 94.0814 35.6446 94.8421 35.1127C96.8633 33.6553 95.7782 30.3255 98.2197 28.7298C99.0209 28.3116 99.8531 27.956 100.709 27.666C105.065 26.1607 108.842 24.8947 109.752 21.916C111.464 22.8947 112.996 25.8362 112.783 34.8947Z" fill="#FFA8A7"/>
<path d="M104.194 41.7576C104.752 41.7576 105.205 41.3051 105.205 40.747C105.205 40.1888 104.752 39.7363 104.194 39.7363C103.636 39.7363 103.184 40.1888 103.184 40.747C103.184 41.3051 103.636 41.7576 104.194 41.7576Z" fill="#B16668"/>
<path d="M103.522 33.7292C103.522 33.9373 103.461 34.1407 103.346 34.3143C103.231 34.488 103.068 34.6241 102.877 34.706C102.685 34.7878 102.474 34.8117 102.27 34.7748C102.065 34.7379 101.875 34.6417 101.725 34.4982C101.574 34.3547 101.469 34.1702 101.422 33.9675C101.375 33.7647 101.389 33.5527 101.461 33.3576C101.533 33.1625 101.662 32.993 101.829 32.87C101.997 32.7469 102.197 32.6758 102.405 32.6654C102.549 32.6582 102.693 32.6804 102.829 32.7306C102.964 32.7808 103.088 32.858 103.192 32.9575C103.297 33.057 103.38 33.1768 103.436 33.3094C103.493 33.4421 103.522 33.5849 103.522 33.7292Z" fill="#263238"/>
<path d="M111.581 33.8375C111.592 33.9677 111.576 34.0987 111.536 34.2229C111.496 34.3471 111.431 34.4621 111.346 34.5611C111.261 34.6601 111.157 34.7412 111.04 34.7996C110.923 34.858 110.796 34.8926 110.666 34.9013C110.534 34.9135 110.402 34.8975 110.277 34.8545C110.152 34.8115 110.038 34.7424 109.942 34.6519C109.846 34.5613 109.77 34.4513 109.72 34.3293C109.669 34.2072 109.645 34.0759 109.65 33.9439C109.636 33.8128 109.649 33.6803 109.689 33.5544C109.728 33.4286 109.792 33.3122 109.878 33.2122C109.964 33.1122 110.07 33.0308 110.188 32.973C110.307 32.9152 110.436 32.8822 110.567 32.8761C110.699 32.8699 110.831 32.8907 110.954 32.9372C111.077 32.9836 111.19 33.0548 111.285 33.1463C111.38 33.2378 111.455 33.3477 111.506 33.4693C111.557 33.5909 111.582 33.7217 111.581 33.8535V33.8375Z" fill="#263238"/>
<path d="M102.156 36.4647C101.239 36.4647 100.359 36.1006 99.7095 35.4524C99.0602 34.8041 98.6948 33.9248 98.6934 33.0073C98.6934 30.6562 101.119 30.6562 102.156 30.6562C103.193 30.6562 105.614 30.6562 105.614 33.0073C105.612 33.9238 105.247 34.8024 104.599 35.4505C103.951 36.0986 103.073 36.4633 102.156 36.4647ZM102.156 31.1988C100.028 31.1988 99.2412 31.7307 99.2412 33.0073C99.2412 33.7832 99.5494 34.5273 100.098 35.0759C100.647 35.6246 101.391 35.9328 102.167 35.9328C102.943 35.9328 103.687 35.6246 104.235 35.0759C104.784 34.5273 105.092 33.7832 105.092 33.0073C105.071 31.7041 104.252 31.1988 102.156 31.1988Z" fill="#455A64"/>
<path d="M110.937 36.4647C110.02 36.4647 109.14 36.1006 108.491 35.4524C107.841 34.8041 107.476 33.9248 107.475 33.0073C107.475 30.6562 109.9 30.6562 110.937 30.6562C111.975 30.6562 114.395 30.6562 114.395 33.0073C114.393 33.9238 114.029 34.8024 113.381 35.4505C112.732 36.0986 111.854 36.4633 110.937 36.4647ZM110.937 31.1988C108.842 31.1988 108.022 31.7307 108.022 33.0073C108.022 33.7832 108.331 34.5273 108.879 35.0759C109.428 35.6246 110.172 35.9328 110.948 35.9328C111.724 35.9328 112.468 35.6246 113.017 35.0759C113.565 34.5273 113.874 33.7832 113.874 33.0073C113.852 31.7041 113.033 31.1988 110.937 31.1988Z" fill="#455A64"/>
<path d="M106.15 31.8887L106.321 38.3514L109.72 37.2982L106.15 31.8887Z" fill="#F28F8F"/>
<path d="M102.864 44.8414C100.396 44.5169 95.316 43.0595 94.5234 41.0488C94.8424 42.065 95.4641 42.9595 96.3053 43.6126C97.8213 44.9158 102.864 46.3786 102.864 46.3786V44.8414Z" fill="#F28F8F"/>
<path d="M102.985 28.7509L100.729 30.1286C100.551 29.8189 100.5 29.4528 100.585 29.1061C100.67 28.7594 100.886 28.4588 101.187 28.2669C101.335 28.1766 101.501 28.1174 101.673 28.0929C101.846 28.0684 102.021 28.0791 102.189 28.1243C102.357 28.1696 102.514 28.2484 102.651 28.3561C102.788 28.4638 102.901 28.5981 102.985 28.7509Z" fill="#263238"/>
<path d="M112.161 30.2847L109.65 29.4071C109.699 29.2407 109.781 29.086 109.892 28.9525C110.002 28.819 110.139 28.7095 110.293 28.6308C110.448 28.5521 110.617 28.5058 110.79 28.4948C110.963 28.4837 111.136 28.5082 111.299 28.5666C111.636 28.6876 111.913 28.9335 112.074 29.2533C112.234 29.5732 112.265 29.9425 112.161 30.2847Z" fill="#263238"/>
<path d="M105.342 33.2827C105.306 33.2827 105.27 33.2755 105.237 33.2615C105.203 33.2475 105.173 33.2271 105.148 33.2013C105.123 33.1756 105.103 33.145 105.089 33.1115C105.076 33.078 105.07 33.0421 105.07 33.0061C105.07 32.5646 105.943 32.2773 106.73 32.2773C107.517 32.2773 108.022 32.5646 108.022 33.0061C108.006 33.0639 107.971 33.1147 107.923 33.1509C107.875 33.1871 107.817 33.2067 107.757 33.2067C107.696 33.2067 107.638 33.1871 107.59 33.1509C107.542 33.1147 107.507 33.0639 107.491 33.0061C107.491 32.9529 107.219 32.8199 106.746 32.8199C106.365 32.8118 105.986 32.8768 105.629 33.0114C105.629 33.0484 105.621 33.085 105.607 33.119C105.592 33.153 105.571 33.1837 105.544 33.2091C105.517 33.2345 105.485 33.2541 105.45 33.2668C105.416 33.2794 105.379 33.2848 105.342 33.2827Z" fill="#455A64"/>
<path d="M98.9735 33.048H98.9416L92.8619 32.5161C92.5778 32.2345 92.2394 32.0138 91.8672 31.8672L99.0054 32.5268C99.077 32.5361 99.1421 32.573 99.1868 32.6296C99.2315 32.6863 99.2523 32.7582 99.2448 32.8299C99.2323 32.8923 99.1983 32.9484 99.1487 32.9882C99.0992 33.0281 99.0371 33.0493 98.9735 33.048Z" fill="#455A64"/>
<path d="M74.0117 39.391C76.001 36.7315 77.3574 34.7262 79.1712 32.4762C80.2031 31.1836 80.8627 30.2581 81.8308 28.9336C82.5116 28.0188 82.8946 27.2475 83.6712 26.9656C84.5102 26.6218 85.2663 26.1032 85.8893 25.4443C86.2722 25.0207 86.6275 24.573 86.9531 24.1039C88.0931 22.5694 89.4473 21.2062 90.9743 20.056C92.5701 18.8539 94.352 17.9284 95.9956 16.7848C96.9743 16.0986 98.0222 14.9603 96.8307 13.8965C96.4652 13.5887 96.0279 13.3783 95.5594 13.2848C92.6605 12.6572 90.1392 13.6518 87.3041 14.3752C86.0727 14.6826 84.8683 15.09 83.7031 15.5933C83.13 15.82 82.5925 16.1281 82.1074 16.5082C81.4291 17.1921 80.8731 17.9873 80.4638 18.8592C79.2244 21.072 76.5648 23.0507 74.7032 24.8007C72.5276 26.8485 70.5808 28.7262 68.0968 30.9815C65.8628 33.0187 63.6766 34.8911 61.6288 37.1144C59.932 38.9495 60.5649 40.3857 60.7884 40.8857C62.1713 43.7261 63.7192 44.7474 65.5756 46.508C68.767 49.5559 79.8042 58.3271 83.4584 61.226C84.2436 61.8427 84.8602 62.6477 85.251 63.5664L85.9531 65.1887C90.1233 65.9547 92.9052 59.6941 89.4531 52.1569C88.8814 50.9381 88.0081 49.8854 86.9158 49.0984C82.5542 45.9229 74.0117 39.391 74.0117 39.391Z" fill="#FFA8A7"/>
<path d="M74.0117 39.3887C72.6844 41.0215 70.9155 42.2383 68.916 42.894C68.916 42.894 71.5756 43.5748 75.2192 40.3036L74.0117 39.3887Z" fill="#F28F8F"/>
<path d="M128.086 78.1409L127.405 77.5558C127.303 77.4888 127.187 77.4466 127.066 77.4328C126.945 77.4189 126.822 77.4337 126.708 77.476L119.32 79.4867C118.948 79.6107 118.607 79.8138 118.32 80.0818C118.034 80.3499 117.809 80.6767 117.66 81.0398L112.341 96.3748C112.277 96.4998 112.252 96.6411 112.269 96.7805C112.286 96.9199 112.344 97.0509 112.437 97.1567L113.139 97.7631C113.241 97.8336 113.359 97.8781 113.482 97.8929C113.605 97.9078 113.73 97.8924 113.846 97.8482L121.245 95.8376C121.617 95.7135 121.958 95.5105 122.245 95.2424C122.531 94.9744 122.756 94.6476 122.905 94.2844C123.969 91.2685 127.16 81.9654 128.224 78.9494C128.352 78.5718 128.288 78.2845 128.086 78.1409Z" fill="#455A64"/>
<path d="M113.037 96.9631L118.356 81.6281C118.504 81.2652 118.729 80.9388 119.015 80.6715C119.302 80.4042 119.643 80.2025 120.015 80.0802L127.398 78.0696C128.085 77.8834 128.462 78.2771 128.218 78.9473C127.154 81.9632 123.962 91.2663 122.898 94.2823C122.75 94.6454 122.525 94.9722 122.238 95.2403C121.952 95.5084 121.611 95.7114 121.239 95.8354L113.856 97.8674C113.175 98.0269 112.808 97.6333 113.037 96.9631Z" fill="#F08C51"/>
<path d="M119.214 80.5076C118.83 80.7985 118.532 81.1883 118.352 81.6352L113.033 96.9649C112.972 97.0867 112.947 97.2231 112.96 97.3586C112.973 97.4941 113.024 97.6232 113.108 97.7309L112.448 97.1671C112.354 97.0625 112.293 96.9317 112.275 96.7919C112.257 96.6522 112.282 96.5103 112.347 96.3852L117.666 81.0502C117.834 80.6332 118.107 80.2668 118.459 79.9863L119.214 80.5076Z" fill="#37474F"/>
<path d="M126.061 85.1275C125.529 86.686 123.684 87.7285 120.63 88.4519C117.577 89.1753 115.891 92.4147 116.375 93.3987C116.859 94.3827 121.795 95.3029 123.769 95.021C125.742 94.7391 127.721 91.8881 128.322 91.0051C128.923 90.1221 129.614 83.9626 128.981 83.1169C128.348 82.2711 127.013 82.4041 127.013 82.4041L126.061 85.1275Z" fill="#F28F8F"/>
</svg>
