<svg width="235" height="237" viewBox="0 0 235 237" fill="none" xmlns="http://www.w3.org/2000/svg">
<path d="M117.5 236.166C182.338 236.166 234.899 205.949 234.899 168.676C234.899 131.402 182.338 101.186 117.5 101.186C52.6627 101.186 0.101562 131.402 0.101562 168.676C0.101562 205.949 52.6627 236.166 117.5 236.166Z" fill="#F5F5F5"/>
<path d="M135.922 215.94C149.944 215.94 161.311 209.406 161.311 201.346C161.311 193.286 149.944 186.752 135.922 186.752C121.9 186.752 110.533 193.286 110.533 201.346C110.533 209.406 121.9 215.94 135.922 215.94Z" fill="#E0E0E0"/>
<path d="M122.728 151.927L54.8202 190.973C52.9087 192.093 49.5749 191.936 47.3654 190.665L23.2583 176.804C21.0545 175.539 20.8127 173.619 22.6961 172.522L90.6042 133.475C92.5157 132.356 95.8495 132.513 98.059 133.783L122.166 147.644C124.398 148.909 124.64 150.829 122.728 151.927Z" fill="#E0E0E0"/>
<path d="M195.846 165.556L201.198 168.652C201.198 168.652 198.5 160.076 199.995 151.443C200.356 149.411 201.094 147.463 202.171 145.7C202.593 144.827 205.82 139.447 202.98 136.961C200.141 134.476 193.479 139.419 193.777 152.709C193.92 157.061 194.615 161.378 195.846 165.556Z" fill="#F08C51"/>
<path opacity="0.5" d="M195.846 165.556L201.198 168.652C201.198 168.652 198.5 160.076 199.995 151.443C200.356 149.411 201.094 147.463 202.171 145.7C202.593 144.827 205.82 139.447 202.98 136.961C200.141 134.476 193.479 139.419 193.777 152.709C193.92 157.061 194.615 161.378 195.846 165.556Z" fill="black"/>
<path d="M198.338 167.242C198.288 167.242 198.239 167.226 198.198 167.197C198.156 167.168 198.125 167.127 198.108 167.08C198.108 167.024 196.067 161.432 196.174 152.464C196.281 143.495 201.043 138.625 201.093 138.58C201.115 138.558 201.141 138.54 201.17 138.528C201.199 138.516 201.23 138.51 201.262 138.51C201.293 138.51 201.324 138.516 201.353 138.528C201.382 138.54 201.409 138.558 201.431 138.58C201.453 138.603 201.471 138.629 201.483 138.659C201.496 138.688 201.502 138.719 201.502 138.751C201.502 138.783 201.496 138.814 201.483 138.844C201.471 138.873 201.453 138.899 201.431 138.922C201.386 138.967 196.764 143.652 196.657 152.469C196.551 161.286 198.546 166.862 198.563 166.918C198.575 166.947 198.581 166.978 198.58 167.01C198.579 167.042 198.572 167.073 198.559 167.101C198.546 167.13 198.527 167.156 198.503 167.177C198.48 167.199 198.453 167.215 198.423 167.226L198.338 167.242Z" fill="white"/>
<path d="M199.997 167.974L208.835 173.169C208.835 173.169 212.883 172.576 212.579 168.781C212.276 164.985 210.628 164.095 212.675 162.427C214.721 160.759 215.25 160.652 215.148 159.018C215.047 157.383 213.951 156.672 213.428 156.028C212.905 155.384 211.466 154.018 212.484 152.054C213.501 150.089 214.879 148.18 212.832 147.273C211.607 146.713 209.549 147.413 208.188 148.851C206.828 150.29 205.698 151.331 204.41 151.651C203.123 151.97 200.424 152.009 200.514 154.226C200.604 156.442 201.183 157.209 200.644 158.189C199.626 160.042 195.28 161.044 199.997 167.974Z" fill="#F08C51"/>
<path opacity="0.2" d="M199.997 167.974L208.835 173.169C208.835 173.169 212.883 172.576 212.579 168.781C212.276 164.985 210.628 164.095 212.675 162.427C214.721 160.759 215.25 160.652 215.148 159.018C215.047 157.383 213.951 156.672 213.428 156.028C212.905 155.384 211.466 154.018 212.484 152.054C213.501 150.089 214.879 148.18 212.832 147.273C211.607 146.713 209.549 147.413 208.188 148.851C206.828 150.29 205.698 151.331 204.41 151.651C203.123 151.97 200.424 152.009 200.514 154.226C200.604 156.442 201.183 157.209 200.644 158.189C199.626 160.042 195.28 161.044 199.997 167.974Z" fill="black"/>
<path d="M203.593 170.327C203.532 170.327 203.473 170.304 203.428 170.263C203.383 170.221 203.356 170.164 203.352 170.103C203.352 169.974 202.385 156.853 211.537 148.237C211.584 148.193 211.647 148.17 211.711 148.172C211.775 148.174 211.836 148.202 211.88 148.248C211.924 148.295 211.948 148.357 211.946 148.421C211.944 148.485 211.916 148.546 211.869 148.59C202.874 157.043 203.83 169.935 203.841 170.064C203.845 170.128 203.825 170.192 203.782 170.241C203.74 170.291 203.681 170.321 203.616 170.327H203.593Z" fill="white"/>
<path d="M205.203 159.08C205.142 159.08 205.083 159.057 205.038 159.016C204.993 158.974 204.966 158.917 204.961 158.856C204.893 157.849 204.619 156.866 204.157 155.967C203.695 155.068 203.055 154.272 202.274 153.628C202.248 153.609 202.226 153.585 202.21 153.558C202.193 153.531 202.182 153.501 202.177 153.469C202.172 153.438 202.173 153.406 202.181 153.375C202.188 153.344 202.202 153.315 202.221 153.289C202.239 153.263 202.263 153.242 202.29 153.225C202.318 153.208 202.348 153.197 202.38 153.192C202.411 153.187 202.443 153.189 202.474 153.196C202.506 153.204 202.535 153.217 202.561 153.236C203.404 153.92 204.095 154.771 204.592 155.734C205.088 156.698 205.378 157.753 205.445 158.834C205.449 158.897 205.429 158.959 205.388 159.007C205.347 159.056 205.289 159.086 205.225 159.092L205.203 159.08Z" fill="white"/>
<path d="M204.527 161.319C204.467 161.32 204.408 161.298 204.364 161.257C204.32 161.211 204.295 161.15 204.295 161.087C204.295 161.023 204.32 160.962 204.364 160.916C204.46 160.81 206.765 158.33 212.094 159.057C212.157 159.068 212.214 159.103 212.253 159.154C212.291 159.205 212.309 159.268 212.302 159.332C212.293 159.395 212.258 159.452 212.207 159.491C212.155 159.53 212.091 159.547 212.027 159.539C206.967 158.85 204.746 161.218 204.718 161.218C204.697 161.25 204.669 161.275 204.636 161.293C204.602 161.311 204.565 161.319 204.527 161.319Z" fill="white"/>
<path d="M33.7998 158.02L31.1631 163.59C31.1631 163.59 28.4926 155.003 22.3421 148.739C20.8908 147.267 19.1744 146.08 17.2823 145.24C16.4447 144.759 10.7215 142.15 11.6603 138.522C12.5992 134.895 20.8804 135.164 28.2115 146.287C30.5636 149.948 32.4412 153.89 33.7998 158.02Z" fill="#F08C51"/>
<path opacity="0.5" d="M33.7998 158.02L31.1631 163.59C31.1631 163.59 28.4926 155.003 22.3421 148.739C20.8908 147.267 19.1744 146.08 17.2823 145.24C16.4447 144.759 10.7215 142.15 11.6603 138.522C12.5992 134.895 20.8804 135.164 28.2115 146.287C30.5636 149.948 32.4412 153.89 33.7998 158.02Z" fill="black"/>
<path d="M32.573 160.855C32.5195 160.854 32.4675 160.837 32.4249 160.804C32.3824 160.772 32.3515 160.727 32.3369 160.675C32.3369 160.619 30.8189 154.949 25.6748 147.699C20.5307 140.45 14.0935 139.252 14.0541 139.241C14.0227 139.235 13.9926 139.224 13.9657 139.207C13.9388 139.19 13.9155 139.167 13.8972 139.141C13.8789 139.115 13.866 139.086 13.8591 139.055C13.8523 139.024 13.8517 138.992 13.8573 138.961C13.8697 138.898 13.9058 138.843 13.9582 138.806C14.0107 138.77 14.0752 138.755 14.1384 138.765C14.2059 138.765 20.8848 140.052 26.1021 147.419C31.3193 154.786 32.8485 160.496 32.8485 160.552C32.864 160.615 32.8544 160.681 32.8219 160.736C32.7893 160.791 32.7363 160.832 32.6742 160.849L32.573 160.855Z" fill="white"/>
<path d="M31.7654 162.361L27.4365 171.615C27.4365 171.615 23.7653 173.412 21.8595 170.115C19.9536 166.817 20.7913 165.155 18.1602 164.936C15.5291 164.718 15.0231 164.936 14.1742 163.531C13.3253 162.126 13.8256 160.917 13.8875 160.094C13.9493 159.271 14.3653 157.329 12.4033 156.282C10.4412 155.235 8.2205 154.451 9.3955 152.548C10.0926 151.428 12.1728 150.807 14.118 151.227C16.0632 151.647 17.5755 151.859 18.8292 151.406C20.0829 150.953 22.3148 149.452 23.5067 151.328C24.6986 153.203 24.6311 154.16 25.6599 154.686C27.5489 155.616 31.698 153.981 31.7654 162.361Z" fill="#F08C51"/>
<path opacity="0.2" d="M31.7654 162.361L27.4365 171.615C27.4365 171.615 23.7653 173.412 21.8595 170.115C19.9536 166.817 20.7913 165.155 18.1602 164.936C15.5291 164.718 15.0231 164.936 14.1742 163.531C13.3253 162.126 13.8256 160.917 13.8875 160.094C13.9493 159.271 14.3653 157.329 12.4033 156.282C10.4412 155.235 8.2205 154.451 9.3955 152.548C10.0926 151.428 12.1728 150.807 14.118 151.227C16.0632 151.647 17.5755 151.859 18.8292 151.406C20.0829 150.953 22.3148 149.452 23.5067 151.328C24.6986 153.203 24.6311 154.16 25.6599 154.686C27.5489 155.616 31.698 153.981 31.7654 162.361Z" fill="black"/>
<path d="M29.999 166.368C29.9564 166.368 29.9146 166.356 29.878 166.335C29.8413 166.313 29.8113 166.282 29.791 166.245C29.7235 166.133 23.1514 154.987 10.9404 153.1C10.9085 153.096 10.8779 153.084 10.8503 153.068C10.8227 153.051 10.7988 153.029 10.7799 153.003C10.7611 152.977 10.7476 152.947 10.7405 152.916C10.7333 152.885 10.7324 152.852 10.7381 152.82C10.7421 152.789 10.7526 152.758 10.7688 152.731C10.785 152.704 10.8067 152.68 10.8324 152.661C10.8582 152.642 10.8875 152.629 10.9187 152.621C10.9498 152.614 10.9821 152.613 11.0135 152.619C23.4606 154.545 30.1283 165.892 30.2127 166.004C30.233 166.041 30.2433 166.083 30.2426 166.125C30.242 166.168 30.2303 166.209 30.2088 166.246C30.1874 166.282 30.1568 166.313 30.12 166.334C30.0832 166.355 30.0416 166.367 29.999 166.368Z" fill="white"/>
<path d="M22.2912 158.006C22.2478 158.006 22.2053 157.994 22.1678 157.972C22.1303 157.951 22.0992 157.92 22.0775 157.882C21.5192 156.955 21.1596 155.923 21.0212 154.851C20.8828 153.779 20.9688 152.689 21.2736 151.652C21.2843 151.622 21.3008 151.595 21.3221 151.571C21.3434 151.548 21.3692 151.529 21.3979 151.515C21.4266 151.502 21.4577 151.494 21.4895 151.492C21.5212 151.491 21.5529 151.496 21.5828 151.506C21.6127 151.517 21.6402 151.533 21.6637 151.555C21.6873 151.576 21.7063 151.601 21.7199 151.63C21.7335 151.659 21.7413 151.69 21.7428 151.721C21.7444 151.753 21.7397 151.784 21.729 151.814C21.4541 152.786 21.3796 153.804 21.5101 154.805C21.6405 155.807 21.9731 156.772 22.4879 157.642C22.504 157.669 22.5144 157.7 22.5185 157.731C22.5227 157.763 22.5205 157.795 22.5122 157.826C22.5038 157.856 22.4894 157.885 22.4698 157.91C22.4502 157.935 22.4258 157.956 22.398 157.972C22.3659 157.992 22.3291 158.004 22.2912 158.006Z" fill="white"/>
<path d="M16.8997 162.26C16.866 162.26 16.8327 162.253 16.8018 162.239C16.7709 162.226 16.743 162.206 16.7198 162.182C16.6972 162.159 16.6792 162.133 16.667 162.104C16.6547 162.074 16.6484 162.043 16.6484 162.011C16.6484 161.979 16.6547 161.948 16.667 161.919C16.6792 161.889 16.6972 161.863 16.7198 161.84C20.6889 158.23 24.0284 158.969 24.1408 159.002C24.1719 159.009 24.2012 159.023 24.2271 159.041C24.253 159.06 24.2749 159.083 24.2917 159.11C24.3084 159.137 24.3196 159.168 24.3245 159.199C24.3295 159.23 24.3282 159.262 24.3207 159.293C24.3142 159.325 24.3013 159.354 24.2828 159.38C24.2643 159.407 24.2407 159.429 24.2133 159.446C24.1859 159.462 24.1554 159.473 24.1236 159.478C24.0918 159.483 24.0594 159.481 24.0284 159.472C23.9946 159.472 20.8126 158.773 17.0459 162.199C17.0048 162.234 16.9537 162.255 16.8997 162.26Z" fill="white"/>
<path d="M31.8267 45.2548C31.8272 43.6248 32.2581 42.0236 33.0761 40.6117C33.8941 39.1998 35.0705 38.0269 36.4873 37.2104L95.8106 3.10706C96.2064 2.87984 96.6483 2.7438 97.1038 2.70893C97.5593 2.67406 98.0168 2.74125 98.4429 2.90556C98.8689 3.06987 99.2525 3.32712 99.5656 3.65843C99.8786 3.98973 100.113 4.38666 100.252 4.82006C100.093 4.1257 99.7946 3.47041 99.3754 2.89332C98.9562 2.31624 98.4245 1.82918 97.812 1.46123L97.5984 1.33807C96.1221 0.463513 94.4363 0.00132658 92.7185 0.000135622C92.1695 -0.00504212 91.6294 0.138125 91.1556 0.414393L31.8323 34.5345C30.4133 35.349 29.2349 36.5214 28.4157 37.9336C27.5965 39.3458 27.1655 40.9481 27.166 42.5789V170.321C27.1667 170.855 27.3082 171.379 27.5764 171.841C27.8446 172.303 28.23 172.687 28.6941 172.954C29.1581 173.221 29.6845 173.362 30.2205 173.362C30.7565 173.363 31.2832 173.223 31.7479 172.958L31.8267 172.913V45.2548Z" fill="#37474F"/>
<path d="M95.7314 141.531L36.4081 175.634C35.9441 175.902 35.4175 176.043 34.8813 176.043C34.3451 176.044 33.8183 175.903 33.3539 175.637C32.8894 175.37 32.5037 174.986 32.2355 174.524C31.9673 174.062 31.8261 173.537 31.8262 173.003V45.2557C31.8268 43.6257 32.2577 42.0245 33.0757 40.6126C33.8937 39.2007 35.07 38.0277 36.4868 37.2112L95.8101 3.1079C96.2749 2.84204 96.8016 2.70245 97.3376 2.70313C97.8736 2.70381 98.3999 2.84473 98.864 3.11177C99.328 3.37881 99.7135 3.7626 99.9817 4.22467C100.25 4.68675 100.391 5.21089 100.392 5.74458V133.487C100.393 135.117 99.9622 136.718 99.1441 138.131C98.326 139.543 97.149 140.715 95.7314 141.531Z" fill="#455A64"/>
<path d="M31.8267 173.004V45.2559C31.8273 43.8642 32.1424 42.4905 32.7487 41.2365L28.1611 38.4375C27.5077 39.7315 27.167 41.1597 27.166 42.6081V171.419C27.1661 171.926 27.2983 172.424 27.5496 172.864C27.8009 173.305 28.1627 173.673 28.5996 173.933L30.9665 175.332C31.7857 175.82 32.7221 176.077 33.6763 176.077H34.8569C34.4553 176.073 34.0583 175.991 33.6886 175.834C33.319 175.678 32.9839 175.451 32.7025 175.165C32.4211 174.88 32.1989 174.542 32.0487 174.171C31.8984 173.8 31.8229 173.403 31.8267 173.004Z" fill="#263238"/>
<path d="M93.6901 15.3887V122.787C93.689 124.227 93.3076 125.642 92.5844 126.888C91.8611 128.135 90.8213 129.171 89.5692 129.891L37.1834 160.003C36.7885 160.231 36.3413 160.355 35.8848 160.361C36.0359 160.71 36.2593 161.022 36.5403 161.278C36.8213 161.534 37.1536 161.728 37.5152 161.847C37.8769 161.966 38.2597 162.007 38.6385 161.968C39.0174 161.929 39.3837 161.811 39.7133 161.621L92.0991 131.504C93.3509 130.783 94.3902 129.748 95.1126 128.501C95.835 127.254 96.215 125.839 96.2144 124.4V18.0645C96.2157 17.3821 95.955 16.725 95.4858 16.2276C95.0166 15.7302 94.3742 15.4301 93.6901 15.3887Z" fill="#37474F"/>
<path d="M35.8872 160.334C36.3438 160.327 36.791 160.203 37.1859 159.975L89.5717 129.863C90.8196 129.145 91.8568 128.114 92.5798 126.873C93.3029 125.631 93.6865 124.223 93.6926 122.787V15.3887C93.1667 15.3931 92.6483 15.5135 92.1747 15.7413L39.7889 45.8533C38.5361 46.5729 37.4957 47.6082 36.7723 48.8553C36.0488 50.1023 35.668 51.5171 35.668 52.9572V159.264C35.6674 159.638 35.744 160.007 35.8928 160.35L35.8872 160.334Z" fill="#F08C51"/>
<g opacity="0.5">
<path d="M35.8872 160.334C36.3438 160.327 36.791 160.203 37.1859 159.975L89.5717 129.863C90.8196 129.145 91.8568 128.114 92.5798 126.873C93.3029 125.631 93.6865 124.223 93.6926 122.787V15.3887C93.1667 15.3931 92.6483 15.5135 92.1747 15.7413L39.7889 45.8533C38.5361 46.5729 37.4957 47.6082 36.7723 48.8553C36.0488 50.1023 35.668 51.5171 35.668 52.9572V159.264C35.6674 159.638 35.744 160.007 35.8928 160.35L35.8872 160.334Z" fill="white"/>
</g>
<path d="M57.8072 30.1175C57.7894 30.4431 57.6951 30.7601 57.5321 31.043C57.369 31.3259 57.1417 31.5668 56.8683 31.7465C56.3455 32.0432 55.9238 31.8025 55.9238 31.1867C55.9419 30.8604 56.0368 30.5429 56.2008 30.2599C56.3649 29.9769 56.5936 29.7364 56.8683 29.5577C57.3855 29.3001 57.8072 29.5185 57.8072 30.1175Z" fill="#263238"/>
<path d="M61.3187 28.1018C61.2998 28.4279 61.2045 28.745 61.0405 29.0279C60.8765 29.3108 60.6483 29.5515 60.3742 29.7309C59.8513 30.0275 59.4297 29.7868 59.4297 29.171C59.4477 28.8448 59.5426 28.5273 59.7067 28.2443C59.8708 27.9613 60.0994 27.7207 60.3742 27.542C60.8914 27.2621 61.3187 27.5028 61.3187 28.1018Z" fill="#263238"/>
<path d="M75.4825 21.0423L64.0923 27.62C63.6369 27.8775 63.2715 27.62 63.2715 27.0043C63.2762 26.6989 63.353 26.399 63.4956 26.1287C63.6382 25.8584 63.8426 25.6252 64.0923 25.448L75.4993 18.8927C75.9491 18.6296 76.3145 18.8927 76.3145 19.5029C76.3054 19.8062 76.2255 20.1032 76.0811 20.3704C75.9366 20.6377 75.7317 20.8677 75.4825 21.0423Z" fill="#263238"/>
<path d="M73.5518 145.56C74.232 145.56 74.6762 146.282 74.6762 147.396C74.6762 149.143 73.5799 151.254 72.2756 152.004L66.8166 155.144C66.5727 155.295 66.294 155.382 66.007 155.396C65.3268 155.396 64.8826 154.674 64.8826 153.56C64.8826 151.808 66.007 149.697 67.2832 148.953L72.7422 145.812C72.9877 145.66 73.2685 145.573 73.5574 145.56M73.5574 145.096C73.1864 145.107 72.8252 145.217 72.5117 145.415L67.0527 148.55C65.5966 149.384 64.416 151.629 64.416 153.588C64.416 155.027 65.0738 155.889 66.007 155.889C66.378 155.878 66.7392 155.767 67.0527 155.57L72.5117 152.435C73.9622 151.601 75.1428 149.356 75.1428 147.396C75.1428 145.958 74.4906 145.096 73.5574 145.096Z" fill="#263238"/>
<path d="M43.3945 60.4867V180.845C43.3945 183.028 44.1985 184.489 45.4241 184.971H45.4578L50.6863 187.82L50.6525 183.196L50.0903 58.3986L44.5751 55.5996C43.835 57.1258 43.4324 58.7923 43.3945 60.4867Z" fill="#E6E6E6"/>
<path d="M50.9748 188.286L45.3191 185.201C43.9192 184.641 43.1152 183.001 43.1152 180.818V60.4596C43.1451 58.7138 43.5536 56.9952 44.3127 55.4213L44.4364 55.1582L50.362 58.1756V58.3435L50.9242 183.141L50.9748 188.286ZM45.6058 184.72L50.407 187.339V183.186L49.8448 58.5562L44.7456 55.9587C44.1005 57.378 43.7524 58.9132 43.7224 60.4708V180.829C43.7224 182.799 44.4139 184.244 45.5777 184.697L45.6451 184.731L45.6058 184.72Z" fill="#E6E6E6"/>
<path d="M44.5645 55.6113L50.0796 58.4103L109.111 24.2118L113.046 21.9278L107.598 18.8713L107.446 18.7817C106.575 18.2611 105.439 18.2947 104.186 19.0168L48.3143 51.1328C46.6455 52.2218 45.3401 53.7808 44.5645 55.6113Z" fill="#E0E0E0"/>
<path d="M50.0787 58.6839C50.0335 58.6834 49.9891 58.6719 49.9494 58.6503L44.4342 55.8512C44.4018 55.8357 44.3729 55.814 44.349 55.7872C44.3252 55.7604 44.307 55.7291 44.2955 55.6952C44.284 55.6613 44.2794 55.6255 44.2819 55.5898C44.2845 55.5541 44.2942 55.5193 44.3105 55.4874C45.1141 53.6108 46.4581 52.0135 48.1728 50.897L104.055 18.7697C105.349 18.0308 106.608 17.9468 107.597 18.5402H107.642L107.755 18.6074L113.197 21.6583C113.239 21.6841 113.275 21.7202 113.299 21.7633C113.324 21.8064 113.337 21.8551 113.337 21.9046C113.338 21.9537 113.326 22.0021 113.301 22.0445C113.276 22.087 113.24 22.1218 113.197 22.1454L50.2305 58.6279C50.1862 58.6604 50.1336 58.6798 50.0787 58.6839ZM44.9346 55.465L50.0731 58.0849L112.477 21.927L107.299 19.016L107.26 18.9825C106.456 18.5234 105.416 18.6186 104.325 19.2456L48.4427 51.3728C46.9068 52.3774 45.6899 53.7969 44.9346 55.465Z" fill="#E0E0E0"/>
<path d="M48.8047 63.5106V183.309C48.8047 185.195 49.4119 186.55 50.3732 187.188L50.6937 187.362C51.5314 187.754 52.5827 187.67 53.7239 187.009L80.7376 171.491L109.629 154.193C111.109 153.272 112.334 151.997 113.194 150.485C114.054 148.973 114.521 147.271 114.554 145.533V25.7349C114.554 23.9099 113.992 22.5888 113.081 21.9226C112.927 21.8079 112.759 21.7138 112.581 21.6427C112.093 21.4711 111.572 21.4161 111.059 21.4823C110.546 21.5484 110.057 21.7338 109.629 22.0234L53.7464 54.6936C52.1698 55.5153 50.8946 56.8124 50.1034 58.3995C49.2922 59.9851 48.8484 61.7316 48.8047 63.5106Z" fill="#FAFAFA"/>
<path d="M109.63 154.194C98.1326 161.024 68.2179 178.798 53.4096 187.682C52.9678 187.945 52.4639 188.087 51.9491 188.093C51.4343 188.099 50.927 187.969 50.479 187.717C50.0311 187.464 49.6583 187.098 49.3989 186.655C49.1394 186.212 49.0024 185.709 49.002 185.196V62.0054C49.0019 60.6031 49.3703 59.2251 50.0705 58.0084C50.7708 56.7916 51.7785 55.7784 52.9936 55.0695L109.877 21.8618C110.319 21.6051 110.821 21.4689 111.333 21.4668C111.844 21.4648 112.347 21.5969 112.791 21.8501C113.235 22.1032 113.604 22.4683 113.862 22.9087C114.119 23.349 114.255 23.8491 114.256 24.3585V146.038C114.257 147.679 113.831 149.293 113.021 150.722C112.21 152.151 111.042 153.347 109.63 154.194Z" fill="#FAFAFA"/>
<path d="M109.464 153.948C100.435 159.3 91.4099 164.667 82.3885 170.048L66.3658 179.593L59.0572 183.959L55.8583 185.874C54.8745 186.462 53.8288 187.301 52.7381 187.676C50.9334 188.303 49.3087 186.865 49.2637 185.09C49.2637 184.805 49.2637 184.53 49.2637 184.234V71.2873C49.2637 68.2811 49.2637 65.2693 49.2637 62.2632C49.243 60.8399 49.6042 59.4369 50.3098 58.1989C51.0154 56.961 52.04 55.9329 53.2778 55.2208C54.5821 54.4539 55.892 53.6982 57.2132 52.9368L75.5746 42.1774L97.3599 29.4642C101.492 27.057 105.613 24.6275 109.728 22.2315C111.01 21.4926 112.624 21.5653 113.518 22.9033C113.834 23.4374 113.982 24.0534 113.945 24.6723V145.568C114.001 147.237 113.615 148.892 112.826 150.366C112.036 151.84 110.871 153.081 109.447 153.965C109.138 154.155 109.419 154.642 109.728 154.452C111.226 153.529 112.455 152.232 113.295 150.691C114.135 149.149 114.557 147.416 114.518 145.663V33.2821C114.518 30.3599 114.546 27.4321 114.518 24.5043C114.533 23.9182 114.387 23.3392 114.096 22.8295C113.805 22.3197 113.38 21.8985 112.867 21.6108C112.354 21.3232 111.772 21.18 111.183 21.1966C110.595 21.2133 110.022 21.3891 109.526 21.7053C108.154 22.4946 106.794 23.3007 105.433 24.0957L86.5769 35.1406L64.5949 47.9714C60.7157 50.2386 56.7803 52.489 52.918 54.773C51.6177 55.5349 50.5426 56.6251 49.8012 57.9334C49.0598 59.2418 48.6785 60.7219 48.6959 62.224C48.6959 63.2317 48.6959 64.2393 48.6959 65.247V184.614C48.6959 184.805 48.6959 185.001 48.6959 185.174C48.7019 185.675 48.8254 186.167 49.0564 186.612C49.2875 187.056 49.6196 187.441 50.0265 187.735C50.4334 188.03 50.9036 188.225 51.3998 188.306C51.896 188.387 52.4043 188.352 52.8843 188.203C53.9468 187.85 54.9475 187.055 55.9033 186.484L59.164 184.53L66.4726 180.175C77.102 173.831 87.7407 167.497 98.3887 161.175L109.762 154.418C110.054 154.25 109.773 153.763 109.464 153.948Z" fill="#EBEBEB"/>
<path d="M52.9709 55.0527L109.877 21.8618C110.319 21.6051 110.821 21.4689 111.332 21.4668C111.844 21.4648 112.347 21.5969 112.791 21.8501C113.235 22.1032 113.604 22.4683 113.861 22.9087C114.119 23.349 114.255 23.8491 114.256 24.3585V29.7047L48.9961 67.2116V61.9943C48.9934 60.5926 49.3587 59.2145 50.056 57.9969C50.7532 56.7792 51.7581 55.7642 52.9709 55.0527Z" fill="#EBEBEB"/>
<path d="M92.066 84.1944C97.8366 74.2421 97.8366 63.4849 92.0661 60.1674C86.2956 56.85 76.9397 62.2287 71.1692 72.1809C65.3986 82.1332 65.3986 92.8905 71.1691 96.2079C76.9396 99.5253 86.2955 94.1467 92.066 84.1944Z" fill="#F08C51"/>
<path opacity="0.5" d="M92.066 84.1944C97.8366 74.2421 97.8366 63.4849 92.0661 60.1674C86.2956 56.85 76.9397 62.2287 71.1692 72.1809C65.3986 82.1332 65.3986 92.8905 71.1691 96.2079C76.9396 99.5253 86.2955 94.1467 92.066 84.1944Z" fill="white"/>
<path d="M78.9681 78.2499C78.881 78.2499 78.7947 78.2328 78.7142 78.1996C78.6337 78.1665 78.5606 78.1178 78.499 78.0565C78.4374 77.9951 78.3885 77.9223 78.3552 77.8422C78.3219 77.762 78.3047 77.6761 78.3047 77.5894V73.2397C78.3533 72.2077 78.6491 71.2022 79.1675 70.3073C79.6858 69.4123 80.4116 68.6538 81.2843 68.0951C81.6376 67.8052 82.0713 67.6296 82.5275 67.5917C82.9837 67.5539 83.4406 67.6555 83.8372 67.8831C84.2338 68.1107 84.5512 68.4534 84.7471 68.8654C84.9429 69.2774 85.0078 69.739 84.933 70.1887V74.544C84.933 74.7192 84.8631 74.8872 84.7387 75.0111C84.6143 75.135 84.4456 75.2046 84.2696 75.2046C84.0937 75.2046 83.9249 75.135 83.8005 75.0111C83.6761 74.8872 83.6062 74.7192 83.6062 74.544V70.1663C83.694 69.9476 83.6993 69.7046 83.6209 69.4823C83.5426 69.26 83.386 69.0735 83.1802 68.9574C82.9743 68.8412 82.7332 68.8033 82.5014 68.8506C82.2697 68.8979 82.063 69.0273 81.9196 69.2147C81.2506 69.6597 80.6935 70.2523 80.2918 70.9465C79.8901 71.6407 79.6545 72.4177 79.6034 73.2173V77.567C79.6095 77.7413 79.5461 77.9109 79.4271 78.0388C79.3081 78.1668 79.1431 78.2427 78.9681 78.2499Z" fill="#37474F"/>
<path d="M86.9708 71.7396C86.8154 71.6755 86.6463 71.6516 86.4792 71.6702C86.312 71.6888 86.1523 71.7493 86.015 71.846L77.1773 76.929C76.7896 77.1713 76.4688 77.5061 76.244 77.9031C75.8904 78.4746 75.6963 79.1297 75.6818 79.8008V87.4198C75.662 87.6334 75.6912 87.8487 75.7671 88.0494C75.8431 88.2501 75.9639 88.4311 76.1203 88.5786C76.1682 88.6158 76.2212 88.646 76.2777 88.6681C76.4274 88.7236 76.5883 88.7424 76.7469 88.7229C76.9054 88.7034 77.0569 88.6462 77.1885 88.5562L86.015 83.4675C86.4755 83.1403 86.8523 82.71 87.115 82.2111C87.3777 81.7123 87.5189 81.1589 87.5274 80.5957V72.9656C87.5584 72.7299 87.5228 72.4902 87.4245 72.2736C87.3261 72.057 87.169 71.8721 86.9708 71.7396Z" fill="#F08C51"/>
<path d="M82.642 79.6825L83.4965 82.1233L80.5 83.8419L81.2477 80.8301L81.3545 80.4047C80.8486 80.4047 80.5 80.0296 80.5 79.3466C80.5038 79.0686 80.5512 78.7928 80.6405 78.5293C80.874 77.8018 81.3526 77.1769 81.9955 76.7603C82.8219 76.2845 83.4965 76.6708 83.4965 77.6224C83.4555 78.386 83.154 79.1127 82.642 79.6825Z" fill="#455A64"/>
<path d="M81.2243 80.8028L81.3311 80.3773C80.8251 80.3773 80.4766 80.0022 80.4766 79.3193C80.4804 79.0412 80.5278 78.7654 80.6171 78.502L82.641 79.6831L83.4956 82.1239L81.2243 80.8028Z" fill="#37474F"/>
<path d="M103.444 106.364L59.8172 131.426C58.0125 132.462 56.5508 131.359 56.5508 128.969V122.391C56.5508 119.995 58.0125 117.213 59.8172 116.177L103.444 91.1146C105.249 90.079 106.71 91.1762 106.71 93.5722V100.15C106.682 102.546 105.22 105.323 103.444 106.364Z" fill="#F08C51"/>
<path d="M67.6597 115.584H66.8164V122.542H67.6597V115.584Z" fill="#FAFAFA"/>
<path d="M70.4215 117.572L64.3418 121.051L64.7634 121.781L70.8431 118.302L70.4215 117.572Z" fill="#FAFAFA"/>
<path d="M65.3045 117.478L64.8828 118.205L69.1625 120.665L69.5841 119.938L65.3045 117.478Z" fill="#FAFAFA"/>
<path d="M69.6112 114.776L65.3301 122.193L66.0637 122.613L70.3449 115.196L69.6112 114.776Z" fill="#FAFAFA"/>
<path d="M82.0367 107.791H81.1934V114.749H82.0367V107.791Z" fill="#FAFAFA"/>
<path d="M84.425 109.179L78.373 112.658L78.7947 113.385L84.8466 109.906L84.425 109.179Z" fill="#FAFAFA"/>
<path d="M79.6873 109.681L79.2656 110.408L83.5453 112.869L83.9669 112.141L79.6873 109.681Z" fill="#FAFAFA"/>
<path d="M83.9569 106.922L79.6758 114.34L80.4095 114.76L84.6906 107.342L83.9569 106.922Z" fill="#FAFAFA"/>
<path d="M96.4097 99.9941H95.5664V106.953H96.4097V99.9941Z" fill="#FAFAFA"/>
<path d="M99.2887 101.915L93.209 105.395L93.6306 106.125L99.7103 102.646L99.2887 101.915Z" fill="#FAFAFA"/>
<path d="M94.0623 101.884L93.6406 102.611L97.9203 105.072L98.3419 104.344L94.0623 101.884Z" fill="#FAFAFA"/>
<path d="M97.7655 99.5637L93.4844 106.947L94.2147 107.367L98.4958 99.9835L97.7655 99.5637Z" fill="#FAFAFA"/>
<path d="M104.709 115.42C105.271 115.42 105.558 116.288 105.558 117.15V123.728C105.558 125.726 104.315 128.128 102.854 128.973L59.255 154.036C59.0337 154.176 58.7804 154.259 58.5185 154.276C57.9563 154.276 57.6752 153.409 57.6752 152.547V145.969C57.6752 143.97 58.912 141.569 60.3794 140.724L104.006 115.661C104.225 115.521 104.477 115.438 104.737 115.42M104.737 114.301C104.279 114.318 103.833 114.453 103.444 114.693L59.8172 139.755C58.0125 140.791 56.5508 143.573 56.5508 145.969V152.547C56.5508 154.327 57.3603 155.396 58.5185 155.396C58.9783 155.38 59.4259 155.245 59.8172 155.004L103.444 129.942C105.249 128.906 106.71 126.124 106.71 123.728V117.15C106.71 115.37 105.895 114.301 104.737 114.301Z" fill="#F08C51"/>
<path d="M72.3941 143.528C71.7482 143.898 71.183 144.082 70.6985 144.08C70.2208 144.066 69.8474 143.892 69.5782 143.558C69.3158 143.212 69.1846 142.725 69.1846 142.097C69.1846 141.469 69.3125 140.838 69.5681 140.203C69.8306 139.557 70.1905 138.967 70.6481 138.434C71.1056 137.893 71.6203 137.459 72.1923 137.132C72.7305 136.824 73.2217 136.67 73.6658 136.672C74.1099 136.666 74.4631 136.832 74.7255 137.17C74.988 137.509 75.1192 138.027 75.1192 138.724C75.1192 138.802 75.1158 138.893 75.1091 138.997C75.1023 139.102 75.0956 139.199 75.0889 139.288L70.7591 141.766V140.603L74.0695 138.709L73.3428 139.45C73.3496 139.159 73.3025 138.938 73.2015 138.787C73.1073 138.631 72.9728 138.545 72.7978 138.529C72.6296 138.509 72.4311 138.565 72.2024 138.696C71.9736 138.827 71.7717 139 71.5968 139.217C71.4286 139.429 71.2974 139.671 71.2032 139.942C71.109 140.205 71.0619 140.48 71.0619 140.767V141.104C71.0619 141.414 71.1157 141.651 71.2234 141.814C71.3377 141.974 71.4992 142.056 71.7078 142.06C71.9164 142.057 72.1653 141.973 72.4547 141.807C72.7238 141.653 72.9526 141.48 73.141 141.287C73.3361 141.082 73.5279 140.833 73.7163 140.539L74.7255 141.171C74.4631 141.654 74.1402 142.095 73.7566 142.492C73.3731 142.883 72.9189 143.228 72.3941 143.528ZM79.566 132.912C79.9899 132.669 80.3735 132.551 80.7166 132.556C81.0598 132.553 81.3289 132.701 81.524 133.001C81.7259 133.296 81.8268 133.769 81.8268 134.421V138.025L79.9092 139.123V135.878C79.9092 135.429 79.8285 135.149 79.667 135.04C79.5122 134.919 79.2935 134.94 79.0109 135.102C78.8091 135.217 78.6241 135.377 78.4558 135.582C78.2876 135.779 78.1564 136.013 78.0622 136.284C77.968 136.555 77.9209 136.865 77.9209 137.214V140.261L76.0033 141.358V135.055L77.8301 134.01V135.801L77.4768 135.48C77.6854 134.903 77.9714 134.398 78.3347 133.965C78.6981 133.525 79.1085 133.174 79.566 132.912ZM85.468 136.046C84.7694 136.446 84.2253 136.56 83.8358 136.388C83.4462 136.209 83.2514 135.717 83.2514 134.912V129.514L85.1657 128.418V133.793C85.1657 134.017 85.2195 134.165 85.3269 134.235C85.4344 134.297 85.5721 134.28 85.74 134.184C85.9684 134.053 86.1632 133.876 86.3244 133.652L86.7979 134.925C86.6367 135.141 86.4386 135.344 86.2035 135.532C85.9684 135.729 85.7232 135.9 85.468 136.046ZM82.4554 133.254V131.606L86.4151 129.34V130.988L82.4554 133.254ZM90.2401 133.315C89.5953 133.684 89.0311 133.868 88.5474 133.866C88.0705 133.853 87.6977 133.679 87.4291 133.345C87.1671 133 87.0361 132.514 87.0361 131.887C87.0361 131.26 87.1637 130.63 87.419 129.996C87.681 129.351 88.0403 128.762 88.4971 128.23C88.9538 127.69 89.4677 127.256 90.0386 126.93C90.576 126.622 91.0663 126.469 91.5096 126.471C91.9529 126.465 92.3056 126.631 92.5675 126.968C92.8295 127.306 92.9605 127.823 92.9605 128.52C92.9605 128.597 92.9571 128.688 92.9504 128.792C92.9437 128.897 92.937 128.994 92.9303 129.083L88.6079 131.556V130.395L91.9126 128.504L91.1872 129.244C91.1939 128.954 91.1469 128.733 91.0461 128.582C90.9521 128.427 90.8178 128.341 90.6431 128.325C90.4752 128.305 90.2771 128.36 90.0487 128.491C89.8203 128.622 89.6188 128.795 89.4442 129.011C89.2762 129.223 89.1452 129.465 89.0512 129.735C88.9572 129.998 88.9102 130.273 88.9102 130.559V130.896C88.9102 131.205 88.9639 131.441 89.0714 131.604C89.1855 131.763 89.3468 131.845 89.555 131.85C89.7632 131.847 90.0117 131.763 90.3006 131.597C90.5692 131.444 90.7976 131.27 90.9857 131.078C91.1805 130.873 91.3719 130.624 91.56 130.331L92.5675 130.962C92.3056 131.444 91.9832 131.884 91.6003 132.281C91.2174 132.671 90.764 133.015 90.2401 133.315ZM93.8431 131.149V124.857L95.6668 123.813V125.648L95.3947 125.281C95.5559 124.717 95.8179 124.214 96.1806 123.775C96.5433 123.327 96.9833 122.956 97.5005 122.66V124.645C97.4132 124.679 97.3359 124.716 97.2687 124.754C97.2083 124.781 97.1411 124.815 97.0672 124.858C96.6777 125.081 96.362 125.385 96.1201 125.771C95.8783 126.149 95.7574 126.613 95.7574 127.163V130.053L93.8431 131.149Z" fill="#F08C51"/>
<path d="M168.879 40.6699C168.905 41.1129 169.036 41.5434 169.262 41.9259C169.488 42.3084 169.801 42.632 170.178 42.87C170.897 43.273 171.476 42.9427 171.476 42.1366C171.45 41.6937 171.319 41.2632 171.093 40.8807C170.868 40.4982 170.554 40.1746 170.178 39.9366C169.464 39.5335 168.879 39.8582 168.879 40.6699Z" fill="#455A64"/>
<path d="M151.469 45.8817C150.326 45.8438 149.213 45.5121 148.237 44.9189L144.116 42.5957C144.081 42.5788 144.051 42.5552 144.026 42.5263C144.001 42.4973 143.983 42.4637 143.972 42.4273C143.96 42.391 143.957 42.3527 143.961 42.3149C143.965 42.277 143.976 42.2404 143.995 42.2073C144.014 42.1741 144.039 42.1451 144.07 42.122C144.1 42.099 144.135 42.0823 144.172 42.0731C144.209 42.0639 144.248 42.0622 144.285 42.0684C144.323 42.0745 144.359 42.0882 144.391 42.1086L148.512 44.4318C150.294 45.4339 151.942 45.5962 153.162 44.8909C154.382 44.1855 155.017 42.7356 155.017 40.7707C155.017 38.6043 155.776 36.9696 157.148 36.1691C158.519 35.3686 160.403 35.5197 162.359 36.6225L169.021 40.3788C169.085 40.4163 169.132 40.4769 169.151 40.5478C169.171 40.6187 169.163 40.6946 169.128 40.7595C169.091 40.824 169.031 40.8714 168.959 40.8914C168.887 40.9113 168.811 40.9021 168.746 40.8659L162.084 37.1376C160.307 36.1355 158.654 35.9732 157.434 36.6841C156.214 37.3951 155.579 38.8394 155.579 40.7987C155.579 42.9707 154.82 44.6054 153.448 45.4003C152.843 45.7329 152.16 45.8991 151.469 45.8817Z" fill="#455A64"/>
<path d="M142.41 41.3422C142.43 41.7002 142.536 42.0483 142.719 42.3571C142.902 42.6659 143.156 42.9264 143.461 43.1168C144.024 43.4471 144.513 43.1784 144.513 42.5234C144.493 42.1654 144.387 41.8174 144.204 41.5086C144.021 41.1998 143.767 40.9392 143.461 40.7488C142.882 40.4185 142.41 40.6873 142.41 41.3422Z" fill="#455A64"/>
<path d="M208.908 35.3916L181.36 19.8626C181.071 19.6511 180.721 19.5371 180.362 19.5371C180.003 19.5371 179.654 19.6511 179.364 19.8626L176.98 21.4972L178.605 23.4957V52.3985C178.605 54.4194 179.842 56.765 181.36 57.6439L208.216 72.7586L208.34 74.9083L210.847 73.1953C211.136 72.927 211.36 72.5961 211.5 72.2283C211.641 71.8604 211.694 71.4654 211.657 71.0736V40.637C211.668 38.6161 210.431 36.2705 208.908 35.3916Z" fill="#F08C51"/>
<path opacity="0.3" d="M208.908 35.3916L181.36 19.8626C181.071 19.6511 180.721 19.5371 180.362 19.5371C180.003 19.5371 179.654 19.6511 179.364 19.8626L176.98 21.4972L178.605 23.4957V52.3985C178.605 54.4194 179.842 56.765 181.36 57.6439L208.216 72.7586L208.34 74.9083L210.847 73.1953C211.136 72.927 211.36 72.5961 211.5 72.2283C211.641 71.8604 211.694 71.4654 211.657 71.0736V40.637C211.668 38.6161 210.431 36.2705 208.908 35.3916Z" fill="black"/>
<path d="M206.568 74.7728L179.02 59.2438C177.497 58.3705 176.266 56.0193 176.266 53.9984V23.545C176.266 21.5185 177.497 20.5892 179.02 21.4681L206.568 36.9971C208.092 37.8704 209.323 40.2216 209.323 42.2425V72.7015C209.323 74.7224 208.092 75.6517 206.568 74.7728Z" fill="#F08C51"/>
<path d="M200.784 48.4173C200.722 48.4182 200.661 48.3983 200.611 48.3608C200.561 48.3233 200.525 48.2703 200.509 48.2102C199.922 46.0504 199.014 43.99 197.816 42.0971C197.776 42.0347 197.762 41.959 197.778 41.8866C197.794 41.8142 197.838 41.751 197.9 41.7109C197.931 41.6906 197.966 41.6767 198.003 41.6703C198.04 41.6638 198.077 41.6647 198.113 41.6731C198.15 41.6815 198.184 41.6971 198.214 41.719C198.244 41.7408 198.269 41.7686 198.288 41.8004C199.519 43.7396 200.451 45.851 201.054 48.0647C201.072 48.1366 201.061 48.2125 201.025 48.277C200.988 48.3415 200.928 48.3897 200.857 48.4117L200.784 48.4173Z" fill="white"/>
<path d="M201.413 54.1114C201.338 54.1057 201.268 54.0708 201.219 54.0142C201.17 53.9577 201.144 53.884 201.149 53.8091C201.149 53.5125 201.183 53.199 201.183 52.8799C201.18 51.9228 201.095 50.9677 200.93 50.0249C200.917 49.9506 200.935 49.8744 200.978 49.813C201.022 49.7516 201.089 49.71 201.163 49.6974C201.238 49.6848 201.314 49.7021 201.376 49.7457C201.438 49.7893 201.479 49.8555 201.492 49.9297C201.664 50.9039 201.752 51.8908 201.756 52.8799C201.756 53.2102 201.756 53.5348 201.723 53.8483C201.72 53.8859 201.709 53.9225 201.692 53.956C201.675 53.9896 201.652 54.0195 201.623 54.0439C201.594 54.0684 201.561 54.0869 201.525 54.0985C201.489 54.1101 201.451 54.1145 201.413 54.1114Z" fill="white"/>
<path d="M184.218 44.8178C184.149 44.818 184.082 44.7922 184.031 44.7455C183.98 44.6988 183.948 44.6346 183.942 44.5658C183.897 44.0788 183.875 43.5918 183.875 43.1215C183.875 40.4065 184.611 38.1673 185.95 36.8069C185.975 36.7809 186.006 36.7602 186.04 36.746C186.073 36.7319 186.11 36.7246 186.146 36.7246C186.183 36.7246 186.219 36.7319 186.253 36.746C186.287 36.7602 186.317 36.7809 186.343 36.8069C186.369 36.833 186.39 36.8639 186.405 36.898C186.419 36.9321 186.426 36.9687 186.426 37.0057C186.426 37.0426 186.419 37.0792 186.405 37.1133C186.39 37.1474 186.369 37.1784 186.343 37.2044C185.112 38.4584 184.432 40.5632 184.432 43.1271C184.432 43.5806 184.432 44.0508 184.493 44.5211C184.497 44.5575 184.494 44.5944 184.483 44.6295C184.472 44.6646 184.455 44.6973 184.431 44.7255C184.408 44.7536 184.378 44.7768 184.346 44.7936C184.313 44.8105 184.277 44.8206 184.24 44.8233L184.218 44.8178Z" fill="white"/>
<path d="M196.651 40.2903C196.61 40.2908 196.568 40.282 196.53 40.2645C196.492 40.2471 196.459 40.2215 196.432 40.1895C195.391 38.8688 194.111 37.7526 192.66 36.8979C190.793 35.8454 189.039 35.6439 187.6 36.338C187.533 36.3687 187.456 36.3718 187.387 36.3467C187.317 36.3215 187.261 36.2702 187.229 36.2037C187.213 36.1703 187.203 36.134 187.202 36.097C187.2 36.06 187.205 36.023 187.218 35.9881C187.23 35.9532 187.25 35.9211 187.275 35.8938C187.3 35.8664 187.33 35.8442 187.364 35.8286C188.983 35.0841 190.911 35.2688 192.946 36.4388C194.459 37.3299 195.793 38.4913 196.882 39.8648C196.928 39.9221 196.95 39.9954 196.943 40.0688C196.936 40.1422 196.9 40.2097 196.843 40.2567C196.785 40.2901 196.717 40.302 196.651 40.2903Z" fill="white"/>
<path d="M186.156 45.0361C186.083 45.0362 186.014 45.0082 185.961 44.9581C185.909 44.908 185.878 44.8397 185.875 44.7674C185.875 44.5939 185.875 44.4203 185.875 44.2468C185.875 42.2595 186.364 40.6361 187.292 39.5556C187.315 39.5273 187.344 39.5038 187.376 39.4867C187.409 39.4696 187.445 39.4592 187.481 39.4561C187.518 39.4529 187.555 39.4572 187.59 39.4685C187.625 39.4798 187.657 39.498 187.685 39.522C187.742 39.5708 187.777 39.6397 187.783 39.7139C187.79 39.7882 187.767 39.862 187.719 39.9195C186.881 40.8992 186.437 42.3938 186.437 44.2468C186.437 44.4091 186.437 44.5771 186.437 44.7394C186.439 44.7762 186.433 44.8129 186.42 44.8474C186.407 44.882 186.388 44.9137 186.363 44.9407C186.338 44.9677 186.308 44.9896 186.274 45.005C186.241 45.0204 186.204 45.0291 186.167 45.0305L186.156 45.0361Z" fill="white"/>
<path d="M188.339 39.2708C188.277 39.2714 188.216 39.2517 188.167 39.2147C188.118 39.1777 188.082 39.1255 188.065 39.0663C188.048 39.007 188.052 38.9439 188.075 38.8867C188.098 38.8296 188.139 38.7816 188.192 38.7502C188.913 38.3237 189.756 38.1502 190.587 38.2575C190.661 38.2646 190.729 38.3004 190.776 38.3569C190.824 38.4135 190.847 38.4864 190.84 38.5598C190.832 38.6336 190.795 38.7012 190.737 38.7482C190.679 38.7953 190.605 38.818 190.531 38.8117C189.823 38.7277 189.107 38.8814 188.496 39.2484C188.446 39.2691 188.392 39.2768 188.339 39.2708Z" fill="white"/>
<path d="M200.786 57.7105C200.73 57.7106 200.675 57.6942 200.628 57.6634C200.581 57.6325 200.544 57.5886 200.522 57.537L200.196 56.7253C199.542 55.1556 199.197 53.4757 199.178 51.7766C199.178 47.0294 196.255 41.5378 192.662 39.5113C192.63 39.4933 192.602 39.4691 192.579 39.44C192.557 39.411 192.54 39.3778 192.531 39.3423C192.521 39.3067 192.519 39.2697 192.524 39.2334C192.529 39.197 192.542 39.1621 192.561 39.1306C192.579 39.0981 192.602 39.0695 192.631 39.0464C192.66 39.0234 192.694 39.0064 192.729 38.9964C192.765 38.9865 192.802 38.9839 192.839 38.9886C192.876 38.9934 192.911 39.0055 192.943 39.0242C196.687 41.1403 199.74 46.8615 199.74 51.7542C199.754 53.3884 200.087 55.0043 200.718 56.5126L201.045 57.3243C201.059 57.358 201.067 57.3943 201.067 57.4311C201.067 57.4679 201.06 57.5043 201.046 57.5382C201.032 57.5722 201.011 57.6029 200.985 57.6287C200.958 57.6544 200.927 57.6747 200.893 57.6882C200.859 57.7031 200.823 57.7107 200.786 57.7105Z" fill="white"/>
<path d="M187.875 54.4923C187.817 54.4923 187.761 54.4745 187.714 54.4415C187.666 54.4084 187.63 54.3617 187.611 54.3076C186.703 51.6624 186.116 48.9185 185.862 46.1344C185.859 46.0972 185.864 46.0597 185.875 46.0242C185.887 45.9888 185.906 45.956 185.93 45.9278C185.955 45.8996 185.985 45.8767 186.019 45.8602C186.052 45.8438 186.089 45.8342 186.127 45.8321C186.2 45.8304 186.272 45.8565 186.327 45.9053C186.383 45.9541 186.417 46.022 186.424 46.0952C186.664 48.8265 187.23 51.5196 188.111 54.1172C188.124 54.1517 188.131 54.1885 188.129 54.2255C188.128 54.2624 188.119 54.2987 188.103 54.3322C188.088 54.3656 188.065 54.3956 188.038 54.4202C188.01 54.4448 187.978 54.4636 187.942 54.4755C187.921 54.484 187.898 54.4897 187.875 54.4923Z" fill="white"/>
<path d="M199.131 59.5971C199.074 59.5983 199.018 59.5817 198.97 59.5496C198.923 59.5174 198.887 59.4714 198.867 59.4179L198.114 57.4026C197.354 55.4356 196.945 53.3518 196.905 51.2448V49.0447C196.905 46.4304 195.022 43.2451 192.705 41.9408C191.626 41.3306 190.625 41.2242 189.894 41.6497C189.163 42.0752 188.77 42.9541 188.77 44.1464V46.0946C188.832 49.2592 189.468 52.3867 190.648 55.3258L191.575 57.7329C191.589 57.7674 191.595 57.8043 191.595 57.8414C191.594 57.8784 191.585 57.9149 191.57 57.9488C191.555 57.9826 191.533 58.0131 191.506 58.0386C191.479 58.064 191.447 58.0838 191.412 58.0968C191.343 58.1223 191.266 58.1195 191.199 58.0892C191.132 58.0588 191.079 58.0032 191.052 57.9344L190.125 55.5273C188.927 52.5225 188.283 49.327 188.225 46.0946V44.152C188.225 42.7525 188.714 41.6945 189.613 41.1739C190.513 40.6533 191.721 40.7484 192.986 41.4594C195.454 42.8533 197.484 46.2569 197.484 49.0503V51.2504C197.523 53.2908 197.921 55.3086 198.659 57.2123L199.407 59.222C199.42 59.2561 199.427 59.2926 199.426 59.3293C199.425 59.3659 199.416 59.402 199.401 59.4354C199.386 59.4688 199.364 59.4989 199.337 59.5237C199.31 59.5486 199.278 59.5678 199.244 59.5803L199.131 59.5971Z" fill="white"/>
<path d="M196.652 60.3984C196.592 60.3988 196.533 60.38 196.485 60.3447C196.436 60.3094 196.4 60.2596 196.382 60.2025L195.988 58.8814C195.272 56.5625 194.893 54.1531 194.864 51.727V48.3346C194.82 47.5662 194.594 46.8191 194.203 46.1552C193.812 45.4913 193.268 44.9297 192.615 44.5168C192.412 44.3684 192.173 44.2758 191.922 44.2483C191.672 44.2208 191.418 44.2593 191.187 44.36C190.99 44.5028 190.834 44.695 190.735 44.9172C190.636 45.1394 190.598 45.3837 190.625 45.6252C190.625 49.4095 191.783 53.7703 193.88 57.9073L194.673 59.4692C194.69 59.5022 194.699 59.5383 194.702 59.5751C194.705 59.612 194.7 59.6491 194.688 59.6842C194.677 59.7193 194.658 59.7517 194.634 59.7796C194.609 59.8076 194.58 59.8305 194.546 59.847C194.513 59.8636 194.477 59.8734 194.44 59.8761C194.403 59.8787 194.366 59.874 194.33 59.8623C194.295 59.8506 194.263 59.8321 194.235 59.8079C194.207 59.7837 194.184 59.7542 194.167 59.7211L193.38 58.1592C191.238 53.9439 190.063 49.4934 190.063 45.6252C190.031 45.2857 190.092 44.9439 190.238 44.6357C190.384 44.3275 190.611 44.0641 190.895 43.873C191.21 43.7216 191.56 43.6563 191.909 43.6839C192.257 43.7114 192.592 43.8308 192.879 44.0297C193.617 44.4946 194.232 45.1275 194.675 45.876C195.118 46.6246 195.375 47.4673 195.426 48.3346V51.7382C195.452 54.1111 195.821 56.4679 196.523 58.7358L196.916 60.0514C196.927 60.0866 196.931 60.1238 196.927 60.1606C196.924 60.1974 196.913 60.2331 196.895 60.2655C196.877 60.2979 196.853 60.3264 196.824 60.3492C196.794 60.3721 196.761 60.3888 196.725 60.3984C196.701 60.4031 196.676 60.4031 196.652 60.3984Z" fill="white"/>
<path d="M193.499 54.491C193.435 54.4903 193.373 54.4684 193.324 54.4289C193.274 54.3893 193.238 54.3344 193.223 54.2726L192.965 53.0747C192.718 51.9228 192.593 50.7482 192.594 49.5703V46.4186C192.594 46.3443 192.623 46.2731 192.676 46.2206C192.729 46.1682 192.8 46.1387 192.875 46.1387C192.949 46.1387 193.021 46.1682 193.074 46.2206C193.126 46.2731 193.156 46.3443 193.156 46.4186V49.5703C193.159 50.6992 193.28 51.8248 193.516 52.9291L193.774 54.1271C193.783 54.1628 193.784 54.1997 193.777 54.2358C193.771 54.2719 193.757 54.3063 193.737 54.3371C193.718 54.3679 193.692 54.3944 193.661 54.415C193.631 54.4357 193.597 54.4501 193.561 54.4574L193.499 54.491Z" fill="white"/>
<path d="M184.83 48.4173C184.76 48.4164 184.693 48.3904 184.642 48.344C184.59 48.2977 184.557 48.2342 184.549 48.1654L184.386 46.5308C184.379 46.4567 184.402 46.3832 184.45 46.3257C184.497 46.2682 184.565 46.2313 184.639 46.2229C184.676 46.2182 184.714 46.2211 184.749 46.2314C184.785 46.2417 184.819 46.2591 184.848 46.2827C184.877 46.3063 184.9 46.3355 184.918 46.3685C184.935 46.4015 184.945 46.4377 184.948 46.4748L185.111 48.1094C185.115 48.1462 185.111 48.1834 185.101 48.2188C185.09 48.2543 185.073 48.2873 185.049 48.3159C185.026 48.3445 184.997 48.3682 184.964 48.3856C184.931 48.403 184.895 48.4138 184.858 48.4173H184.83Z" fill="white"/>
<path d="M208.908 87.2624L181.36 71.7278C181.071 71.5164 180.721 71.4023 180.362 71.4023C180.003 71.4023 179.654 71.5164 179.364 71.7278L176.98 73.3625L178.605 75.361V104.264C178.605 106.285 179.842 108.63 181.36 109.509L208.216 124.624L208.34 126.774L210.847 125.066C211.137 124.797 211.36 124.465 211.5 124.096C211.641 123.727 211.694 123.331 211.657 122.939V92.4854C211.668 90.4813 210.431 88.1357 208.908 87.2624Z" fill="#F08C51"/>
<path opacity="0.3" d="M208.908 87.2624L181.36 71.7278C181.071 71.5164 180.721 71.4023 180.362 71.4023C180.003 71.4023 179.654 71.5164 179.364 71.7278L176.98 73.3625L178.605 75.361V104.264C178.605 106.285 179.842 108.63 181.36 109.509L208.216 124.624L208.34 126.774L210.847 125.066C211.137 124.797 211.36 124.465 211.5 124.096C211.641 123.727 211.694 123.331 211.657 122.939V92.4854C211.668 90.4813 210.431 88.1357 208.908 87.2624Z" fill="black"/>
<path d="M206.568 126.639L179.02 111.11C177.497 110.236 176.266 107.891 176.266 105.864V75.411C176.266 73.3901 177.497 72.4608 179.02 73.3341L206.568 88.8631C208.092 89.742 209.323 92.0876 209.323 94.1085V124.567C209.323 126.588 208.092 127.518 206.568 126.639Z" fill="#F08C51"/>
<path d="M182.406 83.9096C182.332 83.9096 182.26 83.8801 182.207 83.8276C182.155 83.7751 182.125 83.7039 182.125 83.6297V81.7431C182.123 81.5558 182.172 81.3714 182.266 81.209C182.36 81.0466 182.496 80.9121 182.659 80.8195C182.829 80.7178 183.023 80.6641 183.221 80.6641C183.419 80.6641 183.614 80.7178 183.784 80.8195L185.768 81.9391C185.834 81.9754 185.882 82.0363 185.903 82.1082C185.923 82.1801 185.914 82.2572 185.878 82.3225C185.841 82.3879 185.78 82.4361 185.708 82.4565C185.636 82.477 185.558 82.4681 185.493 82.4317L183.502 81.3121C183.417 81.263 183.32 81.2371 183.221 81.2371C183.123 81.2371 183.026 81.263 182.94 81.3121C182.862 81.3554 182.798 81.4189 182.753 81.4957C182.709 81.5726 182.686 81.66 182.687 81.7487V83.6353C182.686 83.7085 182.656 83.7783 182.603 83.8296C182.55 83.8809 182.48 83.9096 182.406 83.9096Z" fill="white"/>
<path d="M185.599 109.869C185.552 109.868 185.505 109.857 185.464 109.835L183.608 108.788C183.165 108.534 182.797 108.168 182.541 107.726C182.286 107.285 182.151 106.784 182.152 106.275V104.534C182.152 104.46 182.182 104.388 182.235 104.336C182.287 104.283 182.359 104.254 182.433 104.254C182.508 104.254 182.579 104.283 182.632 104.336C182.685 104.388 182.715 104.46 182.715 104.534V106.275C182.716 106.688 182.828 107.093 183.038 107.449C183.249 107.805 183.55 108.099 183.912 108.301L185.767 109.348C185.82 109.379 185.861 109.427 185.884 109.483C185.907 109.54 185.911 109.603 185.895 109.662C185.879 109.721 185.845 109.773 185.796 109.81C185.748 109.848 185.688 109.868 185.627 109.869H185.599Z" fill="white"/>
<path d="M202.391 119.222C202.193 119.226 201.999 119.175 201.829 119.076L199.844 117.957C199.779 117.92 199.732 117.86 199.712 117.788C199.692 117.717 199.701 117.641 199.737 117.576C199.775 117.513 199.836 117.466 199.907 117.446C199.978 117.427 200.054 117.435 200.119 117.47L202.11 118.589C202.195 118.639 202.292 118.664 202.391 118.664C202.489 118.664 202.586 118.639 202.672 118.589C202.75 118.546 202.814 118.483 202.859 118.406C202.903 118.329 202.926 118.241 202.925 118.153V116.266C202.925 116.192 202.954 116.121 203.007 116.068C203.06 116.016 203.131 115.986 203.206 115.986C203.28 115.986 203.352 116.016 203.405 116.068C203.457 116.121 203.487 116.192 203.487 116.266V118.153C203.488 118.339 203.439 118.523 203.345 118.684C203.252 118.846 203.116 118.979 202.953 119.071C202.783 119.171 202.588 119.224 202.391 119.222Z" fill="white"/>
<path d="M203.196 95.6364C203.121 95.6364 203.05 95.6069 202.997 95.5544C202.944 95.502 202.915 95.4308 202.915 95.3565V93.6155C202.913 93.2032 202.801 92.7986 202.591 92.4435C202.381 92.0883 202.079 91.7954 201.717 91.5946L199.862 90.5478C199.797 90.5103 199.749 90.4487 199.729 90.3765C199.709 90.3042 199.718 90.227 199.755 90.1615C199.773 90.1295 199.797 90.1014 199.827 90.0789C199.856 90.0564 199.889 90.04 199.925 90.0306C199.96 90.0212 199.998 90.019 200.034 90.0242C200.071 90.0294 200.106 90.0418 200.137 90.0608L201.993 91.1076C202.44 91.3578 202.814 91.7217 203.074 92.1622C203.335 92.6028 203.474 93.1042 203.477 93.6155V95.3565C203.477 95.4308 203.447 95.502 203.395 95.5544C203.342 95.6069 203.27 95.6364 203.196 95.6364Z" fill="white"/>
<path d="M184.897 93.3256C184.96 96.5043 185.417 99.6632 186.258 102.73C188.394 110.758 196.822 115.69 199.138 110.254C200.226 107.58 200.76 104.714 200.706 101.829C200.706 96.9027 197.164 90.9128 192.802 88.4497C188.338 85.9362 184.835 88.2705 184.897 93.3256Z" fill="white"/>
<path d="M192.52 97.8105V103.084L190.221 101.371L192.52 97.8105Z" fill="#E0E0E0"/>
<path d="M188.24 94.6571C188.255 94.9156 188.331 95.1669 188.462 95.3906C188.593 95.6143 188.775 95.8041 188.994 95.9446C189.415 96.1797 189.753 95.9894 189.753 95.5136C189.738 95.2551 189.661 95.0039 189.529 94.7809C189.397 94.5579 189.214 94.3696 188.994 94.2316C188.578 93.9965 188.24 94.1868 188.24 94.6571Z" fill="#E0E0E0"/>
<path d="M195.281 98.6762C195.297 98.9343 195.374 99.185 195.506 99.4078C195.638 99.6306 195.821 99.8192 196.04 99.9582C196.462 100.193 196.799 100.003 196.799 99.5327C196.784 99.2735 196.708 99.0215 196.576 98.7976C196.444 98.5737 196.26 98.3843 196.04 98.2452C195.647 98.01 195.281 98.2004 195.281 98.6762Z" fill="#E0E0E0"/>
<path d="M191.76 105.663L194.329 105.232C194.329 105.232 193.784 107.964 191.76 105.663Z" fill="#E0E0E0"/>
<path d="M168.879 89.6021C168.906 90.0441 169.037 90.4734 169.263 90.8549C169.489 91.2364 169.802 91.5591 170.178 91.7965C170.897 92.2052 171.476 91.8749 171.476 91.0688C171.45 90.6258 171.319 90.1953 171.093 89.8128C170.868 89.4303 170.554 89.1067 170.178 88.8687C169.464 88.4601 168.879 88.7904 168.879 89.6021Z" fill="#455A64"/>
<path d="M168.931 90.2137C168.882 90.2133 168.834 90.2018 168.79 90.1801L162.134 86.4014C158.238 84.2069 155.067 78.8384 155.067 74.4439C155.067 70.223 152.026 65.0784 148.287 62.9679L144.115 60.6167C144.051 60.5803 144.003 60.5197 143.983 60.4484C143.963 60.377 143.972 60.3007 144.009 60.2361C144.026 60.2036 144.05 60.1749 144.079 60.1519C144.108 60.1288 144.141 60.1118 144.177 60.1019C144.213 60.092 144.25 60.0893 144.287 60.0941C144.324 60.0989 144.359 60.111 144.391 60.1297L148.562 62.4809C152.458 64.6809 155.629 70.0439 155.629 74.4439C155.629 78.6593 158.671 83.8039 162.409 85.9143L169.072 89.6762C169.136 89.7127 169.184 89.7732 169.204 89.8446C169.224 89.9159 169.215 89.9923 169.178 90.0569C169.155 90.1024 169.119 90.1409 169.076 90.1684C169.032 90.1959 168.982 90.2115 168.931 90.2137Z" fill="#455A64"/>
<path d="M142.41 59.2714C142.432 59.6297 142.538 59.9778 142.721 60.2873C142.904 60.5967 143.158 60.8586 143.461 61.0516C144.024 61.3763 144.513 61.1132 144.513 60.4582C144.491 60.0999 144.385 59.7518 144.202 59.4423C144.019 59.1329 143.765 58.871 143.461 58.678C142.882 58.3533 142.41 58.6164 142.41 59.2714Z" fill="#455A64"/>
<path d="M150.321 110.584C150.321 110.584 154.419 110.31 156.741 115.981C158.186 119.507 159.946 124.938 161.07 128.576C161.411 129.675 161.419 130.85 161.093 131.953C160.767 133.056 160.122 134.039 159.237 134.779L152.092 140.752L149.545 136.122C151.03 134.149 152.663 132.291 154.43 130.564L149.545 115.981L150.321 110.584Z" fill="#FFA8A7"/>
<path d="M152.208 127.904C152.208 127.904 158.718 128.76 160.343 123.761C160.343 123.761 157.532 116.445 156.273 114.015C155.013 111.585 152.382 109.816 150.319 110.583C148.256 111.35 152.208 127.904 152.208 127.904Z" fill="#F08C51"/>
<path opacity="0.4" d="M152.208 127.904C152.208 127.904 158.718 128.76 160.343 123.761C160.343 123.761 157.532 116.445 156.273 114.015C155.013 111.585 152.382 109.816 150.319 110.583C148.256 111.35 152.208 127.904 152.208 127.904Z" fill="white"/>
<path d="M147.857 193.546C147.857 193.546 144.765 190.91 143.562 190.787C142.359 190.663 140.278 192.712 142.038 196.267C142.527 197.258 144.517 198.327 145.76 200.225C147.002 202.123 148.115 203.55 150.021 203.287C151.927 203.024 152.175 201.96 152.051 200.723C151.89 199.591 151.662 198.47 151.371 197.364L147.857 193.546Z" fill="#37474F"/>
<path d="M150.106 202.722C148.144 202.991 146.992 201.518 145.71 199.565C144.428 197.611 142.382 196.502 141.876 195.484C141.673 195.076 141.507 194.65 141.381 194.213C141.474 194.929 141.691 195.624 142.022 196.267C142.511 197.258 144.501 198.327 145.744 200.225C146.986 202.123 148.099 203.55 150.005 203.287C151.467 203.091 151.95 202.414 152.04 201.552C151.793 202.134 151.259 202.571 150.106 202.722Z" fill="#263238"/>
<path d="M146.216 196.939C146.166 196.94 146.117 196.927 146.075 196.9C146.04 196.882 146.01 196.857 145.984 196.827C145.959 196.796 145.941 196.762 145.929 196.724C145.918 196.687 145.914 196.647 145.917 196.608C145.921 196.569 145.933 196.531 145.952 196.497C146.581 195.387 147.626 194.57 148.858 194.224C148.934 194.213 149.011 194.23 149.075 194.273C149.138 194.316 149.183 194.381 149.2 194.456C149.217 194.53 149.205 194.608 149.167 194.674C149.128 194.74 149.066 194.79 148.993 194.812C147.932 195.12 147.032 195.824 146.48 196.777C146.455 196.825 146.417 196.866 146.37 196.894C146.324 196.923 146.27 196.938 146.216 196.939Z" fill="#EBEBEB"/>
<path d="M145.046 195.876C144.997 195.875 144.949 195.864 144.905 195.842C144.87 195.824 144.84 195.799 144.815 195.769C144.789 195.739 144.771 195.704 144.759 195.666C144.748 195.629 144.744 195.589 144.748 195.55C144.751 195.511 144.763 195.474 144.782 195.439C145.093 194.888 145.51 194.404 146.01 194.014C146.51 193.624 147.082 193.336 147.694 193.166C147.734 193.145 147.779 193.134 147.824 193.133C147.87 193.132 147.915 193.141 147.956 193.16C147.998 193.179 148.034 193.207 148.063 193.242C148.091 193.278 148.111 193.319 148.122 193.363C148.132 193.407 148.132 193.453 148.121 193.497C148.111 193.541 148.091 193.582 148.062 193.617C148.033 193.653 147.997 193.681 147.955 193.699C147.914 193.718 147.869 193.727 147.823 193.726C146.763 194.038 145.863 194.743 145.31 195.697C145.288 195.749 145.252 195.794 145.205 195.825C145.158 195.857 145.103 195.875 145.046 195.876Z" fill="#EBEBEB"/>
<path d="M143.738 194.819C143.689 194.819 143.641 194.807 143.597 194.785C143.526 194.748 143.474 194.683 143.45 194.607C143.427 194.53 143.435 194.447 143.473 194.377C144.105 193.267 145.152 192.452 146.386 192.11C146.424 192.101 146.464 192.099 146.503 192.105C146.542 192.112 146.579 192.126 146.613 192.147C146.646 192.167 146.675 192.195 146.698 192.227C146.721 192.259 146.737 192.295 146.745 192.334C146.762 192.411 146.747 192.493 146.704 192.56C146.661 192.627 146.593 192.674 146.515 192.692C145.454 193.004 144.555 193.709 144.002 194.662C143.977 194.71 143.939 194.75 143.892 194.778C143.845 194.806 143.792 194.82 143.738 194.819Z" fill="#EBEBEB"/>
<path d="M131.403 202.197C131.403 202.197 127.259 200.859 126.023 201.229C124.786 201.598 123.577 204.475 126.782 207.269C127.67 208.041 130.076 208.288 132.089 209.654C134.101 211.02 135.788 211.966 137.565 210.93C139.341 209.894 139.195 208.691 138.875 207.414C138.475 205.769 138.149 204.571 138.149 204.571L131.403 202.197Z" fill="#37474F"/>
<path d="M137.43 210.329C135.603 211.398 133.855 210.418 131.808 209.008C129.762 207.597 127.254 207.328 126.338 206.55C125.967 206.229 125.626 205.875 125.32 205.492C125.708 206.165 126.211 206.765 126.805 207.267C127.693 208.039 130.099 208.286 132.112 209.652C134.124 211.017 135.811 211.964 137.588 210.928C138.942 210.139 139.145 209.248 138.881 208.381C138.864 209.058 138.481 209.713 137.43 210.329Z" fill="#263238"/>
<path d="M130.43 206.008H130.402C130.323 206 130.249 205.96 130.199 205.898C130.148 205.837 130.124 205.757 130.132 205.678C130.295 204.33 130.989 203.102 132.061 202.263C132.092 202.24 132.128 202.224 132.166 202.215C132.205 202.206 132.244 202.205 132.283 202.211C132.321 202.217 132.358 202.231 132.392 202.251C132.425 202.272 132.454 202.299 132.477 202.33C132.523 202.395 132.542 202.475 132.53 202.554C132.517 202.633 132.474 202.703 132.409 202.75C131.483 203.494 130.879 204.564 130.723 205.739C130.716 205.812 130.682 205.88 130.628 205.93C130.574 205.979 130.504 206.007 130.43 206.008Z" fill="#EBEBEB"/>
<path d="M132.115 206.563C132.036 206.555 131.964 206.516 131.913 206.456C131.863 206.395 131.838 206.317 131.845 206.239C132.01 204.89 132.703 203.661 133.773 202.818C133.839 202.773 133.92 202.754 133.999 202.768C134.078 202.782 134.148 202.826 134.195 202.891C134.217 202.923 134.233 202.959 134.242 202.997C134.251 203.035 134.251 203.075 134.245 203.113C134.238 203.152 134.223 203.189 134.202 203.222C134.181 203.254 134.154 203.283 134.122 203.305C133.193 204.047 132.588 205.119 132.435 206.295C132.428 206.372 132.39 206.444 132.33 206.495C132.27 206.545 132.193 206.57 132.115 206.563Z" fill="#EBEBEB"/>
<path d="M128.832 205.431H128.804C128.725 205.423 128.653 205.384 128.603 205.324C128.553 205.263 128.528 205.185 128.534 205.107C128.696 203.757 129.39 202.527 130.463 201.686C130.527 201.64 130.608 201.622 130.686 201.635C130.765 201.648 130.835 201.692 130.881 201.756C130.928 201.821 130.946 201.901 130.933 201.979C130.92 202.058 130.876 202.127 130.811 202.173C129.882 202.916 129.278 203.987 129.124 205.163C129.118 205.236 129.084 205.303 129.03 205.353C128.976 205.402 128.906 205.43 128.832 205.431Z" fill="#EBEBEB"/>
<path d="M151.571 194.331C151.942 190.245 152.746 183.84 153.083 180.845C153.537 177.06 153.427 173.229 152.757 169.476C152.585 168.591 152.541 167.686 152.627 166.789C153.443 158.649 153.971 145.454 153.521 142.555L142.047 144.973C142.047 144.973 143.452 163.486 144.071 169.644C144.689 175.802 146.994 194.387 146.994 194.387C147.679 194.824 148.478 195.051 149.291 195.041C150.104 195.031 150.896 194.784 151.571 194.331Z" fill="#455A64"/>
<path d="M149.916 198.534C150.232 198.461 150.529 198.317 150.782 198.113C151.035 197.91 151.238 197.652 151.377 197.359C151.377 196.715 151.45 195.64 151.569 194.33C150.894 194.783 150.102 195.03 149.289 195.04C148.476 195.05 147.677 194.823 146.992 194.386L147.397 197.823C147.734 198.126 148.137 198.347 148.573 198.47C149.01 198.593 149.469 198.615 149.916 198.534Z" fill="#FFA8A7"/>
<path d="M138.659 201.519C139.125 195.328 140.03 183.342 140.148 181.456C140.237 179.374 140.105 177.29 139.755 175.236C139.552 174.126 139.552 172.988 139.755 171.877L144.815 144.01L130.945 143.809L130.04 173.002C130.03 173.376 130.045 173.75 130.085 174.122L133.025 201.334C133.025 201.334 135.893 203.736 138.659 201.519Z" fill="#455A64"/>
<path d="M136.345 206.625C136.776 206.575 137.188 206.419 137.543 206.171C137.899 205.922 138.186 205.59 138.38 205.203L138.661 201.519C135.895 203.758 133.039 201.346 133.039 201.346L133.478 205.421C133.478 205.421 134.118 206.832 136.345 206.625Z" fill="#FFA8A7"/>
<path d="M137.354 112.443L134.082 113.562L130.562 130.138L130.737 144.833C130.737 144.833 133.25 146.832 143.066 146.832C148.575 146.832 152.168 144.76 153.517 142.56L152.634 133.682C152.634 133.682 153.517 124.932 153.517 120.605C153.517 116.277 153.714 112.734 150.318 110.59L147.294 110.842L137.354 112.443Z" fill="#F08C51"/>
<path opacity="0.2" d="M137.354 112.443L134.082 113.562L130.562 130.138L130.737 144.833C130.737 144.833 133.25 146.832 143.066 146.832C148.575 146.832 152.168 144.76 153.517 142.56L152.634 133.682C152.634 133.682 153.517 124.932 153.517 120.605C153.517 116.277 153.714 112.734 150.318 110.59L147.294 110.842L137.354 112.443Z" fill="white"/>
<path d="M133.802 98.1953L132.166 101.425C132.142 101.472 132.129 101.524 132.127 101.576C132.125 101.628 132.135 101.681 132.155 101.729C132.175 101.777 132.206 101.821 132.245 101.856C132.283 101.892 132.329 101.919 132.379 101.935L134.319 102.584L133.802 98.1953Z" fill="#F28F8F"/>
<path d="M136.051 92.7812C136.051 92.7812 133.566 94.1136 133.566 101.738C133.566 105.942 133.859 108.624 136.051 108.456C138.244 108.288 144.563 107.465 144.563 107.465V92.7812H136.051Z" fill="#FFA8A7"/>
<path d="M136.052 108.486C136.822 108.424 138.104 108.284 139.425 108.128V107.35C138.22 107.862 136.96 108.237 135.67 108.469C135.797 108.484 135.925 108.49 136.052 108.486Z" fill="#F28F8F"/>
<path d="M139.088 107.025V111.822H145.683V105.082L139.088 107.025Z" fill="#FFA8A7"/>
<path d="M139.087 109.996C139.087 109.996 141.46 110.835 143.36 110.505C145.26 110.175 145.682 109.022 145.682 109.022C145.682 109.022 146.3 108.971 147.295 110.835C146.908 111.532 146.353 112.122 145.682 112.554C145.01 112.986 144.241 113.245 143.444 113.31C141.376 113.442 139.303 113.146 137.355 112.442C137.355 112.442 138.3 109.755 139.087 109.996Z" fill="#F08C51"/>
<path opacity="0.4" d="M139.087 109.996C139.087 109.996 141.46 110.835 143.36 110.505C145.26 110.175 145.682 109.022 145.682 109.022C145.682 109.022 146.3 108.971 147.295 110.835C146.908 111.532 146.353 112.122 145.682 112.554C145.01 112.986 144.241 113.245 143.444 113.31C141.376 113.442 139.303 113.146 137.355 112.442C137.355 112.442 138.3 109.755 139.087 109.996Z" fill="white"/>
<path d="M124.375 124.238L122.604 126.948C122.604 126.948 118.303 125.039 115.295 123.88C113.544 123.232 111.914 122.298 110.472 121.115C110.579 119.948 110.767 118.79 111.034 117.649C111.382 116.474 111.501 115.494 110.472 116.015C109.443 116.535 108.729 118.556 108.667 118.814C108.667 118.814 102.623 112.762 101.87 112.897C101.117 113.031 101.308 113.938 102.916 115.802L104.54 117.672C104.54 117.672 100.836 119.794 101.437 122.111C102.039 124.429 106.924 125.47 106.924 125.47C106.924 125.47 121.221 136.409 124.386 134.427C127.551 132.445 132.032 126.786 132.032 126.786L124.375 124.238Z" fill="#FFA8A7"/>
<path d="M135.383 113.131C135.383 113.131 138.025 115.292 136.305 119.759C134.584 124.226 130.194 129.623 130.194 129.623C130.194 129.623 125.595 128.195 123.818 124.495L129.62 115.454C130.032 114.81 130.59 114.272 131.249 113.883C131.908 113.494 132.65 113.265 133.415 113.215C133.966 113.181 134.618 113.153 135.383 113.131Z" fill="#F08C51"/>
<path opacity="0.4" d="M135.383 113.131C135.383 113.131 138.025 115.292 136.305 119.759C134.584 124.226 130.194 129.623 130.194 129.623C130.194 129.623 125.595 128.195 123.818 124.495L129.62 115.454C130.032 114.81 130.59 114.272 131.249 113.883C131.908 113.494 132.65 113.265 133.415 113.215C133.966 113.181 134.618 113.153 135.383 113.131Z" fill="white"/>
<path d="M135.124 88.281C135.124 88.281 132.516 87.934 131.852 89.7197C131.436 90.8393 132.763 91.7015 132.763 91.7015C132.763 91.7015 131.076 93.2745 133.589 93.7615C133.546 94.0301 133.57 94.3051 133.66 94.5621C133.749 94.819 133.901 95.0499 134.103 95.234C134.304 95.4181 134.547 95.5497 134.812 95.6171C135.077 95.6845 135.354 95.6855 135.619 95.6201C135.619 95.6201 135.327 97.2995 137.525 97.9097C137.525 97.9097 136.4 100.854 138.503 100.893H140.454L139.667 103.166C139.667 103.166 141.129 106.671 145.682 106.671C146.182 105.606 146.745 104.572 147.369 103.575C147.931 102.875 150.742 99.2868 150.742 96.443C150.742 93.5992 149.646 91.9142 148.122 91.5391C147.64 90.4942 146.887 89.5959 145.941 88.936C144.406 87.906 141.179 86.9879 139.358 88.253C139.358 88.253 137.744 86.1426 136.625 86.1426C135.507 86.1426 135.124 87.2902 135.124 88.281Z" fill="#263238"/>
<path d="M138.503 100.894C138.503 100.894 138.312 97.9102 140.836 97.9102C143.361 97.9102 142.765 103.167 139.667 103.167L138.503 100.894Z" fill="#FFA8A7"/>
</svg>
