<svg width="233" height="156" viewBox="0 0 233 156" fill="none" xmlns="http://www.w3.org/2000/svg">
<path d="M101.855 143.582C100.673 142.154 99.5381 140.667 98.0399 139.445C93.48 135.735 87.4219 136.444 81.6616 136.803C65.4323 137.812 48.5608 143.787 32.4711 138.803C27.6786 137.316 22.7093 134.093 22.5604 129.503C22.2812 121.015 37.0961 118.826 40.1018 110.782C40.8277 108.833 40.6602 106.457 39.0317 105.029C37.9708 104.106 36.4912 103.721 35.086 103.354C27.4087 101.354 19.7686 98.7891 13.329 94.4978C7.18715 90.4203 2.13409 84.5135 0.477653 77.6834C-0.434317 73.9136 -0.0993078 69.8105 1.9945 66.4596C4.25582 62.8351 8.36899 60.3903 12.752 59.1593C24.5239 55.8512 42.419 63.3394 51.8272 54.4493C56.4149 50.1153 53.7442 42.5928 50.5337 37.3356C41.7304 22.9404 52.3297 12.4004 67.768 7.69885C77.7904 4.64712 88.9388 8.05787 97.1186 13.5886C102.646 17.3327 114.195 18.5295 120.793 20.3588C127.939 22.342 137.98 21.3675 144.681 18.3756C158.053 12.4004 160.072 12.4089 175.055 9.16915C192.782 5.33953 219.127 6.52774 228.042 25.1287C233.095 35.6602 222.943 50.4572 212.976 62.4932C209.57 66.6049 205.718 74.512 207.504 79.4016C210.203 86.7873 221.705 89.0953 225.567 96.3955C233.542 111.44 224.003 126.614 209.728 134.752C202.805 138.692 194.448 141.505 186.222 141.616C175.92 141.761 166.829 136.504 156.788 135.239C148.654 134.213 140.139 135.991 133.318 140.137C128.805 142.881 124.943 146.642 119.853 148.352C115.935 149.66 111.487 149.54 107.616 148.155C105.01 147.198 103.391 145.437 101.855 143.582Z" fill="#EBE2D6"/>
<path d="M34.4431 43.19C36.1368 38.6851 35.718 33.2142 34.5548 30.0001C33.9778 28.393 33.0938 26.897 31.6421 26.1106C29.1574 24.7771 25.8073 26.35 23.6484 29.0085C21.6104 31.5131 20.6798 34.5648 20.0284 37.4798C18.6325 43.7286 19.8144 53.3112 28.4502 49.7123C31.5025 48.4387 33.3916 46.0024 34.4431 43.19Z" fill="#EBE2D6"/>
<path d="M221.398 59.7653C218.932 61.4835 216.856 63.954 215.349 66.0398C213.618 68.4333 212.231 71.1858 212.371 74.058C212.511 76.9302 214.549 79.8623 217.601 80.4607C221.081 81.1445 224.366 78.7681 226.628 76.2464C229.829 72.6988 232.258 68.382 232.481 63.783C232.639 60.4406 230.266 57.1923 226.227 57.7479C224.496 57.9873 222.877 58.7395 221.398 59.7653Z" fill="#EBE2D6"/>
<path d="M100.704 73.4774C102.947 67.7377 107.409 62.7431 113.112 59.5881C115.507 58.2608 118.182 57.213 120.032 55.292C122.58 52.6609 123.125 48.947 123.923 45.5125C125.292 39.6098 127.713 33.9167 131.071 28.7358C131.92 27.4202 132.846 26.093 133.112 24.5912C133.378 23.0893 132.77 21.3196 131.261 20.6793C129.436 19.8993 127.332 21.0402 125.837 22.286C123.036 24.6494 120.843 27.5949 119.474 30.8547C119.322 28.2236 118.701 25.0103 115.976 24.172C113.784 23.5084 111.376 24.9521 110.362 26.8498C109.348 28.7475 109.386 30.9479 109.449 33.0668C109.031 31.4136 108.549 29.6672 107.282 28.4215C106.014 27.1758 103.67 26.6635 102.288 27.8044C101.414 28.5263 101.16 29.6672 100.996 30.7383C100.641 33.1134 100.527 35.5233 100.679 37.91C100.197 35.6048 96.737 34.6269 94.5191 35.8144C92.3138 37.0019 91.4139 39.6098 91.6927 41.9499C91.9716 44.2784 93.2136 46.4089 94.4303 48.4813C91.528 47.4917 87.9158 48.9935 86.8132 51.648C85.7232 54.2908 87.3455 57.6205 90.2352 58.6217C87.1047 58.1211 84.6079 61.1831 84.0502 64.0471C83.3151 67.8774 84.6713 72.0105 87.599 74.8279L100.704 73.4774Z" fill="#A8A29E"/>
<path d="M168.459 142.47L107.649 114.447C106.242 113.795 105.672 112.223 106.382 110.931L120.323 85.5971C121.033 84.3048 122.756 83.7809 124.163 84.4328L184.974 112.456C186.381 113.108 186.951 114.68 186.241 115.972L172.3 141.306C171.59 142.61 169.866 143.122 168.459 142.47Z" fill="white"/>
<path d="M122.198 86.6554C125.468 92.1622 128.928 97.5759 132.578 102.873C134.403 105.528 136.279 108.147 138.193 110.743C139.511 112.536 140.93 115.342 143.44 115.901C144.733 116.192 146.152 116.029 147.47 115.994C149.257 115.959 151.057 115.913 152.844 115.866C156.431 115.761 160.018 115.633 163.592 115.482C170.879 115.168 178.167 114.725 185.442 114.19C186.177 114.131 186.19 113.072 185.442 113.13C172.109 114.12 158.649 114.981 145.252 114.981C141.615 114.981 139.942 111.267 138.155 108.822C136.393 106.401 134.657 103.956 132.971 101.488C129.536 96.4583 126.279 91.3356 123.174 86.1199C122.844 85.5261 121.843 86.0617 122.198 86.6554Z" fill="#57534E"/>
<path d="M111.211 112.841C119.677 111.7 128.08 110.198 136.394 108.323C137.117 108.16 136.812 107.136 136.09 107.299C127.776 109.173 119.373 110.675 110.907 111.816C110.171 111.909 110.476 112.934 111.211 112.841Z" fill="#57534E"/>
<path d="M158.155 116.228C160.741 120.535 163.339 124.843 165.924 129.151C166.279 129.744 167.293 129.209 166.926 128.615C164.34 124.307 161.742 120 159.156 115.692C158.801 115.098 157.8 115.634 158.155 116.228Z" fill="#57534E"/>
<path d="M122.985 82.4304C122.542 83.5248 122.022 84.6657 121.414 85.8765C120.374 84.5842 119.361 83.3385 118.309 82.3605C119.665 81.7202 121.249 81.7202 122.985 82.4304Z" fill="#F43F5E"/>
<path d="M35.1155 57.6204C34.0255 56.0137 34.0635 53.9181 35.3943 52.4861C37.7263 49.983 41.8961 51.2171 45.0266 52.6025C43.6071 51.0657 42.3144 49.4242 41.1864 47.6895C40.2358 46.2342 39.374 44.4762 40.464 42.9161C41.3004 41.7286 42.8974 41.2396 44.4056 41.519C47.27 42.0313 48.8922 44.255 50.3624 46.3389C48.9176 44.2899 47.9163 41.9847 47.422 39.5864C47.0038 37.514 47.1432 34.9877 49.4246 33.9981C50.5906 33.4974 51.9467 33.6139 53.0874 34.161C55.4321 35.302 56.4714 37.5257 57.4093 39.6446C58.157 41.3327 67.4598 56.5144 72.7956 61.3459C78.1314 66.1775 84.9628 69.6935 92.3265 70.0195C97.3074 70.2407 102.276 69.0066 107.257 68.5991C112.25 68.18 118.372 67.0973 122.047 70.2873C125.114 72.9534 125.19 76.9583 122.985 82.4419C121.236 81.7317 119.652 81.7317 118.308 82.372C116.813 80.9749 115.229 80.1134 113.366 80.4394C111.414 80.777 109.196 83.7458 107.954 85.2244C103.682 90.3005 99.5507 93.083 91.5153 93.1063C85.2163 93.1296 78.3596 90.4518 73.0491 87.157C67.9921 84.0252 62.9605 76.7721 60.451 71.6028C59.6652 69.9846 58.2077 67.0623 57.7641 65.3276C53.3662 66.5384 47.4474 69.2045 42.8847 69.6586C40.4259 69.9031 37.7644 70.0078 35.7618 68.5176C34.7986 67.8074 34.1903 66.7363 34.2156 65.607C34.279 63.8258 35.7112 63.069 37.118 62.5335C39.374 61.6719 41.8074 61.2062 44.2408 61.1713C40.7935 61.1946 37.0673 60.5193 35.1155 57.6204Z" fill="#A8A29E"/>
<path d="M93.5816 76.2245C91.5284 68.7152 95.8249 61.2524 100.134 54.6046C100.793 53.5918 101.465 52.5439 101.604 51.3913C101.718 50.425 101.44 49.4471 101.161 48.504C98.6386 39.7606 96.1164 31.0172 93.5943 22.2738C92.6818 19.1071 90.7806 13.3209 86.0785 13.4373C83.5184 13.5071 82.8847 17.7449 82.834 19.3982C82.7452 22.3204 83.5691 25.2426 85.166 27.7807C83.4296 24.3345 81.0849 22.3204 77.9417 23.799C74.7986 25.2776 74.0001 28.9332 74.9506 31.9137C75.9012 34.8941 78.1699 37.4555 79.9569 40.1681C78.8036 38.4218 77.1559 36.4076 74.8112 36.4891C71.5667 36.5939 70.8062 40.5989 72.4412 43.0089C74.0761 45.4188 76.9912 47.1419 78.2586 49.7032C76.687 48.4808 75.0013 47.2001 72.9228 46.8275C70.8442 46.455 68.3221 47.4097 68.0939 49.1793C67.9672 50.1223 68.4995 51.0421 69.0445 51.8803C70.8442 54.6396 73.0495 57.2125 75.5717 59.5526C73.8733 57.3522 69.3233 58.4 68.3474 60.8449C67.3715 63.2898 69.0065 66.0258 71.1864 67.9002C73.3664 69.7746 76.1167 71.1368 78.2713 73.0461L93.5816 76.2245Z" fill="#A8A29E"/>
<path d="M94.1383 76.084C92.2879 68.6678 96.2803 61.6475 100.273 55.4305C101.058 54.208 101.958 52.9739 102.148 51.5303C102.326 50.2264 101.87 48.9341 101.515 47.6883C100.45 43.9861 99.3854 40.2838 98.3081 36.5932C97.2688 33.0073 96.2422 29.4215 95.203 25.8356C94.4805 23.3325 93.8722 20.7596 92.7949 18.3496C92.0344 16.6498 90.9951 14.8802 89.2968 13.8207C87.9407 12.9475 85.8621 12.4353 84.4553 13.4598C82.8584 14.624 82.4528 16.9525 82.288 18.6989C81.9965 21.9587 82.9344 25.1953 84.6581 28.036C85.0256 28.6414 85.9762 28.1059 85.6593 27.5005C84.6708 25.5911 83.2006 23.2627 80.7038 22.8319C78.5365 22.4593 76.3565 23.74 75.2159 25.3583C71.553 30.5275 76.572 36.1624 79.449 40.4235C79.7785 40.2489 80.1208 40.0626 80.4503 39.8879C79.2969 38.1649 77.7253 36.174 75.3299 35.9645C73.5556 35.8131 72.0854 36.7329 71.4263 38.2114C69.1957 43.1944 75.6975 46.1748 77.738 49.9469C78.0422 49.7374 78.3464 49.5162 78.6506 49.3066C76.8635 47.9212 74.861 46.396 72.4276 46.2097C70.7546 46.0817 68.6633 46.6871 67.8395 48.1307C66.7495 50.0401 68.4859 52.1357 69.5886 53.6492C71.2235 55.8962 73.0866 57.9685 75.1525 59.8895C75.6848 60.3901 76.4326 59.6567 75.9763 59.1328C73.4288 56.2687 68.0296 58.2363 67.5353 61.6475C66.7115 67.2824 74.2146 70.2512 77.8648 73.3714C78.4097 73.837 79.2336 73.0919 78.6886 72.6146C75.6975 70.0533 71.477 68.3768 69.4745 64.9889C68.4352 63.2192 68.1691 60.7976 70.2096 59.5402C71.7432 58.5972 73.9358 58.4924 75.1652 59.8779C75.444 59.6217 75.7102 59.3772 75.989 59.1211C73.4415 56.7344 70.894 54.045 69.2337 51.053C67.8395 48.5382 70.1082 46.8966 72.7824 47.2925C74.7469 47.5835 76.3946 48.8875 77.8521 50.0284C78.359 50.4243 79.0688 49.9353 78.7646 49.3881C77.155 46.4193 73.0739 44.4867 72.3135 41.1919C71.9713 39.7133 72.3642 37.6293 74.1512 37.0821C76.572 36.3487 78.4097 38.8285 79.4617 40.3886C79.8546 40.9707 80.8559 40.4351 80.463 39.853C78.0675 36.2905 74.24 32.3321 75.3426 27.8265C75.8242 25.8473 77.6873 23.6352 80.1588 23.7982C82.4781 23.9496 83.7962 26.3246 84.6708 28.0011C85.0003 27.8265 85.3425 27.6402 85.672 27.4656C84.1004 24.8693 83.2386 21.9471 83.4414 18.9666C83.5428 17.4182 83.9483 14.2049 86.0776 13.9371C90.6656 13.355 92.402 20.1542 93.2385 23.0531C94.9875 29.1071 96.7365 35.1611 98.4729 41.2152C99.3221 44.149 100.627 47.2459 100.982 50.2729C101.325 53.2184 98.2701 56.3386 96.8379 58.8533C93.7454 64.267 91.5021 70.2046 93.023 76.3402C93.1878 77.0271 94.3031 76.7476 94.1383 76.084Z" fill="#292524"/>
<path d="M113.707 102.699C115.938 103.91 118.169 105.132 120.412 106.343C121.058 106.692 121.641 105.772 120.995 105.423C118.764 104.212 116.534 102.99 114.29 101.779C113.644 101.43 113.061 102.349 113.707 102.699Z" fill="#57534E"/>
<path d="M115.697 100.523C117.928 101.85 120.171 103.189 122.402 104.516C123.035 104.888 123.618 103.969 122.985 103.596C120.754 102.269 118.511 100.93 116.28 99.6028C115.659 99.2302 115.076 100.15 115.697 100.523Z" fill="#57534E"/>
<path d="M118.372 98.845C119.982 99.5319 121.426 100.405 122.719 101.511C123.264 101.977 124.088 101.232 123.543 100.754C122.174 99.5901 120.653 98.6354 118.955 97.9253C118.283 97.6458 117.7 98.5656 118.372 98.845Z" fill="#57534E"/>
<path d="M92.1222 126.076L87.813 128.218C85.1894 130 85.5443 130.582 84.9486 133.527L83.4404 142.271C83.377 142.562 82.9208 142.562 82.8701 142.271L81.3872 133.586C80.7915 130.663 80.8549 130.011 78.2567 128.23L74.1883 126.088C74.0362 125.983 74.0362 125.774 74.1883 125.657L78.8017 123.643C81.3745 121.85 81.2224 120.663 81.8181 117.752L82.8827 109.498C82.9461 109.207 83.4024 109.207 83.4531 109.498L84.6951 118.055C85.2655 120.954 85.595 122.153 88.1425 123.946L92.1348 125.657C92.2743 125.762 92.2743 125.972 92.1222 126.076Z" fill="#F08C51"/>
<path d="M198.889 54.9074L193.68 57.5037C190.512 59.6692 190.93 60.3677 190.208 63.9303L188.383 74.5132C188.307 74.8624 187.762 74.8624 187.686 74.5132L185.886 63.9885C185.163 60.4492 185.239 59.6692 182.096 57.5037L177.166 54.9074C176.976 54.7794 176.976 54.5232 177.166 54.3952L182.743 51.9503C185.86 49.7848 185.683 48.3411 186.393 44.8135L187.673 34.8127C187.749 34.4635 188.294 34.4635 188.37 34.8127L189.878 45.1744C190.575 48.6788 190.968 50.1457 194.061 52.3112L198.902 54.3835C199.08 54.5232 199.08 54.7794 198.889 54.9074Z" fill="#F08C51"/>
<path d="M162.895 67.6792L159.257 69.4954C157.039 71.0089 157.344 71.4979 156.837 73.9777L155.569 81.359C155.519 81.6035 155.138 81.6035 155.088 81.359L153.833 74.0126C153.326 71.5445 153.389 70.9973 151.197 69.4838L147.749 67.6676C147.623 67.5744 147.623 67.3998 147.749 67.3066L151.64 65.6069C153.82 64.0934 153.694 63.0921 154.188 60.6239L155.088 53.6502C155.138 53.4057 155.531 53.4057 155.569 53.6502L156.621 60.8801C157.103 63.325 157.382 64.3495 159.536 65.863L162.908 67.3066C163.022 67.4114 163.022 67.5861 162.895 67.6792Z" fill="#F08C51"/>
<path d="M117.179 77.517C117.699 77.6568 118.079 78.1574 117.978 78.6464C117.838 79.31 118.954 79.601 119.093 78.9258C119.321 77.8547 118.65 76.7836 117.484 76.4809C116.774 76.3062 116.47 77.3308 117.179 77.517Z" fill="#292524"/>
<path d="M78.5482 89.0785C78.8524 89.8236 79.334 90.8132 79.0045 91.6165C78.7637 92.1987 77.9906 92.6411 77.3949 92.2103C76.7992 91.7912 76.2162 92.7226 76.8119 93.13C77.7371 93.782 79.0172 93.3862 79.7016 92.6178C80.6902 91.5117 80.1705 89.9866 79.6762 88.7991C79.4101 88.1704 78.2821 88.4382 78.5482 89.0785Z" fill="#292524"/>
<path d="M82.0976 92.5011C82.4905 93.1414 82.0216 94.1776 81.1724 94.2708C80.4373 94.3523 80.4373 95.4117 81.1724 95.3302C82.8834 95.1439 83.9607 93.3743 83.0989 91.9656C82.744 91.3718 81.7428 91.9074 82.0976 92.5011Z" fill="#292524"/>
</svg>
