<svg width="19" height="20" viewBox="0 0 19 20" fill="none" xmlns="http://www.w3.org/2000/svg">
<path fill-rule="evenodd" clip-rule="evenodd" d="M9.16575 6C6.95661 6 5.16575 7.79086 5.16575 10C5.16575 12.2091 6.95661 14 9.16575 14C11.3749 14 13.1657 12.2091 13.1657 10C13.1657 7.79086 11.3749 6 9.16575 6ZM7.16575 10C7.16575 8.89543 8.06118 8 9.16575 8C10.2703 8 11.1657 8.89543 11.1657 10C11.1657 11.1046 10.2703 12 9.16575 12C8.06118 12 7.16575 11.1046 7.16575 10Z" fill="#292524"/>
<path fill-rule="evenodd" clip-rule="evenodd" d="M9.16583 0C7.54102 0 6.0985 1.03971 5.58469 2.58114L5.32769 3.35214L4.53176 3.18926C2.93994 2.86352 1.31826 3.59292 0.505858 5.00005C-0.306547 6.40718 -0.127392 8.17629 0.950621 9.39198L1.48979 10L0.950541 10.6081C-0.127472 11.8238 -0.306626 13.5929 0.505779 15.0001C1.31818 16.4072 2.93986 17.1366 4.53168 16.8108L5.32772 16.6479L5.58469 17.4189C6.0985 18.9603 7.54102 20 9.16583 20C10.7906 20 12.2332 18.9603 12.747 17.4189L13.004 16.6478L13.8005 16.8108C15.3923 17.1366 17.014 16.4072 17.8264 15.0001C18.6388 13.5929 18.4596 11.8238 17.3816 10.6081L16.8424 10L17.3815 9.39198C18.4595 8.17629 18.6387 6.40718 17.8263 5.00005C17.0139 3.59292 15.3922 2.86352 13.8004 3.18926L13.004 3.35223L12.747 2.58114C12.2332 1.03971 10.7906 0 9.16583 0ZM7.48206 3.21359C7.72364 2.48885 8.40188 2 9.16583 2C9.92978 2 10.608 2.48885 10.8496 3.21359L11.2311 4.35813C11.4801 5.10513 12.2479 5.5484 13.0193 5.39054L14.2013 5.14866C14.9498 4.9955 15.7123 5.33845 16.0942 6.00005C16.4762 6.66165 16.392 7.49345 15.8851 8.06504L15.0848 8.9676C14.5624 9.55674 14.5624 10.4433 15.0848 11.0324L15.8852 11.9351C16.3921 12.5067 16.4763 13.3385 16.0943 14.0001C15.7123 14.6617 14.9499 15.0046 14.2014 14.8514L13.0193 14.6095C12.2479 14.4517 11.4801 14.8949 11.2311 15.6419L10.8496 16.7864C10.608 17.5112 9.92978 18 9.16583 18C8.40188 18 7.72364 17.5112 7.48206 16.7864L7.10059 15.642C6.8516 14.895 6.08385 14.4518 5.31244 14.6096L4.13072 14.8514C3.38228 15.0046 2.6198 14.6617 2.23783 14.0001C1.85585 13.3385 1.94009 12.5067 2.44695 11.9351L3.24738 11.0324C3.7698 10.4433 3.76979 9.55674 3.24738 8.9676L2.44703 8.06504C1.94017 7.49345 1.85593 6.66165 2.23791 6.00005C2.61988 5.33845 3.38236 4.9955 4.1308 5.14866L5.31243 5.39046C6.08383 5.54831 6.85157 5.10506 7.10056 4.35808L7.48206 3.21359Z" fill="#292524"/>
</svg>
