<svg width="19" height="19" viewBox="0 0 19 19" fill="none" xmlns="http://www.w3.org/2000/svg">
<path fill-rule="evenodd" clip-rule="evenodd" d="M3.66394 2.44262C4.34656 1.9905 5.16515 1.72721 6.04524 1.72721V0C2.70655 0 0 2.70655 0 6.04524H1.72721C1.72721 5.16515 1.9905 4.34656 2.44262 3.66394L3.52851 4.74983L2.41196 5.86638L3.63328 7.0877L4.74983 5.97115L5.89704 7.11836C5.44493 7.80099 5.18163 8.61958 5.18163 9.49966C5.18163 11.5887 6.6651 13.3312 8.63606 13.7313V15.5449H6.90884V17.2721H8.63606V18.9993H10.3633V17.2721H12.0905V15.5449H10.3633V13.7313C12.3342 13.3312 13.8177 11.5887 13.8177 9.49966C13.8177 8.61958 13.5544 7.80099 13.1023 7.11836L16.5567 3.66394C17.0088 4.34657 17.2721 5.16515 17.2721 6.04524H18.9993C18.9993 2.70655 16.2928 0 12.9541 0V1.72721C13.8342 1.72721 14.6528 1.9905 15.3354 2.44262L11.881 5.89704C11.1983 5.44493 10.3797 5.18163 9.49966 5.18163C8.61958 5.18163 7.80099 5.44493 7.11836 5.89704L5.97115 4.74983L7.0877 3.63328L5.86638 2.41196L4.74983 3.52851L3.66394 2.44262ZM6.90884 9.49966C6.90884 8.06879 8.06879 6.90884 9.49966 6.90884C10.9305 6.90884 12.0905 8.06879 12.0905 9.49966C12.0905 10.9305 10.9305 12.0905 9.49966 12.0905C8.06879 12.0905 6.90884 10.9305 6.90884 9.49966Z" fill="#57534E"/>
</svg>
