<svg width="60" height="46" viewBox="0 0 60 46" fill="none" xmlns="http://www.w3.org/2000/svg">
<path fill-rule="evenodd" clip-rule="evenodd" d="M44.4448 0.858309C45.8097 0.292943 47.2726 0.00195312 48.75 0.00195312C50.2274 0.00195312 51.6903 0.292943 53.0552 0.858308C54.4201 1.42367 55.6603 2.25234 56.705 3.297C57.7496 4.34166 58.5783 5.58185 59.1436 6.94676C59.709 8.31168 60 9.77458 60 11.252C60 13.323 58.3211 15.002 56.25 15.002C54.1789 15.002 52.5 13.323 52.5 11.252C52.5 10.7595 52.403 10.2719 52.2145 9.81689C52.0261 9.36192 51.7499 8.94852 51.4017 8.6003C51.0534 8.25208 50.64 7.97586 50.1851 7.7874C49.7301 7.59895 49.2425 7.50195 48.75 7.50195C48.2575 7.50195 47.7699 7.59895 47.3149 7.7874C46.86 7.97586 46.4466 8.25208 46.0983 8.6003C45.7501 8.94852 45.4739 9.36192 45.2855 9.81689C45.097 10.2719 45 10.7595 45 11.252C45 13.323 43.3211 15.002 41.25 15.002C39.1789 15.002 37.5 13.323 37.5 11.252C37.5 9.77458 37.791 8.31168 38.3564 6.94676C38.9217 5.58185 39.7504 4.34166 40.795 3.297C41.8397 2.25234 43.0799 1.42367 44.4448 0.858309Z" fill="#3F4B29"/>
<path fill-rule="evenodd" clip-rule="evenodd" d="M49.0824 23.7322C51.0829 24.2683 52.2701 26.3245 51.734 28.325C50.4521 33.1093 47.6273 37.3368 43.6978 40.352C39.7684 43.3672 34.9537 45.0016 30.0007 45.0016C25.0477 45.0016 20.2331 43.3672 16.3036 40.352C12.3741 37.3368 9.54932 33.1093 8.26738 28.325C7.73135 26.3245 8.91853 24.2683 10.919 23.7322C12.9195 23.1962 14.9758 24.3834 15.5118 26.3839C16.3664 29.5734 18.2496 32.3918 20.8693 34.4019C23.489 36.412 26.6987 37.5016 30.0007 37.5016C33.3027 37.5016 36.5125 36.412 39.1321 34.4019C41.7518 32.3918 43.635 29.5734 44.4896 26.3839C45.0256 24.3834 47.0819 23.1962 49.0824 23.7322Z" fill="#3F4B29"/>
<path fill-rule="evenodd" clip-rule="evenodd" d="M6.94481 0.856356C8.30972 0.29099 9.77263 0 11.25 0C12.7274 0 14.1903 0.29099 15.5552 0.856355C16.9201 1.42172 18.1603 2.25039 19.205 3.29505C20.2496 4.33971 21.0783 5.5799 21.6436 6.94481C22.209 8.30972 22.5 9.77263 22.5 11.25C22.5 13.3211 20.8211 15 18.75 15C16.6789 15 15 13.3211 15 11.25C15 10.7575 14.903 10.2699 14.7145 9.81494C14.5261 9.35997 14.2499 8.94657 13.9017 8.59835C13.5534 8.25013 13.14 7.97391 12.6851 7.78545C12.2301 7.597 11.7425 7.5 11.25 7.5C10.7575 7.5 10.2699 7.597 9.81494 7.78545C9.35997 7.97391 8.94657 8.25013 8.59835 8.59835C8.25013 8.94657 7.97391 9.35997 7.78545 9.81494C7.597 10.2699 7.5 10.7575 7.5 11.25C7.5 13.3211 5.82107 15 3.75 15C1.67893 15 2.23517e-07 13.3211 0 11.25C0 9.77263 0.29099 8.30972 0.856355 6.94481C1.42172 5.5799 2.25039 4.33971 3.29505 3.29505C4.33971 2.25039 5.5799 1.42172 6.94481 0.856356Z" fill="#3F4B29"/>
</svg>
