<svg width="19" height="19" viewBox="0 0 19 19" fill="none" xmlns="http://www.w3.org/2000/svg">
<path fill-rule="evenodd" clip-rule="evenodd" d="M5.6998 3.79987C5.6998 1.70126 7.40106 0 9.49966 0C11.5983 0 13.2995 1.70126 13.2995 3.79987V5.6998H15.1995C17.2981 5.6998 18.9993 7.40106 18.9993 9.49966C18.9993 11.5983 17.2981 13.2995 15.1995 13.2995H13.2995V15.1995C13.2995 17.2981 11.5983 18.9993 9.49966 18.9993C7.40106 18.9993 5.6998 17.2981 5.6998 15.1995V13.2995H3.79987C1.70126 13.2995 0 11.5983 0 9.49966C0 7.40106 1.70126 5.6998 3.79987 5.6998H5.6998V3.79987ZM9.49966 1.89993C8.45036 1.89993 7.59973 2.75056 7.59973 3.79987V7.59973H3.79987C2.75056 7.59973 1.89993 8.45036 1.89993 9.49966C1.89993 10.549 2.75056 11.3996 3.79987 11.3996H7.59973V15.1995C7.59973 16.2488 8.45036 17.0994 9.49966 17.0994C10.549 17.0994 11.3996 16.2488 11.3996 15.1995V11.3996H15.1995C16.2488 11.3996 17.0994 10.549 17.0994 9.49966C17.0994 8.45036 16.2488 7.59973 15.1995 7.59973H11.3996V3.79987C11.3996 2.75056 10.549 1.89993 9.49966 1.89993Z" fill="#A8A29E"/>
</svg>
