<svg width="27" height="27" viewBox="0 0 27 27" fill="none" xmlns="http://www.w3.org/2000/svg">
<path fill-rule="evenodd" clip-rule="evenodd" d="M8.0999 5.39993C8.0999 2.41763 10.5175 0 13.4998 0C16.4821 0 18.8998 2.41763 18.8998 5.39993V8.0999H21.5997C24.582 8.0999 26.9997 10.5175 26.9997 13.4998C26.9997 16.4821 24.582 18.8998 21.5997 18.8998H18.8998V21.5997C18.8998 24.582 16.4821 26.9997 13.4998 26.9997C10.5175 26.9997 8.0999 24.582 8.0999 21.5997V18.8998H5.39993C2.41763 18.8998 0 16.4821 0 13.4998C0 10.5175 2.41763 8.0999 5.39993 8.0999H8.0999V5.39993ZM13.4998 2.69997C12.0087 2.69997 10.7999 3.90878 10.7999 5.39993V10.7999H5.39993C3.90878 10.7999 2.69997 12.0087 2.69997 13.4998C2.69997 14.991 3.90878 16.1998 5.39993 16.1998H10.7999V21.5997C10.7999 23.0909 12.0087 24.2997 13.4998 24.2997C14.991 24.2997 16.1998 23.0909 16.1998 21.5997V16.1998H21.5997C23.0909 16.1998 24.2997 14.991 24.2997 13.4998C24.2997 12.0087 23.0909 10.7999 21.5997 10.7999H16.1998V5.39993C16.1998 3.90878 14.991 2.69997 13.4998 2.69997Z" fill="#57534E"/>
</svg>
