<svg width="17" height="16" viewBox="0 0 17 16" fill="none" xmlns="http://www.w3.org/2000/svg">
<path fill-rule="evenodd" clip-rule="evenodd" d="M8.50045 1.32003C6.50546 -0.494577 3.41593 -0.438319 1.4888 1.48881C-0.496268 3.47388 -0.496268 6.69232 1.48881 8.67739L8.50045 15.689L15.5121 8.67739C17.4972 6.69232 17.4972 3.47388 15.5121 1.48881C13.585 -0.438319 10.4954 -0.494577 8.50045 1.32003ZM7.46917 2.69702C6.15138 1.37923 4.01482 1.37923 2.69702 2.69702C1.37923 4.01482 1.37923 6.15138 2.69702 7.46917L8.50045 13.2726L14.3039 7.46917C15.6217 6.15138 15.6217 4.01482 14.3039 2.69702C12.9861 1.37923 10.8495 1.37923 9.53173 2.69702L8.50045 3.7283L7.46917 2.69702Z" fill="#57534E"/>
</svg>
