<svg width="26" height="27" viewBox="0 0 26 27" fill="none" xmlns="http://www.w3.org/2000/svg">
<path d="M16.0368 0.64405C14.1469 0.00253672 12.1281 -0.163003 10.159 0.162096C8.18987 0.487194 6.33135 1.29289 4.74801 2.50783C3.16468 3.72277 1.90541 5.30943 1.08175 7.12729C0.258085 8.94515 -0.104542 10.9381 0.0259859 12.9296C0.156514 14.921 0.776167 16.8496 1.83006 18.5444C2.4416 19.5278 3.18841 20.4149 4.04528 21.1814V26.9685H6.74213V19.909L6.23648 19.5041C5.40369 18.8374 4.68722 18.032 4.12023 17.1203C3.30054 15.8021 2.81859 14.3021 2.71706 12.7532C2.61554 11.2042 2.89759 9.65419 3.53821 8.2403C4.17884 6.82641 5.15827 5.59234 6.38975 4.64739C7.62123 3.70244 9.06676 3.07578 10.5983 2.82293C12.1298 2.57007 13.7 2.69883 15.1699 3.19778C16.6398 3.69674 17.9639 4.55049 19.025 5.68342C20.0838 6.81384 20.848 8.18737 21.2505 9.68286L22.543 14.8327H18.878V20.2264C18.878 20.9711 18.2743 21.5748 17.5295 21.5748H13.4843V26.9685H16.1811V24.2717H17.5295C19.7637 24.2717 21.5748 22.4605 21.5748 20.2264V17.5295H26.0003L23.8609 9.00521L23.8582 8.99486C23.3416 7.06711 22.3576 5.2965 20.9933 3.83988C19.6291 2.38325 17.9266 1.28556 16.0368 0.64405Z" fill="#57534E"/>
<path d="M10.7874 10.7874V6.74213H13.4843V10.7874H17.5295V13.4843H13.4843V17.5295H10.7874V13.4843H6.74213V10.7874H10.7874Z" fill="#57534E"/>
</svg>
