<svg width="17" height="14" viewBox="0 0 17 14" fill="none" xmlns="http://www.w3.org/2000/svg">
<path fill-rule="evenodd" clip-rule="evenodd" d="M9.00918 7.4795C8.88081 7.57579 8.75913 7.68125 8.64516 7.79523C8.32947 8.11092 8.07904 8.48571 7.90819 8.89818C7.73734 9.31066 7.6494 9.75274 7.6494 10.1992H9.34927C9.34927 9.97597 9.39324 9.75493 9.47866 9.54869C9.56409 9.34246 9.6893 9.15506 9.84715 8.99722C10.005 8.83937 10.1924 8.71416 10.3986 8.62873C10.6049 8.5433 10.8259 8.49934 11.0491 8.49934C11.2724 8.49934 11.4934 8.5433 11.6996 8.62873C11.9059 8.71416 12.0933 8.83937 12.2511 8.99722C12.409 9.15506 12.5342 9.34245 12.6196 9.54869C12.705 9.75493 12.749 9.97597 12.749 10.1992H14.4489C14.4489 9.75274 14.3609 9.31066 14.1901 8.89818C14.0192 8.48571 13.7688 8.11092 13.4531 7.79523C13.3391 7.68125 13.2175 7.57579 13.0891 7.4795C13.4092 7.05333 13.5989 6.52359 13.5989 5.94953C13.5989 4.54132 12.4574 3.39973 11.0491 3.39973C9.64092 3.39973 8.49934 4.54132 8.49934 5.94953C8.49934 6.52359 8.68904 7.05333 9.00918 7.4795ZM10.1992 5.94953C10.1992 6.41894 10.5797 6.79947 11.0491 6.79947C11.5185 6.79947 11.8991 6.41894 11.8991 5.94953C11.8991 5.48013 11.5185 5.0996 11.0491 5.0996C10.5797 5.0996 10.1992 5.48013 10.1992 5.94953Z" fill="#57534E"/>
<path d="M2.5498 5.94953H7.22444V4.24967H2.5498V5.94953Z" fill="#57534E"/>
<path d="M2.5498 6.79947V8.49934H5.94954V6.79947H2.5498Z" fill="#57534E"/>
<path fill-rule="evenodd" clip-rule="evenodd" d="M4.24967 0C1.90264 0 0 1.90264 0 4.24967V9.34927C0 11.6963 1.90264 13.5989 4.24967 13.5989H12.749C15.096 13.5989 16.9987 11.6963 16.9987 9.34927V4.24967C16.9987 1.90264 15.096 0 12.749 0H4.24967ZM1.69987 4.24967C1.69987 2.84145 2.84145 1.69987 4.24967 1.69987H12.749C14.1572 1.69987 15.2988 2.84145 15.2988 4.24967V9.34927C15.2988 10.7575 14.1572 11.8991 12.749 11.8991H4.24967C2.84145 11.8991 1.69987 10.7575 1.69987 9.34927V4.24967Z" fill="#57534E"/>
</svg>
