<svg width="14" height="14" viewBox="0 0 14 14" fill="none" xmlns="http://www.w3.org/2000/svg">
<path fill-rule="evenodd" clip-rule="evenodd" d="M6.99966 13.9993C10.8655 13.9993 13.9993 10.8655 13.9993 6.99966C13.9993 3.13385 10.8655 0 6.99966 0C3.13385 0 0 3.13385 0 6.99966C0 10.8655 3.13385 13.9993 6.99966 13.9993ZM6.99966 3.14985C6.41979 3.14985 5.94971 3.61992 5.94971 4.19979C5.94971 4.77967 6.41979 5.24974 6.99966 5.24974C7.57953 5.24974 8.04961 4.77967 8.04961 4.19979C8.04961 3.61992 7.57953 3.14985 6.99966 3.14985ZM6.29969 6.29969V10.8495H7.69962V6.29969H6.29969Z" fill="#CF4C1E"/>
</svg>
