<svg width="17" height="17" viewBox="0 0 17 17" fill="none" xmlns="http://www.w3.org/2000/svg">
<path d="M7.22486 5.0999C7.22486 4.39575 7.79569 3.82493 8.49983 3.82493C9.20398 3.82493 9.77481 4.39575 9.77481 5.0999C9.77481 5.80405 9.20398 6.37488 8.49983 6.37488C7.79569 6.37488 7.22486 5.80405 7.22486 5.0999Z" fill="#A8A29E"/>
<path d="M7.64985 13.1747V7.64985H9.34982V13.1747H7.64985Z" fill="#A8A29E"/>
<path fill-rule="evenodd" clip-rule="evenodd" d="M8.49983 0C3.80551 0 0 3.80551 0 8.49983C0 13.1942 3.80551 16.9997 8.49983 16.9997C13.1942 16.9997 16.9997 13.1942 16.9997 8.49983C16.9997 3.80551 13.1942 0 8.49983 0ZM1.69997 8.49983C1.69997 4.74437 4.74437 1.69997 8.49983 1.69997C12.2553 1.69997 15.2997 4.74437 15.2997 8.49983C15.2997 12.2553 12.2553 15.2997 8.49983 15.2997C4.74437 15.2997 1.69997 12.2553 1.69997 8.49983Z" fill="#A8A29E"/>
</svg>
