<svg width="17" height="17" viewBox="0 0 17 17" fill="none" xmlns="http://www.w3.org/2000/svg">
<path fill-rule="evenodd" clip-rule="evenodd" d="M8.50033 0L7.31029 0.892535C5.49385 2.25486 4.38217 4.34863 4.26118 6.60196C3.46045 6.31756 2.59834 6.16274 1.70007 6.16274H0V8.71284C0 12.938 3.42516 16.3631 7.6503 16.3631H9.35037C13.5755 16.3631 17.0007 12.938 17.0007 8.71284V6.16274H15.3006C14.4023 6.16274 13.5402 6.31756 12.7395 6.60196C12.6185 4.34863 11.5068 2.25486 9.69038 0.892535L8.50033 0ZM11.0504 7.45101V7.01277C11.0504 5.13989 10.1686 3.37632 8.67034 2.25259L8.50033 2.12508L8.33032 2.25259C6.83202 3.37632 5.95023 5.13989 5.95023 7.01277V7.45101C7.02305 8.16913 7.9041 9.1514 8.50033 10.3048C9.09657 9.1514 9.97762 8.16913 11.0504 7.45101ZM1.70007 7.86281C4.98629 7.86281 7.6503 10.5268 7.6503 13.813V14.6631C4.36408 14.6631 1.70007 11.9991 1.70007 8.71284V7.86281ZM15.3006 8.71284C15.3006 11.9991 12.6366 14.6631 9.35037 14.6631V13.813C9.35037 10.5268 12.0144 7.86281 15.3006 7.86281V8.71284Z" fill="#F08C51"/>
</svg>
