<svg width="17" height="17" viewBox="0 0 17 17" fill="none" xmlns="http://www.w3.org/2000/svg">
<path fill-rule="evenodd" clip-rule="evenodd" d="M9.23671 0C7.70112 0 6.20003 0.455353 4.92324 1.30848C3.64645 2.1616 2.65131 3.37418 2.06367 4.79287C1.47603 6.21156 1.32228 7.77265 1.62185 9.27872C1.86501 10.5012 2.39796 11.6428 3.17069 12.61L0 15.7807L1.22 17.0007L4.39069 13.83C5.35796 14.6028 6.49959 15.1357 7.72202 15.3789C9.22809 15.6785 10.7892 15.5247 12.2079 14.9371C13.6266 14.3494 14.8391 13.3543 15.6923 12.0775C16.5454 10.8007 17.0007 9.29962 17.0007 7.76403V0H9.23671ZM5.6205 12.6002C6.33909 13.1376 7.17149 13.5102 8.05861 13.6867C9.23001 13.9197 10.4442 13.8001 11.5476 13.3431C12.651 12.886 13.5942 12.112 14.2577 11.119C14.9212 10.1259 15.2754 8.95838 15.2754 7.76403V1.72534H9.23671C8.04236 1.72534 6.87485 2.0795 5.88179 2.74304C4.88873 3.40658 4.11473 4.3497 3.65768 5.45313C3.20063 6.55655 3.08104 7.77073 3.31404 8.94213C3.4905 9.82925 3.86318 10.6617 4.4005 11.3802L10.352 5.42869L11.572 6.64869L5.6205 12.6002Z" fill="#57534E"/>
</svg>
