<svg width="27" height="27" viewBox="0 0 27 27" fill="none" xmlns="http://www.w3.org/2000/svg">
<path fill-rule="evenodd" clip-rule="evenodd" d="M0 0V7.42518C0 8.89374 0.435479 10.3293 1.25137 11.5504C2.06726 12.7715 3.22691 13.7232 4.58369 14.2852C5.94046 14.8471 7.43342 14.9942 8.87376 14.7077C9.54196 14.5748 10.1849 14.3513 10.7859 14.0463C10.7954 14.1592 10.8003 14.2729 10.8003 14.3871V27.0007H13.5003V22.4873C13.5003 21.6384 13.7668 20.8171 14.2535 20.135C15.1696 20.7767 16.2131 21.2247 17.3202 21.4449C18.8915 21.7574 20.5202 21.597 22.0003 20.9839C23.4804 20.3709 24.7455 19.3326 25.6355 18.0006C26.5256 16.6685 27.0007 15.1024 27.0007 13.5003V5.40013H18.9005C17.454 5.40013 16.0368 5.78742 14.7947 6.51778C14.7133 5.85658 14.5428 5.20582 14.2852 4.58369C13.7232 3.22691 12.7715 2.06726 11.5504 1.25137C10.3293 0.435479 8.89374 0 7.42518 0H0ZM11.5814 9.67292C11.805 9.25956 11.9668 8.81293 12.0595 8.34701C12.2418 7.43042 12.1483 6.48036 11.7906 5.61696C11.433 4.75356 10.8274 4.01559 10.0503 3.49639C9.27327 2.97719 8.35972 2.70007 7.42518 2.70007H2.70007V7.42518C2.70007 8.35972 2.97719 9.27327 3.49639 10.0503C4.01559 10.8274 4.75356 11.433 5.61696 11.7906C6.48036 12.1483 7.43042 12.2418 8.34701 12.0595C8.81246 11.9669 9.25866 11.8053 9.67168 11.5821C9.65267 11.5623 9.63346 11.5427 9.61402 11.5233L6.47056 8.3798L8.3798 6.47056L11.5233 9.61402C11.5428 9.63354 11.5622 9.65318 11.5814 9.67292ZM18.9005 8.1002C17.8324 8.1002 16.7884 8.41691 15.9003 9.01028C15.0123 9.60366 14.3201 10.447 13.9114 11.4338C13.5027 12.4205 13.3957 13.5063 13.6041 14.5538C13.7231 15.1523 13.942 15.7229 14.2486 16.2429L17.9458 12.5457L19.8551 14.4549L16.1579 18.1522C16.6779 18.4588 17.2485 18.6777 17.8469 18.7967C18.8945 19.0051 19.9803 18.8981 20.967 18.4894C21.9537 18.0807 22.7971 17.3885 23.3905 16.5005C23.9839 15.6124 24.3006 14.5684 24.3006 13.5003V8.1002H18.9005Z" fill="#9BB167"/>
</svg>
