<svg width="17" height="17" viewBox="0 0 17 17" fill="none" xmlns="http://www.w3.org/2000/svg">
<path d="M9.23616 0C7.70067 0 6.19966 0.455326 4.92295 1.3084C3.64623 2.16147 2.65116 3.37397 2.06355 4.79258C1.47594 6.21119 1.3222 7.77219 1.62176 9.27817C1.8649 10.5005 2.3978 11.6421 3.17048 12.6093L10.3514 5.42837L11.5713 6.6483L4.39043 13.8292C5.35765 14.6019 6.4992 15.1348 7.72156 15.378C9.22754 15.6775 10.7885 15.5238 12.2071 14.9362C13.6258 14.3486 14.8383 13.3535 15.6913 12.0768C16.5444 10.8001 16.9997 9.29906 16.9997 7.76357V0H9.23616Z" fill="#57534E"/>
<path d="M2.58782 13.192L3.80772 14.4119L1.21993 16.9997L0 15.7798L2.58782 13.192Z" fill="#57534E"/>
</svg>
