<svg width="15" height="19" viewBox="0 0 15 19" fill="none" xmlns="http://www.w3.org/2000/svg">
<path fill-rule="evenodd" clip-rule="evenodd" d="M7.50033 0C3.35801 0 0 3.35801 0 7.50033C0 10.2779 1.5098 12.7011 3.75017 13.997V15.9382H11.2505V13.997C13.4909 12.7011 15.0007 10.2779 15.0007 7.50033C15.0007 3.35801 11.6427 0 7.50033 0ZM1.87508 7.50033C1.87508 4.39359 4.39359 1.87508 7.50033 1.87508C10.6071 1.87508 13.1256 4.39359 13.1256 7.50033C13.1256 9.74291 11.8133 11.6809 9.91067 12.5847L9.37542 12.839V14.0631H5.62525V12.839L5.09 12.5847C3.18733 11.6809 1.87508 9.74291 1.87508 7.50033Z" fill="#A8A29E"/>
<path d="M3.75017 16.8757V18.7508H11.2505V16.8757H3.75017Z" fill="#A8A29E"/>
</svg>
