<svg width="20" height="21" viewBox="0 0 20 21" fill="none" xmlns="http://www.w3.org/2000/svg">
<path fill-rule="evenodd" clip-rule="evenodd" d="M10 11C8.34315 11 7 12.3431 7 14C7 15.6569 8.34315 17 10 17C11.6569 17 13 15.6569 13 14C13 12.3431 11.6569 11 10 11ZM9 14C9 13.4477 9.44772 13 10 13C10.5523 13 11 13.4477 11 14C11 14.5523 10.5523 15 10 15C9.44772 15 9 14.5523 9 14Z" fill="#A8A29E"/>
<path fill-rule="evenodd" clip-rule="evenodd" d="M5 5C5 2.23858 7.23858 0 10 0C12.7614 0 15 2.23858 15 5V7.28988C17.8915 8.15043 20 10.829 20 14C20 17.866 16.866 21 13 21H7C3.13401 21 0 17.866 0 14C0 10.829 2.10851 8.15043 5 7.28988V5ZM13 5V7H7V5C7 3.34315 8.34315 2 10 2C11.6569 2 13 3.34315 13 5ZM7 9C4.23858 9 2 11.2386 2 14C2 16.7614 4.23858 19 7 19H13C15.7614 19 18 16.7614 18 14C18 11.2386 15.7614 9 13 9H7Z" fill="#A8A29E"/>
</svg>
