<svg width="17" height="18" viewBox="0 0 17 18" fill="none" xmlns="http://www.w3.org/2000/svg">
<path fill-rule="evenodd" clip-rule="evenodd" d="M8.50033 0C6.15303 0 4.25017 1.90286 4.25017 4.25017V6.19664C1.7923 6.92813 0 9.20499 0 11.9005C0 15.1867 2.66401 17.8507 5.95023 17.8507H11.0504C14.3367 17.8507 17.0007 15.1867 17.0007 11.9005C17.0007 9.20499 15.2084 6.92813 12.7505 6.19664V4.25017C12.7505 1.90286 10.8476 0 8.50033 0ZM11.0504 5.95023V4.25017C11.0504 2.84178 9.90871 1.70007 8.50033 1.70007C7.09195 1.70007 5.95023 2.84178 5.95023 4.25017V5.95023H11.0504ZM1.70007 11.9005C1.70007 9.55316 3.60293 7.6503 5.95023 7.6503H11.0504C13.3977 7.6503 15.3006 9.55316 15.3006 11.9005C15.3006 14.2478 13.3977 16.1506 11.0504 16.1506H5.95023C3.60293 16.1506 1.70007 14.2478 1.70007 11.9005Z" fill="#57534E"/>
</svg>
