<svg width="209" height="195" viewBox="0 0 209 195" fill="none" xmlns="http://www.w3.org/2000/svg">
<path d="M66.625 190.943C51.4382 195.535 33.9863 192.243 20.5942 184.111C7.21445 175.992 -1.77139 160.842 0.295599 145.903C3.46416 122.869 30.2732 105.677 28.2557 82.5439C27.5007 73.8056 22.5127 65.2653 24.493 56.7003C26.6095 47.5412 36.3999 41.0308 45.658 39.3598C58.3694 37.07 71.2417 37.3919 83.9779 35.6962C96.4417 34.05 109.054 30.8938 120.949 26.9455C136.915 21.6481 152.164 14.3826 168.477 10.1496C184.79 5.91663 202.91 4.97596 218.011 12.1176C229.67 17.6255 237.245 24.7547 242.691 35.9437C252.964 57.0345 261.43 63.8419 274.673 71.0083C293.338 81.0958 294.539 97.05 290.566 110.826C288.536 117.844 283.238 123.748 279.253 129.825C274.5 137.065 271.022 145.049 269.005 153.341C267.569 159.283 266.802 165.533 263.522 170.781C258.868 178.232 249.919 182.317 241.106 184.606C202.96 194.496 162.784 178.059 123.337 180.423C105.588 181.487 83.5818 185.807 66.625 190.943Z" fill="white"/>
<path d="M195.967 186.859C171.906 184.569 147.498 178.975 123.35 180.423C105.588 181.487 83.5818 185.807 66.6251 190.931C66.5879 190.943 66.5508 190.956 66.5137 190.968C69.8431 159.097 75.6604 127.585 81.4653 96.1464C82.2203 92.0496 82.9877 87.9156 84.3492 84.0168C86.0944 79.0287 88.805 74.5234 91.8127 70.3647C95.3773 65.4262 99.4742 60.8714 104.4 57.74C110.465 53.8783 128.536 72.3946 135.43 71.3301C144.292 69.9563 132.162 60.4629 140.777 63.1117C144.02 64.1142 157.449 54.3981 159.813 57.0963C161.942 59.5099 163.229 62.6785 164.479 65.7728C167.487 73.2238 170.507 80.6749 173.515 88.126C176.782 96.2207 172.685 95.738 174.975 104.253C176.386 109.489 183.255 129.478 186.511 142.214C191.152 160.347 193.875 172.019 195.967 186.859Z" fill="#9BB167"/>
<path d="M122.78 60.4883C122.557 60.5749 122.334 60.6739 122.111 60.7606C122.359 60.7358 122.582 60.6368 122.78 60.4883Z" fill="#FB7185"/>
<path d="M150.939 62.432C162.611 60.4145 172.463 54.8695 181.399 47.7774C172.908 45.042 165.507 45.401 159.256 47.3318C144.713 51.8124 128.635 44.6831 115.837 42.8018C111.802 42.2077 107.841 42.1953 104.066 42.579C114.847 57.1222 132.893 64.957 150.939 62.432Z" fill="#FDBA74"/>
<path d="M234.001 114.02C233.581 112.621 233.123 111.223 232.652 109.836C231.662 106.953 233.791 113.958 230.82 107.819C229.843 105.802 228.815 103.735 227.776 101.705C222.231 90.4909 216.834 81.2204 211.945 73.9055C205.125 63.6943 199.32 57.2829 195.545 54.7827C190.533 51.4532 185.817 49.1882 181.398 47.7648C172.462 54.857 162.61 60.402 150.938 62.4194C132.892 64.9444 114.846 57.1096 104.066 42.5664C93.9038 43.6308 85.1531 47.7153 80.1528 51.8369C75.7465 55.4634 68.1221 63.1868 58.9135 79.8094C55.584 85.8247 52.0441 93.0035 48.3805 101.569C47.7121 102.992 47.0561 104.428 46.4125 105.839C45.8803 107.014 45.3728 108.166 44.8901 109.292C36.8821 123.922 35.0997 137.165 34.6294 141.287C33.4536 151.387 36.3993 162.13 44.5435 168.232C50.9549 173.034 64.9164 171.883 72.3304 168.282C79.5339 164.791 117.26 135.853 108.955 123.959L179.22 123.724C178.316 137.215 169.875 165.942 162.214 176.079C171.348 181.241 192.785 176.946 205.757 174.334C220.708 171.326 240.834 162.7 242.232 145.743C243.148 134.702 237.516 123.55 234.001 114.02Z" fill="#9BB167"/>
<path d="M149.454 28.7039C146.818 23.9139 150.184 17.3169 155.346 15.6212C160.507 13.9255 166.386 16.3762 169.926 20.535C171.931 22.8866 173.491 25.8695 176.3 27.132C178.095 27.9365 180.137 27.9118 182.105 27.8251C188.665 27.5281 195.25 26.6617 201.76 27.4414C208.283 28.2212 214.93 30.9194 218.742 36.2911C222.022 40.9078 222.962 47.0841 227.01 51.0324C234.164 58.0007 246.863 54.4609 254.945 60.3277C257.841 62.4318 259.896 65.687 260.552 69.2145C261.975 76.8388 257.136 84.9583 259.797 92.2485C261.938 98.1152 268.56 101.989 269.117 108.215C269.464 112.064 267.199 115.827 264.005 117.968C260.812 120.11 256.851 120.815 253.014 120.741C243.781 120.58 234.708 116.013 229.027 108.673C226.354 105.207 224.423 101.21 221.762 97.7316C219.101 94.2536 215.437 91.1964 211.093 90.7879C209.397 90.627 207.701 90.887 206.006 90.9241C198.988 91.085 192.007 87.3223 188.257 81.3565C184.42 75.2669 183.491 66.8876 177.451 63.0135C172.884 60.0925 166.399 60.5876 162.685 56.6269C158.774 52.4434 159.975 45.4998 157.029 40.586C155.593 38.1725 153.155 36.3902 150.432 35.7589L149.454 28.7039Z" fill="#533630"/>
<path d="M150.494 22.5264C149.442 18.7637 151.472 14.9639 154.69 12.9712C158.081 10.8795 162.425 11.4117 165.841 13.1321C169.245 14.8402 171.325 17.7859 174.035 20.3233C176.313 22.4645 179.048 23.6404 182.179 23.7765C189.593 24.1107 196.45 20.2985 203.939 22.0437C210.758 23.6404 216.724 28.4551 219.323 35.015C221.725 41.0798 222.306 47.7635 228.062 51.7985C233.928 55.9201 241.33 56.0563 248.125 57.294C255.106 58.5688 264.253 62.4553 264.203 70.9089C264.166 77.345 258.633 82.7044 259.586 89.2767C260.564 95.9975 268.597 99.3393 269.018 106.172C269.29 110.504 266.084 114.539 262.173 116.086C257.693 117.856 252.655 116.804 248.472 114.724C247.989 114.477 247.556 115.219 248.038 115.454C254.326 118.586 262.718 119.155 267.495 113.103C269.29 110.825 270.268 107.892 269.711 104.996C269.117 101.926 267 99.4631 265.032 97.1486C262.631 94.3266 260.193 91.3684 260.329 87.4448C260.453 83.7688 262.384 80.4022 263.671 77.0356C264.859 73.9166 265.577 70.5871 264.451 67.3319C263.423 64.349 261.171 61.923 258.584 60.1902C251.665 55.5364 242.852 56.3781 235.129 54.113C231.23 52.9743 227.393 51.0187 225.017 47.615C222.591 44.137 221.923 39.8421 220.549 35.9185C218.321 29.5814 213.543 24.6429 207.268 22.1922C203.988 20.905 200.423 20.3852 196.908 20.7441C192.75 21.1649 188.752 22.514 184.593 22.8606C182.056 23.071 179.469 22.8606 177.191 21.6229C175.05 20.4718 173.503 18.5781 171.882 16.8205C169.146 13.8747 165.804 11.5355 161.757 10.9042C155.061 9.86453 147.61 15.4466 149.652 22.7368C149.825 23.2814 150.642 23.0586 150.494 22.5264Z" fill="#533630"/>
<path d="M131.753 44.1505L161.768 20.1016C161.768 20.1016 168.699 38.6426 158.24 49.287L153.302 42.8632C153.302 42.8632 150.071 49.6088 146.891 56.2306C143.908 62.4316 135.627 63.7064 130.924 58.6813C130.862 58.6194 130.8 58.5452 130.738 58.4833C126.852 54.3121 127.31 47.7275 131.753 44.1505Z" fill="#FDBA74"/>
<path d="M145.023 26.9464C145.134 29.2485 147.09 31.0308 149.392 30.9195C151.694 30.8081 153.476 28.8525 153.365 26.5503C153.253 24.2481 151.298 22.4658 148.996 22.5772C146.693 22.6886 144.911 24.6442 145.023 26.9464Z" fill="#FDBA74"/>
<path d="M150.543 28.3811C149.974 26.9577 149.404 25.5343 148.81 24.1233C148.525 23.4673 147.436 23.752 147.721 24.4204C148.315 25.8314 148.884 27.2548 149.454 28.6781C149.714 29.3465 150.815 29.0618 150.543 28.3811Z" fill="#533630"/>
<path d="M153.301 42.863L146.68 56.4779L149.997 37.875L153.301 42.863Z" fill="#533630"/>
<path d="M163.192 30.1385C163.786 32.713 164.219 35.4483 164.306 38.0847C164.516 37.9609 164.726 37.8371 164.949 37.7133C164.046 37.144 163.142 36.587 162.226 36.0177C161.756 35.733 161.335 36.4632 161.793 36.7479C162.697 37.3173 163.6 37.8743 164.516 38.4436C164.788 38.6169 165.172 38.3941 165.16 38.0723C165.061 35.3617 164.615 32.5397 164.009 29.891C163.897 29.3835 163.08 29.6063 163.192 30.1385Z" fill="#533630"/>
<path d="M159.516 31.4017C157.895 32.2928 155.84 31.5502 155.073 29.904C154.763 29.248 153.785 29.8174 154.095 30.4734C155.135 32.6889 157.969 33.5429 160.085 32.3795C160.729 32.0329 160.16 31.0551 159.516 31.4017Z" fill="#533630"/>
<path d="M159.368 41.0684C158.563 41.1427 157.895 40.1772 158.34 39.4594C158.737 38.8405 157.746 38.2712 157.363 38.89C156.484 40.2763 157.697 42.3556 159.368 42.2071C160.086 42.1328 160.098 41.0065 159.368 41.0684Z" fill="#533630"/>
<path d="M161.075 24.9412C160.258 25.4239 159.379 25.5848 158.439 25.4734C157.721 25.3868 157.721 26.5131 158.439 26.5997C159.565 26.7359 160.667 26.4883 161.644 25.919C162.276 25.56 161.706 24.5822 161.075 24.9412Z" fill="#533630"/>
<path d="M92.6911 4.82765C78.4078 10.9915 72.6277 10.6078 62.5898 12.9595C58.2577 13.9744 53.8019 15.0512 50.2126 17.6999C47.6381 19.606 45.5092 21.9453 46.8088 24.8911C47.9475 27.4903 51.079 28.3815 53.8391 28.7899C71.229 31.4139 88.8542 27.1933 105.873 22.6632C109.982 21.574 114.141 20.4353 117.854 18.3188C121.567 16.2023 124.835 12.9718 126.147 8.85024C126.357 8.18187 126.518 7.46399 126.357 6.78325C126.072 5.5579 124.884 3.02058 123.77 2.48836C117.78 -0.407908 109.586 -2.01694 92.6911 4.82765Z" fill="white"/>
<path d="M197.898 173.38C191.585 182.465 174.888 181.784 160.593 171.858C146.297 161.931 139.836 146.522 146.149 137.437C152.461 128.352 169.158 129.033 183.453 138.959C197.737 148.873 204.21 164.295 197.898 173.38Z" fill="#533630"/>
<path d="M97.2462 134.219C86.1934 134.788 76.502 121.136 75.6109 103.746C74.7197 86.3563 82.9629 71.7883 94.0282 71.2313C105.081 70.6743 114.772 84.314 115.663 101.704C116.555 119.094 108.311 133.662 97.2462 134.219Z" fill="#533630"/>
<path d="M149.838 142.264C153.266 132.052 168.168 135.543 172.797 138.204C179.135 141.843 182.811 147.549 188.64 151.646C193.108 154.789 198.715 156.881 204.384 158.057C205.56 158.305 206.575 159.06 206.76 159.963C206.983 161.027 205.832 161.473 204.755 161.696C199.421 162.822 193.591 160.904 187.761 159.678C184.964 159.084 182.736 160.904 183.739 162.983C188.071 171.957 191.784 181.054 194.841 190.201C195.114 191.03 195.386 191.946 194.495 192.552C193.802 193.023 192.737 193.047 191.796 192.725C189.94 192.082 189.061 190.671 188.281 189.359C184.382 182.787 180.484 176.202 176.585 169.63C175.483 169.32 174.394 169.964 174.134 170.756C173.874 171.56 174.208 172.439 174.555 173.281C177.179 179.581 180.719 185.745 185.063 191.624C185.818 192.651 185.732 193.877 184.692 194.57C182.922 195.758 180.323 194.136 179.333 192.527C178.429 191.055 178.021 189.334 176.362 188.245C177.191 189.668 178.045 191.203 177.389 192.602C176.981 193.468 175.904 194.05 174.642 193.914C173.453 193.79 172.785 193.084 172.203 192.391C170.458 190.3 169.109 188.047 168.243 185.732C169.022 187.837 168.911 190.906 165.965 190.646C165.086 190.572 164.232 190.188 163.614 189.656C154.751 182.069 148.959 172.947 143.303 163.973C140.493 159.517 137.56 154.505 139.453 150.272C140.604 147.697 141.966 145.952 143.315 144.751L149.838 142.264Z" fill="#FDBA74"/>
<path d="M205.201 158.415C203.579 159.269 200.893 158.613 200.027 156.955C199.693 156.311 198.715 156.88 199.049 157.524C200.2 159.752 203.629 160.532 205.77 159.393C206.414 159.046 205.844 158.069 205.201 158.415Z" fill="#533630"/>
<path d="M181.213 157.165C174.443 157.722 167.165 155.519 162.313 150.654C161.793 150.135 161.001 150.939 161.509 151.459C166.571 156.521 174.158 158.873 181.213 158.291C181.931 158.242 181.944 157.103 181.213 157.165Z" fill="#533630"/>
<path d="M155.358 151.968C156.249 154.691 155.89 157.302 154.207 159.629C153.774 160.223 154.764 160.78 155.185 160.199C157.029 157.661 157.437 154.629 156.46 151.658C156.224 150.978 155.135 151.275 155.358 151.968Z" fill="#533630"/>
<path d="M177.81 189.236C173.54 183.406 169.567 177.378 165.916 171.14C165.545 170.509 164.567 171.078 164.938 171.709C168.589 177.948 172.563 183.975 176.833 189.805C177.253 190.387 178.244 189.83 177.81 189.236Z" fill="#533630"/>
<path d="M169.48 187.044C165.73 181.784 162.14 176.4 158.749 170.892C158.365 170.273 157.388 170.842 157.771 171.461C161.163 176.969 164.752 182.341 168.502 187.614C168.923 188.208 169.913 187.638 169.48 187.044Z" fill="#533630"/>
<path d="M148.092 76.2684C148.092 87.5812 148.092 98.8815 148.092 110.194C148.092 110.925 149.23 110.925 149.23 110.194C149.23 98.8815 149.23 87.5812 149.23 76.2684C149.23 75.5381 148.092 75.5381 148.092 76.2684Z" fill="white"/>
<path d="M143.66 73.4098C138.932 73.9049 135.033 77.618 131.407 80.4029C129.513 81.851 127.644 83.3363 125.788 84.8463C123.956 86.3439 122.013 87.8292 120.651 89.7848C118.04 93.5351 118.411 98.8944 118.423 103.239C118.423 105.764 118.51 108.313 118.782 110.826C118.956 112.497 118.956 115.245 121.357 114.799C123.721 114.366 123.523 111.853 123.684 109.96C123.807 108.573 123.882 107.187 123.993 105.801C124.117 104.217 124.525 102.979 125.082 101.457C126.184 98.4241 127.558 95.565 129.006 92.6935C131.568 87.6683 129.018 81.95 127.694 76.863C127.508 76.1575 126.419 76.4546 126.605 77.1601C127.409 80.2296 128.313 83.2992 128.857 86.4306C129.117 87.8911 129.216 89.3021 128.684 90.7131C127.013 95.1936 124.043 99.1791 123.04 103.957C122.632 105.888 122.718 107.992 122.557 109.96C122.495 110.739 122.607 112.212 122.198 112.893C121.864 113.45 122.768 113.029 121.295 113.388C120.032 113.698 120.664 113.747 120.317 113.165C120.082 112.782 120.069 111.977 120.02 111.544C119.723 109.304 119.649 107.026 119.599 104.786C119.525 101.184 119.352 97.2359 120.181 93.7084C121.307 88.9184 126.258 85.8736 129.897 83.0145C132.075 81.3064 134.278 79.6355 136.519 78.0141C138.697 76.4298 140.913 74.8331 143.685 74.5485C144.378 74.4618 144.378 73.3355 143.66 73.4098Z" fill="white"/>
<path d="M87.7646 121.719C95.1785 123.204 118.831 106.087 131.902 94.947C131.766 96.915 131.592 99.6009 131.295 101.544C130.998 103.487 131.964 105.95 133.932 106.062C135.008 106.124 136.147 105.567 136.741 104.676C139.08 101.198 141.358 94.2044 138.412 89.6001C139.217 89.4887 139.489 88.449 139.439 87.6445C139.254 84.7111 136.679 80.7875 134.352 78.9928C132.025 77.2105 129.699 76.4184 126.951 75.391C133.152 72.7795 140.318 76.9134 146.668 79.1537C147.819 79.5622 149.168 79.9211 150.195 79.2651C151.767 78.2502 151.26 75.7252 149.997 74.3514C147.918 72.0987 143.697 69.7718 140.689 69.2024C137.744 68.6331 134.81 68.0761 131.865 67.5068C129.29 67.0117 126.703 66.5166 124.079 66.4671C121.418 66.4176 118.769 66.8136 116.145 67.2469C106.293 68.893 98.0376 71.5665 88.9775 75.7624C86.3659 76.9753 83.0612 79.6612 81.7616 82.2233C78.853 87.9539 77.6029 95.4421 78.4693 101.631C78.9025 104.874 83.5687 120.877 87.7646 121.719Z" fill="#FDBA74"/>
<path d="M139.798 89.8977C139.674 83.3625 127.594 88.3382 124.896 89.9101C124.265 90.269 124.834 91.2592 125.465 90.8879C127.371 89.7863 138.573 85.0334 138.672 89.8977C138.672 90.6279 139.81 90.6279 139.798 89.8977Z" fill="#533630"/>
<path d="M137.633 82.2482C133.61 77.9905 127.657 80.1936 123.337 82.6814C122.706 83.0404 123.275 84.0182 123.907 83.6592C127.768 81.4437 133.19 79.1911 136.829 83.0528C137.336 83.585 138.14 82.7805 137.633 82.2482Z" fill="#533630"/>
<path d="M126.728 74.5002C124.129 74.4878 121.666 75.0077 119.277 76.0226C118.608 76.3073 119.19 77.2851 119.846 77.0004C122.049 76.0721 124.339 75.6265 126.728 75.6265C127.458 75.6265 127.458 74.5002 126.728 74.5002Z" fill="#533630"/>
<path d="M150.295 74.5009C148.525 74.7361 146.891 73.4365 146.544 71.7408C146.396 71.0229 145.307 71.3323 145.455 72.0378C145.938 74.4143 148.253 75.9119 150.604 75.5901C151.31 75.4911 151.013 74.4019 150.295 74.5009Z" fill="#533630"/>
<path d="M116.491 72.1848C116.144 71.1327 115.81 70.093 115.464 69.041C115.241 68.3479 114.139 68.6449 114.375 69.338C114.721 70.3901 115.055 71.4298 115.402 72.4818C115.625 73.175 116.714 72.8779 116.491 72.1848Z" fill="white"/>
<path d="M119.536 83.5843C119.264 82.099 118.621 80.7746 117.655 79.6236C117.185 79.0666 116.393 79.8711 116.851 80.4281C117.692 81.4306 118.212 82.5941 118.435 83.8813C118.571 84.5992 119.66 84.3021 119.536 83.5843Z" fill="white"/>
<path d="M122.111 91.8293C122.123 90.7525 121.826 89.7251 121.244 88.8216C120.848 88.2151 119.87 88.7845 120.266 89.391C120.749 90.1336 120.984 90.9381 120.972 91.8293C120.972 92.5595 122.111 92.5595 122.111 91.8293Z" fill="white"/>
<path d="M149.231 113.771C148.327 117.175 147.337 121.817 145.456 125.567C145.134 126.211 145.295 126.458 145.79 126.99C146.669 127.943 148.117 129.466 149.479 130.691C149.615 130.815 149.8 130.914 149.986 130.889C150.196 130.864 150.357 130.691 150.481 130.53C151.595 129.156 152.709 127.782 153.823 126.409C153.947 126.248 154.083 126.087 154.095 125.889C154.108 125.629 153.934 125.406 153.773 125.208C152.474 123.599 148.996 114.328 149.231 113.771Z" fill="#FDBA74"/>
<path d="M145.754 126.891C146.62 128.426 147.784 129.713 149.207 130.753C149.801 131.186 150.358 130.196 149.776 129.775C148.514 128.859 147.487 127.683 146.719 126.322C146.373 125.69 145.395 126.26 145.754 126.891Z" fill="white"/>
<path d="M146.743 124.132C147.634 121.941 148.216 119.688 148.513 117.349C148.612 116.631 147.473 116.631 147.374 117.349C147.077 119.589 146.495 121.743 145.641 123.835C145.381 124.503 146.471 124.8 146.743 124.132Z" fill="white"/>
<path d="M161.842 55.29C163.414 57.3818 165.271 59.2136 167.437 60.6741C169.826 62.2708 172.4 63.0877 175.049 64.115C181.695 66.7018 182.797 73.3236 184.542 79.4503C185.99 84.5126 188.664 88.6466 193.219 91.4191C197.588 94.0678 202.613 95.058 207.663 95.1446C209.779 95.1817 211.921 95.1941 213.888 96.0853C215.51 96.8155 216.847 98.0037 218.035 99.3157C220.461 101.977 223.332 106.16 221.117 109.762C220.832 110.232 221.562 110.653 221.847 110.195C224.657 105.64 220.399 100.021 216.983 97.1002C212.317 93.1024 205.979 94.8475 200.422 93.4613C194.63 92.0255 189.233 88.6094 186.696 83.0397C184.233 77.6185 184.307 71.0586 180.136 66.4419C177.957 64.0407 174.987 63.2981 172.066 62.1594C168.266 60.6741 165.011 58.1368 162.573 54.8816C162.251 54.436 161.508 54.8568 161.842 55.29Z" fill="#533630"/>
<path d="M47.2181 122.237C58.2585 106.889 69.9798 92.0243 82.3322 77.7163C82.8025 77.1717 82.0104 76.3672 81.5277 76.9118C69.1134 91.3065 57.3303 106.233 46.2279 121.668C45.8071 122.262 46.7849 122.831 47.2181 122.237Z" fill="#533630"/>
<path d="M107.964 125.79C99.6217 141.806 85.7593 153.75 72.231 165.286C71.674 165.756 72.4785 166.561 73.0355 166.09C86.638 154.493 100.562 142.462 108.942 126.36C109.276 125.716 108.298 125.134 107.964 125.79Z" fill="#533630"/>
<path d="M187.228 128.933C183.676 112.051 180.842 94.9824 176.423 78.2979C176.237 77.5924 175.148 77.8895 175.334 78.595C179.74 95.2795 182.587 112.36 186.139 129.23C186.288 129.948 187.389 129.639 187.228 128.933Z" fill="#533630"/>
<path d="M157.685 132.45C174.431 131.732 191.041 129.096 207.194 124.578C207.899 124.38 207.602 123.291 206.897 123.489C190.843 127.982 174.345 130.606 157.697 131.324C156.955 131.348 156.955 132.487 157.685 132.45Z" fill="#533630"/>
<path d="M198.579 126C200.138 124.465 201.846 123.128 203.715 122.002C204.334 121.631 203.765 120.653 203.146 121.024C201.191 122.2 199.396 123.599 197.774 125.195C197.267 125.715 198.059 126.507 198.579 126Z" fill="#533630"/>
</svg>
