<svg width="185" height="169" viewBox="0 0 185 169" fill="none" xmlns="http://www.w3.org/2000/svg">
<path d="M101.498 103.494C85.4346 103.972 63.8518 125.335 52.3114 109.071C45.2984 99.1913 50.1407 96.5292 36.8495 93.5856C27.9759 91.6153 20.152 93.7431 11.0876 84.2636C-23.7721 47.8439 31.6017 1.25302 71.4229 17.2588C83.0635 21.9341 79.8242 33.7464 86.9183 40.5543C94.1364 47.4766 106.664 44.6142 115.481 44.6571C137.393 44.7764 154.658 53.7978 164.299 74.5743C171.642 90.3988 165.473 114.839 146.781 120.111C130.275 124.767 119.216 102.941 101.498 103.494Z" fill="#F08C51"/>
<path opacity="0.9" d="M101.498 103.494C85.4346 103.972 63.8518 125.335 52.3114 109.071C45.2984 99.1913 50.1407 96.5292 36.8495 93.5856C27.9759 91.6153 20.152 93.7431 11.0876 84.2636C-23.7721 47.8439 31.6017 1.25302 71.4229 17.2588C83.0635 21.9341 79.8242 33.7464 86.9183 40.5543C94.1364 47.4766 106.664 44.6142 115.481 44.6571C137.393 44.7764 154.658 53.7978 164.299 74.5743C171.642 90.3988 165.473 114.839 146.781 120.111C130.275 124.767 119.216 102.941 101.498 103.494Z" fill="white"/>
<path d="M92.4996 168.849C143.586 168.849 184.999 166.431 184.999 163.448C184.999 160.466 143.586 158.048 92.4996 158.048C41.4135 158.048 0 160.466 0 163.448C0 166.431 41.4135 168.849 92.4996 168.849Z" fill="#F5F5F5"/>
<path d="M126.502 73.1133C128.563 79.3868 135.003 82.9029 135.003 82.9029C135.003 82.9029 138.095 76.2573 136.038 69.979C133.982 63.7007 127.542 60.1894 127.542 60.1894C126.68 62.2056 126.125 64.3396 125.896 66.5202L130.266 68.4953L125.815 69.3922C125.881 70.6571 126.112 71.908 126.502 73.1133Z" fill="#263238"/>
<path d="M140.208 137.61H140.15C140.12 137.603 140.091 137.589 140.066 137.57C140.041 137.551 140.02 137.528 140.004 137.501C139.988 137.474 139.978 137.444 139.973 137.413C139.969 137.381 139.971 137.35 139.979 137.319C141.114 132.725 140.527 97.856 134.287 81.7643C134.276 81.7349 134.27 81.7035 134.271 81.6719C134.272 81.6403 134.279 81.6092 134.292 81.5804C134.304 81.5515 134.323 81.5255 134.346 81.5038C134.369 81.4822 134.396 81.4653 134.426 81.4542C134.484 81.4325 134.549 81.4348 134.607 81.4607C134.664 81.4866 134.708 81.534 134.731 81.5926C141.152 98.1422 141.62 132.668 140.456 137.41C140.446 137.468 140.416 137.521 140.37 137.558C140.324 137.595 140.266 137.614 140.208 137.61Z" fill="#263238"/>
<path d="M169.735 62.6232C166.701 69.8557 158.762 73.4051 158.762 73.4051C158.762 73.4051 155.728 65.2424 158.762 58.01C161.796 50.7775 169.735 47.2233 169.735 47.2233C170.561 49.6863 171.013 52.2594 171.076 54.8565L165.713 56.7648L170.894 58.2485C170.702 59.7513 170.312 61.2222 169.735 62.6232Z" fill="#263238"/>
<path d="M147.393 137.629C147.337 137.629 147.282 137.609 147.239 137.572C147.196 137.536 147.168 137.484 147.16 137.428C146.205 131.675 150.051 90.866 159.215 71.888C159.229 71.8598 159.248 71.8346 159.272 71.8139C159.295 71.7931 159.323 71.7772 159.352 71.767C159.382 71.7568 159.413 71.7525 159.445 71.7545C159.476 71.7564 159.507 71.7645 159.535 71.7783C159.563 71.7921 159.588 71.8113 159.609 71.8348C159.63 71.8583 159.646 71.8857 159.656 71.9154C159.666 71.9451 159.67 71.9765 159.668 72.0078C159.666 72.0391 159.658 72.0698 159.644 72.0979C150.704 90.5654 146.721 131.799 147.632 137.352C147.64 137.414 147.624 137.478 147.587 137.528C147.549 137.579 147.494 137.613 147.431 137.624L147.393 137.629Z" fill="#263238"/>
<path d="M147.569 133.884C147.516 133.883 147.465 133.865 147.424 133.832C147.382 133.8 147.353 133.754 147.34 133.703C145.608 126.694 146.152 76.3441 155.412 52.4619C155.435 52.4033 155.479 52.3559 155.536 52.33C155.594 52.3041 155.659 52.3018 155.718 52.3235C155.747 52.3346 155.774 52.3515 155.797 52.3732C155.82 52.3948 155.839 52.4208 155.852 52.4497C155.864 52.4785 155.871 52.5096 155.872 52.5412C155.873 52.5728 155.867 52.6042 155.856 52.6336C146.625 76.4396 146.076 126.609 147.803 133.588C147.811 133.618 147.812 133.65 147.808 133.681C147.803 133.712 147.792 133.742 147.775 133.769C147.759 133.795 147.737 133.818 147.712 133.837C147.686 133.855 147.657 133.868 147.626 133.874L147.569 133.884Z" fill="#F08C51"/>
<path d="M167.702 39.3328C164.678 48.5451 155.227 53.707 155.227 53.707C155.227 53.707 150.685 43.9509 153.71 34.7386C156.734 25.5263 166.176 20.3692 166.176 20.3692C167.44 23.3286 168.252 26.4615 168.585 29.6625L162.154 32.5584L168.68 33.8751C168.592 35.729 168.264 37.5637 167.702 39.3328Z" fill="#F08C51"/>
<path d="M141.367 131.818C141.305 131.813 141.247 131.783 141.206 131.736C141.165 131.689 141.144 131.627 141.148 131.565C141.215 130.611 141.396 128.898 141.625 126.517C143.004 113.393 146.224 82.6553 142.942 65.6668C142.93 65.6035 142.943 65.538 142.979 65.4848C143.016 65.4316 143.072 65.3949 143.135 65.3829C143.198 65.3709 143.264 65.3845 143.317 65.4207C143.37 65.457 143.407 65.5129 143.419 65.5761C146.715 82.6362 143.49 113.422 142.112 126.57C141.859 128.955 141.682 130.658 141.634 131.598C141.632 131.63 141.623 131.662 141.608 131.691C141.594 131.719 141.573 131.745 141.548 131.765C141.523 131.786 141.494 131.801 141.463 131.81C141.432 131.819 141.399 131.822 141.367 131.818Z" fill="#F08C51"/>
<path d="M135.438 53.3198C136.525 61.1152 143.329 66.6063 143.329 66.6063C143.329 66.6063 148.366 59.4502 147.283 51.6691C146.201 43.8881 139.402 38.3874 139.402 38.3874C137.963 40.5687 136.86 42.9536 136.13 45.4624L140.833 48.7065L135.438 48.8353C135.244 50.3239 135.244 51.8312 135.438 53.3198Z" fill="#F08C51"/>
<path d="M154.314 125.488H134.444C134.031 125.484 133.622 125.569 133.245 125.738C132.868 125.907 132.532 126.155 132.26 126.466C131.988 126.777 131.786 127.143 131.669 127.539C131.552 127.935 131.522 128.352 131.582 128.761L135.556 157.581C135.646 158.274 135.988 158.91 136.515 159.368C137.042 159.827 137.719 160.077 138.418 160.071H150.345C151.044 160.077 151.721 159.827 152.248 159.368C152.775 158.91 153.116 158.274 153.207 157.581L157.186 128.761C157.245 128.351 157.215 127.934 157.098 127.537C156.98 127.14 156.778 126.773 156.505 126.462C156.232 126.151 155.894 125.903 155.516 125.735C155.138 125.567 154.728 125.482 154.314 125.488Z" fill="white"/>
<path d="M150.336 160.309H138.409C137.656 160.306 136.93 160.032 136.363 159.537C135.796 159.042 135.427 158.359 135.322 157.614L131.344 128.789C131.284 128.348 131.319 127.9 131.446 127.474C131.574 127.048 131.791 126.654 132.084 126.319C132.376 125.983 132.736 125.714 133.141 125.53C133.546 125.346 133.985 125.25 134.43 125.249H154.3C154.745 125.248 155.186 125.343 155.591 125.527C155.997 125.711 156.358 125.98 156.651 126.315C156.943 126.651 157.16 127.045 157.287 127.472C157.414 127.899 157.448 128.348 157.387 128.789L153.427 157.609C153.323 158.355 152.953 159.039 152.385 159.535C151.817 160.031 151.09 160.306 150.336 160.309ZM134.444 125.726C134.067 125.725 133.694 125.805 133.35 125.961C133.006 126.117 132.7 126.345 132.452 126.63C132.204 126.914 132.02 127.249 131.913 127.611C131.806 127.972 131.777 128.353 131.83 128.727L135.809 157.552C135.897 158.183 136.21 158.761 136.691 159.18C137.171 159.598 137.786 159.83 138.423 159.832H150.35C150.988 159.829 151.603 159.597 152.084 159.179C152.565 158.76 152.879 158.183 152.969 157.552L156.943 128.727C156.996 128.353 156.968 127.972 156.86 127.611C156.753 127.249 156.569 126.914 156.321 126.63C156.073 126.345 155.767 126.117 155.423 125.961C155.08 125.805 154.706 125.725 154.329 125.726H134.444Z" fill="#F08C51"/>
<path d="M44.6689 53.9327C45.9629 52.5458 47.5215 51.4319 49.2528 50.6568C50.9841 49.8817 52.853 49.4611 54.7494 49.4196C53.2276 50.0636 52.9031 50.7459 52.9031 50.7459C52.9031 50.7459 55.1215 50.598 56.2427 49.7201C55.9373 51.5044 53.2705 52.6494 53.2705 52.6494C53.2705 52.6494 60.0449 50.1304 64.6439 55.8744C69.2429 61.6183 65.8748 69.7095 60.5697 69.3565C55.2647 69.0034 44.6689 53.9327 44.6689 53.9327Z" fill="#263238"/>
<path d="M65.5271 57.1903C67.2302 60.2007 67.5594 66.8892 70.9609 65.3912C70.4838 68.3825 68.8809 68.1487 68.8809 68.1487C68.8809 68.1487 69.835 69.8041 71.1088 69.1362C70.2882 72.1943 64.2914 73.4299 59.6829 70.6676C55.0744 67.9054 61.8536 50.6831 65.5271 57.1903Z" fill="#263238"/>
<path d="M121.182 155.792C121.974 153.383 119.416 150.869 117.732 147.878C117.732 147.878 121.854 144.586 126.048 146.079C126.701 150.444 135.303 156.656 141.724 157.696C144.587 158.173 141.662 161.341 139.492 161.179C134.058 160.763 130.876 160.701 127.541 160.701C124.679 160.701 122.975 161.722 121.301 160.701C119.216 159.447 120.39 158.211 121.182 155.792Z" fill="#FFB573"/>
<path d="M127.803 145.816C123.558 147.486 118.739 151.403 118.739 151.403C115.266 144.724 104.036 137.591 104.351 133.493C96.0877 148.76 83.159 162.27 73.0785 162.27C55.6844 162.27 55.007 157.209 54.2532 153.435C53.4994 149.661 55.7369 142.205 57.0679 139.681C57.4401 139.509 83.4501 125.302 105.92 116.39C107.501 115.768 109.26 115.774 110.836 116.407C112.413 117.041 113.687 118.253 114.398 119.796C120.5 133.05 125.313 141.866 127.803 145.816Z" fill="black"/>
<path d="M126.879 143.951C124.837 145.191 119.284 148.326 117.123 149.356C116.939 149.444 116.794 149.597 116.718 149.787C116.642 149.976 116.64 150.187 116.713 150.377C117.323 152.004 118.573 153.273 119.475 153.659C119.579 153.703 119.692 153.723 119.804 153.719C119.917 153.715 120.028 153.687 120.129 153.636C121.898 152.791 127.571 149.757 129.255 148.197C129.377 148.084 129.462 147.936 129.499 147.773C129.535 147.611 129.522 147.441 129.46 147.286C129.026 146.252 128.538 145.241 128 144.256C127.949 144.161 127.878 144.076 127.793 144.009C127.708 143.941 127.61 143.892 127.505 143.863C127.4 143.835 127.291 143.828 127.183 143.843C127.076 143.858 126.972 143.895 126.879 143.951Z" fill="#9BB167"/>
<path d="M73.9757 84.0555L74.658 84.17L75.426 84.2845C75.946 84.3561 76.4708 84.4324 77.0004 84.4945C78.0595 84.6233 79.1281 84.7282 80.192 84.8141C82.3293 84.9715 84.4856 85.0622 86.5848 85.0097C90.6965 85.0077 94.7841 84.3803 98.7072 83.1491C99.633 82.8432 100.54 82.4815 101.422 82.0661L101.584 81.9946C101.694 81.9421 101.446 82.0709 101.326 82.1568C101.175 82.2556 101.033 82.3673 100.902 82.4907C100.632 82.7359 100.399 83.0187 100.21 83.3304C100.06 83.5768 99.9409 83.8413 99.8569 84.1176C99.7619 84.4151 99.7151 84.726 99.7186 85.0383C99.7206 85.1333 99.7334 85.2277 99.7567 85.3198C99.7854 85.3866 99.7806 85.2959 99.7567 85.1719C99.7224 85.0102 99.6778 84.8508 99.6232 84.6948C99.298 83.7844 98.909 82.898 98.4591 82.0423C97.982 81.0882 97.4668 80.134 96.9182 79.1799C94.7332 75.306 92.2667 71.3893 89.9338 67.4486L89.91 67.4153C89.6039 66.8972 89.4945 66.2863 89.6019 65.6943C89.7092 65.1022 90.0261 64.5686 90.4946 64.191C90.9631 63.8134 91.5519 63.6171 92.1532 63.638C92.7546 63.6589 93.3283 63.8956 93.7695 64.3047C95.5299 65.9363 97.1662 67.6156 98.7692 69.3665C99.5755 70.2395 100.363 71.1269 101.131 72.0381C101.899 72.9493 102.676 73.87 103.411 74.829C104.146 75.7879 104.895 76.7659 105.601 77.8107C106.365 78.9293 107.05 80.0993 107.652 81.3124C107.819 81.6606 107.981 82.028 108.129 82.4478C108.314 82.9466 108.454 83.4607 108.549 83.984C108.619 84.3618 108.655 84.7448 108.659 85.129C108.665 85.7318 108.578 86.3321 108.401 86.9084C108.27 87.321 108.091 87.7165 107.867 88.0868C107.606 88.5214 107.285 88.9166 106.913 89.2604C106.726 89.4333 106.526 89.5927 106.316 89.7375C106.135 89.8615 105.839 90.0333 105.868 90.0094L105.644 90.1334C104.474 90.7937 103.265 91.3816 102.023 91.8938C99.5962 92.8802 97.0799 93.6295 94.5089 94.1313C92.0101 94.6146 89.48 94.9191 86.9378 95.0425C84.4381 95.1556 81.9338 95.1206 79.4382 94.9376C78.1978 94.8469 76.9574 94.7276 75.7218 94.5559C75.1016 94.4748 74.4767 94.3842 73.8565 94.2792L72.9023 94.1075L72.4252 94.012L71.8814 93.8976C70.5769 93.6521 69.4233 92.8985 68.6745 91.8025C67.9256 90.7065 67.6428 89.3579 67.8883 88.0534C68.1338 86.7489 68.8874 85.5953 69.9834 84.8465C71.0793 84.0976 72.4279 83.8149 73.7324 84.0603L73.9757 84.0555Z" fill="#FFB573"/>
<path d="M61.8969 84.9992C68.5377 82.9669 81.6859 82.1368 87.8926 83.4344C90.5356 90.0419 89.3238 98.4336 88.0739 99.1778C88.0739 99.1778 79.3625 101.391 71.4002 95.6427C69.1245 94.0111 58.815 86.6785 61.8969 84.9992Z" fill="#9BB167"/>
<path d="M67.4787 85.6817C72.3564 86.7095 77.3963 86.6949 82.268 85.6388C84.2838 85.1684 86.3431 84.9094 88.4127 84.8659C88.3554 84.6751 88.2934 84.4842 88.2266 84.2934C86.1738 84.3517 84.1324 84.6203 82.1344 85.0949C79.7463 85.6466 77.3001 85.9061 74.8495 85.8677C72.4101 85.9003 69.9757 85.6408 67.598 85.0949C66.3396 84.8119 65.065 84.6064 63.7814 84.4795C63.1612 84.6226 62.5792 84.78 62.0353 84.9565C63.8687 85.0247 65.6914 85.2675 67.4787 85.6817Z" fill="white"/>
<path d="M82.1444 89.3897C77.358 90.4328 72.4046 90.4458 67.6128 89.4279C66.0959 89.0859 64.5553 88.8594 63.0043 88.7504C63.1903 88.9556 63.3955 89.1655 63.6054 89.3754C64.9135 89.4973 66.2123 89.7044 67.4935 89.9956C69.8721 90.5345 72.3063 90.7891 74.745 90.7541H74.8834C77.3684 90.7872 79.8483 90.5181 82.2684 89.9526C84.5689 89.4172 86.9242 89.153 89.2862 89.1655L89.2146 88.5882C86.8348 88.5801 84.462 88.849 82.1444 89.3897Z" fill="white"/>
<path d="M82.1589 93.682C79.7775 94.2357 77.3379 94.5 74.8931 94.4691C72.9752 94.4978 71.0588 94.3493 69.1682 94.0255L70.1749 94.7697C71.7436 94.977 73.3253 95.0694 74.9074 95.0464C77.3925 95.0798 79.8724 94.8107 82.2925 94.2449C84.6376 93.6961 87.0403 93.4318 89.4486 93.4577C89.4486 93.2669 89.4486 93.0761 89.4486 92.8805C86.9954 92.8544 84.5479 93.1235 82.1589 93.682Z" fill="white"/>
<path d="M82.1683 97.976C80.6285 98.3374 79.0616 98.572 77.4835 98.6773C78.0369 98.849 78.5807 98.9874 79.1151 99.1066C80.3602 98.954 81.3334 98.7441 82.2924 98.5389C84.4382 98.0351 86.6336 97.7726 88.8378 97.7565C88.8903 97.58 88.938 97.3844 88.9857 97.1793C86.6904 97.1865 84.4034 97.4538 82.1683 97.976Z" fill="white"/>
<path d="M98.3933 63.8693C97.6968 60.3294 92.2725 61.8608 89.9873 63.2014C87.7021 64.542 86.8291 67.3615 87.7975 68.392C85.6745 65.8683 86.2136 63.3541 90.66 61.6318C95.1063 59.9096 98.045 60.3294 98.3933 63.8693Z" fill="#263238"/>
<path d="M85.6495 58.6124C85.8499 62.2095 91.4316 61.4462 93.879 60.4348C96.3264 59.4234 97.5811 56.7566 96.7653 55.5973C98.5162 58.3929 97.6383 60.8069 93.006 61.8994C88.3736 62.9919 85.5016 62.1666 85.6495 58.6124Z" fill="#263238"/>
<path d="M100.257 54.1566C97.6619 57.873 95.2718 57.2099 90.7825 58.9273C87.8485 60.0628 86.6511 62.9395 84.6712 62.6867C87.4335 64.4757 88.421 61.4558 92.2805 59.9292C97.5331 57.9016 100.238 58.3787 100.257 54.1566Z" fill="#263238"/>
<path d="M82.9604 64.2618C86.0995 60.9843 88.3609 62.01 93.0648 60.9795C96.1324 60.3069 97.764 57.64 99.6818 58.203C97.2249 56.0085 95.7841 58.8423 91.7338 59.7582C86.2283 61.0034 83.6331 60.0922 82.9604 64.2618Z" fill="#263238"/>
<path d="M95.3638 64.9286L95.9506 61.904C96.1099 61.0693 96.0628 60.2082 95.8133 59.3959C95.5639 58.5835 95.1197 57.8445 94.5194 57.243L93.8276 56.5417C93.4662 56.1758 93.0022 55.9283 92.497 55.832C91.9918 55.7357 91.4692 55.7952 90.9986 56.0026L88.2077 57.2334C87.6239 57.4925 87.1586 57.9613 86.9042 58.5471C86.6497 59.1329 86.6246 59.793 86.8337 60.3964L87.3108 61.799C87.3108 61.799 88.4701 66.8989 91.3898 69.4322L92.3439 68.9313C93.1142 68.5319 93.7852 67.9651 94.3078 67.2724C94.8304 66.5798 95.1912 65.7789 95.3638 64.9286Z" fill="#FFB573"/>
<path d="M46.9595 92.7816C46.3059 93.1776 47.5797 92.3809 46.9595 92.7816V92.7816Z" fill="#F08C51"/>
<path opacity="0.2" d="M43.5962 111.081C44.9241 113.549 45.8272 116.223 46.2678 118.991C48.1332 115.461 49.2877 111.043 49.2877 108.352C47.3104 109.085 45.4052 109.998 43.5962 111.081Z" fill="black"/>
<path d="M24.9332 84.1022C25.0238 90.829 10.4063 92.16 7.30532 87.0267C5.39703 83.8255 8.84627 82.5279 8.84627 82.5279C8.84627 82.5279 2.21496 83.6442 5.98383 89.059C10.4492 95.4709 24.3082 91.7831 26.2451 85.5144C27.309 82.0842 23.4113 78.8353 21.6557 80.9392C20.8351 81.9268 22.4715 83.525 22.4715 83.525C21.2263 81.4068 24.8807 79.8897 24.9332 84.1022Z" fill="#263238"/>
<path d="M10.6451 86.4691C10.3684 90.0662 16.0074 90.0423 18.5645 89.3649C21.1216 88.6875 22.7198 86.2019 22.0662 84.9472C23.4306 87.948 22.2427 90.2236 17.5054 90.7007C12.7681 91.1778 10.0344 89.9708 10.6451 86.4691Z" fill="#263238"/>
<path d="M6.2462 95.3275C9.74315 92.4365 11.8709 93.7198 16.6607 93.2475C19.7903 92.9374 21.7129 90.4852 23.5544 91.2581C21.3742 88.7916 19.6138 91.4394 15.4823 91.8783C9.86719 92.4699 7.39595 91.2676 6.2462 95.3275Z" fill="#263238"/>
<path d="M16.1023 95.4284L14.0079 93.1623C13.4293 92.5362 13.0129 91.778 12.795 90.9538C12.5771 90.1297 12.5644 89.2647 12.758 88.4345L12.9822 87.4804C13.1033 86.9858 13.3706 86.5391 13.7493 86.1987C14.128 85.8583 14.6005 85.6399 15.1052 85.5721L18.1298 85.1522C18.7623 85.0628 19.4053 85.2157 19.9299 85.5801C20.4545 85.9446 20.822 86.4938 20.9589 87.1178L21.2785 88.5729C21.2785 88.5729 22.9769 93.5153 21.8319 97.2269L20.7537 97.2985C19.8877 97.3562 19.0198 97.218 18.2146 96.8943C17.4093 96.5705 16.6873 96.0695 16.1023 95.4284Z" fill="#FFB573"/>
<path d="M49.6165 104.702L49.3493 105.26L49.1204 105.737C48.9677 106.038 48.815 106.305 48.6433 106.587C48.338 107.14 48.0183 107.674 47.6891 108.19C47.36 108.705 47.0355 109.225 46.6873 109.716C46.339 110.208 45.9955 110.704 45.6425 111.19C44.2248 113.103 42.6938 114.928 41.0578 116.658C39.4383 118.364 37.7279 119.982 35.9341 121.505L35.2709 122.077L34.584 122.626L33.2148 123.718C32.2606 124.429 31.3065 125.097 30.3953 125.784L30.1949 125.932C29.7313 126.27 29.2056 126.514 28.6478 126.649C28.09 126.784 27.511 126.808 26.944 126.72C26.3769 126.631 25.8329 126.432 25.3429 126.133C24.8529 125.834 24.4266 125.441 24.0884 124.978C23.9932 124.849 23.9056 124.716 23.826 124.577C22.5999 122.431 21.5531 120.188 20.6964 117.869C20.2575 116.734 19.8853 115.579 19.5466 114.425C19.2079 113.27 18.9026 112.116 18.6354 110.952C18.1162 108.638 17.7323 106.297 17.4857 103.939C17.3616 102.77 17.2853 101.592 17.2281 100.413C17.2281 99.8265 17.1947 99.2349 17.1899 98.6433C17.1851 98.0518 17.1899 97.4793 17.2233 96.8114C17.2405 96.205 17.4785 95.6257 17.8926 95.1824C18.3067 94.739 18.8684 94.4621 19.4722 94.4035C20.076 94.3449 20.6804 94.5088 21.172 94.8643C21.6635 95.2198 22.0084 95.7425 22.1419 96.3343L22.1753 96.487C22.2802 96.9641 22.4091 97.5031 22.5331 98.0136C22.6571 98.5241 22.7907 99.0584 22.9291 99.5832C23.1962 100.628 23.492 101.668 23.7973 102.698C24.1027 103.729 24.4318 104.755 24.7515 105.771C25.0711 106.787 25.4432 107.789 25.8344 108.776C26.5804 110.727 27.4259 112.638 28.3677 114.501C29.2835 116.317 30.3178 118.07 31.4639 119.749L24.8946 118.552C25.6722 117.869 26.4642 117.206 27.2275 116.51C27.9908 115.813 28.7637 115.136 29.4793 114.396L30.5718 113.313C30.9343 112.951 31.2778 112.569 31.6309 112.202C32.3513 111.477 33.0096 110.699 33.6966 109.945C35.0133 108.399 36.2871 106.83 37.4512 105.208C38.038 104.402 38.5914 103.576 39.1161 102.765C39.3881 102.355 39.6266 101.945 39.8699 101.544C39.9892 101.348 40.1132 101.143 40.2134 100.957L40.471 100.48L40.6953 100.079C41.3328 98.954 42.3816 98.1196 43.6214 97.7512C44.8612 97.3829 46.1955 97.5093 47.3441 98.1039C48.4926 98.6986 49.3661 99.7152 49.7809 100.94C50.1957 102.165 50.1197 103.503 49.5688 104.674L49.6165 104.702Z" fill="#FFB573"/>
<path d="M88.0126 133.958C84.2581 124.063 84.7495 111.678 83.5186 107.838C87.569 99.6037 80.7134 95.7585 78.7002 92.8961C75.0983 87.7675 72.3837 84.6809 66.1198 84.471C63.0951 84.366 60.5094 85.4251 58.8826 86.0548C54.8513 87.6483 53.3676 88.0395 49.7037 90.6968C43.9168 93.6403 36.4983 104.131 35.048 107.032C37.2903 114.188 40.9446 119.913 42.3472 119.493C43.5794 118.687 44.7341 117.769 45.7965 116.75C47.8097 124.683 46.1018 133.28 45.0618 141.405C44.7422 143.889 44.9552 146.414 45.6864 148.81C46.4177 151.205 47.6506 153.418 49.3031 155.301C50.9557 157.184 52.99 158.693 55.2709 159.729C57.5519 160.765 60.0271 161.303 62.5322 161.308H63.4005C80.2459 161.308 93.9856 149.696 88.0126 133.958Z" fill="#9BB167"/>
<path d="M44.3792 94.8557C46.4124 94.1854 48.3609 93.2808 50.1851 92.1603C54.4104 89.6649 59.155 88.1792 64.0489 87.8189C66.5356 87.6768 68.9929 87.2084 71.3576 86.4258C71.6916 86.3209 72.0064 86.2159 72.3118 86.111C72.0875 85.9774 71.8585 85.8534 71.62 85.7341L71.1906 85.8724C68.8762 86.6429 66.4699 87.1033 64.0346 87.2416C61.5458 87.3832 59.0866 87.8532 56.721 88.6395C54.3294 89.342 52.0417 90.3591 49.918 91.6641C48.4909 92.538 46.9866 93.279 45.424 93.8777C45.0566 94.1926 44.7179 94.5218 44.3792 94.8557Z" fill="white"/>
<path d="M58.095 93.1043C55.7046 93.8078 53.4172 94.8231 51.292 96.1241C49.2062 97.4047 46.9605 98.404 44.613 99.0963C42.9961 99.6247 41.3358 100.009 39.6514 100.246L39.1743 100.89C41.0844 100.663 42.9671 100.246 44.7942 99.6449C47.184 98.9416 49.4701 97.9245 51.5925 96.6203C55.8197 94.1299 60.5634 92.6461 65.4563 92.2837C67.9434 92.1418 70.401 91.6718 72.765 90.8859C73.9456 90.5248 75.1052 90.0979 76.2381 89.6073C76.1093 89.4499 75.9805 89.302 75.8469 89.1303C74.7839 89.5829 73.6979 89.9795 72.5933 90.3182C70.2706 91.0883 67.8564 91.5487 65.4133 91.6874C62.9221 91.8347 60.4612 92.3111 58.095 93.1043Z" fill="white"/>
<path d="M38.8724 105.504C41.3592 105.362 43.8165 104.893 46.1812 104.111C48.5702 103.405 50.8559 102.388 52.9794 101.086C57.2072 98.5962 61.9504 97.1109 66.8432 96.7447C69.3305 96.6074 71.7885 96.1389 74.1519 95.3516C75.8487 94.8436 77.4965 94.1841 79.0753 93.3813C78.9465 93.2239 78.8225 93.0664 78.7175 92.9042C77.1965 93.6761 75.6115 94.3146 73.9802 94.8125C71.6575 95.5827 69.2433 96.043 66.8002 96.1817C61.8189 96.5483 56.9895 98.0601 52.6884 100.599C50.6016 101.878 48.3561 102.877 46.0094 103.572C43.6861 104.339 41.2723 104.8 38.8295 104.941C37.9803 105.003 37.1215 105.07 36.1054 105.227C35.9575 105.461 35.8239 105.675 35.6999 105.881C36.7503 105.701 37.8092 105.575 38.8724 105.504Z" fill="white"/>
<path d="M75.3783 99.268C73.055 100.036 70.6411 100.496 68.1983 100.637C63.217 101.004 58.3877 102.516 54.0865 105.055C52.0004 106.333 49.7546 107.331 47.4075 108.022C45.0925 108.791 42.6866 109.253 40.2514 109.396C38.853 109.478 37.4624 109.662 36.0914 109.95C36.1581 110.131 36.2297 110.312 36.3013 110.494C37.6179 110.223 38.9524 110.047 40.2944 109.969C42.7811 109.827 45.2384 109.358 47.6031 108.576C49.9921 107.87 52.2779 106.853 54.4014 105.551C58.6291 103.061 63.3724 101.576 68.2651 101.21C70.7519 101.068 73.2092 100.599 75.5739 99.8166C77.9371 99.1219 80.1988 98.1194 82.3006 96.8349C82.1766 96.6823 82.0525 96.5344 81.9237 96.3865C79.8763 97.6273 77.676 98.5959 75.3783 99.268Z" fill="white"/>
<path d="M83.4372 100.762C79.219 103.25 74.4855 104.736 69.6021 105.104C64.6208 105.47 59.7915 106.982 55.4903 109.521C53.4042 110.8 51.1584 111.798 48.8113 112.489C46.4969 113.259 44.0906 113.72 41.6552 113.858C40.4421 113.934 39.2346 114.083 38.039 114.302L38.3205 114.836C39.4377 114.637 40.5655 114.504 41.6982 114.435C44.1853 114.293 46.6429 113.823 49.0069 113.037C51.3824 112.33 53.6551 111.315 55.767 110.018C59.9923 107.522 64.7369 106.036 69.6308 105.676C74.6108 105.311 79.4389 103.799 83.7378 101.258L84.4773 100.829C84.4248 100.638 84.3675 100.452 84.3007 100.266L83.4372 100.762Z" fill="white"/>
<path d="M78.1883 108.194C75.8662 108.967 73.4517 109.427 71.0083 109.563C66.0281 109.936 61.2 111.447 56.8965 113.981C54.8108 115.262 52.565 116.261 50.2175 116.953C48.8649 117.387 47.4847 117.73 46.0861 117.979C46.1242 118.17 46.1624 118.356 46.1958 118.547C47.6155 118.293 49.0165 117.944 50.3893 117.502C52.7812 116.798 55.0702 115.783 57.1971 114.482C61.4138 111.991 66.1481 110.505 71.0322 110.141C73.5194 109.999 75.9769 109.529 78.3409 108.743C80.369 108.146 82.3231 107.322 84.166 106.286C84.2614 106.009 84.3425 105.742 84.4188 105.475C82.4623 106.635 80.3695 107.549 78.1883 108.194Z" fill="white"/>
<path d="M40.7579 118.547C40.9246 118.729 41.1014 118.901 41.2875 119.062C41.9172 118.986 42.4945 118.943 43.0669 118.9H43.2291C43.4724 118.723 43.7635 118.504 44.0831 118.251L43.024 118.337C42.3084 118.38 41.5832 118.432 40.7579 118.547Z" fill="white"/>
<path d="M58.5721 118.968C62.7993 116.477 67.543 114.993 72.4358 114.631C74.923 114.489 77.3805 114.019 79.7446 113.233C81.253 112.779 82.7237 112.208 84.1432 111.525C84.1432 111.315 84.1003 111.115 84.0764 110.915C82.6264 111.627 81.1201 112.219 79.5728 112.685C77.2501 113.455 74.836 113.915 72.3929 114.054C67.4116 114.42 62.5822 115.932 58.2811 118.471C56.1943 119.75 53.9488 120.749 51.6021 121.444C49.9905 121.968 48.3369 122.352 46.6596 122.593C46.6596 122.784 46.6596 122.98 46.6882 123.171C48.4148 122.928 50.1166 122.534 51.7738 121.992C54.1628 121.287 56.4486 120.27 58.5721 118.968Z" fill="white"/>
<path d="M59.9693 123.409C64.1971 120.919 68.9403 119.433 73.833 119.067C76.3198 118.925 78.7771 118.457 81.1418 117.674C82.3169 117.313 83.4716 116.887 84.6006 116.4C84.6006 116.195 84.5672 115.995 84.5481 115.795C83.3815 116.305 82.1869 116.75 80.97 117.126C78.6465 117.892 76.2327 118.35 73.7901 118.49C68.8088 118.857 63.9794 120.368 59.6783 122.908C57.5921 124.186 55.3464 125.184 52.9993 125.875C50.9591 126.558 48.8453 126.997 46.7019 127.182L46.6733 127.764C48.8925 127.583 51.082 127.136 53.1949 126.433C55.576 125.727 57.8538 124.71 59.9693 123.409Z" fill="white"/>
<path d="M54.5691 130.893C56.9585 130.191 59.2445 129.176 61.3673 127.874C65.5926 125.378 70.3372 123.893 75.2311 123.532C77.7178 123.39 80.1751 122.922 82.5398 122.139C83.5369 121.824 84.3813 121.524 85.1208 121.233C85.0922 121.032 85.0683 120.837 85.0444 120.641C84.2859 120.947 83.4129 121.261 82.3681 121.595C80.0531 122.364 77.6472 122.826 75.212 122.969C70.2307 123.336 65.4013 124.848 61.1002 127.387C59.014 128.666 56.7683 129.663 54.4212 130.354C52.1067 131.125 49.7004 131.585 47.2651 131.724L46.3634 131.8C46.3634 131.996 46.3205 132.186 46.3014 132.382L47.308 132.301C49.7795 132.152 52.2208 131.678 54.5691 130.893Z" fill="white"/>
<path d="M85.7413 125.374C85.1545 125.599 84.5009 125.823 83.7662 126.052C81.4441 126.824 79.0297 127.285 76.5862 127.421C71.6052 127.796 66.777 129.311 62.4744 131.848C60.3897 133.131 58.1437 134.13 55.7954 134.82C53.4708 135.588 51.055 136.045 48.6107 136.18C47.7186 136.247 46.8121 136.318 45.7483 136.495C45.7196 136.695 45.691 136.896 45.6672 137.091C46.8169 136.9 47.7567 136.824 48.6775 136.757C51.1647 136.615 53.6222 136.145 55.9863 135.359C58.369 134.649 60.6483 133.629 62.7655 132.325C66.9908 129.83 71.7353 128.344 76.6292 127.984C79.1157 127.847 81.5732 127.381 83.9379 126.6C84.644 126.381 85.2737 126.166 85.8462 125.952C85.8224 125.761 85.7747 125.57 85.7413 125.374Z" fill="white"/>
<path d="M48.848 78.5964C49.9119 82.642 50.6466 88.5147 50.0359 92.6653C49.8117 94.2014 50.637 94.1823 52.1875 94.1537C56.2331 94.0822 59.7539 93.3189 68.0884 95.6994C68.5654 91.3533 66.867 88.5147 65.703 87.1121C65.1969 86.5609 64.5286 86.1849 63.7947 86.0387C60.5745 85.2802 61.7385 77.8474 61.8864 76.3971L48.848 78.5964Z" fill="#FFB573"/>
<path opacity="0.2" d="M61.869 76.3971L56.1441 77.3512L51.4592 80.3568C51.8934 82.7755 54.4266 84.2736 57.2414 84.8174C58.8729 85.1277 60.5557 85.031 62.1409 84.5359C61.0532 82.0981 61.7545 77.5039 61.869 76.3971Z" fill="black"/>
<path d="M43.2866 72.4233C47.6566 79.0498 49.3645 81.9647 54.7984 83.5056C62.9658 85.8576 69.9788 79.1261 67.6316 71.3498C65.5229 64.3512 58.7342 54.6905 50.5715 55.7591C42.5281 56.8087 38.9166 65.8015 43.2866 72.4233Z" fill="#FFB573"/>
<path d="M64.5488 75.8487C64.5488 75.8487 62.3686 76.4355 56.1571 76.8028C56.7868 75.0854 58.0654 73.6351 61.2379 73.4633C64.4105 73.2916 64.5488 75.8487 64.5488 75.8487Z" fill="#263238"/>
<path d="M59.8451 74.8719C61.0571 74.8692 62.2428 74.5181 63.2609 73.8605C62.6397 73.5392 61.9392 73.4034 61.2429 73.4693C60.0331 73.467 58.8491 73.8186 57.8366 74.4807C58.4549 74.8005 59.152 74.9362 59.8451 74.8719Z" fill="white"/>
<path d="M64.2731 75.9169C64.0728 75.5687 63.7388 75.4399 62.756 75.1488C61.7733 74.8578 58.5816 75.4065 57.9853 75.6736C57.389 75.9408 56.7402 76.1889 56.4253 76.7757C59.0579 76.6703 61.6801 76.3834 64.2731 75.9169Z" fill="#BA4D3C"/>
<path d="M49.4587 55.3018C55.5748 55.9268 56.2427 61.2414 56.2427 61.2414C56.2427 61.2414 58.0127 58.274 56.7198 56.5517C55.4269 54.8295 51.3527 54.5003 49.4587 55.3018Z" fill="#263238"/>
<path d="M55.5859 69.2427C55.9246 69.7866 56.4923 70.049 56.8501 69.8295C57.2079 69.6101 57.2222 68.9803 56.8787 68.4317C56.5352 67.8831 55.9723 67.6207 55.6145 67.8449C55.2567 68.0691 55.2424 68.6941 55.5859 69.2427Z" fill="#263238"/>
<path d="M62.3744 65.1391C62.7179 65.6877 63.2856 65.9501 63.6434 65.7259C64.0012 65.5016 64.0108 64.8814 63.672 64.3328C63.3333 63.7842 62.7608 63.5218 62.403 63.746C62.0452 63.9702 62.0357 64.5809 62.3744 65.1391Z" fill="#263238"/>
<path d="M62.2643 63.8748L63.3425 62.6774C63.3425 62.6774 63.3091 64.1038 62.2643 63.8748Z" fill="#263238"/>
<path d="M61.0566 67.2088C61.0566 67.2088 63.442 68.9836 65.188 69.4845C64.8827 70.6104 63.4658 71.0684 63.4658 71.0684L61.0566 67.2088Z" fill="#ED893E"/>
<path d="M44.6646 78.8455C45.2465 79.2738 45.9127 79.5735 46.6192 79.7248C47.3257 79.8762 48.0563 79.8757 48.7626 79.7233C50.5326 79.2796 50.3322 77.1662 48.9344 75.7111C47.6701 74.3992 45.2275 73.0538 43.8869 74.2799C42.5464 75.506 43.0998 77.7435 44.6646 78.8455Z" fill="#CE7A63"/>
<path d="M37.9086 60.1918C32.7515 70.9116 40.2558 74.7425 34.9412 79.0409C37.5222 80.3672 39.5498 76.8178 39.5498 76.8178C39.5498 76.8178 41.6966 83.2869 39.8265 87.8716C45.0743 87.5424 45.9616 82.7144 45.9616 82.7144C46.3222 85.3047 46.3559 87.9301 46.0618 90.5289C54.797 83.5064 54.1243 70.4393 46.0618 66.4939C50.4461 64.0513 56.6242 58.7224 50.0215 54.5671C41.6823 49.3193 33.6388 58.2024 34.1064 63.3691C36.2675 60.5592 37.9086 60.1918 37.9086 60.1918Z" fill="#263238"/>
<path d="M54.5016 63.9695C54.4592 63.9978 54.423 64.0343 54.3951 64.0769C54.3672 64.1196 54.3483 64.1674 54.3394 64.2176C54.2769 64.6892 54.1033 65.1393 53.8329 65.5308C53.5625 65.9222 53.2031 66.2439 52.7841 66.4694C52.6986 66.5109 52.6317 66.5828 52.5964 66.671C52.5611 66.7592 52.56 66.8575 52.5933 66.9465C52.6331 67.0336 52.7046 67.1023 52.7932 67.1386C52.8818 67.1749 52.9809 67.1762 53.0704 67.1421C53.6049 66.8652 54.0653 66.4642 54.4131 65.9729C54.7609 65.4815 54.9859 64.914 55.0693 64.3178C55.0775 64.2689 55.076 64.2189 55.0648 64.1706C55.0537 64.1223 55.0331 64.0767 55.0043 64.0364C54.9755 63.9961 54.939 63.9618 54.897 63.9356C54.8549 63.9094 54.8081 63.8917 54.7592 63.8836C54.6656 63.8788 54.5736 63.9095 54.5016 63.9695Z" fill="#263238"/>
<path d="M60.0129 60.2017C59.9181 60.2233 59.8358 60.2816 59.7839 60.3639C59.7291 60.4476 59.7094 60.5496 59.729 60.6477C59.7487 60.7459 59.8061 60.8324 59.8889 60.8886C60.3826 61.2333 60.9521 61.454 61.5492 61.5321C62.1462 61.6101 62.7533 61.5432 63.3191 61.3371C63.407 61.2982 63.4764 61.2268 63.5129 61.1379C63.5493 61.049 63.55 60.9494 63.5147 60.86C63.4748 60.7728 63.4036 60.7038 63.3153 60.6666C63.2269 60.6295 63.1277 60.627 63.0376 60.6596C62.5878 60.8159 62.1072 60.8624 61.6358 60.7952C61.1644 60.7279 60.716 60.549 60.3278 60.2732C60.2836 60.2393 60.2326 60.2153 60.1782 60.203C60.1239 60.1906 60.0675 60.1902 60.0129 60.2017Z" fill="#263238"/>
<path d="M55.4759 67.9737L56.5541 66.7762C56.5541 66.7762 56.5207 68.2218 55.4759 67.9737Z" fill="#263238"/>
<path d="M148.142 159.723C147.374 157.623 146.629 155.906 138.166 154.766C138.166 154.766 143.142 147.51 145.484 148.874C149.735 151.355 161.357 151.574 168.331 149.633C171.437 148.769 170.812 152.309 168.584 153.101C163.012 155.081 161.428 156.245 158.609 158.034C156.223 159.56 155.379 161.979 153.099 162.208C150.265 162.499 148.91 161.831 148.142 159.723Z" fill="#FFB573"/>
<path d="M44.9362 142.821C45.4133 142.63 81.4037 127.555 108.673 123.056C110.827 122.707 113.031 123.221 114.808 124.487C131.668 136.457 139.091 144.252 145.746 146.847C144.253 151.222 142.092 157.195 142.092 157.195C129.13 152.591 119.77 150.955 110.629 140.913C79.1423 157.462 77.9401 162.286 66.4379 162.286C54.6351 162.286 48.6526 157.038 46.9543 153.488C45.2559 149.939 44.6166 145.722 44.9362 142.821Z" fill="#263238"/>
<path d="M142.659 145.683C141.896 147.944 139.673 153.922 138.685 156.102C138.601 156.287 138.589 156.498 138.653 156.691C138.717 156.885 138.851 157.047 139.029 157.147C140.546 158.001 142.321 158.163 143.256 157.876C143.361 157.84 143.458 157.783 143.54 157.707C143.623 157.632 143.688 157.54 143.733 157.438C144.544 155.649 146.92 149.671 147.201 147.395C147.222 147.229 147.192 147.061 147.114 146.912C147.037 146.764 146.915 146.643 146.767 146.565C145.769 146.055 144.745 145.597 143.699 145.191C143.599 145.153 143.492 145.135 143.385 145.139C143.277 145.143 143.172 145.169 143.075 145.215C142.978 145.261 142.891 145.326 142.819 145.406C142.748 145.487 142.694 145.581 142.659 145.683Z" fill="#9BB167"/>
<path d="M28.6908 158.043C27.7748 156.02 22.6892 156.297 24.1586 159.474C25.628 162.652 30.8758 159.594 34.4538 158.835C38.0319 158.077 40.9372 162.27 40.9372 162.27C40.9372 162.27 37.5977 160.705 34.2582 160.705C30.9187 160.705 29.206 162.265 25.3513 162.265C21.4965 162.265 20.5806 159.565 21.7351 157.285C22.8896 155.004 29.3921 154.322 28.6908 158.043Z" fill="#263238"/>
<path d="M127.803 164.04C125.084 164.56 119.931 166.24 118.09 163.535C117.312 165.123 118.09 166.908 121.024 166.745C123.958 166.583 125.188 165.452 127.703 165.314C129.444 165.275 131.179 165.537 132.831 166.087C132.831 166.087 131.419 163.334 127.803 164.04Z" fill="#263238"/>
<path d="M170.926 161.66C169.408 161.951 166.532 162.886 165.501 161.374C165.067 162.261 165.501 163.258 167.142 163.167C168.783 163.077 169.466 162.447 170.878 162.366C171.85 162.346 172.818 162.493 173.74 162.8C173.458 162.331 173.031 161.966 172.523 161.76C172.016 161.555 171.455 161.519 170.926 161.66Z" fill="#263238"/>
<path d="M21.9311 162.448C19.5076 161.923 17.6804 163.063 12.8667 161.971C13.7302 162.744 15.5908 163.144 15.5908 163.144C15.5908 163.144 13.4869 163.621 10.1474 162.93C13.2245 164.723 22.37 164.075 22.37 164.075L20.6191 163.268C20.6191 163.268 21.5542 162.448 21.9311 162.448Z" fill="#263238"/>
<path d="M99.2112 162.448C101.93 161.923 103.982 163.063 109.378 161.971C108.423 162.744 106.324 163.144 106.324 163.144C106.324 163.144 108.686 163.621 112.431 162.93C108.977 164.723 98.7198 164.075 98.7198 164.075L100.681 163.268C100.681 163.268 99.6548 162.448 99.2112 162.448Z" fill="#263238"/>
<path d="M21.4154 159.995C20.9908 158.297 21.2293 155.382 22.2359 153.659C21.5203 154.747 22.6319 158.044 22.6319 158.044L21.4154 159.995Z" fill="#263238"/>
<path d="M81.6802 3.7164L71.6044 0L67.8499 21.5971L76.7616 19.8367L65.3786 41.138L86.8374 16.7166L76.6328 15.2711L81.6802 3.7164Z" fill="#F08C51"/>
<path d="M6.43608 32.1064L11.1639 19.3161L19.3695 29.4634L24.4599 21.3579L32.074 45.7554L22.0793 32.8268L18.2484 37.9696L6.43608 32.1064Z" fill="#F08C51"/>
<path d="M35.5055 48.5475L32.8244 36.6159L35.2384 39.8791L35.5055 48.5475Z" fill="#F08C51"/>
<path d="M73.7663 48.4558L84.0329 41.8149L81.805 45.2117L73.7663 48.4558Z" fill="#F08C51"/>
<path d="M18.4303 63.9649L5.01497 59.0463L8.43081 62.3381L18.4303 63.9649Z" fill="#F08C51"/>
</svg>
