<svg width="293" height="198" viewBox="0 0 293 198" fill="none" xmlns="http://www.w3.org/2000/svg">
<path d="M133.936 17.4892C124.924 20.9419 117.719 16.3799 107.224 14.5725C98.1372 13.0144 88.8136 12.0297 79.6396 13.513C61.3414 16.4671 45.2869 29.742 39.5781 46.6316C35.0285 60.0935 36.7112 75.0137 31.5384 88.2512C24.446 106.4 5.39998 119.114 0.925167 138.01C-1.85446 149.752 1.78523 162.553 9.75016 171.877C19.8341 183.693 35.0534 188.205 50.4847 188.991C66.5766 189.801 87.6294 183.269 103.273 188.567C165.384 209.607 182.074 183.282 212.999 179.617C228.543 177.772 246.043 187.37 261.487 186.348C278.538 185.214 290.143 173.397 292.499 157.355C294.132 146.262 291.851 131.853 284.646 122.89C278.302 115 269.526 108.145 267.457 97.8864C264.254 82.0188 274.712 67.3978 275.073 51.7546C275.273 43.2038 271.782 33.9177 263.93 29.8292C255.716 25.5539 245.569 28.0717 236.333 26.6881C223.108 24.7187 213.485 15.3079 202.753 8.56451C191.709 1.62169 180.392 -1.99307 167.129 1.13557C154.378 4.15202 145.677 12.9895 133.936 17.4892Z" fill="#F5F5F4"/>
<path d="M249.794 119.873C249.807 133.809 245.319 162.864 240.396 175.566C239.585 177.672 238.576 180.153 237.491 182.72C229.178 180.664 220.839 178.682 212.998 179.617C182.061 183.294 165.383 209.607 103.272 188.566C93.8735 185.388 82.5306 186.472 71.4869 187.656C61.9515 163.911 58.3866 138.982 59.5084 112.282C60.3186 92.8749 67.0744 75.1377 79.8009 64.443C120.61 30.1402 156.658 67.1977 156.658 67.1977C168.824 53.3744 188.966 43.9012 219.567 56.8022C229.364 60.928 238.663 70.4136 243.923 81.0335C249.62 92.5508 249.782 106.561 249.794 119.873Z" fill="#9BB167"/>
<path d="M137.762 97.0625C165.134 106.573 197.443 99.3436 216.451 75.0125C220.241 70.276 223.083 65.1654 225.127 59.7558C223.307 58.5966 221.437 57.5994 219.555 56.8016C188.954 43.9007 168.811 53.3739 156.646 67.1972C156.646 67.1972 126.469 36.1851 90.0846 57.1631C93.637 63.196 97.1894 69.2289 102.013 74.6261C111.536 85.6574 124.462 92.1141 137.762 97.0625Z" fill="#FDBA74"/>
<path d="M14.4619 100.092C14.9231 99.7677 15.3843 99.3813 15.8331 98.9451C25.5181 89.5093 31.3516 74.3398 29.6938 60.8406C29.3448 57.9487 28.5221 52.4768 25.0195 51.7413C20.3951 50.7691 14.9979 57.3255 13.5022 60.9527C10.9843 67.0854 11.3956 73.9534 9.25171 80.1982C7.33215 85.7699 2.77008 92.3388 6.17293 98.272C8.267 101.924 11.5203 102.148 14.4619 100.092Z" fill="#F5F5F4"/>
<path d="M278.638 69.1435C278.476 69.5423 278.339 69.9537 278.214 70.365C276.482 76.3356 274.911 83.5152 274.425 89.7227C273.777 97.9867 276.569 107.26 283.462 108.17C288.772 108.868 288.66 96.3663 289.033 93.836C289.781 88.6382 290.305 83.4155 290.617 78.1679C290.828 74.6155 292.15 68.9814 289.781 65.9276C286.204 61.3406 280.296 64.9678 278.638 69.1435Z" fill="#F5F5F4"/>
<path d="M160.772 37.8181C164.25 24.3687 157.955 18.7721 152.271 16.9398C146.588 15.1075 140.131 17.8372 136.267 22.4242C134.073 25.0294 132.378 28.3076 129.299 29.7161C127.33 30.6135 125.086 30.6011 122.917 30.5138C115.7 30.2147 108.458 29.3047 101.303 30.2022C94.1362 31.0997 86.8443 34.1036 82.6811 40.0368C79.1038 45.1349 78.1066 51.9281 73.6816 56.2908C65.8663 63.9939 51.8685 60.1797 43.031 66.6738C39.8525 69.0047 37.6213 72.5945 36.9108 76.4835C35.3902 84.8847 40.7624 93.772 37.8831 101.799C35.5647 108.256 28.3102 112.569 27.7244 119.412C27.3629 123.637 29.8808 127.776 33.4083 130.107C36.9358 132.437 41.2984 133.185 45.5115 133.098C55.6702 132.861 65.617 127.788 71.8119 119.686C74.7411 115.859 76.8352 111.459 79.7395 107.62C82.6437 103.781 86.6574 100.391 91.4313 99.9171C93.2886 99.7301 95.1583 100.004 97.0155 100.029C104.731 100.166 112.384 95.9907 116.473 89.4094C120.649 82.6909 121.558 80.0858 127.317 74.6886C137.513 65.1282 144.606 77.8546 156.659 67.1849C161.371 63.0092 155.762 49.4103 158.965 43.9881C160.535 41.3331 154.789 39.7626 157.768 39.0397L160.772 37.8181Z" fill="#533630"/>
<path d="M158.64 24.7812C160.547 17.9257 154.365 11.6809 147.696 11.5313C143.844 11.444 140.068 13.0146 137.076 15.3704C133.561 18.1251 131.28 22.5002 126.967 24.1954C122.517 25.9404 117.569 24.7438 113.082 23.8339C109.043 23.0112 105.029 22.2883 100.916 22.8741C93.6117 23.9087 86.7561 28.2464 82.8921 34.5785C80.6983 38.1807 79.8257 42.319 78.5668 46.3077C77.096 50.9196 74.7776 54.7588 70.5146 57.2392C62.4625 61.9384 52.7026 60.8665 44.1145 63.9328C37.4708 66.3011 31.1138 72.0597 31.9365 79.713C32.7716 87.491 40.1507 94.6208 35.5762 102.498C33.5569 105.989 30.3535 108.619 28.3716 112.134C26.4894 115.449 26.2526 119.201 27.9727 122.641C32.3727 131.417 43.2793 131.279 50.97 127.39C51.6307 127.054 51.0448 126.069 50.3967 126.406C46.2833 128.487 41.4969 129.634 36.9348 128.45C32.8962 127.403 29.3438 124.274 28.2345 120.186C26.2027 112.732 33.9308 108.232 36.9099 102.436C40.2504 95.9545 36.2492 89.9216 34.0929 83.8139C32.7716 80.087 32.4849 76.2603 34.5167 72.7204C36.5858 69.1056 40.2504 66.5877 44.0895 65.1543C51.7678 62.2874 60.2687 62.8857 67.8846 59.7945C71.0257 58.5231 73.9549 56.6659 76.0739 53.9735C78.3674 51.0443 79.4393 47.4545 80.4614 43.9394C81.5459 40.1751 82.73 36.498 85.1108 33.332C87.4417 30.2407 90.5828 27.7852 94.0604 26.1149C97.5505 24.4447 101.452 23.6095 105.316 23.7841C109.566 23.9835 113.692 25.2673 117.88 25.8781C121.869 26.4515 126.082 26.4016 129.56 24.1081C133.05 21.8146 135.169 18.0129 138.597 15.6322C142.436 12.9647 147.808 11.5063 152.208 13.7251C156.097 15.682 158.74 20.1194 157.531 24.4696C157.344 25.1926 158.44 25.4917 158.64 24.7812Z" fill="#533630"/>
<path d="M184.516 129.085L181.151 130.918C179.107 132.451 179.381 132.949 178.907 135.455L177.723 142.934C177.673 143.183 177.324 143.183 177.274 142.934L176.115 135.505C175.654 132.999 175.704 132.451 173.672 130.918L170.481 129.085C170.357 128.998 170.357 128.811 170.481 128.724L174.083 127.004C176.103 125.471 175.978 124.449 176.439 121.968L177.274 114.913C177.324 114.664 177.673 114.664 177.723 114.913L178.695 122.23C179.144 124.71 179.406 125.732 181.4 127.278L184.529 128.736C184.641 128.811 184.629 128.998 184.516 129.085Z" fill="#EBE2D6"/>
<path d="M150.065 75.1254C150.065 81.6319 144.792 86.9045 138.286 86.9045C131.779 86.9045 126.506 81.6319 126.506 75.1254C126.506 68.6188 131.779 63.3462 138.286 63.3462C144.792 63.3338 150.065 68.6188 150.065 75.1254Z" fill="#EBE2D6"/>
<path d="M166.257 35.4005C166.083 38.5665 163.378 40.9846 160.212 40.8101C157.046 40.6356 154.628 37.9308 154.802 34.7648C154.977 31.5987 157.682 29.1806 160.848 29.3551C164.001 29.5296 166.432 32.2344 166.257 35.4005Z" fill="#FDBA74"/>
<path d="M152.658 33.4058C148.944 34.2658 144.993 34.6148 141.079 34.4029C142.026 29.2924 143.36 25.8397 143.36 25.8397L152.658 33.4058Z" fill="#FDBA74"/>
<path d="M152.658 33.4068L184.256 59.1339C190.326 64.0699 190.887 73.1192 185.502 78.8031C185.415 78.8904 185.328 78.9776 185.241 79.0773C178.734 85.908 167.391 84.0757 163.365 75.5374C159.065 66.4132 154.715 57.1395 154.715 57.1395L147.871 65.9022C138.897 56.6285 139.445 43.1168 141.066 34.404C144.992 34.6283 148.943 34.2668 152.658 33.4068Z" fill="#FDBA74"/>
<path d="M159.963 37.6684C160.735 35.7737 161.521 33.8666 162.331 31.9845C162.618 31.3114 161.633 30.738 161.346 31.4111C160.499 33.3805 159.676 35.3749 158.866 37.3692C158.579 38.0423 159.688 38.3415 159.963 37.6684Z" fill="#533630"/>
<path d="M154.727 57.1381L163.452 76.2091L159.314 50.3324L154.727 57.1381Z" fill="#533630"/>
<path d="M140.168 39.2633C139.308 42.878 138.66 46.7421 138.51 50.469C138.498 50.9053 139.009 51.1795 139.37 50.9676C140.617 50.2073 141.863 49.4344 143.122 48.6741C143.745 48.2877 143.172 47.303 142.549 47.6894C141.302 48.4497 140.056 49.2225 138.797 49.9829C139.084 50.1449 139.37 50.307 139.657 50.469C139.807 46.8418 140.43 43.1024 141.277 39.5749C141.439 38.8644 140.343 38.5528 140.168 39.2633Z" fill="#533630"/>
<path d="M145.99 40.6735C146.912 40.5613 147.847 40.4242 148.732 40.15C150.115 39.7262 151.187 38.7913 152.222 37.8191C152.758 37.3205 151.948 36.5103 151.412 37.0089C150.44 37.9188 149.467 38.7664 148.159 39.1154C147.448 39.3024 146.713 39.427 145.977 39.5268C145.279 39.6265 145.267 40.7608 145.99 40.6735Z" fill="#533630"/>
<path d="M146.923 42.4551C147.833 41.9191 148.282 40.8222 147.995 39.8001C147.796 39.0897 146.699 39.3888 146.898 40.0993C147.048 40.6353 146.836 41.1837 146.35 41.4579C145.714 41.8443 146.288 42.8291 146.923 42.4551Z" fill="#533630"/>
<path d="M149.467 42.5799C150.153 41.6201 150.365 40.4609 150.128 39.3141C149.978 38.5912 148.881 38.9028 149.031 39.6133C149.206 40.4733 148.994 41.2835 148.495 41.994C148.046 42.6048 149.044 43.1657 149.467 42.5799Z" fill="#533630"/>
<path d="M128.813 91.5922C128.576 90.6324 128.676 89.6976 129.05 88.7877C129.324 88.1146 128.227 87.8154 127.953 88.4885C127.504 89.5854 127.442 90.7446 127.716 91.8914C127.878 92.6018 128.988 92.3027 128.813 91.5922Z" fill="white"/>
<path d="M137.575 113.155C135.68 113.093 128.276 113.031 126.73 111.747C126.232 111.336 125.733 110.837 125.521 110.164C125.334 109.603 125.359 108.082 125.384 107.472C125.534 103.882 125.683 95.8295 125.833 92.2397C125.858 91.7411 125.883 91.2176 126.082 90.7689C126.531 89.7592 127.653 89.5099 128.625 89.4102C133.947 88.8119 139.295 88.6374 144.642 88.8867C146.836 88.9864 149.441 89.4725 150.376 91.8159C150.962 93.2743 151.423 94.9944 151.124 96.5774C150.638 99.0953 151.286 106.537 150.787 109.055C150.65 109.765 150.5 111.398 150.126 111.984C149.503 112.968 146.499 112.869 145.477 113.106C142.872 113.716 140.217 113.143 137.575 113.155Z" fill="white"/>
<path d="M138.658 89.8722C138.658 87.0178 138.658 84.1633 138.658 81.3089C138.658 80.5735 137.512 80.5735 137.512 81.3089C137.512 84.1633 137.512 87.0178 137.512 89.8722C137.524 90.6076 138.658 90.6076 138.658 89.8722Z" fill="#533630"/>
<path d="M138.148 71.0621C137.574 72.9069 137.013 74.7392 136.44 76.584C136.103 77.6809 135.767 78.9647 136.278 79.9743C136.963 81.3205 138.846 81.1585 139.681 79.9494C140.528 78.7403 140.503 76.9579 140.067 75.4746C139.631 73.9913 138.858 72.6825 138.297 71.274L138.148 71.0621Z" fill="#FB923C"/>
<path d="M129.075 93.0503C131.094 93.2871 133.051 93.7234 134.983 94.359C135.681 94.5834 135.98 93.4865 135.282 93.2622C133.25 92.6015 131.181 92.1653 129.062 91.916C128.352 91.8287 128.352 92.9755 129.075 93.0503Z" fill="#A8A29E"/>
<path d="M139.121 93.8969C140.592 93.5978 141.988 93.0867 143.322 92.4012C143.97 92.0646 143.396 91.0799 142.748 91.4165C141.502 92.0646 140.205 92.5258 138.822 92.8C138.099 92.9496 138.41 94.0465 139.121 93.8969Z" fill="#A8A29E"/>
<path d="M146.537 92.5013C147.023 92.5013 147.509 92.5013 147.995 92.5013C148.73 92.5013 148.73 91.3671 147.995 91.3671C147.509 91.3671 147.023 91.3671 146.537 91.3671C145.801 91.3546 145.801 92.5013 146.537 92.5013Z" fill="#A8A29E"/>
<path d="M144.78 186.547C142.075 193.889 127.092 196.158 111.312 191.62C95.5319 187.083 84.9369 177.436 87.6418 170.094C90.3466 162.752 105.329 160.484 121.109 165.021C136.89 169.558 147.485 179.206 144.78 186.547Z" fill="#533630"/>
<path d="M113.954 189.601C103.447 186.971 91.2935 180.664 93.1258 171.141C95.17 160.584 96.217 146.337 99.57 134.233C100.193 131.99 102.649 127.153 104.219 125.309C105.104 124.262 106.239 123.402 107.086 122.33C108.694 120.26 109.043 117.568 110.688 115.524C112.296 113.53 122.468 110.737 124.836 109.466C135.207 103.907 130.707 111.947 130.707 111.947C130.707 111.947 134.322 110.862 139.557 107.746C140.741 107.035 142.274 105.826 143.882 104.592C145.939 103.022 148.781 105.477 147.073 107.335C147.06 107.347 147.048 107.36 147.035 107.372C143.72 110.962 134.895 116.06 130.383 118.416C134.159 118.042 142.361 114.315 145.664 112.657C147.16 111.909 149.229 110.737 151.348 109.541C153.579 108.282 156.06 110.75 154.415 112.57C152.694 114.464 150.7 116.172 149.192 117.294C145.901 119.712 140.005 122.105 137.001 124.81C141.913 122.168 148.905 119.002 153.816 116.359C153.854 116.334 153.904 116.322 153.941 116.297C156.484 115.063 158.927 118.104 156.808 119.862C152.894 123.102 146.313 127.478 142.723 129.846C145.178 128.026 150.289 125.259 153.218 124.112C153.866 123.85 154.651 123.913 155.187 124.324C156.309 125.159 155.349 126.605 154.415 127.49C150.476 131.242 146.549 134.994 142.611 138.733C142.224 139.095 144.281 145.663 144.393 146.623C145.515 156.234 142.935 165.856 140.629 175.167C138.46 183.93 138.485 183.868 138.46 183.93C135.929 194.6 125.808 192.568 113.954 189.601Z" fill="#FDBA74"/>
<path d="M104.631 125.707C106.326 123.812 107.971 122.404 109.018 120.023C109.878 118.079 110.477 116.047 112.421 114.963C115.624 113.168 119.302 112.22 122.729 110.949C124.325 110.363 129.772 106.761 130.993 108.356C131.579 109.129 130.619 110.936 130.221 111.647C129.984 112.071 130.37 112.632 130.869 112.482C132.776 111.896 134.621 111.024 136.391 110.126C138.198 109.216 139.98 108.232 141.613 107.023C142.473 106.399 143.284 105.627 144.181 105.078C145.677 104.143 147.497 105.253 146.637 106.973C146.063 108.119 144.069 109.291 143.084 110.014C141.726 111.024 140.305 111.959 138.871 112.869C136.017 114.676 133.087 116.359 130.096 117.929C129.622 118.178 129.809 119.063 130.383 118.989C133.648 118.602 136.802 117.231 139.806 115.96C142.997 114.614 146.113 113.105 149.142 111.423C150.177 110.849 151.797 109.528 153.056 109.802C156.035 110.463 152.994 113.242 152.046 114.127C150.413 115.661 148.668 117.032 146.736 118.178C143.333 120.198 139.594 121.781 136.578 124.386C136.067 124.822 136.715 125.582 137.263 125.283C140.317 123.65 143.421 122.155 146.537 120.634C148.132 119.861 149.715 119.076 151.286 118.278C152.62 117.605 154.701 115.922 156.209 116.882C158.503 118.353 155.162 120.422 154.041 121.257C152.732 122.242 151.398 123.202 150.052 124.149C147.534 125.919 144.966 127.627 142.399 129.322C142.586 129.646 142.785 129.983 142.972 130.307C145.826 128.25 149.005 126.53 152.208 125.096C152.52 124.959 152.994 124.635 153.318 124.623C156.185 124.548 154.664 126.293 154.14 126.866C153.343 127.739 152.408 128.537 151.548 129.347C149.765 131.054 147.97 132.75 146.188 134.457C145.378 135.23 144.58 135.99 143.77 136.763C143.321 137.2 142.286 137.873 142.037 138.471C141.8 139.044 142.05 139.83 142.174 140.403C142.635 142.522 143.458 144.591 143.795 146.735C143.907 147.458 145.004 147.146 144.892 146.436C144.717 145.351 144.356 144.292 144.069 143.232C143.782 142.16 142.935 140.378 143.109 139.269C143.246 138.346 144.954 137.2 145.639 136.539C146.624 135.604 147.609 134.669 148.594 133.722C150.638 131.765 152.794 129.883 154.764 127.839C155.599 126.979 156.646 125.707 156.01 124.448C155.362 123.139 153.766 123.227 152.62 123.663C149.055 125.022 145.477 127.066 142.386 129.297C141.8 129.721 142.336 130.693 142.96 130.282C146.425 128.001 149.89 125.682 153.243 123.227C155.1 121.868 159.725 119.475 157.568 116.608C155.399 113.729 151.573 116.82 149.329 117.942C145.103 120.048 140.828 122.03 136.665 124.261C136.889 124.56 137.126 124.86 137.35 125.159C141.115 121.905 146.026 120.347 149.965 117.331C151.809 115.91 158.478 111.111 153.866 108.88C151.947 107.957 150.127 109.516 148.519 110.401C146.674 111.423 144.817 112.395 142.91 113.28C139.008 115.1 134.658 117.293 130.333 117.805C130.433 118.154 130.52 118.515 130.619 118.864C134.409 116.882 138.136 114.713 141.676 112.308C143.259 111.236 144.842 110.101 146.263 108.817C147.185 107.982 148.344 106.998 148.07 105.602C147.821 104.355 146.562 103.495 145.328 103.483C143.333 103.445 141.588 105.627 140.043 106.661C137.176 108.593 133.823 110.313 130.495 111.335C130.707 111.61 130.919 111.896 131.143 112.17C131.754 111.061 132.527 109.403 132.09 108.119C131.056 105.066 125.895 108.244 124.4 108.967C120.698 110.725 116.622 111.635 112.907 113.367C111.187 114.165 110.09 114.975 109.18 116.683C108.445 118.079 108.009 119.624 107.211 120.995C106.313 122.504 104.93 123.563 103.771 124.847C103.334 125.445 104.132 126.256 104.631 125.707Z" fill="#533630"/>
<path d="M119.514 116.895C123.378 115.736 127.129 114.016 130.869 112.483C131.542 112.209 131.243 111.099 130.57 111.386C126.843 112.919 123.091 114.639 119.214 115.798C118.504 116.01 118.803 117.107 119.514 116.895Z" fill="#533630"/>
<path d="M121.557 120.422C122.617 121.046 123.539 121.843 124.262 122.841C124.686 123.426 125.683 122.865 125.247 122.267C124.412 121.108 123.365 120.161 122.143 119.438C121.495 119.064 120.922 120.048 121.557 120.422Z" fill="white"/>
<path d="M127.554 126.692C128.277 127.365 128.999 128.05 129.722 128.723C130.258 129.222 131.069 128.424 130.533 127.913C129.81 127.24 129.087 126.555 128.364 125.882C127.828 125.383 127.018 126.193 127.554 126.692Z" fill="white"/>
<path d="M133.162 132.774C134.035 133.584 134.895 134.395 135.768 135.205C136.304 135.703 137.114 134.906 136.578 134.395C135.705 133.584 134.833 132.774 133.973 131.964C133.424 131.465 132.626 132.263 133.162 132.774Z" fill="white"/>
<path d="M138.496 138.422C138.908 139.095 139.519 139.631 140.254 139.943C140.541 140.068 140.865 140.03 141.039 139.744C141.176 139.507 141.114 139.083 140.84 138.958C140.279 138.721 139.805 138.372 139.494 137.849C139.095 137.226 138.11 137.799 138.496 138.422Z" fill="white"/>
<path d="M125.908 110.376C127.715 110.413 129.448 109.615 130.433 108.07C130.832 107.446 129.847 106.873 129.448 107.496C128.675 108.705 127.304 109.266 125.908 109.229C125.173 109.216 125.185 110.363 125.908 110.376Z" fill="#533630"/>
<path d="M141.55 106.973C143.507 107.583 145.788 106.898 146.873 105.115C147.259 104.492 146.275 103.919 145.888 104.542C145.053 105.901 143.32 106.324 141.85 105.876C141.152 105.651 140.852 106.748 141.55 106.973Z" fill="#533630"/>
<path d="M148.706 111.559C150.75 112.531 153.293 112.045 154.664 110.188C155.1 109.602 154.115 109.029 153.679 109.615C152.707 110.936 150.725 111.26 149.279 110.574C148.618 110.263 148.045 111.248 148.706 111.559Z" fill="#533630"/>
<path d="M152.171 117.556C153.256 119.388 156.185 119.4 157.419 117.73C157.855 117.132 156.87 116.571 156.434 117.157C155.711 118.154 153.779 118.017 153.156 116.982C152.782 116.347 151.785 116.92 152.171 117.556Z" fill="#533630"/>
<path d="M150.377 125.881C151.872 126.928 154.178 126.317 154.889 124.622C155.176 123.949 154.066 123.65 153.792 124.323C153.356 125.37 151.773 125.47 150.963 124.896C150.352 124.485 149.778 125.47 150.377 125.881Z" fill="#533630"/>
<path d="M199.439 162.365C204.462 168.186 197.918 180.078 184.818 188.915C171.717 197.753 157.021 200.196 151.986 194.375C146.962 188.554 153.506 176.662 166.607 167.825C179.707 158.975 194.415 156.532 199.439 162.365Z" fill="#533630"/>
<path d="M187.062 185.252C194.329 180.229 198.604 173.024 196.198 167.49C190.651 154.739 187.959 142.261 183.833 128.388C183.198 126.257 180.779 121.695 179.259 119.962C178.399 118.977 177.302 118.18 176.492 117.17C174.921 115.225 174.547 112.658 172.952 110.738C171.394 108.869 161.659 106.338 159.39 105.167C149.431 100.019 153.843 107.597 153.843 107.597C153.843 107.597 150.391 106.612 145.355 103.721C144.208 103.06 142.737 101.926 141.179 100.779C139.185 99.3081 136.53 101.676 138.188 103.434C138.2 103.446 138.213 103.459 138.225 103.471C141.441 106.837 149.929 111.573 154.267 113.755C150.665 113.456 142.8 110.003 139.634 108.47C138.2 107.772 136.206 106.687 134.174 105.578C132.03 104.406 129.699 106.787 131.307 108.507C132.977 110.289 134.897 111.885 136.355 112.932C139.521 115.201 145.18 117.394 148.085 119.925C143.373 117.482 136.654 114.552 131.943 112.109C131.905 112.084 131.868 112.072 131.818 112.047C129.375 110.913 127.107 113.829 129.151 115.475C132.928 118.504 139.272 122.592 142.725 124.786C140.344 123.078 135.42 120.511 132.628 119.463C132.005 119.227 131.282 119.301 130.771 119.688C129.724 120.498 130.659 121.857 131.569 122.692C135.371 126.207 139.185 129.722 142.987 133.237C143.36 133.586 141.516 139.856 141.428 140.778C140.519 149.94 143.236 159.039 145.492 167.901C147.087 174.183 148.832 180.453 150.74 186.673C150.752 186.735 150.777 186.785 150.789 186.848C153.444 195.51 167.679 195.286 182.163 188.368L187.062 185.252Z" fill="#FDBA74"/>
<path d="M187.347 185.75C190.95 183.207 194.328 180.004 196.197 175.94C197.793 172.463 197.618 169.434 196.16 165.981C191.785 155.585 189.043 144.641 185.989 133.81C184.78 129.522 183.583 125.533 181.215 121.731C180.242 120.173 179.058 119.026 177.774 117.718C175.705 115.611 175.369 112.582 173.424 110.438C171.704 108.531 168.463 107.783 166.132 106.973C164.637 106.462 163.141 105.976 161.658 105.452C160.037 104.879 158.554 104.031 156.946 103.421C155.463 102.86 152.558 102.062 152.284 104.443C152.147 105.602 152.758 106.898 153.319 107.883C153.531 107.609 153.743 107.322 153.967 107.048C150.751 106.101 147.485 104.493 144.693 102.66C143.197 101.676 141.465 99.5691 139.508 99.781C138.386 99.9057 137.264 100.753 137.102 101.925C136.915 103.209 137.925 104.069 138.785 104.829C140.156 106.038 141.677 107.098 143.197 108.107C146.638 110.376 150.265 112.408 153.942 114.265C154.042 113.916 154.129 113.554 154.229 113.205C150.016 112.757 145.765 110.688 141.951 108.967C140.007 108.082 138.112 107.11 136.23 106.088C134.746 105.278 133.176 104.119 131.493 105.116C127.592 107.434 133.4 111.435 135.195 112.807C139.059 115.761 143.908 117.194 147.635 120.323C147.859 120.024 148.096 119.724 148.32 119.425C144.232 117.319 140.031 115.449 135.893 113.455C133.774 112.433 130.247 109.703 128.265 112.433C126.27 115.15 130.521 117.306 132.291 118.565C135.594 120.909 138.984 123.115 142.4 125.284C143.023 125.683 143.571 124.71 142.973 124.299C141.265 123.102 139.421 122.08 137.563 121.121C135.993 120.31 133.911 118.927 132.104 118.777C130.795 118.665 129.524 119.55 129.748 120.958C130.06 122.965 132.752 124.611 134.111 125.87C136.192 127.789 138.286 129.721 140.368 131.641C141.029 132.251 142.25 132.987 142.4 133.785C142.537 134.445 142.038 135.604 141.876 136.253C141.552 137.611 141.128 138.957 140.879 140.329C140.43 142.809 140.567 145.501 140.767 147.994C141.216 153.616 142.587 159.1 143.983 164.547C145.528 170.555 147.086 176.563 148.844 182.509C149.841 185.899 150.502 189.439 153.531 191.621C156.46 193.715 160.324 194.139 163.826 194.001C169.286 193.79 174.671 192.194 179.682 190.075C182.461 188.916 184.842 187.333 187.347 185.75C187.971 185.363 187.397 184.366 186.774 184.765C185.154 185.787 183.571 186.909 181.9 187.844C177.999 190.05 173.2 191.434 168.812 192.269C165.023 192.992 160.835 193.303 157.108 192.082C153.518 190.91 151.898 188.529 150.851 185.064C147.784 174.98 144.756 164.66 142.824 154.289C141.988 149.814 141.191 144.679 142.125 140.154C142.387 138.87 142.774 137.611 143.073 136.34C143.272 135.505 143.758 134.233 143.596 133.348C143.484 132.75 143.023 132.476 142.574 132.065C141.49 131.055 140.393 130.058 139.308 129.048C137.127 127.041 134.958 125.034 132.777 123.015C132.453 122.716 131.717 122.28 131.58 121.868C131.58 120.223 132.004 119.637 132.864 120.123C133.188 120.248 133.5 120.385 133.812 120.522C134.809 120.958 135.793 121.432 136.766 121.931C138.71 122.928 140.63 123.987 142.425 125.234C142.612 124.91 142.811 124.573 142.998 124.249C140.592 122.716 138.199 121.17 135.831 119.562C134.522 118.677 133.226 117.78 131.954 116.858C130.845 116.047 127.729 114.402 129.449 112.794C130.795 111.535 132.964 113.23 134.235 113.854C135.756 114.602 137.289 115.324 138.822 116.047C141.826 117.456 144.83 118.852 147.784 120.373C148.333 120.647 148.994 119.911 148.47 119.475C145.578 117.057 142.038 115.611 138.785 113.754C136.903 112.669 135.183 111.386 133.587 109.915C132.715 109.13 130.67 107.671 131.73 106.325C132.765 105.004 134.933 106.624 135.968 107.173C138.872 108.743 141.851 110.139 144.905 111.398C147.884 112.62 151.025 113.941 154.254 114.29C154.815 114.352 155.026 113.467 154.54 113.23C151.835 111.859 149.168 110.388 146.575 108.818C145.117 107.933 143.671 107.011 142.275 106.026C141.203 105.265 139.471 104.306 138.748 103.159C138.062 102.062 138.735 100.566 140.193 100.89C141.153 101.102 142.076 102.124 142.848 102.685C144.506 103.882 146.251 104.879 148.084 105.789C149.879 106.674 151.748 107.534 153.668 108.095C154.154 108.232 154.553 107.684 154.316 107.26C153.917 106.574 153.331 105.527 153.418 104.717C153.655 102.498 158.392 105.303 159.264 105.702C161.645 106.811 164.238 107.472 166.706 108.344C168.102 108.843 169.523 109.329 170.857 110.002C172.39 110.775 173.113 111.772 173.861 113.355C174.633 115.013 175.257 116.658 176.516 118.029C177.949 119.6 179.382 120.859 180.492 122.704C182.598 126.194 183.695 129.833 184.792 133.735C187.347 142.809 189.678 151.971 192.932 160.821C194.452 164.971 197.194 169.085 195.848 173.634C194.465 178.296 190.626 181.998 186.761 184.728C186.176 185.176 186.749 186.174 187.347 185.75Z" fill="#533630"/>
<path d="M164.862 111.074C161.16 110.027 157.558 108.444 153.993 107.036C153.307 106.762 153.008 107.871 153.694 108.133C157.271 109.541 160.861 111.124 164.563 112.171C165.274 112.383 165.573 111.286 164.862 111.074Z" fill="#533630"/>
<path d="M162.119 114.577C160.96 115.288 159.975 116.198 159.19 117.32C158.766 117.918 159.763 118.491 160.175 117.893C160.835 116.933 161.695 116.16 162.692 115.562C163.328 115.176 162.755 114.191 162.119 114.577Z" fill="white"/>
<path d="M156.297 120.809C155.624 121.457 154.951 122.118 154.265 122.766C153.742 123.277 154.54 124.087 155.076 123.576C155.749 122.928 156.422 122.267 157.107 121.619C157.631 121.096 156.821 120.298 156.297 120.809Z" fill="white"/>
<path d="M151.063 126.654C150.253 127.44 149.43 128.225 148.62 128.998C148.084 129.509 148.894 130.319 149.43 129.808C150.24 129.023 151.063 128.237 151.873 127.465C152.397 126.954 151.599 126.156 151.063 126.654Z" fill="white"/>
<path d="M145.914 132.339C145.627 132.838 145.191 133.174 144.668 133.411C144.381 133.536 144.319 133.947 144.468 134.196C144.643 134.483 144.967 134.533 145.253 134.396C145.939 134.084 146.525 133.573 146.911 132.925C147.273 132.277 146.288 131.704 145.914 132.339Z" fill="white"/>
<path d="M130.621 120.559C131.531 122.504 134.373 122.79 135.906 121.494C136.467 121.021 135.657 120.223 135.096 120.684C134.074 121.556 132.179 121.207 131.594 119.986C131.294 119.325 130.31 119.899 130.621 120.559Z" fill="#533630"/>
<path d="M129.162 113.069C130.745 114.328 132.826 114.677 134.733 113.966C135.419 113.717 135.12 112.608 134.434 112.869C132.938 113.418 131.243 113.281 129.972 112.259C129.398 111.81 128.588 112.608 129.162 113.069Z" fill="#533630"/>
<path d="M131.357 106.799C132.778 108.856 135.557 109.591 137.863 108.681C138.536 108.419 138.25 107.31 137.564 107.584C135.769 108.295 133.488 107.896 132.341 106.226C131.93 105.627 130.945 106.201 131.357 106.799Z" fill="#533630"/>
<path d="M138.399 101.851C139.807 103.396 141.814 104.157 143.883 104.119C144.619 104.107 144.619 102.972 143.883 102.985C142.088 103.01 140.418 102.387 139.209 101.04C138.711 100.504 137.913 101.315 138.399 101.851Z" fill="#533630"/>
<path d="M153.295 104.767C154.79 105.614 156.511 105.801 158.156 105.365C158.866 105.178 158.567 104.069 157.857 104.268C156.498 104.63 155.102 104.48 153.868 103.795C153.22 103.421 152.646 104.405 153.295 104.767Z" fill="#533630"/>
<path d="M158.18 23.7211C164.263 22.3126 170.657 25.0175 173.661 30.5393C176.665 36.0861 175.195 41.7326 172.552 47.055C170.396 51.4052 167.629 55.9548 168.09 61.0154C168.489 65.5027 171.443 69.3917 175.593 71.0869C180.442 73.0688 187.796 72.2337 190.975 77.2195C194.403 82.6043 188.881 88.9986 188.208 94.4706C187.684 98.7211 189.741 102.373 194.079 103.246C198.267 104.093 204.187 102.348 207.316 106.013C210.27 109.466 209.56 118.714 216.153 118.203C219.843 117.917 220.329 112.021 216.515 111.984C215.78 111.971 215.78 113.118 216.515 113.118C217.899 113.13 218.435 115.012 217.824 116.072C216.852 117.78 214.321 116.994 213.174 116.01C210.868 114.028 210.744 110.513 209.684 107.845C208.126 103.969 204.923 102.697 200.972 102.51C196.646 102.298 190.352 103.021 189.367 97.3375C188.445 92.0151 192.496 87.3907 193.094 82.2802C193.605 77.8552 191.1 74.577 187.136 72.9192C182.287 70.8999 176.329 71.6104 172.378 67.6342C163.777 58.9712 174.958 48.8001 176.379 39.7756C178.049 29.1433 168.302 20.2061 157.881 22.6243C157.158 22.7863 157.457 23.8957 158.18 23.7211Z" fill="#533630"/>
<path d="M101.765 97.4994C91.2071 96.8887 84.0523 106.399 85.386 116.396C85.8223 119.674 86.7946 123.002 86.2835 126.33C85.8597 129.06 84.4512 131.603 82.3945 133.435C79.9888 135.579 75.8506 137.05 73.2455 134.395C71.9865 133.111 71.7372 130.842 73.0959 129.521C74.5044 128.15 76.8976 128.985 77.2591 130.867C77.3962 131.59 78.4931 131.279 78.356 130.568C77.6579 126.991 72.7344 126.866 71.3882 130.07C69.7055 134.046 73.8064 137.299 77.5333 136.938C82.2449 136.464 85.9968 132.139 87.1311 127.751C88.6518 121.855 85.3237 115.997 86.6699 110.076C88.2529 103.071 94.585 98.2224 101.752 98.6337C102.5 98.6836 102.488 97.5368 101.765 97.4994Z" fill="#533630"/>
<path d="M147.833 40.4481C148.731 41.1088 149.666 40.8844 149.666 40.8844C149.715 40.2861 150.925 39.7377 150.925 39.7377C150.775 39.5258 150.064 38.8901 150.276 38.7654L147.833 40.4481Z" fill="#533630"/>
<path d="M147.548 40.9476C148.208 41.3839 149.031 41.6082 149.816 41.4337C150.003 41.3963 150.178 41.2218 150.215 41.0348C150.29 40.6484 150.876 40.3867 151.212 40.2371C151.586 40.0626 151.524 39.6014 151.324 39.3396C151.237 39.2275 151.137 39.1278 151.05 39.028C150.988 38.9657 150.813 38.679 150.813 38.8161C150.764 38.9532 150.701 39.0904 150.651 39.215C150.664 39.2025 150.676 39.1901 150.689 39.1776C151.15 38.6167 150.352 37.8065 149.879 38.3674C149.318 39.053 150.128 39.6388 150.527 40.1499C150.564 39.8507 150.602 39.5515 150.639 39.2524C150.028 39.5391 149.268 40.0252 149.118 40.7357C149.255 40.5986 149.38 40.4739 149.517 40.3368C149.031 40.449 148.52 40.2246 148.134 39.9629C147.51 39.5515 146.937 40.5363 147.548 40.9476Z" fill="#533630"/>
<path d="M147.759 52.5524C147.485 52.5524 147.534 52.5524 147.397 52.2781C147.235 52.8889 147.073 53.4872 146.924 54.098C148.444 53.3875 150.027 52.8266 151.648 52.3779C151.087 51.9541 150.526 51.5178 149.965 51.094C149.878 51.7297 149.803 52.5524 149.392 53.0759C149.255 53.2504 148.681 53.5994 148.606 53.4872C147.584 52.1286 145.278 53.4623 146.313 54.8334C147.323 56.1671 149.03 56.4912 150.489 55.6311C152.084 54.6838 152.421 52.7767 152.633 51.094C152.745 50.2215 151.698 49.5982 150.95 49.8101C149.105 50.3212 147.323 50.9943 145.59 51.8045C144.904 52.1161 144.817 53.026 145.116 53.6243C145.627 54.6589 146.637 55.2198 147.771 55.2198C149.467 55.2198 149.467 52.5524 147.759 52.5524Z" fill="#FB7185"/>
<path d="M146.301 55.2951C146.899 54.9461 147.46 54.5223 147.984 54.0735C148.532 53.5874 147.722 52.7897 147.174 53.2633C146.725 53.6622 146.239 54.0112 145.715 54.3104C145.092 54.6843 145.665 55.6815 146.301 55.2951Z" fill="#533630"/>
<path d="M151.3 51.7547C151.873 51.1315 152.534 50.6204 153.269 50.2091C153.905 49.8476 153.332 48.8629 152.696 49.2244C151.873 49.6856 151.138 50.259 150.49 50.9445C149.991 51.493 150.801 52.2907 151.3 51.7547Z" fill="#533630"/>
<path d="M143.235 34.5916C144.481 33.8312 145.79 33.1831 147.149 32.6596C147.822 32.3978 147.535 31.2884 146.85 31.5627C145.391 32.1236 143.995 32.8091 142.661 33.6069C142.026 33.9808 142.599 34.978 143.235 34.5916Z" fill="#533630"/>
</svg>
