<svg width="27" height="27" viewBox="0 0 27 27" fill="none" xmlns="http://www.w3.org/2000/svg">
<path fill-rule="evenodd" clip-rule="evenodd" d="M11.9269 0L11.1988 2.40207C10.9 3.38783 10.7389 4.43497 10.7389 5.52217C10.7389 11.4531 15.5469 16.2611 21.4778 16.2611C22.565 16.2611 23.6122 16.0999 24.5979 15.8012L27 15.0731L26.2719 17.4752C24.6016 22.9861 19.4831 27 13.4236 27C6.00997 27 0 20.99 0 13.5764C0 7.51686 4.0139 2.39836 9.5248 0.728049L11.9269 0ZM8.11482 4.23887C4.87085 6.08734 2.68473 9.57774 2.68473 13.5764C2.68473 19.5073 7.4927 24.3153 13.4236 24.3153C17.4223 24.3153 20.9127 22.1291 22.7611 18.8852C22.3385 18.9253 21.9105 18.9458 21.4778 18.9458C14.0642 18.9458 8.05418 12.9358 8.05418 5.52217C8.05418 5.08954 8.07469 4.66145 8.11482 4.23887Z" fill="#533630"/>
</svg>
