<svg width="343" height="251" viewBox="0 0 343 251" fill="none" xmlns="http://www.w3.org/2000/svg">
<g clip-path="url(#clip0_24415_35702)">
<g filter="url(#filter0_dddd_24415_35702)">
<path d="M50.455 94.4102H51.8V113.3H50.455C50.205 113.3 50 113.095 50 112.845V94.8652C50 94.6152 50.205 94.4102 50.455 94.4102Z" fill="#D6D3D1"/>
<path d="M249.761 0H93.0508C70.269 0 51.8008 18.4683 51.8008 41.25V452.675C51.8008 475.457 70.269 493.925 93.0508 493.925H249.761C272.543 493.925 291.011 475.457 291.011 452.675V41.25C291.011 18.4683 272.543 0 249.761 0Z" fill="white" stroke="#A8A29E" stroke-width="0.5" stroke-miterlimit="10"/>
<path d="M249.165 2.71094H93.645C72.1639 2.71094 54.75 20.1248 54.75 41.6059V451.646C54.75 473.127 72.1639 490.541 93.645 490.541H249.165C270.646 490.541 288.06 473.127 288.06 451.646V41.6059C288.06 20.1248 270.646 2.71094 249.165 2.71094Z" fill="white" stroke="#A8A29E" stroke-width="0.5" stroke-miterlimit="10"/>
<path d="M249.902 10.0156H92.9169C76.0059 10.0156 62.2969 23.7247 62.2969 40.6356V452.616C62.2969 469.527 76.0059 483.236 92.9169 483.236H249.902C266.813 483.236 280.522 469.527 280.522 452.616V40.6356C280.522 23.7247 266.813 10.0156 249.902 10.0156Z" fill="#D6D3D1"/>
<path d="M51.8031 94.4102H50.4531V113.3H51.8031V94.4102Z" fill="#D6D3D1"/>
<path d="M50.455 130.285H51.8V167.665H50.455C50.205 167.665 50 167.46 50 167.21V130.735C50 130.485 50.205 130.285 50.455 130.285Z" fill="#D6D3D1"/>
<path d="M51.8031 130.285H50.4531V167.665H51.8031V130.285Z" fill="#D6D3D1"/>
<path d="M50.455 177.939H51.8V215.319H50.455C50.205 215.324 50 215.119 50 214.869V178.394C50 178.144 50.205 177.939 50.455 177.939Z" fill="#D6D3D1"/>
<path d="M51.8031 177.939H50.4531V215.319H51.8031V177.939Z" fill="#D6D3D1"/>
<path opacity="0.48" d="M249.17 2.71008H93.645C72.165 2.71008 54.75 20.1201 54.75 41.6001V451.645C54.75 473.125 72.165 490.54 93.645 490.54H249.17C270.65 490.54 288.065 473.125 288.065 451.645V41.6001C288.065 20.1201 270.65 2.70508 249.17 2.70508V2.71008ZM286.065 451.935C286.065 472.025 269.78 488.31 249.69 488.31H93.12C73.03 488.31 56.745 472.025 56.745 451.935V41.3151C56.75 21.2301 73.035 4.94508 93.12 4.94508H249.695C269.785 4.94508 286.07 21.2301 286.07 41.3201V451.93L286.065 451.935Z" fill="#D6D3D1"/>
<path d="M292.365 215.301H291.015V156.091H292.365C292.615 156.091 292.82 156.296 292.82 156.546V214.846C292.82 215.096 292.615 215.301 292.365 215.301Z" fill="#D6D3D1"/>
<path d="M291.009 215.301H292.359V156.091H291.009V215.301Z" fill="#D6D3D1"/>
<path d="M250.105 10.25H93.12C76.209 10.25 62.5 23.959 62.5 40.87V452.85C62.5 469.761 76.209 483.47 93.12 483.47H250.105C267.016 483.47 280.725 469.761 280.725 452.85V40.87C280.725 23.959 267.016 10.25 250.105 10.25Z" fill="#F5F5F4"/>
<path d="M147.014 16.6836H196.488C201.917 16.6836 206.318 21.0847 206.318 26.5137C206.318 31.9426 201.917 36.3438 196.488 36.3438H147.014C141.585 36.3438 137.184 31.9426 137.184 26.5137C137.184 21.0847 141.585 16.6836 147.014 16.6836Z" fill="white" stroke="#A8A29E" stroke-width="0.5"/>
<path d="M196.148 32.0688C199.213 32.0688 201.698 29.5839 201.698 26.5188C201.698 23.4536 199.213 20.9688 196.148 20.9688C193.082 20.9688 190.598 23.4536 190.598 26.5188C190.598 29.5839 193.082 32.0688 196.148 32.0688Z" fill="#D6D3D1"/>
<path d="M196.15 29.5237C197.809 29.5237 199.155 28.1783 199.155 26.5187C199.155 24.8591 197.809 23.5137 196.15 23.5137C194.49 23.5137 193.145 24.8591 193.145 26.5187C193.145 28.1783 194.49 29.5237 196.15 29.5237Z" fill="#A8A29E"/>
</g>
<g filter="url(#filter1_dd_24415_35702)">
<rect x="27" y="74.5" width="289" height="101" rx="16" fill="white"/>
<path d="M48.375 96.9167C48.375 100.944 51.5 104.208 51.5 104.208C51.5 104.208 54.625 100.944 54.625 96.9167C54.625 92.8896 51.5 89.625 51.5 89.625C51.5 89.625 48.375 92.8896 48.375 96.9167Z" stroke="url(#paint0_linear_24415_35702)" stroke-width="1.5" stroke-linecap="round" stroke-linejoin="round"/>
<path d="M45.5924 94.8327C43.2852 93.8389 41.082 93.791 41.082 93.791C41.082 93.791 41.182 98.3546 44.0581 101.232C46.9341 104.109 51.4987 104.208 51.4987 104.208C51.4987 104.208 56.0622 104.108 58.9393 101.232C61.8164 98.3556 61.9154 93.791 61.9154 93.791C61.9154 93.791 59.7133 93.8389 57.4049 94.8327M51.5195 104.208C51.3466 105.596 52.1862 108.374 55.1591 108.374C57.2372 108.374 58.2768 106.291 61.9154 108.374C61.4987 106.291 60.6654 104.958 59.4497 104.208M51.4768 104.208C51.6508 105.596 50.8102 108.374 47.8393 108.374C45.7591 108.374 44.7206 106.291 41.082 108.374C41.4987 106.291 42.332 104.958 43.5477 104.208" stroke="url(#paint1_linear_24415_35702)" stroke-width="1.5" stroke-linecap="round" stroke-linejoin="round"/>
<path d="M77.408 109.812C76.272 109.812 75.204 109.588 74.204 109.14C73.204 108.684 72.324 108.056 71.564 107.256C70.804 106.456 70.208 105.532 69.776 104.484C69.344 103.428 69.128 102.3 69.128 101.1C69.128 99.9 69.344 98.776 69.776 97.728C70.208 96.672 70.804 95.744 71.564 94.944C72.324 94.144 73.204 93.52 74.204 93.072C75.204 92.616 76.272 92.388 77.408 92.388C78.552 92.388 79.624 92.616 80.624 93.072C81.624 93.52 82.504 94.144 83.264 94.944C84.024 95.744 84.616 96.672 85.04 97.728C85.472 98.776 85.688 99.9 85.688 101.1C85.688 102.3 85.472 103.428 85.04 104.484C84.616 105.532 84.024 106.456 83.264 107.256C82.504 108.056 81.624 108.684 80.624 109.14C79.624 109.588 78.552 109.812 77.408 109.812ZM77.408 106.884C78.144 106.884 78.836 106.732 79.484 106.428C80.132 106.124 80.7 105.708 81.188 105.18C81.684 104.644 82.068 104.028 82.34 103.332C82.62 102.636 82.76 101.892 82.76 101.1C82.76 100.308 82.62 99.564 82.34 98.868C82.06 98.164 81.672 97.548 81.176 97.02C80.688 96.492 80.12 96.076 79.472 95.772C78.832 95.468 78.144 95.316 77.408 95.316C76.672 95.316 75.98 95.468 75.332 95.772C74.684 96.076 74.112 96.496 73.616 97.032C73.128 97.56 72.744 98.172 72.464 98.868C72.192 99.564 72.056 100.308 72.056 101.1C72.056 101.9 72.196 102.648 72.476 103.344C72.756 104.04 73.14 104.656 73.628 105.192C74.124 105.72 74.692 106.136 75.332 106.44C75.98 106.736 76.672 106.884 77.408 106.884ZM87.983 109.5V97.5H90.911V98.568C91.319 98.136 91.807 97.796 92.375 97.548C92.943 97.292 93.555 97.164 94.211 97.164C95.043 97.164 95.807 97.36 96.503 97.752C97.207 98.144 97.767 98.668 98.183 99.324C98.607 98.668 99.167 98.144 99.863 97.752C100.559 97.36 101.323 97.164 102.155 97.164C103.035 97.164 103.831 97.38 104.543 97.812C105.263 98.236 105.835 98.808 106.259 99.528C106.691 100.24 106.907 101.036 106.907 101.916V109.5H103.979V102.696C103.979 102.232 103.863 101.808 103.631 101.424C103.407 101.032 103.103 100.72 102.719 100.488C102.343 100.248 101.919 100.128 101.447 100.128C100.975 100.128 100.547 100.244 100.163 100.476C99.787 100.7 99.483 101.004 99.251 101.388C99.019 101.772 98.903 102.208 98.903 102.696V109.5H95.975V102.696C95.975 102.208 95.863 101.772 95.639 101.388C95.415 101.004 95.111 100.7 94.727 100.476C94.343 100.244 93.915 100.128 93.443 100.128C92.979 100.128 92.555 100.248 92.171 100.488C91.787 100.72 91.479 101.032 91.247 101.424C91.023 101.808 90.911 102.232 90.911 102.696V109.5H87.983ZM109.311 97.5H112.239V109.5H109.311V97.5ZM110.799 95.952C110.367 95.952 110.003 95.812 109.707 95.532C109.411 95.244 109.263 94.884 109.263 94.452C109.263 94.028 109.411 93.672 109.707 93.384C110.003 93.096 110.363 92.952 110.787 92.952C111.211 92.952 111.567 93.096 111.855 93.384C112.151 93.672 112.299 94.028 112.299 94.452C112.299 94.884 112.155 95.244 111.867 95.532C111.579 95.812 111.223 95.952 110.799 95.952ZM120.122 109.812C119.018 109.812 118.01 109.528 117.098 108.96C116.194 108.392 115.47 107.628 114.926 106.668C114.39 105.708 114.122 104.648 114.122 103.488C114.122 102.616 114.278 101.8 114.59 101.04C114.902 100.272 115.33 99.6 115.874 99.024C116.426 98.44 117.066 97.984 117.794 97.656C118.522 97.328 119.298 97.164 120.122 97.164C121.058 97.164 121.914 97.364 122.69 97.764C123.474 98.156 124.138 98.696 124.682 99.384C125.226 100.072 125.622 100.856 125.87 101.736C126.118 102.616 126.174 103.536 126.038 104.496H117.266C117.378 104.944 117.562 105.348 117.818 105.708C118.074 106.06 118.398 106.344 118.79 106.56C119.182 106.768 119.626 106.876 120.122 106.884C120.634 106.892 121.098 106.772 121.514 106.524C121.938 106.268 122.29 105.924 122.57 105.492L125.558 106.188C125.07 107.252 124.342 108.124 123.374 108.804C122.406 109.476 121.322 109.812 120.122 109.812ZM117.17 102.3H123.074C122.986 101.82 122.798 101.388 122.51 101.004C122.23 100.612 121.882 100.3 121.466 100.068C121.05 99.836 120.602 99.72 120.122 99.72C119.642 99.72 119.198 99.836 118.79 100.068C118.382 100.292 118.034 100.6 117.746 100.992C117.466 101.376 117.274 101.812 117.17 102.3Z" fill="#2D2D2D"/>
<path d="M271.946 103.156C271.434 103.156 270.984 103.044 270.596 102.82C270.208 102.592 269.904 102.288 269.684 101.908C269.468 101.528 269.36 101.108 269.36 100.648H270.2C270.2 100.952 270.27 101.232 270.41 101.488C270.554 101.74 270.756 101.942 271.016 102.094C271.276 102.242 271.586 102.316 271.946 102.316C272.25 102.316 272.534 102.242 272.798 102.094C273.066 101.942 273.282 101.74 273.446 101.488C273.614 101.232 273.698 100.952 273.698 100.648C273.698 100.268 273.602 99.952 273.41 99.7C273.218 99.444 272.954 99.254 272.618 99.13C272.282 99.002 271.898 98.938 271.466 98.938V98.242C272.062 98.242 272.54 98.116 272.9 97.864C273.264 97.608 273.446 97.234 273.446 96.742C273.446 96.474 273.372 96.23 273.224 96.01C273.08 95.79 272.89 95.614 272.654 95.482C272.422 95.346 272.172 95.278 271.904 95.278C271.636 95.278 271.378 95.346 271.13 95.482C270.886 95.614 270.686 95.79 270.53 96.01C270.378 96.23 270.302 96.474 270.302 96.742H269.462C269.462 96.426 269.528 96.13 269.66 95.854C269.792 95.574 269.972 95.328 270.2 95.116C270.428 94.904 270.688 94.738 270.98 94.618C271.272 94.498 271.578 94.438 271.898 94.438C272.318 94.438 272.708 94.542 273.068 94.75C273.432 94.958 273.726 95.236 273.95 95.584C274.174 95.932 274.286 96.318 274.286 96.742C274.286 97.154 274.18 97.526 273.968 97.858C273.756 98.19 273.47 98.424 273.11 98.56C273.422 98.664 273.684 98.822 273.896 99.034C274.108 99.242 274.268 99.484 274.376 99.76C274.484 100.036 274.538 100.332 274.538 100.648C274.538 101.108 274.418 101.528 274.178 101.908C273.938 102.288 273.62 102.592 273.224 102.82C272.832 103.044 272.406 103.156 271.946 103.156ZM277.409 103.114C277.081 103.106 276.761 103.046 276.449 102.934C276.137 102.822 275.865 102.67 275.633 102.478C275.401 102.286 275.235 102.068 275.135 101.824L275.861 101.512C275.925 101.668 276.043 101.812 276.215 101.944C276.391 102.072 276.591 102.176 276.815 102.256C277.039 102.332 277.261 102.37 277.481 102.37C277.725 102.37 277.953 102.33 278.165 102.25C278.377 102.17 278.549 102.056 278.681 101.908C278.817 101.756 278.885 101.578 278.885 101.374C278.885 101.154 278.813 100.982 278.669 100.858C278.525 100.73 278.343 100.63 278.123 100.558C277.903 100.482 277.677 100.41 277.445 100.342C277.021 100.226 276.647 100.098 276.323 99.958C275.999 99.818 275.745 99.64 275.561 99.424C275.381 99.204 275.291 98.922 275.291 98.578C275.291 98.214 275.393 97.9 275.597 97.636C275.805 97.368 276.075 97.162 276.407 97.018C276.743 96.87 277.101 96.796 277.481 96.796C277.969 96.796 278.413 96.902 278.813 97.114C279.217 97.326 279.509 97.608 279.689 97.96L279.011 98.362C278.939 98.198 278.825 98.056 278.669 97.936C278.513 97.816 278.335 97.722 278.135 97.654C277.939 97.586 277.739 97.55 277.535 97.546C277.279 97.542 277.041 97.58 276.821 97.66C276.601 97.736 276.423 97.85 276.287 98.002C276.155 98.154 276.089 98.34 276.089 98.56C276.089 98.78 276.155 98.948 276.287 99.064C276.419 99.176 276.597 99.268 276.821 99.34C277.049 99.408 277.305 99.488 277.589 99.58C277.953 99.696 278.295 99.828 278.615 99.976C278.935 100.124 279.193 100.308 279.389 100.528C279.585 100.748 279.681 101.026 279.677 101.362C279.677 101.722 279.569 102.036 279.353 102.304C279.137 102.572 278.857 102.778 278.513 102.922C278.169 103.062 277.801 103.126 277.409 103.114ZM288.406 97H289.246V103H288.406L288.376 101.884C288.18 102.264 287.906 102.572 287.554 102.808C287.202 103.04 286.782 103.156 286.294 103.156C285.854 103.156 285.442 103.074 285.058 102.91C284.674 102.742 284.336 102.512 284.044 102.22C283.752 101.928 283.524 101.59 283.36 101.206C283.196 100.822 283.114 100.41 283.114 99.97C283.114 99.538 283.194 99.132 283.354 98.752C283.518 98.372 283.742 98.038 284.026 97.75C284.314 97.462 284.646 97.238 285.022 97.078C285.402 96.914 285.808 96.832 286.24 96.832C286.74 96.832 287.176 96.952 287.548 97.192C287.92 97.428 288.216 97.738 288.436 98.122L288.406 97ZM286.276 102.34C286.704 102.34 287.072 102.236 287.38 102.028C287.688 101.816 287.924 101.532 288.088 101.176C288.256 100.82 288.34 100.428 288.34 100C288.34 99.56 288.256 99.164 288.088 98.812C287.92 98.456 287.682 98.174 287.374 97.966C287.066 97.758 286.7 97.654 286.276 97.654C285.852 97.654 285.464 97.76 285.112 97.972C284.764 98.18 284.486 98.462 284.278 98.818C284.074 99.174 283.972 99.568 283.972 100C283.972 100.436 284.078 100.832 284.29 101.188C284.502 101.54 284.782 101.82 285.13 102.028C285.482 102.236 285.864 102.34 286.276 102.34ZM295.039 97H295.879V103.222C295.879 103.606 295.795 103.966 295.627 104.302C295.463 104.638 295.239 104.932 294.955 105.184C294.675 105.44 294.355 105.64 293.995 105.784C293.635 105.928 293.261 106 292.873 106C292.457 106 292.055 105.904 291.667 105.712C291.279 105.524 290.941 105.272 290.653 104.956C290.369 104.64 290.167 104.29 290.047 103.906L290.821 103.552C290.897 103.852 291.039 104.122 291.247 104.362C291.459 104.606 291.707 104.798 291.991 104.938C292.279 105.082 292.573 105.154 292.873 105.154C293.149 105.154 293.415 105.102 293.671 104.998C293.931 104.898 294.163 104.76 294.367 104.584C294.575 104.408 294.739 104.202 294.859 103.966C294.979 103.734 295.039 103.486 295.039 103.222V101.896C294.831 102.272 294.549 102.576 294.193 102.808C293.841 103.04 293.431 103.156 292.963 103.156C292.543 103.156 292.147 103.074 291.775 102.91C291.407 102.746 291.083 102.52 290.803 102.232C290.523 101.94 290.303 101.604 290.143 101.224C289.987 100.844 289.909 100.436 289.909 100C289.909 99.564 289.987 99.156 290.143 98.776C290.303 98.392 290.523 98.056 290.803 97.768C291.083 97.476 291.407 97.248 291.775 97.084C292.147 96.92 292.543 96.838 292.963 96.838C293.431 96.838 293.841 96.954 294.193 97.186C294.549 97.414 294.831 97.718 295.039 98.098V97ZM292.969 102.34C293.385 102.34 293.743 102.232 294.043 102.016C294.347 101.8 294.581 101.514 294.745 101.158C294.909 100.802 294.991 100.416 294.991 100C294.991 99.572 294.907 99.182 294.739 98.83C294.575 98.474 294.341 98.19 294.037 97.978C293.733 97.762 293.377 97.654 292.969 97.654C292.561 97.654 292.189 97.76 291.853 97.972C291.521 98.18 291.257 98.462 291.061 98.818C290.865 99.174 290.767 99.568 290.767 100C290.767 100.432 290.867 100.826 291.067 101.182C291.267 101.534 291.533 101.816 291.865 102.028C292.201 102.236 292.569 102.34 292.969 102.34ZM299.845 103.156C299.293 103.156 298.789 103.014 298.333 102.73C297.881 102.446 297.519 102.066 297.247 101.59C296.979 101.11 296.845 100.58 296.845 100C296.845 99.56 296.923 99.15 297.079 98.77C297.235 98.386 297.449 98.05 297.721 97.762C297.997 97.47 298.317 97.242 298.681 97.078C299.045 96.914 299.433 96.832 299.845 96.832C300.397 96.832 300.899 96.974 301.351 97.258C301.807 97.542 302.169 97.924 302.437 98.404C302.709 98.884 302.845 99.416 302.845 100C302.845 100.436 302.767 100.844 302.611 101.224C302.455 101.604 302.239 101.94 301.963 102.232C301.691 102.52 301.373 102.746 301.009 102.91C300.649 103.074 300.261 103.156 299.845 103.156ZM299.845 102.316C300.253 102.316 300.619 102.21 300.943 101.998C301.271 101.782 301.529 101.498 301.717 101.146C301.909 100.794 302.005 100.412 302.005 100C302.005 99.58 301.909 99.194 301.717 98.842C301.525 98.486 301.265 98.202 300.937 97.99C300.613 97.778 300.249 97.672 299.845 97.672C299.437 97.672 299.069 97.78 298.741 97.996C298.417 98.208 298.159 98.49 297.967 98.842C297.779 99.194 297.685 99.58 297.685 100C297.685 100.432 297.783 100.824 297.979 101.176C298.175 101.524 298.437 101.802 298.765 102.01C299.093 102.214 299.453 102.316 299.845 102.316Z" fill="#A8A29E"/>
<path d="M45.846 125.7H47.001L43.697 131.062V135.5H42.717V131.062L39.42 125.7H40.575L43.207 129.991L45.846 125.7ZM50.2208 135.682C49.5768 135.682 48.9888 135.516 48.4568 135.185C47.9294 134.854 47.5071 134.41 47.1898 133.855C46.8771 133.295 46.7208 132.677 46.7208 132C46.7208 131.487 46.8118 131.008 46.9938 130.565C47.1758 130.117 47.4254 129.725 47.7428 129.389C48.0648 129.048 48.4381 128.782 48.8628 128.591C49.2874 128.4 49.7401 128.304 50.2208 128.304C50.8648 128.304 51.4504 128.47 51.9778 128.801C52.5098 129.132 52.9321 129.578 53.2448 130.138C53.5621 130.698 53.7208 131.319 53.7208 132C53.7208 132.509 53.6298 132.985 53.4478 133.428C53.2658 133.871 53.0138 134.263 52.6918 134.604C52.3744 134.94 52.0034 135.204 51.5788 135.395C51.1588 135.586 50.7061 135.682 50.2208 135.682ZM50.2208 134.702C50.6968 134.702 51.1238 134.578 51.5018 134.331C51.8844 134.079 52.1854 133.748 52.4048 133.337C52.6288 132.926 52.7408 132.481 52.7408 132C52.7408 131.51 52.6288 131.06 52.4048 130.649C52.1808 130.234 51.8774 129.902 51.4948 129.655C51.1168 129.408 50.6921 129.284 50.2208 129.284C49.7448 129.284 49.3154 129.41 48.9328 129.662C48.5548 129.909 48.2538 130.238 48.0298 130.649C47.8104 131.06 47.7008 131.51 47.7008 132C47.7008 132.504 47.8151 132.961 48.0438 133.372C48.2724 133.778 48.5781 134.102 48.9608 134.345C49.3434 134.583 49.7634 134.702 50.2208 134.702ZM54.558 132.819V128.5H55.538V132.623C55.538 133.006 55.6314 133.353 55.818 133.666C56.0047 133.979 56.2544 134.228 56.567 134.415C56.8844 134.602 57.232 134.695 57.61 134.695C57.9927 134.695 58.338 134.602 58.646 134.415C58.9587 134.228 59.2084 133.979 59.395 133.666C59.5817 133.353 59.675 133.006 59.675 132.623V128.5H60.655L60.662 135.5H59.682L59.675 134.52C59.4277 134.875 59.1057 135.157 58.709 135.367C58.317 135.577 57.8877 135.682 57.421 135.682C56.8937 135.682 56.413 135.554 55.979 135.297C55.545 135.04 55.1997 134.695 54.943 134.261C54.6864 133.827 54.558 133.346 54.558 132.819ZM71.5241 131.167V135.5H70.5441V131.363C70.5441 130.98 70.4507 130.633 70.2641 130.32C70.0774 130.007 69.8277 129.758 69.5151 129.571C69.2024 129.384 68.8547 129.291 68.4721 129.291C68.0941 129.291 67.7464 129.384 67.4291 129.571C67.1164 129.758 66.8667 130.007 66.6801 130.32C66.4934 130.633 66.4001 130.98 66.4001 131.363V135.5H65.4201V125H66.4001V129.466C66.6474 129.111 66.9694 128.829 67.3661 128.619C67.7627 128.409 68.1944 128.304 68.6611 128.304C69.1884 128.304 69.6691 128.432 70.1031 128.689C70.5371 128.946 70.8824 129.291 71.1391 129.725C71.3957 130.159 71.5241 130.64 71.5241 131.167ZM78.5432 128.5H79.5232V135.5H78.5432L78.5082 134.198C78.2796 134.641 77.9599 135.001 77.5492 135.276C77.1386 135.547 76.6486 135.682 76.0792 135.682C75.5659 135.682 75.0852 135.586 74.6372 135.395C74.1892 135.199 73.7949 134.931 73.4542 134.59C73.1136 134.249 72.8476 133.855 72.6562 133.407C72.4649 132.959 72.3692 132.478 72.3692 131.965C72.3692 131.461 72.4626 130.987 72.6492 130.544C72.8406 130.101 73.1019 129.711 73.4332 129.375C73.7692 129.039 74.1566 128.778 74.5952 128.591C75.0386 128.4 75.5122 128.304 76.0162 128.304C76.5996 128.304 77.1082 128.444 77.5422 128.724C77.9762 128.999 78.3216 129.361 78.5782 129.809L78.5432 128.5ZM76.0582 134.73C76.5576 134.73 76.9869 134.609 77.3462 134.366C77.7056 134.119 77.9809 133.787 78.1722 133.372C78.3682 132.957 78.4662 132.499 78.4662 132C78.4662 131.487 78.3682 131.025 78.1722 130.614C77.9762 130.199 77.6986 129.87 77.3392 129.627C76.9799 129.384 76.5529 129.263 76.0582 129.263C75.5636 129.263 75.1109 129.387 74.7002 129.634C74.2942 129.877 73.9699 130.206 73.7272 130.621C73.4892 131.036 73.3702 131.496 73.3702 132C73.3702 132.509 73.4939 132.971 73.7412 133.386C73.9886 133.797 74.3152 134.123 74.7212 134.366C75.1319 134.609 75.5776 134.73 76.0582 134.73ZM84.1683 135.5H82.9223L80.3673 128.479H81.4103L83.5453 134.352L85.6803 128.479H86.7233L84.1683 135.5ZM90.6895 135.682C90.0455 135.682 89.4575 135.516 88.9255 135.185C88.3982 134.854 87.9759 134.41 87.6585 133.855C87.3459 133.295 87.1895 132.677 87.1895 132C87.1895 131.487 87.2805 131.008 87.4625 130.565C87.6445 130.117 87.8942 129.725 88.2115 129.389C88.5335 129.048 88.9069 128.782 89.3315 128.591C89.7562 128.4 90.2089 128.304 90.6895 128.304C91.2075 128.304 91.6835 128.407 92.1175 128.612C92.5562 128.817 92.9319 129.104 93.2445 129.473C93.5619 129.842 93.7999 130.273 93.9585 130.768C94.1219 131.263 94.1895 131.797 94.1615 132.371H88.2255C88.2815 132.814 88.4215 133.211 88.6455 133.561C88.8742 133.911 89.1635 134.189 89.5135 134.394C89.8682 134.595 90.2602 134.697 90.6895 134.702C91.1562 134.702 91.5762 134.581 91.9495 134.338C92.3275 134.095 92.6309 133.762 92.8595 133.337L93.8535 133.568C93.5735 134.189 93.1512 134.697 92.5865 135.094C92.0219 135.486 91.3895 135.682 90.6895 135.682ZM88.1975 131.58H93.1745C93.1419 131.146 93.0089 130.749 92.7755 130.39C92.5469 130.026 92.2505 129.737 91.8865 129.522C91.5225 129.303 91.1235 129.193 90.6895 129.193C90.2555 129.193 89.8589 129.3 89.4995 129.515C89.1402 129.725 88.8462 130.012 88.6175 130.376C88.3889 130.735 88.2489 131.137 88.1975 131.58ZM104.547 128.5H105.527V135.5H104.547L104.512 134.198C104.283 134.641 103.964 135.001 103.553 135.276C103.142 135.547 102.652 135.682 102.083 135.682C101.57 135.682 101.089 135.586 100.641 135.395C100.193 135.199 99.7988 134.931 99.4581 134.59C99.1175 134.249 98.8515 133.855 98.6601 133.407C98.4688 132.959 98.3731 132.478 98.3731 131.965C98.3731 131.461 98.4665 130.987 98.6531 130.544C98.8445 130.101 99.1058 129.711 99.4371 129.375C99.7731 129.039 100.16 128.778 100.599 128.591C101.042 128.4 101.516 128.304 102.02 128.304C102.603 128.304 103.112 128.444 103.546 128.724C103.98 128.999 104.325 129.361 104.582 129.809L104.547 128.5ZM102.062 134.73C102.561 134.73 102.991 134.609 103.35 134.366C103.709 134.119 103.985 133.787 104.176 133.372C104.372 132.957 104.47 132.499 104.47 132C104.47 131.487 104.372 131.025 104.176 130.614C103.98 130.199 103.702 129.87 103.343 129.627C102.984 129.384 102.557 129.263 102.062 129.263C101.567 129.263 101.115 129.387 100.704 129.634C100.298 129.877 99.9738 130.206 99.7311 130.621C99.4931 131.036 99.3741 131.496 99.3741 132C99.3741 132.509 99.4978 132.971 99.7451 133.386C99.9925 133.797 100.319 134.123 100.725 134.366C101.136 134.609 101.581 134.73 102.062 134.73ZM113.032 131.167V135.5H112.052V131.363C112.052 130.98 111.959 130.633 111.772 130.32C111.585 130.007 111.336 129.758 111.023 129.571C110.71 129.384 110.363 129.291 109.98 129.291C109.602 129.291 109.254 129.384 108.937 129.571C108.624 129.758 108.375 130.007 108.188 130.32C108.001 130.633 107.908 130.98 107.908 131.363V135.5H106.928V128.5H107.908V129.466C108.155 129.111 108.477 128.829 108.874 128.619C109.271 128.409 109.702 128.304 110.169 128.304C110.696 128.304 111.177 128.432 111.611 128.689C112.045 128.946 112.39 129.291 112.647 129.725C112.904 130.159 113.032 130.64 113.032 131.167ZM117.517 132.819V128.5H118.497V132.623C118.497 133.006 118.59 133.353 118.777 133.666C118.964 133.979 119.213 134.228 119.526 134.415C119.843 134.602 120.191 134.695 120.569 134.695C120.952 134.695 121.297 134.602 121.605 134.415C121.918 134.228 122.167 133.979 122.354 133.666C122.541 133.353 122.634 133.006 122.634 132.623V128.5H123.614L123.621 135.5H122.641L122.634 134.52C122.387 134.875 122.065 135.157 121.668 135.367C121.276 135.577 120.847 135.682 120.38 135.682C119.853 135.682 119.372 135.554 118.938 135.297C118.504 135.04 118.159 134.695 117.902 134.261C117.645 133.827 117.517 133.346 117.517 132.819ZM125.859 139H124.879V128.5H125.859V129.809C126.102 129.366 126.433 129.006 126.853 128.731C127.273 128.456 127.772 128.318 128.351 128.318C128.86 128.318 129.336 128.414 129.779 128.605C130.227 128.796 130.619 129.062 130.955 129.403C131.291 129.739 131.555 130.129 131.746 130.572C131.937 131.015 132.033 131.491 132.033 132C132.033 132.509 131.937 132.987 131.746 133.435C131.555 133.883 131.291 134.277 130.955 134.618C130.619 134.954 130.227 135.218 129.779 135.409C129.336 135.6 128.86 135.696 128.351 135.696C127.772 135.696 127.273 135.558 126.853 135.283C126.433 135.008 126.102 134.648 125.859 134.205V139ZM128.344 129.27C127.854 129.27 127.427 129.394 127.063 129.641C126.704 129.884 126.426 130.21 126.23 130.621C126.034 131.032 125.936 131.491 125.936 132C125.936 132.499 126.032 132.957 126.223 133.372C126.419 133.787 126.697 134.119 127.056 134.366C127.42 134.613 127.849 134.737 128.344 134.737C128.829 134.737 129.275 134.616 129.681 134.373C130.092 134.13 130.421 133.804 130.668 133.393C130.915 132.978 131.039 132.513 131.039 132C131.039 131.501 130.918 131.046 130.675 130.635C130.432 130.22 130.108 129.888 129.702 129.641C129.296 129.394 128.843 129.27 128.344 129.27ZM138.149 133.743L139.024 134.219C138.706 134.662 138.303 135.017 137.813 135.283C137.327 135.549 136.8 135.682 136.231 135.682C135.587 135.682 134.999 135.516 134.467 135.185C133.939 134.854 133.517 134.41 133.2 133.855C132.887 133.295 132.731 132.677 132.731 132C132.731 131.487 132.822 131.008 133.004 130.565C133.186 130.117 133.435 129.725 133.753 129.389C134.075 129.048 134.448 128.782 134.873 128.591C135.297 128.4 135.75 128.304 136.231 128.304C136.8 128.304 137.327 128.437 137.813 128.703C138.303 128.969 138.706 129.326 139.024 129.774L138.149 130.243C137.906 129.935 137.614 129.699 137.274 129.536C136.933 129.368 136.585 129.284 136.231 129.284C135.759 129.284 135.332 129.41 134.95 129.662C134.567 129.909 134.264 130.238 134.04 130.649C133.82 131.06 133.711 131.51 133.711 132C133.711 132.49 133.823 132.94 134.047 133.351C134.275 133.762 134.581 134.091 134.964 134.338C135.346 134.581 135.769 134.702 136.231 134.702C136.613 134.702 136.973 134.613 137.309 134.436C137.645 134.259 137.925 134.028 138.149 133.743ZM143.272 135.682C142.628 135.682 142.04 135.516 141.508 135.185C140.98 134.854 140.558 134.41 140.241 133.855C139.928 133.295 139.772 132.677 139.772 132C139.772 131.487 139.863 131.008 140.045 130.565C140.227 130.117 140.476 129.725 140.794 129.389C141.116 129.048 141.489 128.782 141.914 128.591C142.338 128.4 142.791 128.304 143.272 128.304C143.916 128.304 144.501 128.47 145.029 128.801C145.561 129.132 145.983 129.578 146.296 130.138C146.613 130.698 146.772 131.319 146.772 132C146.772 132.509 146.681 132.985 146.499 133.428C146.317 133.871 146.065 134.263 145.743 134.604C145.425 134.94 145.054 135.204 144.63 135.395C144.21 135.586 143.757 135.682 143.272 135.682ZM143.272 134.702C143.748 134.702 144.175 134.578 144.553 134.331C144.935 134.079 145.236 133.748 145.456 133.337C145.68 132.926 145.792 132.481 145.792 132C145.792 131.51 145.68 131.06 145.456 130.649C145.232 130.234 144.928 129.902 144.546 129.655C144.168 129.408 143.743 129.284 143.272 129.284C142.796 129.284 142.366 129.41 141.984 129.662C141.606 129.909 141.305 130.238 141.081 130.649C140.861 131.06 140.752 131.51 140.752 132C140.752 132.504 140.866 132.961 141.095 133.372C141.323 133.778 141.629 134.102 142.012 134.345C142.394 134.583 142.814 134.702 143.272 134.702ZM147.957 135.5V128.5H148.937V129.466C149.189 129.111 149.511 128.829 149.903 128.619C150.295 128.409 150.725 128.304 151.191 128.304C151.719 128.304 152.202 128.435 152.64 128.696C153.079 128.953 153.422 129.296 153.669 129.725C153.917 129.296 154.257 128.953 154.691 128.696C155.125 128.435 155.606 128.304 156.133 128.304C156.661 128.304 157.141 128.432 157.575 128.689C158.009 128.946 158.355 129.291 158.611 129.725C158.868 130.159 158.996 130.64 158.996 131.167V135.5H158.016V131.384C158.016 131.011 157.925 130.665 157.743 130.348C157.561 130.031 157.316 129.776 157.008 129.585C156.705 129.389 156.367 129.291 155.993 129.291C155.62 129.291 155.279 129.382 154.971 129.564C154.668 129.741 154.425 129.989 154.243 130.306C154.061 130.619 153.97 130.978 153.97 131.384V135.5H152.99V131.384C152.99 130.978 152.899 130.619 152.717 130.306C152.535 129.989 152.29 129.741 151.982 129.564C151.674 129.382 151.334 129.291 150.96 129.291C150.592 129.291 150.253 129.389 149.945 129.585C149.637 129.776 149.392 130.031 149.21 130.348C149.028 130.665 148.937 131.011 148.937 131.384V135.5H147.957ZM160.399 128.5H161.379V135.5H160.399V128.5ZM160.896 127.275C160.737 127.275 160.602 127.224 160.49 127.121C160.382 127.014 160.329 126.881 160.329 126.722C160.329 126.563 160.382 126.433 160.49 126.33C160.602 126.223 160.737 126.169 160.896 126.169C161.05 126.169 161.18 126.223 161.288 126.33C161.4 126.433 161.456 126.563 161.456 126.722C161.456 126.881 161.402 127.014 161.295 127.121C161.187 127.224 161.054 127.275 160.896 127.275ZM169.141 131.167V135.5H168.161V131.363C168.161 130.98 168.068 130.633 167.881 130.32C167.695 130.007 167.445 129.758 167.132 129.571C166.82 129.384 166.472 129.291 166.089 129.291C165.711 129.291 165.364 129.384 165.046 129.571C164.734 129.758 164.484 130.007 164.297 130.32C164.111 130.633 164.017 130.98 164.017 131.363V135.5H163.037V128.5H164.017V129.466C164.265 129.111 164.587 128.829 164.983 128.619C165.38 128.409 165.812 128.304 166.278 128.304C166.806 128.304 167.286 128.432 167.72 128.689C168.154 128.946 168.5 129.291 168.756 129.725C169.013 130.159 169.141 130.64 169.141 131.167ZM175.971 128.5H176.951V135.759C176.951 136.207 176.853 136.627 176.657 137.019C176.466 137.411 176.205 137.754 175.873 138.048C175.547 138.347 175.173 138.58 174.753 138.748C174.333 138.916 173.897 139 173.444 139C172.959 139 172.49 138.888 172.037 138.664C171.585 138.445 171.19 138.151 170.854 137.782C170.523 137.413 170.287 137.005 170.147 136.557L171.05 136.144C171.139 136.494 171.305 136.809 171.547 137.089C171.795 137.374 172.084 137.598 172.415 137.761C172.751 137.929 173.094 138.013 173.444 138.013C173.766 138.013 174.077 137.952 174.375 137.831C174.679 137.714 174.949 137.553 175.187 137.348C175.43 137.143 175.621 136.902 175.761 136.627C175.901 136.356 175.971 136.067 175.971 135.759V134.212C175.729 134.651 175.4 135.005 174.984 135.276C174.574 135.547 174.095 135.682 173.549 135.682C173.059 135.682 172.597 135.586 172.163 135.395C171.734 135.204 171.356 134.94 171.029 134.604C170.703 134.263 170.446 133.871 170.259 133.428C170.077 132.985 169.986 132.509 169.986 132C169.986 131.491 170.077 131.015 170.259 130.572C170.446 130.124 170.703 129.732 171.029 129.396C171.356 129.055 171.734 128.789 172.163 128.598C172.597 128.407 173.059 128.311 173.549 128.311C174.095 128.311 174.574 128.446 174.984 128.717C175.4 128.983 175.729 129.338 175.971 129.781V128.5ZM173.556 134.73C174.042 134.73 174.459 134.604 174.809 134.352C175.164 134.1 175.437 133.766 175.628 133.351C175.82 132.936 175.915 132.485 175.915 132C175.915 131.501 175.817 131.046 175.621 130.635C175.43 130.22 175.157 129.888 174.802 129.641C174.448 129.389 174.032 129.263 173.556 129.263C173.08 129.263 172.646 129.387 172.254 129.634C171.867 129.877 171.559 130.206 171.33 130.621C171.102 131.036 170.987 131.496 170.987 132C170.987 132.504 171.104 132.964 171.337 133.379C171.571 133.79 171.881 134.119 172.268 134.366C172.66 134.609 173.09 134.73 173.556 134.73ZM182 135.5V128.5H182.98V129.466C183.232 129.111 183.554 128.829 183.946 128.619C184.338 128.409 184.767 128.304 185.234 128.304C185.761 128.304 186.244 128.435 186.683 128.696C187.122 128.953 187.465 129.296 187.712 129.725C187.959 129.296 188.3 128.953 188.734 128.696C189.168 128.435 189.649 128.304 190.176 128.304C190.703 128.304 191.184 128.432 191.618 128.689C192.052 128.946 192.397 129.291 192.654 129.725C192.911 130.159 193.039 130.64 193.039 131.167V135.5H192.059V131.384C192.059 131.011 191.968 130.665 191.786 130.348C191.604 130.031 191.359 129.776 191.051 129.585C190.748 129.389 190.409 129.291 190.036 129.291C189.663 129.291 189.322 129.382 189.014 129.564C188.711 129.741 188.468 129.989 188.286 130.306C188.104 130.619 188.013 130.978 188.013 131.384V135.5H187.033V131.384C187.033 130.978 186.942 130.619 186.76 130.306C186.578 129.989 186.333 129.741 186.025 129.564C185.717 129.382 185.376 129.291 185.003 129.291C184.634 129.291 184.296 129.389 183.988 129.585C183.68 129.776 183.435 130.031 183.253 130.348C183.071 130.665 182.98 131.011 182.98 131.384V135.5H182ZM194.442 128.5H195.422V135.5H194.442V128.5ZM194.939 127.275C194.78 127.275 194.645 127.224 194.533 127.121C194.425 127.014 194.372 126.881 194.372 126.722C194.372 126.563 194.425 126.433 194.533 126.33C194.645 126.223 194.78 126.169 194.939 126.169C195.093 126.169 195.223 126.223 195.331 126.33C195.443 126.433 195.499 126.563 195.499 126.722C195.499 126.881 195.445 127.014 195.338 127.121C195.23 127.224 195.097 127.275 194.939 127.275ZM203.184 131.167V135.5H202.204V131.363C202.204 130.98 202.111 130.633 201.924 130.32C201.738 130.007 201.488 129.758 201.175 129.571C200.863 129.384 200.515 129.291 200.132 129.291C199.754 129.291 199.407 129.384 199.089 129.571C198.777 129.758 198.527 130.007 198.34 130.32C198.154 130.633 198.06 130.98 198.06 131.363V135.5H197.08V128.5H198.06V129.466C198.308 129.111 198.63 128.829 199.026 128.619C199.423 128.409 199.855 128.304 200.321 128.304C200.849 128.304 201.329 128.432 201.763 128.689C202.197 128.946 202.543 129.291 202.799 129.725C203.056 130.159 203.184 130.64 203.184 131.167ZM210.21 125H211.19V135.5H210.21V134.191C209.968 134.639 209.634 135.001 209.209 135.276C208.789 135.547 208.29 135.682 207.711 135.682C207.203 135.682 206.727 135.586 206.283 135.395C205.84 135.204 205.448 134.94 205.107 134.604C204.771 134.263 204.508 133.871 204.316 133.428C204.125 132.985 204.029 132.509 204.029 132C204.029 131.491 204.125 131.015 204.316 130.572C204.508 130.124 204.771 129.732 205.107 129.396C205.448 129.055 205.84 128.789 206.283 128.598C206.727 128.407 207.203 128.311 207.711 128.311C208.29 128.311 208.789 128.449 209.209 128.724C209.634 128.995 209.968 129.352 210.21 129.795V125ZM207.718 134.73C208.218 134.73 208.647 134.609 209.006 134.366C209.366 134.119 209.641 133.787 209.832 133.372C210.028 132.957 210.126 132.499 210.126 132C210.126 131.487 210.028 131.025 209.832 130.614C209.636 130.199 209.359 129.87 208.999 129.627C208.64 129.384 208.213 129.263 207.718 129.263C207.224 129.263 206.773 129.387 206.367 129.634C205.961 129.877 205.637 130.206 205.394 130.621C205.152 131.036 205.03 131.496 205.03 132C205.03 132.509 205.154 132.971 205.401 133.386C205.649 133.797 205.975 134.123 206.381 134.366C206.792 134.609 207.238 134.73 207.718 134.73ZM214.32 126.673V128.5H216.42V129.48H214.32V135.5H213.34V129.48H212.381V128.5H213.34V126.673C213.34 126.332 213.422 126.024 213.585 125.749C213.753 125.469 213.977 125.247 214.257 125.084C214.537 124.916 214.848 124.832 215.188 124.832C215.436 124.832 215.674 124.881 215.902 124.979C216.136 125.077 216.343 125.222 216.525 125.413L215.825 126.106C215.751 126.013 215.655 125.94 215.538 125.889C215.426 125.838 215.31 125.812 215.188 125.812C214.95 125.812 214.745 125.896 214.572 126.064C214.404 126.232 214.32 126.435 214.32 126.673ZM217.458 132.819V128.5H218.438V132.623C218.438 133.006 218.532 133.353 218.718 133.666C218.905 133.979 219.155 134.228 219.467 134.415C219.785 134.602 220.132 134.695 220.51 134.695C220.893 134.695 221.238 134.602 221.546 134.415C221.859 134.228 222.109 133.979 222.295 133.666C222.482 133.353 222.575 133.006 222.575 132.623V128.5H223.555L223.562 135.5H222.582L222.575 134.52C222.328 134.875 222.006 135.157 221.609 135.367C221.217 135.577 220.788 135.682 220.321 135.682C219.794 135.682 219.313 135.554 218.879 135.297C218.445 135.04 218.1 134.695 217.843 134.261C217.587 133.827 217.458 133.346 217.458 132.819ZM225.053 135.5V125H226.033V135.5H225.053ZM233.823 131.167V135.5H232.843V131.363C232.843 130.98 232.75 130.633 232.563 130.32C232.376 130.007 232.127 129.758 231.814 129.571C231.501 129.384 231.154 129.291 230.771 129.291C230.393 129.291 230.045 129.384 229.728 129.571C229.415 129.758 229.166 130.007 228.979 130.32C228.792 130.633 228.699 130.98 228.699 131.363V135.5H227.719V128.5H228.699V129.466C228.946 129.111 229.268 128.829 229.665 128.619C230.062 128.409 230.493 128.304 230.96 128.304C231.487 128.304 231.968 128.432 232.402 128.689C232.836 128.946 233.181 129.291 233.438 129.725C233.695 130.159 233.823 130.64 233.823 131.167ZM238.168 135.682C237.524 135.682 236.936 135.516 236.404 135.185C235.877 134.854 235.454 134.41 235.137 133.855C234.824 133.295 234.668 132.677 234.668 132C234.668 131.487 234.759 131.008 234.941 130.565C235.123 130.117 235.373 129.725 235.69 129.389C236.012 129.048 236.385 128.782 236.81 128.591C237.235 128.4 237.687 128.304 238.168 128.304C238.686 128.304 239.162 128.407 239.596 128.612C240.035 128.817 240.41 129.104 240.723 129.473C241.04 129.842 241.278 130.273 241.437 130.768C241.6 131.263 241.668 131.797 241.64 132.371H235.704C235.76 132.814 235.9 133.211 236.124 133.561C236.353 133.911 236.642 134.189 236.992 134.394C237.347 134.595 237.739 134.697 238.168 134.702C238.635 134.702 239.055 134.581 239.428 134.338C239.806 134.095 240.109 133.762 240.338 133.337L241.332 133.568C241.052 134.189 240.63 134.697 240.065 135.094C239.5 135.486 238.868 135.682 238.168 135.682ZM235.676 131.58H240.653C240.62 131.146 240.487 130.749 240.254 130.39C240.025 130.026 239.729 129.737 239.365 129.522C239.001 129.303 238.602 129.193 238.168 129.193C237.734 129.193 237.337 129.3 236.978 129.515C236.619 129.725 236.325 130.012 236.096 130.376C235.867 130.735 235.727 131.137 235.676 131.58ZM245.017 135.633C244.634 135.624 244.261 135.554 243.897 135.423C243.533 135.292 243.215 135.115 242.945 134.891C242.674 134.667 242.48 134.413 242.364 134.128L243.211 133.764C243.285 133.946 243.423 134.114 243.624 134.268C243.829 134.417 244.062 134.539 244.324 134.632C244.585 134.721 244.844 134.765 245.101 134.765C245.385 134.765 245.651 134.718 245.899 134.625C246.146 134.532 246.347 134.399 246.501 134.226C246.659 134.049 246.739 133.841 246.739 133.603C246.739 133.346 246.655 133.146 246.487 133.001C246.319 132.852 246.106 132.735 245.85 132.651C245.593 132.562 245.329 132.478 245.059 132.399C244.564 132.264 244.128 132.114 243.75 131.951C243.372 131.788 243.075 131.58 242.861 131.328C242.651 131.071 242.546 130.742 242.546 130.341C242.546 129.916 242.665 129.55 242.903 129.242C243.145 128.929 243.46 128.689 243.848 128.521C244.24 128.348 244.657 128.262 245.101 128.262C245.67 128.262 246.188 128.386 246.655 128.633C247.126 128.88 247.467 129.209 247.677 129.62L246.886 130.089C246.802 129.898 246.669 129.732 246.487 129.592C246.305 129.452 246.097 129.342 245.864 129.263C245.635 129.184 245.402 129.142 245.164 129.137C244.865 129.132 244.587 129.177 244.331 129.27C244.074 129.359 243.866 129.492 243.708 129.669C243.554 129.846 243.477 130.063 243.477 130.32C243.477 130.577 243.554 130.773 243.708 130.908C243.862 131.039 244.069 131.146 244.331 131.23C244.597 131.309 244.895 131.403 245.227 131.51C245.651 131.645 246.05 131.799 246.424 131.972C246.797 132.145 247.098 132.359 247.327 132.616C247.555 132.873 247.667 133.197 247.663 133.589C247.663 134.009 247.537 134.375 247.285 134.688C247.033 135.001 246.706 135.241 246.305 135.409C245.903 135.572 245.474 135.647 245.017 135.633ZM251.032 135.633C250.65 135.624 250.276 135.554 249.912 135.423C249.548 135.292 249.231 135.115 248.96 134.891C248.69 134.667 248.496 134.413 248.379 134.128L249.226 133.764C249.301 133.946 249.439 134.114 249.639 134.268C249.845 134.417 250.078 134.539 250.339 134.632C250.601 134.721 250.86 134.765 251.116 134.765C251.401 134.765 251.667 134.718 251.914 134.625C252.162 134.532 252.362 134.399 252.516 134.226C252.675 134.049 252.754 133.841 252.754 133.603C252.754 133.346 252.67 133.146 252.502 133.001C252.334 132.852 252.122 132.735 251.865 132.651C251.609 132.562 251.345 132.478 251.074 132.399C250.58 132.264 250.143 132.114 249.765 131.951C249.387 131.788 249.091 131.58 248.876 131.328C248.666 131.071 248.561 130.742 248.561 130.341C248.561 129.916 248.68 129.55 248.918 129.242C249.161 128.929 249.476 128.689 249.863 128.521C250.255 128.348 250.673 128.262 251.116 128.262C251.686 128.262 252.204 128.386 252.67 128.633C253.142 128.88 253.482 129.209 253.692 129.62L252.901 130.089C252.817 129.898 252.684 129.732 252.502 129.592C252.32 129.452 252.113 129.342 251.879 129.263C251.651 129.184 251.417 129.142 251.179 129.137C250.881 129.132 250.603 129.177 250.346 129.27C250.09 129.359 249.882 129.492 249.723 129.669C249.569 129.846 249.492 130.063 249.492 130.32C249.492 130.577 249.569 130.773 249.723 130.908C249.877 131.039 250.085 131.146 250.346 131.23C250.612 131.309 250.911 131.403 251.242 131.51C251.667 131.645 252.066 131.799 252.439 131.972C252.813 132.145 253.114 132.359 253.342 132.616C253.571 132.873 253.683 133.197 253.678 133.589C253.678 134.009 253.552 134.375 253.3 134.688C253.048 135.001 252.722 135.241 252.32 135.409C251.919 135.572 251.49 135.647 251.032 135.633ZM43.312 150.304C43.9933 150.304 44.6117 150.47 45.167 150.801C45.727 151.132 46.1727 151.578 46.504 152.138C46.8353 152.693 47.001 153.312 47.001 153.993C47.001 154.502 46.9053 154.98 46.714 155.428C46.5227 155.871 46.2567 156.263 45.916 156.604C45.58 156.94 45.188 157.204 44.74 157.395C44.2967 157.586 43.8207 157.682 43.312 157.682C42.7333 157.682 42.234 157.544 41.814 157.269C41.394 156.994 41.0627 156.634 40.82 156.191V157.5H39.84V147H40.82V151.795C41.0627 151.352 41.394 150.992 41.814 150.717C42.234 150.442 42.7333 150.304 43.312 150.304ZM43.305 156.723C43.8043 156.723 44.257 156.602 44.663 156.359C45.069 156.112 45.3933 155.78 45.636 155.365C45.8787 154.95 46 154.492 46 153.993C46 153.48 45.8763 153.018 45.629 152.607C45.3817 152.192 45.0527 151.863 44.642 151.62C44.236 151.377 43.7903 151.256 43.305 151.256C42.8103 151.256 42.381 151.38 42.017 151.627C41.6577 151.874 41.38 152.206 41.184 152.621C40.9927 153.036 40.897 153.494 40.897 153.993C40.897 154.502 40.995 154.964 41.191 155.379C41.387 155.79 41.6647 156.116 42.024 156.359C42.388 156.602 42.815 156.723 43.305 156.723ZM48.1935 157.5V150.5H49.1735V151.466C49.4208 151.111 49.7428 150.829 50.1395 150.619C50.5362 150.409 50.9678 150.304 51.4345 150.304C51.7052 150.304 51.9665 150.339 52.2185 150.409L51.8195 151.382C51.6235 151.321 51.4322 151.291 51.2455 151.291C50.8675 151.291 50.5198 151.384 50.2025 151.571C49.8898 151.758 49.6402 152.007 49.4535 152.32C49.2668 152.633 49.1735 152.98 49.1735 153.363V157.5H48.1935ZM55.8126 157.682C55.1686 157.682 54.5806 157.516 54.0486 157.185C53.5212 156.854 53.0989 156.41 52.7816 155.855C52.4689 155.295 52.3126 154.677 52.3126 154C52.3126 153.487 52.4036 153.008 52.5856 152.565C52.7676 152.117 53.0172 151.725 53.3346 151.389C53.6566 151.048 54.0299 150.782 54.4546 150.591C54.8792 150.4 55.3319 150.304 55.8126 150.304C56.3306 150.304 56.8066 150.407 57.2406 150.612C57.6792 150.817 58.0549 151.104 58.3676 151.473C58.6849 151.842 58.9229 152.273 59.0816 152.768C59.2449 153.263 59.3126 153.797 59.2846 154.371H53.3486C53.4046 154.814 53.5446 155.211 53.7686 155.561C53.9972 155.911 54.2866 156.189 54.6366 156.394C54.9912 156.595 55.3832 156.697 55.8126 156.702C56.2792 156.702 56.6992 156.581 57.0726 156.338C57.4506 156.095 57.7539 155.762 57.9826 155.337L58.9766 155.568C58.6966 156.189 58.2742 156.697 57.7096 157.094C57.1449 157.486 56.5126 157.682 55.8126 157.682ZM53.3206 153.58H58.2976C58.2649 153.146 58.1319 152.749 57.8986 152.39C57.6699 152.026 57.3736 151.737 57.0096 151.522C56.6456 151.303 56.2466 151.193 55.8126 151.193C55.3786 151.193 54.9819 151.3 54.6226 151.515C54.2632 151.725 53.9692 152.012 53.7406 152.376C53.5119 152.735 53.3719 153.137 53.3206 153.58ZM66.1702 150.5H67.1502V157.5H66.1702L66.1352 156.198C65.9065 156.641 65.5868 157.001 65.1762 157.276C64.7655 157.547 64.2755 157.682 63.7062 157.682C63.1928 157.682 62.7122 157.586 62.2642 157.395C61.8162 157.199 61.4218 156.931 61.0812 156.59C60.7405 156.249 60.4745 155.855 60.2832 155.407C60.0918 154.959 59.9962 154.478 59.9962 153.965C59.9962 153.461 60.0895 152.987 60.2762 152.544C60.4675 152.101 60.7288 151.711 61.0602 151.375C61.3962 151.039 61.7835 150.778 62.2222 150.591C62.6655 150.4 63.1392 150.304 63.6432 150.304C64.2265 150.304 64.7352 150.444 65.1692 150.724C65.6032 150.999 65.9485 151.361 66.2052 151.809L66.1702 150.5ZM63.6852 156.73C64.1845 156.73 64.6138 156.609 64.9732 156.366C65.3325 156.119 65.6078 155.787 65.7992 155.372C65.9952 154.957 66.0932 154.499 66.0932 154C66.0932 153.487 65.9952 153.025 65.7992 152.614C65.6032 152.199 65.3255 151.87 64.9662 151.627C64.6068 151.384 64.1798 151.263 63.6852 151.263C63.1905 151.263 62.7378 151.387 62.3272 151.634C61.9212 151.877 61.5968 152.206 61.3542 152.621C61.1162 153.036 60.9972 153.496 60.9972 154C60.9972 154.509 61.1208 154.971 61.3682 155.386C61.6155 155.797 61.9422 156.123 62.3482 156.366C62.7588 156.609 63.2045 156.73 63.6852 156.73ZM72.1279 151.48H70.4549L70.4479 157.5H69.4679L69.4749 151.48H68.2079V150.5H69.4749L69.4679 148.302H70.4479L70.4549 150.5H72.1279V151.48ZM79.4811 153.167V157.5H78.5011V153.363C78.5011 152.98 78.4078 152.633 78.2211 152.32C78.0344 152.007 77.7848 151.758 77.4721 151.571C77.1594 151.384 76.8118 151.291 76.4291 151.291C76.0511 151.291 75.7034 151.384 75.3861 151.571C75.0734 151.758 74.8238 152.007 74.6371 152.32C74.4504 152.633 74.3571 152.98 74.3571 153.363V157.5H73.3771V147H74.3571V151.466C74.6044 151.111 74.9264 150.829 75.3231 150.619C75.7198 150.409 76.1514 150.304 76.6181 150.304C77.1454 150.304 77.6261 150.432 78.0601 150.689C78.4941 150.946 78.8394 151.291 79.0961 151.725C79.3528 152.159 79.4811 152.64 79.4811 153.167ZM80.883 150.5H81.863V157.5H80.883V150.5ZM81.38 149.275C81.2213 149.275 81.086 149.224 80.974 149.121C80.8666 149.014 80.813 148.881 80.813 148.722C80.813 148.563 80.8666 148.433 80.974 148.33C81.086 148.223 81.2213 148.169 81.38 148.169C81.534 148.169 81.6646 148.223 81.772 148.33C81.884 148.433 81.94 148.563 81.94 148.722C81.94 148.881 81.8863 149.014 81.779 149.121C81.6716 149.224 81.5386 149.275 81.38 149.275ZM89.6256 153.167V157.5H88.6456V153.363C88.6456 152.98 88.5523 152.633 88.3656 152.32C88.179 152.007 87.9293 151.758 87.6166 151.571C87.304 151.384 86.9563 151.291 86.5736 151.291C86.1956 151.291 85.848 151.384 85.5306 151.571C85.218 151.758 84.9683 152.007 84.7816 152.32C84.595 152.633 84.5016 152.98 84.5016 153.363V157.5H83.5216V150.5H84.5016V151.466C84.749 151.111 85.071 150.829 85.4676 150.619C85.8643 150.409 86.296 150.304 86.7626 150.304C87.29 150.304 87.7706 150.432 88.2046 150.689C88.6386 150.946 88.984 151.291 89.2406 151.725C89.4973 152.159 89.6256 152.64 89.6256 153.167ZM96.4558 150.5H97.4358V157.759C97.4358 158.207 97.3378 158.627 97.1418 159.019C96.9504 159.411 96.6891 159.754 96.3578 160.048C96.0311 160.347 95.6578 160.58 95.2378 160.748C94.8178 160.916 94.3814 161 93.9288 161C93.4434 161 92.9744 160.888 92.5218 160.664C92.0691 160.445 91.6748 160.151 91.3388 159.782C91.0074 159.413 90.7718 159.005 90.6318 158.557L91.5348 158.144C91.6234 158.494 91.7891 158.809 92.0318 159.089C92.2791 159.374 92.5684 159.598 92.8998 159.761C93.2358 159.929 93.5788 160.013 93.9288 160.013C94.2508 160.013 94.5611 159.952 94.8598 159.831C95.1631 159.714 95.4338 159.553 95.6718 159.348C95.9144 159.143 96.1058 158.902 96.2458 158.627C96.3858 158.356 96.4558 158.067 96.4558 157.759V156.212C96.2131 156.651 95.8841 157.005 95.4688 157.276C95.0581 157.547 94.5798 157.682 94.0338 157.682C93.5438 157.682 93.0818 157.586 92.6478 157.395C92.2184 157.204 91.8404 156.94 91.5138 156.604C91.1871 156.263 90.9304 155.871 90.7438 155.428C90.5618 154.985 90.4708 154.509 90.4708 154C90.4708 153.491 90.5618 153.015 90.7438 152.572C90.9304 152.124 91.1871 151.732 91.5138 151.396C91.8404 151.055 92.2184 150.789 92.6478 150.598C93.0818 150.407 93.5438 150.311 94.0338 150.311C94.5798 150.311 95.0581 150.446 95.4688 150.717C95.8841 150.983 96.2131 151.338 96.4558 151.781V150.5ZM94.0408 156.73C94.5261 156.73 94.9438 156.604 95.2938 156.352C95.6484 156.1 95.9214 155.766 96.1128 155.351C96.3041 154.936 96.3998 154.485 96.3998 154C96.3998 153.501 96.3018 153.046 96.1058 152.635C95.9144 152.22 95.6414 151.888 95.2868 151.641C94.9321 151.389 94.5168 151.263 94.0408 151.263C93.5648 151.263 93.1308 151.387 92.7388 151.634C92.3514 151.877 92.0434 152.206 91.8148 152.621C91.5861 153.036 91.4718 153.496 91.4718 154C91.4718 154.504 91.5884 154.964 91.8218 155.379C92.0551 155.79 92.3654 156.119 92.7528 156.366C93.1448 156.609 93.5741 156.73 94.0408 156.73ZM104.648 157.633C104.265 157.624 103.892 157.554 103.528 157.423C103.164 157.292 102.846 157.115 102.576 156.891C102.305 156.667 102.111 156.413 101.995 156.128L102.842 155.764C102.916 155.946 103.054 156.114 103.255 156.268C103.46 156.417 103.693 156.539 103.955 156.632C104.216 156.721 104.475 156.765 104.732 156.765C105.016 156.765 105.282 156.718 105.53 156.625C105.777 156.532 105.978 156.399 106.132 156.226C106.29 156.049 106.37 155.841 106.37 155.603C106.37 155.346 106.286 155.146 106.118 155.001C105.95 154.852 105.737 154.735 105.481 154.651C105.224 154.562 104.96 154.478 104.69 154.399C104.195 154.264 103.759 154.114 103.381 153.951C103.003 153.788 102.706 153.58 102.492 153.328C102.282 153.071 102.177 152.742 102.177 152.341C102.177 151.916 102.296 151.55 102.534 151.242C102.776 150.929 103.091 150.689 103.479 150.521C103.871 150.348 104.288 150.262 104.732 150.262C105.301 150.262 105.819 150.386 106.286 150.633C106.757 150.88 107.098 151.209 107.308 151.62L106.517 152.089C106.433 151.898 106.3 151.732 106.118 151.592C105.936 151.452 105.728 151.342 105.495 151.263C105.266 151.184 105.033 151.142 104.795 151.137C104.496 151.132 104.218 151.177 103.962 151.27C103.705 151.359 103.497 151.492 103.339 151.669C103.185 151.846 103.108 152.063 103.108 152.32C103.108 152.577 103.185 152.773 103.339 152.908C103.493 153.039 103.7 153.146 103.962 153.23C104.228 153.309 104.526 153.403 104.858 153.51C105.282 153.645 105.681 153.799 106.055 153.972C106.428 154.145 106.729 154.359 106.958 154.616C107.186 154.873 107.298 155.197 107.294 155.589C107.294 156.009 107.168 156.375 106.916 156.688C106.664 157.001 106.337 157.241 105.936 157.409C105.534 157.572 105.105 157.647 104.648 157.633ZM111.525 157.682C110.881 157.682 110.293 157.516 109.761 157.185C109.234 156.854 108.812 156.41 108.494 155.855C108.182 155.295 108.025 154.677 108.025 154C108.025 153.487 108.116 153.008 108.298 152.565C108.48 152.117 108.73 151.725 109.047 151.389C109.369 151.048 109.743 150.782 110.167 150.591C110.592 150.4 111.045 150.304 111.525 150.304C112.043 150.304 112.519 150.407 112.953 150.612C113.392 150.817 113.768 151.104 114.08 151.473C114.398 151.842 114.636 152.273 114.794 152.768C114.958 153.263 115.025 153.797 114.997 154.371H109.061C109.117 154.814 109.257 155.211 109.481 155.561C109.71 155.911 109.999 156.189 110.349 156.394C110.704 156.595 111.096 156.697 111.525 156.702C111.992 156.702 112.412 156.581 112.785 156.338C113.163 156.095 113.467 155.762 113.695 155.337L114.689 155.568C114.409 156.189 113.987 156.697 113.422 157.094C112.858 157.486 112.225 157.682 111.525 157.682ZM109.033 153.58H114.01C113.978 153.146 113.845 152.749 113.611 152.39C113.383 152.026 113.086 151.737 112.722 151.522C112.358 151.303 111.959 151.193 111.525 151.193C111.091 151.193 110.695 151.3 110.335 151.515C109.976 151.725 109.682 152.012 109.453 152.376C109.225 152.735 109.085 153.137 109.033 153.58ZM118.374 157.633C117.991 157.624 117.618 157.554 117.254 157.423C116.89 157.292 116.573 157.115 116.302 156.891C116.031 156.667 115.838 156.413 115.721 156.128L116.568 155.764C116.643 155.946 116.78 156.114 116.981 156.268C117.186 156.417 117.42 156.539 117.681 156.632C117.942 156.721 118.201 156.765 118.458 156.765C118.743 156.765 119.009 156.718 119.256 156.625C119.503 156.532 119.704 156.399 119.858 156.226C120.017 156.049 120.096 155.841 120.096 155.603C120.096 155.346 120.012 155.146 119.844 155.001C119.676 154.852 119.464 154.735 119.207 154.651C118.95 154.562 118.687 154.478 118.416 154.399C117.921 154.264 117.485 154.114 117.107 153.951C116.729 153.788 116.433 153.58 116.218 153.328C116.008 153.071 115.903 152.742 115.903 152.341C115.903 151.916 116.022 151.55 116.26 151.242C116.503 150.929 116.818 150.689 117.205 150.521C117.597 150.348 118.015 150.262 118.458 150.262C119.027 150.262 119.545 150.386 120.012 150.633C120.483 150.88 120.824 151.209 121.034 151.62L120.243 152.089C120.159 151.898 120.026 151.732 119.844 151.592C119.662 151.452 119.454 151.342 119.221 151.263C118.992 151.184 118.759 151.142 118.521 151.137C118.222 151.132 117.945 151.177 117.688 151.27C117.431 151.359 117.224 151.492 117.065 151.669C116.911 151.846 116.834 152.063 116.834 152.32C116.834 152.577 116.911 152.773 117.065 152.908C117.219 153.039 117.427 153.146 117.688 153.23C117.954 153.309 118.253 153.403 118.584 153.51C119.009 153.645 119.408 153.799 119.781 153.972C120.154 154.145 120.455 154.359 120.684 154.616C120.913 154.873 121.025 155.197 121.02 155.589C121.02 156.009 120.894 156.375 120.642 156.688C120.39 157.001 120.063 157.241 119.662 157.409C119.261 157.572 118.831 157.647 118.374 157.633ZM124.39 157.633C124.007 157.624 123.634 157.554 123.27 157.423C122.906 157.292 122.588 157.115 122.318 156.891C122.047 156.667 121.853 156.413 121.737 156.128L122.584 155.764C122.658 155.946 122.796 156.114 122.997 156.268C123.202 156.417 123.435 156.539 123.697 156.632C123.958 156.721 124.217 156.765 124.474 156.765C124.758 156.765 125.024 156.718 125.272 156.625C125.519 156.532 125.72 156.399 125.874 156.226C126.032 156.049 126.112 155.841 126.112 155.603C126.112 155.346 126.028 155.146 125.86 155.001C125.692 154.852 125.479 154.735 125.223 154.651C124.966 154.562 124.702 154.478 124.432 154.399C123.937 154.264 123.501 154.114 123.123 153.951C122.745 153.788 122.448 153.58 122.234 153.328C122.024 153.071 121.919 152.742 121.919 152.341C121.919 151.916 122.038 151.55 122.276 151.242C122.518 150.929 122.833 150.689 123.221 150.521C123.613 150.348 124.03 150.262 124.474 150.262C125.043 150.262 125.561 150.386 126.028 150.633C126.499 150.88 126.84 151.209 127.05 151.62L126.259 152.089C126.175 151.898 126.042 151.732 125.86 151.592C125.678 151.452 125.47 151.342 125.237 151.263C125.008 151.184 124.775 151.142 124.537 151.137C124.238 151.132 123.96 151.177 123.704 151.27C123.447 151.359 123.239 151.492 123.081 151.669C122.927 151.846 122.85 152.063 122.85 152.32C122.85 152.577 122.927 152.773 123.081 152.908C123.235 153.039 123.442 153.146 123.704 153.23C123.97 153.309 124.268 153.403 124.6 153.51C125.024 153.645 125.423 153.799 125.797 153.972C126.17 154.145 126.471 154.359 126.7 154.616C126.928 154.873 127.04 155.197 127.036 155.589C127.036 156.009 126.91 156.375 126.658 156.688C126.406 157.001 126.079 157.241 125.678 157.409C125.276 157.572 124.847 157.647 124.39 157.633ZM128.174 150.5H129.154V157.5H128.174V150.5ZM128.671 149.275C128.512 149.275 128.377 149.224 128.265 149.121C128.158 149.014 128.104 148.881 128.104 148.722C128.104 148.563 128.158 148.433 128.265 148.33C128.377 148.223 128.512 148.169 128.671 148.169C128.825 148.169 128.956 148.223 129.063 148.33C129.175 148.433 129.231 148.563 129.231 148.722C129.231 148.881 129.177 149.014 129.07 149.121C128.963 149.224 128.83 149.275 128.671 149.275ZM133.852 157.682C133.208 157.682 132.62 157.516 132.088 157.185C131.56 156.854 131.138 156.41 130.821 155.855C130.508 155.295 130.352 154.677 130.352 154C130.352 153.487 130.443 153.008 130.625 152.565C130.807 152.117 131.056 151.725 131.374 151.389C131.696 151.048 132.069 150.782 132.494 150.591C132.918 150.4 133.371 150.304 133.852 150.304C134.496 150.304 135.081 150.47 135.609 150.801C136.141 151.132 136.563 151.578 136.876 152.138C137.193 152.698 137.352 153.319 137.352 154C137.352 154.509 137.261 154.985 137.079 155.428C136.897 155.871 136.645 156.263 136.323 156.604C136.005 156.94 135.634 157.204 135.21 157.395C134.79 157.586 134.337 157.682 133.852 157.682ZM133.852 156.702C134.328 156.702 134.755 156.578 135.133 156.331C135.515 156.079 135.816 155.748 136.036 155.337C136.26 154.926 136.372 154.481 136.372 154C136.372 153.51 136.26 153.06 136.036 152.649C135.812 152.234 135.508 151.902 135.126 151.655C134.748 151.408 134.323 151.284 133.852 151.284C133.376 151.284 132.946 151.41 132.564 151.662C132.186 151.909 131.885 152.238 131.661 152.649C131.441 153.06 131.332 153.51 131.332 154C131.332 154.504 131.446 154.961 131.675 155.372C131.903 155.778 132.209 156.102 132.592 156.345C132.974 156.583 133.394 156.702 133.852 156.702ZM144.641 153.167V157.5H143.661V153.363C143.661 152.98 143.568 152.633 143.381 152.32C143.195 152.007 142.945 151.758 142.632 151.571C142.32 151.384 141.972 151.291 141.589 151.291C141.211 151.291 140.864 151.384 140.546 151.571C140.234 151.758 139.984 152.007 139.797 152.32C139.611 152.633 139.517 152.98 139.517 153.363V157.5H138.537V150.5H139.517V151.466C139.765 151.111 140.087 150.829 140.483 150.619C140.88 150.409 141.312 150.304 141.778 150.304C142.306 150.304 142.786 150.432 143.22 150.689C143.654 150.946 144 151.291 144.256 151.725C144.513 152.159 144.641 152.64 144.641 153.167ZM149.406 150.5H150.386V157.5H149.406V150.5ZM149.903 149.275C149.745 149.275 149.609 149.224 149.497 149.121C149.39 149.014 149.336 148.881 149.336 148.722C149.336 148.563 149.39 148.433 149.497 148.33C149.609 148.223 149.745 148.169 149.903 148.169C150.057 148.169 150.188 148.223 150.295 148.33C150.407 148.433 150.463 148.563 150.463 148.722C150.463 148.881 150.41 149.014 150.302 149.121C150.195 149.224 150.062 149.275 149.903 149.275ZM158.149 153.167V157.5H157.169V153.363C157.169 152.98 157.076 152.633 156.889 152.32C156.702 152.007 156.453 151.758 156.14 151.571C155.827 151.384 155.48 151.291 155.097 151.291C154.719 151.291 154.371 151.384 154.054 151.571C153.741 151.758 153.492 152.007 153.305 152.32C153.118 152.633 153.025 152.98 153.025 153.363V157.5H152.045V150.5H153.025V151.466C153.272 151.111 153.594 150.829 153.991 150.619C154.388 150.409 154.819 150.304 155.286 150.304C155.813 150.304 156.294 150.432 156.728 150.689C157.162 150.946 157.507 151.291 157.764 151.725C158.021 152.159 158.149 152.64 158.149 153.167ZM165.651 157.682C165.059 157.682 164.524 157.542 164.048 157.262C163.572 156.982 163.194 156.606 162.914 156.135C162.634 155.659 162.494 155.132 162.494 154.553H164.202C164.202 154.814 164.263 155.052 164.384 155.267C164.51 155.482 164.683 155.654 164.902 155.785C165.122 155.911 165.371 155.974 165.651 155.974C165.908 155.974 166.146 155.911 166.365 155.785C166.589 155.654 166.769 155.482 166.904 155.267C167.04 155.052 167.107 154.814 167.107 154.553C167.107 154.212 167.016 153.93 166.834 153.706C166.652 153.477 166.398 153.307 166.071 153.195C165.749 153.083 165.374 153.027 164.944 153.027V151.711C165.523 151.711 165.98 151.601 166.316 151.382C166.657 151.163 166.827 150.841 166.827 150.416C166.827 150.197 166.771 149.996 166.659 149.814C166.547 149.632 166.398 149.487 166.211 149.38C166.029 149.268 165.829 149.212 165.609 149.212C165.385 149.212 165.168 149.268 164.958 149.38C164.748 149.487 164.576 149.632 164.44 149.814C164.31 149.996 164.244 150.197 164.244 150.416H162.536C162.536 150.015 162.618 149.639 162.781 149.289C162.945 148.934 163.169 148.624 163.453 148.358C163.743 148.092 164.069 147.884 164.433 147.735C164.802 147.581 165.187 147.504 165.588 147.504C166.116 147.504 166.603 147.635 167.051 147.896C167.499 148.157 167.859 148.507 168.129 148.946C168.4 149.385 168.535 149.875 168.535 150.416C168.535 150.794 168.447 151.165 168.269 151.529C168.092 151.893 167.84 152.15 167.513 152.299C167.798 152.402 168.036 152.574 168.227 152.817C168.419 153.055 168.563 153.328 168.661 153.636C168.764 153.939 168.815 154.245 168.815 154.553C168.815 155.127 168.671 155.652 168.381 156.128C168.092 156.599 167.707 156.977 167.226 157.262C166.75 157.542 166.225 157.682 165.651 157.682ZM173.473 157.682C172.904 157.682 172.386 157.551 171.919 157.29C171.453 157.024 171.049 156.658 170.708 156.191C170.372 155.724 170.113 155.185 169.931 154.574C169.749 153.958 169.658 153.3 169.658 152.6C169.658 151.9 169.749 151.244 169.931 150.633C170.113 150.017 170.372 149.476 170.708 149.009C171.049 148.542 171.453 148.178 171.919 147.917C172.386 147.651 172.904 147.518 173.473 147.518C174.043 147.518 174.561 147.651 175.027 147.917C175.494 148.178 175.893 148.542 176.224 149.009C176.56 149.476 176.819 150.017 177.001 150.633C177.188 151.244 177.281 151.9 177.281 152.6C177.281 153.3 177.188 153.958 177.001 154.574C176.819 155.185 176.56 155.724 176.224 156.191C175.893 156.658 175.494 157.024 175.027 157.29C174.561 157.551 174.043 157.682 173.473 157.682ZM173.473 155.974C173.973 155.974 174.386 155.815 174.712 155.498C175.039 155.181 175.282 154.765 175.44 154.252C175.599 153.739 175.678 153.188 175.678 152.6C175.678 151.979 175.594 151.415 175.426 150.906C175.258 150.393 175.011 149.984 174.684 149.681C174.358 149.378 173.954 149.226 173.473 149.226C173.095 149.226 172.766 149.319 172.486 149.506C172.211 149.688 171.982 149.938 171.8 150.255C171.618 150.572 171.483 150.934 171.394 151.34C171.306 151.741 171.261 152.161 171.261 152.6C171.261 153.183 171.341 153.734 171.499 154.252C171.663 154.765 171.908 155.181 172.234 155.498C172.566 155.815 172.979 155.974 173.473 155.974ZM178.541 157.5V150.5H180.249V151.123C180.487 150.871 180.772 150.673 181.103 150.528C181.435 150.379 181.792 150.304 182.174 150.304C182.66 150.304 183.105 150.418 183.511 150.647C183.922 150.876 184.249 151.181 184.491 151.564C184.739 151.181 185.065 150.876 185.471 150.647C185.877 150.418 186.323 150.304 186.808 150.304C187.322 150.304 187.786 150.43 188.201 150.682C188.621 150.929 188.955 151.263 189.202 151.683C189.454 152.098 189.58 152.563 189.58 153.076V157.5H187.872V153.531C187.872 153.26 187.805 153.013 187.669 152.789C187.539 152.56 187.361 152.378 187.137 152.243C186.918 152.103 186.671 152.033 186.395 152.033C186.12 152.033 185.87 152.101 185.646 152.236C185.427 152.367 185.25 152.544 185.114 152.768C184.979 152.992 184.911 153.246 184.911 153.531V157.5H183.203V153.531C183.203 153.246 183.138 152.992 183.007 152.768C182.877 152.544 182.699 152.367 182.475 152.236C182.251 152.101 182.002 152.033 181.726 152.033C181.456 152.033 181.208 152.103 180.984 152.243C180.76 152.378 180.581 152.56 180.445 152.789C180.315 153.013 180.249 153.26 180.249 153.531V157.5H178.541ZM195.795 148.673V150.5H197.895V151.48H195.795V157.5H194.815V151.48H193.856V150.5H194.815V148.673C194.815 148.332 194.897 148.024 195.06 147.749C195.228 147.469 195.452 147.247 195.732 147.084C196.012 146.916 196.322 146.832 196.663 146.832C196.91 146.832 197.148 146.881 197.377 146.979C197.61 147.077 197.818 147.222 198 147.413L197.3 148.106C197.225 148.013 197.13 147.94 197.013 147.889C196.901 147.838 196.784 147.812 196.663 147.812C196.425 147.812 196.22 147.896 196.047 148.064C195.879 148.232 195.795 148.435 195.795 148.673ZM199.213 157.5V150.5H200.193V151.466C200.44 151.111 200.762 150.829 201.159 150.619C201.556 150.409 201.987 150.304 202.454 150.304C202.725 150.304 202.986 150.339 203.238 150.409L202.839 151.382C202.643 151.321 202.452 151.291 202.265 151.291C201.887 151.291 201.539 151.384 201.222 151.571C200.909 151.758 200.66 152.007 200.473 152.32C200.286 152.633 200.193 152.98 200.193 153.363V157.5H199.213ZM206.832 157.682C206.188 157.682 205.6 157.516 205.068 157.185C204.541 156.854 204.118 156.41 203.801 155.855C203.488 155.295 203.332 154.677 203.332 154C203.332 153.487 203.423 153.008 203.605 152.565C203.787 152.117 204.037 151.725 204.354 151.389C204.676 151.048 205.049 150.782 205.474 150.591C205.899 150.4 206.351 150.304 206.832 150.304C207.476 150.304 208.062 150.47 208.589 150.801C209.121 151.132 209.543 151.578 209.856 152.138C210.173 152.698 210.332 153.319 210.332 154C210.332 154.509 210.241 154.985 210.059 155.428C209.877 155.871 209.625 156.263 209.303 156.604C208.986 156.94 208.615 157.204 208.19 157.395C207.77 157.586 207.317 157.682 206.832 157.682ZM206.832 156.702C207.308 156.702 207.735 156.578 208.113 156.331C208.496 156.079 208.797 155.748 209.016 155.337C209.24 154.926 209.352 154.481 209.352 154C209.352 153.51 209.24 153.06 209.016 152.649C208.792 152.234 208.489 151.902 208.106 151.655C207.728 151.408 207.303 151.284 206.832 151.284C206.356 151.284 205.927 151.41 205.544 151.662C205.166 151.909 204.865 152.238 204.641 152.649C204.422 153.06 204.312 153.51 204.312 154C204.312 154.504 204.426 154.961 204.655 155.372C204.884 155.778 205.189 156.102 205.572 156.345C205.955 156.583 206.375 156.702 206.832 156.702ZM211.518 157.5V150.5H212.498V151.466C212.75 151.111 213.072 150.829 213.464 150.619C213.856 150.409 214.285 150.304 214.752 150.304C215.279 150.304 215.762 150.435 216.201 150.696C216.639 150.953 216.982 151.296 217.23 151.725C217.477 151.296 217.818 150.953 218.252 150.696C218.686 150.435 219.166 150.304 219.694 150.304C220.221 150.304 220.702 150.432 221.136 150.689C221.57 150.946 221.915 151.291 222.172 151.725C222.428 152.159 222.557 152.64 222.557 153.167V157.5H221.577V153.384C221.577 153.011 221.486 152.665 221.304 152.348C221.122 152.031 220.877 151.776 220.569 151.585C220.265 151.389 219.927 151.291 219.554 151.291C219.18 151.291 218.84 151.382 218.532 151.564C218.228 151.741 217.986 151.989 217.804 152.306C217.622 152.619 217.531 152.978 217.531 153.384V157.5H216.551V153.384C216.551 152.978 216.46 152.619 216.278 152.306C216.096 151.989 215.851 151.741 215.543 151.564C215.235 151.382 214.894 151.291 214.521 151.291C214.152 151.291 213.814 151.389 213.506 151.585C213.198 151.776 212.953 152.031 212.771 152.348C212.589 152.665 212.498 153.011 212.498 153.384V157.5H211.518ZM233.426 153.167V157.5H232.446V153.363C232.446 152.98 232.353 152.633 232.166 152.32C231.98 152.007 231.73 151.758 231.417 151.571C231.105 151.384 230.757 151.291 230.374 151.291C229.996 151.291 229.649 151.384 229.331 151.571C229.019 151.758 228.769 152.007 228.582 152.32C228.396 152.633 228.302 152.98 228.302 153.363V157.5H227.322V150.5H228.302V151.466C228.55 151.111 228.872 150.829 229.268 150.619C229.665 150.409 230.097 150.304 230.563 150.304C231.091 150.304 231.571 150.432 232.005 150.689C232.439 150.946 232.785 151.291 233.041 151.725C233.298 152.159 233.426 152.64 233.426 153.167ZM237.772 157.682C237.128 157.682 236.54 157.516 236.008 157.185C235.48 156.854 235.058 156.41 234.741 155.855C234.428 155.295 234.272 154.677 234.272 154C234.272 153.487 234.363 153.008 234.545 152.565C234.727 152.117 234.976 151.725 235.294 151.389C235.616 151.048 235.989 150.782 236.414 150.591C236.838 150.4 237.291 150.304 237.772 150.304C238.416 150.304 239.001 150.47 239.529 150.801C240.061 151.132 240.483 151.578 240.796 152.138C241.113 152.698 241.272 153.319 241.272 154C241.272 154.509 241.181 154.985 240.999 155.428C240.817 155.871 240.565 156.263 240.243 156.604C239.925 156.94 239.554 157.204 239.13 157.395C238.71 157.586 238.257 157.682 237.772 157.682ZM237.772 156.702C238.248 156.702 238.675 156.578 239.053 156.331C239.435 156.079 239.736 155.748 239.956 155.337C240.18 154.926 240.292 154.481 240.292 154C240.292 153.51 240.18 153.06 239.956 152.649C239.732 152.234 239.428 151.902 239.046 151.655C238.668 151.408 238.243 151.284 237.772 151.284C237.296 151.284 236.866 151.41 236.484 151.662C236.106 151.909 235.805 152.238 235.581 152.649C235.361 153.06 235.252 153.51 235.252 154C235.252 154.504 235.366 154.961 235.595 155.372C235.823 155.778 236.129 156.102 236.512 156.345C236.894 156.583 237.314 156.702 237.772 156.702ZM245.089 157.5H244.081L241.736 150.5H242.695L244.599 156.142L246.489 150.5H247.525L249.415 156.142L251.305 150.5H252.271L249.926 157.5H248.911L246.993 151.802L245.089 157.5ZM253.34 157.682C253.186 157.682 253.055 157.626 252.948 157.514C252.84 157.407 252.787 157.274 252.787 157.115C252.787 156.966 252.84 156.837 252.948 156.73C253.055 156.618 253.186 156.562 253.34 156.562C253.498 156.562 253.631 156.618 253.739 156.73C253.851 156.837 253.907 156.966 253.907 157.115C253.907 157.274 253.851 157.407 253.739 157.514C253.631 157.626 253.498 157.682 253.34 157.682ZM258.105 158.48H272.105V144.48H258.105V158.48ZM272.105 158.48H286.105V144.48H272.105V158.48Z" fill="#57534E"/>
</g>
<path d="M203 196C203 180.536 215.536 168 231 168C246.464 168 259 180.536 259 196C259 211.464 246.464 224 231 224C215.536 224 203 211.464 203 196Z" fill="#F7A9A0"/>
<path fill-rule="evenodd" clip-rule="evenodd" d="M230.999 184.334C226.489 184.334 222.832 187.99 222.832 192.501V194.348C222.832 195.254 222.622 196.147 222.217 196.957L220.722 199.946C219.752 201.886 221.162 204.167 223.331 204.167H226.481C226.687 204.968 227.105 205.706 227.699 206.3C228.574 207.176 229.761 207.667 230.999 207.667C232.237 207.667 233.424 207.176 234.299 206.3C234.893 205.706 235.311 204.968 235.518 204.167H238.667C240.836 204.167 242.246 201.886 241.276 199.946L239.782 196.957C239.377 196.147 239.166 195.254 239.166 194.348V192.501C239.166 187.99 235.509 184.334 230.999 184.334ZM233.02 204.167H228.978C229.079 204.342 229.204 204.505 229.349 204.651C229.787 205.088 230.38 205.334 230.999 205.334C231.618 205.334 232.211 205.088 232.649 204.651C232.794 204.505 232.919 204.342 233.02 204.167ZM238.667 201.834C239.101 201.834 239.383 201.378 239.189 200.99L237.695 198C237.128 196.866 236.832 195.616 236.832 194.348V192.501C236.832 189.279 234.221 186.667 230.999 186.667C227.777 186.667 225.166 189.279 225.166 192.501V194.348C225.166 195.616 224.871 196.866 224.304 198L222.809 200.99C222.615 201.378 222.897 201.834 223.331 201.834H238.667Z" fill="white"/>
</g>
<defs>
<filter id="filter0_dddd_24415_35702" x="-8" y="-11.25" width="358.82" height="708.426" filterUnits="userSpaceOnUse" color-interpolation-filters="sRGB">
<feFlood flood-opacity="0" result="BackgroundImageFix"/>
<feColorMatrix in="SourceAlpha" type="matrix" values="0 0 0 0 0 0 0 0 0 0 0 0 0 0 0 0 0 0 127 0" result="hardAlpha"/>
<feOffset dy="9"/>
<feGaussianBlur stdDeviation="10"/>
<feColorMatrix type="matrix" values="0 0 0 0 0.572549 0 0 0 0 0.384314 0 0 0 0 0.278431 0 0 0 0.05 0"/>
<feBlend mode="normal" in2="BackgroundImageFix" result="effect1_dropShadow_24415_35702"/>
<feColorMatrix in="SourceAlpha" type="matrix" values="0 0 0 0 0 0 0 0 0 0 0 0 0 0 0 0 0 0 127 0" result="hardAlpha"/>
<feOffset dy="36"/>
<feGaussianBlur stdDeviation="18"/>
<feColorMatrix type="matrix" values="0 0 0 0 0.572549 0 0 0 0 0.384314 0 0 0 0 0.278431 0 0 0 0.04 0"/>
<feBlend mode="normal" in2="effect1_dropShadow_24415_35702" result="effect2_dropShadow_24415_35702"/>
<feColorMatrix in="SourceAlpha" type="matrix" values="0 0 0 0 0 0 0 0 0 0 0 0 0 0 0 0 0 0 127 0" result="hardAlpha"/>
<feOffset dy="81"/>
<feGaussianBlur stdDeviation="24.5"/>
<feColorMatrix type="matrix" values="0 0 0 0 0.572549 0 0 0 0 0.384314 0 0 0 0 0.278431 0 0 0 0.03 0"/>
<feBlend mode="normal" in2="effect2_dropShadow_24415_35702" result="effect3_dropShadow_24415_35702"/>
<feColorMatrix in="SourceAlpha" type="matrix" values="0 0 0 0 0 0 0 0 0 0 0 0 0 0 0 0 0 0 127 0" result="hardAlpha"/>
<feOffset dy="145"/>
<feGaussianBlur stdDeviation="29"/>
<feColorMatrix type="matrix" values="0 0 0 0 0.572549 0 0 0 0 0.384314 0 0 0 0 0.278431 0 0 0 0.01 0"/>
<feBlend mode="normal" in2="effect3_dropShadow_24415_35702" result="effect4_dropShadow_24415_35702"/>
<feBlend mode="normal" in="SourceGraphic" in2="effect4_dropShadow_24415_35702" result="shape"/>
</filter>
<filter id="filter1_dd_24415_35702" x="11" y="66.5" width="321" height="133" filterUnits="userSpaceOnUse" color-interpolation-filters="sRGB">
<feFlood flood-opacity="0" result="BackgroundImageFix"/>
<feColorMatrix in="SourceAlpha" type="matrix" values="0 0 0 0 0 0 0 0 0 0 0 0 0 0 0 0 0 0 127 0" result="hardAlpha"/>
<feOffset dy="8"/>
<feGaussianBlur stdDeviation="8"/>
<feColorMatrix type="matrix" values="0 0 0 0 0.0588235 0 0 0 0 0.0901961 0 0 0 0 0.164706 0 0 0 0.02 0"/>
<feBlend mode="normal" in2="BackgroundImageFix" result="effect1_dropShadow_24415_35702"/>
<feColorMatrix in="SourceAlpha" type="matrix" values="0 0 0 0 0 0 0 0 0 0 0 0 0 0 0 0 0 0 127 0" result="hardAlpha"/>
<feOffset dy="4"/>
<feGaussianBlur stdDeviation="4"/>
<feColorMatrix type="matrix" values="0 0 0 0 0.0588235 0 0 0 0 0.0901961 0 0 0 0 0.164706 0 0 0 0.03 0"/>
<feBlend mode="normal" in2="effect1_dropShadow_24415_35702" result="effect2_dropShadow_24415_35702"/>
<feBlend mode="normal" in="SourceGraphic" in2="effect2_dropShadow_24415_35702" result="shape"/>
</filter>
<linearGradient id="paint0_linear_24415_35702" x1="51.5" y1="89.625" x2="51.5" y2="104.208" gradientUnits="userSpaceOnUse">
<stop stop-color="#F8C8AC"/>
<stop offset="0.331731" stop-color="#F08C51"/>
</linearGradient>
<linearGradient id="paint1_linear_24415_35702" x1="51.4987" y1="93.791" x2="51.4987" y2="108.374" gradientUnits="userSpaceOnUse">
<stop stop-color="#F8C8AC"/>
<stop offset="0.331731" stop-color="#F08C51"/>
</linearGradient>
<clipPath id="clip0_24415_35702">
<rect width="343" height="251" fill="white"/>
</clipPath>
</defs>
</svg>
