<svg width="222" height="140" viewBox="0 0 222 140" fill="none" xmlns="http://www.w3.org/2000/svg">
<path d="M218.387 98.9275C218.387 98.9736 169.494 99.0132 109.199 99.0132C48.9028 99.0132 0 98.9703 0 98.9275C0 98.8847 48.8798 98.8418 109.199 98.8418C169.518 98.8418 218.387 98.8781 218.387 98.9275Z" fill="#263238"/>
<path d="M213.699 136.52C213.699 136.566 166.915 136.606 109.199 136.606C51.4828 136.606 4.68857 136.566 4.68857 136.52C4.68857 136.474 51.4729 136.435 109.199 136.435C166.925 136.435 213.699 136.487 213.699 136.52Z" fill="#263238"/>
<path d="M181.981 0.0861725H45.4659C42.8148 0.0861725 40.6656 2.23536 40.6656 4.88651V91.912C40.6656 94.5632 42.8148 96.7124 45.4659 96.7124H181.981C184.632 96.7124 186.781 94.5632 186.781 91.912V4.88651C186.781 2.23536 184.632 0.0861725 181.981 0.0861725Z" fill="#E0E0E0"/>
<path d="M181.98 96.7118L182.293 96.6921C182.42 96.6883 182.547 96.674 182.672 96.6492C182.849 96.6282 183.024 96.5918 183.196 96.5405C183.687 96.4174 184.154 96.2112 184.576 95.931C185.164 95.5517 185.66 95.0464 186.029 94.4517C186.25 94.1006 186.426 93.7231 186.553 93.3282C186.682 92.8803 186.751 92.4172 186.757 91.9511C186.757 90.9626 186.757 89.8985 186.757 88.7354C186.757 86.4127 186.757 83.7308 186.757 80.7129C186.757 68.6379 186.757 51.163 186.731 29.573C186.731 24.1763 186.731 18.5281 186.731 12.6285V5.88429C186.777 5.12973 186.718 4.37239 186.556 3.63402C186.353 2.89662 185.974 2.21946 185.452 1.66057C184.93 1.10168 184.28 0.677715 183.558 0.425013C183.377 0.360826 183.192 0.308008 183.005 0.266869C182.817 0.227333 182.626 0.200975 182.435 0.177913C182.049 0.151555 181.657 0.15485 181.262 0.158144H178.876H138.352H45.4816C44.4652 0.15961 43.4762 0.488122 42.661 1.0951C41.8458 1.70208 41.2475 2.5553 40.9547 3.5286C40.8162 4.01263 40.7496 4.51439 40.757 5.01779V21.7251C40.757 29.7487 40.757 37.6471 40.757 45.4204C40.757 60.9581 40.757 75.9422 40.757 90.2279V91.5458C40.7446 91.9873 40.7777 92.4289 40.8558 92.8637C41.0382 93.7188 41.4519 94.5075 42.0518 95.1436C42.3494 95.4589 42.6899 95.7306 43.0633 95.9508C43.2481 96.0613 43.4395 96.1603 43.6365 96.2473C43.8361 96.3287 44.0408 96.3969 44.2494 96.4516C45.0796 96.6954 45.9593 96.6031 46.8291 96.6196H76.7941H112.11L163.243 96.6492L177.147 96.6657L163.243 96.6822L112.11 96.7086H76.7941H57.1183H45.5112C45.0662 96.711 44.6229 96.6534 44.1933 96.5372C43.9784 96.4799 43.7671 96.4094 43.5608 96.3264C43.3575 96.2343 43.1595 96.1309 42.9677 96.0167C42.5827 95.7899 42.2322 95.5092 41.9266 95.1831C41.6168 94.859 41.3539 94.493 41.1458 94.0959C40.9394 93.6956 40.7854 93.2704 40.6878 92.8307C40.6079 92.3873 40.5737 91.9369 40.5857 91.4865V90.1686C40.5857 75.8928 40.5857 60.9086 40.5857 45.3611V5.03097C40.5762 4.51076 40.6451 3.99208 40.7899 3.49236C41.0934 2.4837 41.7135 1.59951 42.5584 0.970564C43.4033 0.341617 44.4282 0.00131682 45.4816 0H138.352H178.876H181.245C181.641 0 182.029 -1.00644e-07 182.428 0.0230626C182.626 0.0428046 182.823 0.0724943 183.018 0.112019C183.883 0.306493 184.68 0.731717 185.323 1.34255C185.967 1.95337 186.432 2.72701 186.672 3.58131L186.744 3.86136C186.764 3.9569 186.774 4.05245 186.79 4.14799C186.821 4.33877 186.838 4.5314 186.843 4.72456C186.843 5.11004 186.843 5.48893 186.843 5.86781V8.13126C186.843 9.63363 186.843 11.1217 186.843 12.5955C186.843 18.4886 186.843 24.1368 186.843 29.54C186.843 51.13 186.82 68.605 186.813 80.68C186.813 83.6979 186.813 86.3798 186.813 88.7025C186.813 89.8655 186.813 90.9396 186.813 91.9181C186.806 92.389 186.735 92.8567 186.602 93.3085C186.476 93.7109 186.297 94.0952 186.072 94.4517C185.699 95.0507 185.197 95.5585 184.602 95.9376C184.178 96.2158 183.709 96.4197 183.215 96.5405C183.043 96.5903 182.867 96.6255 182.688 96.646C182.562 96.6689 182.434 96.681 182.306 96.6822L181.98 96.7118Z" fill="#263238"/>
<path d="M187.396 98.9294H40.8159C39.2611 98.9285 37.7703 98.3103 36.6712 97.2106C35.5721 96.1108 34.9547 94.6197 34.9547 93.0649V90.4753H193.26V93.0649C193.26 94.6203 192.643 96.1119 191.543 97.2117C190.443 98.3115 188.951 98.9294 187.396 98.9294Z" fill="#E0E0E0"/>
<path d="M187.396 98.9294H187.587C187.776 98.9226 187.964 98.9061 188.15 98.88L188.569 98.8141L189.066 98.6856C189.248 98.6329 189.432 98.5538 189.636 98.4814C189.841 98.4089 190.048 98.2936 190.262 98.1717C190.745 97.8958 191.189 97.5555 191.58 97.1602C192.609 96.0975 193.197 94.6851 193.227 93.2066C193.227 92.3598 193.227 91.4505 193.227 90.4852L193.26 90.5148L40.8258 90.5708H34.9547L35.0403 90.4852V92.5443C35.0062 93.2225 35.0728 93.902 35.238 94.5607C35.586 95.8712 36.3852 97.0169 37.4949 97.7961C38.6025 98.563 39.9357 98.9354 41.2804 98.8536H90.9213L141.238 98.8734L175.034 98.8998L184.203 98.9162H175.034L141.238 98.9426L90.9213 98.9624H41.2804C39.9102 99.0624 38.5458 98.703 37.4026 97.941C36.266 97.1351 35.4495 95.9546 35.0963 94.6068C34.9283 93.934 34.8595 93.2403 34.8921 92.5476V90.4028H40.8488L193.284 90.4555H193.313V90.4885C193.313 91.4538 193.313 92.3598 193.313 93.2132C193.263 94.7027 192.648 96.1174 191.593 97.1701C191.202 97.5659 190.758 97.9072 190.275 98.1848C190.058 98.3067 189.844 98.399 189.646 98.4912C189.449 98.5835 189.251 98.6428 189.07 98.6922L188.569 98.8174L188.15 98.88C187.963 98.9056 187.773 98.9188 187.584 98.9195L187.396 98.9294Z" fill="#263238"/>
<path d="M99.3177 90.4714L101.281 93.5947H128.924L130.746 90.4714H99.3177Z" fill="#263238"/>
<path d="M177.101 6.68816H50.2201C48.6771 6.68816 47.4262 7.93903 47.4262 9.48205V82.469C47.4262 84.012 48.6771 85.2628 50.2201 85.2628H177.101C178.644 85.2628 179.895 84.012 179.895 82.469V9.48205C179.895 7.93903 178.644 6.68816 177.101 6.68816Z" fill="#455A64"/>
<path d="M177.042 85.2623C177.401 85.255 177.756 85.1836 178.09 85.0515C178.501 84.8876 178.868 84.6291 179.16 84.297C179.566 83.8377 179.813 83.2602 179.865 82.6497C179.885 79.8755 179.865 75.7737 179.865 70.4956C179.865 59.9526 179.865 44.6654 179.836 25.7935C179.836 21.0755 179.836 16.1335 179.836 10.9674V10.012C179.85 9.69166 179.835 9.37067 179.79 9.05323C179.678 8.41871 179.348 7.84311 178.857 7.42566C178.361 7.00809 177.736 6.77524 177.088 6.76673H166.904H131.473H50.2892C49.8519 6.76694 49.4208 6.87029 49.031 7.06836C48.6412 7.26643 48.3035 7.55364 48.0455 7.90669C47.7863 8.2582 47.6167 8.66756 47.5513 9.09936C47.5119 9.53747 47.4987 9.97754 47.5118 10.4172V47.0935C47.5118 53.885 47.5118 60.5501 47.5118 67.0889V76.7818C47.5118 78.3765 47.5118 79.9678 47.5118 81.5459C47.5118 81.938 47.5118 82.3432 47.5315 82.7188C47.5954 83.2911 47.8359 83.8293 48.2197 84.2585C48.6035 84.6878 49.1115 84.9868 49.6731 85.1141C50.0514 85.1804 50.4361 85.2036 50.8196 85.1833H85.0842H115.955L160.657 85.2096L172.812 85.2261L160.657 85.2426L115.955 85.2689H85.0842H50.8196C50.4248 85.2895 50.029 85.2641 49.6401 85.1931C49.0466 85.0584 48.5097 84.7425 48.1036 84.2892C47.6975 83.8359 47.4423 83.2675 47.3734 82.6628C47.3371 82.2543 47.3734 81.8688 47.3536 81.4735V76.7818C47.3536 73.586 47.3536 70.355 47.3536 67.0889V47.0935C47.3536 40.3043 47.3536 33.3998 47.3536 26.3799V10.4337C47.339 9.98195 47.3523 9.52972 47.3932 9.07959C47.4632 8.62023 47.6441 8.18485 47.9203 7.81114C48.1938 7.43594 48.5522 7.13079 48.9662 6.92063C49.3802 6.71048 49.8381 6.60129 50.3024 6.60199H131.486H166.917H177.098C177.776 6.61146 178.431 6.85708 178.948 7.29663C179.465 7.73618 179.813 8.34217 179.931 9.0104C179.976 9.33781 179.992 9.66862 179.977 9.9988V10.9674C179.977 16.1159 179.977 21.0579 179.977 25.7935C179.977 44.6654 179.958 59.9395 179.951 70.4956C179.951 75.7671 179.951 79.8722 179.921 82.653C179.875 83.1832 179.682 83.6901 179.364 84.1167C179.045 84.5433 178.614 84.8727 178.119 85.0679C177.868 85.1659 177.604 85.228 177.335 85.2524L177.042 85.2623Z" fill="#263238"/>
<path d="M96.541 26.1364V26.8909H93.411V22.822H96.4817V23.5765H94.3467V24.4693H96.2313V25.2008H94.3467V26.1397L96.541 26.1364Z" fill="white"/>
<path d="M100.415 25.105V26.8907H99.5093V25.2434C99.5093 24.7393 99.2787 24.5054 98.8767 24.5054C98.4748 24.5054 98.1289 24.7722 98.1289 25.3455V26.8907H97.2261V23.7706H98.0893V24.1397C98.2228 24.0027 98.3836 23.8953 98.5612 23.8243C98.7389 23.7534 98.9294 23.7205 99.1205 23.7278C99.8586 23.7212 100.415 24.1397 100.415 25.105Z" fill="white"/>
<path d="M103.247 26.739C103.028 26.8781 102.772 26.947 102.512 26.9366C101.774 26.9366 101.346 26.561 101.346 25.8164V24.5348H100.865V23.8396H101.346V23.0786H102.249V23.8396H103.026V24.5348H102.249V25.8066C102.242 25.8606 102.247 25.9155 102.264 25.9674C102.281 26.0192 102.309 26.0666 102.346 26.106C102.384 26.1455 102.43 26.1761 102.481 26.1955C102.532 26.215 102.586 26.2228 102.641 26.2184C102.771 26.2191 102.898 26.1775 103.003 26.0998L103.247 26.739Z" fill="white"/>
<path d="M106.698 25.5859H104.339C104.388 25.7804 104.504 25.951 104.669 26.066C104.833 26.1811 105.033 26.2329 105.232 26.2119C105.376 26.2176 105.52 26.1936 105.654 26.1415C105.788 26.0893 105.911 26.0101 106.013 25.9088L106.497 26.4326C106.332 26.605 106.131 26.7394 105.909 26.8264C105.686 26.9135 105.448 26.9511 105.209 26.9367C104.128 26.9367 103.427 26.258 103.427 25.3289C103.424 25.1123 103.466 24.8975 103.549 24.6976C103.633 24.4977 103.756 24.317 103.912 24.1664C104.068 24.0159 104.253 23.8988 104.455 23.8222C104.658 23.7456 104.874 23.7112 105.091 23.7211C105.307 23.7098 105.523 23.7439 105.724 23.8213C105.926 23.8987 106.11 24.0177 106.263 24.1705C106.416 24.3233 106.536 24.5065 106.613 24.7083C106.691 24.9101 106.726 25.1261 106.715 25.3421C106.715 25.4113 106.705 25.5101 106.698 25.5859ZM104.326 25.0555H105.865C105.843 24.8694 105.751 24.6985 105.609 24.5765C105.467 24.4545 105.284 24.3903 105.097 24.3965C104.909 24.387 104.724 24.45 104.581 24.5726C104.437 24.6951 104.346 24.8679 104.326 25.0555Z" fill="white"/>
<path d="M109.261 23.7222V24.559C109.185 24.559 109.126 24.559 109.057 24.559C108.942 24.5485 108.826 24.5641 108.718 24.6047C108.609 24.6453 108.512 24.7098 108.432 24.7935C108.352 24.8771 108.292 24.9777 108.257 25.0877C108.221 25.1977 108.211 25.3143 108.227 25.4288V26.9015H107.324V23.7815H108.187V24.1933C108.314 24.0335 108.479 23.9071 108.666 23.825C108.853 23.7429 109.057 23.7076 109.261 23.7222Z" fill="white"/>
<path d="M113.477 25.4577V26.8975H112.538V25.4577L110.967 22.822H111.955L113.042 24.6275L114.126 22.822H115.049L113.477 25.4577Z" fill="white"/>
<path d="M114.805 25.3295C114.783 24.9855 114.864 24.6426 115.039 24.3455C115.214 24.0483 115.474 23.8106 115.785 23.663C116.097 23.5155 116.446 23.4651 116.786 23.5183C117.127 23.5714 117.444 23.7257 117.696 23.9612C117.948 24.1966 118.123 24.5023 118.199 24.8386C118.275 25.1749 118.248 25.5263 118.122 25.8471C117.995 26.168 117.776 26.4434 117.491 26.6378C117.206 26.8322 116.87 26.9366 116.525 26.9373C116.304 26.9527 116.083 26.9225 115.875 26.8486C115.667 26.7748 115.476 26.6588 115.315 26.5079C115.153 26.3571 115.025 26.1746 114.937 25.9718C114.849 25.7691 114.804 25.5504 114.805 25.3295ZM117.319 25.3295C117.306 25.1743 117.248 25.0263 117.153 24.9034C117.057 24.7806 116.927 24.6883 116.78 24.6379C116.633 24.5875 116.474 24.5812 116.323 24.6196C116.172 24.6581 116.036 24.7397 115.931 24.8545C115.826 24.9693 115.756 25.1123 115.731 25.266C115.706 25.4196 115.726 25.5773 115.789 25.7196C115.852 25.862 115.955 25.9829 116.086 26.0675C116.217 26.1521 116.369 26.1968 116.525 26.196C116.636 26.1975 116.746 26.1755 116.848 26.1315C116.95 26.0875 117.041 26.0225 117.116 25.9406C117.191 25.8588 117.248 25.7621 117.283 25.6568C117.318 25.5514 117.33 25.4399 117.319 25.3295Z" fill="white"/>
<path d="M121.983 23.7719V26.8919H121.123V26.5196C121.001 26.6551 120.852 26.7627 120.685 26.8349C120.517 26.9072 120.337 26.9423 120.155 26.938C119.37 26.938 118.82 26.4966 118.82 25.5345V23.7719H119.726V25.3994C119.726 25.9233 119.957 26.1539 120.359 26.1539C120.761 26.1539 121.077 25.887 121.077 25.3138V23.7719H121.983Z" fill="white"/>
<path d="M124.761 23.7222V24.559C124.685 24.559 124.629 24.559 124.56 24.559C124.444 24.5479 124.328 24.563 124.219 24.6034C124.111 24.6438 124.013 24.7083 123.933 24.7921C123.853 24.8758 123.793 24.9767 123.758 25.087C123.723 25.1973 123.713 25.3142 123.729 25.4288V26.9015H122.823V23.7815H123.686V24.1933C123.814 24.0335 123.978 23.9071 124.165 23.825C124.352 23.7429 124.557 23.7076 124.761 23.7222Z" fill="white"/>
<path d="M126.775 24.8613C126.775 23.6522 127.714 22.7593 128.999 22.7593C130.284 22.7593 131.22 23.6489 131.22 24.8613C131.22 26.0738 130.274 26.96 128.999 26.96C127.724 26.96 126.775 26.0672 126.775 24.8613ZM130.268 24.8613C130.263 24.6109 130.184 24.3675 130.041 24.1618C129.898 23.9561 129.697 23.7972 129.464 23.7051C129.231 23.6129 128.976 23.5917 128.731 23.6439C128.486 23.6962 128.262 23.8197 128.087 23.9989C127.912 24.1781 127.793 24.405 127.747 24.6512C127.7 24.8973 127.727 25.1518 127.825 25.3825C127.922 25.6133 128.086 25.8102 128.295 25.9484C128.504 26.0866 128.749 26.16 128.999 26.1594C129.17 26.1637 129.339 26.1328 129.497 26.0687C129.655 26.0046 129.797 25.9086 129.916 25.7868C130.036 25.665 130.128 25.5199 130.189 25.3607C130.249 25.2015 130.276 25.0315 130.268 24.8613Z" fill="white"/>
<path d="M132.711 23.5963H131.409V22.822H134.948V23.5897H133.65V26.8843H132.711V23.5963Z" fill="white"/>
<path d="M138.977 24.3046C138.977 25.2074 138.299 25.7707 137.211 25.7707H136.394V26.8909H135.455V22.822H137.211C138.299 22.822 138.977 23.392 138.977 24.3046ZM138.025 24.3046C138.025 23.8565 137.735 23.5963 137.159 23.5963H136.394V25.0064H137.159C137.735 25.0064 138.025 24.7428 138.025 24.3046Z" fill="white"/>
<g opacity="0.2">
<path d="M99.9046 35.27H93.1999C92.2046 35.27 91.3977 36.0769 91.3977 37.0722V47.513C91.3977 48.5083 92.2046 49.3152 93.1999 49.3152H99.9046C100.9 49.3152 101.707 48.5083 101.707 47.513V37.0722C101.707 36.0769 100.9 35.27 99.9046 35.27Z" fill="white"/>
</g>
<g opacity="0.2">
<path d="M112.877 35.27H106.173C105.177 35.27 104.371 36.0769 104.371 37.0722V47.513C104.371 48.5083 105.177 49.3152 106.173 49.3152H112.877C113.873 49.3152 114.68 48.5083 114.68 47.513V37.0722C114.68 36.0769 113.873 35.27 112.877 35.27Z" fill="white"/>
</g>
<g opacity="0.2">
<path d="M125.85 35.27H119.146C118.15 35.27 117.343 36.0769 117.343 37.0722V47.513C117.343 48.5083 118.15 49.3152 119.146 49.3152H125.85C126.846 49.3152 127.653 48.5083 127.653 47.513V37.0722C127.653 36.0769 126.846 35.27 125.85 35.27Z" fill="white"/>
</g>
<g opacity="0.2">
<path d="M138.819 35.27H132.115C131.119 35.27 130.312 36.0769 130.312 37.0722V47.513C130.312 48.5083 131.119 49.3152 132.115 49.3152H138.819C139.815 49.3152 140.621 48.5083 140.621 47.513V37.0722C140.621 36.0769 139.815 35.27 138.819 35.27Z" fill="white"/>
</g>
<path d="M97.6283 42.3498L98.8638 43.0087L98.3103 43.9378L97.0649 43.1998L97.0847 44.5704H96.0304V43.1899L94.785 43.9378L94.2414 43.0087L95.4736 42.3498L94.2414 41.6711L94.785 40.742L96.0304 41.4899V40.1094H97.0946L97.0748 41.4899L98.3202 40.742L98.8737 41.6711L97.6283 42.3498Z" fill="#263238"/>
<path d="M127.753 57.9373H103.893C101.522 57.9373 99.5998 59.8593 99.5998 62.2303V63.1034C99.5998 65.4743 101.522 67.3963 103.893 67.3963H127.753C130.124 67.3963 132.046 65.4743 132.046 63.1034V62.2303C132.046 59.8593 130.124 57.9373 127.753 57.9373Z" fill="#F08C51"/>
<path d="M106.756 62.4439C106.774 62.1569 106.875 61.8814 107.048 61.6515C107.221 61.4217 107.457 61.2476 107.728 61.1508C107.999 61.0539 108.292 61.0387 108.571 61.1069C108.851 61.1752 109.104 61.3239 109.299 61.5346L108.904 61.9003C108.824 61.8036 108.723 61.7258 108.609 61.6723C108.495 61.6188 108.371 61.5909 108.245 61.5906C108.019 61.5906 107.802 61.6805 107.642 61.8405C107.482 62.0006 107.392 62.2176 107.392 62.4439C107.392 62.6703 107.482 62.8873 107.642 63.0473C107.802 63.2074 108.019 63.2973 108.245 63.2973C108.373 63.2948 108.498 63.264 108.612 63.207C108.726 63.15 108.826 63.0683 108.904 62.9678L109.299 63.3335C109.105 63.5455 108.852 63.6955 108.573 63.7649C108.294 63.8343 108 63.8199 107.729 63.7237C107.458 63.6275 107.221 63.4535 107.048 63.2236C106.875 62.9937 106.773 62.718 106.756 62.4308V62.4439Z" fill="white"/>
<path d="M109.445 62.7513C109.431 62.5252 109.485 62.3001 109.6 62.1049C109.715 61.9098 109.886 61.7538 110.09 61.657C110.295 61.5603 110.524 61.5273 110.748 61.5624C110.972 61.5974 111.18 61.6989 111.345 61.8537C111.511 62.0085 111.626 62.2093 111.676 62.4303C111.725 62.6513 111.708 62.8821 111.625 63.0928C111.542 63.3036 111.397 63.4845 111.21 63.6122C111.023 63.7399 110.802 63.8084 110.575 63.8089C110.431 63.8188 110.285 63.7988 110.148 63.7502C110.012 63.7015 109.886 63.6252 109.78 63.5259C109.674 63.4267 109.59 63.3067 109.532 63.1735C109.475 63.0402 109.445 62.8965 109.445 62.7513ZM111.093 62.7513C111.084 62.649 111.046 62.5513 110.983 62.4703C110.92 62.3893 110.835 62.3285 110.738 62.2953C110.641 62.2621 110.536 62.258 110.437 62.2835C110.337 62.3089 110.247 62.3628 110.178 62.4386C110.109 62.5144 110.063 62.6088 110.047 62.7101C110.031 62.8114 110.044 62.9153 110.086 63.0091C110.128 63.1028 110.196 63.1822 110.282 63.2377C110.369 63.2932 110.469 63.3222 110.572 63.3213C110.645 63.3226 110.718 63.3084 110.785 63.2795C110.852 63.2507 110.913 63.208 110.962 63.1541C111.012 63.1002 111.049 63.0365 111.072 62.967C111.095 62.8976 111.103 62.8241 111.096 62.7513H111.093Z" fill="white"/>
<path d="M114.19 62.6022V63.7751H113.597V62.6879C113.597 62.3584 113.442 62.2035 113.182 62.2035C112.922 62.2035 112.688 62.3782 112.688 62.7571V63.7685H112.095V61.7192H112.661V61.9597C112.75 61.8701 112.856 61.7997 112.972 61.7532C113.089 61.7067 113.214 61.685 113.34 61.6896C113.459 61.6816 113.579 61.7003 113.69 61.7442C113.801 61.7882 113.901 61.8564 113.982 61.9438C114.064 62.0312 114.125 62.1356 114.16 62.2495C114.196 62.3634 114.207 62.4839 114.19 62.6022Z" fill="white"/>
<path d="M116.051 63.6764C115.906 63.7688 115.737 63.8148 115.566 63.8081C115.465 63.8222 115.362 63.8129 115.264 63.7812C115.167 63.7495 115.078 63.6961 115.005 63.625C114.931 63.5539 114.874 63.467 114.839 63.3709C114.804 63.2748 114.791 63.1719 114.802 63.0701V62.23H114.472V61.772H114.802V61.2745H115.395V61.772H115.906V62.23H115.395V63.0635C115.39 63.099 115.394 63.1349 115.405 63.1689C115.416 63.2028 115.435 63.2338 115.459 63.2597C115.484 63.2855 115.514 63.3056 115.547 63.3184C115.58 63.3312 115.616 63.3364 115.652 63.3337C115.738 63.3344 115.822 63.3079 115.892 63.2579L116.051 63.6764Z" fill="white"/>
<path d="M116.313 61.1089C116.313 61.0621 116.323 61.0158 116.342 60.973C116.361 60.9302 116.388 60.892 116.423 60.8608C116.458 60.8296 116.499 60.8062 116.544 60.7922C116.589 60.7782 116.636 60.7739 116.682 60.7795C116.729 60.7739 116.776 60.7782 116.821 60.7922C116.865 60.8062 116.906 60.8296 116.941 60.8608C116.976 60.892 117.004 60.9302 117.023 60.973C117.042 61.0158 117.052 61.0621 117.051 61.1089C117.039 61.1983 116.995 61.2803 116.927 61.3397C116.86 61.3991 116.773 61.4318 116.682 61.4318C116.592 61.4318 116.505 61.3991 116.437 61.3397C116.369 61.2803 116.325 61.1983 116.313 61.1089ZM116.386 61.725H116.979V63.7743H116.386V61.725Z" fill="white"/>
<path d="M119.627 62.6018V63.7747H119.034V62.6875C119.034 62.358 118.879 62.2032 118.619 62.2032C118.358 62.2032 118.125 62.3778 118.125 62.7567V63.7681H117.531V61.7188H118.098V61.9593C118.188 61.871 118.294 61.8023 118.412 61.7575C118.529 61.7127 118.655 61.6928 118.78 61.6991C118.898 61.6918 119.016 61.7107 119.126 61.7544C119.236 61.798 119.335 61.8653 119.416 61.9515C119.496 62.0377 119.557 62.1407 119.594 62.2531C119.63 62.3655 119.642 62.4846 119.627 62.6018Z" fill="white"/>
<path d="M122.231 61.725V63.7743H121.667V63.5305C121.588 63.6199 121.49 63.6909 121.38 63.7387C121.27 63.7865 121.151 63.8099 121.032 63.8072C120.91 63.8171 120.788 63.7997 120.674 63.7562C120.56 63.7126 120.457 63.6441 120.373 63.5556C120.289 63.4671 120.225 63.3609 120.188 63.2448C120.15 63.1287 120.139 63.0057 120.155 62.8847V61.725H120.758V62.7958C120.758 63.1252 120.91 63.2932 121.173 63.2932C121.437 63.2932 121.648 63.1153 121.648 62.7397V61.725H122.231Z" fill="white"/>
<path d="M124.781 62.918H123.23C123.261 63.0461 123.337 63.1585 123.445 63.2343C123.553 63.31 123.685 63.344 123.816 63.3299C123.911 63.3333 124.005 63.3175 124.093 63.2835C124.181 63.2496 124.262 63.1981 124.33 63.1322L124.659 63.4617C124.499 63.6159 124.298 63.7223 124.08 63.7687C123.863 63.8151 123.636 63.7998 123.427 63.7245C123.217 63.6491 123.033 63.5167 122.894 63.3422C122.756 63.1677 122.669 62.9581 122.643 62.7368C122.644 62.5971 122.673 62.459 122.728 62.3306C122.783 62.2023 122.863 62.0863 122.964 61.9895C123.065 61.8927 123.184 61.8172 123.314 61.7673C123.445 61.7174 123.584 61.6942 123.724 61.699C123.866 61.6914 124.008 61.7138 124.14 61.7645C124.273 61.8153 124.394 61.8934 124.494 61.9937C124.595 62.094 124.673 62.2143 124.724 62.3469C124.776 62.4794 124.798 62.6213 124.791 62.7632C124.791 62.806 124.785 62.8686 124.781 62.918ZM123.223 62.5886H124.231C124.216 62.4669 124.156 62.3552 124.063 62.2759C123.969 62.1965 123.85 62.1552 123.727 62.1603C123.607 62.1533 123.488 62.1917 123.395 62.268C123.301 62.3442 123.24 62.4528 123.223 62.5721V62.5886Z" fill="white"/>
<path d="M116.633 3.41667C116.633 3.70483 116.547 3.98651 116.387 4.22606C116.227 4.46561 115.999 4.65226 115.733 4.76238C115.467 4.8725 115.174 4.90115 114.891 4.84469C114.609 4.78824 114.349 4.64921 114.146 4.44523C113.942 4.24124 113.804 3.98145 113.748 3.69875C113.692 3.41605 113.721 3.12314 113.832 2.85711C113.943 2.59107 114.13 2.36386 114.37 2.20425C114.61 2.04463 114.892 1.95978 115.18 1.96043C115.371 1.96043 115.56 1.99812 115.737 2.07134C115.913 2.14457 116.073 2.25188 116.208 2.38715C116.343 2.52242 116.45 2.68298 116.523 2.85964C116.596 3.0363 116.633 3.22559 116.633 3.41667Z" fill="#263238"/>
<path d="M170.077 11.4362V10.0393C170.076 10.0016 170.081 9.96399 170.094 9.92853C170.107 9.89308 170.127 9.86049 170.152 9.83264C170.177 9.80479 170.208 9.78223 170.242 9.76624C170.276 9.75025 170.313 9.74114 170.351 9.73945H172.45C172.487 9.74114 172.524 9.75025 172.558 9.76624C172.592 9.78223 172.623 9.80479 172.649 9.83264C172.674 9.86049 172.694 9.89308 172.706 9.92853C172.719 9.96399 172.725 10.0016 172.723 10.0393V11.4362C172.725 11.4739 172.719 11.5115 172.706 11.5469C172.694 11.5824 172.674 11.615 172.649 11.6428C172.623 11.6707 172.592 11.6933 172.558 11.7092C172.524 11.7252 172.487 11.7343 172.45 11.736H170.351C170.313 11.7343 170.276 11.7252 170.242 11.7092C170.208 11.6933 170.177 11.6707 170.152 11.6428C170.127 11.615 170.107 11.5824 170.094 11.5469C170.081 11.5115 170.076 11.4739 170.077 11.4362Z" fill="#263238"/>
<path d="M174.054 12.2097H169.91C169.811 12.2088 169.717 12.1692 169.648 12.0995C169.579 12.0298 169.541 11.9356 169.541 11.8374V9.55421C169.541 9.50575 169.55 9.45777 169.569 9.413C169.587 9.36823 169.614 9.32755 169.649 9.29329C169.683 9.25902 169.724 9.23184 169.768 9.21329C169.813 9.19475 169.861 9.18521 169.91 9.18521H173.995C174.082 9.18521 174.166 9.21992 174.228 9.28171C174.29 9.34349 174.324 9.42729 174.324 9.51467V9.93639C174.324 9.95037 174.33 9.96378 174.34 9.97367C174.35 9.98355 174.363 9.98911 174.377 9.98911H174.825C174.884 9.98911 174.94 10.0124 174.981 10.0538C175.023 10.0952 175.046 10.1513 175.046 10.2099V10.961C175.046 11.0336 175.017 11.1031 174.966 11.1544C174.915 11.2057 174.845 11.2345 174.772 11.2345H174.443C174.428 11.2345 174.414 11.2404 174.403 11.2509C174.393 11.2614 174.387 11.2756 174.387 11.2905V11.8737C174.388 11.9178 174.38 11.9616 174.364 12.0025C174.347 12.0435 174.323 12.0807 174.292 12.1121C174.261 12.1434 174.224 12.1682 174.183 12.185C174.142 12.2018 174.098 12.2102 174.054 12.2097ZM169.91 9.34994C169.855 9.34994 169.803 9.37146 169.765 9.40977C169.727 9.44808 169.705 9.50004 169.705 9.55421V11.8374C169.705 11.8919 169.727 11.9442 169.765 11.983C169.803 12.0219 169.855 12.0441 169.91 12.045H174.054C174.1 12.0441 174.144 12.0253 174.176 11.9927C174.208 11.96 174.226 11.9161 174.226 11.8704V11.2905C174.226 11.232 174.249 11.1758 174.29 11.1344C174.332 11.093 174.388 11.0698 174.446 11.0698H174.776C174.805 11.0698 174.832 11.0583 174.853 11.0379C174.873 11.0175 174.884 10.9899 174.884 10.961V10.2164C174.884 10.2018 174.878 10.1881 174.867 10.1777C174.857 10.1674 174.843 10.1612 174.828 10.1604H174.38C174.323 10.1596 174.268 10.1364 174.228 10.0958C174.187 10.0552 174.164 10.0004 174.163 9.94298V9.52126C174.163 9.49848 174.158 9.47593 174.15 9.45493C174.141 9.43393 174.128 9.41489 174.112 9.39894C174.095 9.38299 174.076 9.37044 174.055 9.36202C174.034 9.35361 174.011 9.3495 173.988 9.34994H169.91Z" fill="#263238"/>
<path d="M43.5554 51.094C43.3778 50.5633 43.0434 50.099 42.5963 49.7626C42.1492 49.4261 41.6105 49.2332 41.0514 49.2094C41.3414 48.3956 40.7846 47.4566 39.9938 47.114C39.5882 46.9673 39.1561 46.9076 38.7259 46.9388C38.2956 46.97 37.8767 47.0914 37.4965 47.2952C36.9463 47.5555 36.4323 47.9179 35.8491 48.053C35.0683 48.2309 34.2611 47.9838 33.4638 47.9574C32.6456 47.9419 31.8388 48.1515 31.1316 48.5635C30.4245 48.9755 29.8442 49.5739 29.4542 50.2934C29.1873 50.7974 29.0226 51.3542 28.7294 51.8451C28.4921 52.2372 28.1824 52.5799 27.9485 52.9752C27.6219 53.554 27.4733 54.2163 27.5214 54.8791C27.5694 55.542 27.812 56.1759 28.2187 56.7015L39.4502 54.1218C39.9118 54.441 40.4616 54.6082 41.0228 54.6C41.584 54.5918 42.1287 54.4085 42.5807 54.0758C43.0328 53.7431 43.3697 53.2776 43.5444 52.7442C43.7191 52.2108 43.723 51.6362 43.5554 51.1005V51.094Z" fill="#263238"/>
<path d="M69.4262 92.4483L58.5966 91.3742L57.9706 96.9982L70.2004 96.5732L69.4262 92.4483Z" fill="#FFBF9D"/>
<path d="M77.6526 95.7435C77.5836 95.841 77.4875 95.9161 77.3762 95.9595C77.2649 96.0028 77.1433 96.0125 77.0266 95.9873C76.9764 95.9739 76.9278 95.9551 76.8816 95.9313C76.5521 95.7699 76.7004 95.0813 76.7004 95.0813L75.1124 94.5607C75.1124 94.5607 72.7798 95.5887 71.8836 96.3761C70.9874 97.1635 69.182 96.1257 69.182 96.1257L69.0634 92.5477L72.4898 90.3106C72.4898 90.3106 72.279 90.4457 72.5656 89.9811C72.8522 89.5166 73.7649 89.8461 73.7649 89.8461C73.9527 89.6187 74.5819 89.6253 74.5819 89.6253L77.1617 90.3436C77.4245 90.4165 77.6676 90.5477 77.873 90.7273C78.0783 90.907 78.2405 91.1305 78.3477 91.3814L79.1813 93.3153C79.1813 93.3153 79.5701 94.676 79.4284 94.9627C79.3683 95.0779 79.268 95.167 79.1465 95.2132C79.0251 95.2593 78.8909 95.2593 78.7695 95.2131C78.7695 95.2131 78.5059 96.0236 78.2851 96.0203C78.0621 95.9732 77.8498 95.885 77.6592 95.76L77.6526 95.7435Z" fill="#FFBF9D"/>
<path d="M72.5477 95.9087C72.6097 95.8823 72.6693 95.8504 72.7256 95.8132L73.2198 95.5298C73.8404 95.1861 74.4806 94.8792 75.1373 94.6106H75.0977L76.6825 95.1443L76.6363 95.0653C76.6119 95.1989 76.6009 95.3347 76.6034 95.4705C76.602 95.6189 76.6444 95.7645 76.7253 95.8889C76.7776 95.9526 76.8475 95.9996 76.9263 96.024C76.998 96.0555 77.0753 96.0723 77.1536 96.0734C77.3152 96.0736 77.4717 96.0164 77.5951 95.912C77.6261 95.886 77.6547 95.8573 77.6808 95.8263L77.7005 95.8033L77.5984 95.823L77.6478 95.8527C77.7115 95.8928 77.7775 95.9291 77.8455 95.9614C77.9145 95.9964 77.9861 96.0262 78.0596 96.0504C78.098 96.0653 78.1377 96.0763 78.1783 96.0833C78.2288 96.0981 78.2825 96.0981 78.3331 96.0833C78.4139 96.0383 78.4811 95.9723 78.5275 95.8922C78.5704 95.8245 78.6089 95.754 78.6428 95.6814C78.7109 95.5368 78.7703 95.3882 78.8207 95.2366L78.7153 95.286C78.8216 95.328 78.9374 95.34 79.05 95.3208C79.1627 95.3017 79.268 95.252 79.3544 95.1773C79.4438 95.0964 79.502 94.9869 79.5192 94.8676C79.5311 94.7581 79.5311 94.6476 79.5192 94.5381C79.461 94.1183 79.3729 93.7032 79.2556 93.296L78.8108 92.2648L78.5308 91.6059C78.4444 91.3805 78.3339 91.1651 78.2013 90.9634C78.0606 90.7675 77.8812 90.6027 77.6742 90.4791C77.4681 90.365 77.2459 90.2828 77.0152 90.2353L74.5805 89.5763H74.5607C74.4092 89.5781 74.2581 89.5936 74.1093 89.6225C73.9505 89.6436 73.8027 89.7152 73.6876 89.8267H73.7832C73.6592 89.7442 73.5169 89.6932 73.3688 89.6783C73.2206 89.6634 73.0711 89.6849 72.9331 89.7411C72.6879 89.8662 72.5003 90.0809 72.4093 90.3407L72.4356 90.3078L70.0734 91.8398L69.4375 92.2648C69.3612 92.3121 69.2886 92.365 69.22 92.4229C69.3031 92.388 69.3826 92.3449 69.4572 92.2944L70.1162 91.8991L72.5048 90.4165V90.3967C72.5863 90.1716 72.7499 89.9857 72.9628 89.8762C73.0803 89.8312 73.207 89.8153 73.332 89.8296C73.457 89.844 73.5767 89.8882 73.681 89.9585L73.7337 89.9915L73.7766 89.9453C73.869 89.8634 73.9837 89.8107 74.106 89.7938C74.2439 89.7671 74.384 89.7539 74.5245 89.7543L76.9526 90.4395C77.166 90.4844 77.3715 90.561 77.5622 90.6669C77.7488 90.78 77.9103 90.9303 78.0366 91.1084C78.1604 91.2994 78.2621 91.5039 78.3397 91.7179C78.4352 91.9353 78.5275 92.1528 78.623 92.3768L79.0678 93.408C79.1834 93.8066 79.2704 94.2129 79.3281 94.6238C79.3378 94.7191 79.3378 94.8151 79.3281 94.9104C79.3164 94.9916 79.2768 95.0662 79.2161 95.1213C79.1517 95.1753 79.0741 95.2111 78.9913 95.225C78.9084 95.2389 78.8234 95.2304 78.7449 95.2003L78.6659 95.174L78.6395 95.2498C78.5938 95.3953 78.5376 95.5373 78.4715 95.6748C78.4255 95.8016 78.3485 95.9149 78.2474 96.0042C78.2245 96.0071 78.2012 96.0071 78.1783 96.0042L78.0827 95.9779C78.0168 95.9548 77.9509 95.9252 77.885 95.8955C77.8207 95.8647 77.758 95.8307 77.6972 95.7934L77.6511 95.767L77.549 95.7868V95.8066C77.5275 95.8302 77.5044 95.8522 77.4798 95.8725C77.3879 95.9517 77.2716 95.9971 77.1503 96.001C77.0892 96.0007 77.0287 95.9884 76.9724 95.9647C76.9175 95.9517 76.8686 95.9203 76.834 95.8758C76.7253 95.6573 76.6996 95.4067 76.7615 95.1707V95.1081L76.7055 95.0916L75.1175 94.5777H75.0977H75.078C74.4221 94.8573 73.7859 95.1809 73.1736 95.5463C72.9595 95.6748 72.7981 95.7802 72.6893 95.856C72.6409 95.8702 72.5936 95.8878 72.5477 95.9087Z" fill="#F08C51"/>
<path d="M74.0653 90.8337C74.3148 90.9966 74.5853 91.1252 74.8692 91.2159C75.5592 91.4757 76.2803 91.644 77.014 91.7166L76.9349 91.6442C76.9613 91.7825 76.9844 91.9242 77.0206 92.0692C77.2076 92.8867 77.5499 93.6607 78.0288 94.3491C78.1732 94.5553 78.3317 94.7513 78.5032 94.9355C78.6251 95.0673 78.7009 95.1299 78.7108 95.1233C78.7207 95.1168 78.467 94.8103 78.1309 94.2799C77.6935 93.588 77.3761 92.8272 77.1919 92.0296C77.159 91.8913 77.1326 91.7496 77.1096 91.6178V91.5486H77.0437C76.3229 91.4782 75.6116 91.3313 74.9219 91.1104C74.6419 91.0017 74.3559 90.9093 74.0653 90.8337Z" fill="#F08C51"/>
<path d="M76.3214 92.7589C76.3967 93.8644 76.8974 94.8977 77.7184 95.6418C77.7612 95.6055 77.2802 95.0586 76.898 94.2613C76.5158 93.464 76.3742 92.7491 76.3214 92.7589Z" fill="#F08C51"/>
<path d="M68.8323 94.9764C68.8323 94.9764 68.8553 95.0027 68.908 95.039C68.9864 95.091 69.0678 95.1383 69.1518 95.1806C69.4711 95.3364 69.8161 95.4325 70.1699 95.464C70.7133 95.5133 71.2595 95.407 71.7448 95.1576C72.3637 94.8405 72.8538 94.319 73.1318 93.6816L73.0264 93.731C73.634 93.9497 74.2697 94.0806 74.9142 94.1197C75.1535 94.1329 75.3932 94.1329 75.6325 94.1197C75.8722 94.1203 76.1104 94.0814 76.3375 94.0044C76.4645 93.9618 76.5712 93.8738 76.6373 93.7573C76.6653 93.6973 76.6811 93.6324 76.6839 93.5662C76.6867 93.5001 76.6765 93.434 76.6538 93.3719C76.6071 93.2488 76.5135 93.1493 76.3935 93.0951L76.1036 92.9699C75.3359 92.6404 74.6276 92.3999 74.0313 92.2055C73.4349 92.0112 72.9407 91.8761 72.6014 91.7904C72.4267 91.7354 72.2467 91.699 72.0643 91.6817C72.2331 91.7503 72.4058 91.8086 72.5816 91.8563C72.9111 91.9617 73.3987 92.1166 73.9917 92.3242C74.5848 92.5317 75.2799 92.7953 76.041 93.1215L76.3276 93.2467C76.405 93.283 76.4653 93.3479 76.4957 93.4279C76.5124 93.468 76.5211 93.5112 76.5211 93.5547C76.5211 93.5983 76.5124 93.6414 76.4957 93.6816C76.4472 93.7611 76.3709 93.8198 76.2815 93.8463C76.0688 93.9154 75.8462 93.9488 75.6226 93.9451C75.392 93.9451 75.158 93.9451 74.9208 93.9451C74.2924 93.9065 73.6725 93.7801 73.0791 93.5695L73.0033 93.5432L72.9737 93.6157C72.7091 94.2246 72.244 94.7245 71.6558 95.0324C71.1953 95.2764 70.6771 95.3903 70.1567 95.3618C69.8168 95.3398 69.4829 95.2619 69.1683 95.1312C68.9509 95.0455 68.8388 94.9764 68.8323 94.9764Z" fill="#F08C51"/>
<path d="M34.2979 78.5328C33.0129 78.5044 31.7902 77.9734 30.8921 77.0538C29.9941 76.1342 29.4922 74.8992 29.4943 73.6139L29.29 57.302C29.0989 52.9233 31.4184 49.1575 35.6784 49.085H36.0737C40.0438 49.2531 43.2199 52.5247 43.3747 56.6068C43.5197 60.4055 43.6746 64.0725 43.5691 66.102C43.3484 70.306 39.1938 70.7146 39.1938 70.7146C39.1938 70.7146 39.1938 72.2795 39.1938 73.515C39.2047 74.1648 39.0866 74.8103 38.8462 75.4141C38.6059 76.0179 38.2482 76.5681 37.7937 77.0326C37.3393 77.4972 36.7971 77.8669 36.1988 78.1205C35.6004 78.3741 34.9577 78.5064 34.3078 78.5098L34.2979 78.5328Z" fill="#FFBF9D"/>
<path d="M39.1952 70.7635C37.3006 70.6769 35.4731 70.0353 33.9402 68.9184C33.9402 68.9184 35.0934 72.134 39.1853 71.9265L39.1952 70.7635Z" fill="#F08C51"/>
<path d="M41.8698 60.3582C41.8656 60.5121 41.8024 60.6585 41.6932 60.7671C41.5841 60.8756 41.4373 60.938 41.2834 60.9413C41.2079 60.944 41.1326 60.9315 41.062 60.9046C40.9914 60.8777 40.9268 60.837 40.8722 60.7848C40.8176 60.7326 40.7739 60.67 40.7438 60.6007C40.7137 60.5314 40.6978 60.4568 40.6969 60.3813C40.6987 60.2266 40.7611 60.0787 40.8708 59.9696C40.9805 59.8606 41.1287 59.7989 41.2834 59.7981C41.3588 59.7959 41.4339 59.8087 41.5043 59.8357C41.5747 59.8628 41.6391 59.9035 41.6936 59.9556C41.7482 60.0077 41.7918 60.0702 41.8221 60.1393C41.8523 60.2084 41.8686 60.2828 41.8698 60.3582Z" fill="#263238"/>
<path d="M42.4355 58.4411C42.3597 58.5168 41.9314 58.161 41.3021 58.1379C40.6728 58.1149 40.2017 58.4147 40.1358 58.3323C40.0699 58.25 40.1852 58.1577 40.3895 58.0029C40.6681 57.822 40.9966 57.7332 41.3285 57.7492C41.6551 57.7584 41.9698 57.8741 42.2246 58.0786C42.4124 58.2631 42.4717 58.4048 42.4355 58.4411Z" fill="#263238"/>
<path d="M36.168 60.3588C36.1655 60.5132 36.1027 60.6606 35.9932 60.7695C35.8837 60.8784 35.736 60.9403 35.5816 60.942C35.5062 60.9433 35.4313 60.9296 35.3612 60.9018C35.2911 60.8739 35.2272 60.8324 35.1733 60.7797C35.1194 60.727 35.0764 60.6641 35.047 60.5947C35.0175 60.5253 35.0021 60.4507 35.0017 60.3753C35.0043 60.2209 35.067 60.0735 35.1765 59.9646C35.286 59.8557 35.4337 59.7938 35.5882 59.7921C35.6637 59.7904 35.7388 59.8037 35.8091 59.8314C35.8794 59.8591 35.9434 59.9006 35.9974 59.9534C36.0514 60.0062 36.0944 60.0692 36.1237 60.1389C36.153 60.2085 36.168 60.2833 36.168 60.3588Z" fill="#263238"/>
<path d="M36.2744 58.3294C36.1987 58.4052 35.7671 58.0494 35.1411 58.0263C34.5151 58.0032 34.0406 58.3031 33.9748 58.2207C33.9089 58.1383 34.0209 58.0461 34.2284 57.8912C34.5071 57.7103 34.8356 57.6216 35.1674 57.6375C35.4938 57.6479 35.8082 57.7635 36.0636 57.967C36.2481 58.1515 36.3107 58.2965 36.2744 58.3294Z" fill="#263238"/>
<path d="M38.326 63.3901C38.6611 63.2983 39.0065 63.2496 39.3539 63.2451C39.5154 63.2451 39.6834 63.2089 39.6999 63.0969C39.7195 62.927 39.6885 62.7551 39.6109 62.6027C39.4758 62.1974 39.3342 61.7724 39.1892 61.3276C38.5995 59.509 38.2008 58.033 38.2535 57.9967C38.3062 57.9605 38.8597 59.4233 39.4462 61.242C39.5879 61.6901 39.7229 62.1151 39.8481 62.5236C39.9449 62.7294 39.9659 62.9628 39.9074 63.1825C39.8821 63.2387 39.8444 63.2884 39.797 63.3278C39.7496 63.3672 39.6939 63.3953 39.634 63.4099C39.5445 63.4314 39.4526 63.4414 39.3605 63.4395C39.015 63.467 38.6673 63.4504 38.326 63.3901Z" fill="#263238"/>
<path d="M36.5555 56.3184C36.4632 56.4798 35.8603 56.2788 35.119 56.2327C34.3777 56.1866 33.755 56.2755 33.6858 56.1009C33.6562 56.0185 33.7879 55.8769 34.0548 55.7714C34.4049 55.6225 34.786 55.5614 35.1651 55.5935C35.5445 55.6152 35.9129 55.7283 36.2392 55.923C36.4863 56.0778 36.595 56.2393 36.5555 56.3184Z" fill="#263238"/>
<path d="M42.5409 56.5424C42.4059 56.6874 41.882 56.5194 41.2824 56.4963C40.6827 56.4732 40.1457 56.5655 40.0304 56.4073C39.9777 56.3316 40.0633 56.1866 40.294 56.0548C40.6121 55.8955 40.9662 55.8217 41.3215 55.8408C41.6768 55.8598 42.021 55.9711 42.3202 56.1635C42.5311 56.3184 42.6002 56.4732 42.5409 56.5424Z" fill="#263238"/>
<path d="M29.4946 60.4284C29.4254 60.3955 26.7204 59.4565 26.6941 62.3327C26.6677 65.209 29.4814 64.639 29.488 64.5632C29.4946 64.4875 29.4946 60.4284 29.4946 60.4284Z" fill="#FFBF9D"/>
<path d="M28.6499 63.462C28.6499 63.462 28.6005 63.4982 28.5181 63.5344C28.4602 63.5586 28.3981 63.5711 28.3353 63.5711C28.2725 63.5711 28.2103 63.5586 28.1524 63.5344C27.8592 63.4191 27.6121 62.9348 27.6055 62.4143C27.5988 62.1684 27.6472 61.9241 27.7472 61.6993C27.7733 61.6106 27.8205 61.5295 27.8847 61.4629C27.949 61.3963 28.0284 61.3463 28.1162 61.3171C28.173 61.3022 28.2333 61.3084 28.286 61.3344C28.3386 61.3604 28.3801 61.4046 28.4028 61.4588C28.4424 61.5379 28.4226 61.5972 28.4391 61.6005C28.4555 61.6038 28.4984 61.5543 28.4753 61.4357C28.4625 61.364 28.4238 61.2995 28.3666 61.2545C28.3303 61.2233 28.2876 61.2003 28.2415 61.1872C28.1954 61.1741 28.147 61.1712 28.0997 61.1788C27.9836 61.2015 27.8753 61.2538 27.7853 61.3305C27.6953 61.4073 27.6266 61.5059 27.5857 61.6169C27.4649 61.8662 27.405 62.1406 27.4111 62.4176C27.4111 62.9974 27.7076 63.5443 28.1096 63.6695C28.1844 63.692 28.2633 63.6972 28.3404 63.6846C28.4174 63.6721 28.4906 63.6421 28.5544 63.597C28.6433 63.5312 28.6598 63.4686 28.6499 63.462Z" fill="#F08C51"/>
<path d="M31.5074 53.2454C31.5727 52.8775 31.7374 52.5345 31.9836 52.2534C32.2299 51.9723 32.5482 51.7639 32.9043 51.6508C33.518 51.4442 34.1837 51.4524 34.7922 51.6738C36.3703 52.2471 39.0753 53.107 39.7638 52.5568C40.772 51.7661 41.0158 51.2389 41.0158 51.2389L41.5726 51.8451C42.024 51.5882 40.6666 50.0792 39.553 49.5586C37.8727 48.7745 35.3061 48.2902 33.7544 48.7416C31.8863 49.2852 30.3345 50.2373 29.3955 51.9868C28.4911 53.7728 28.0654 55.7627 28.16 57.7624C28.16 58.3719 28.0645 60.1181 28.6509 60.2531C29.1089 60.3553 29.692 60.5595 29.6591 61.4359C29.6362 61.7559 29.7404 62.0719 29.949 62.3156C30.4597 62.8757 31.0857 62.3486 31.3756 61.8214C31.9917 60.6946 32.0609 59.3504 32.1136 58.0589C32.2013 57.1428 32.1424 56.2186 31.939 55.321C31.7264 54.75 31.5751 54.158 31.4876 53.5551C31.4834 53.4514 31.49 53.3476 31.5074 53.2454Z" fill="#263238"/>
<path d="M38.4361 64.9457C38.4526 64.9885 38.3241 65.0972 38.0638 65.1532C37.7185 65.222 37.3601 65.166 37.0523 64.9951C36.7435 64.8273 36.5016 64.5587 36.367 64.234C36.2682 63.9869 36.2847 63.8222 36.3308 63.809C36.3769 63.7958 36.6372 64.3559 37.2269 64.6755C37.8167 64.9951 38.4097 64.8501 38.4361 64.9457Z" fill="#263238"/>
<path d="M41.3567 103.328L27.9737 100.382L19.3713 79.0692C19.3713 79.0692 7.87623 81.6192 5.9818 88.057C4.33446 93.6086 0.954126 118.147 8.65048 133.273C9.6312 135.179 11.1194 136.776 12.9509 137.889C14.7823 139.002 16.8857 139.587 19.0287 139.579H77.5981C81.1691 139.579 84.615 138.264 87.2771 135.884C89.9393 133.504 91.6309 130.226 92.0288 126.677C92.3582 123.712 92.5889 120.902 92.5427 119.07L83.1398 111.854L41.3567 103.328Z" fill="#455A64"/>
<g opacity="0.3">
<path d="M77.1362 110.741C81.2578 116.124 86.2723 120.954 92.2686 124.124L92.5552 116.816L81.4785 108.932L77.1362 110.741Z" fill="black"/>
</g>
<path d="M32.9326 74.9236C32.9326 75.3123 35.9769 76.5709 37.3508 76.0174C39.4462 75.1805 39.1859 73.5365 39.1859 73.5365L40.3489 74.7621L52.0022 92.5204L60.6639 98.2367L46.7999 102.628L32.2638 85.9311L32.9326 74.9236Z" fill="#F5F5F5"/>
<path d="M29.2594 68.9635L28.953 69.5368L27.5692 72.1165L21.8134 75.7868L33.6512 89.8583L39.0511 102.628L51.9992 106.681C51.9992 106.681 45.8382 97.2087 43.924 92.3655C42.0097 87.5224 41.8154 87.753 40.0692 84.2013C38.8822 81.6992 37.8265 79.1369 36.9063 76.5248L29.2594 68.9635Z" fill="#F08C51"/>
<path d="M56.9946 94.3175L59.5348 96.6864L60.253 98.1493L50.8105 93.7575L43.9938 84.2029C43.9938 84.2029 41.5656 78.8161 40.7321 76.8854C39.8524 74.8559 39.1967 73.7061 39.1967 73.7061V72.1049L42.6331 75.2084L45.5028 76.0618L50.2998 83.6395L56.9946 94.3175Z" fill="#F08C51"/>
<path d="M54.0858 85.3825C54.0858 85.3825 52.9392 82.9379 52.0036 80.9051C49.895 76.3255 44.9233 75.8906 44.9233 75.8906L50.4188 91.1317L57.1498 95.9057C57.1498 95.9057 59.0673 96.5647 59.3078 95.9057C59.3078 95.9057 60.7081 90.8517 60.6653 90.8319C60.6224 90.8122 55.8748 89.3921 55.8748 89.3921L53.9639 85.1091" fill="#F08C51"/>
<path d="M64.2089 80.6236L57.669 91.519L64.5186 91.3181L70.5578 81.2232C70.6108 81.1346 70.6395 81.0336 70.6407 80.9304C70.6419 80.8272 70.6158 80.7255 70.5648 80.6357C70.5139 80.5459 70.4401 80.4712 70.3508 80.4193C70.2616 80.3674 70.1602 80.3401 70.057 80.3402H64.7097C64.6089 80.3401 64.5097 80.3662 64.4219 80.4158C64.3342 80.4655 64.2608 80.5371 64.2089 80.6236Z" fill="#263238"/>
<path d="M39.0518 92.9461L55.4231 90.9989L58.1741 86.1788L60.3288 84.996C60.5075 84.8972 60.7106 84.8516 60.9143 84.8644C61.118 84.8773 61.3138 84.9481 61.4787 85.0685L61.6829 85.2168L63.2808 85.0158C63.5532 84.9801 63.8297 85.0345 64.0683 85.1706L65.2016 85.8296C65.2833 85.8775 65.3512 85.9458 65.3985 86.0278C65.4459 86.1098 65.4711 86.2027 65.4718 86.2974C65.4717 86.3771 65.454 86.4558 65.4201 86.5279C65.3862 86.6 65.3369 86.6638 65.2756 86.7147C65.2143 86.7657 65.1425 86.8025 65.0654 86.8226C64.9883 86.8427 64.9077 86.8456 64.8293 86.8311L63.7289 86.6302L62.0421 87.1804C62.0421 87.1804 63.1293 87.2957 63.2677 88.1194C63.406 88.943 62.8558 88.9628 62.8558 88.9628C62.8558 88.9628 63.9991 89.6217 63.1853 90.6101C63.1853 90.6101 64.1408 91.246 63.07 92.4519C62.3485 93.2689 57.1396 95.931 57.1396 95.931L39.0518 102.629V92.9461Z" fill="#FFBF9D"/>
<path d="M63.1575 90.6045C63.1575 90.6045 63.2794 90.6045 63.4243 90.7528C63.5186 90.862 63.5839 90.9931 63.6144 91.1341C63.645 91.2752 63.6396 91.4216 63.599 91.56C63.4557 91.9517 63.2127 92.2992 62.8939 92.5682C62.5382 92.9165 62.1536 93.2339 61.7441 93.517C60.9959 94.0186 60.2055 94.454 59.3818 94.8184C59.0518 94.9896 58.7065 95.1296 58.3505 95.2368C58.6678 95.0392 58.998 94.863 59.3389 94.7097C60.1372 94.3179 60.9077 93.8721 61.6452 93.3754C62.0489 93.0983 62.43 92.7898 62.7852 92.4528C63.0909 92.2075 63.33 91.8891 63.4804 91.527C63.522 91.4055 63.5342 91.2758 63.5158 91.1486C63.4975 91.0214 63.4492 90.9004 63.3749 90.7956C63.3117 90.7221 63.2385 90.6578 63.1575 90.6045Z" fill="#F08C51"/>
<path d="M61.6211 85.2606C61.371 85.4149 61.0936 85.52 60.804 85.5703C60.5282 85.6733 60.2352 85.7225 59.9408 85.7152C60.1903 85.5596 60.4679 85.4544 60.7579 85.4055C61.0337 85.3026 61.3268 85.2533 61.6211 85.2606Z" fill="#F08C51"/>
<path d="M63.7312 86.6171C63.3749 86.8231 62.9926 86.9804 62.5945 87.0849C62.2127 87.2407 61.8115 87.3438 61.4018 87.3913C61.7566 87.1823 62.1393 87.0248 62.5385 86.9235C62.9197 86.7659 63.3212 86.6628 63.7312 86.6171Z" fill="#F08C51"/>
<path d="M61.7831 88.801C61.7336 88.801 61.7106 88.6527 61.6546 88.4913C61.5986 88.3298 61.5327 88.2046 61.5689 88.1618C61.6051 88.119 61.7501 88.2277 61.816 88.4287C61.8819 88.6296 61.8127 88.8075 61.7831 88.801Z" fill="#F08C51"/>
<path d="M62.3288 90.6923C62.2793 90.6923 62.2991 90.4452 62.2299 90.1783C62.1607 89.9115 62.0421 89.7072 62.0784 89.6742C62.1146 89.6413 62.3189 89.8192 62.4078 90.1355C62.4968 90.4518 62.3716 90.6923 62.3288 90.6923Z" fill="#F08C51"/>
<path d="M22.2722 75.495C21.7253 75.8244 17.0963 78.9873 17.7717 84.1665C18.4471 89.3458 28.6935 101.055 30.8318 101.279L39.052 102.63V92.9469L35.0984 92.7228L29.9323 82.5884L22.2722 75.495Z" fill="#F08C51"/>
<path d="M39.0513 92.4779C38.9546 92.4957 38.8564 92.5045 38.7581 92.5042L37.9278 92.5372L34.9824 92.6031H34.9429L34.9165 92.5701L32.8343 89.7697C31.5922 88.0927 30.4786 86.5672 29.678 85.4569L28.739 84.1391C28.6156 83.9814 28.5054 83.8139 28.4095 83.6383C28.5487 83.7807 28.6764 83.9338 28.7917 84.0962L29.7801 85.3812C30.6071 86.4684 31.7569 87.9839 32.9792 89.6642L35.045 92.4746L34.9791 92.4416H37.9245H38.7548C38.8547 92.4414 38.9543 92.4536 39.0513 92.4779Z" fill="#263238"/>
<path d="M37.0549 77.7915C36.9929 77.6985 36.9389 77.6004 36.8935 77.4983L36.4882 76.6483H36.5772C36.2781 77.0832 36.0127 77.5403 35.7832 78.0156C35.4925 78.6483 35.1475 79.2546 34.7519 79.8276L34.686 79.9199L34.6168 79.8309C34.0831 79.172 33.4736 78.4768 32.8179 77.7619C31.3848 76.2035 30.0142 74.8527 29.0357 73.8643L27.8792 72.6881C27.7331 72.5501 27.5986 72.4002 27.4773 72.24C27.6388 72.3611 27.7908 72.4944 27.9319 72.6387L29.1279 73.772C30.1163 74.7374 31.5166 76.0783 32.9563 77.6367C33.6153 78.3549 34.2215 79.06 34.7519 79.7222H34.6135C35.0068 79.1575 35.355 78.5626 35.6547 77.9431C35.8946 77.466 36.1757 77.0107 36.4948 76.5824L36.5475 76.5099L36.5805 76.589C36.7287 76.9448 36.8506 77.2314 36.9429 77.4588C36.9943 77.5644 37.0319 77.6763 37.0549 77.7915Z" fill="#263238"/>
<path d="M42.676 75.3127C42.7859 75.4598 42.8695 75.6247 42.9231 75.8003C43.0919 76.2456 43.236 76.6999 43.3547 77.161L43.4667 77.563L43.2097 77.2335C42.842 76.7774 42.4388 76.351 42.0039 75.9585C41.6217 75.6092 41.2494 75.2995 40.9101 74.9898L41.0484 74.9371C41.0008 75.4771 40.9843 76.0195 40.999 76.5614C41.0115 76.7766 40.9836 76.9923 40.9166 77.1973C40.8969 77.1973 40.9166 76.9633 40.8936 76.5647C40.8507 76.0164 40.8507 75.4656 40.8936 74.9173L40.9101 74.7625L41.032 74.8646C41.3614 75.1513 41.7568 75.4709 42.1423 75.8267C42.5862 76.2276 42.9921 76.6688 43.3547 77.1445L43.2097 77.2137C43.0681 76.6438 42.9527 76.1693 42.8473 75.8431C42.7776 75.6706 42.7204 75.4934 42.676 75.3127Z" fill="#263238"/>
<path d="M54.5664 91.1003C54.426 90.9905 54.2948 90.8693 54.1743 90.7379L53.1629 89.7034C52.7379 89.2586 52.2338 88.7611 51.6803 88.145C51.4266 87.8156 51.2025 87.463 50.939 87.1171C50.6715 86.7433 50.4419 86.3438 50.2537 85.9244C49.8616 85.0744 49.5651 84.2342 49.2982 83.4732C49.0313 82.7121 48.7974 82.0235 48.5833 81.4568C48.3691 80.8902 48.1714 80.4355 48.0199 80.139C47.9306 79.9861 47.8514 79.8277 47.7827 79.6645C47.7827 79.6645 47.8189 79.6975 47.8683 79.77C47.9464 79.8753 48.018 79.9853 48.0825 80.0994C48.3188 80.5246 48.5268 80.9648 48.7052 81.4173C48.9391 81.984 49.1862 82.666 49.4597 83.4238C49.7331 84.1815 50.0329 85.0151 50.4217 85.8552C50.6042 86.2628 50.8248 86.6522 51.0806 87.0183C51.3475 87.3708 51.5715 87.7365 51.812 88.0495C52.3293 88.6392 52.8466 89.173 53.2518 89.621L54.2238 90.6918C54.3493 90.818 54.464 90.9547 54.5664 91.1003Z" fill="#263238"/>
<path d="M59.3174 96.5669L90.3928 95.6939C90.8851 95.6808 91.3745 95.7718 91.8293 95.9607C92.9594 96.4417 94.9922 97.6772 96.3858 100.636C98.4055 104.919 107.828 123.04 107.828 123.04L98.3 127.922L86.6138 106.243L50.5833 103.179L51.0017 100.3L59.3174 96.5669Z" fill="#263238"/>
<path d="M95.4674 124.103L100.432 132.627L100.762 134.781C100.81 135.095 100.919 135.396 101.083 135.667C101.247 135.938 101.463 136.174 101.719 136.362C101.974 136.549 102.264 136.685 102.572 136.76C102.88 136.835 103.2 136.849 103.513 136.801L118.626 134.495C118.804 134.471 118.975 134.407 119.125 134.307C119.274 134.206 119.399 134.073 119.489 133.917C119.579 133.761 119.632 133.587 119.644 133.407C119.656 133.227 119.627 133.047 119.558 132.88C119.493 132.733 119.394 132.603 119.269 132.501C119.144 132.399 118.997 132.328 118.84 132.294C117.575 131.965 107.822 128.39 107.822 128.39L103.757 120.232L95.4674 124.103Z" fill="#E0E0E0"/>
<path d="M99.6291 126.078C99.2142 125.657 98.8402 125.198 98.5122 124.707C98.1346 124.25 97.8035 123.757 97.5238 123.235C97.937 123.656 98.3099 124.114 98.6374 124.605C99.0153 125.062 99.3474 125.556 99.6291 126.078Z" fill="#263238"/>
<path d="M102.593 124.886C102.177 124.461 101.826 123.977 101.552 123.449C101.229 122.949 100.981 122.406 100.814 121.835C100.86 121.812 101.209 122.523 101.7 123.364C102.191 124.204 102.636 124.856 102.593 124.886Z" fill="#263238"/>
<path d="M104.668 136.528C104.635 136.528 104.555 136.234 104.338 135.79C104.047 135.213 103.633 134.707 103.124 134.308C102.616 133.91 102.026 133.628 101.396 133.483C100.912 133.368 100.599 133.365 100.599 133.332C100.871 133.27 101.153 133.27 101.426 133.332C102.092 133.444 102.719 133.721 103.25 134.139C103.782 134.556 104.2 135.1 104.467 135.721C104.591 135.972 104.66 136.247 104.668 136.528Z" fill="#263238"/>
<path d="M114.849 135.062C114.724 134.897 114.642 134.703 114.609 134.499C114.49 134.007 114.515 133.491 114.681 133.013C114.853 132.544 115.121 132.116 115.469 131.758C115.597 131.596 115.756 131.462 115.937 131.362C115.956 131.385 115.802 131.56 115.574 131.85C115.277 132.22 115.039 132.635 114.869 133.079C114.718 133.526 114.676 134.003 114.747 134.469C114.797 134.664 114.831 134.862 114.849 135.062Z" fill="#263238"/>
<path d="M49.8028 100.807C49.8028 100.807 81.8699 97.591 83.4282 97.7195C86.3045 97.9567 91.6089 102.493 101.022 108.813C105.899 112.127 110.425 115.93 114.53 120.163L111.522 127.029C111.522 127.029 90.436 119.342 87.1249 116.578C84.3771 114.272 79.3626 111.01 79.3626 111.01L66.9944 111.135L57.799 111.946C55.5308 112.147 53.2486 111.771 51.1646 110.853C49.0806 109.936 47.2623 108.506 45.8788 106.697L42.3107 102.035L49.8028 100.807Z" fill="#263238"/>
<path d="M79.2062 110.915C79.2062 110.915 79.2589 110.945 79.3545 111.011L79.7861 111.307L81.4499 112.477C82.8962 113.508 85.018 114.991 87.6208 116.958C87.7855 117.079 87.9503 117.221 88.115 117.33L88.6454 117.659C89.0276 117.85 89.4098 118.061 89.815 118.249L91.0538 118.826L92.3717 119.402C94.153 120.173 96.0738 120.977 98.1341 121.814C102.246 123.484 106.858 125.3 111.837 127.214L111.728 127.263L114.453 120.345L114.472 120.443L110.73 116.628C109.85 115.867 108.908 115.057 107.946 114.256C102.207 109.527 96.2059 105.127 89.9699 101.077C89.1255 100.354 88.2143 99.7134 87.2485 99.163C86.3316 98.629 85.3552 98.2044 84.3393 97.8979C84.0889 97.832 83.8385 97.7793 83.5914 97.7167L82.8435 97.6014L82.0956 97.5618H78.4715L68.7884 97.5421L62.5022 97.5157H60.8549H60.4266C60.3783 97.5186 60.3299 97.5186 60.2816 97.5157H60.4266H60.8549H62.5022L68.7884 97.4926L78.4715 97.4729H82.0956L82.8567 97.5091L83.6211 97.6244C83.8715 97.687 84.1251 97.7397 84.3788 97.8089C85.4077 98.1143 86.3965 98.5413 87.3243 99.0807C88.3026 99.6338 89.225 100.28 90.0786 101.011C96.327 105.056 102.338 109.456 108.081 114.19C109.046 114.991 109.988 115.801 110.868 116.566L114.611 120.384L114.65 120.427L114.631 120.483L111.896 127.402L111.866 127.481L111.787 127.451C106.809 125.53 102.196 123.705 98.088 122.025C96.0354 121.185 94.1113 120.377 92.3322 119.597L91.0143 119.013L89.7623 118.368C89.3604 118.173 88.9749 117.962 88.5927 117.768L88.0491 117.439C87.8712 117.33 87.7196 117.188 87.5549 117.066C84.9653 115.089 82.8501 113.59 81.4169 112.543L79.7696 111.353L79.3479 111.044C79.2457 110.955 79.2062 110.915 79.2062 110.915Z" fill="#455A64"/>
<path d="M104.7 125.286L113.595 128.782L115.075 130.383C115.29 130.616 115.549 130.804 115.837 130.937C116.125 131.069 116.437 131.144 116.754 131.156C117.071 131.168 117.387 131.118 117.685 131.008C117.982 130.898 118.255 130.73 118.488 130.515L129.709 120.13C129.844 120.01 129.949 119.861 130.017 119.694C130.085 119.527 130.113 119.347 130.1 119.167C130.088 118.987 130.034 118.813 129.943 118.657C129.853 118.501 129.728 118.368 129.578 118.269C129.441 118.184 129.286 118.132 129.126 118.118C128.966 118.103 128.805 118.127 128.655 118.186C127.426 118.628 117.341 121.122 117.341 121.122L110.577 115.732L104.7 125.286Z" fill="#E0E0E0"/>
<path d="M104.7 125.286C104.7 125.286 104.729 125.23 104.795 125.118L105.095 124.624C105.362 124.179 105.754 123.536 106.251 122.713C107.266 121.042 108.729 118.644 110.534 115.698L110.571 115.636L110.63 115.682L117.394 121.059H117.325L123.341 119.543L126.52 118.716C127.057 118.571 127.601 118.43 128.141 118.271L128.543 118.146C128.683 118.093 128.829 118.058 128.978 118.044C129.133 118.038 129.288 118.064 129.433 118.12C129.577 118.177 129.709 118.263 129.818 118.374C130.033 118.588 130.163 118.872 130.185 119.175C130.207 119.477 130.121 119.777 129.94 120.021C129.85 120.14 129.748 120.251 129.637 120.35L129.331 120.634L128.721 121.197L126.329 123.408L121.806 127.585L119.7 129.529L118.692 130.462C118.528 130.62 118.35 130.763 118.158 130.887C117.69 131.175 117.138 131.298 116.591 131.239C116.044 131.179 115.533 130.939 115.137 130.557C114.57 129.968 114.056 129.391 113.552 128.847H113.575C110.831 127.754 108.61 126.871 107.065 126.251L105.312 125.543L104.858 125.358L104.709 125.296C104.709 125.296 104.769 125.312 104.878 125.355L105.342 125.53L107.121 126.215L113.618 128.735C114.126 129.276 114.65 129.856 115.203 130.432C115.5 130.715 115.867 130.916 116.265 131.014C116.664 131.111 117.082 131.103 117.476 130.989C117.682 130.93 117.878 130.842 118.06 130.729C118.242 130.609 118.412 130.471 118.567 130.317C118.896 130.01 119.226 129.697 119.575 129.384C120.256 128.752 120.957 128.102 121.677 127.434C123.114 126.116 124.626 124.699 126.194 123.25C126.976 122.523 127.772 121.785 128.583 121.036L129.192 120.472C129.399 120.293 129.595 120.102 129.779 119.899C129.936 119.688 130.012 119.428 129.994 119.166C129.976 118.903 129.864 118.656 129.68 118.469C129.586 118.377 129.474 118.305 129.351 118.258C129.228 118.212 129.096 118.192 128.965 118.199C128.831 118.212 128.701 118.245 128.576 118.294L128.164 118.42C127.621 118.578 127.08 118.72 126.54 118.864L123.357 119.688L117.341 121.194H117.302L117.272 121.171L110.544 115.781H110.64L106.327 122.719L105.131 124.627L104.802 125.124C104.742 125.223 104.7 125.286 104.7 125.286Z" fill="#263238"/>
<path d="M119.281 129.643C119.258 129.666 119.024 129.462 118.586 129.221C118.022 128.905 117.395 128.717 116.751 128.671C116.106 128.625 115.459 128.722 114.856 128.954C114.391 129.129 114.128 129.3 114.108 129.284C114.305 129.085 114.542 128.931 114.803 128.832C115.418 128.553 116.093 128.432 116.766 128.48C117.439 128.528 118.09 128.745 118.658 129.109C118.903 129.238 119.116 129.42 119.281 129.643Z" fill="#263238"/>
<path d="M126.897 122.727C126.702 122.659 126.525 122.546 126.38 122.398C126.007 122.056 125.741 121.615 125.612 121.126C125.492 120.641 125.474 120.136 125.559 119.644C125.574 119.439 125.632 119.239 125.727 119.057C125.744 119.258 125.735 119.461 125.701 119.66C125.658 120.134 125.693 120.611 125.803 121.073C125.928 121.53 126.16 121.949 126.482 122.296C126.729 122.559 126.917 122.698 126.897 122.727Z" fill="#263238"/>
<path d="M73.755 110.918C73.0664 107.653 71.6596 104.312 68.8756 102.477C66.7637 101.08 64.151 100.738 61.6273 100.428L9.0904 93.9672C8.61926 102.247 12.1643 112.552 15.7819 120.018C16.342 121.178 16.991 122.364 18.0651 123.072C19.383 123.936 21.0567 123.926 22.6249 123.886C40.3008 123.435 57.9834 122.684 75.5604 120.75C74.572 117.564 74.4403 114.18 73.755 110.918Z" fill="#455A64"/>
<path d="M28.4196 96.3421C28.2124 96.3447 28.0054 96.3315 27.8002 96.3026L26.1199 96.1214C24.7032 95.9566 22.7495 95.7161 20.5947 95.4196C18.44 95.1231 16.4896 94.8233 15.0861 94.5762C14.381 94.451 13.8143 94.3488 13.4387 94.2467C13.2343 94.2126 13.0327 94.163 12.8358 94.0984C13.0428 94.1081 13.2487 94.1335 13.4519 94.1742L15.119 94.4312C16.5291 94.6421 18.4763 94.9221 20.631 95.2186L26.1496 95.9731L27.8233 96.2136C28.0251 96.2408 28.2245 96.2837 28.4196 96.3421Z" fill="#263238"/>
<path d="M28.6903 139.562C28.6696 139.53 28.652 139.496 28.6376 139.46C28.5981 139.384 28.5519 139.282 28.4926 139.157L27.9589 137.981L27.5734 137.147C27.4416 136.818 27.3131 136.488 27.1649 136.113C26.8815 135.372 26.5257 134.535 26.2226 133.576C26.0645 133.102 25.8931 132.604 25.7251 132.083C25.5571 131.563 25.3956 131.009 25.2474 130.436C24.9179 129.306 24.6346 128.074 24.3315 126.782C23.109 121.146 22.7084 115.362 23.1421 109.61C23.264 108.293 23.3595 107.034 23.544 105.868C23.633 105.285 23.6923 104.718 23.7911 104.178C23.89 103.637 23.9888 103.123 24.0811 102.629C24.2491 101.641 24.4863 100.761 24.6642 99.9933C24.7598 99.6046 24.8388 99.2454 24.9278 98.916C25.0168 98.5865 25.1123 98.29 25.1914 98.0198C25.3462 97.4894 25.4714 97.0743 25.5571 96.781L25.6592 96.4516C25.6686 96.414 25.6818 96.3776 25.6988 96.3428C25.6963 96.3811 25.6885 96.4188 25.6757 96.4549L25.5933 96.7843L25.2639 98.0297L25.0168 98.9292C24.9344 99.2586 24.8586 99.6243 24.7697 100.01C24.5983 100.787 24.371 101.657 24.2129 102.646C24.1272 103.136 24.0317 103.654 23.9361 104.191C23.8406 104.728 23.7846 105.294 23.7022 105.878C23.521 107.041 23.432 108.296 23.3134 109.614C22.9064 115.352 23.3057 121.119 24.4995 126.746C24.7993 128.034 25.0596 129.267 25.3989 130.393C25.5604 130.96 25.6955 131.51 25.8635 132.041C26.0315 132.571 26.193 133.059 26.3511 133.533C26.6443 134.492 26.9903 135.329 27.2637 136.077C27.4087 136.449 27.5306 136.798 27.6591 137.114L28.0281 137.968L28.5289 139.157L28.6574 139.47C28.6715 139.5 28.6826 139.531 28.6903 139.562Z" fill="#263238"/>
<path d="M28.1312 122.868C27.444 122.931 26.7526 122.931 26.0654 122.868C25.3737 122.868 24.6834 122.805 24.003 122.681C24.6913 122.62 25.3837 122.62 26.072 122.681C26.7626 122.683 27.4516 122.746 28.1312 122.868Z" fill="#263238"/>
<path d="M27.6557 125.287C26.922 125.223 26.2046 125.034 25.5339 124.73C24.84 124.483 24.1937 124.118 23.623 123.653C23.6527 123.607 24.4895 124.111 25.5998 124.559C26.7101 125.007 27.6656 125.214 27.6557 125.287Z" fill="#263238"/>
<path d="M23.0529 108.773C22.6422 109.031 22.1703 109.175 21.6856 109.191C21.2063 109.266 20.7158 109.215 20.2623 109.043C20.2623 108.987 20.8982 109.083 21.6691 109.007C22.4401 108.931 23.0331 108.723 23.0529 108.773Z" fill="#263238"/>
<path d="M24.1011 107.983C23.5909 108.09 23.0597 108.023 22.5921 107.792C22.1005 107.618 21.6824 107.283 21.406 106.84C21.7997 107.14 22.2212 107.401 22.6646 107.621C23.4158 107.947 24.1011 107.924 24.1011 107.983Z" fill="#263238"/>
<path d="M42.6039 51.5389C42.4728 51.1973 42.2616 50.8922 41.9882 50.6491C41.7147 50.406 41.3869 50.2321 41.0323 50.142C40.3187 49.9654 39.5698 49.9928 38.871 50.2211L32.0444 51.7827C33.0328 52.4417 35.0656 53.0611 36.232 53.1863C37.9353 53.3675 39.1346 53.384 40.1493 52.7975C40.2153 52.9658 40.3163 53.1181 40.4455 53.2445C40.5747 53.3709 40.7293 53.4684 40.899 53.5307C41.0686 53.593 41.2496 53.6186 41.4299 53.6058C41.6102 53.593 41.7857 53.5421 41.9449 53.4564C42.2528 53.2561 42.4849 52.9585 42.6043 52.6111C42.7237 52.2636 42.7236 51.8863 42.6039 51.5389Z" fill="#263238"/>
<path d="M110.804 123.151C109.416 122.863 108.082 122.361 106.85 121.662C106.87 121.616 107.74 121.991 108.827 122.4C109.914 122.808 110.817 123.105 110.804 123.151Z" fill="#263238"/>
<path d="M112.306 120.233C111.709 119.987 111.125 119.711 110.557 119.406C109.963 119.154 109.383 118.87 108.82 118.556C109.45 118.713 110.059 118.946 110.632 119.251C111.23 119.506 111.792 119.836 112.306 120.233Z" fill="#263238"/>
<path d="M57.9333 99.558L71.6951 99.726L88.3134 96.4314C88.5745 96.3767 88.8128 96.2442 88.9969 96.0512C89.1811 95.8583 89.3023 95.614 89.3447 95.3507L91.6048 80.3863C91.6304 80.2145 91.6151 80.0392 91.5601 79.8744C91.5051 79.7097 91.4121 79.5603 91.2885 79.4383C91.1649 79.3163 91.0142 79.2252 90.8488 79.1724C90.6834 79.1195 90.5078 79.1065 90.3364 79.1343L73.3523 81.8986C73.117 81.9371 72.9004 82.0506 72.7348 82.2222C72.5691 82.3937 72.4633 82.6142 72.4331 82.8507L70.5387 98.0688L57.953 98.0062C57.7474 98.0062 57.5501 98.0877 57.4044 98.2328C57.2587 98.3779 57.1763 98.5748 57.1755 98.7805C57.1746 98.9836 57.2535 99.1789 57.3952 99.3243C57.537 99.4698 57.7302 99.5537 57.9333 99.558Z" fill="#E0E0E0"/>
<path d="M57.9307 99.5588C57.8418 99.5654 57.7526 99.5507 57.6705 99.516C57.5459 99.4712 57.4348 99.3953 57.3477 99.2956C57.2606 99.1958 57.2005 99.0755 57.173 98.946C57.1507 98.84 57.1502 98.7305 57.1716 98.6243C57.193 98.518 57.2359 98.4173 57.2976 98.3282C57.3592 98.2391 57.4384 98.1635 57.5303 98.106C57.6222 98.0485 57.7248 98.0103 57.8319 97.9939C58.336 97.9741 58.906 97.9939 59.5583 97.9939L70.5329 98.0202L70.4736 98.0729C71.0139 93.6943 71.6563 88.5184 72.3647 82.7593C72.4058 82.5671 72.4938 82.388 72.6208 82.2379C72.7478 82.0879 72.91 81.9716 73.0928 81.8994C73.2727 81.8415 73.4583 81.8028 73.6463 81.7841L74.1933 81.6918L76.4106 81.3327L80.9803 80.5848L85.7147 79.8204L88.133 79.4284L89.3553 79.2274L89.9681 79.1286C90.1782 79.083 90.3924 79.0598 90.6073 79.0594C90.8425 79.0798 91.0664 79.1691 91.251 79.3162C91.4356 79.4633 91.5727 79.6617 91.6451 79.8863C91.7073 80.1086 91.7141 80.3428 91.6649 80.5683L91.5661 81.2075C91.4387 82.0597 91.3113 82.9065 91.1839 83.7477C90.9302 85.4247 90.6798 87.0819 90.4327 88.7062C90.1856 90.3304 89.9451 91.9218 89.7112 93.4835L89.5332 94.6432C89.5036 94.8376 89.4772 95.0287 89.4476 95.2197C89.4287 95.4222 89.3741 95.6196 89.2862 95.8029C89.1936 95.9846 89.0621 96.1435 88.9008 96.2682C88.7396 96.393 88.5528 96.4805 88.3538 96.5244L87.2401 96.7452L71.7058 99.8026L61.6175 99.6544L58.8928 99.605L58.1581 99.5885H58.8664L61.5944 99.605L71.6827 99.7005L87.2105 96.6035L88.3208 96.3795C88.4967 96.3413 88.6619 96.2644 88.8043 96.1544C88.9468 96.0444 89.063 95.9041 89.1445 95.7436C89.2246 95.5761 89.2727 95.3951 89.2862 95.2099L89.3751 94.6333C89.4311 94.2478 89.4904 93.859 89.5497 93.4703L90.268 88.693C90.5118 87.0698 90.7611 85.4225 91.0159 83.751C91.1411 82.9119 91.2684 82.0652 91.398 81.2108L91.4936 80.5716C91.5448 80.3739 91.5448 80.1664 91.4936 79.9687C91.4324 79.7762 91.3156 79.6062 91.1578 79.4801C91.0001 79.3541 90.8085 79.2776 90.6073 79.2603C90.4068 79.2621 90.207 79.2842 90.011 79.3262L89.3949 79.4284L88.1758 79.6261L85.7543 80.0181L81.0231 80.7891L76.4534 81.5304L74.2361 81.8895L73.6892 81.9784C73.5112 81.9958 73.3355 82.0323 73.1653 82.0872C73.0074 82.1486 72.8673 82.2487 72.758 82.3782C72.6486 82.5077 72.5735 82.6625 72.5393 82.8285C71.8145 88.5678 71.1621 93.7503 70.6119 98.1256V98.1784H70.5559L59.5814 98.0993C58.9224 98.0993 58.3525 98.0795 57.8615 98.0993C57.7507 98.1146 57.6446 98.1545 57.5511 98.2161C57.4576 98.2776 57.3791 98.3593 57.3212 98.4551C57.2642 98.5496 57.2285 98.6554 57.2166 98.7651C57.2047 98.8748 57.2169 98.9857 57.2524 99.0902C57.2879 99.1947 57.3457 99.2902 57.4219 99.37C57.4981 99.4498 57.5908 99.512 57.6935 99.5522C57.7721 99.5638 57.8517 99.566 57.9307 99.5588Z" fill="#263238"/>
<path d="M73.9027 82.3809C73.9488 82.3809 73.4941 86.3576 72.8846 91.2535C72.2751 96.1494 71.7447 100.113 71.6953 100.106C71.6458 100.1 72.1071 96.1296 72.7166 91.2337C73.3261 86.3379 73.8566 82.3743 73.9027 82.3809Z" fill="#263238"/>
<path d="M81.2882 88.5573C80.9423 89.2789 81.1334 90.0894 81.7132 90.3694C82.2931 90.6495 83.0311 90.287 83.3902 89.5655C83.7493 88.844 83.5451 88.0335 82.9652 87.7567C82.3853 87.48 81.6342 87.8358 81.2882 88.5573Z" fill="white"/>
<path d="M206.973 82.3398C206.968 82.3828 206.957 82.4249 206.941 82.465L206.822 82.8241C206.716 83.1371 206.565 83.5984 206.351 84.1914C205.936 85.3775 205.31 87.0874 204.483 89.1795C202.35 94.6388 199.8 99.9259 196.855 104.994C196.025 106.433 195.297 107.93 194.678 109.471C194.119 110.918 193.727 112.423 193.511 113.959C193.189 116.568 193.189 119.207 193.511 121.817C193.752 124.05 194.075 125.843 194.282 127.088C194.388 127.698 194.47 128.179 194.529 128.515C194.556 128.67 194.576 128.791 194.589 128.884C194.598 128.926 194.603 128.969 194.605 129.012C194.591 128.971 194.58 128.929 194.572 128.887C194.553 128.798 194.526 128.676 194.497 128.518C194.431 128.188 194.335 127.707 194.216 127.098C193.989 125.862 193.646 124.073 193.39 121.826C193.053 119.202 193.047 116.546 193.37 113.919C193.581 112.371 193.971 110.853 194.533 109.396C195.153 107.841 195.884 106.332 196.72 104.882C199.658 99.8182 202.219 94.5444 204.381 89.1038C205.224 87.0215 205.866 85.3182 206.301 84.1387C206.519 83.5555 206.687 83.1009 206.802 82.7813L206.937 82.4288C206.954 82.3793 206.973 82.3398 206.973 82.3398Z" fill="#263238"/>
<path d="M203.782 102.099C203.752 102.165 203.717 102.229 203.677 102.29L203.347 102.82C203.057 103.282 202.626 103.94 202.092 104.751C201.025 106.375 199.502 108.586 197.97 111.123C197.213 112.395 196.537 113.633 195.971 114.783C195.404 115.933 194.949 116.997 194.59 117.897C194.231 118.796 193.967 119.544 193.803 120.055C193.717 120.299 193.651 120.496 193.598 120.648C193.579 120.718 193.551 120.785 193.516 120.849C193.524 120.777 193.54 120.706 193.565 120.638C193.608 120.483 193.668 120.282 193.737 120.035C193.885 119.511 194.139 118.767 194.475 117.854C194.811 116.941 195.262 115.877 195.826 114.714C196.389 113.551 197.061 112.309 197.825 111.034C199.358 108.49 200.899 106.29 201.99 104.682L203.291 102.784L203.65 102.27C203.688 102.209 203.733 102.151 203.782 102.099Z" fill="#263238"/>
<path d="M206.941 82.3391C207.023 81.5352 206.154 80.7346 205.396 80.4512C204.615 80.2222 203.785 80.2222 203.004 80.4512C200.714 80.997 198.631 82.191 197.002 83.8901C195.374 85.5893 194.27 87.7217 193.822 90.0321C195.937 88.9863 198.112 88.0666 200.335 87.2778L199.96 87.3865C201.038 87.169 202.056 86.7199 202.944 86.0702C203.832 85.4206 204.569 84.586 205.103 83.624C205.276 83.239 205.508 82.8833 205.791 82.5697C205.936 82.416 206.125 82.3112 206.333 82.2699C206.54 82.2286 206.755 82.2528 206.948 82.3391" fill="#9BB167"/>
<path d="M206.947 82.3342C209.049 80.8805 211.634 80.3005 214.156 80.7165C215.404 80.9365 216.587 81.4287 217.623 82.1582C218.659 82.8876 219.521 83.8364 220.149 84.9369C220.753 86.0481 221.073 87.2917 221.079 88.5565C221.085 89.8214 220.778 91.0681 220.185 92.1852C219.019 89.7636 217.77 87.2432 215.602 85.6552C215.092 85.2862 214.518 84.9468 214.232 84.3834C213.902 83.7245 214.037 82.9305 213.751 82.2584C213.402 81.4314 212.433 81.1876 211.54 81.1415C210.647 81.0954 208.041 81.9223 206.947 82.321" fill="#9BB167"/>
<path d="M206.888 82.2942C209.043 81.655 211.481 82.7093 212.951 84.3237C214.42 85.9381 215.161 88.106 215.415 90.2739C215.669 92.4418 215.465 94.6327 215.244 96.8039C213.556 94.2843 212.301 91.5004 211.531 88.5672C211.201 87.2493 210.931 85.8788 210.308 84.6597C209.951 84.0349 209.458 83.4978 208.867 83.0879C208.275 82.6781 207.599 82.4057 206.888 82.2909" fill="#9BB167"/>
<path d="M206.819 82.34C208.542 81.5427 209.514 79.7438 209.735 77.8559C209.835 76.909 209.697 75.9521 209.332 75.0726C208.967 74.1931 208.387 73.4192 207.646 72.8217C206.798 73.6194 206.195 74.6434 205.91 75.7725C205.626 76.9017 205.67 78.0888 206.038 79.1936C206.404 80.2314 207.066 81.2692 206.819 82.34Z" fill="#9BB167"/>
<path d="M193.047 117.286C193.003 117.204 192.966 117.118 192.938 117.029C192.869 116.858 192.787 116.601 192.652 116.278C192.401 115.619 191.993 114.696 191.475 113.573C190.051 110.655 188.426 107.838 186.612 105.145C184.831 102.429 182.855 99.8446 180.702 97.4125C180.052 96.6744 179.345 95.9891 178.587 95.3632C178.379 95.1953 178.158 95.0433 177.928 94.9086C177.843 94.8687 177.761 94.8224 177.684 94.7702C177.773 94.8002 177.859 94.8354 177.944 94.8756C178.183 95.0023 178.411 95.1477 178.626 95.3105C179.404 95.92 180.127 96.5957 180.787 97.3301C182.973 99.744 184.967 102.325 186.751 105.05C188.577 107.747 190.196 110.578 191.594 113.52C192.114 114.657 192.493 115.596 192.724 116.255C192.849 116.584 192.922 116.841 192.981 117.016C193.011 117.104 193.033 117.194 193.047 117.286Z" fill="#263238"/>
<path d="M199.245 136.968H187.47L185.635 123.338H201.436L199.245 136.968Z" fill="#F08C51"/>
<path d="M210.28 106.978C209.091 104.425 206.033 102.758 203.226 102.985C203.529 103.135 203.792 103.354 203.995 103.624C204.198 103.894 204.335 104.208 204.396 104.54C204.506 105.205 204.566 105.876 204.574 106.55C204.827 109.775 206.903 112.526 208.893 115.073C210.293 116.862 211.703 118.661 213.377 120.2C213.176 115.614 212.886 110.754 210.28 106.978Z" fill="#9BB167"/>
<path d="M203.226 103.02C205.009 101.649 207.308 101.079 209.559 101.043C211.809 101.007 214.029 101.504 216.207 102.058C217.525 102.387 218.843 102.756 219.966 103.514C221.09 104.272 221.979 105.491 221.999 106.838C220.151 104.806 217.172 104.414 214.533 103.646C212.748 103.129 211.021 102.384 209.199 101.999C207.154 101.665 205.055 102.012 203.226 102.987" fill="#9BB167"/>
<path d="M203.53 102.658C202.75 101.838 203.181 99.9201 203.86 99.0173C204.539 98.1146 205.623 97.6039 206.69 97.225C208.093 96.7245 209.549 96.3851 211.029 96.2136C210.839 97.1441 210.358 97.9901 209.655 98.6286C208.954 99.258 208.188 99.8103 207.369 100.276L203.524 102.655" fill="#9BB167"/>
<path d="M196.206 101.564C193.976 102.552 192.253 104.368 190.582 106.147C193.058 105.544 195.426 104.564 197.603 103.241C198.466 102.714 199.323 102.124 200.311 101.903C201.3 101.682 202.407 102.124 203.231 102.806C201.83 100.743 198.437 100.575 196.206 101.564Z" fill="#9BB167"/>
<path d="M195.153 116.156C196.401 113.29 195.874 109.814 197.459 107.122C198.675 105.06 200.915 103.828 203.146 102.964C203.663 104.516 203.416 106.259 202.76 107.752C202.104 109.244 201.063 110.549 199.966 111.761C198.447 113.438 196.797 114.99 195.149 116.542" fill="#9BB167"/>
<path d="M202.16 123.338H184.55V126.406H202.16V123.338Z" fill="#F08C51"/>
<path d="M201.574 126.503C201.574 126.552 197.762 126.588 193.064 126.588C188.365 126.588 184.55 126.552 184.55 126.503C184.55 126.453 188.362 126.417 193.064 126.417C197.765 126.417 201.574 126.457 201.574 126.503Z" fill="#263238"/>
<path d="M207.735 82.4559C207.152 81.3667 206.467 80.3352 205.689 79.3754C204.903 78.4132 203.86 77.6945 202.681 77.3031C201.093 76.8385 199.386 77.2075 197.805 77.6787C195.952 78.2311 194.143 78.9205 192.392 79.7411C194.704 80.6112 197.246 80.6566 199.587 79.8696C200.8 79.4578 201.976 79.5105 203.248 79.6555C204.796 79.8301 206.734 81.2633 207.735 82.4559Z" fill="#9BB167"/>
<path d="M165.677 100.629C162.902 104.161 161.977 108.866 162.29 113.36C163.94 107.381 167.374 102.047 172.134 98.0694C173.946 96.5671 176.259 95.3744 178.503 95.3744C173.887 94.9757 168.53 96.9855 165.677 100.629Z" fill="#9BB167"/>
<path d="M172.123 93.5343C170.574 93.6497 169.157 94.4338 167.879 95.3102C165.922 96.6544 164.084 98.3511 163.23 100.582C164.964 98.5415 167.173 96.9598 169.663 95.9766C172.153 94.9934 174.847 94.6389 177.506 94.9445C175.819 94.0944 174.001 93.396 172.123 93.5343Z" fill="#9BB167"/>
<path d="M176.456 88.2302C175.56 88.8529 174.875 89.8775 174.921 90.9648C174.982 91.7169 175.295 92.4264 175.81 92.9778C176.376 93.6345 177.003 94.2348 177.685 94.7701C178.255 92.253 178.937 89.6238 179.507 87.1067C178.425 87.2721 177.387 87.6542 176.456 88.2302Z" fill="#9BB167"/>
<path d="M181.708 87.9907C180.466 88.7361 179.466 89.8241 178.828 91.124C178.239 92.4418 177.995 94.0892 178.736 95.3214C180.86 92.1443 183.152 89.0825 185.602 86.149C184.248 86.6364 182.944 87.2532 181.708 87.9907Z" fill="#9BB167"/>
<path d="M186.147 92.3139C184.752 92.2162 183.355 92.4583 182.075 93.0195C180.794 93.5808 179.669 94.4443 178.796 95.536C180.016 94.9145 181.388 94.6549 182.75 94.7882C186.163 95.2302 189.549 95.8582 192.894 96.6694C192.206 95.4511 191.233 94.4182 190.058 93.6595C188.882 92.9008 187.54 92.439 186.147 92.3139Z" fill="#9BB167"/>
<path d="M179.118 95.3205C176.502 95.4655 174.215 97.4785 173.303 99.9331C172.39 102.388 172.703 105.172 173.688 107.596C174.673 110.021 176.291 112.137 178.001 114.12C178.858 111.155 179.721 108.19 180.1 105.152C180.479 102.114 180.189 98.2001 179.118 95.3205Z" fill="#9BB167"/>
<g opacity="0.3">
<path d="M165.677 100.629C162.902 104.161 161.977 108.866 162.29 113.36C163.94 107.381 167.374 102.047 172.134 98.0694C173.946 96.5671 176.259 95.3744 178.503 95.3744C173.887 94.9757 168.53 96.9855 165.677 100.629Z" fill="black"/>
<path d="M172.123 93.5363C170.574 93.6516 169.157 94.4357 167.879 95.3121C165.922 96.6563 164.084 98.3531 163.23 100.584C164.964 98.5434 167.173 96.9618 169.663 95.9786C172.153 94.9954 174.847 94.6409 177.506 94.9464C175.819 94.0964 174.001 93.3979 172.123 93.5363Z" fill="black"/>
<path d="M176.456 88.2322C175.56 88.8548 174.875 89.8795 174.921 90.9667C174.982 91.7189 175.295 92.4284 175.81 92.9798C176.376 93.6365 177.003 94.2367 177.685 94.7721C178.255 92.255 178.937 89.6258 179.507 87.1087C178.425 87.2741 177.387 87.6562 176.456 88.2322Z" fill="black"/>
<path d="M181.708 87.9907C180.466 88.7361 179.466 89.8241 178.828 91.124C178.239 92.4418 177.995 94.0892 178.736 95.3214C180.86 92.1443 183.152 89.0825 185.602 86.149C184.248 86.6364 182.944 87.2532 181.708 87.9907Z" fill="black"/>
<path d="M186.147 92.3139C184.752 92.2162 183.355 92.4583 182.075 93.0195C180.794 93.5808 179.669 94.4443 178.796 95.536C180.016 94.9145 181.388 94.6549 182.75 94.7882C186.163 95.2302 189.549 95.8582 192.894 96.6694C192.206 95.4511 191.233 94.4182 190.058 93.6595C188.882 92.9008 187.54 92.439 186.147 92.3139Z" fill="black"/>
<path d="M179.118 95.3205C176.502 95.4655 174.215 97.4785 173.303 99.9331C172.39 102.388 172.703 105.172 173.688 107.596C174.673 110.021 176.291 112.137 178.001 114.12C178.858 111.155 179.721 108.19 180.1 105.152C180.479 102.114 180.189 98.2001 179.118 95.3205Z" fill="black"/>
</g>
<g opacity="0.2">
<path d="M210.28 106.978C209.091 104.425 206.033 102.758 203.226 102.985C203.529 103.135 203.792 103.354 203.995 103.624C204.198 103.894 204.335 104.208 204.396 104.54C204.506 105.205 204.566 105.876 204.574 106.55C204.827 109.775 206.903 112.526 208.893 115.073C210.293 116.862 211.703 118.661 213.377 120.2C213.176 115.614 212.886 110.754 210.28 106.978Z" fill="black"/>
<path d="M203.226 103.02C205.009 101.649 207.308 101.079 209.559 101.043C211.809 101.007 214.029 101.504 216.207 102.058C217.525 102.387 218.843 102.756 219.966 103.514C221.09 104.272 221.979 105.491 221.999 106.838C220.151 104.806 217.172 104.414 214.533 103.646C212.748 103.129 211.021 102.384 209.199 101.999C207.154 101.665 205.055 102.012 203.226 102.987" fill="black"/>
<path d="M203.534 102.658C202.754 101.838 203.185 99.9201 203.864 99.0173C204.543 98.1146 205.626 97.6039 206.694 97.225C208.097 96.7245 209.553 96.3851 211.033 96.2136C210.843 97.1441 210.362 97.9901 209.659 98.6286C208.958 99.258 208.192 99.8103 207.373 100.276L203.528 102.655" fill="black"/>
<path d="M196.206 101.564C193.976 102.552 192.253 104.368 190.582 106.147C193.058 105.544 195.426 104.564 197.603 103.241C198.466 102.714 199.323 102.124 200.311 101.903C201.3 101.682 202.407 102.124 203.231 102.806C201.83 100.743 198.437 100.575 196.206 101.564Z" fill="black"/>
<path d="M195.157 116.156C196.405 113.29 195.878 109.814 197.463 107.122C198.679 105.06 200.919 103.828 203.15 102.964C203.667 104.516 203.42 106.259 202.764 107.752C202.108 109.244 201.067 110.549 199.97 111.761C198.451 113.438 196.801 114.99 195.153 116.542" fill="black"/>
</g>
<path d="M87.5419 56.5742H55.8538C55.4169 56.5742 54.9979 56.7478 54.6889 57.0567C54.38 57.3657 54.2064 57.7847 54.2064 58.2216V72.6588C54.2064 73.0957 54.38 73.5147 54.6889 73.8237C54.9979 74.1326 55.4169 74.3062 55.8538 74.3062H69.1478L71.9713 77.9303L74.327 74.3062H87.5452C87.9821 74.3062 88.4011 74.1326 88.7101 73.8237C89.019 73.5147 89.1926 73.0957 89.1926 72.6588V58.2249C89.193 58.008 89.1506 57.7931 89.0678 57.5927C88.985 57.3922 88.8634 57.2101 88.7101 57.0567C88.5567 56.9034 88.3746 56.7818 88.1741 56.699C87.9737 56.6162 87.7588 56.5738 87.5419 56.5742Z" fill="white"/>
<path d="M87.5401 56.5745H87.6983C87.853 56.586 88.0051 56.6204 88.1496 56.6766C88.3873 56.7666 88.6005 56.9111 88.7723 57.0983C89.0138 57.3578 89.1652 57.6883 89.2039 58.0406C89.2336 59.6122 89.227 61.8987 89.2369 64.7947C89.2369 66.241 89.2369 67.8423 89.2369 69.5753C89.2369 70.4418 89.2369 71.3445 89.2369 72.2769C89.247 72.5168 89.236 72.7572 89.2039 72.9951C89.1559 73.2399 89.0534 73.4707 88.9041 73.6705C88.7535 73.8774 88.5584 74.0479 88.3332 74.1694C88.108 74.2908 87.8583 74.3602 87.6027 74.3723H74.3054L74.3713 74.3361L72.0189 77.9602L71.9563 78.0557L71.8871 77.9668L69.0603 74.3427L69.1262 74.3756H56.3429C56.1122 74.3756 55.8948 74.3756 55.651 74.3756C55.2934 74.3347 54.9574 74.1836 54.6895 73.9434C54.4215 73.7032 54.2348 73.3856 54.1552 73.0347C54.1152 72.8075 54.1008 72.5765 54.1124 72.3461V71.6871C54.1124 69.897 54.1124 68.1399 54.1124 66.4157V61.3056C54.1124 60.471 54.1124 59.6473 54.1124 58.8346V58.2251C54.1126 57.9076 54.2003 57.5963 54.366 57.3254C54.5316 57.0545 54.7688 56.8346 55.0513 56.6898C55.2362 56.5935 55.4373 56.5321 55.6444 56.5086C55.8519 56.4888 56.043 56.5086 56.2407 56.5086H59.7067H64.0886H71.9596L83.3559 56.5349L86.4529 56.5514L83.3559 56.5679L71.9596 56.5942H64.0886H56.2473C56.0529 56.5942 55.8519 56.5942 55.6674 56.5942C55.4795 56.6143 55.2972 56.6702 55.1304 56.759C54.8747 56.8911 54.6602 57.091 54.5103 57.3368C54.3604 57.5825 54.2808 57.8648 54.2804 58.1526V61.2331C54.2804 62.897 54.2804 64.6003 54.2804 66.33V72.2835C54.2695 72.5039 54.2827 72.7249 54.3199 72.9424C54.3683 73.1517 54.459 73.3488 54.5865 73.5216C54.714 73.6945 54.8756 73.8393 55.0612 73.9473C55.2467 74.0566 55.4534 74.1251 55.6674 74.1483C55.8783 74.168 56.1155 74.1483 56.3264 74.1483H69.1756L69.1987 74.1812L72.0222 77.8054H71.8904L74.2461 74.1812L74.2692 74.145H74.312H87.6027C87.9555 74.1294 88.2929 73.9965 88.5615 73.7673C88.8301 73.5381 89.0145 73.2257 89.0853 72.8798C89.1163 72.6495 89.1273 72.4169 89.1183 72.1846C89.1183 71.2522 89.1183 70.3495 89.1183 69.483C89.1183 67.75 89.1183 66.1488 89.1183 64.7024C89.1183 61.8097 89.1413 59.5133 89.1183 57.9517C89.0857 57.657 88.9743 57.3766 88.7957 57.14C88.6171 56.9035 88.3779 56.7195 88.1035 56.6074C87.9183 56.5696 87.7285 56.5585 87.5401 56.5745Z" fill="#263238"/>
<path d="M63.2838 59.7313H60.1275C59.8946 59.7313 59.7058 59.9201 59.7058 60.153V62.4065C59.7058 62.6394 59.8946 62.8283 60.1275 62.8283H63.2838C63.5167 62.8283 63.7055 62.6394 63.7055 62.4065V60.153C63.7055 59.9201 63.5167 59.7313 63.2838 59.7313Z" fill="#F08C51"/>
<path d="M59.7726 59.814L61.2947 61.4383C61.3762 61.5486 61.4921 61.6286 61.6242 61.6656C61.7068 61.6782 61.7913 61.669 61.8693 61.6389C61.9473 61.6089 62.0161 61.559 62.069 61.4943C62.3457 61.211 62.6093 60.9177 62.8795 60.6311C63.1496 60.3445 63.3934 60.0875 63.6471 59.814C63.6525 59.8058 63.6549 59.7959 63.6539 59.7861C63.6529 59.7763 63.6485 59.7672 63.6416 59.7602C63.6346 59.7533 63.6255 59.7489 63.6157 59.7479C63.6059 59.7469 63.596 59.7493 63.5878 59.7547L62.1349 61.3032C62.0682 61.3896 61.9907 61.4671 61.9042 61.5338C61.6868 61.6722 61.5023 61.5338 61.3573 61.379C61.0806 61.089 60.8071 60.7958 60.5336 60.5026L59.8352 59.7547C59.7989 59.7185 59.7396 59.7745 59.7759 59.814H59.7726Z" fill="white"/>
<path d="M59.7555 62.8082L60.9778 61.4179L61.1492 61.2235C61.1854 61.184 61.1261 61.1247 61.0932 61.1642C60.6846 61.6287 60.2761 62.09 59.8708 62.5545L59.6962 62.7489C59.6633 62.7885 59.7193 62.8478 59.7555 62.8082Z" fill="white"/>
<path d="M63.6448 62.6854L62.5015 61.3675L62.3368 61.1764C62.3005 61.1336 62.2445 61.1764 62.2775 61.2324L63.4207 62.5503C63.4767 62.6162 63.5327 62.6788 63.5855 62.7447C63.6382 62.8106 63.681 62.7249 63.6448 62.6854Z" fill="white"/>
<path d="M66.6584 62.3343V61.3096L66.1543 62.1531H65.9764L65.4756 61.3294V62.3343H65.1033V60.6243H65.4328L66.0654 61.6984L66.6947 60.6342H67.0241V62.3441L66.6584 62.3343Z" fill="#263238"/>
<path d="M68.7024 61.7839H67.714C67.7342 61.8658 67.7834 61.9376 67.8524 61.9861C67.9214 62.0345 68.0057 62.0563 68.0896 62.0475C68.1501 62.0504 68.2107 62.0408 68.2673 62.0192C68.324 61.9977 68.3757 61.9647 68.419 61.9223L68.6233 62.1431C68.5535 62.2157 68.4687 62.2721 68.3748 62.3086C68.2809 62.345 68.1802 62.3605 68.0797 62.3539C67.985 62.3636 67.8894 62.3533 67.799 62.3238C67.7085 62.2943 67.6252 62.2462 67.5545 62.1826C67.4838 62.119 67.4271 62.0413 67.3882 61.9545C67.3493 61.8676 67.3289 61.7736 67.3285 61.6785C67.3255 61.5866 67.3419 61.4951 67.3764 61.4099C67.4109 61.3247 67.4629 61.2476 67.529 61.1837C67.5951 61.1197 67.6738 61.0704 67.7602 61.0387C67.8465 61.007 67.9385 60.9938 68.0303 60.9998C68.1213 60.9978 68.2118 61.0147 68.296 61.0495C68.3802 61.0842 68.4563 61.1361 68.5194 61.2017C68.5826 61.2673 68.6315 61.3453 68.663 61.4308C68.6944 61.5163 68.7079 61.6074 68.7024 61.6983C68.7024 61.6983 68.7024 61.7543 68.7024 61.7839ZM67.714 61.5632H68.3729C68.3729 61.4758 68.3382 61.392 68.2764 61.3302C68.2146 61.2684 68.1308 61.2337 68.0434 61.2337C67.9561 61.2337 67.8723 61.2684 67.8105 61.3302C67.7487 61.392 67.714 61.4758 67.714 61.5632Z" fill="#263238"/>
<path d="M68.8205 62.211L68.949 61.9375C69.0861 62.0207 69.2433 62.0651 69.4037 62.066C69.5816 62.066 69.6475 62.0166 69.6475 61.9441C69.6475 61.7299 68.8535 61.9441 68.8535 61.4235C68.8535 61.1764 69.0775 60.9985 69.4597 60.9985C69.6356 60.9957 69.8096 61.0353 69.9671 61.1138L69.8386 61.384C69.7229 61.3193 69.5922 61.2863 69.4597 61.2885C69.2884 61.2885 69.2159 61.3412 69.2159 61.4104C69.2159 61.6344 70.0099 61.4104 70.0099 61.9342C70.0099 62.178 69.7826 62.3526 69.3905 62.3526C69.1912 62.3576 68.9943 62.3087 68.8205 62.211Z" fill="#263238"/>
<path d="M70.117 62.211L70.2422 61.9376C70.3807 62.0204 70.5388 62.0648 70.7002 62.066C70.8748 62.066 70.9407 62.0166 70.9407 61.9441C70.9407 61.73 70.1467 61.9441 70.1467 61.4236C70.1467 61.1765 70.3707 60.9986 70.7562 60.9986C70.9311 60.9954 71.1041 61.035 71.2603 61.1139L71.1351 61.384C71.0192 61.3198 70.8886 61.2868 70.7562 61.2885C70.5849 61.2885 70.5124 61.3412 70.5124 61.4104C70.5124 61.6344 71.3064 61.4104 71.3064 61.9343C71.3064 62.1781 71.0791 62.3527 70.6837 62.3527C70.4855 62.3572 70.2898 62.3083 70.117 62.211Z" fill="#263238"/>
<path d="M72.7053 61.5819V62.333H72.3462V62.1683C72.3028 62.2325 72.2428 62.2835 72.1725 62.3161C72.1023 62.3486 72.0245 62.3613 71.9475 62.3528C71.6378 62.3528 71.4566 62.1815 71.4566 61.9542C71.4566 61.7268 71.6181 61.5621 72.02 61.5621H72.3264C72.3264 61.3974 72.2276 61.3018 72.0233 61.3018C71.8872 61.3009 71.7544 61.3436 71.6444 61.4237L71.5093 61.1569C71.6782 61.0488 71.8756 60.9937 72.076 60.9987C72.4714 60.9987 72.7053 61.1865 72.7053 61.5819ZM72.3231 61.9113V61.7763H72.0628C71.8849 61.7763 71.8256 61.8421 71.8256 61.9311C71.8256 62.0201 71.908 62.0892 72.0431 62.0892C72.1024 62.0945 72.1618 62.0807 72.2128 62.0499C72.2637 62.0191 72.3035 61.9729 72.3264 61.9179L72.3231 61.9113Z" fill="#263238"/>
<path d="M74.4188 61.019V62.1128C74.428 62.211 74.415 62.31 74.3808 62.4025C74.3466 62.495 74.292 62.5786 74.2212 62.6472C74.1504 62.7158 74.0651 62.7676 73.9715 62.7989C73.878 62.8301 73.7787 62.84 73.6808 62.8277C73.4474 62.8393 73.2165 62.7758 73.0219 62.6465L73.1734 62.3731C73.309 62.4698 73.4715 62.5216 73.638 62.5213C73.9082 62.5213 74.0235 62.3994 74.0235 62.1622V62.1062C73.9704 62.1622 73.9058 62.2059 73.8341 62.2344C73.7624 62.2629 73.6853 62.2753 73.6083 62.2709C73.4397 62.2709 73.278 62.204 73.1587 62.0847C73.0395 61.9655 72.9725 61.8037 72.9725 61.6351C72.9725 61.4664 73.0395 61.3047 73.1587 61.1854C73.278 61.0662 73.4397 60.9992 73.6083 60.9992C73.6904 60.9947 73.7724 61.0093 73.8479 61.0419C73.9234 61.0744 73.9902 61.1241 74.0432 61.187V61.019H74.4188ZM74.0432 61.6351C74.0465 61.5654 74.0286 61.4963 73.9918 61.4369C73.9551 61.3776 73.9013 61.3307 73.8375 61.3025C73.7736 61.2743 73.7027 61.2661 73.6341 61.2789C73.5655 61.2917 73.5024 61.325 73.453 61.3744C73.4037 61.4237 73.3704 61.4868 73.3576 61.5554C73.3448 61.624 73.353 61.6949 73.3812 61.7588C73.4094 61.8226 73.4563 61.8764 73.5156 61.9131C73.575 61.9499 73.644 61.9678 73.7138 61.9645C73.8011 61.9645 73.8849 61.9298 73.9467 61.868C74.0085 61.8063 74.0432 61.7225 74.0432 61.6351Z" fill="#263238"/>
<path d="M76.0512 61.7837H75.0628C75.083 61.8656 75.1322 61.9374 75.2012 61.9859C75.2702 62.0343 75.3545 62.0561 75.4384 62.0473C75.4989 62.0504 75.5595 62.0408 75.6162 62.0193C75.6729 61.9977 75.7246 61.9646 75.7678 61.9221L75.9721 62.1429C75.9023 62.2154 75.8175 62.2719 75.7236 62.3083C75.6297 62.3448 75.529 62.3602 75.4285 62.3537C75.3341 62.3629 75.2388 62.3523 75.1488 62.3225C75.0587 62.2928 74.9759 62.2446 74.9055 62.1811C74.8351 62.1175 74.7787 62.04 74.74 61.9534C74.7013 61.8668 74.681 61.7731 74.6806 61.6783C74.6777 61.5867 74.6939 61.4955 74.7282 61.4105C74.7626 61.3255 74.8142 61.2486 74.88 61.1848C74.9457 61.1209 75.024 61.0714 75.11 61.0395C75.1959 61.0077 75.2876 60.9941 75.379 60.9996C75.4697 60.9959 75.5602 61.011 75.6448 61.0439C75.7294 61.0769 75.8063 61.1269 75.8706 61.1909C75.935 61.255 75.9854 61.3316 76.0187 61.416C76.0521 61.5005 76.0676 61.5909 76.0643 61.6816C76.0578 61.6981 76.0545 61.7541 76.0512 61.7837ZM75.0628 61.563H75.7217C75.7217 61.4756 75.687 61.3918 75.6252 61.33C75.5634 61.2682 75.4796 61.2335 75.3922 61.2335C75.3048 61.2335 75.221 61.2682 75.1593 61.33C75.0975 61.3918 75.0628 61.4756 75.0628 61.563Z" fill="#263238"/>
<path d="M76.1843 62.211L76.3128 61.9375C76.4511 62.0208 76.6094 62.0652 76.7708 62.066C76.9454 62.066 77.0113 62.0166 77.0113 61.9441C77.0113 61.7299 76.2173 61.9441 76.2173 61.4235C76.2173 61.1764 76.4413 60.9985 76.8268 60.9985C77.0017 60.9957 77.1746 61.0353 77.3309 61.1138L77.2057 61.384C77.0898 61.32 76.9592 61.2871 76.8268 61.2885C76.6555 61.2885 76.5797 61.3412 76.5797 61.4104C76.5797 61.6344 77.3737 61.4104 77.3737 61.9342C77.3737 62.178 77.1497 62.3526 76.7543 62.3526C76.5551 62.3571 76.3583 62.3082 76.1843 62.211Z" fill="#263238"/>
<path d="M78.2187 61.4796C78.2082 61.2926 78.2539 61.1068 78.3501 60.9461C78.4463 60.7855 78.5885 60.6574 78.7583 60.5784C78.9281 60.4995 79.1176 60.4733 79.3025 60.5032C79.4873 60.5331 79.6589 60.6178 79.7951 60.7463C79.9313 60.8748 80.0258 61.0412 80.0664 61.224C80.1069 61.4068 80.0917 61.5976 80.0227 61.7717C79.9537 61.9457 79.8341 62.0951 79.6793 62.2004C79.5245 62.3058 79.3416 62.3622 79.1544 62.3625C79.0342 62.3692 78.9139 62.3514 78.8008 62.3101C78.6877 62.2688 78.5843 62.2048 78.4967 62.1222C78.4092 62.0396 78.3393 61.94 78.2916 61.8295C78.2438 61.719 78.219 61.5999 78.2187 61.4796ZM79.6881 61.4796C79.6862 61.3736 79.653 61.2707 79.5926 61.1836C79.5323 61.0965 79.4476 61.0292 79.3491 60.9902C79.2506 60.9512 79.1428 60.9421 79.0392 60.9642C78.9356 60.9863 78.8408 61.0386 78.7669 61.1144C78.6929 61.1902 78.643 61.2862 78.6234 61.3903C78.6038 61.4944 78.6155 61.602 78.6569 61.6995C78.6984 61.797 78.7677 61.88 78.8562 61.9382C78.9447 61.9964 79.0485 62.0271 79.1544 62.0265C79.226 62.0279 79.2971 62.0146 79.3634 61.9875C79.4297 61.9603 79.4897 61.9199 79.5397 61.8686C79.5897 61.8173 79.6287 61.7564 79.6542 61.6895C79.6798 61.6225 79.6913 61.5511 79.6881 61.4796Z" fill="#263238"/>
<path d="M80.7187 60.946H80.1718V60.6165H81.661V60.946H81.1141V62.333H80.7187V60.946Z" fill="#263238"/>
<path d="M83.3556 61.2437C83.3556 61.6259 83.0689 61.8631 82.611 61.8631H82.2815V62.3343H81.8796V60.6243H82.6176C83.0689 60.6243 83.3556 60.8615 83.3556 61.2437ZM82.9536 61.2437C82.9536 61.0559 82.8317 60.9472 82.5912 60.9472H82.2617V61.5402H82.5912C82.8317 61.5402 82.9536 61.4315 82.9536 61.2437Z" fill="#263238"/>
</svg>
