<svg width="164" height="152" viewBox="0 0 164 152" fill="none" xmlns="http://www.w3.org/2000/svg">
<path d="M157.17 35.1782C162.187 57.622 152.726 81.9999 135.598 97.3291C118.469 112.658 94.6679 119.429 71.6966 118.313C55.3002 117.516 33.1385 111.26 20.6347 100.625C8.13089 89.9896 3.29784 75.47 6.42174 59.3516C7.59934 53.2633 13.152 46.1118 18.2795 42.6281C26.4572 37.0672 37.4604 39.5492 46.9875 42.2438C56.5146 44.9383 67.4891 47.4489 75.7037 41.9248C82.021 37.6806 84.736 29.9117 89.0661 23.6557C96.4261 13.0246 109.408 6.52742 122.337 7.00173C124.49 7.08733 126.631 7.36096 128.736 7.81951C141.993 10.6572 152.579 20.6463 156.659 33.5794L157.17 35.1782Z" fill="#F5F5F5"/>
<path d="M163.457 151.721C163.457 151.778 126.861 151.827 81.7325 151.827C36.6036 151.827 0 151.778 0 151.721C0 151.664 36.5873 151.614 81.7325 151.614C126.878 151.614 163.457 151.68 163.457 151.721Z" fill="#263238"/>
<path d="M28.2855 108.071H24.7977V151.715H28.2855V108.071Z" fill="#263238"/>
<path d="M137.485 108.071H133.998V151.719H137.485V108.071Z" fill="#263238"/>
<path d="M140.486 102.992H23.5196C22.1782 102.992 21.0908 104.079 21.0908 105.421V106.087C21.0908 107.428 22.1782 108.516 23.5196 108.516H140.486C141.827 108.516 142.915 107.428 142.915 106.087V105.421C142.915 104.079 141.827 102.992 140.486 102.992Z" fill="#455A64"/>
<path d="M108.981 10.407L95.14 5.43906L81.4381 10.3457C79.6881 11.1635 78.167 11.6664 78.167 13.2938V21.4061C78.137 27.1031 79.6944 32.6958 82.6648 37.5572C85.6331 42.4697 90.0334 46.3563 95.2749 48.6953C100.877 46.8757 105.06 42.0222 107.615 37.8761C110.593 33.0168 112.157 27.424 112.133 21.725V14.4264C112.133 12.0998 110.898 10.9672 108.981 10.407Z" fill="#F08C51"/>
<g opacity="0.3">
<path d="M95.2708 43.9849C91.1184 42.1096 87.6376 39.0111 85.294 35.1038C82.9412 31.257 81.7052 26.8313 81.7244 22.322V16.6303C81.7244 15.3423 82.5013 14.132 84.0468 13.4124L95.14 9.26624V5.43906L81.4381 10.3457C79.9989 10.9713 78.167 11.6664 78.167 13.2938V21.4061C78.137 27.1031 79.6944 32.6958 82.6648 37.5572C85.6331 42.4697 90.0334 46.3563 95.2749 48.6953L95.2708 43.9849Z" fill="black"/>
</g>
<g opacity="0.4">
<path d="M95.2744 48.6953C96.2133 48.3877 97.1232 47.9978 97.9935 47.5299C100.128 46.3195 102.068 44.7935 103.747 43.0036C105.272 41.362 106.614 39.559 107.75 37.6267C110.767 32.7337 112.29 27.0665 112.133 21.3203V14.6186C112.133 11.2821 110.411 11.0367 108.972 10.407L95.1395 5.43906V9.26624L106.368 13.4737C107.913 14.1974 108.69 15.4036 108.69 16.6957V22.3874C108.709 26.896 107.472 31.3207 105.116 35.1652C102.827 39.051 99.3879 42.131 95.2744 43.9808V48.6953Z" fill="black"/>
</g>
<path opacity="0.5" d="M98.8113 21.9584V20.8626C98.7799 19.9309 98.3876 19.0479 97.7174 18.3999C97.0472 17.7519 96.1514 17.3897 95.2192 17.3897C94.287 17.3897 93.3912 17.7519 92.721 18.3999C92.0508 19.0479 91.6586 19.9309 91.6271 20.8626V21.9789C91.1503 22.0494 90.7146 22.2888 90.3994 22.6536C90.0842 23.0183 89.9105 23.484 89.9098 23.9661V30.4265C89.9109 30.9593 90.1233 31.47 90.5005 31.8464C90.8776 32.2228 91.3887 32.4341 91.9215 32.4341H98.6273C98.8913 32.4347 99.1528 32.3831 99.3968 32.2825C99.6409 32.1818 99.8627 32.0341 100.05 31.8476C100.236 31.6611 100.385 31.4396 100.486 31.1957C100.587 30.9519 100.639 30.6905 100.639 30.4265V23.9661C100.64 23.4636 100.453 22.979 100.115 22.6075C99.7767 22.2359 99.3116 22.0044 98.8113 21.9584ZM96.1944 28.8114H94.4403L94.7142 27.5479C94.5206 27.423 94.3726 27.2388 94.2924 27.0228C94.2122 26.8068 94.204 26.5706 94.2691 26.3496C94.3342 26.1286 94.4691 25.9346 94.6536 25.7966C94.8382 25.6586 95.0624 25.584 95.2928 25.584C95.5232 25.584 95.7475 25.6586 95.932 25.7966C96.1165 25.9346 96.2514 26.1286 96.3165 26.3496C96.3816 26.5706 96.3735 26.8068 96.2932 27.0228C96.213 27.2388 96.065 27.423 95.8714 27.5479L96.1944 28.8114ZM98.0385 21.9503H92.3999V20.8626C92.4277 20.1335 92.7369 19.4435 93.2626 18.9374C93.7883 18.4314 94.4895 18.1487 95.2192 18.1487C95.9489 18.1487 96.6502 18.4314 97.1759 18.9374C97.7015 19.4435 98.0107 20.1335 98.0385 20.8626V21.9503Z" fill="white"/>
<path d="M83.9676 21.8814C83.8508 21.5171 83.7821 21.139 83.7632 20.7569C83.6573 19.8424 83.619 18.9212 83.6487 18.001C83.6487 17.4613 83.7018 16.9502 83.7509 16.4841C83.7694 16.0587 83.8738 15.6415 84.0576 15.2574C84.1906 14.996 84.4022 14.783 84.6627 14.6482C84.8508 14.5582 84.9694 14.5623 84.9694 14.5786C84.6356 14.7333 84.3676 15.0014 84.2129 15.3351C84.0624 15.7056 83.9806 16.1005 83.9717 16.5004C83.9349 16.9625 83.9063 17.4695 83.8899 18.0051C83.8613 19.0723 83.8899 20.0496 83.9308 20.7365C83.9756 21.1164 83.9879 21.4994 83.9676 21.8814Z" fill="white"/>
<path d="M84.178 25.4135C84.1125 25.4135 84.0512 25.0823 84.043 24.6694C84.0348 24.2564 84.0839 23.9211 84.1493 23.917C84.2148 23.9129 84.2761 24.2523 84.2843 24.6653C84.2924 25.0783 84.2352 25.4135 84.178 25.4135Z" fill="white"/>
<path d="M113.676 6.30096C114.05 6.39039 114.416 6.50934 114.772 6.65669C115.206 6.83007 115.618 7.05522 115.998 7.32727C116.536 7.69445 116.981 8.18157 117.298 8.75019C117.681 9.47259 117.886 10.2758 117.895 11.0931C117.895 11.9845 117.895 12.9495 117.895 13.9921C117.895 16.0734 117.916 18.4531 117.895 21.1068C117.857 24.023 117.481 26.925 116.775 29.7548C115.946 33.0501 114.665 36.2149 112.968 39.1592C111.07 42.4553 108.718 45.4683 105.98 48.1097C103.118 50.8452 99.5854 53.2658 95.4598 54.5497H95.423H95.3862C93.9412 53.9323 92.5311 53.2361 91.1624 52.4644C89.7628 51.6533 88.415 50.7561 87.1266 49.778C84.468 47.744 82.1015 45.3541 80.0938 42.6756C75.7501 36.9509 73.1659 30.0861 72.6561 22.9182C72.5253 21.2213 72.5621 19.5448 72.558 17.897V13.019C72.558 12.2012 72.558 11.4325 72.558 10.6515C72.5453 10.2572 72.5589 9.86238 72.5989 9.46984C72.6585 9.07064 72.8221 8.69414 73.0732 8.37811C73.5879 7.79689 74.2264 7.33858 74.9418 7.03696C75.6246 6.71393 76.3116 6.4318 76.9862 6.13331L95.2185 0H95.239H95.2635L108.79 4.62452L112.4 5.85118L113.328 6.1742L113.643 6.29278C113.643 6.29278 113.533 6.26416 113.324 6.19464L112.388 5.88798L108.765 4.66132L95.2512 0.118575H95.2962L77.0803 6.30505C76.4097 6.60353 75.7187 6.88567 75.0358 7.20869C74.346 7.49956 73.7299 7.94103 73.2326 8.50077C73.0016 8.79176 72.8521 9.13888 72.7992 9.50664C72.762 9.88842 72.7497 10.2722 72.7624 10.6556V13.0231C72.7624 14.6136 72.7624 16.2369 72.7624 17.8807C72.7624 19.5244 72.7338 21.2008 72.8646 22.8854C73.3738 30.0137 75.9452 36.8399 80.2655 42.5325C82.2632 45.1955 84.6172 47.5716 87.2616 49.594C88.5414 50.5671 89.8811 51.4589 91.2728 52.264C92.6395 53.0406 94.0483 53.7408 95.4925 54.3616H95.423C99.5118 53.0941 103.008 50.6816 105.87 47.9748C108.598 45.3493 110.945 42.3543 112.842 39.0774C114.53 36.1537 115.811 33.013 116.648 29.7425C117.359 26.9256 117.742 24.0361 117.789 21.1313C117.789 18.4817 117.789 16.0979 117.814 14.0167C117.814 12.974 117.814 12.0049 117.814 11.1217C117.813 10.3159 117.618 9.52214 117.245 8.80744C116.937 8.24625 116.505 7.76249 115.982 7.39269C115.6 7.12084 115.188 6.89313 114.755 6.71393C114.488 6.60181 114.215 6.50354 113.937 6.41953L113.676 6.30096Z" fill="#F08C51"/>
<path d="M70.6043 70.8864L71.6225 90.1042L97.2025 90.6889L95.3093 75.7563L97.2638 60.4966C95.9799 53.3492 85.9581 52.8545 85.9581 52.8545L78.0952 52.7277C75.4028 52.5331 72.7123 53.1301 70.3549 54.4451C70.3549 54.4451 62.3734 58.7915 62.4429 69.8356" fill="#455A64"/>
<path d="M86.0373 52.633C85.862 53.1737 85.6304 53.6945 85.3463 54.1868C84.9639 54.7478 84.4497 55.2064 83.8487 55.5223C83.2477 55.8381 82.5783 56.0015 81.8993 55.9981C81.2196 56.0113 80.5474 55.8549 79.9434 55.5429C79.3394 55.2309 78.8227 54.7732 78.4401 54.2113C78.221 53.8589 78.0556 53.4758 77.9495 53.0746C77.92 52.9231 77.8748 52.7751 77.8145 52.633C77.8027 52.7896 77.8165 52.947 77.8554 53.0991C77.9317 53.5212 78.0811 53.9266 78.297 54.2972C78.6222 54.8545 79.0892 55.3158 79.6504 55.6342C80.3312 56.0369 81.1084 56.2474 81.8993 56.2435C82.6897 56.246 83.4653 56.0294 84.14 55.6179C84.6925 55.2879 85.1568 54.8292 85.4934 54.2808C85.7134 53.9128 85.8749 53.5127 85.9719 53.095C86.0219 52.9464 86.0441 52.7897 86.0373 52.633Z" fill="#263238"/>
<path d="M92.0439 59.066C90.8249 60.0381 89.829 61.2608 89.1235 62.6512C88.4181 64.0416 88.0196 65.5674 87.955 67.1252C87.7588 72.0073 87.4562 78.7867 87.2763 79.126C86.7161 80.1728 71.9185 79.2814 70.3606 79.171L68.4797 78.5904C68.4797 78.5904 65.0205 75.5973 64.3908 76.4969C63.7611 77.3964 66.2063 77.973 66.6806 79.7394C67.1549 81.5058 62.2401 80.1237 61.9212 79.907L60.6536 79.5472C60.6536 79.5472 61.406 81.9596 62.0479 82.7242C64.0923 85.1776 68.7905 86.4042 68.7905 86.4042C68.7905 86.4042 87.955 92.6316 95.6953 87.4919C98.2263 85.8113 98.6556 69.3373 97.6988 62.9586C97.5152 61.7417 96.8973 60.6323 95.9593 59.8356C95.0212 59.0389 93.8265 58.6087 92.5959 58.6244L92.0439 59.066Z" fill="#FFBE9D"/>
<path d="M63.615 82.2668C63.2419 82.0356 62.8525 81.832 62.4497 81.6576C62.0709 81.4374 61.6774 81.2434 61.2721 81.077C61.6033 81.3709 61.9786 81.6109 62.3843 81.7884C62.7677 82.0098 63.1827 82.1712 63.615 82.2668Z" fill="#EB996E"/>
<path d="M95.2203 56.7643C97.5796 59.0214 99.8653 63.5519 99.0189 72.6169L86.4456 72.0976L86.7686 59.692C86.7869 59.0705 86.9432 58.4608 87.226 57.9071C87.5089 57.3534 87.9113 56.8695 88.4041 56.4904C89.3867 55.7167 90.6132 55.3193 91.8628 55.3695C93.1124 55.4197 94.303 55.9143 95.2203 56.7643Z" fill="#455A64"/>
<path d="M70.1652 149.224L69.8299 144.469L78.7314 143.778L79.2997 150.729L78.7518 150.807C76.2985 151.134 66.2889 152.299 64.6084 151.927C62.7357 151.514 70.1652 149.224 70.1652 149.224Z" fill="#F08C51"/>
<g opacity="0.3">
<path d="M76.0607 150.908C76.1346 150.147 76.4869 149.439 77.0502 148.921C77.6041 148.4 78.3344 148.108 79.0946 148.103L79.2909 150.589L76.0607 150.908Z" fill="white"/>
</g>
<g opacity="0.3">
<path d="M66.5457 150.478C66.5457 150.478 63.9534 151.447 64.3173 151.86C64.6812 152.273 74.8461 151.475 79.2989 150.731L79.2703 150.535L67.4125 151.561C67.4125 151.561 67.065 150.453 66.5457 150.478Z" fill="white"/>
</g>
<path d="M79.41 150.518L79.2588 150.547L78.8212 150.608L77.2061 150.805C75.8445 150.96 73.9596 151.148 71.8906 151.316C69.8216 151.483 67.908 151.586 66.5383 151.647L64.9027 151.704H64.4611C64.4096 151.711 64.3573 151.711 64.3057 151.704H64.4611L64.9027 151.676L66.5383 151.582C67.908 151.504 69.8094 151.385 71.8865 151.218C73.9637 151.05 75.8568 150.874 77.202 150.739L78.8376 150.576L79.2751 150.535C79.3194 150.525 79.3646 150.519 79.41 150.518Z" fill="#263238"/>
<path d="M67.4156 151.7C67.2657 151.157 66.9244 150.687 66.4547 150.376C66.7389 150.455 66.9835 150.637 67.1417 150.887C67.3314 151.114 67.4292 151.404 67.4156 151.7Z" fill="#263238"/>
<path d="M69.957 150.16C69.9325 150.16 69.7975 150.033 69.6503 149.841C69.5031 149.649 69.405 149.473 69.4295 149.457C69.4541 149.441 69.5931 149.58 69.7362 149.776C69.8793 149.972 69.9815 150.14 69.957 150.16Z" fill="#263238"/>
<path d="M70.6472 149.722C70.6472 149.747 70.4836 149.661 70.3201 149.538C70.1565 149.415 70.0339 149.289 70.0543 149.264C70.0747 149.24 70.2219 149.325 70.3855 149.452C70.5491 149.579 70.6881 149.698 70.6472 149.722Z" fill="#263238"/>
<path d="M71.0391 148.848C70.8934 148.911 70.736 148.943 70.5771 148.942C70.4224 148.978 70.2616 148.978 70.1069 148.942C70.2519 148.877 70.4098 148.844 70.5689 148.848C70.7234 148.81 70.8847 148.81 71.0391 148.848Z" fill="#263238"/>
<path d="M71.146 148.244C70.9993 148.356 70.8228 148.421 70.639 148.432C70.459 148.479 70.2691 148.469 70.0951 148.404C70.2685 148.363 70.4449 148.337 70.6226 148.326C70.7942 148.283 70.9694 148.256 71.146 148.244Z" fill="#263238"/>
<path d="M69.5976 149.41C69.4103 149.455 69.2169 149.468 69.0251 149.45C68.8155 149.441 68.6073 149.411 68.4036 149.361C68.2794 149.338 68.1585 149.299 68.0438 149.246C67.9728 149.212 67.9174 149.152 67.8884 149.078C67.8765 149.037 67.8766 148.993 67.889 148.952C67.9013 148.91 67.9252 148.873 67.9579 148.845C68.1676 148.721 68.414 148.673 68.655 148.711C68.8959 148.748 69.1164 148.868 69.2786 149.05C69.3759 149.156 69.4497 149.281 69.4954 149.418C69.5144 149.466 69.5241 149.517 69.524 149.569C69.4511 149.398 69.3502 149.241 69.2255 149.103C69.0843 148.962 68.9053 148.866 68.7103 148.825C68.5964 148.795 68.4776 148.788 68.361 148.805C68.2444 148.822 68.1323 148.862 68.0315 148.923C67.9457 148.997 67.9907 149.103 68.097 149.152C68.2033 149.201 68.3142 149.239 68.4282 149.267C68.6254 149.318 68.8264 149.353 69.0292 149.373C69.3768 149.406 69.5935 149.389 69.5976 149.41Z" fill="#263238"/>
<path d="M69.4597 149.447C69.3751 149.328 69.3399 149.182 69.3615 149.038C69.3684 148.886 69.4104 148.738 69.4842 148.605C69.5262 148.516 69.5898 148.44 69.6691 148.383C69.7485 148.326 69.841 148.289 69.9381 148.277C69.9675 148.28 69.9961 148.289 70.022 148.304C70.048 148.318 70.0708 148.337 70.0891 148.361C70.1074 148.384 70.1208 148.411 70.1286 148.439C70.1364 148.468 70.1383 148.497 70.1343 148.527C70.1295 148.618 70.1044 148.708 70.0607 148.789C69.9954 148.921 69.913 149.045 69.8154 149.157C69.6518 149.349 69.5128 149.426 69.5046 149.414C69.4965 149.402 69.611 149.304 69.7541 149.112C69.8391 148.998 69.9117 148.876 69.9708 148.748C70.0362 148.621 70.073 148.4 69.9299 148.384C69.7868 148.367 69.6518 148.535 69.5701 148.658C69.4995 148.775 69.4548 148.906 69.4392 149.042C69.4317 149.177 69.4386 149.313 69.4597 149.447Z" fill="#263238"/>
<path d="M79.0338 148.094C79.0338 148.094 78.7762 148.094 78.3796 148.171C77.8585 148.269 77.376 148.513 76.9886 148.875C76.6013 149.238 76.3249 149.702 76.192 150.216C76.0857 150.625 76.0939 150.866 76.0734 150.866C76.0616 150.806 76.0616 150.745 76.0734 150.686C76.0766 150.521 76.0972 150.356 76.1348 150.195C76.2528 149.659 76.5305 149.172 76.9313 148.798C77.3321 148.423 77.8371 148.179 78.3796 148.098C78.5419 148.073 78.7063 148.065 78.8702 148.073C78.9254 148.073 78.9802 148.08 79.0338 148.094Z" fill="#263238"/>
<path d="M77.8222 144.461C77.9346 145.063 78.0084 145.673 78.043 146.285C78.117 146.892 78.1552 147.504 78.1574 148.116C78.045 147.514 77.9712 146.905 77.9366 146.293C77.8626 145.685 77.8244 145.073 77.8222 144.461Z" fill="#263238"/>
<path d="M74.8799 150.129C74.0341 150.362 73.1529 150.44 72.2794 150.358C72.2794 150.325 72.8641 150.317 73.5796 150.251C74.2952 150.186 74.8717 150.1 74.8799 150.129Z" fill="#263238"/>
<path d="M76.6158 149.99C76.6404 150.01 76.579 150.117 76.53 150.256C76.4809 150.395 76.4604 150.517 76.4277 150.517C76.395 150.517 76.3705 150.378 76.4277 150.219C76.485 150.059 76.5954 149.974 76.6158 149.99Z" fill="#263238"/>
<path d="M77.2295 149.123C77.2499 149.123 77.2009 149.237 77.115 149.339C77.0291 149.442 76.9433 149.503 76.9228 149.486C76.9024 149.47 76.9474 149.368 77.0332 149.27C77.1191 149.172 77.1927 149.102 77.2295 149.123Z" fill="#263238"/>
<path d="M78.1262 148.673C78.1262 148.705 78.0036 148.713 77.8768 148.771C77.7501 148.828 77.6601 148.902 77.6356 148.885C77.611 148.869 77.6724 148.738 77.8318 148.669C77.9913 148.599 78.1303 148.644 78.1262 148.673Z" fill="#263238"/>
<path d="M78.7824 148.444C78.7824 148.473 78.7497 148.522 78.6761 148.555C78.6025 148.588 78.5371 148.596 78.5248 148.555C78.5126 148.514 78.5575 148.477 78.6311 148.444C78.7047 148.412 78.7702 148.408 78.7824 148.444Z" fill="#263238"/>
<path d="M42.8008 149.449L42.9194 144.686L51.8495 144.854L51.7473 151.825L51.1912 151.854C48.7379 151.944 38.6465 152.136 37.0069 151.608C35.1833 151.016 42.8008 149.449 42.8008 149.449Z" fill="#F08C51"/>
<g opacity="0.3">
<path d="M48.5111 151.68C48.6603 150.93 49.0792 150.261 49.6887 149.799C50.2868 149.34 51.0355 149.122 51.7863 149.19L51.7414 151.684L48.5111 151.68Z" fill="white"/>
</g>
<g opacity="0.3">
<path d="M39.0757 150.348C39.0757 150.348 36.4015 151.064 36.7246 151.509C37.0476 151.955 47.2411 152.139 51.7471 151.824V151.628L39.8566 151.509C39.8566 151.509 39.6113 150.377 39.0757 150.348Z" fill="white"/>
</g>
<path d="M51.8754 151.625H51.72L51.2784 151.645L49.6429 151.686C48.269 151.711 46.3718 151.719 44.2823 151.686C42.1929 151.653 40.2957 151.576 38.9259 151.502L37.2904 151.404L36.8529 151.371C36.8012 151.377 36.7491 151.377 36.6975 151.371C36.7492 151.367 36.8012 151.367 36.8529 151.371H37.2945L38.93 151.433C40.2998 151.486 42.2011 151.547 44.2864 151.584C46.3718 151.621 48.269 151.625 49.6429 151.621H51.7077C51.7636 151.615 51.8199 151.616 51.8754 151.625Z" fill="#263238"/>
<path d="M39.845 151.649C39.7778 151.38 39.6804 151.119 39.5547 150.872C39.3994 150.64 39.2168 150.427 39.0109 150.239C39.2739 150.363 39.4928 150.565 39.6388 150.817C39.7848 151.069 39.851 151.359 39.8287 151.649H39.845Z" fill="#263238"/>
<path d="M42.5029 150.361C42.4784 150.361 42.3557 150.222 42.229 150.013C42.1022 149.805 42.0204 149.625 42.045 149.604C42.0695 149.584 42.1922 149.747 42.3189 149.952C42.4457 150.156 42.5275 150.344 42.5029 150.361Z" fill="#263238"/>
<path d="M43.2291 149.993C43.2291 150.013 43.0696 149.919 42.9184 149.776C42.7671 149.633 42.6608 149.502 42.6812 149.482C42.7016 149.461 42.8407 149.556 42.992 149.699C43.1432 149.842 43.2496 149.973 43.2291 149.993Z" fill="#263238"/>
<path d="M43.701 149.159C43.5513 149.21 43.3919 149.227 43.2348 149.208C43.0771 149.227 42.9172 149.207 42.7687 149.151C43.0754 149.08 43.3943 149.08 43.701 149.151V149.159Z" fill="#263238"/>
<path d="M43.8708 148.568C43.7153 148.668 43.5325 148.718 43.3474 148.711C43.1647 148.738 42.9781 148.709 42.8118 148.629C42.9877 148.603 43.1656 148.594 43.3433 148.6C43.518 148.575 43.6944 148.564 43.8708 148.568Z" fill="#263238"/>
<path d="M42.2093 149.577C42.0199 149.611 41.8262 149.611 41.6368 149.577C41.4295 149.547 41.2255 149.498 41.0276 149.43C40.9063 149.393 40.7897 149.342 40.68 149.278C40.6132 149.238 40.5637 149.174 40.541 149.099C40.5334 149.056 40.5382 149.012 40.5549 148.972C40.5716 148.932 40.5994 148.898 40.6351 148.874C40.8558 148.769 41.1062 148.745 41.343 148.805C41.5797 148.866 41.7878 149.007 41.9312 149.205C42.0159 149.32 42.0771 149.45 42.1111 149.589C42.1219 149.64 42.1219 149.693 42.1111 149.745C42.054 149.567 41.9684 149.4 41.8576 149.25C41.7304 149.096 41.5614 148.983 41.3711 148.923C41.148 148.843 40.9026 148.855 40.6882 148.955C40.5942 149.025 40.631 149.131 40.7291 149.193C40.8307 149.25 40.9375 149.298 41.048 149.336C41.2398 149.405 41.4367 149.46 41.6368 149.499C41.9926 149.556 42.2093 149.561 42.2093 149.577Z" fill="#263238"/>
<path d="M42.0642 149.606C41.9947 149.482 41.9729 149.337 42.0029 149.197C42.026 149.05 42.0834 148.91 42.1705 148.789C42.2198 148.704 42.2902 148.633 42.3747 148.584C42.4592 148.535 42.5551 148.508 42.653 148.506C42.7104 148.52 42.7602 148.555 42.7922 148.605C42.8242 148.654 42.8358 148.714 42.8248 148.772C42.8091 148.864 42.7743 148.952 42.7225 149.03C42.6433 149.153 42.55 149.267 42.4445 149.369C42.3519 149.469 42.2389 149.547 42.1133 149.598C42.1133 149.598 42.2278 149.496 42.3913 149.316C42.4845 149.212 42.5667 149.098 42.6367 148.977C42.7185 148.858 42.7757 148.641 42.6367 148.613C42.4977 148.584 42.3423 148.735 42.2523 148.85C42.1714 148.959 42.1143 149.085 42.0847 149.218C42.0661 149.346 42.0592 149.476 42.0642 149.606Z" fill="#263238"/>
<path d="M51.7376 149.181C51.7376 149.202 51.48 149.153 51.0793 149.181C50.5515 149.23 50.0482 149.427 49.6277 149.749C49.2073 150.072 48.8869 150.507 48.7036 151.005C48.5605 151.385 48.5442 151.643 48.5237 151.639C48.5122 151.579 48.5122 151.518 48.5237 151.459C48.5421 151.296 48.5777 151.135 48.63 150.98C48.7995 150.455 49.1252 149.995 49.5637 149.66C50.0021 149.325 50.5323 149.133 51.0834 149.108C51.2464 149.089 51.411 149.089 51.574 149.108C51.6333 149.12 51.6892 149.145 51.7376 149.181Z" fill="#263238"/>
<path d="M50.8788 145.447C50.9285 146.058 50.9435 146.671 50.9238 147.283C50.9386 147.895 50.9168 148.506 50.8583 149.115C50.8087 148.504 50.7937 147.891 50.8134 147.279C50.8011 146.668 50.823 146.056 50.8788 145.447Z" fill="#263238"/>
<path d="M47.4053 150.803C46.54 150.952 45.6552 150.945 44.7925 150.783C44.7925 150.75 45.3813 150.783 46.0968 150.803C46.8124 150.824 47.4012 150.775 47.4053 150.803Z" fill="#263238"/>
<path d="M49.154 150.836C49.154 150.856 49.1008 150.959 49.0395 151.089C48.9781 151.22 48.9454 151.339 48.9127 151.339C48.88 151.339 48.8677 151.196 48.9413 151.044C49.0149 150.893 49.1335 150.811 49.154 150.836Z" fill="#263238"/>
<path d="M49.8331 150.043C49.8576 150.063 49.7962 150.158 49.7022 150.247C49.6082 150.337 49.5141 150.399 49.4937 150.374C49.4732 150.35 49.5346 150.264 49.6286 150.17C49.7227 150.076 49.8044 150.006 49.8331 150.043Z" fill="#263238"/>
<path d="M50.7751 149.666C50.7751 149.698 50.6484 149.694 50.5175 149.739C50.3867 149.784 50.2886 149.85 50.2681 149.829C50.2477 149.809 50.3213 149.686 50.4848 149.633C50.6484 149.58 50.7833 149.633 50.7751 149.666Z" fill="#263238"/>
<path d="M51.4672 149.503C51.4672 149.531 51.4263 149.576 51.3527 149.605C51.2791 149.633 51.2055 149.629 51.1973 149.605C51.1891 149.58 51.2382 149.535 51.3118 149.507C51.3854 149.478 51.4385 149.474 51.4672 149.503Z" fill="#263238"/>
<path d="M50.6501 89.5563L81.2717 89.172L74.8726 103.569L55.2868 103.647L53.4019 147.753H41.4378L42.5786 98.5559C42.6308 96.3398 43.4732 94.2154 44.9541 92.5658C46.4349 90.9163 48.4565 89.8504 50.6541 89.5604L50.6501 89.5563Z" fill="#263238"/>
<path d="M53.8002 144.354C53.8002 144.289 51.0239 144.236 47.5974 144.236C44.1709 144.236 41.3987 144.289 41.3987 144.354C41.3987 144.42 44.175 144.477 47.5974 144.477C51.0198 144.477 53.8002 144.42 53.8002 144.354Z" fill="#455A64"/>
<path d="M79.7523 104.742L80.615 147.099L66.7742 147.778C66.7742 147.778 64.5703 106.28 65.6702 94.5038C66.4225 86.4447 97.179 89.9079 97.179 89.9079C97.6247 105.957 79.7523 104.742 79.7523 104.742Z" fill="#263238"/>
<path d="M80.6145 143.757C80.4389 143.728 80.2603 143.722 80.083 143.737L78.6314 143.769C77.4048 143.81 75.7161 143.884 73.8515 143.978C71.987 144.072 70.2942 144.17 69.0716 144.252L67.6283 144.366C67.4487 144.368 67.2701 144.393 67.0967 144.44C67.274 144.466 67.4536 144.472 67.6323 144.46L69.0839 144.424C70.3106 144.387 71.9993 144.313 73.8638 144.219C75.7283 144.125 77.4211 144.027 78.6437 143.941L80.0871 143.831C80.2652 143.827 80.4422 143.802 80.6145 143.757Z" fill="#455A64"/>
<path d="M79.931 101.185C79.7743 101.855 79.6948 102.541 79.6938 103.23C79.6147 103.909 79.6147 104.595 79.6938 105.274C79.8509 104.604 79.9304 103.918 79.931 103.23C80.01 102.55 80.01 101.864 79.931 101.185Z" fill="#455A64"/>
<path d="M80.4665 89.2524C80.3796 89.2417 80.2918 89.2417 80.2049 89.2524H79.4566C78.8065 89.2728 77.8619 89.3055 76.7007 89.3709C75.5395 89.4364 74.1533 89.5386 72.6118 89.7798C70.9357 90.0067 69.3264 90.5849 67.8892 91.4767C67.517 91.7262 67.1777 92.0216 66.8792 92.3558C66.5857 92.6874 66.3606 93.0737 66.2168 93.4925C65.9704 94.2676 65.8073 95.0667 65.7302 95.8763C65.603 97.2355 65.5457 98.6002 65.5585 99.9652V102.721C65.5585 103.024 65.5585 103.269 65.5585 103.469C65.5479 103.556 65.5479 103.644 65.5585 103.731C65.581 103.646 65.5933 103.558 65.5953 103.469C65.5953 103.302 65.6321 103.06 65.6485 102.721C65.6853 102.071 65.7057 101.131 65.7261 99.9693C65.7466 98.8081 65.7711 97.4219 65.9469 95.9009C66.0303 95.1079 66.1947 94.3256 66.4376 93.5661C66.7474 92.7809 67.3043 92.1179 68.0241 91.6771C69.4301 90.8044 71.0021 90.2335 72.6404 90.0006C74.1533 89.7635 75.5354 89.6449 76.6925 89.5549L79.4402 89.3628L80.1844 89.3014C80.2802 89.2971 80.375 89.2806 80.4665 89.2524Z" fill="#455A64"/>
<path d="M81.7803 56.2269C81.2316 56.2242 80.6888 56.1131 80.1832 55.8999C79.6776 55.6867 79.2191 55.3756 78.8342 54.9846C78.4492 54.5936 78.1454 54.1303 77.9402 53.6214C77.7349 53.1125 77.6323 52.5681 77.6382 52.0194C77.6382 50.5761 77.6791 49.3249 77.6791 49.3249C77.6791 49.3249 74.3385 49.0141 74.0932 45.7062C73.8478 42.3983 73.9542 34.7644 73.9542 34.7644C75.7855 33.8404 77.8302 33.4219 79.8773 33.552C81.9244 33.6821 83.8996 34.3561 85.5993 35.5045L86.1145 35.852L85.955 52.1094C85.9453 53.2083 85.5005 54.2587 84.7181 55.0304C83.9356 55.8021 82.8792 56.2323 81.7803 56.2269Z" fill="#FFBE9D"/>
<path d="M77.5781 43.6706C77.3303 43.7363 77.0727 43.7571 76.8176 43.7319C76.75 43.7435 76.6808 43.7435 76.6132 43.7319C76.5661 43.721 76.5221 43.6994 76.4846 43.669C76.447 43.6385 76.4169 43.5999 76.3965 43.5561C76.3511 43.3905 76.3641 43.2144 76.4333 43.0573L76.7154 42.1005C77.1243 40.7511 77.5332 39.6758 77.5904 39.6962C77.6477 39.7166 77.3778 40.8288 76.9607 42.1781C76.8544 42.5053 76.7563 42.816 76.6581 43.1268C76.6046 43.2343 76.582 43.3546 76.5927 43.4743C76.5927 43.5397 76.7031 43.5602 76.8217 43.5643C77.078 43.5566 77.3338 43.5926 77.5781 43.6706Z" fill="#263238"/>
<path d="M77.6343 49.2794C79.1644 49.2136 80.6404 48.6941 81.8744 47.787C81.8744 47.787 80.9994 50.2403 77.6792 50.134L77.6343 49.2794Z" fill="#EB996E"/>
<path d="M85.2444 39.5128C85.3057 39.4883 87.3379 39.2225 87.1457 41.6227C86.9535 44.0229 84.5901 43.0374 84.5901 42.9679C84.5901 42.8984 85.2444 39.5128 85.2444 39.5128Z" fill="#FFBE9D"/>
<path d="M85.4083 42.1834C85.4083 42.1834 85.4451 42.2161 85.5146 42.2529C85.6097 42.3045 85.7215 42.3163 85.8253 42.2856C85.9878 42.2 86.1246 42.0727 86.2216 41.9168C86.3186 41.7608 86.3723 41.5819 86.3773 41.3983C86.4015 41.1926 86.3777 40.9841 86.3078 40.7891C86.2926 40.712 86.2585 40.6398 86.2086 40.5792C86.1586 40.5185 86.0944 40.4712 86.0216 40.4415C85.9745 40.4243 85.9227 40.4242 85.8756 40.4415C85.8285 40.4587 85.7889 40.492 85.764 40.5356C85.7272 40.601 85.7395 40.6501 85.7272 40.6541C85.7149 40.6582 85.6781 40.6092 85.7027 40.511C85.7233 40.4528 85.762 40.4027 85.8131 40.3679C85.8826 40.3249 85.9661 40.3103 86.0461 40.327C86.1433 40.355 86.2319 40.4071 86.3034 40.4787C86.3749 40.5502 86.4271 40.6387 86.455 40.7359C86.5398 40.9529 86.5707 41.1872 86.545 41.4188C86.5406 41.6331 86.4726 41.8412 86.3495 42.0167C86.2265 42.1922 86.0539 42.3271 85.8539 42.4042C85.7876 42.4188 85.7188 42.4179 85.6528 42.4016C85.5869 42.3853 85.5256 42.354 85.4737 42.3101C85.4083 42.2406 85.4083 42.1875 85.4083 42.1834Z" fill="#EB996E"/>
<path d="M74.1941 34.9637C73.7895 34.8435 73.4363 34.5924 73.1898 34.2498C72.9434 33.9071 72.8177 33.4924 72.8325 33.0706C72.8621 32.6491 73.0055 32.2436 73.2475 31.8972C73.4894 31.5509 73.8208 31.2767 74.2063 31.1038C74.5953 30.9384 75.0147 30.8566 75.4373 30.8637C75.86 30.8707 76.2764 30.9665 76.6596 31.1447C76.7767 30.5271 77.1099 29.9714 77.5995 29.5771C78.089 29.1828 78.703 28.9758 79.3313 28.993C79.9597 29.0102 80.5614 29.2506 81.0286 29.6711C81.4958 30.0916 81.7981 30.6648 81.8811 31.2878C81.9629 30.65 82.6989 30.2942 83.3286 30.2533C83.6493 30.2207 83.9732 30.2616 84.2757 30.3728C84.5782 30.484 84.8514 30.6627 85.0746 30.8953C85.2901 31.1342 85.4093 31.4445 85.4093 31.7662C85.4093 32.088 85.2901 32.3983 85.0746 32.6372C85.7932 32.5439 86.521 32.7186 87.119 33.1278C87.4147 33.3369 87.6534 33.6167 87.8134 33.9416C87.9734 34.2666 88.0495 34.6264 88.0349 34.9883C88.0075 35.3486 87.8676 35.6912 87.6351 35.9677C87.4025 36.2443 87.089 36.4409 86.7387 36.5298C86.4975 36.5829 86.4362 36.4194 86.3053 36.6279C86.2366 36.853 86.2049 37.0877 86.2113 37.323C86.2582 38.0808 86.2129 38.8414 86.0763 39.5882C85.8547 39.5108 85.6118 39.521 85.3974 39.6167C85.1831 39.7125 85.0134 39.8866 84.9233 40.1034C84.7588 40.546 84.7137 41.0241 84.7924 41.4896C84.7297 41.5546 84.6533 41.6048 84.5688 41.6367C84.4843 41.6685 84.3938 41.6812 84.3038 41.6738C84.2138 41.6663 84.1265 41.639 84.0484 41.5937C83.9703 41.5484 83.9032 41.4863 83.852 41.4119C83.6626 41.0929 83.5782 40.7224 83.6107 40.3529L83.5617 36.5257C83.373 36.63 83.1609 36.6845 82.9453 36.6843C82.7297 36.6841 82.5177 36.6291 82.3293 36.5244C82.1408 36.4197 81.982 36.2689 81.8679 36.086C81.7537 35.9031 81.6879 35.6942 81.6767 35.4789C81.4063 35.7388 81.0814 35.9352 80.7256 36.054C80.3698 36.1727 79.9921 36.2107 79.6198 36.1653C79.2475 36.1199 78.89 35.9922 78.5732 35.7914C78.2563 35.5907 77.9882 35.3219 77.7882 35.0046C77.4043 35.3269 76.9828 35.6015 76.5329 35.8224C76.0752 36.0467 75.5502 36.0919 75.0609 35.9491C74.8184 35.874 74.6052 35.7255 74.4507 35.5241C74.2962 35.3227 74.2079 35.0784 74.1981 34.8247L74.3658 34.6816" fill="#263238"/>
<path d="M86.0348 89.7515H53.3483L47.9592 68.8778H75.232L79.5499 88.3899L86.0348 88.5452V89.7515Z" fill="#F08C51"/>
<path d="M76.2228 39.7898C76.2555 39.8348 75.9529 40.0719 75.5032 40.0801C75.0534 40.0883 74.7385 39.8716 74.7713 39.8266C74.804 39.7816 75.1065 39.8797 75.4991 39.8675C75.8916 39.8552 76.1942 39.7366 76.2228 39.7898Z" fill="#263238"/>
<path d="M75.0468 40.011C75.0468 40.1233 75.0914 40.2309 75.1708 40.3103C75.2502 40.3896 75.3578 40.4342 75.47 40.4342C75.5823 40.4342 75.6899 40.3896 75.7693 40.3103C75.8487 40.2309 75.8932 40.1233 75.8932 40.011" fill="#263238"/>
<path d="M80.8222 39.8172C80.859 39.8622 80.5565 40.0993 80.1026 40.1075C79.6487 40.1157 79.338 39.899 79.3707 39.854C79.4034 39.809 79.7101 39.9071 80.0985 39.8949C80.487 39.8826 80.7936 39.764 80.8222 39.8172Z" fill="#263238"/>
<path d="M79.6502 40.0521C79.6502 40.1638 79.6945 40.2709 79.7735 40.3499C79.8525 40.4289 79.9596 40.4733 80.0713 40.4733C80.183 40.4733 80.2901 40.4289 80.3691 40.3499C80.4481 40.2709 80.4925 40.1638 80.4925 40.0521" fill="#263238"/>
<path d="M81.1209 38.7435C81.0882 38.9193 80.6139 38.9847 80.0537 38.9929C79.4935 39.0011 79.0151 38.9439 78.9824 38.768C78.9497 38.5922 79.4199 38.3591 80.0455 38.3591C80.6711 38.3591 81.1495 38.5718 81.1209 38.7435Z" fill="#263238"/>
<path d="M76.3731 39.0097C76.3445 39.1855 75.8702 39.255 75.31 39.2632C74.7498 39.2714 74.2714 39.21 74.2346 39.0342C74.1978 38.8584 74.6762 38.6253 75.3018 38.6253C75.9274 38.6253 76.4099 38.8257 76.3731 39.0097Z" fill="#263238"/>
<path d="M88.3199 40.7509C88.3199 41.3484 88.0826 41.9215 87.66 42.344C87.2375 42.7665 86.6645 43.0039 86.067 43.0039C84.8403 43.0039 84.3905 41.998 84.3905 40.7509C84.3905 39.5038 84.8239 38.502 86.067 38.502C86.6638 38.502 87.2362 38.7388 87.6586 39.1604C88.081 39.5821 88.3188 40.1541 88.3199 40.7509Z" fill="#455A64"/>
<path d="M85.8756 39.0344C85.8756 39.0344 87.6175 30.6767 81.8931 31.0038L81.6191 30.4804C81.6191 30.4804 85.0865 29.6627 86.354 32.3613C87.3435 34.463 86.7016 38.9444 86.7016 38.9444L85.8756 39.0344Z" fill="#455A64"/>
<path d="M86.3556 43.0054C86.0786 43.0161 85.8085 42.9177 85.6033 42.7315C85.0731 42.3241 84.7238 41.7252 84.6301 41.0632C84.5528 40.4043 84.6966 39.7383 85.039 39.17C85.3293 38.7325 85.6932 38.6753 85.6891 38.7039C85.4754 38.8428 85.2964 39.0289 85.1657 39.2477C84.8907 39.8005 84.7814 40.4211 84.8509 41.0346C84.9408 41.645 85.2435 42.204 85.7055 42.6129C85.9067 42.7679 86.1248 42.8996 86.3556 43.0054Z" fill="#263238"/>
<path d="M77.7219 44.5487C77.7546 44.5978 77.6933 44.7 77.5624 44.7368C77.4316 44.7736 77.3212 44.7368 77.3294 44.6591C77.3375 44.5814 77.4152 44.5569 77.5052 44.5323C77.5951 44.5078 77.6892 44.4833 77.7219 44.5487Z" fill="#263238"/>
<path d="M68.876 45.9321C69.4112 45.9321 69.8451 45.4982 69.8451 44.963C69.8451 44.4278 69.4112 43.9939 68.876 43.9939C68.3409 43.9939 67.907 44.4278 67.907 44.963C67.907 45.4982 68.3409 45.9321 68.876 45.9321Z" fill="#263238"/>
<path d="M69.7057 44.6394C69.1902 44.0867 68.7652 43.456 68.4463 42.7707C68.069 42.1217 67.7384 41.4467 67.4568 40.7508C67.925 41.342 68.3229 41.9855 68.6426 42.6685C69.211 43.7643 69.7507 44.6026 69.7057 44.6394Z" fill="#263238"/>
<path d="M69.2394 39.683C69.2926 39.7035 69.084 40.2064 68.5402 40.554C68.3902 40.6741 68.2164 40.761 68.0303 40.8089C67.8442 40.8568 67.6501 40.8647 67.4607 40.832C67.4607 40.7707 67.9391 40.6971 68.4257 40.3782C68.9123 40.0592 69.1862 39.6422 69.2394 39.683Z" fill="#263238"/>
<path d="M69.6608 40.5957C69.7139 40.5957 69.5299 41.1191 68.9779 41.4135C68.8252 41.521 68.6484 41.5895 68.4631 41.613C68.2778 41.6365 68.0896 41.6144 67.9148 41.5484C68.2423 41.4698 68.5624 41.3631 68.8716 41.2295C69.3623 40.9719 69.6035 40.5671 69.6608 40.5957Z" fill="#263238"/>
<path d="M63.8473 44.3979C63.7733 44.4942 63.6724 44.5663 63.5573 44.6051C63.4423 44.6439 63.3184 44.6478 63.2012 44.6161C63.084 44.5844 62.9788 44.5187 62.899 44.4272C62.8192 44.3357 62.7683 44.2226 62.7528 44.1022C62.7373 43.9818 62.7579 43.8595 62.812 43.7508C62.8661 43.6421 62.9512 43.5519 63.0566 43.4916C63.162 43.4313 63.2829 43.4037 63.404 43.4122C63.5251 43.4207 63.6409 43.4649 63.7369 43.5393C63.8651 43.6387 63.9488 43.7849 63.9695 43.9458C63.9901 44.1067 63.9462 44.2693 63.8473 44.3979Z" fill="#263238"/>
<path d="M63.905 44.1809C63.8244 43.7052 63.8425 43.2181 63.9581 42.7498C64.011 42.2753 64.1194 41.8087 64.2811 41.3595C64.3262 41.8367 64.2889 42.318 64.1707 42.7825C64.1223 43.2553 64.0334 43.7232 63.905 44.1809Z" fill="#263238"/>
<path d="M66.1405 42.0594C65.8444 42.1691 65.5234 42.1935 65.214 42.1299C64.9047 42.0663 64.6194 41.9172 64.3905 41.6996C64.2515 41.5483 64.2269 41.4093 64.2515 41.4011C64.276 41.393 64.3455 41.487 64.4927 41.5892C64.6832 41.7254 64.8964 41.8265 65.1224 41.8877C65.6621 42.039 66.1324 41.994 66.1405 42.0594Z" fill="#263238"/>
<path d="M65.7101 45.1012C65.6361 45.1971 65.5354 45.269 65.4207 45.3077C65.3059 45.3465 65.1822 45.3504 65.0653 45.319C64.9483 45.2875 64.8432 45.2222 64.7633 45.1311C64.6835 45.0401 64.6323 44.9274 64.6164 44.8073C64.6005 44.6873 64.6204 44.5651 64.6738 44.4564C64.7272 44.3477 64.8115 44.2572 64.9163 44.1963C65.021 44.1355 65.1414 44.107 65.2623 44.1145C65.3832 44.122 65.4992 44.1651 65.5956 44.2384C65.66 44.2874 65.7141 44.3486 65.7547 44.4185C65.7953 44.4885 65.8217 44.5658 65.8324 44.646C65.843 44.7262 65.8377 44.8077 65.8167 44.8858C65.7957 44.9639 65.7595 45.0371 65.7101 45.1012Z" fill="#263238"/>
<path d="M65.7817 44.8837C65.6988 44.4082 65.7169 43.9206 65.8348 43.4526C65.8857 42.9764 65.9942 42.5082 66.1579 42.0583C66.2027 42.537 66.164 43.0198 66.0434 43.4853C65.9974 43.9582 65.9099 44.4261 65.7817 44.8837Z" fill="#263238"/>
<path d="M66.0874 42.4762C65.9362 42.5612 65.7688 42.6131 65.5961 42.6286C65.4234 42.6441 65.2494 42.6228 65.0856 42.5662C64.5172 42.4312 64.186 42.0714 64.2269 42.0346C64.2678 41.9978 64.6358 42.2391 65.1347 42.3576C65.6335 42.4762 66.0751 42.4149 66.0874 42.4762Z" fill="#263238"/>
<path d="M98.9996 72.615C98.9262 72.6213 98.8523 72.6213 98.7788 72.615H98.1532L95.843 72.5291C93.8926 72.4473 91.2021 72.3206 88.2295 72.1652L86.7044 72.0875H86.6021V71.9894C86.6021 69.3888 86.6267 67.0827 86.6349 65.3981C86.6349 64.5803 86.6594 63.9302 86.6676 63.4436C86.6676 63.231 86.6676 63.0593 86.6676 62.9161C86.6685 62.8543 86.6754 62.7927 86.688 62.7321C86.7058 62.7918 86.7127 62.8541 86.7085 62.9161C86.7085 63.0593 86.7085 63.231 86.7289 63.4436C86.7289 63.9302 86.7289 64.5885 86.7575 65.3981C86.7575 67.0868 86.7821 69.3888 86.7943 71.9894L86.6962 71.8831L88.2173 71.9607C91.1899 72.1161 93.8844 72.2674 95.8307 72.3696L98.1369 72.525L98.7625 72.5782C98.843 72.5769 98.9232 72.5894 98.9996 72.615Z" fill="#263238"/>
<path d="M93.1747 54.7726C92.6879 54.7119 92.1965 54.6969 91.7068 54.7276C90.5319 54.8559 89.4358 55.3809 88.5993 56.2159C87.7816 57.0721 87.2267 58.145 87.0005 59.3071C86.8206 60.1985 86.8574 60.775 86.8165 60.771C86.7812 60.6377 86.7661 60.4998 86.7716 60.3621C86.7477 58.7632 87.3493 57.2183 88.448 56.0565C89.3145 55.1834 90.4677 54.6533 91.6946 54.564C92.0615 54.5397 92.43 54.5644 92.7904 54.6376C92.9253 54.6601 93.0554 54.7058 93.1747 54.7726Z" fill="#263238"/>
<path d="M70.5958 61.1175C70.6571 61.5109 70.6817 61.9093 70.6694 62.3073C70.6694 63.0433 70.6939 64.0778 70.6694 65.2104C70.6449 66.2817 70.6244 67.2549 70.604 68.0481C70.604 68.502 70.604 68.8291 70.604 69.1521C70.604 68.7841 70.604 68.4161 70.604 67.9009C70.604 67.0831 70.5631 66.1345 70.5426 65.0387C70.5222 63.9429 70.5426 62.9943 70.5426 62.2623C70.5254 61.8799 70.5432 61.4967 70.5958 61.1175Z" fill="#263238"/>
<path d="M64.2955 79.3043C64.2963 79.6708 64.1884 80.0294 63.9853 80.3345C63.7823 80.6396 63.4933 80.8777 63.1549 81.0185C62.8165 81.1593 62.444 81.1966 62.0844 81.1256C61.7248 81.0546 61.3944 80.8785 61.1349 80.6196C60.8755 80.3607 60.6987 80.0307 60.6269 79.6713C60.5551 79.3119 60.5915 78.9392 60.7316 78.6005C60.8717 78.2618 61.1091 77.9723 61.4137 77.7686C61.7184 77.5649 62.0767 77.4562 62.4432 77.4562C62.9338 77.4562 63.4043 77.6507 63.7515 77.9972C64.0988 78.3437 64.2944 78.8138 64.2955 79.3043Z" fill="#F5F5F5"/>
</svg>
