<svg width="259" height="192" viewBox="0 0 259 192" fill="none" xmlns="http://www.w3.org/2000/svg">
<path d="M217.398 138.466C212.044 147.52 194.838 150.833 185.728 150.261C175.246 149.596 166.8 143.176 159.483 136.863C150.249 128.922 144.416 124.666 131.141 126.805C119.449 128.685 108.355 132.777 96.4872 133.504C72.2164 135.049 44.2096 131.344 37.4333 106.646C31.2188 83.9982 44.8743 61.2991 71.7784 61.3918C94.4981 61.4794 94.4518 89.7336 119.356 80.6745C142.545 72.2184 146.152 39.579 174.942 42.0731C203.562 44.562 184.98 78.2526 185.764 96.5459C186.279 108.285 199.878 102.992 208.875 107.816C219.748 113.675 224.174 127.011 217.398 138.466Z" fill="#F08C51"/>
<path opacity="0.9" d="M217.398 138.466C212.044 147.52 194.838 150.833 185.728 150.261C175.246 149.596 166.8 143.176 159.483 136.863C150.249 128.922 144.416 124.666 131.141 126.805C119.449 128.685 108.355 132.777 96.4872 133.504C72.2164 135.049 44.2096 131.344 37.4333 106.646C31.2188 83.9982 44.8743 61.2991 71.7784 61.3918C94.4981 61.4794 94.4518 89.7336 119.356 80.6745C142.545 72.2184 146.152 39.579 174.942 42.0731C203.562 44.562 184.98 78.2526 185.764 96.5459C186.279 108.285 199.878 102.992 208.875 107.816C219.748 113.675 224.174 127.011 217.398 138.466Z" fill="white"/>
<path d="M129.502 191.981C184.682 191.981 229.415 189.369 229.415 186.148C229.415 182.926 184.682 180.314 129.502 180.314C74.3221 180.314 29.5898 182.926 29.5898 186.148C29.5898 189.369 74.3221 191.981 129.502 191.981Z" fill="#F5F5F5"/>
<path d="M159.27 33.4422C158.851 32.0575 158.295 30.718 157.611 29.4435L158.642 26.0682L151.979 19.4002L148.604 20.4308C147.329 19.7464 145.989 19.1905 144.605 18.7715L142.945 15.6797H133.515L131.861 18.7715C130.476 19.1896 129.137 19.7454 127.863 20.4308L124.487 19.4002L117.819 26.0682L118.85 29.4435C118.169 30.7192 117.615 32.0585 117.196 33.4422L114.078 35.1015V44.5316L117.196 46.1857C117.614 47.5698 118.168 48.9092 118.85 50.1845L117.819 53.5597L124.487 60.2278L127.863 59.1971C129.138 59.8787 130.477 60.4327 131.861 60.8513L133.515 63.9431H142.945L144.605 60.8513C145.988 60.4317 147.328 59.8777 148.604 59.1971L151.979 60.2278L158.647 53.5597L157.616 50.1845C158.302 48.9104 158.857 47.5707 159.275 46.1857L162.393 44.5316V35.1015L159.27 33.4422ZM138.23 53.2093C135.581 53.2093 132.99 52.4235 130.787 50.9513C128.584 49.4792 126.866 47.3867 125.852 44.9385C124.838 42.4904 124.573 39.7965 125.09 37.1976C125.607 34.5986 126.883 32.2114 128.757 30.3376C130.63 28.4639 133.018 27.1879 135.617 26.6709C138.216 26.154 140.909 26.4193 143.358 27.4333C145.806 28.4474 147.898 30.1646 149.37 32.3679C150.843 34.5712 151.628 37.1615 151.628 39.8114C151.628 43.3647 150.217 46.7726 147.704 49.2851C145.192 51.7977 141.784 53.2093 138.23 53.2093Z" fill="#F08C51"/>
<path opacity="0.2" d="M159.27 33.4422C158.851 32.0575 158.295 30.718 157.611 29.4435L158.642 26.0682L151.979 19.4002L148.604 20.4308C147.329 19.7464 145.989 19.1905 144.605 18.7715L142.945 15.6797H133.515L131.861 18.7715C130.476 19.1896 129.137 19.7454 127.863 20.4308L124.487 19.4002L117.819 26.0682L118.85 29.4435C118.169 30.7192 117.615 32.0585 117.196 33.4422L114.078 35.1015V44.5316L117.196 46.1857C117.614 47.5698 118.168 48.9092 118.85 50.1845L117.819 53.5597L124.487 60.2278L127.863 59.1971C129.138 59.8787 130.477 60.4327 131.861 60.8513L133.515 63.9431H142.945L144.605 60.8513C145.988 60.4317 147.328 59.8777 148.604 59.1971L151.979 60.2278L158.647 53.5597L157.616 50.1845C158.302 48.9104 158.857 47.5707 159.275 46.1857L162.393 44.5316V35.1015L159.27 33.4422ZM138.23 53.2093C135.581 53.2093 132.99 52.4235 130.787 50.9513C128.584 49.4792 126.866 47.3867 125.852 44.9385C124.838 42.4904 124.573 39.7965 125.09 37.1976C125.607 34.5986 126.883 32.2114 128.757 30.3376C130.63 28.4639 133.018 27.1879 135.617 26.6709C138.216 26.154 140.909 26.4193 143.358 27.4333C145.806 28.4474 147.898 30.1646 149.37 32.3679C150.843 34.5712 151.628 37.1615 151.628 39.8114C151.628 43.3647 150.217 46.7726 147.704 49.2851C145.192 51.7977 141.784 53.2093 138.23 53.2093Z" fill="white"/>
<path d="M138.227 35.375C137.349 35.375 136.49 35.6355 135.759 36.1236C135.029 36.6117 134.459 37.3054 134.123 38.1171C133.787 38.9287 133.699 39.8218 133.871 40.6835C134.042 41.5451 134.465 42.3366 135.086 42.9578C135.707 43.5791 136.499 44.0021 137.361 44.1735C138.222 44.3449 139.115 44.2569 139.927 43.9207C140.739 43.5845 141.432 43.0152 141.92 42.2847C142.408 41.5543 142.669 40.6955 142.669 39.8169C142.669 38.6389 142.201 37.509 141.368 36.676C140.535 35.843 139.405 35.375 138.227 35.375Z" fill="#F08C51"/>
<path d="M226.379 48.4006C225.78 46.421 224.988 44.5051 224.013 42.6807L225.487 37.8575L215.97 28.3398L211.141 29.8187C209.323 28.8334 207.408 28.039 205.426 27.4483L203.061 22.9961H189.586L187.216 27.4483C185.235 28.0409 183.32 28.8352 181.501 29.8187L176.678 28.3398L167.15 37.8678L168.623 42.691C167.645 44.5134 166.852 46.4297 166.258 48.4109L161.801 50.7761V64.2514L166.253 66.6218C166.846 68.6016 167.639 70.5163 168.618 72.3365L167.144 77.1546L176.672 86.6826L181.496 85.2088C183.317 86.1892 185.233 86.9801 187.216 87.5689L189.586 92.0263H203.061L205.426 87.574C207.407 86.9789 209.321 86.1847 211.141 85.2036L215.97 86.6774L225.498 77.1494L224.024 72.3262C224.995 70.5036 225.784 68.5894 226.379 66.6115L230.831 64.2411V50.7658L226.379 48.4006ZM196.321 81.9314C191.489 81.9314 186.766 80.4986 182.748 77.8142C178.731 75.1297 175.599 71.3142 173.75 66.85C171.901 62.3859 171.417 57.4738 172.36 52.7347C173.303 47.9956 175.629 43.6425 179.046 40.2258C182.463 36.8092 186.816 34.4824 191.555 33.5397C196.294 32.5971 201.206 33.0809 205.67 34.93C210.134 36.7791 213.95 39.9104 216.634 43.928C219.319 47.9456 220.752 52.669 220.752 57.5009C220.752 60.7091 220.12 63.886 218.892 66.85C217.664 69.8141 215.865 72.5073 213.596 74.7759C211.327 77.0445 208.634 78.844 205.67 80.0718C202.706 81.2995 199.529 81.9314 196.321 81.9314Z" fill="#F08C51"/>
<path d="M196.32 36.5C192.165 36.501 188.104 37.734 184.65 40.0432C181.195 42.3523 178.503 45.6338 176.914 49.4728C175.325 53.3117 174.91 57.5358 175.721 61.6108C176.532 65.6858 178.533 69.4287 181.472 72.3664C184.41 75.304 188.153 77.3044 192.229 78.1146C196.304 78.9248 200.528 78.5085 204.366 76.9182C208.205 75.3279 211.486 72.6352 213.794 69.1804C216.102 65.7256 217.334 61.6639 217.334 57.509C217.328 51.9382 215.111 46.5977 211.172 42.6591C207.232 38.7205 201.891 36.5055 196.32 36.5ZM196.32 75.7198C192.718 75.7208 189.197 74.6537 186.201 72.6532C183.206 70.6528 180.871 67.809 179.492 64.4815C178.113 61.154 177.751 57.4923 178.454 53.9594C179.156 50.4265 180.89 47.1811 183.436 44.6338C185.983 42.0864 189.228 40.3515 192.76 39.6484C196.293 38.9453 199.955 39.3056 203.283 40.6838C206.611 42.062 209.455 44.3961 211.456 47.391C213.458 50.3859 214.526 53.907 214.526 57.509C214.52 62.3362 212.601 66.9643 209.188 70.3781C205.775 73.792 201.147 75.713 196.32 75.7198Z" fill="#F08C51"/>
<path opacity="0.2" d="M196.32 36.5C192.165 36.501 188.104 37.734 184.65 40.0432C181.195 42.3523 178.503 45.6338 176.914 49.4728C175.325 53.3117 174.91 57.5358 175.721 61.6108C176.532 65.6858 178.533 69.4287 181.472 72.3664C184.41 75.304 188.153 77.3044 192.229 78.1146C196.304 78.9248 200.528 78.5085 204.366 76.9182C208.205 75.3279 211.486 72.6352 213.794 69.1804C216.102 65.7256 217.334 61.6639 217.334 57.509C217.328 51.9382 215.111 46.5977 211.172 42.6591C207.232 38.7205 201.891 36.5055 196.32 36.5ZM196.32 75.7198C192.718 75.7208 189.197 74.6537 186.201 72.6532C183.206 70.6528 180.871 67.809 179.492 64.4815C178.113 61.154 177.751 57.4923 178.454 53.9594C179.156 50.4265 180.89 47.1811 183.436 44.6338C185.983 42.0864 189.228 40.3515 192.76 39.6484C196.293 38.9453 199.955 39.3056 203.283 40.6838C206.611 42.062 209.455 44.3961 211.456 47.391C213.458 50.3859 214.526 53.907 214.526 57.509C214.52 62.3362 212.601 66.9643 209.188 70.3781C205.775 73.792 201.147 75.713 196.32 75.7198Z" fill="black"/>
<path d="M148.05 93.3503C147.914 93.3503 147.783 93.296 147.686 93.1994C147.589 93.1027 147.535 92.9716 147.535 92.835V91.8044C147.535 91.6677 147.589 91.5366 147.686 91.44C147.783 91.3434 147.914 91.2891 148.05 91.2891C148.187 91.2891 148.318 91.3434 148.415 91.44C148.511 91.5366 148.566 91.6677 148.566 91.8044V92.835C148.566 92.9716 148.511 93.1027 148.415 93.1994C148.318 93.296 148.187 93.3503 148.05 93.3503Z" fill="#F08C51"/>
<path d="M140.028 80.0358C139.555 79.7317 139.185 79.2916 138.967 78.7733C138.913 78.6476 138.811 78.5484 138.684 78.4977C138.557 78.447 138.415 78.4488 138.289 78.5028C138.163 78.5568 138.064 78.6585 138.013 78.7856C137.963 78.9126 137.964 79.0547 138.018 79.1804C138.321 79.8842 138.825 80.4829 139.466 80.9015C139.549 80.9551 139.646 80.9837 139.745 80.984C139.856 80.9848 139.965 80.9494 140.055 80.8831C140.145 80.8168 140.21 80.7232 140.242 80.6163C140.274 80.5094 140.271 80.395 140.232 80.2903C140.193 80.1857 140.122 80.0963 140.028 80.0358Z" fill="#F08C51"/>
<path d="M138.23 73.5999C138.367 73.5999 138.498 73.5456 138.595 73.449C138.691 73.3524 138.745 73.2213 138.745 73.0846V71.111C138.745 70.9743 138.691 70.8433 138.595 70.7466C138.498 70.65 138.367 70.5957 138.23 70.5957C138.093 70.5957 137.962 70.65 137.866 70.7466C137.769 70.8433 137.715 70.9743 137.715 71.111V73.0846C137.715 73.2213 137.769 73.3524 137.866 73.449C137.962 73.5456 138.093 73.5999 138.23 73.5999Z" fill="#F08C51"/>
<path d="M143.596 80.4883H141.617C141.48 80.4883 141.349 80.5426 141.252 80.6392C141.156 80.7358 141.102 80.8669 141.102 81.0036C141.102 81.1403 141.156 81.2713 141.252 81.368C141.349 81.4646 141.48 81.5189 141.617 81.5189H143.596C143.732 81.5189 143.863 81.4646 143.96 81.368C144.057 81.2713 144.111 81.1403 144.111 81.0036C144.111 80.8669 144.057 80.7358 143.96 80.6392C143.863 80.5426 143.732 80.4883 143.596 80.4883Z" fill="#F08C51"/>
<path d="M138.745 77.0377V75.0641C138.745 74.9275 138.691 74.7964 138.595 74.6998C138.498 74.6031 138.367 74.5488 138.23 74.5488C138.093 74.5488 137.962 74.6031 137.866 74.6998C137.769 74.7964 137.715 74.9275 137.715 75.0641V77.0377C137.715 77.1744 137.769 77.3055 137.866 77.4021C137.962 77.4988 138.093 77.5531 138.23 77.5531C138.367 77.5531 138.498 77.4988 138.595 77.4021C138.691 77.3055 138.745 77.1744 138.745 77.0377Z" fill="#F08C51"/>
<path d="M148.539 83.84C148.521 83.7048 148.45 83.5822 148.342 83.4992C148.234 83.4161 148.097 83.3793 147.962 83.3969C147.895 83.4081 147.83 83.4325 147.773 83.4687C147.715 83.5049 147.665 83.5521 147.626 83.6077C147.586 83.6632 147.559 83.7261 147.544 83.7925C147.529 83.8589 147.527 83.9276 147.539 83.9946C147.556 84.1142 147.564 84.2347 147.565 84.3553V85.9012C147.565 86.0379 147.619 86.169 147.716 86.2656C147.812 86.3623 147.943 86.4166 148.08 86.4166C148.217 86.4166 148.348 86.3623 148.445 86.2656C148.541 86.169 148.595 86.0379 148.595 85.9012V84.3553C148.588 84.1825 148.569 84.0104 148.539 83.84Z" fill="#F08C51"/>
<path d="M148.05 87.3398C147.914 87.3398 147.783 87.3941 147.686 87.4908C147.589 87.5874 147.535 87.7185 147.535 87.8551V89.8339C147.535 89.9706 147.589 90.1017 147.686 90.1983C147.783 90.2949 147.914 90.3492 148.05 90.3492C148.187 90.3492 148.318 90.2949 148.415 90.1983C148.511 90.1017 148.566 89.9706 148.566 89.8339V87.8551C148.566 87.7185 148.511 87.5874 148.415 87.4908C148.318 87.3941 148.187 87.3398 148.05 87.3398Z" fill="#F08C51"/>
<path d="M147.604 81.794C147.099 81.2179 146.433 80.8067 145.692 80.614C145.626 80.5971 145.558 80.5932 145.491 80.6027C145.424 80.6122 145.359 80.6348 145.301 80.6693C145.242 80.7038 145.191 80.7494 145.151 80.8035C145.11 80.8577 145.08 80.9194 145.063 80.985C145.046 81.0507 145.042 81.119 145.052 81.1861C145.061 81.2532 145.084 81.3178 145.119 81.3762C145.153 81.4346 145.199 81.4856 145.253 81.5263C145.307 81.5671 145.369 81.5968 145.434 81.6137C145.976 81.7534 146.462 82.0533 146.831 82.4742C146.879 82.5292 146.938 82.5733 147.005 82.6035C147.072 82.6337 147.144 82.6493 147.217 82.6494C147.316 82.6493 147.413 82.6207 147.496 82.5669C147.579 82.5131 147.645 82.4365 147.686 82.3463C147.727 82.2561 147.741 82.156 147.726 82.058C147.712 81.9601 147.669 81.8684 147.604 81.794Z" fill="#F08C51"/>
<path d="M138.23 69.6276C138.093 69.6276 137.962 69.5733 137.866 69.4767C137.769 69.3801 137.715 69.249 137.715 69.1123V68.0817C137.715 67.945 137.769 67.814 137.866 67.7173C137.962 67.6207 138.093 67.5664 138.23 67.5664C138.367 67.5664 138.498 67.6207 138.595 67.7173C138.691 67.814 138.745 67.945 138.745 68.0817V69.1123C138.745 69.249 138.691 69.3801 138.595 69.4767C138.498 69.5733 138.367 69.6276 138.23 69.6276Z" fill="#F08C51"/>
<path d="M172.462 119.297H53.1484V121.209H172.462V119.297Z" fill="#455A64"/>
<path d="M172.463 121.211H198.352V119.299H172.463V121.211Z" fill="#455A64"/>
<path opacity="0.2" d="M172.463 121.211H198.352V119.299H172.463V121.211Z" fill="black"/>
<path d="M189.702 123.257H61.7927L57.5156 121.211H193.979L189.702 123.257Z" fill="#455A64"/>
<path opacity="0.6" d="M189.702 123.257H61.7927L57.5156 121.211H193.979L189.702 123.257Z" fill="white"/>
<path d="M65.6602 123.256V184.237H67.2988L69.36 123.256H65.6602Z" fill="#455A64"/>
<path d="M85.0039 123.256V184.237H86.6426L88.7038 123.256H85.0039Z" fill="#455A64"/>
<path d="M189.704 123.256V184.237H188.07L186.004 123.256H189.704Z" fill="#455A64"/>
<path d="M170.364 123.256V184.237H168.725L166.664 123.256H170.364Z" fill="#455A64"/>
<path d="M131.429 96.1504L126.044 118.087L125.895 119.298H163.038L163.192 118.087L168.572 96.1504H131.429Z" fill="#455A64"/>
<path opacity="0.3" d="M131.429 96.1504L126.044 118.087L125.895 119.298H163.038L163.192 118.087L168.572 96.1504H131.429Z" fill="black"/>
<path d="M167.434 96.1504H130.286L124.906 118.087H162.049L167.434 96.1504Z" fill="#455A64"/>
<path d="M161.26 117.083L166.156 97.1562H131.074L126.184 117.083H161.26Z" fill="white"/>
<path d="M152.371 118.086L152.216 119.297H111.316L111.466 118.086H152.371Z" fill="#455A64"/>
<path opacity="0.6" d="M152.371 118.086L152.216 119.297H111.316L111.466 118.086H152.371Z" fill="white"/>
<path d="M75.1052 115.309C75.0793 114.524 74.772 113.775 74.2393 113.198C73.7067 112.621 72.9843 112.254 72.204 112.166V111.573C72.2034 111.539 72.1959 111.505 72.182 111.474C72.1681 111.442 72.1481 111.414 72.1231 111.39C72.0982 111.367 72.0688 111.349 72.0366 111.337C72.0045 111.325 71.9703 111.319 71.9361 111.321H66.3708C66.3362 111.319 66.3018 111.325 66.2694 111.337C66.237 111.348 66.2072 111.367 66.1819 111.39C66.1565 111.414 66.136 111.442 66.1216 111.473C66.1071 111.505 66.099 111.538 66.0977 111.573V119.303H72.204V118.457C72.9856 118.37 73.7093 118.003 74.2422 117.425C74.7751 116.846 75.0816 116.095 75.1052 115.309ZM72.204 117.458V113.165C72.719 113.241 73.1895 113.5 73.5297 113.894C73.8699 114.288 74.0571 114.791 74.0571 115.312C74.0571 115.832 73.8699 116.335 73.5297 116.729C73.1895 117.123 72.719 117.382 72.204 117.458Z" fill="#455A64"/>
<path d="M179.258 119.296H184.431L182.901 107.965H179.258V119.296Z" fill="#263238"/>
<path d="M171.676 119.299H181.477L183.296 106.035H173.5L171.676 119.299Z" fill="#455A64"/>
<path opacity="0.3" d="M171.676 119.299H181.477L183.296 106.035H173.5L171.676 119.299Z" fill="black"/>
<path d="M170.363 119.299H180.561L182.385 106.035H172.187L170.363 119.299Z" fill="#455A64"/>
<path opacity="0.4" d="M179.66 118.252L181.196 107.08H173.09L171.555 118.252H179.66Z" fill="white"/>
<path d="M102.47 99.7187L102.048 100.172L101.594 100.687C101.29 101.038 100.986 101.393 100.698 101.759C100.12 102.491 99.5639 103.238 99.0434 104.006C98.0079 105.491 97.1436 107.088 96.4669 108.767C96.1517 109.566 95.9069 110.39 95.7352 111.231C95.6527 111.705 95.6012 111.911 95.5754 112.112C95.5469 112.272 95.5469 112.436 95.5754 112.596C95.6618 112.848 95.7974 113.08 95.9744 113.279C96.1513 113.478 96.366 113.64 96.606 113.756C96.9539 113.97 97.3194 114.154 97.6985 114.307C97.8977 114.389 98.1039 114.467 98.3168 114.539C98.5127 114.611 98.76 114.683 98.9146 114.745V117.584C98.5539 117.636 98.2911 117.677 97.9871 117.698C97.683 117.718 97.3893 117.723 97.0853 117.698C96.4602 117.685 95.8383 117.606 95.2302 117.461C94.545 117.3 93.8882 117.036 93.2823 116.677C92.5699 116.261 91.9578 115.692 91.4891 115.013C91.0065 114.29 90.6866 113.47 90.5512 112.612C90.5167 112.41 90.4944 112.207 90.4842 112.004C90.474 111.808 90.474 111.612 90.4842 111.416V111.128C90.4784 111.05 90.4784 110.973 90.4842 110.896L90.5254 110.442C90.6573 109.264 90.9058 108.103 91.2675 106.974C91.9653 104.806 92.9478 102.741 94.1893 100.832C94.7857 99.8943 95.4343 98.9911 96.132 98.1264C96.4772 97.6935 96.8328 97.271 97.2038 96.8536C97.3841 96.6423 97.5748 96.4362 97.7706 96.2301C97.9664 96.0239 98.1468 95.8436 98.4148 95.5859L102.47 99.7187Z" fill="#B55B52"/>
<path d="M97.8906 114.682L100.292 112.92L101.658 117.857C101.658 117.857 99.5293 118.645 97.9061 117.583L97.8906 114.682Z" fill="#B55B52"/>
<path d="M103.623 111.734L104.561 115.867L101.655 117.856L100.289 112.92L103.623 111.734Z" fill="#B55B52"/>
<path d="M118.811 80.7753C118.703 81.0794 118.78 81.3834 118.981 81.4504C119.182 81.5174 119.429 81.3319 119.532 81.0278C119.635 80.7238 119.563 80.4146 119.367 80.3476C119.171 80.2806 118.919 80.4662 118.811 80.7753Z" fill="#263238"/>
<path d="M118.756 81.373C118.796 82.4343 118.982 83.485 119.308 84.4958C119.048 84.5702 118.776 84.5875 118.509 84.5466C118.242 84.5057 117.987 84.4075 117.762 84.2587L118.756 81.373Z" fill="#A02724"/>
<path d="M118.314 78.7033C118.352 78.7163 118.394 78.7163 118.432 78.7033C118.658 78.6279 118.899 78.6072 119.135 78.6431C119.37 78.6789 119.594 78.7702 119.788 78.9094C119.826 78.9376 119.874 78.9501 119.922 78.9445C119.969 78.9388 120.013 78.9155 120.044 78.8792C120.075 78.8428 120.092 78.7961 120.09 78.7482C120.088 78.7003 120.069 78.6549 120.035 78.6209C119.793 78.4406 119.512 78.3208 119.214 78.2715C118.916 78.2222 118.611 78.2448 118.324 78.3375C118.287 78.3503 118.254 78.3747 118.231 78.407C118.208 78.4393 118.195 78.4781 118.195 78.5178C118.195 78.5576 118.208 78.5963 118.231 78.6286C118.254 78.661 118.287 78.6853 118.324 78.6982L118.314 78.7033Z" fill="#263238"/>
<path d="M107.511 81.8984C108.088 84.8305 108.66 90.2052 106.609 92.1633C106.609 92.1633 107.413 95.1366 112.865 95.1366C118.858 95.1366 115.73 92.1633 115.73 92.1633C112.458 91.38 112.541 88.953 113.113 86.6753L107.511 81.8984Z" fill="#B55B52"/>
<path d="M105.826 93.1839C105.393 92.2409 104.924 91.1639 105.898 90.829C106.975 90.4579 112.87 90.0766 114.9 90.7723C115.169 90.8453 115.42 90.9712 115.639 91.1424C115.858 91.3137 116.041 91.527 116.177 91.7698C116.313 92.0126 116.399 92.28 116.43 92.5564C116.461 92.8329 116.437 93.1128 116.359 93.3797L105.826 93.1839Z" fill="#263238"/>
<path d="M126.412 98.2129C127.674 100.485 129.029 102.825 130.4 105.072C131.771 107.318 133.209 109.555 134.744 111.595C135.125 112.111 135.522 112.6 135.914 113.09C136.11 113.342 136.316 113.548 136.517 113.78L136.816 114.12L136.893 114.208L136.929 114.249L136.965 114.296C137.205 114.528 137.494 114.704 137.81 114.811C138.297 114.98 138.799 115.103 139.31 115.177C141.815 115.43 144.34 115.4 146.838 115.089L147.622 117.82C146.926 118.129 146.277 118.336 145.586 118.593C144.896 118.851 144.215 119.021 143.525 119.196C142.061 119.563 140.561 119.764 139.052 119.794C138.205 119.808 137.36 119.723 136.532 119.541C135.517 119.34 134.559 118.914 133.729 118.294L133.384 118.011L133.301 117.939L133.25 117.887L133.152 117.789L132.75 117.393C132.487 117.13 132.199 116.877 131.962 116.599C131.446 116.058 130.962 115.517 130.514 114.96C128.713 112.785 127.052 110.497 125.541 108.112C124.788 106.937 124.064 105.75 123.366 104.551C122.665 103.34 121.99 102.155 121.336 100.877L126.412 98.2129Z" fill="#B55B52"/>
<path d="M99.4329 93.0699C95.6712 93.9305 91.3633 104.18 91.3633 104.18L98.9125 109.333C100.79 106.64 102.456 103.806 103.895 100.856C106.127 96.1875 103.277 92.1887 99.4329 93.0699Z" fill="#7997F1"/>
<path opacity="0.2" d="M102.121 99.6035L98.5547 109.106L98.9051 109.353C98.9051 109.353 100.451 107.184 102.121 104.257V99.6035Z" fill="black"/>
<path d="M121.897 93.2719C121.897 93.2719 126.164 98.0951 122.134 127.931H100.682C100.538 124.638 102.604 108.582 99.4297 93.0658C101.8 92.6093 104.198 92.3063 106.608 92.1588C109.646 91.9809 112.691 91.9809 115.729 92.1588C117.811 92.3684 119.873 92.7406 121.897 93.2719Z" fill="#7997F1"/>
<path opacity="0.2" d="M119.512 101.902C120.071 105.289 121.535 108.461 123.748 111.085C123.835 109.163 123.871 107.437 123.866 105.896L119.512 101.902Z" fill="black"/>
<path d="M117.65 96.5278C117.135 100.326 124.607 110.024 124.607 110.024L132.125 104.871C132.125 104.871 130.038 99.5268 126.529 96.0228C122.53 92.0034 118.238 92.395 117.65 96.5278Z" fill="#7997F1"/>
<path d="M145.992 115.117L149.053 113.859L152.202 116.24C152.202 116.24 149.197 118.899 146.466 117.863L145.992 115.117Z" fill="#B55B52"/>
<path d="M151.075 113.732L153.383 115.381L152.188 116.237L149.039 113.856L151.075 113.732Z" fill="#B55B52"/>
<path d="M108.844 76.5811C107.772 80.415 106.948 82.605 108.174 85.1867C110.014 89.0773 115.244 88.969 117.449 85.5371C119.428 82.4453 120.85 76.6945 117.697 73.9273C117.004 73.3123 116.166 72.8845 115.262 72.6846C114.358 72.4848 113.417 72.5194 112.53 72.7854C111.643 73.0513 110.839 73.5396 110.194 74.204C109.548 74.8683 109.084 75.6866 108.844 76.5811Z" fill="#B55B52"/>
<path d="M117.008 76.6208C115.462 81.0215 113.643 85.855 109.201 84.9378C106.336 84.3452 106.109 79.7332 105.078 77.6359C104.166 75.7963 104.223 72.0964 106.109 72.05C105.264 70.8236 109.536 66.3353 112.452 68.7057C113.2 67.6751 118.584 64.6399 122.573 69.458C126.329 74.0133 124.49 77.8111 117.008 76.6208Z" fill="#263238"/>
<path d="M113.529 79.4344C113.425 80.4173 113.646 81.4071 114.157 82.2531C114.843 83.3558 115.848 82.9333 116.219 81.8048C116.548 80.7742 116.584 78.9964 115.631 78.2801C114.678 77.5638 113.673 78.2492 113.529 79.4344Z" fill="#B55B52"/>
<path d="M146.444 181.327C146.959 181.327 147.475 181.255 147.624 181.023C147.667 180.962 147.689 180.889 147.689 180.814C147.689 180.74 147.667 180.667 147.624 180.605C147.556 180.497 147.449 180.418 147.325 180.384C146.655 180.204 145.264 181.002 145.197 181.038C145.179 181.047 145.165 181.062 145.157 181.079C145.148 181.097 145.146 181.117 145.151 181.136C145.154 181.155 145.163 181.172 145.175 181.185C145.188 181.199 145.205 181.209 145.223 181.214C145.626 181.287 146.034 181.325 146.444 181.327ZM147.083 180.549C147.143 180.54 147.204 180.54 147.263 180.549C147.302 180.556 147.339 180.572 147.371 180.595C147.403 180.618 147.43 180.648 147.449 180.683C147.516 180.801 147.495 180.858 147.449 180.889C147.263 181.152 146.248 181.157 145.501 181.049C145.991 180.781 146.528 180.611 147.083 180.549Z" fill="#9E9E9E"/>
<path d="M145.235 181.213H145.277C145.761 180.997 146.72 180.131 146.642 179.667C146.642 179.559 146.549 179.43 146.292 179.399C146.199 179.391 146.106 179.402 146.018 179.43C145.929 179.458 145.847 179.504 145.776 179.564C145.261 179.981 145.158 181.064 145.153 181.11C145.151 181.126 145.153 181.143 145.16 181.158C145.166 181.174 145.176 181.187 145.189 181.198C145.203 181.206 145.219 181.211 145.235 181.213ZM146.215 179.59H146.271C146.441 179.59 146.452 179.677 146.457 179.698C146.503 179.971 145.849 180.651 145.354 180.945C145.395 180.491 145.575 180.061 145.869 179.713C145.965 179.631 146.088 179.587 146.215 179.59Z" fill="#9E9E9E"/>
<path d="M140.574 181.119H144.583L145.495 171.828H141.486L140.574 181.119Z" fill="#B55B52"/>
<path d="M144.807 180.656H140.432C140.351 180.657 140.273 180.684 140.21 180.735C140.148 180.786 140.104 180.856 140.087 180.935L139.293 184.48C139.273 184.566 139.272 184.656 139.292 184.743C139.311 184.829 139.351 184.91 139.406 184.979C139.462 185.048 139.533 185.104 139.613 185.141C139.693 185.179 139.781 185.198 139.87 185.196C141.447 185.17 143.73 185.078 145.714 185.078C148.038 185.078 150.042 185.201 152.763 185.201C154.412 185.201 154.871 183.537 154.18 183.387C151.042 182.702 148.481 182.63 145.77 180.955C145.483 180.769 145.149 180.665 144.807 180.656Z" fill="#263238"/>
<path opacity="0.2" d="M145.486 171.834L145.022 176.621H141.008L141.477 171.834H145.486Z" fill="black"/>
<path d="M130.377 181.319C130.547 181.341 130.719 181.329 130.885 181.284C131.05 181.239 131.205 181.162 131.34 181.056C131.388 180.991 131.413 180.912 131.413 180.832C131.413 180.751 131.388 180.673 131.34 180.608C131.31 180.551 131.267 180.502 131.216 180.464C131.164 180.425 131.104 180.399 131.041 180.386C130.454 180.247 129.346 181.005 129.3 181.035C129.285 181.047 129.274 181.062 129.266 181.079C129.259 181.096 129.256 181.115 129.259 181.133C129.262 181.151 129.271 181.167 129.284 181.18C129.297 181.193 129.313 181.202 129.331 181.206C129.674 181.28 130.025 181.318 130.377 181.319ZM130.892 180.556C130.93 180.551 130.968 180.551 131.005 180.556C131.042 180.562 131.077 180.576 131.108 180.597C131.138 180.619 131.163 180.647 131.181 180.68C131.268 180.84 131.217 180.901 131.181 180.927C131.011 181.149 130.191 181.154 129.588 181.056C129.976 180.794 130.418 180.623 130.882 180.556H130.892Z" fill="#9E9E9E"/>
<path d="M129.356 181.214H129.397C129.814 180.988 130.618 180.112 130.531 179.668C130.517 179.597 130.48 179.533 130.424 179.487C130.369 179.441 130.299 179.416 130.227 179.416C130.155 179.407 130.082 179.414 130.012 179.435C129.943 179.456 129.879 179.492 129.825 179.54C129.361 179.921 129.263 181.086 129.258 181.127C129.258 181.144 129.262 181.161 129.27 181.176C129.278 181.192 129.29 181.205 129.304 181.214C129.321 181.22 129.339 181.22 129.356 181.214ZM130.165 179.591H130.206C130.33 179.591 130.34 179.663 130.345 179.689C130.397 179.952 129.881 180.617 129.469 180.931C129.497 180.474 129.662 180.035 129.943 179.674C130.005 179.62 130.083 179.591 130.165 179.591Z" fill="#9E9E9E"/>
<path d="M124.758 181.119H128.767L130.782 171.828H126.773L124.758 181.119Z" fill="#B55B52"/>
<path d="M129.049 180.656H124.545C124.465 180.657 124.388 180.685 124.326 180.736C124.264 180.786 124.222 180.857 124.205 180.935L123.411 184.48C123.393 184.567 123.394 184.657 123.415 184.744C123.436 184.83 123.476 184.911 123.533 184.98C123.589 185.048 123.66 185.104 123.741 185.141C123.822 185.179 123.91 185.198 123.999 185.196C125.571 185.171 126.338 185.078 128.317 185.078C129.538 185.078 131.1 185.201 132.785 185.201C134.47 185.201 134.686 183.537 133.996 183.388C130.904 182.713 130.693 181.78 129.703 180.888C129.521 180.734 129.288 180.651 129.049 180.656Z" fill="#263238"/>
<g opacity="0.2">
<path d="M126.771 171.834H130.78L129.74 176.621H125.73L126.771 171.834Z" fill="black"/>
</g>
<path d="M122.133 127.936C122.133 127.936 152.176 131.115 151.846 146.44C151.633 156.065 149.782 165.583 146.373 174.586H140.416C140.416 174.586 140.72 164.862 140.519 149.171C140.458 144.467 130.961 142.915 121.68 142.369C117.75 142.122 113.967 140.782 110.758 138.499C107.55 136.216 105.043 133.082 103.521 129.451L102.887 127.936H122.133Z" fill="#263238"/>
<path d="M147.835 172.988C147.866 172.988 147.448 175.807 147.448 175.807H139.203L138.977 173.292L147.835 172.988Z" fill="#9E9E9E"/>
<path d="M115.705 127.936C115.705 127.936 137.482 135.15 138.033 144.096C139.064 160.554 130.968 174.586 130.968 174.586H124.955C124.955 174.586 127.238 167.629 128.047 152.717C129.077 133.985 94.1242 152.686 100.674 127.936H115.705Z" fill="#263238"/>
<path d="M132.784 172.988C132.815 172.988 132.026 175.807 132.026 175.807H123.781L123.931 173.292L132.784 172.988Z" fill="#9E9E9E"/>
<path d="M131.409 143.714H97.9141C97.9141 142.7 98.3169 141.728 99.034 141.011C99.751 140.293 100.724 139.891 101.738 139.891H127.585C128.599 139.891 129.572 140.293 130.289 141.011C131.006 141.728 131.409 142.7 131.409 143.714Z" fill="#455A64"/>
<path d="M99.464 143.709L94.4141 186.046H95.4962L101.901 143.709H99.464Z" fill="#455A64"/>
<path d="M106.223 143.709L106.125 186.046H107.202L108.66 143.709H106.223Z" fill="#455A64"/>
<path d="M129.858 143.709L134.908 186.046H133.826L127.426 143.709H129.858Z" fill="#455A64"/>
<path d="M123.101 143.709L123.199 186.046H122.122L120.664 143.709H123.101Z" fill="#455A64"/>
</svg>
