<svg width="17" height="17" viewBox="0 0 17 17" fill="none" xmlns="http://www.w3.org/2000/svg">
<path d="M7.19831 3.65852C7.81953 3.40121 8.50311 3.33388 9.16259 3.46506C9.82207 3.59624 10.4279 3.92003 10.9033 4.39549C11.3788 4.87096 11.7026 5.47673 11.8337 6.13621C11.9649 6.7957 11.8976 7.47927 11.6403 8.10049C11.383 8.72171 10.9472 9.25268 10.3881 9.62625C9.82904 9.99981 9.17174 10.1992 8.49934 10.1992H7.6494V8.49934H8.49934C8.83554 8.49934 9.16419 8.39964 9.44373 8.21286C9.72327 8.02607 9.94115 7.76059 10.0698 7.44998C10.1985 7.13937 10.2321 6.79758 10.1665 6.46784C10.101 6.1381 9.93905 5.83521 9.70132 5.59748C9.46359 5.35975 9.16071 5.19786 8.83096 5.13226C8.50122 5.06668 8.15944 5.10034 7.84882 5.229C7.53821 5.35766 7.27273 5.57553 7.08595 5.85507C6.89916 6.13462 6.79947 6.46327 6.79947 6.79947H5.0996C5.0996 6.12707 5.29899 5.46976 5.67256 4.91068C6.04613 4.35159 6.57709 3.91584 7.19831 3.65852Z" fill="#A8A29E"/>
<path d="M9.77424 12.324C9.77424 13.0281 9.20344 13.5989 8.49934 13.5989C7.79523 13.5989 7.22444 13.0281 7.22444 12.324C7.22444 11.6199 7.79523 11.0491 8.49934 11.0491C9.20344 11.0491 9.77424 11.6199 9.77424 12.324Z" fill="#A8A29E"/>
<path fill-rule="evenodd" clip-rule="evenodd" d="M8.49934 0C3.80528 0 0 3.80528 0 8.49934C0 13.1934 3.80528 16.9987 8.49934 16.9987C13.1934 16.9987 16.9987 13.1934 16.9987 8.49934C16.9987 3.80528 13.1934 0 8.49934 0ZM1.69987 8.49934C1.69987 4.74409 4.74409 1.69987 8.49934 1.69987C12.2546 1.69987 15.2988 4.74409 15.2988 8.49934C15.2988 12.2546 12.2546 15.2988 8.49934 15.2988C4.74409 15.2988 1.69987 12.2546 1.69987 8.49934Z" fill="#A8A29E"/>
</svg>
