<svg width="17" height="15" viewBox="0 0 17 15" fill="none" xmlns="http://www.w3.org/2000/svg">
<path d="M6.66667 4.16667C6.66667 4.85702 6.10702 5.41667 5.41667 5.41667C4.72631 5.41667 4.16667 4.85702 4.16667 4.16667C4.16667 3.47631 4.72631 2.91667 5.41667 2.91667C6.10702 2.91667 6.66667 3.47631 6.66667 4.16667Z" fill="white"/>
<path d="M11.25 5.41667C11.9404 5.41667 12.5 4.85702 12.5 4.16667C12.5 3.47631 11.9404 2.91667 11.25 2.91667C10.5596 2.91667 10 3.47631 10 4.16667C10 4.85702 10.5596 5.41667 11.25 5.41667Z" fill="white"/>
<path fill-rule="evenodd" clip-rule="evenodd" d="M0.916682 5H0V3.33333H0.916682C1.30274 1.43147 2.9842 0 5 0H11.6667C13.6825 0 15.3639 1.43147 15.75 3.33333H16.6667V5H15.75C15.4546 6.45518 14.4009 7.63497 13.0192 8.10889C13.4489 8.40106 13.8532 8.73478 14.2259 9.10744C15.7887 10.6702 16.6667 12.7899 16.6667 15H15C15 13.2319 14.2976 11.5362 13.0474 10.286C11.7971 9.03571 10.1014 8.33333 8.33333 8.33333C6.56522 8.33333 4.86953 9.03571 3.61929 10.286C2.36905 11.5362 1.66667 13.2319 1.66667 15L0 15C0 12.7899 0.877974 10.6702 2.44078 9.10744C2.81344 8.73478 3.21777 8.40106 3.64744 8.10889C2.26582 7.63497 1.21207 6.45518 0.916682 5ZM5 6.66667H11.6667C13.0474 6.66667 14.1667 5.54738 14.1667 4.16667C14.1667 2.78595 13.0474 1.66667 11.6667 1.66667H5C3.61929 1.66667 2.5 2.78595 2.5 4.16667C2.5 5.54738 3.61929 6.66667 5 6.66667Z" fill="white"/>
</svg>
