<svg width="53" height="44" viewBox="0 0 53 44" fill="none" xmlns="http://www.w3.org/2000/svg">
<path fill-rule="evenodd" clip-rule="evenodd" d="M12.5826 27.2124C16.5212 24.1902 21.347 22.5521 26.3115 22.5521C31.2759 22.5521 36.1017 24.1902 40.0403 27.2124C43.9789 30.2345 46.8102 34.4719 48.0951 39.2672C48.6323 41.2723 47.4424 43.3334 45.4373 43.8706C43.4321 44.4079 41.3711 43.218 40.8339 41.2128C39.9773 38.016 38.0897 35.1911 35.464 33.1763C32.8383 31.1615 29.6211 30.0694 26.3114 30.0694C23.0018 30.0694 19.7846 31.1615 17.1589 33.1763C14.5332 35.1911 12.6456 38.016 11.789 41.2128C11.2518 43.218 9.19074 44.4079 7.18562 43.8706C5.18049 43.3333 3.99056 41.2723 4.52783 39.2672C5.81274 34.4719 8.64404 30.2345 12.5826 27.2124Z" fill="#9A3412"/>
<path fill-rule="evenodd" clip-rule="evenodd" d="M3.75868 0C5.83454 0 7.51735 1.68282 7.51735 3.75868L7.51735 15.0347C7.51735 17.1106 5.83454 18.7934 3.75868 18.7934C1.68282 18.7934 0 17.1106 0 15.0347L0 3.75868C0 1.68282 1.68282 0 3.75868 0Z" fill="#9A3412"/>
<path fill-rule="evenodd" clip-rule="evenodd" d="M48.8628 0C50.9386 0 52.6215 1.68282 52.6215 3.75868V15.0347C52.6215 17.1106 50.9386 18.7934 48.8628 18.7934C46.7869 18.7934 45.1041 17.1106 45.1041 15.0347V3.75868C45.1041 1.68282 46.7869 0 48.8628 0Z" fill="#9A3412"/>
</svg>
