<svg width="255" height="213" viewBox="0 0 255 213" fill="none" xmlns="http://www.w3.org/2000/svg" xmlns:xlink="http://www.w3.org/1999/xlink">
<rect x="44.7061" y="22.6445" width="165.588" height="165.588" fill="url(#pattern0_24429_24545)"/>
<circle cx="245.322" cy="68.9959" r="8.84552" fill="#FF8059"/>
<circle cx="232.585" cy="143.298" r="5.30731" fill="#28BAB3"/>
<circle cx="230.816" cy="106.854" r="7.07641" fill="#975EFD"/>
<circle cx="53.9055" cy="34.6741" r="7.07641" fill="#F363A0"/>
<circle cx="83.6267" cy="6.36889" r="4.24585" fill="#28BAB3"/>
<circle cx="189.065" cy="16.984" r="6.36877" fill="#28BAB3"/>
<circle cx="146.252" cy="8.13787" r="8.13787" fill="#975EFD"/>
<circle cx="37.6295" cy="6.36877" r="6.36877" fill="#975EFD"/>
<circle cx="14.9851" cy="87.7478" r="4.24585" fill="#FF8059"/>
<circle cx="207.463" cy="44.5806" r="2.83056" fill="#FF8059"/>
<circle cx="4.37024" cy="135.866" r="3.53821" fill="#28BAB3"/>
<circle cx="28.4303" cy="118.884" r="6.36877" fill="#975EFD"/>
<circle cx="54.6132" cy="190.356" r="7.78405" fill="#28BAB3"/>
<circle cx="182.696" cy="186.816" r="11.3223" fill="#F363A0"/>
<circle cx="99.1943" cy="201.679" r="5.66113" fill="#975EFD"/>
<circle cx="140.237" cy="209.462" r="3.53821" fill="#28BAB3"/>
<circle cx="220.908" cy="74.3019" r="3.53821" fill="#28BAB3"/>
<circle cx="127" cy="107" r="53" fill="white"/>
<path d="M114.991 116.572C113.099 116.572 111.383 116.139 109.843 115.274C108.303 114.409 107.071 113.25 106.147 111.798C105.238 110.331 104.783 108.703 104.783 106.914C104.783 105.506 105.099 104.186 105.729 102.954C106.375 101.707 107.24 100.659 108.325 99.808C107.475 99.0307 106.778 98.114 106.235 97.058C105.707 95.9873 105.443 94.8433 105.443 93.626C105.443 91.9687 105.876 90.458 106.741 89.094C107.607 87.73 108.758 86.6447 110.195 85.838C111.647 85.0313 113.246 84.628 114.991 84.628C116.751 84.628 118.35 85.0313 119.787 85.838C121.225 86.6447 122.376 87.73 123.241 89.094C124.107 90.458 124.539 91.9687 124.539 93.626C124.539 94.8433 124.275 95.9873 123.747 97.058C123.234 98.114 122.537 99.0307 121.657 99.808C122.772 100.659 123.645 101.707 124.275 102.954C124.921 104.186 125.243 105.506 125.243 106.914C125.243 108.689 124.781 110.309 123.857 111.776C122.948 113.228 121.716 114.394 120.161 115.274C118.607 116.139 116.883 116.572 114.991 116.572ZM114.991 111.204C115.842 111.204 116.612 111.013 117.301 110.632C117.991 110.236 118.541 109.715 118.951 109.07C119.362 108.425 119.567 107.706 119.567 106.914C119.567 106.122 119.362 105.403 118.951 104.758C118.541 104.113 117.991 103.599 117.301 103.218C116.612 102.822 115.842 102.624 114.991 102.624C114.155 102.624 113.393 102.822 112.703 103.218C112.014 103.599 111.457 104.113 111.031 104.758C110.621 105.403 110.415 106.122 110.415 106.914C110.415 107.706 110.621 108.425 111.031 109.07C111.457 109.715 112.014 110.236 112.703 110.632C113.393 111.013 114.155 111.204 114.991 111.204ZM114.991 97.256C115.71 97.256 116.363 97.0947 116.949 96.772C117.536 96.4347 117.998 95.9947 118.335 95.452C118.687 94.9093 118.863 94.3007 118.863 93.626C118.863 92.9513 118.687 92.3427 118.335 91.8C117.998 91.2573 117.536 90.8247 116.949 90.502C116.363 90.1647 115.71 89.996 114.991 89.996C114.287 89.996 113.642 90.1647 113.055 90.502C112.469 90.8247 111.999 91.2573 111.647 91.8C111.295 92.3427 111.119 92.9513 111.119 93.626C111.119 94.3007 111.295 94.9093 111.647 95.452C111.999 95.9947 112.469 96.4347 113.055 96.772C113.642 97.0947 114.287 97.256 114.991 97.256ZM139.968 116.572C138.076 116.572 136.36 116.139 134.82 115.274C133.28 114.409 132.048 113.25 131.124 111.798C130.215 110.331 129.76 108.703 129.76 106.914C129.76 105.506 130.075 104.186 130.706 102.954C131.351 101.707 132.217 100.659 133.302 99.808C132.451 99.0307 131.755 98.114 131.212 97.058C130.684 95.9873 130.42 94.8433 130.42 93.626C130.42 91.9687 130.853 90.458 131.718 89.094C132.583 87.73 133.735 86.6447 135.172 85.838C136.624 85.0313 138.223 84.628 139.968 84.628C141.728 84.628 143.327 85.0313 144.764 85.838C146.201 86.6447 147.353 87.73 148.218 89.094C149.083 90.458 149.516 91.9687 149.516 93.626C149.516 94.8433 149.252 95.9873 148.724 97.058C148.211 98.114 147.514 99.0307 146.634 99.808C147.749 100.659 148.621 101.707 149.252 102.954C149.897 104.186 150.22 105.506 150.22 106.914C150.22 108.689 149.758 110.309 148.834 111.776C147.925 113.228 146.693 114.394 145.138 115.274C143.583 116.139 141.86 116.572 139.968 116.572ZM139.968 111.204C140.819 111.204 141.589 111.013 142.278 110.632C142.967 110.236 143.517 109.715 143.928 109.07C144.339 108.425 144.544 107.706 144.544 106.914C144.544 106.122 144.339 105.403 143.928 104.758C143.517 104.113 142.967 103.599 142.278 103.218C141.589 102.822 140.819 102.624 139.968 102.624C139.132 102.624 138.369 102.822 137.68 103.218C136.991 103.599 136.433 104.113 136.008 104.758C135.597 105.403 135.392 106.122 135.392 106.914C135.392 107.706 135.597 108.425 136.008 109.07C136.433 109.715 136.991 110.236 137.68 110.632C138.369 111.013 139.132 111.204 139.968 111.204ZM139.968 97.256C140.687 97.256 141.339 97.0947 141.926 96.772C142.513 96.4347 142.975 95.9947 143.312 95.452C143.664 94.9093 143.84 94.3007 143.84 93.626C143.84 92.9513 143.664 92.3427 143.312 91.8C142.975 91.2573 142.513 90.8247 141.926 90.502C141.339 90.1647 140.687 89.996 139.968 89.996C139.264 89.996 138.619 90.1647 138.032 90.502C137.445 90.8247 136.976 91.2573 136.624 91.8C136.272 92.3427 136.096 92.9513 136.096 93.626C136.096 94.3007 136.272 94.9093 136.624 95.452C136.976 95.9947 137.445 96.4347 138.032 96.772C138.619 97.0947 139.264 97.256 139.968 97.256Z" fill="#9BB167"/>
<path d="M104.633 137.13C104.16 137.13 103.715 137.037 103.298 136.85C102.882 136.66 102.515 136.398 102.198 136.065C101.882 135.732 101.633 135.347 101.453 134.91C101.273 134.47 101.183 134 101.183 133.5C101.183 133 101.273 132.532 101.453 132.095C101.633 131.655 101.882 131.268 102.198 130.935C102.515 130.602 102.882 130.342 103.298 130.155C103.715 129.965 104.16 129.87 104.633 129.87C105.11 129.87 105.557 129.965 105.973 130.155C106.39 130.342 106.757 130.602 107.073 130.935C107.39 131.268 107.637 131.655 107.813 132.095C107.993 132.532 108.083 133 108.083 133.5C108.083 134 107.993 134.47 107.813 134.91C107.637 135.347 107.39 135.732 107.073 136.065C106.757 136.398 106.39 136.66 105.973 136.85C105.557 137.037 105.11 137.13 104.633 137.13ZM104.633 136.43C105.017 136.43 105.373 136.353 105.703 136.2C106.037 136.043 106.328 135.83 106.578 135.56C106.832 135.29 107.028 134.978 107.168 134.625C107.312 134.272 107.383 133.897 107.383 133.5C107.383 133.1 107.312 132.723 107.168 132.37C107.025 132.013 106.827 131.702 106.573 131.435C106.323 131.165 106.032 130.953 105.698 130.8C105.368 130.647 105.013 130.57 104.633 130.57C104.25 130.57 103.892 130.648 103.558 130.805C103.228 130.958 102.937 131.17 102.683 131.44C102.433 131.71 102.237 132.022 102.093 132.375C101.953 132.728 101.883 133.103 101.883 133.5C101.883 133.903 101.955 134.282 102.098 134.635C102.242 134.988 102.438 135.3 102.688 135.57C102.942 135.84 103.233 136.052 103.563 136.205C103.897 136.355 104.253 136.43 104.633 136.43ZM109.81 135.085V132H110.51V134.945C110.51 135.218 110.577 135.467 110.71 135.69C110.843 135.913 111.022 136.092 111.245 136.225C111.472 136.358 111.72 136.425 111.99 136.425C112.263 136.425 112.51 136.358 112.73 136.225C112.953 136.092 113.132 135.913 113.265 135.69C113.398 135.467 113.465 135.218 113.465 134.945V132H114.165L114.17 137H113.47L113.465 136.3C113.288 136.553 113.058 136.755 112.775 136.905C112.495 137.055 112.188 137.13 111.855 137.13C111.478 137.13 111.135 137.038 110.825 136.855C110.515 136.672 110.268 136.425 110.085 136.115C109.902 135.805 109.81 135.462 109.81 135.085ZM118.721 132.7H117.526L117.521 137H116.821L116.826 132.7H115.921V132H116.826L116.821 130.43H117.521L117.526 132H118.721V132.7ZM126.216 137.13C125.756 137.13 125.336 137.012 124.956 136.775C124.579 136.538 124.278 136.222 124.051 135.825C123.828 135.425 123.716 134.983 123.716 134.5C123.716 134.133 123.781 133.792 123.911 133.475C124.041 133.155 124.219 132.875 124.446 132.635C124.676 132.392 124.943 132.202 125.246 132.065C125.549 131.928 125.873 131.86 126.216 131.86C126.676 131.86 127.094 131.978 127.471 132.215C127.851 132.452 128.153 132.77 128.376 133.17C128.603 133.57 128.716 134.013 128.716 134.5C128.716 134.863 128.651 135.203 128.521 135.52C128.391 135.837 128.211 136.117 127.981 136.36C127.754 136.6 127.489 136.788 127.186 136.925C126.886 137.062 126.563 137.13 126.216 137.13ZM126.216 136.43C126.556 136.43 126.861 136.342 127.131 136.165C127.404 135.985 127.619 135.748 127.776 135.455C127.936 135.162 128.016 134.843 128.016 134.5C128.016 134.15 127.936 133.828 127.776 133.535C127.616 133.238 127.399 133.002 127.126 132.825C126.856 132.648 126.553 132.56 126.216 132.56C125.876 132.56 125.569 132.65 125.296 132.83C125.026 133.007 124.811 133.242 124.651 133.535C124.494 133.828 124.416 134.15 124.416 134.5C124.416 134.86 124.498 135.187 124.661 135.48C124.824 135.77 125.043 136.002 125.316 136.175C125.589 136.345 125.889 136.43 126.216 136.43ZM131.647 130.695V132H133.147V132.7H131.647V137H130.947V132.7H130.262V132H130.947V130.695C130.947 130.452 131.005 130.232 131.122 130.035C131.242 129.835 131.402 129.677 131.602 129.56C131.802 129.44 132.023 129.38 132.267 129.38C132.443 129.38 132.613 129.415 132.777 129.485C132.943 129.555 133.092 129.658 133.222 129.795L132.722 130.29C132.668 130.223 132.6 130.172 132.517 130.135C132.437 130.098 132.353 130.08 132.267 130.08C132.097 130.08 131.95 130.14 131.827 130.26C131.707 130.38 131.647 130.525 131.647 130.695ZM138.904 137V130.7H138.154L138.354 130H139.604V137H138.904ZM144.385 137.13C143.965 137.13 143.59 137.037 143.26 136.85C142.93 136.66 142.649 136.398 142.415 136.065C142.182 135.732 142.004 135.347 141.88 134.91C141.76 134.47 141.7 134 141.7 133.5C141.7 133 141.76 132.53 141.88 132.09C142.004 131.65 142.182 131.265 142.415 130.935C142.649 130.602 142.93 130.342 143.26 130.155C143.59 129.965 143.965 129.87 144.385 129.87C144.802 129.87 145.175 129.965 145.505 130.155C145.835 130.342 146.115 130.602 146.345 130.935C146.575 131.265 146.75 131.65 146.87 132.09C146.994 132.53 147.055 133 147.055 133.5C147.055 134 146.994 134.47 146.87 134.91C146.75 135.347 146.575 135.732 146.345 136.065C146.115 136.398 145.835 136.66 145.505 136.85C145.175 137.037 144.802 137.13 144.385 137.13ZM144.385 136.43C144.825 136.43 145.194 136.295 145.49 136.025C145.79 135.755 146.015 135.398 146.165 134.955C146.315 134.508 146.39 134.023 146.39 133.5C146.39 132.947 146.312 132.45 146.155 132.01C146.002 131.567 145.775 131.217 145.475 130.96C145.179 130.7 144.815 130.57 144.385 130.57C144.045 130.57 143.749 130.648 143.495 130.805C143.242 130.962 143.032 131.177 142.865 131.45C142.699 131.723 142.574 132.037 142.49 132.39C142.407 132.74 142.365 133.11 142.365 133.5C142.365 134.027 142.442 134.513 142.595 134.96C142.749 135.403 142.975 135.76 143.275 136.03C143.575 136.297 143.945 136.43 144.385 136.43ZM151.245 137.13C150.825 137.13 150.45 137.037 150.12 136.85C149.79 136.66 149.508 136.398 149.275 136.065C149.041 135.732 148.863 135.347 148.74 134.91C148.62 134.47 148.56 134 148.56 133.5C148.56 133 148.62 132.53 148.74 132.09C148.863 131.65 149.041 131.265 149.275 130.935C149.508 130.602 149.79 130.342 150.12 130.155C150.45 129.965 150.825 129.87 151.245 129.87C151.661 129.87 152.035 129.965 152.365 130.155C152.695 130.342 152.975 130.602 153.205 130.935C153.435 131.265 153.61 131.65 153.73 132.09C153.853 132.53 153.915 133 153.915 133.5C153.915 134 153.853 134.47 153.73 134.91C153.61 135.347 153.435 135.732 153.205 136.065C152.975 136.398 152.695 136.66 152.365 136.85C152.035 137.037 151.661 137.13 151.245 137.13ZM151.245 136.43C151.685 136.43 152.053 136.295 152.35 136.025C152.65 135.755 152.875 135.398 153.025 134.955C153.175 134.508 153.25 134.023 153.25 133.5C153.25 132.947 153.171 132.45 153.015 132.01C152.861 131.567 152.635 131.217 152.335 130.96C152.038 130.7 151.675 130.57 151.245 130.57C150.905 130.57 150.608 130.648 150.355 130.805C150.101 130.962 149.891 131.177 149.725 131.45C149.558 131.723 149.433 132.037 149.35 132.39C149.266 132.74 149.225 133.11 149.225 133.5C149.225 134.027 149.301 134.513 149.455 134.96C149.608 135.403 149.835 135.76 150.135 136.03C150.435 136.297 150.805 136.43 151.245 136.43Z" fill="#292524"/>
<defs>
<pattern id="pattern0_24429_24545" patternContentUnits="objectBoundingBox" width="1" height="1">
<use xlink:href="#image0_24429_24545" transform="scale(0.0042735)"/>
</pattern>
</defs>
</svg>
