<svg width="167" height="158" viewBox="0 0 167 158" fill="none" xmlns="http://www.w3.org/2000/svg">
<path d="M83.3275 54.7195C96.9835 62.2215 113.904 58.3284 127.022 67.2989C138.542 75.1928 149.799 93.4482 148.412 107.272C146.866 122.685 132.129 130.76 116.944 128.882C100.231 126.82 90.9845 112.302 78.6161 102.668C56.993 85.7955 -2.27778 57.5705 21.2488 21.9081C28.5699 10.8446 51.2739 1.05585 62.0231 14.5482C72.363 27.5281 64.1203 44.1556 83.3275 54.7195Z" fill="#F08C51"/>
<path opacity="0.9" d="M83.3275 54.7195C96.9835 62.2215 113.904 58.3284 127.022 67.2989C138.542 75.1928 149.799 93.4482 148.412 107.272C146.866 122.685 132.129 130.76 116.944 128.882C100.231 126.82 90.9845 112.302 78.6161 102.668C56.993 85.7955 -2.27778 57.5705 21.2488 21.9081C28.5699 10.8446 51.2739 1.05585 62.0231 14.5482C72.363 27.5281 64.1203 44.1556 83.3275 54.7195Z" fill="white"/>
<path d="M83.4993 157.754C129.615 157.754 166.999 155.571 166.999 152.879C166.999 150.186 129.615 148.004 83.4993 148.004C37.3839 148.004 0 150.186 0 152.879C0 155.571 37.3839 157.754 83.4993 157.754Z" fill="#F5F5F5"/>
<path d="M66.4558 3.76835C68.4656 1.97971 71.0681 0.808329 74.2636 0.254222C77.459 -0.299885 80.8368 0.0518151 84.3969 1.30932C87.9454 2.56683 91.1911 4.83781 94.1339 8.12226C96.87 11.177 98.7189 14.3768 99.6807 17.7215C100.64 20.8145 100.728 24.1122 99.9348 27.2519C99.1811 30.1621 97.5768 32.7816 95.3268 34.7754C93.7256 36.2766 91.7721 37.3503 89.6465 37.8976C87.7485 38.3703 85.7894 38.5504 83.837 38.4316C81.9622 38.311 78.7094 37.9909 74.0784 37.4713C72.9943 37.3533 71.9046 37.2929 70.8141 37.2904C70.0672 37.2855 69.3225 37.3708 68.5962 37.5445C68.02 37.6914 67.4602 37.8963 66.9253 38.156C66.4085 38.4101 65.5342 38.8795 64.294 39.5729C61.7445 41.1318 59.5281 40.8591 57.6447 38.7546C57.1768 38.257 56.8122 37.6716 56.5719 37.0322C56.3317 36.3928 56.2206 35.7121 56.2451 35.0295C56.2939 33.6428 57.0231 32.3178 58.4328 31.0545C61.3041 28.3032 65.15 26.8038 69.1259 26.8858C71.3892 26.9614 73.6473 27.1511 75.8914 27.4543C78.2773 27.7428 80.0386 27.9237 81.1756 27.984C82.3043 28.0485 83.4364 27.9542 84.539 27.7041C85.6388 27.4604 86.6557 26.9333 87.4889 26.1752C88.3043 25.4674 88.9572 24.592 89.4032 23.6087C89.8491 22.6254 90.0775 21.5574 90.0729 20.4777C90.1073 18.1809 89.246 16.0463 87.4889 14.0739C85.4132 11.757 83.3016 10.5755 81.154 10.5296C79.0065 10.4837 76.4499 11.1009 73.4841 12.3814C70.4667 13.7968 68.0622 13.5097 66.2707 11.5201C65.7608 10.9736 65.3707 10.3266 65.1253 9.62063C64.8798 8.91467 64.7844 8.16524 64.8452 7.42029C64.8581 6.73519 65.0072 6.0595 65.2837 5.43255C65.5602 4.8056 65.9587 4.23989 66.4558 3.76835ZM45.6381 50.1454C44.5127 48.9228 43.8846 47.324 43.8767 45.6623C43.8509 43.9627 44.5844 42.4424 46.0773 41.1017C46.6917 40.5334 47.4173 40.0988 48.2082 39.8253C48.9992 39.5517 49.8382 39.4453 50.6724 39.5126C51.5173 39.5637 52.3432 39.7845 53.1009 40.1618C53.8586 40.5392 54.5325 41.0654 55.0823 41.7089C55.6476 42.321 56.0842 43.0404 56.3661 43.8245C56.648 44.6085 56.7695 45.4413 56.7233 46.2732C56.6771 47.1051 56.4642 47.9193 56.0972 48.6673C55.7302 49.4154 55.2167 50.082 54.587 50.6277C53.1142 51.9455 51.5351 52.5082 49.8499 52.3159C48.2217 52.152 46.7164 51.3762 45.6381 50.1454Z" fill="#F08C51"/>
<g opacity="0.5">
<path d="M104.964 32.6429C105.569 31.2061 106.571 29.9719 107.854 29.0857C109.361 28.012 111.121 27.3472 112.961 27.1564C115.105 26.9256 117.273 27.2427 119.262 28.078C121.14 28.7728 122.836 29.8845 124.223 31.3294C125.424 32.5798 126.259 34.1367 126.634 35.8297C126.981 37.4121 126.846 39.0619 126.247 40.5669C125.84 41.6709 125.162 42.6544 124.274 43.4264C123.48 44.1096 122.585 44.6672 121.622 45.0801C120.697 45.4735 119.062 46.1022 116.716 46.9664C116.168 47.1676 115.632 47.4006 115.11 47.6641C114.751 47.8401 114.416 48.06 114.111 48.3187C113.869 48.5259 113.649 48.7583 113.456 49.012C113.271 49.2575 112.965 49.6924 112.539 50.304C111.678 51.6648 110.551 52.0668 109.159 51.5098C108.815 51.3838 108.499 51.1911 108.23 50.9428C107.961 50.6945 107.744 50.3954 107.591 50.0628C107.437 49.6735 107.366 49.2566 107.383 48.8384C107.399 48.4202 107.502 48.01 107.686 47.6339C108.4 45.6273 109.88 43.9856 111.803 43.069C112.903 42.5564 114.029 42.0994 115.175 41.6995C116.385 41.2689 117.272 40.9286 117.832 40.6875C118.387 40.4465 118.906 40.129 119.374 39.7443C119.842 39.3623 120.202 38.8652 120.42 38.3017C120.641 37.7673 120.743 37.1916 120.72 36.614C120.697 36.0363 120.549 35.4706 120.287 34.9555C119.71 33.8218 118.718 32.9547 117.517 32.5352C115.967 31.9237 114.675 31.8648 113.642 32.3586C112.387 33.0266 111.288 33.9545 110.42 35.0804C109.312 36.4843 108.089 36.915 106.751 36.3723C106.376 36.232 106.034 36.0152 105.747 35.7357C105.46 35.4562 105.235 35.1201 105.085 34.7488C104.926 34.4233 104.833 34.0695 104.813 33.7079C104.792 33.3464 104.843 32.9844 104.964 32.6429ZM106.14 59.8602C105.307 59.5447 104.623 58.9306 104.219 58.1376C104.012 57.7205 103.9 57.2629 103.891 56.7976C103.882 56.3322 103.977 55.8706 104.167 55.446C104.322 55.0247 104.564 54.6405 104.876 54.318C105.188 53.9954 105.564 53.7415 105.98 53.5726C106.398 53.3946 106.847 53.3028 107.3 53.3028C107.754 53.3028 108.203 53.3946 108.62 53.5726C109.038 53.7299 109.42 53.9694 109.743 54.277C110.066 54.5845 110.325 54.9539 110.503 55.3632C110.68 55.7724 110.774 56.2132 110.779 56.6595C110.783 57.1057 110.698 57.5483 110.528 57.961C110.379 58.4031 110.134 58.8069 109.811 59.1434C109.488 59.4799 109.095 59.7409 108.659 59.9075C107.843 60.2104 106.943 60.1935 106.14 59.8602Z" fill="#F08C51"/>
</g>
<g opacity="0.1">
<path d="M133.931 30.107C133.542 29.4941 133.334 28.7833 133.333 28.0571C133.318 27.1967 133.529 26.3475 133.944 25.5938C134.423 24.7159 135.119 23.9747 135.964 23.4405C136.727 22.9036 137.601 22.5472 138.522 22.3983C139.32 22.269 140.138 22.3614 140.886 22.6653C141.588 22.9492 142.188 23.4367 142.609 24.0649C142.925 24.5123 143.124 25.0322 143.186 25.5765C143.235 26.061 143.212 26.5502 143.117 27.0278C143.022 27.4901 142.83 28.2825 142.54 29.405C142.475 29.6692 142.423 29.9366 142.385 30.206C142.335 30.5378 142.361 30.8766 142.463 31.1965C142.51 31.3344 142.596 31.5669 142.725 31.8942C142.804 32.0283 142.855 32.1767 142.876 32.3307C142.897 32.4847 142.887 32.6414 142.847 32.7915C142.807 32.9417 142.737 33.0825 142.643 33.2056C142.548 33.3288 142.43 33.432 142.295 33.5092C142.014 33.706 141.667 33.7834 141.33 33.7245C141.14 33.6816 140.96 33.5992 140.804 33.4828C140.647 33.3663 140.517 33.2183 140.421 33.0484C140.118 32.6187 139.904 32.1325 139.793 31.6186C139.703 31.1731 139.693 30.7154 139.762 30.2663C139.855 29.7091 139.978 29.1571 140.128 28.6126C140.283 28.0312 140.387 27.6049 140.443 27.3207C140.497 27.037 140.513 26.7473 140.49 26.4594C140.466 26.1784 140.369 25.9085 140.21 25.6756C140.063 25.4504 139.87 25.2596 139.642 25.1161C139.415 24.9727 139.159 24.88 138.892 24.8444C138.301 24.7638 137.701 24.9184 137.222 25.2751C136.95 25.4261 136.712 25.6319 136.524 25.8795C136.335 26.1271 136.201 26.4111 136.128 26.7134C136.053 27.3715 136.119 28.038 136.321 28.6686C136.567 29.4653 136.408 30.0467 135.852 30.4214C135.7 30.5277 135.527 30.6013 135.344 30.6376C135.162 30.674 134.974 30.6722 134.793 30.6324C134.621 30.6071 134.457 30.5475 134.309 30.4572C134.161 30.367 134.032 30.2479 133.931 30.107ZM144.676 36.851C144.335 37.0845 143.919 37.1842 143.509 37.1309C143.293 37.1001 143.086 37.0211 142.904 36.8995C142.722 36.778 142.57 36.6172 142.458 36.429C142.338 36.2584 142.254 36.0646 142.213 35.86C142.171 35.6554 142.173 35.4444 142.217 35.2404C142.259 35.0332 142.342 34.8365 142.461 34.662C142.58 34.4874 142.733 34.3385 142.91 34.224C143.081 34.1052 143.274 34.0221 143.477 33.98C143.681 33.9378 143.891 33.9373 144.095 33.9786C144.299 34.0163 144.494 34.0959 144.667 34.2122C144.84 34.3285 144.986 34.4791 145.098 34.6547C145.228 34.8289 145.318 35.0295 145.362 35.2423C145.406 35.4551 145.403 35.675 145.352 35.8864C145.256 36.2812 145.014 36.6255 144.676 36.851Z" fill="#F08C51"/>
</g>
<path d="M55.8435 150.026L52.5878 149.182L54.53 141.736L57.7858 142.58L55.8435 150.026Z" fill="#FFC3BD"/>
<path d="M52.554 148.321L56.1887 149.471C56.2189 149.479 56.2474 149.492 56.2723 149.511C56.2972 149.529 56.3181 149.553 56.3338 149.58C56.3494 149.607 56.3595 149.636 56.3635 149.667C56.3674 149.698 56.3651 149.73 56.3567 149.76L55.5901 152.58C55.5363 152.728 55.4275 152.85 55.2863 152.92C55.1451 152.99 54.9824 153.002 54.8322 152.955C53.5747 152.524 52.9933 152.275 51.3869 151.766C50.4008 151.456 48.0235 150.754 46.6498 150.324C45.276 149.893 45.7885 148.601 46.3871 148.683C49.1519 148.971 50.7582 148.739 51.908 148.338C52.1156 148.262 52.3427 148.256 52.554 148.321Z" fill="#263238"/>
<path opacity="0.2" d="M57.7867 142.584L54.5309 141.74L53.5318 145.577L56.7876 146.421L57.7867 142.584Z" fill="black"/>
<path d="M65.9895 66.4408C65.9895 66.4408 60.0293 94.7649 58.4445 104.037C56.7219 114.192 52.9364 143.265 52.9364 143.265L58.4703 145.276C58.4703 145.276 67.1307 114.446 68.4442 104.683C71.1961 95.1395 78.1684 66.4408 78.1684 66.4408H65.9895Z" fill="#455A64"/>
<path opacity="0.3" d="M73.6452 75.6872C71.7116 80.3297 71.0096 88.7834 71.3455 93.8392C72.8786 87.8704 74.5797 81.0532 75.8975 75.7131C75.4712 74.2445 74.8855 72.7028 73.6452 75.6872Z" fill="black"/>
<path d="M58.3616 145.932L52.4272 144.218L52.6511 141.707L59.7138 143.692L58.3616 145.932Z" fill="#263238"/>
<path d="M51.2204 148.502C51.5141 148.586 51.8157 148.639 52.1204 148.661C52.1358 148.664 52.1516 148.661 52.1656 148.654C52.1795 148.647 52.1908 148.636 52.198 148.622C52.2061 148.61 52.2105 148.596 52.2105 148.581C52.2105 148.567 52.2061 148.553 52.198 148.54C52.1161 148.437 51.4056 147.546 50.962 147.571C50.911 147.573 50.8613 147.588 50.8176 147.615C50.774 147.641 50.7377 147.678 50.7122 147.722C50.6683 147.784 50.6417 147.857 50.6349 147.932C50.6281 148.008 50.6414 148.084 50.6734 148.153C50.8069 148.332 51.0015 148.456 51.2204 148.502ZM51.9525 148.502C51.3323 148.428 50.9146 148.278 50.8113 148.071C50.7912 148.026 50.7837 147.977 50.7898 147.928C50.7959 147.88 50.8152 147.834 50.8457 147.795C50.8578 147.773 50.8751 147.755 50.8962 147.741C50.9172 147.728 50.9413 147.72 50.9663 147.718C51.1988 147.709 51.6553 148.144 51.9525 148.493V148.502Z" fill="#F08C51"/>
<path d="M52.1039 148.661H52.1426C52.1553 148.659 52.1674 148.654 52.1779 148.646C52.1884 148.639 52.197 148.629 52.2029 148.618C52.2029 148.579 52.5991 147.705 52.3752 147.3C52.3445 147.248 52.3034 147.203 52.2545 147.168C52.2055 147.134 52.1498 147.109 52.0909 147.097C52.0262 147.079 51.9571 147.082 51.8942 147.106C51.8312 147.13 51.7778 147.174 51.7421 147.231C51.5483 147.55 51.811 148.351 52.0694 148.635C52.0778 148.647 52.0899 148.656 52.1039 148.661ZM52.1039 147.257C52.1335 147.266 52.161 147.281 52.1847 147.301C52.2084 147.321 52.2278 147.345 52.2417 147.373C52.3196 147.729 52.2756 148.1 52.1168 148.428C51.9144 148.109 51.7593 147.515 51.8885 147.308C51.8885 147.27 51.9531 147.227 52.0651 147.248L52.1039 147.257Z" fill="#F08C51"/>
<path d="M70.6036 42.1822C70.3151 42.8799 70.0395 43.5 69.7423 44.1374C69.4452 44.7747 69.1265 45.3992 68.8035 46.0236C68.1489 47.2682 67.4599 48.4956 66.7019 49.6928C65.1938 52.1813 63.3699 54.464 61.2757 56.4842L61.1982 56.5617C61.0883 56.6607 60.9668 56.746 60.8364 56.8158C60.4778 57.0092 60.0837 57.1278 59.678 57.1646C59.4457 57.1813 59.2126 57.1813 58.9803 57.1646C58.6328 57.1422 58.2874 57.0947 57.9467 57.0225C57.3352 56.8933 56.7926 56.734 56.2586 56.566C55.1992 56.2301 54.213 55.821 53.244 55.4076C52.275 54.9941 51.319 54.5463 50.3802 54.0596C49.4413 53.573 48.5197 53.0864 47.6068 52.5351C47.395 52.4058 47.2364 52.2053 47.1593 51.9695C47.0822 51.7337 47.0917 51.4782 47.1862 51.2488C47.2806 51.0195 47.4538 50.8313 47.6746 50.7182C47.8953 50.605 48.1492 50.5743 48.3905 50.6316C50.3888 51.114 52.3827 51.6523 54.3465 52.1303C55.3241 52.3758 56.3016 52.5911 57.2405 52.772C57.6829 52.8615 58.1301 52.9262 58.5798 52.9658C58.749 52.9756 58.9187 52.9756 59.088 52.9658C59.1526 52.9658 59.1784 52.9658 59.1612 52.9658C59.0081 52.97 58.8591 53.0161 58.7305 53.0993L58.2999 53.4309C59.1331 52.5086 59.9056 51.5333 60.6125 50.511C61.336 49.4646 62.0207 48.3578 62.6796 47.2467C63.3385 46.1356 63.9716 44.9685 64.5702 43.8015C65.1688 42.6344 65.7631 41.4329 66.2928 40.3089L66.3186 40.2529C66.5728 39.6818 67.0434 39.2351 67.6269 39.0109C68.2104 38.7868 68.859 38.8037 69.4301 39.0578C70.0012 39.312 70.4479 39.7825 70.672 40.366C70.8962 40.9496 70.8793 41.5982 70.6252 42.1693L70.6036 42.1822Z" fill="#FFC3BD"/>
<path d="M69.9404 37.6262C67.167 37.7038 65.2635 40.714 63.4461 44.465C64.8392 46.8731 66.8355 48.8769 69.2384 50.2788C69.2384 50.2788 76.5251 37.4411 69.9404 37.6262Z" fill="#E0E0E0"/>
<path d="M47.4667 52.5524L44.9689 51.915L46.9155 49.4129C46.9155 49.4129 49.0687 49.7531 49.887 51.5662L48.9998 52.1993C48.7846 52.3647 48.5363 52.4819 48.2718 52.5429C48.0072 52.6038 47.7326 52.6071 47.4667 52.5524Z" fill="#FFC3BD"/>
<path d="M44.3636 49.3561L44.8459 48.9255C45.0433 48.7526 45.2952 48.6548 45.5575 48.6493C45.8198 48.6438 46.0756 48.7309 46.28 48.8953L46.9174 49.4078L44.9708 51.9099L44.1741 50.6696C44.0422 50.4646 43.9887 50.2188 44.0235 49.9775C44.0583 49.7362 44.1791 49.5155 44.3636 49.3561Z" fill="#FFC3BD"/>
<path d="M84.9882 149.638H81.5817L80.7678 142.05H84.1743L84.9882 149.638Z" fill="#FFC3BD"/>
<path d="M81.2852 149.26H85.1137C85.177 149.256 85.2391 149.278 85.2867 149.319C85.3342 149.361 85.3634 149.42 85.3678 149.484L85.553 152.395C85.5496 152.551 85.4851 152.7 85.3732 152.81C85.2613 152.919 85.1109 152.98 84.9544 152.98C83.6237 152.955 82.9863 152.881 81.3024 152.881C80.2689 152.881 77.4266 152.985 75.9839 152.985C74.5412 152.985 74.5929 151.624 75.2001 151.503C77.9175 150.948 79.7349 150.185 80.6995 149.462C80.8672 149.332 81.073 149.261 81.2852 149.26Z" fill="#263238"/>
<path opacity="0.2" d="M84.1743 142.05H80.7678L81.1898 145.964H84.5963L84.1743 142.05Z" fill="black"/>
<path d="M72.6475 66.4416C72.6475 66.4416 73.4012 94.9164 73.9395 104.3C74.5424 114.576 79.6456 145.019 79.6456 145.019H85.8901C85.8901 145.019 84.5206 114.188 83.4871 104.107C83.9177 93.0646 84.202 66.433 84.202 66.433L72.6475 66.4416Z" fill="#455A64"/>
<path d="M86.1428 145.017H79.0629L78.7269 142.739L86.3323 142.868L86.1428 145.017Z" fill="#263238"/>
<path d="M80.076 149.829C80.3822 149.822 80.6868 149.783 80.9847 149.713C80.9993 149.71 81.0126 149.703 81.0227 149.692C81.0328 149.681 81.0391 149.667 81.0407 149.653C81.0448 149.638 81.0441 149.623 81.0387 149.609C81.0332 149.595 81.0233 149.583 81.0106 149.575C80.9029 149.506 79.9382 148.869 79.5205 149.028C79.4739 149.045 79.4325 149.074 79.4001 149.112C79.3677 149.15 79.3454 149.195 79.3353 149.243C79.3083 149.317 79.3033 149.397 79.3209 149.473C79.3385 149.55 79.3779 149.62 79.4344 149.674C79.6229 149.801 79.8505 149.856 80.076 149.829ZM80.7651 149.605C80.1536 149.721 79.7057 149.7 79.5463 149.549C79.5135 149.513 79.491 149.469 79.4811 149.421C79.4713 149.373 79.4745 149.324 79.4904 149.278C79.4944 149.254 79.5044 149.232 79.5195 149.213C79.5346 149.194 79.5542 149.179 79.5765 149.17C79.8004 149.084 80.3689 149.36 80.7651 149.605Z" fill="#F08C51"/>
<path d="M80.9664 149.716H81.0052C81.0167 149.709 81.0266 149.7 81.034 149.688C81.0415 149.677 81.0463 149.665 81.0483 149.651C81.0483 149.613 81.1258 148.669 80.7812 148.359C80.7372 148.317 80.6838 148.286 80.6255 148.268C80.5672 148.25 80.5055 148.246 80.4453 148.256C80.3788 148.257 80.3144 148.28 80.2622 148.321C80.21 148.362 80.173 148.42 80.1568 148.484C80.0793 148.842 80.5875 149.526 80.9277 149.72L80.9664 149.716ZM80.4841 148.385C80.516 148.384 80.5478 148.39 80.5774 148.402C80.607 148.414 80.6339 148.431 80.6564 148.454C80.8449 148.767 80.9237 149.134 80.8803 149.496C80.5831 149.255 80.2429 148.734 80.2946 148.501C80.2946 148.454 80.3334 148.402 80.4496 148.389L80.4841 148.385Z" fill="#F08C51"/>
<path d="M67.426 39.8172C67.6098 39.2596 67.9403 38.7619 68.3828 38.3761C68.8254 37.9904 69.3636 37.731 69.941 37.6252C70.7826 37.4289 71.6355 37.2851 72.4948 37.1945C75.0768 37.052 77.6646 37.052 80.2466 37.1945C81.5988 37.2548 82.9769 37.4141 84.0751 37.5692H84.1138C84.396 37.602 84.6685 37.6919 84.9148 37.8334C85.161 37.9749 85.3759 38.1651 85.5464 38.3923C85.7168 38.6196 85.8392 38.8791 85.9061 39.1552C85.973 39.4312 85.983 39.718 85.9355 39.9981C85.0758 44.3866 84.5132 48.8281 84.2516 53.2923C83.9846 59.778 84.3464 64.8683 84.2172 66.4316H65.9919C64.8852 50.6137 66.3149 43.4218 67.426 39.8172Z" fill="#E0E0E0"/>
<path d="M81.4819 27.545C81.7998 27.7746 82.0527 28.0828 82.2158 28.4394C82.3789 28.796 82.4466 29.1889 82.4123 29.5795C82.378 29.9702 82.2429 30.3452 82.0202 30.668C81.7975 30.9908 81.4948 31.2502 81.1417 31.4209C81.8781 32.6396 79.9186 34.7929 77.9463 33.4406C75.9739 32.0884 78.7602 26.3951 81.4819 27.545Z" fill="#263238"/>
<path d="M73.326 26.2354C73.0553 26.2434 72.7873 26.181 72.5481 26.0543C72.3088 25.9276 72.1066 25.7409 71.9612 25.5126C71.8157 25.2843 71.7321 25.0221 71.7184 24.7517C71.7048 24.4813 71.7616 24.212 71.8833 23.9702C70.966 23.6127 71.1296 21.6102 72.7833 21.5241C74.437 21.4379 75.2897 25.7316 73.326 26.2354Z" fill="#263238"/>
<path d="M72.7876 38.8885C72.6643 38.7754 72.5726 38.6321 72.5214 38.4728C72.4702 38.3135 72.4614 38.1437 72.4957 37.9799C72.53 37.8162 72.6063 37.6641 72.7171 37.5388C72.828 37.4134 72.9695 37.3191 73.1278 37.2649C74.7901 36.6534 75.0916 35.4476 74.9581 34.1341C74.9199 33.7647 74.8595 33.398 74.7772 33.0359L77.598 30.7836L79.6737 29.1299C79.157 31.2832 78.5799 35.0342 79.6737 36.9333C79.7963 37.1321 79.8438 37.3681 79.8074 37.5988C79.7711 37.8294 79.6534 38.0394 79.4756 38.1909C78.7608 38.8239 77.2965 39.6422 74.8849 39.513C73.7781 39.457 73.1623 39.2029 72.7876 38.8885Z" fill="#FFC3BD"/>
<path d="M66.4889 39.8949C66.6943 39.2749 67.0564 38.7183 67.54 38.2792C68.0236 37.8401 68.6124 37.5333 69.2494 37.3885C70.0668 37.2588 70.8905 37.1725 71.717 37.1302C71.8033 37.1178 71.8913 37.127 71.9731 37.1571C72.0549 37.1873 72.128 37.2372 72.1857 37.3026C72.2433 37.368 72.2838 37.4467 72.3035 37.5316C72.3232 37.6165 72.3214 37.705 72.2984 37.7891C70.8557 43.1464 68.7972 53.8653 69.4346 67.1424C69.4375 67.225 69.4236 67.3074 69.3935 67.3844C69.3635 67.4615 69.3181 67.5316 69.2601 67.5904C69.202 67.6493 69.1325 67.6957 69.0559 67.7268C68.9793 67.7579 68.8971 67.7729 68.8144 67.7711H65.1969C65.04 67.7738 64.888 67.7164 64.7719 67.6108C64.6559 67.5051 64.5845 67.3591 64.5725 67.2027C63.4829 50.98 65.408 42.8966 66.4889 39.8949Z" fill="#263238"/>
<path d="M83.9757 37.2461C82.8177 37.0802 81.6519 36.9739 80.4831 36.9274C80.2715 36.912 80.0612 36.9718 79.8895 37.0963C79.7177 37.2208 79.5954 37.402 79.5442 37.6079C78.2049 43.5078 77.012 56.6169 76.9603 67.1636C76.962 67.2439 76.9795 67.3231 77.0118 67.3966C77.0441 67.4702 77.0905 67.5367 77.1485 67.5923C77.2065 67.6478 77.2749 67.6915 77.3497 67.7206C77.4246 67.7498 77.5044 67.7639 77.5848 67.7622H84.0446C84.2046 67.7657 84.3596 67.7064 84.4764 67.5969C84.5931 67.4873 84.6623 67.3364 84.669 67.1765C84.7121 65.0534 84.4192 60.0793 84.669 53.9038C84.9078 49.5032 85.4604 45.1252 86.3227 40.8033C86.5466 39.5932 85.2547 37.427 83.9757 37.2461Z" fill="#263238"/>
<path d="M86.2455 39.1198C87.6279 41.2041 88.8854 43.2928 90.074 45.4848C90.6597 46.583 91.2367 47.6984 91.7578 48.8697C92.0162 49.4554 92.2703 50.054 92.5072 50.6871C92.7682 51.3719 92.9699 52.0779 93.1101 52.7973C93.2162 53.3216 93.2395 53.8593 93.179 54.3907C93.1086 54.8209 92.9976 55.2434 92.8474 55.6525C92.6017 56.3196 92.3006 56.965 91.9473 57.5819C91.3134 58.7006 90.6071 59.7766 89.8328 60.8032C88.3431 62.7911 86.714 64.6706 84.9578 66.4275C84.7549 66.6309 84.4844 66.7526 84.1976 66.7695C83.9108 66.7864 83.6278 66.6974 83.4024 66.5193C83.177 66.3412 83.0249 66.0864 82.975 65.8035C82.9251 65.5206 82.9809 65.2292 83.1318 64.9848V64.959C84.385 62.9392 85.6512 60.8807 86.7967 58.8394C87.3652 57.823 87.9078 56.7895 88.3427 55.7903C88.7777 54.7912 89.0964 53.6974 88.8725 53.6672C88.7351 53.209 88.5682 52.7602 88.3729 52.3236C88.1576 51.8326 87.9121 51.3245 87.6537 50.8206C87.1283 49.8086 86.5641 48.7793 85.9742 47.7673C84.7942 45.7346 83.5367 43.6847 82.2921 41.6994V41.6735C81.9534 41.1493 81.8369 40.512 81.9681 39.9018C82.0994 39.2916 82.4676 38.7586 82.9919 38.4199C83.5161 38.0813 84.1534 37.9648 84.7636 38.096C85.3738 38.2273 85.9068 38.5955 86.2455 39.1198Z" fill="#FFC3BD"/>
<path d="M83.5677 37.1903C86.3411 37.1386 87.8097 39.4857 89.627 43.2194C87.5685 47.0307 83.6409 48.6801 83.6409 48.6801C83.6409 48.6801 78.1157 37.285 83.5677 37.1903Z" fill="#E0E0E0"/>
<path d="M82.1462 64.8731L80.5484 65.3813L83.507 67.6293C83.507 67.6293 85.9273 66.3718 85.1693 65.2306L84.6784 65.0109C83.8792 64.6582 82.9789 64.6092 82.1462 64.8731Z" fill="#FFC3BD"/>
<path d="M79.6527 67.3536L81.4485 69.158C81.5066 69.2146 81.5757 69.2586 81.6517 69.2871C81.7276 69.3156 81.8086 69.328 81.8896 69.3235C81.9705 69.3191 82.0497 69.2978 82.122 69.2612C82.1944 69.2246 82.2583 69.1733 82.3098 69.1107L83.5027 67.6292L80.5441 65.3812L79.6225 66.643C79.5376 66.7437 79.4935 66.8726 79.4991 67.0042C79.5047 67.1358 79.5595 67.2605 79.6527 67.3536Z" fill="#FFC3BD"/>
<path opacity="0.2" d="M74.7745 33.0529C74.8568 33.415 74.9172 33.7817 74.9554 34.1511C76.0234 34.4224 77.5393 33.1993 77.6814 32.1614C77.6997 31.7061 77.6708 31.25 77.5953 30.8006L74.7745 33.0529Z" fill="black"/>
<path d="M81.4414 26.0723C80.7136 29.2505 80.4552 31.1454 78.5 32.5622C77.8604 33.03 77.1083 33.3199 76.3202 33.4024C75.5321 33.4849 74.7362 33.3571 74.0136 33.0319C73.291 32.7067 72.6675 32.1958 72.2066 31.5512C71.7457 30.9066 71.4639 30.1514 71.3899 29.3625C71.1401 26.3823 72.3718 21.6839 75.8515 20.8485C79.3312 20.013 82.1692 22.8897 81.4414 26.0723Z" fill="#FFC3BD"/>
<path d="M79.9707 28.8534C79.0491 28.9008 78.0672 25.6493 80.0999 24.0817C79.7769 24.2583 78.8941 23.9353 79.0491 23.3281C78.4505 23.5779 75.8321 23.4702 76.4652 22.4065C75.1345 22.751 72.2319 22.174 71.9218 20.9035C71.6117 19.6331 73.1104 19.59 73.343 19.758C72.6841 18.8364 72.697 17.4841 74.4454 16.9932C76.1939 16.5022 78.8295 19.0302 78.8295 19.0302C78.5539 18.3627 79.5228 17.8244 80.5263 18.3971C81.5297 18.9699 81.9991 20.5978 81.9991 20.5978C81.9991 20.1068 84.3419 20.7657 83.2308 22.8242C84.3806 23.2549 84.906 23.8664 84.8328 24.9301C84.7596 25.9938 84.0318 26.0541 84.0318 26.0541C84.1858 26.4371 84.2072 26.8606 84.0924 27.2571C83.9777 27.6537 83.7335 28.0003 83.3987 28.2419C82.2058 29.2022 81.1636 28.0739 79.9707 28.8534Z" fill="#263238"/>
<path d="M81.7954 29.0997C81.3904 29.6924 80.7922 30.1262 80.103 30.3271C79.2158 30.5639 78.9143 29.7715 79.2761 28.9447C79.6034 28.1996 80.4561 27.1747 81.2916 27.3039C82.127 27.4331 82.295 28.359 81.7954 29.0997Z" fill="#FFC3BD"/>
<path d="M76.174 25.943C76.1309 26.2014 75.9501 26.3952 75.7735 26.3737C75.5969 26.3521 75.485 26.1196 75.528 25.8569C75.5711 25.5942 75.752 25.4262 75.9285 25.4262C76.1051 25.4262 76.1955 25.6803 76.174 25.943Z" fill="#263238"/>
<path d="M73.0242 25.3692C72.9812 25.6319 72.8046 25.8257 72.628 25.7998C72.4515 25.774 72.3395 25.5457 72.3826 25.283C72.4256 25.0203 72.6022 24.8524 72.7788 24.8524C72.9553 24.8524 73.0673 25.1108 73.0242 25.3692Z" fill="#263238"/>
<path d="M74.2672 25.9551C73.8084 26.7129 73.2476 27.4041 72.6005 28.0093C72.7681 28.1667 72.9673 28.2866 73.1849 28.3609C73.4025 28.4352 73.6335 28.4621 73.8623 28.4399L74.2672 25.9551Z" fill="#ED847E"/>
<path d="M74.4233 29.7225C74.7365 29.7579 75.0536 29.7305 75.356 29.6417C75.6585 29.553 75.9402 29.4048 76.1846 29.2058C76.1989 29.1906 76.2068 29.1706 76.2068 29.1498C76.2068 29.129 76.1989 29.109 76.1846 29.0938C76.169 29.0804 76.1492 29.0731 76.1286 29.0731C76.1081 29.0731 76.0883 29.0804 76.0727 29.0938C75.8039 29.3071 75.4902 29.4566 75.1553 29.5312C74.8204 29.6058 74.4729 29.6035 74.139 29.5244C74.1288 29.5219 74.1182 29.5215 74.1079 29.5232C74.0975 29.5249 74.0876 29.5286 74.0787 29.5343C74.0699 29.5399 74.0622 29.5473 74.0563 29.556C74.0504 29.5646 74.0463 29.5744 74.0443 29.5847C74.0418 29.5947 74.0414 29.605 74.0431 29.6151C74.0448 29.6252 74.0486 29.6348 74.0543 29.6434C74.06 29.6519 74.0674 29.6591 74.0761 29.6646C74.0847 29.6701 74.0944 29.6737 74.1046 29.6752C74.2095 29.6987 74.316 29.7146 74.4233 29.7225Z" fill="#263238"/>
<path d="M76.305 24.1516C76.2792 24.1585 76.2555 24.1719 76.2361 24.1904C76.2211 24.2044 76.2092 24.2215 76.201 24.2404C76.1928 24.2592 76.1886 24.2796 76.1886 24.3002C76.1886 24.3207 76.1928 24.3411 76.201 24.36C76.2092 24.3789 76.2211 24.3959 76.2361 24.41C76.4038 24.5975 76.6144 24.7417 76.8498 24.8302C77.0853 24.9186 77.3387 24.9488 77.5884 24.9182C77.6091 24.9161 77.6291 24.9098 77.6472 24.8996C77.6654 24.8895 77.6812 24.8757 77.6937 24.8591C77.7063 24.8425 77.7152 24.8235 77.7201 24.8033C77.7249 24.7831 77.7255 24.7621 77.7219 24.7416C77.7182 24.7209 77.7106 24.7012 77.6993 24.6835C77.688 24.6658 77.6733 24.6505 77.6561 24.6385C77.6389 24.6265 77.6195 24.618 77.599 24.6136C77.5785 24.6091 77.5573 24.6087 77.5367 24.6124C77.3392 24.6298 77.1405 24.5998 76.957 24.5249C76.7734 24.45 76.6105 24.3324 76.4816 24.1817C76.4578 24.161 76.4287 24.1472 76.3975 24.1419C76.3664 24.1366 76.3344 24.1399 76.305 24.1516Z" fill="#263238"/>
<path d="M72.132 23.3706C72.1557 23.3811 72.1814 23.3866 72.2073 23.3866C72.2333 23.3866 72.259 23.3811 72.2827 23.3706C72.4665 23.2789 72.6683 23.2287 72.8736 23.2235C73.079 23.2183 73.283 23.2582 73.4713 23.3404C73.5081 23.3613 73.5514 23.3671 73.5924 23.3566C73.6333 23.3462 73.6686 23.3203 73.6909 23.2845C73.7097 23.2471 73.7135 23.204 73.7015 23.1639C73.6894 23.1239 73.6626 23.09 73.6263 23.0691C73.3938 22.9576 73.1392 22.8997 72.8813 22.8997C72.6234 22.8997 72.3688 22.9576 72.1363 23.0691C72.1174 23.0773 72.1005 23.0894 72.0866 23.1045C72.0727 23.1197 72.0622 23.1376 72.0557 23.1571C72.0492 23.1766 72.0469 23.1973 72.0489 23.2177C72.0509 23.2382 72.0572 23.258 72.0674 23.2758C72.0771 23.314 72.1 23.3476 72.132 23.3706Z" fill="#263238"/>
</svg>
