<svg width="14" height="14" viewBox="0 0 14 14" fill="none" xmlns="http://www.w3.org/2000/svg">
<path d="M8.29115 0.894817C7.84374 -0.298271 6.15612 -0.298273 5.70871 0.894817L5.60635 1.16778C4.8372 3.21884 3.21884 4.8372 1.16778 5.60635L0.894817 5.70871C-0.298271 6.15612 -0.298273 7.84374 0.894817 8.29115L1.16778 8.39351C3.21884 9.16266 4.8372 10.781 5.60635 12.8321L5.70871 13.105C6.15612 14.2981 7.84374 14.2981 8.29115 13.105L8.39351 12.8321C9.16266 10.781 10.781 9.16266 12.8321 8.39351L13.105 8.29115C14.2981 7.84374 14.2981 6.15612 13.105 5.70871L12.8321 5.60635C10.781 4.8372 9.16266 3.21884 8.39351 1.16778L8.29115 0.894817Z" fill="#C084FC"/>
</svg>
