<svg width="14" height="14" viewBox="0 0 14 14" fill="none" xmlns="http://www.w3.org/2000/svg">
<path fill-rule="evenodd" clip-rule="evenodd" d="M5.44496 0.207477C4.60411 -0.212946 3.58325 0.0214853 3.01007 0.766625L0.580667 3.92485C0.204147 4.41432 0 5.01454 0 5.63208V6.49558H0.00079532C0.0125147 6.81537 0.153284 7.11756 0.392057 7.33246L6.03391 12.4101C6.88112 13.1726 7.96585 13.6144 9.10022 13.6634V13.668H11.8154C13.0221 13.668 14.0003 12.6898 14.0003 11.483C14.0003 10.9035 13.7701 10.3478 13.3604 9.93803L10.7626 7.34028C10.5321 7.10975 10.3584 6.82871 10.2553 6.51941L9.14408 3.18572C9.00115 2.75695 8.5999 2.46774 8.14793 2.46774H6.8047L6.42978 1.34299C6.26507 0.848865 5.91082 0.440409 5.44496 0.207477ZM11.4902 12.268H11.8154C12.2489 12.268 12.6003 11.9166 12.6003 11.483C12.6003 11.2749 12.5176 11.0752 12.3704 10.928L9.77265 8.33025C9.38843 7.94603 9.09895 7.47763 8.92712 6.96214L7.89566 3.86778H5.79561L5.10159 1.78572C5.0543 1.64385 4.95259 1.52658 4.81884 1.45971C4.57743 1.339 4.28433 1.40631 4.11977 1.62024L1.69037 4.77846C1.5776 4.92506 1.49576 5.09152 1.44825 5.26781H3.17495C4.017 5.26781 4.82456 5.60232 5.41998 6.19773L11.4902 12.268Z" fill="#A8A29E"/>
</svg>
