<svg width="30" height="30" viewBox="0 0 30 30" fill="none" xmlns="http://www.w3.org/2000/svg">
<path d="M13.6361 5.45442V0H16.3633V5.45442H13.6361Z" fill="#FBBF24"/>
<path fill-rule="evenodd" clip-rule="evenodd" d="M6.81803 14.9997C6.81803 10.4811 10.4811 6.81803 14.9997 6.81803C19.5183 6.81803 23.1813 10.4811 23.1813 14.9997C23.1813 19.5183 19.5183 23.1813 14.9997 23.1813C10.4811 23.1813 6.81803 19.5183 6.81803 14.9997ZM14.9997 9.54524C11.9873 9.54524 9.54524 11.9873 9.54524 14.9997C9.54524 18.0121 11.9873 20.4541 14.9997 20.4541C18.0121 20.4541 20.4541 18.0121 20.4541 14.9997C20.4541 11.9873 18.0121 9.54524 14.9997 9.54524Z" fill="#FBBF24"/>
<path d="M13.6361 24.5449V29.9993H16.3633V24.5449H13.6361Z" fill="#FBBF24"/>
<path d="M20.7848 7.28608L24.6417 3.42922L26.5701 5.35765L22.7133 9.21451L20.7848 7.28608Z" fill="#FBBF24"/>
<path d="M9.21443 22.7133L7.286 20.7849L3.42914 24.6418L5.35757 26.5702L9.21443 22.7133Z" fill="#FBBF24"/>
<path d="M24.5452 13.6361H29.9997V16.3633H24.5452V13.6361Z" fill="#FBBF24"/>
<path d="M5.45442 13.6361H0V16.3633H5.45442V13.6361Z" fill="#FBBF24"/>
<path d="M26.5701 24.6417L24.6417 26.5701L20.7848 22.7133L22.7133 20.7848L26.5701 24.6417Z" fill="#FBBF24"/>
<path d="M9.21443 7.28567L5.35757 3.42881L3.42914 5.35724L7.286 9.2141L9.21443 7.28567Z" fill="#FBBF24"/>
</svg>
