<svg width="42" height="38" viewBox="0 0 42 38" fill="none" xmlns="http://www.w3.org/2000/svg">
<path fill-rule="evenodd" clip-rule="evenodd" d="M20.7846 0C13.0526 0 6.78461 6.26801 6.78461 14C6.78461 18.7087 9.1092 22.8744 12.6734 25.4122C11.3311 25.8942 10.0293 26.4968 8.78461 27.2154C5.13615 29.3218 2.10644 32.3515 0 36L3.4641 38C5.21947 34.9596 7.74422 32.4349 10.7846 30.6795C13.825 28.9241 17.2739 28 20.7846 28C24.2953 28 27.7442 28.9241 30.7846 30.6795C33.825 32.4349 36.3498 34.9596 38.1051 38L41.5692 36C39.4628 32.3515 36.4331 29.3218 32.7846 27.2154C31.5399 26.4968 30.2381 25.8942 28.8959 25.4122C32.46 22.8744 34.7846 18.7087 34.7846 14C34.7846 6.26801 28.5166 0 20.7846 0ZM10.7846 14C10.7846 8.47715 15.2618 4 20.7846 4C26.3075 4 30.7846 8.47715 30.7846 14C30.7846 19.5228 26.3075 24 20.7846 24C15.2618 24 10.7846 19.5228 10.7846 14Z" fill="#926247"/>
</svg>
