<svg width="14" height="17" viewBox="0 0 14 17" fill="none" xmlns="http://www.w3.org/2000/svg">
<path fill-rule="evenodd" clip-rule="evenodd" d="M6.80027 0C7.04538 0 7.27857 0.105812 7.43998 0.290282L11.711 5.1714C12.9291 6.56356 13.6005 8.35054 13.6005 10.2004C13.6005 11.0934 13.4246 11.9777 13.0829 12.8027C12.7411 13.6278 12.2402 14.3774 11.6088 15.0089C10.9773 15.6404 10.2277 16.1413 9.40261 16.483C8.57757 16.8248 7.69329 17.0007 6.80026 17.0007C5.90724 17.0007 5.02296 16.8248 4.19792 16.483C3.37287 16.1413 2.62321 15.6404 1.99175 15.0089C1.36029 14.3774 0.859384 13.6278 0.517639 12.8027C0.175894 11.9777 -1.01332e-07 11.0934 0 10.2004C1.51998e-07 8.35054 0.671431 6.56356 1.88957 5.1714L6.16055 0.290282C6.32196 0.105812 6.55515 0 6.80027 0Z" fill="#C084FC"/>
</svg>
