<svg width="14" height="18" viewBox="0 0 14 18" fill="none" xmlns="http://www.w3.org/2000/svg">
<path d="M7.00017 0L1.94512 5.7772C0.691169 7.21029 0 9.0498 0 10.954C0 11.8733 0.181065 12.7836 0.532856 13.6329C0.884648 14.4822 1.40028 15.2539 2.0503 15.9039C2.70033 16.5539 3.47202 17.0696 4.32132 17.4214C5.17062 17.7731 6.0809 17.9542 7.00017 17.9542C7.91945 17.9542 8.82972 17.7731 9.67902 17.4214C10.5283 17.0696 11.3 16.5539 11.95 15.9039C12.6001 15.2539 13.1157 14.4822 13.4675 13.6329C13.8193 12.7836 14.0003 11.8733 14.0003 10.954C14.0003 9.0498 13.3092 7.21029 12.0552 5.77721L7.00017 0Z" fill="#60A5FA"/>
</svg>
