<svg width="33" height="34" viewBox="0 0 33 34" fill="none" xmlns="http://www.w3.org/2000/svg">
<path d="M9.82112 6.67892C9.82112 2.99025 12.8114 0 16.5 0C20.1887 0 23.179 2.99025 23.179 6.67892C23.179 10.3676 20.1887 13.3578 16.5 13.3578C12.8114 13.3578 9.82112 10.3676 9.82112 6.67892Z" fill="#F08C51"/>
<path d="M9.0669 12.977C6.79561 12.3684 4.38647 12.7523 2.60548 13.9598C2.36213 14.1248 2.13068 14.3056 1.91346 14.501C3.37954 16.417 5.21373 18.0318 7.31648 19.2458C10.1086 20.8578 13.2759 21.7065 16.5 21.7065C19.7241 21.7065 22.8914 20.8578 25.6835 19.2458C27.7863 18.0317 29.6205 16.417 31.0866 14.501C30.8694 14.3056 30.6379 14.1248 30.3946 13.9599C28.6136 12.7523 26.2045 12.3684 23.9332 12.977L19.1354 14.2625C17.4089 14.7251 15.5911 14.7251 13.8647 14.2625L9.0669 12.977Z" fill="#F08C51"/>
<path d="M32.8836 17.5784C31.3118 19.387 29.445 20.9302 27.3533 22.1378C24.0534 24.043 20.3103 25.046 16.5 25.046C12.6897 25.046 8.94656 24.043 5.64675 22.1378C3.55507 20.9302 1.68824 19.387 0.116417 17.5785C-0.0354944 18.3126 -0.0444989 19.1098 0.123571 19.9548C0.623228 22.4667 1.69404 24.8301 3.25318 26.862C4.81231 28.8939 6.81797 30.5399 9.11501 31.6727C11.412 32.8054 13.9389 33.3946 16.5 33.3946C19.0612 33.3946 21.588 32.8054 23.8851 31.6727C26.1821 30.5399 28.1878 28.8939 29.7469 26.862C31.306 24.8301 32.3769 22.4667 32.8765 19.9548C33.0446 19.1098 33.0356 18.3125 32.8836 17.5784Z" fill="#F08C51"/>
</svg>
