<svg width="25" height="25" viewBox="0 0 25 25" fill="none" xmlns="http://www.w3.org/2000/svg">
<path d="M9.375 10.4167C9.375 14.4437 12.5 17.7083 12.5 17.7083C12.5 17.7083 15.625 14.4437 15.625 10.4167C15.625 6.38958 12.5 3.125 12.5 3.125C12.5 3.125 9.375 6.38958 9.375 10.4167Z" stroke="url(#paint0_linear_24397_23212)" stroke-width="1.5" stroke-linecap="round" stroke-linejoin="round"/>
<path d="M6.5944 8.33268C4.28711 7.33893 2.08398 7.29102 2.08398 7.29102C2.08398 7.29102 2.18398 11.8546 5.06003 14.7316C7.93607 17.6087 12.5007 17.7077 12.5007 17.7077C12.5007 17.7077 17.0642 17.6077 19.9413 14.7316C22.8184 11.8556 22.9173 7.29102 22.9173 7.29102C22.9173 7.29102 20.7152 7.33893 18.4069 8.33268M12.5215 17.7077C12.3486 19.0962 13.1882 21.8743 16.1611 21.8743C18.2392 21.8743 19.2788 19.791 22.9173 21.8743C22.5007 19.791 21.6673 18.4577 20.4517 17.7077M12.4788 17.7077C12.6527 19.0962 11.8121 21.8743 8.84128 21.8743C6.76107 21.8743 5.72253 19.791 2.08398 21.8743C2.50065 19.791 3.33398 18.4577 4.54961 17.7077" stroke="url(#paint1_linear_24397_23212)" stroke-width="1.5" stroke-linecap="round" stroke-linejoin="round"/>
<defs>
<linearGradient id="paint0_linear_24397_23212" x1="12.5" y1="3.125" x2="12.5" y2="17.7083" gradientUnits="userSpaceOnUse">
<stop stop-color="#E6FFA9"/>
<stop offset="0.5" stop-color="#FEDDC9"/>
<stop offset="1" stop-color="white"/>
</linearGradient>
<linearGradient id="paint1_linear_24397_23212" x1="12.5007" y1="7.29102" x2="12.5007" y2="21.8743" gradientUnits="userSpaceOnUse">
<stop stop-color="#E6FFA9"/>
<stop offset="0.5" stop-color="#FEDDC9"/>
<stop offset="1" stop-color="white"/>
</linearGradient>
</defs>
</svg>
